<svg xmlns="http://www.w3.org/2000/svg" viewBox="0 0 1440 980" style="enable-background:new 0 0 1440 980" xml:space="preserve">
    <style>
        .st0{display:none}.st1{display:inline}.st2{fill-rule:evenodd;clip-rule:evenodd;fill:none;stroke:#bcbcbc;stroke-width:.75;stroke-miterlimit:1.2402}.st4,.st5{fill:#bcbcbc}.st5{display:inline}
    </style>
    <g id="Layer_6">
        <path class="st4" d="m575.8 404.2.1-.1-.1.1c-.1 0 0 0 0 0zM582.8 404.5h-.3c-.2 0-.2.3-.2.4 0 .1.1.3.2.4.3-.3.4-.7.3-.8.1 0 .1 0 0 0zM578.2 403.8c.3-.2.6-.6.9-1-.4.1-.7.3-1.1.4 0 .1.1.2.1.3 0 .2 0 .3.1.3zM874.3 422.5h-.1l-.1.1c.1-.1.2-.1.2-.1zM864.5 408.5s0 .1 0 0c0 .1 0 0 0 0zM798.6 393.1l-1.7-4.4c-.5.3-1.1.5-1.6.6-.4.1-.8.1-1.2.2-.4 0-.8 0-1.1.2l-.9-.7s0 .1.1.2.2.1.2.1c-.1 0-.3.1-.5.1-.2.1-.4.2-.6.2-1 .1-1.5-.3-2-.7-.2.2-.3.3-.5.4l-.1.1-.2-.2-.7.3c-.3-.3-.4-.5-.5-.6l-.2-.1c-.8-.2-.9-.9-.8-1.3-.1 0-.2.1-.4.1-.7.1-1.2-.2-1.6-.4-.1-.1-.3-.1-.4-.2-.3.3-.9.5-1.9.9-.1 0-.2.1-.3.1l-.3-.4h-.4c-.2.3-.4.5-.6.7v.5c-.4.1-.8-.1-1.1-.3-.3.3-.6.6-.9.8-.9.7-2.2 1.7-3.6 1.4-.6-.1-1.2-.4-1.7-.6-.5-.2-1-.5-1.6-.5h-.4c-.3 0-.6 0-.9-.1-.4-.1-.6-.3-.7-.5-.4 0-.9.1-1.4-.1-.4-.1-.7-.4-.9-.6-.1-.2-.2-.2-.3-.2-1.1-.3-2.4-.6-3.7-.7-.4 0-.7-.1-1-.2-.7-.1-1.4-.2-2.1 0-.6.2-1.5.4-2.1 0l-.1.1c-.2.2-.3.3-.4.5-.1.4.1.8.3 1.3.1.3.3.7.4 1.1.2 1-.2 1.8-.6 2.5l-.3.6c-.1.4.1.9.3 1.4.2.4.4.8.4 1.3l.1.7c.2 1.4.5 2.8.6 4.2l.8 33.4h25.3c.9 0 1.2 0 1.6-.6 0-.1.1-.1.1-.1l.1-.1.2-.2c.2-.1.4-.2.6-.2.3 0 .6.3.7.6V434.4c1 .1 2.1.1 3.2 0 .2 0 .5 0 .8-.1.7-.1 1.4-.1 2-.1h.4c.1 0 .2.1.3.1.1 0 .3.1.4.1.2.1.3.2.5.3.6.3 1.6 1 2.1.8.2-.1.3-.4.3-.6.2-.8.4-1.3.9-1.6.2-.1.4-.2.6-.2.1 0 .3-.1.5-.1.7-.1.9-.4 1.2-1.3v-.1c.2-.5.4-1.2 1-1.4.2-.1.5-.1.9 0h.1c.3-.2.8-.8 1-1 0 0 0-.1.1-.1-.8-.9-.9-3-.6-4.3l.4-.2c-.3-.2-.6-.5-.8-.8-.2-.3-.4-.5-.6-.8-.4-.5-.8-1-1.1-1.6-.9-1.8-1.8-3.6-2.7-5.3l-.8-1.5c-.2-.3-.3-.6-.5-1s-.4-.7-.6-1.1c0-.1-.1-.2-.2-.3-.3-.4-.6-.7-.6-1.2 0-.2.1-.4.2-.5v-.1l-.1-.1c-.2-.3-.4-.6-.5-.9-.3-.8-.6-1.3-1.1-1.9-.4-.4-.4-.9-.4-1.2 0-.3 0-.4-.2-.5l.7-.9c-.1 0-.2 0-.3.1-.2.2-.2.4-.2.5 0-.1-.2-.5-.3-.6l-.6-.6c-.2-.1-.3-.3-.5-.4-.7-.7-1.2-1.5-1.8-2.4-.2-.3-.3-.5-.5-.8-.4-.6-.6-1.2-.8-1.8-.2-.6-.4-1.2-.8-1.7-.8-1-.1-2.5.6-3.3l1 .3c.3 1.3.9 2.5 1.6 3.6.1.2.3.4.5.6.6.7 1.3 1.5 1.1 2.7-.1.3.2.6.8 1.1.3.3.7.5.9.9.4.6.8 1.1 1.3 1.5l.6.3s.1 0 .1.1c.1-.2.2-.3.2-.4.1-.2.3-.5.3-.6 0-.9 0-1.5.4-2.4.2-.5.3-1.1.4-1.8.1-.9.3-1.9.7-2.6l-1-4.1z"/>
        <path class="st4" d="M792.3 399.2c-.2-.2-.4-.4-.5-.7-.2-.2-.3-.5-.5-.8l.3.9c.2.5.3 1.1.6 1.5.2.3.4.5.5.8.1.2.3.4.4.6 0-.2-.1-.4 0-.7.1-.5-.2-.9-.8-1.6zM794.4 403.2c-.1 0-.1-.1-.2-.1 0 0 .1 0 .2.1s.2.3.4.4c.1.1.3.2.4.4l-.1-.1c-.2-.3-.4-.5-.7-.7zM611.9 405.5l.2-3.4v-.5c0-1.4 1.4-2.1 2.4-2.7.4-.2.9-.4 1.1-.7l.2-.2.5-.5.1-.1c.1 0 .1-.1.2-.1.4-.3.8-.5 1.3-.4 0 0 .1-.2.2-.2.3-.3.6-.7 1.2-.8.6-.1 1.1 0 1.5.1.1 0 .2 0 .3.1.2 0 .3-.1.5-.6.4-.8 1.2-.7 1.7-.7h.4c.8-.1 1.7-.2 2.4-.5s1-.8 1.4-1.4c.4-.6.8-1.3 1.6-1.7.4-.2.9-.3 1.3-.4.3-.1.5-.1.7-.2.2-.1.5-.3.7-.5.4-.3.8-.7 1.4-.8h.2c.3 0 .4-.1.5-.1l-.1-.1c-.2-.2-.5-.5-.5-1 0-.2 0-.3.1-.5l-.1-.1v-.1c0-.1 0-.1-.1-.2V386.6c.1-.8 1.1-1.5 1.9-1.4.5 0 1.6 0 2-1 .7-1.8 3.5-1.4 5.7-1.1.5.1.9.1 1.3.2 0-.5.4-.9.7-1.2l.3-.3c-.1 0-.1-.1-.2-.1-.4-.3-.8-.6-1.1-.9-.3-.4-.4-.8-.4-1.2 0-.3-.1-.5-.2-.7-.5-.8-.3-1.4-.2-2 0-.1 0-.2.1-.3 0-.1 0-.1-.1-.2-.1-.2-.3-.5-.2-1 0-.4.1-.9.1-1.4v-.3c0-.2 0-.3-.1-.5-.1-.3-.2-.8.1-1.3-.3-.3-.3-.7-.3-1v-.3c0-.1-.4-.4-.6-.5-.4-.2-.7-.5-1-.9l-.1-.1c-.5.3-1.1.3-1.5.1h-.3c-.3 0-.7-.4-.9-.8-.8.4-1.7.4-2.4.3-.4 0-.8-.1-1.1 0l-.5.1c-1.5.2-2.8.4-4.3-.7-.8-.6-1.3-1.2-1.7-2.1 0-.1-.1-.2-.1-.3 0-.1 0-.1-.1-.2-.4.2-.9.4-1.5.4-.1.1-.2.4-.4 1 0 .1-.1.2-.1.2l-.1.3c-1.1 2.9-2.5 6.8-5.4 8.5-1 .6-2 1-3 1.4-.5.2-1.1.4-1.6.7-.9.4-1.5 1.1-2.2 1.8-.3.3-.6.6-1 .9-.5.5-1 .9-1.1 1.4-.1.3-.1.6-.2.9-.1.6-.2 1.3-.7 2-1.1 1.4-1.8 2.2-1.9 3.9v.3c0 .6 0 1.2-.4 1.9.1.1.2.1.3.2.4.3.6.7.7 1.2.2 1.6-1.3 3.5-1.5 3.8-.2.2-.4.5-.6.7-.8 1-1.6 2.1-2.6 2.9-.4.4-.9.7-1.3 1.1-.8.6-1.6 1.2-2.3 2-1.3 1.3-3.1 1.8-4.7 2.2-.3.1-.7.1-1 .2l-1.5.3-.2.2 18.2-.4zM800 402.3c0-.1.1-.2.1-.2v-.1c-.1.1-.1.2-.1.3zM864.5 408.5zM575.7 437.8h16.1c.1-.1.1-.4.1-.8 0-.9-.1-2.2-.2-2.8 0-.5-.1-.9-.1-1.2v-.6c-.1-1.1 0-2.1 1.1-3.2.8-.7 1-.8 2.2-1.3.4-.1.9-.3 1.5-.6l.1-1.9.5-10.5.6-.6 14-.2.2-5.6.1-1.6c-.9.1-2.5.2-5.4.2-2.6 0-6.1 0-11.1-.1h-2.1l-.3.6c-.2.5-.5 1.1-.7 1.6-.8 2.1-1.9 3-3.7 4.1-1.2.7-1.7 2-2.2 3.4l-.2.6c-.3.7-.4 1.3-.5 1.9-.3 1.2-.5 2.5-1.7 3.7-.4.4-.8.8-1.3 1.2-.6.5-1.1 1-1.6 1.5.4.9-.5 2.3-1.5 3.6-.1.1-.2.2-.2.3 0 0 0 .2-.1.3 0 .3-.1.8-.5 1.1-.2.1-.3.5-.3.9 0 .2-.1.4-.1.6-.3.9-.8 1.2-1.3 1.6-.3.2-.5.4-.7.7-.4.6-.6 1.3-.8 2.2-.1.3-.1.6-.2 1h.2c0-.1 0-.1.1-.1zM790.5 396.5l.3.3c-.1-.3-.2-.5-.3-.8-.1.3-.1.4 0 .5zM865.2 408.4l-.1.1c0 .1.1 0 .1-.1zM863.1 407.2v.1c0 .1 0 .1.1.2l-.1-.3zM732.6 393.7c-1.5.1-2.6-.9-3.5-1.8-.3-.3-.5-.5-.8-.7-1.3-1-3.7-1.8-5.5-2.2-.5-.1-1-.1-1.4-.2-1.3-.1-2.7-.2-3.9-1.3-.9-.8-1.4-1.7-1.6-3-.1-.8-.3-1.5-.8-1.8-.2-.1-.6-.2-.9-.2-.4 0-.8 0-1.2-.2-.5-.2-.9-.5-1.3-.7-.3-.2-.7-.4-1-.6-.4-.2-.9-.3-1.4-.4-.4-.1-.9-.2-1.4-.4-.4-.2-.8-.1-1.4.1-.3.1-.7.2-1.1.3-1.2.1-2.3-.1-3.2-.7-.3-.2-.7-.4-1.1-.6-.2-.1-.4-.2-.6-.2 0 .1 0 .3-.1.4v.2c0 .2 0 .5-.1.7 0 .1.1.3.1.4.1.1.1.3.2.4.1.5.1 1-.7 1.6-.3.2-.8.4-1.2.6-.7.3-1.7.8-2 1.1l-.1.1v.2c-.1.3-.2.8-.8 1-1.1.4-1.3.6-1.1 1.4 0 .2.1.3.1.5.2.6.4 1.2.3 1.9 0 .2-.1.3-.1.5v.1l-.3.6c-.4.6-.7 1.1-1.1 1.4-.2.2-.4.3-.5.4-.4.3-.8.5-1.2.7-.1.2-.3.3-.4.4l.1.1c.9 1.2 1.5 2.4 1.7 3.6.5 2.4.3 3.5.2 4.4-.1.6-.2 1 0 1.8.1.3.2.6.2.9.1.8 0 1.5-.3 2.3-.3.7-.1 1.5.1 2.3 0 .2.1.4.1.6.4 1.8-.3 2.3-1.2 2.8-.2.1-.4.3-.6.4-.1.1-.2.2-.2.3-.1.5.7 1.5 1.2 2.1.2.3.5.6.6.8.6.9.7 1.8.9 2.7.2 1 .3 1.8 1 2.5.1.1.1.1.5-.1.1 0 .3-.1.4-.1h1c.5.1 1 .3 1.4.6.3.1.5.2.7.3 1.9.7 2.5 2.3 3.2 3.9 0 .1.1.2.1.3 0 .1.1.1.1.1.1.1.3.1.4.2 1.1 0 2.2.4 3.3.7.3.1.5.2.8.2.4.1.9.3 1.3.4.1.1.2.1.4.2.3.1.6.3.9.5.1.1.2.2.3.2.1.1.2.2.4.3.5.4 1.1.9 1.6 1.5l.1.1c.1 0 .1.1.1.1l.6-.3 1.5-.9c.3-.2.6-.3.8-.5l.2.1 5-2.4 34.3 19.4v-1.4l.6-.6h3.8l-.1-2.2c-.1-2.2-.1-4.3-.2-6.4v-1l-.8-31.7c0-.5 0-1-.1-1.5 0-1-.1-2-.2-2.9-.3-2.3-.7-3.5-1-4.1-.6-1-.2-2 .2-2.9.2-.5.5-1 .4-1.4 0-.3-.2-.6-.3-.9-.4-1-.8-2.2.8-3.6-.1-.3-.5-.8-.7-.9-.4-.1-.8-.1-1.2 0-.6 0-1.2.1-1.8-.1-.4-.1-.7-.2-1.1-.4-.5-.2-1-.4-1.6-.4-2-.1-2.4-1-2.4-1.5v-.8s-.1 0-.5-.2c-.3-.1-.6-.3-.9-.4-.6-.3-1.1-.5-1.7-.6-.8-.2-1.7-.2-2.4-.1-.3 0-.5.1-.8.3-.4.2-.8.4-1.4.4-1.5 0-4 1.9-4.4 3.3-.2.6-.1 1.4.2 2.4l.3.6c.3.6.6 1.2.4 2.1-.8 2.4-3 4.3-5.2 4.5zM698 377.8l.2-.6-.2.2c-.1.3 0 .4 0 .4zM639.2 367.8c-.1 0-.2.1-.2.1-.1.1-.1.1-.1.2l.3-.3z"/>
        <path class="st4" d="M691.6 358.1c-.1 0-.3.1-.4.1-.8.2-1.4.5-2 1.1-.4.4-.7.4-1 .4h-.1c0 .1-.1.2-.1.3 0 .1 0 .1-.1.2-.3.5-.7.8-1.1 1.1h-.1c0 .1.1.1.1.2.2.4.2.9.1 1.4 0 .3-.1.5-.2.8-.1.4-.2.9-.2 1.1.1.3.2.6.2.8v.2c.2 1.4 0 2.6-.3 4.1-.3 1.2-1.3 2.2-2.3 3.1l-.3.3-.1.1c-.2.1-.3.3-.5.4-.3.2-.1 1.3.2 1.8.2.4.4.8.5 1.2.2.6.3.9.8 1.1 1.2.4 1.5 1.5 1.8 2.3.2.6.4 1.2.8 1.5.2.2.4.3.6.4.5.3.9.6 1.3 1 .7.8.9 2 1.1 3l.1.4c.1.8.3 1.6.6 2.4.3 1.1.6 2.2.7 3.2.2-.1.3-.2.5-.3.1-.1.2-.1.2-.2.2-.2.4-.4.5-.7.1-.2.2-.3.3-.4.1-.2.2-.3.3-.5 0 0 0-.1.1-.1v-.5c0-.3-.1-.5-.2-.8-.2-.6-.3-1.2-.3-1.9.1-1 .9-1.3 1.3-1.5.3-.1.4-.2.5-.3.3-1.2 1.2-1.7 2.1-2.1.1-.1.3-.1.5-.2.4-.1 1.4-.5 1.6-.8 0 0 0-.1-.1-.2v-.1c-.1-.2-.3-.5-.2-.9v-1.1c0-.3 0-.6.1-.8h-.2c-.3 0-.8 0-1.2-.4l.2-.4-.1-.1c-.1-.1-.3-.3-.4-.5 0-.1-.1-.1-.1-.2-.2.2-.5.4-.9.4-.2 0-.4-.2-.5-.4-.1-.1-.1-.3-.2-.5v-.1c-.2.1-.6.1-1.1-.1-.5-.2-1-.6-1.3-1.2-1.3-2 .2-3 1.3-3.7.3-.2.5-.3.7-.5 1.1-.9 2.1-2.3 1.8-3.6v-.2c-.2-.9-.2-.9-1-1.3-.9-.5-1.6-1.7-1.5-2.8 0-.9.8-1.6 1.5-2.2.4-.3.8-.7.9-1 .1-.2.1-.3.1-.4-.1.1-.2.2-.3.2l-.1.1-.2.2c-.4.3-.8.7-1.3.9-.6.2-1.1-.1-1.3-.3l.3-.5-.5-.5h.1c-.5-.3-.5-.7-.4-1 0-.1-.1-.1-.1-.2-.1.2-.4.4-.9.4l-.6-.5v-.4c.3.1.1.1 0 .2z"/>
        <path class="st4" d="m629.1 419.2.2.1c6.7 5 13.2 10.1 19.4 15l3.6 2.9.9.6c.9.6 2.1 1.4 2 2.7 0 .4 0 .4.3.5.1 0 .2.1.3.1.1 0 .3.1.4.2.2.1.3.1.5.2.5.3.6.7.7 1.1 0 .1.1.2.1.3l.3.3c.2.1.4.1.7.2.3-.2.6-.1.9 0 .1 0 .1 0 .2.1l.1.1s.1 0 .1.1c.2.2.4.3.6.5l.4.4c.3.1.6.2.9.2.7.1 1.4.3 2 .6 1 .6.7 2.7.4 3.3l-.1.3c-.1.2-.2.4-.2.5h.2c.7.1 1.6-.1 2.4-.3.5-.1 1-.2 1.4-.3h.1c.2-.1.4-.1.5-.1h.2c.2-.1.5-.2.9-.3.7-.2 1.4-.3 2.1-.4.7-.1 1.5-.2 2.1-.4 1.1-.3 1.9-1.2 2.8-2.1.1-.2.3-.3.4-.5l.1-.1.1-.1c.1-.1.2-.2.3-.2.5-.4.9-.9 1.4-1.4 1.2-1.2 2.5-2.5 3.9-3.6 2.6-2 5.4-3.9 8.3-5.8 2.8-1.9 5.6-3.7 8.4-5.5.4-.3.8-.6 1.2-.8.1-.1.2-.1.3-.1l.2-.1c.1 0 .1-.1.2-.1l-.6-1.2c0-.1-.1-.2-.1-.3-.6-1.4-1.2-1.8-2.7-2.3l-.6-.3c-.3-.2-.5-.3-.8-.3-.1 0-.2.1-.4.1-.4.2-1.2.5-1.8-.2l-.2-.2c-.1-.1-.1-.2-.2-.3-.4-.6-1-1.6-1-2.2 0-1.3-.1-1.7-.8-2.7-.1-.2-.3-.4-.5-.7-.8-.9-2-2.4-1.1-3.7.4-.6.9-.9 1.3-1.1.6-.4.7-.4.4-1.5-.3-1.1-.6-2.1-.1-3.5.2-.7.4-1.2.3-1.8 0-.2-.1-.4-.1-.6v-.2c-.3-.9-.2-1.8-.1-2.6 0-.2.1-.5.1-.7.1-1.1-.1-2.4-.5-3.5-.3-.9-.8-1.8-1.4-2.7-.3-.3-.3-.6-.3-.8 0-.3.3-.6.7-.9-.2-1.1-.4-2.2-.7-3.3-.2-.8-.4-1.7-.6-2.5v-.1c-.4-2-.6-3-2.2-3.9-1-.5-1.5-1.2-1.8-2.4-.2-.7-.5-1.1-1-1.5l-.1-.1c-.4-.2-.8-.5-1.1-.9-.2-.3-.3-.6-.3-.9 0-.2-.1-.4-.1-.5-.7-1.1-.9-2.1-.6-2.9v-.1c.1-.6.6-.9.9-1.1 0 0 .1 0 .1-.1.1-.1.3-.2.4-.3.1-.1.1-.2.2-.2.2-.2.4-.5.8-.8.3-.3.7-.8.8-1.4.3-.9.3-1.6.3-2.4v-1.4c0-.1-.1-.2-.1-.4-.1-.4-.3-.9-.2-1.4 0-.2.1-.5.2-.8.1-.2.2-.5.2-.8v-.4c0-.1-.1-.1-.2-.1l-.3-1 .3-.3.2-.2.2-.2c.2-.1.3-.3.5-.4h-.2c-.4 0-.7 0-1 .1-.7.2-1.5.3-1.8-.2-.1-.1-.1-.2-.1-.3-.2-.1-.4-.1-.5-.2-.2-.1-.3-.1-.5-.2-.1.1-.2.3-.4.4-1 .8-2.3.5-3.2-.1-.1-.1-.4-.2-.6-.3 0 .2-.1.4-.2.5-.4.5-1.2.6-2.4.7h-.2c-.2 0-.4.2-.6.3-.5.3-1.2.9-2.3.1l-.1-.1c-.8-.6-.9-.7-1.8-.7h-1c-1 0-1.9 0-2.8.3-.2.1-.5.1-1.3.1h-.3l-.3.3c-.3.1-.6-.1-.8-.2-.1-.1-.3 0-.8.3-.4.3-.9.6-1.6.5-.9-.1-1.7.1-2.7.2-.4.1-.9.1-1.3.2-2.3.3-4.9 1.2-5.6 2.7-.7 1.3-1.7 1-2.1.8-.1 0-.3-.1-.4-.1l-.1.1c-.3.3-1 1-1.8.5-.1 0-.3.2-.4.2-.1.1-.2.1-.2.1-.3.2-.5.4-.7.8-.4.7-.8.8-1.1 1-.1 0-.2.1-.3.1l-.2.1c-.7.3-1.2.6-1.9.8.3.2.7.5.9.9.2.4.1.7.1 1v.2h.1l.1 1c-.1.1-.1.5 0 .8.1.6.1 1 0 1.4 0 .3-.1.6 0 .8 0 .1.1.3.1.5.1.3.3.8.2 1.3-.2.8-.1.9.3 1.7.2.3.2.6.2.9v.3c.2.3.4.5.8.7.2.1.3.2.5.3.3.2.4.5.4.7.1.5-.3 1-.6 1.4l-.3.3-.1 1.1c-.6.2-1.6 0-2.8-.1-1.6-.2-4.1-.5-4.4.4-.5 1.2-1.7 1.9-3.2 1.8-.2 0-.4.1-.6.3l.2 1-.1.1c0 .1.2.3.3.4.2.2.8.9.2 1.5-.4.4-.9.5-1.3.6-.3 0-.5.1-.6.2-.1.1-.3.2-.5.4-.5.4-1 .8-1.6 1-.2.1-.5.1-.7.2-.3.1-.5.1-.7.2-.5.3-.8.7-1.1 1.3-.2.3-.4.7-.7 1-1.1 1.3-3.2 1.4-3.8 1.5h-.6c-.7 0-.8 0-.9.3-.3.9-1 1-1.5 1h-.2c-.1 0-.2 0-.3-.1h-.1c-.2-.1-.5-.1-.7-.1-.4 0-.6.2-.9.6-.4.4-.8.5-1.2.6-.1 0-.2 0-.4.1s-.3.2-.5.4l-.2.2-.5.5-.9.6c-.2.1-.5.3-.7.5-.2.2-.5.4-.7.5-.5.3-.7.5-.8.9v.4c.1 1.3 0 2.7-.2 3.9v.1l-.1 1.7c1.8 1.2 3.5 2.4 5.2 3.6.2.2.4.3.7.5 3.6 1.9 6.9 4.3 10.3 6.8-.1 0-.1 0 0 0zM783.1 386.9c.1 0 .1 0 0 0v-.6s-.1.1-.1.2l.1.4zM788.4 388.3l.3-.8-.4.6c0 .1 0 .1.1.2v-.1.1z"/>
    </g>
</svg>
