<svg xmlns="http://www.w3.org/2000/svg" viewBox="0 0 1440 980" style="enable-background:new 0 0 1440 980" xml:space="preserve">
    <style>
        .st0{display:none}.st1{display:inline}.st2{fill-rule:evenodd;clip-rule:evenodd;fill:none;stroke:#bcbcbc;stroke-width:.75;stroke-miterlimit:1.2402}.st4,.st5{fill:#bcbcbc}.st5{display:inline}
    </style>
    <g id="Layer_9">
        <path class="st4" d="M438.4 287.4h-.1c-.8.2-1.5.5-2.1 1-.2.2-.4.5-.6.8-.3.4-.5.8-.9 1.1-.4.3-.8.5-1.2.6h-.1l-.4.6c-.2-.1-.8.5-1.6 1.6-.2.3-.4.5-.5.7-.2.2-.4.5-.7.7l-.9.9c-.1.1 0 .3 0 .4 0 .3 0 1.2-.9 1.3l-.4-.4c-.1.1-.3.2-.4.4l.1.4h.1v.1l.2.6c-.1 0-.2.1-.2.1v.4h-.1l.3.6c-.7.4-1.2 0-1.5-.2 0 0-.1-.1-.2-.1-.3 0-.4 0-.7.4l-.4.5c-.2.2-.4.4-.6.7h.4l.3 1.2c-.7.2-1.3.6-1.9 1-.4.2-.8.5-1.2.7l-.3.2c-.5.3-1.2.6-1.4 1-.2.4-.2.6-.2.6.2.1 1.3-.1 1.8-.1.3 0 .6-.1.8-.1.2-.2.4-.3.7-.4l.7 1v-.3c-.1-.2-.2-.3-.3-.3h.6c.4 0 .8 0 1.1.1.5.2 1.1.1 1.7 0h.1l.6.9s0-.2-.1-.4-.3-.2-.3-.2h1c.3.1.6.2.8.1.2-.1.5-.1.8-.2.2 0 .6-.1.8-.2 0 0 0-.1.1-.1l.3.1c.2-.1.5-.5.6-.6h.7c.1 0 .2-.1.3-.1.3-.1.4-.2.4-.3l1.1.4c0 .1-.1.2-.2.4s-.3.5-.3.6c0-.1 0-.2-.1-.3l-.1.1.2.4c.1 0 .1 0 .2.1.1 0 .1-.1.2-.1v-.1l.7-.8c.9.1.9.1 1.6-.3l.2-.2.4.6c.2 0 .3-.1.5-.1l.2 1c.1-.1.2-.1.3-.2l.1.1c.1-.2.3-.3.4-.5.3-.4.6-.8 1.1-1.2.4-.4.8-.3 1-.2.2.1.4.2.5.4l.3-.1v-.4l-.3-.3c-.2-.3-.2-.8.1-1l-.7-.6c.2-.4.6-.6 1.1-.8 0 0 .1 0 .1-.1s-.1-.3-.1-.4h-.1v-1.2c.6-.1 1.8-.9 2.5-1.5l-.1-.1c-.4-.3-.6-.5-.7-.4-.3.2-.6.2-.9.2h-.3l-.2.2c-.1.2-.3.4-.6.5l-.5-.5c-.3.3-.7.4-1 .4-.4.2-.9.3-1.2.4h-.1l-.2.5c-.3.2-.7.3-1 .4l-.6-1 .3-.3.4-.4-.2-.1-.3-.1c-.3 0-.5-.1-.7-.2-.1 0-.1-.1-.2-.1-.2 0-.3.1-.5.2s-.3.1-.5.2l-.6-1c.2-.2.5-.3.7-.4l-.3-.7c.1 0 .2-.1.4-.2.1-.1.3-.1.5-.2s.4-.2.7-.3c-.2 0-.4-.1-.5-.1l-.2-.4c-.6.4-1.1.9-1.7 1.3l-1.2.9-.8-.9v.2c-.1-.2-.2-.5 0-1 .2-.3.4-.5.7-.6.1 0 .2-.1.2-.1.5-.6.8-1 1.4-1.5.3-.2.5-.5.7-.7.4-.4.7-.8 1.2-1.1.1-.1.2-.3.3-.5.1-.3.3-.6.6-.9l.5.2.5-.5c.1-.1.1-.2.2-.2l.2-.2-.5-.6c-.1-.5 0-.7.1-.8zM166.7 259l.2.1c0-.1-.1-.1-.2-.1zM167.1 258.1v-.1s.1-.1.1-.2.1-.2.1-.3h-.3c-.2.5-.4.7-.7.9v.1l.2-.2c.2-.1.4-.2.6-.2zM165.3 264.2l-.1.1c.1 0 .1 0 .1-.1zM164.8 257.9h.5l.2-.5c.2 0 .3 0 .4-.5 0-.1 0-.2.1-.4 0-.3.1-.6.3-1-.6.6-1.1 1.2-1.6 1.9l.1.5zM163.5 255.6c-.1 0-.2.1-.3.1.1 0 .1 0 .2.1l.1-.2zM164.4 261.8c0 .1-.1.2-.1.3v.1h.1v-.4zM165.9 258.9c-.3.1-.6.2-.8.2h-.3l-.1.1c.4 0 .8 0 1.2.1-.1 0-.1-.2 0-.4zM164.3 265.2v.3c.1 0 .1-.1.2-.1l-.2-.2zM168.6 257.3l-.1-.1v.3c0-.1.1-.1.1-.2zM170.1 255.2c.3 0 .6.1.9.3v-.2c0-.1.1-.4.1-.6.1-.5.2-.9.2-1.1-.5.2-1 .5-1.5.8l.3.8zM169.5 256.5c.2.2.5.6.3 1.2l-1 .2-.3-.3v.3l.2 1.2c-.3.1-.7.1-1 .1h-.4l.3.1.9.7c-.1.2-.2.4-.3.5l.3 1.1h-.1c-.1 0-.2.1-.3.3l-.2.2.1.4c-.1.1-.1.2 0 .3l-.2.4h.4s.2.1.3.1c.1 0 .3 0 .4.1v.9c.1-.1.3-.1.4-.2.3-.1.6-.3.9-.4l.6 1.1c-.2.2-.4.3-.6.4-.4.2-.4.2-.4.6-.1.7-.5 1.3-1 1.8l.3.7 1.2-.9c.2-.2.4-.5.5-.8.3-.5.6-1 1.2-1.4.1-.1.3-.2.4-.2.1-.1.2-.1.4-.2 0 0-.1 0-.1-.1-.1-.1-.2-.3-.3-.4-.2-.1-.4-.3-.5-.7-.3-.3-1.6-1-2-1l-.7-.7c0-.1 0-.2.1-.4.1-.5.2-1 .5-1.5v-.1c-.1-.5.3-.9.5-1.2.3-.3.3-.6.3-1.1V256.8c0-.3.1-.6.1-.9l-.3.7c-.2 0-.7-.2-.9-.1z"/>
        <path class="st4" d="M168.1 266.4c.2-.3.3-.5.3-.6h-.1c-.1 0-.2.1-.3.1 0 0-.1 0-.1.1-.1.2-.2.3-.4.4l-.3.3.4.1v.2c.1-.1.3-.4.5-.6zM164.4 261.8l-.1-.4c.1 0 .1-.1.1-.1l1.2-.3v.1c.1-.1.2-.1.3-.2 0-.1.1-.1.1-.2-.5-.1-1.5-.2-1.8-.1l-.2.3c0-.1 0-.3-.1-.3l-.1.2.2.2v-.1l.4.3-.5.5c-.1.1-.2.2-.4.3h.2c.1 0 .5-.1.7-.2zM164 264.7c0-.1-.1-.2-.1-.4 0 0-.1 0-.1-.1l-.1.1c.2.2.3.3.3.4zM167.6 262.5l.2.2s-.1-.2-.2-.2zM161.6 261.2c0 .1 0 .1 0 0zM179.4 199.8l-.2-.6c0 .1-.1.2 0 .4 0 .1.1.2.2.2zM168.5 197.1l-.2-.3v.1l.2.2zM165.6 272.5c-.1-.2-.3-.2-.3-.2l.3.6v-.4zM74.1 237.7zM82.1 234.9l-.1-.4v.2c0 .1 0 .2.1.2zM111.6 219l-.3-.5v.2l.3.3zM163.2 267.8c.1.1.1 0 0 0zM171 259.6v.2-.2zM162.2 257.4s.1 0 .2-.1c-.3 0-.4-.1-.6-.3.2.2.3.4.4.4zM164.6 251.2zM165.5 269.1c-.1.1-.1.1-.1.2.1-.1.1-.1.1-.2zM163.8 254.2h.3c-.1.1-.2.1-.3 0zM160.2 262.1l-.1.1c-.1.1-.2.3-.3.4.2-.1.3-.2.4-.2v-.3zM162.2 253.2c-.1 0-.1 0 0 0zM168.2 306.3h.2l.1-.1c-.2 0-.3 0-.3.1zM290.9 302.1c.1.1.1.1 0 0 .1 0 .1 0 0 0zM168.5 306.1v.2c.1 0 .1-.1 0-.2zM170.8 303.8c0 .1 0 .1.1.2l.1-.1-.2-.1c0-.1 0-.1 0 0zM165.8 278.9l.2-.2c0-.1-.1-.1-.1-.2-.1 0-.1 0-.2.1 0 .1.1.2.1.3zM163.9 276.2v-.1.1zM170.2 301.2l-.1-.1c.1-.1.1 0 .1.1 0-.1 0 0 0 0zM169.6 302.7l.6-.3.1.1c.1-.2.2-.3.3-.4l-.3.1-.3-.2-.1-.1c-.1.2-.3.4-.5.5-.2.1-.4.1-.6.2.3 0 .6 0 .8.1zM170.3 248c-.8.4-1.4.4-1.8.4h-.4c-.1.3-.3.7-1.1.8-.3 0-.5.2-.8.5-.2.2-.5.4-.8.6-.4.2-.9.3-1.3.4v.3c.6-.5 1.1-.8 1.6-.5.3 0 .5.1.7.2l-.2 1.1c-.7.1-1.2.6-1.6 1.1h.1l.7.6c.4-.2.6-.7.7-1.1.1-.5.5-1 .9-1.4.2-.2.3-.4.4-.5 0-.1.1-.1.1-.2.3-.5.6-1.1 1.1-1.1.1-.2.3-.4.7-.6.1-.1.3-.2.4-.3.2-.1.3-.2.5-.3l.4.6c.1-.3.3-.5.5-.7l.2-.2s-.1-.1-.2-.1h-.2c-.1.1-.3.1-.4.2l-.2.2zM159.3 245.4c0-.1 0-.1 0 0-.1-.1-.2 0-.3 0-.1 0-.3.1-.4.1.3.1.5.3.6.5-.1-.2 0-.4.1-.6zM159.2 261.1v.3c.4-.4.7-.8 1-1.3.2-.2.3-.5.4-.8.1-.2.2-.5.3-.7-.1 0-.2.1-.3.1l-.1-.2c-.2 0-.4.1-.4.1l-.3.3v-.2h-.1l.2.7-.1.1-.1.1.1.2s-.1 0-.2.1-.2.2-.3.5c-.1.2-.2.4-.4.6 0 0 .1 0 .3.1zM168.6 251.3c-.1-.1-.2-.1-.2-.1v.1l.5.5c-.1-.1-.1-.3-.3-.5zM170.1 296.5l-.4.2v.2c-.1.1-.2.2-.4.2.4.3.9.9.8 1.4l.2-.2c.2.2.4.3.6.5l-.3 1.1h-.1v.2h.2c.2-.2.5-.3.7-.4l.7.3h.2v-.6h-.5l-.5-.9c.1-.1.1-.2.2-.3 0-.4.1-.7.4-.9-.3.1-.5.1-.8.1-.3 0-.8-.4-1-.9zM162.8 251.8c0-.1-.1-.1-.1-.2l.1.2z"/>
        <path class="st4" d="M160.1 262.6s.1.1 0 0v-.2c.1 0 0 .1 0 .2zM159.5 259.2c0-.1 0-.1-.1-.2l.1.2zM167.8 296.2l.1.1v-.2l-.1.1zM168.6 294.6c-.1-.1-.1-.3-.1-.4v-.1l-.2-.1-.3.3v.2c0 .2.1.4.1.6 0-.1.1-.2.1-.4l.4-.1zM162.5 264zM168.3 296.5c0-.1 0-.2.1-.3l.1-.1c-.2-.2-.4-.5-.4-.8 0 .2-.1.4-.2.6h.1v.5h-.1c.2 0 .3.1.4.1zM72.6 240h-.1s0 .1.1 0zM168.6 252.5l-.2.2c0 .1 0 .2-.1.3 0 .1-.1.3-.1.4l.2.2c.1.1.2.1.2.2 0 0 .1 0 .1-.1.6-.6 1.6-1.3 2.6-1.2-.1-.1-.2-.3-.3-.4-.5-.6-.2-1.2 0-1.6v-.1l-.1-.1c-.2-.2-.5-.4-.6-.8-.4.4-.8.9-1.1 1.3-.1.2-.5.9-.5 1.1l.3.3c-.1 0-.3.2-.4.3zM193.1 201.8l-.2-.9s-.2.2-.1.5c0 .3.2.4.3.4zM162.1 296.4zM159.6 290.8s-.1.1-.1.2h.1v-.5h.2c-.2 0-.5 0-.9.1-.3.1-.7.4-.8.6h.1c.1 0 .2.1.7 0 .2-.2.6-.4.7-.4zM163.9 290.8l.2-.1-.1-.2-.1-.1v-.1l-.1-.1h-.1l-.1.1h-.3c.1.1.3.3.3.6.1 0 .2 0 .3.1v-.2zM149 326.9zM163.6 298.5l.1.3s.1 0 .1-.1l-.2-.2zM161.8 268.1l-.5-.9c-.2.1-.5.3-.5.4l.1.1-.4.8.7.1c0 .2 0 .3-.1.5v.1c.3-.1.6-.3.9-.5v-.6h-.2zM160.8 269.7v.4l.3-.3-.1-.4c-.1.2-.2.3-.2.3zM160.4 268.5zM163.1 265.5s-.1-.1-.6-.2l-.1-.4c-.2.4-.5.6-.8.8l.1.1c0 .1-.1.1-.1.2-.1.2-.3.4-.5.5l.2.5h.1c.3-.2 1-.5 1.6-.4 0-.4.1-.9.1-1.1zM163.1 289l.1-.6c-.2 0-.4.1-.5.1v.4c.1 0 .3 0 .4.1zM162 277.3c.1.2.1.3.2.5v-.1c0-.2-.1-.3-.2-.4zM165.2 271.4l-.1-.1.1.1zM160 268.3v.1h.3c0-.1-.2-.1-.3-.1zM72.6 242.6l-.1.1s.1 0 .1-.1zM165.8 308.1s0-.1 0 0v-.1.1zM85.8 255.8c.1.1.2.1.3.2l.1-.1c-.1-.1-.3-.2-.4-.1 0-.1 0-.1 0 0zM84.4 251.5c-.1 0-.2.1-.4.2v.2c.4 0 1-.2 1.4-.4l-.3-.4c-.2 0-.4.1-.6.2l-.1.2zM118 243.5c.1 0 .1-.1.2-.2-.1 0-.2.1-.3.1-.4.1-.8.2-1.1.3v.6c.4-.3.8-.5 1.2-.8z"/>
        <path class="st4" d="M85.1 251.1c0 .1.1.1.1.1l-.1-.1zM114.7 248.1l-1.8.6c.2 0 .4 0 .6-.1.2-.1.4-.1.7-.2.1 0 .3-.2.5-.3zM127 244.7c.2-.2.5-.4.9-.5l-.2-.9c.4-.1.8-.2 1.1-.3l-.2-.5-.1.2c-1.4-.5-2.1-.5-2.4-.4-.4.1-1.1.3-1.5-.1-.1 0-.1-.1-.2-.2l-.7.2c-1.3.4-2.6.7-3.9 1.1-.1 0-.2.3-.3.4-.2.2-.3.5-.6.7-.7.5-1.5.9-2.2 1.2l-.2.1c-1 .4-1.7.8-2.1 1 .4-.2.9-.3 1.4-.2v.9c.2 0 .3-.1.5-.1h.2l.1.1c.1 0 .1-.1.2-.1.4-.2.9-.5 1.4-.6l.1.3c.1-.1.2-.1.3-.2l.1-.1c.3-.2.7-.5 1.1-.4.1-.1.2-.3.4-.4.3-.2.6-.2.8-.2h.2v.1c.8-.6 1.9-1 2.2-1.1l.2.4c.2-.1.4-.1.7-.1l.1.4h.1c.3.1.5.1.7 0 .3-.1.6-.2.8-.3l.2-.1.9-.3h-.1zM119.2 247.7c.1 0 .1.1.2.1l-.3-.2.1.1zM60.8 265.4v-.1.1zM79.2 251.9c0 .1.1.2.2.2l-.1-.3c0 .1-.1.1-.1.1zM83.2 250.9c0-.1 0-.1 0 0 0-.1-.1-.1-.1-.1l.1.1zM78.1 250.8zM84.1 255.6c0-.2.1-.3.2-.5-.5-.3-1.6.6-2 1l-.1.1c-.2.2-.5.3-.7.5-.3.2-.5.3-.7.5-.1.1-.2.2-.2.4 0 0 0 .1-.1.1l.4.4c-.2.3-1.5.9-2.1.4l-.1-.1c-.9.2-1.8.6-2.7 1l-.1.1c-.3.1-.5.2-.8.3-.7.3-1.5.6-1.9 1-.1.1-.1.2-.2.2-.3.4-.7.9-1.5.8-.2 0-.3 0-.5-.1-.3 0-.4-.1-.5 0-.5.2-1 .3-1.4.5-.5.2-1.1.4-1.6.5-4 1.2-5.9 2.2-6.3 2.6.3-.1.6-.2.9-.2.3 0 .6.1.8.2.1-.1.2-.1.3-.2.7-.4 1.4-.4 2-.5h.4c.7-.1 1.3-.2 1.6-.4l.2-.2c.3-.3.8-.7 1.4-.8l-.1-.3c1.2-.7 2.2-1.1 3.1-1.1.1 0 .5-.1.7-.1v-.3l.3-.1c.6-.2 1.1-.3 1.8-.1h.3c.1-.6.9-.8 1.4-1l.2-.1c.2-.1.5-.1.9.2.1 0 .2-.1.3-.2.3-.2.7-.4 1.3-.5h.2c.4 0 .7-.1 1-.2.3-.2.7-.3 1-.4.2-.1.5-.1.6-.2.3-.3.5-.4.5-.4 0 .1-.1.3 0 .5.1.1.1.2.2.2l-.2-1.1c.1 0 .4-.1.6-.3.7-.3 1.4-.7 2.1-.5h.1c.2-.1.4-.3.8-.3-.1 0-.2-.1-.2-.1-1-.3-1.7-.6-1.6-1.2z"/>
        <path class="st4" d="M72.3 262.3c0 .1.1.3.1.3l-.1-.7v.4zM70.3 263.5l.1.3s0-.1-.1-.3c.1.1.1 0 0 0zM126.3 241c-.3-.1-.5-.2-.6-.3-.2.1-.5.2-.8.2l.3.3c.1 0 .4-.1.5-.1.2 0 .4-.1.6-.1zM131.5 243s.1 0 0 0zM160.5 253.2c0-.1 1.1-.7 1.6-.1l-.1-.5c-.1-.2-.2-.4-.2-.6-.3 0-.5 0-.8.1l-.2-.5c-.1 0-.3.1-.4.1l-.7-.9c.1-.1.2-.3.3-.4.1-.1.1-.2.2-.2.2-.3.3-.5.2-.7-.1-.1-.1-.3-.2-.4-.3-.6-.5-1.4-.5-2.1 0 0-.1 0-.1-.1l-.1-.1-.5.8h-.1c-.4-.3-1.1.5-1.3.8l-.7-.4c-.3.3-.6.4-.9.6-.1 0-.1.1-.2.1l.9.4v.1c.1.1.6.1.8.1h.5v.6c.2.1.4.3.5.4.2.3.3.7.2 1.3v.3c0-.1-.2-.1-.2-.1l.4 1.1v-.3c.1.1.3.3.5.4.2.1.4.3.6.5 0-.2.2-.3.5-.3zM121.3 216.6h.1s0-.1-.1 0zM159.6 256.8c0 .1.1.2.1.2l-.3.5.3-.3v.3h.1l-.1-.9h.2l.7-.5c.4.2.7.5.9.8-.1-.1-.1-.2-.1-.2 0-.1-.1-.2-.1-.2l.2-.8-.2-.2c.1-.1.1-.2.2-.3-.1 0-.2.1-.2.2l-1.1-.4c0 .1.1.2.2.3.2.1.4.1.5 0-.1 0-.1.1-.2.2s-.2.1-.2.2c0 0 .1.2.1.3v.1l-1.2.4-.2-.3c0 .1-.1.1-.1.1h-.1l.4.2c0-.2 0-.1.2.3zM157.7 265.8l-.1-.1c0 .1.1.1.1.1zM159.6 270.1s.1 0 0 0c0-.1 0-.1 0 0z"/>
        <path class="st4" d="M159.9 256.6c0-.1-.1 0 0 0zM108.1 218.5zM107 224.9s-.1 0-.1.1c.1 0 .2 0 .3-.1h-.2zM131.4 242.5l.2.2-.2-.2zM160.2 270.2l-.1.1.1.2h.1c0-.1 0-.2-.1-.3zM129 245.1c-.1 0-.1 0 0 0-.2 0-.2.1-.3.1l.1.1.1.1c.1 0 .3-.1.4-.1l-.3-.2c-.1.1 0 .1 0 0z"/>
        <path class="st4" d="M157.1 245.7c-.4-.2-.7-.2-1-.2-.4 0-1 .1-1.7-.3l-.1-1 49.2-40.8c-.1-.1-.2-.1-.3-.2l-.1-.1c0-.1-.1-.1-.1-.1l-.2-.1c-.5-.1-.9-.4-1.1-.7-.2-.2-.3-.3-.5-.4-1.3-.4-2.9-.5-3.4 0 0 .1-.1.1-.1.1l-.8-.8c0 .1 0 .2.1.4.2.3.4.3.5.3 0 0-.1 0-.4.1h-.1c-.4.1-.8.1-1.3.1H193.3l-.1-.3h-.1c-.3 0-.8-.1-1-.5h-1.2c-.4-.1-.9 0-1.4 0-1 0-2 0-3-.6-.1-.1-.3-.1-.5-.1-.4 0-.9 0-1.3-.4-.2-.1-.6-.3-1.1-.3-.7-.1-1.5 0-2.2.1-.6.1-1.2.1-1.7.1l-.1-.3h-.5c-.3 0-.7.1-1 .2l-.4.1c-.8.1-1.9.2-2.8-.3v-.2h-1.6l-.1-1.2c.3-.1.6-.1.8-.1v-.2c-.7 0-1.5 0-2.3.2-.2 0-.4.1-.7.1-.9.2-2.2.5-3.1-.3l.2-.7c-.3.1-.6.2-.8.3-.2.1-.4.2-.7.2-.7.2-1.3.4-2 .6l-.7.2-.3-1v-.2h.2l.4-.7c.9 0 1.5-.1 1.9-.2-.1 0-.3 0-.3-.1-.2 0-.4-.1-.5-.1v-.1l-1.8.6c-1.2.4-2.5.8-3.8 1.1-2.3.5-4.9 1.1-6.9.6v-.1h-.2c-.4.1-.7.1-1.1.2l.1.9c-.4.1-.7.1-1.1.1-.3 0-.6 0-.9.1-.5.2-1 .6-1.4.9l-.4-.4-.1-.2-.3-.4v.2l-.1-.1s0-.1.1-.1c-.3.1-.6.2-.8.3-.3.1-.7.2-1 .3-1 .3-2 .4-3 .6-.5.1-1 .1-1.5.2l-.1-.4c-.9.2-1.9.6-2.8 1-.7.3-1.5.6-2.3.9-.7.2-1.4.6-2.1 1-.9.5-1.8 1-2.8 1.2v-.1c-3.5 1.2-6.3 1.8-9.3 2h-1.2c-1.1 0-2 0-2.9.6-.9.5-1.8 1-2.7 1.3 0 .1.1.2.1.3.1 0 .2 0 .2.1.2 0 .3.1.5.1.7.3 1.3 1 1.5 1.8.2.7.1 1.5-.3 2-.1.2-.3.4-.5.5 1.3.3 1.8.2 1.9.1.1 0 .2-.1.4-.2.4-.2.8-.5 1.3-.4l.1.5c.4-.1 1.4-.2 1.7.8l-.7.8c-.2 0-.8.3-1.3.6.1 0 .3-.1.4-.2l.9-.3c.4-.1.8.1 1 .2.1 0 .2.1.3.1.3-.1.6-.1.9-.2l.6.8c-.3.7-1 1.2-1.9 1.4-.9.2-1.9 0-2.5-.4h-.2l.1.4c-.3.7-1 .9-1.4 1.1h-.1l-.3-.6c-.3 0-.8.2-1.3.5-.3.2-.6.3-.9.4-.7.2-1.3.2-1.9.1-.6-.1-1.1-.1-1.5.1l-.2-.4h-2.3c-.4 0-1.3.1-1.6-.5 0-.1-.1-.1-.1-.2 0 .1.2.2.3.2l-.4-1.2.2-.1c.2-.1.5-.2.7-.2h-.2c-.7.2-1.4.3-2.2.4h-.6c-.8 0-1.8.1-2.4.5l-.1.7c-.8.2-1.6.1-2.4.1-1.2 0-2.4-.1-3.3.6-.6.4-1.3.5-2 .6-.3 0-.6.1-.9.1-.3.1-.6.2-.8.3-.4.1-.7.3-1.1.4h.2c1 0 2.4.1 3.1 1l-.6 1H95c-.5-.1-.8-.1-1 .1-.3.2-1 .6-1.8.4v.2c.2.6-.2 1-.5 1.2.2.1.6.1 1 .2 1.1.2 2 .1 3-.1.4-.1.9-.1 1.3-.2.8-.1 1.6-.1 2.3 0 .4.1.7.2.9.5l.1-.6c.9-.3 1.4 0 1.5.3.1.1.1.3.2.4.1 0 .1-.1.2-.1.5-.3 1.1-.5 1.8-.6l.5-.1c.3-.1.7-.1 1-.2.1 0 .2-.1.4-.1v-.1c.5-.3 1.1-.3 1.5-.2.3 0 .6 0 .8-.1.2-.1.4-.1.6-.2.6-.2 1.1-.4 1.8-.5l.1.8c.1.1.1.3.1.4v.2c-.2.8-1.5 1.3-3.8 1.9-.1.7-.8 1.5-.9 1.6-.2.1-.3.3-.4.4-.5.5-1 .9-1.6 1.3-1.8 1-3.9 1.5-6.6 1.4l-.1-.2c-1 .3-2.2.7-3.5 1.4-.8.4-1.7.5-2.5.5-.7.1-1.4.1-2 .4l-.6-1.1c-.4.1-.8.2-.9.3.1-.1.1-.3 0-.3l-.6 1c-.5-.2-1.3.1-2 .5l.2.7h-.1c-1.6.6-2 .8-2 .9.1 0 .1-.2.1-.4v-.1l-.1-.2-.1-.1.2 1.2c-.3.2-.7.3-1.1.4l-.2-.7c-.2 0-.4.1-.6.2h-.1c-1.1.4-2.2.9-3.4 1.4-.2.1-.6.4-.9.6-.7.5-1.4 1-2.2 1-.1 0-.5.1-.5.2.1-.1.1-.2.1-.5-.1-.2-.2-.3-.3-.3l.2 1.2H73.7l-.1.5c.2-.1.5-.2.8-.3l.4 1.1c-.1.1-.2.1-.3.2l-.1.9c.1 0 .3.1.4.1.4.1.8-.1 1.3-.2.4-.1.9-.3 1.5-.3l.1.5s0-.1-.1-.1l.1.6v-.1.2h-.1l.1.3c-.1 0-.2.1-.3.1 0 .2-.1.5-.3.7-.6.6-1.8.8-2.5.7l-.1-.6c-.1.1-.3.1-.4.2-.5.2-1.1.4-1.7.5l-.3-1.1c-.1.1-.2.1-.3.2l-.1.1c-.3.2-.7.3-1 .4-.2.1-.4.1-.6.2v.5l.4.8h-.1c-.1.1-.1.3-.1.4l.1.8c1.9-.1 5.4-.5 6-1.1-.2-.6.2-.8 2.2-1.7.8-.4 2.2-1 2.4-1.2l.4.2c.1 0 .1-.1.2-.1h-.1s.1 0 .2-.1c.2-.1.3-.1.5-.2l.4 1.2c-.4.2-.9.4-1.3.5-1 .4-1.9.7-2.7 1.3l.1.4c-.5.3-1 .8-1.4 1.4-.1.1-.2.4-.3.6-.2.5-.4 1.1-.8 1.3-.4.3-.9.4-1.3.6-.2.1-.5.2-.6.2l.1 1.1c-.3.1-.5.2-.8.3.3 0 .9-.2 1.4-.4 1.3-.5 2.7-1 3.6-.4l-.1.8c.5-.3 1.1-.6 1.8-.3v.5l.1.1c.3.4.1 1-.1 1.5.2-.1.3-.3.4-.5.3-.6 1-1 1.6-1.4.3-.2.5-.3.7-.5l.2.2c.2-.1.5-.2.9-.4.3-.1.7-.3.8-.6l1.2.4s.1.1.2.1l.5.7c0 .2-.1.3-.2.4h.1c.4-.1.7-.2 1.1-.3.4-.1.8-.2 1.1-.3.4-.1.7-.3 1.1-.5.5-.3 1-.5 1.5-.7l.4 1.1c-.7.3-1.3.7-1.9 1-.9.5-1.8 1.1-2.9 1.4l-.2.1c-.4.1-1.4.4-1.9.8.1.1.3.2.4.4l-.4.4h.2c.3-.1.5-.1.8-.1.7 0 1.3.3 1.8.5l.3.2.3.8c.3-.1.6-.2.9-.2.4-.1.7-.1 1.1-.3.1-.1.3-.1.4-.2.5-.2.9-.5 1.6-.6.1 0 .3 0 .4-.1.5 0 1.3-.1 1.5-.4l1.1.4s0-.1-.2-.2c-.1-.1-.3-.1-.3-.1.1 0 .3-.2.5-.3l-.2-.3c.4-.3.8-.4 1.1-.5.3-.1.5-.1.7-.3.3-.3.6-.4.9-.5.2 0 .3-.1.4-.1.6-.4 1.2-.5 1.8-.6.3-.1.6-.1.9-.2.4-.1.8-.3 1-.5-.3-.1-.8 0-1.1 0h-.4l-.6-.9c.2-.3.4-.6.7-.8H99c-.3 0-.7.1-1.1.2-.7.2-1.4.4-2.2.2l-.3-1c1.1-1.3 2.6-1.5 4-1.6.2 0 .5 0 .7-.1.4 0 .8-.2 1.2-.3.4-.1.7-.2 1.2-.3 1-.2 2.1-.1 3.1-.1l.2.8h.1c.7-.3 1.3-.6 1.7-.2h.4s.1-.1.2-.1c0 0-.1.2 0 .4 0 .1.1.2.1.2l-.2-1.1c.5-.2 1-.3 1.5-.3.6-.1 1.2-.2 1.7-.5.1 0 .1-.2.1-.3 0 .1.1.1.2.1l-.4-1.2c.5-.2 1 0 1.3.1.2.1.3.1.4.1l.4-.1c.5-.1 1-.3 1.4-.6 1.1-.9 2-1.2 3.3-1.5.5-.1.9-.3 1.4-.7.7-.4 1.3-.5 1.9-.6.2 0 .4-.1.6-.1.3-.1.5-.2.8-.4.4-.2.9-.5 1.5-.5.6-.1 1.3-.2 1.7-.5l1 .7c0-.1-.1-.3-.2-.3.2 0 .8-.1 1.3-.3.2-.1.5-.2.7-.3.9-.4 1.9-.9 3-.4l-.2 1.2c-1.1.2-2.3.4-3.3.9-.1 0-.1 0-.1.1.1 0 .2.1.3.1.4.2.9.4 1.2.7l-.4.6c.1-.1.3-.1.6-.3.1 0 .1-.1.2-.1v-.2c.5-.2.9-.3 1.3-.4.1 0 .3-.1.4-.1l-.1-.2c.4-.5.9-.5 1.3-.4.1 0 .2-.1.4-.1l.1.1h.3c.7-.4 1.4-.8 2.2-1l.6 1.1-.1.1.2.3c.4-.1.8-.1 1.2-.3.6-.3 2-1 2.9-.1l-.5 1.1h-.3l-.3.8c.1 0 .3 0 .6-.1l.4 1.2-.2.1c-.1 0-.2.1-.3.1.1 0 .3-.1.4-.2l.2-.1c.4-.1.7-.3 1.1-.5.7-.4 1.5-.8 2.4-.9l.5 1.1c-.5.4-1 .6-1.5.9-.3.1-.6.3-.8.4.4.2.7.5.9.7.1.1.1.2.2.3.6 0 1.2-.1 1.9-.3.9-.2 1.8-.4 2.7-.3.5.1 1.1.2 1.6.3.5.1.9.2 1.4.3.2 0 .3 0 .6-.2s.7-.4 1.2-.3l.6.7c0 .4-.2.7-.4.9 1.1.3 2.2.1 3.4-.2.3-.1.7-.3 1-.4-.7.4-.6.3-.4.2z"/>
        <path class="st4" d="m76.2 242.8-.1-.3v.1c0 .1.1.2.1.2zM75.8 242.5zM495.5 202.2c0 .2.1.3.2.3l-.1-.3h-.1c.1 0 .1 0 0 0zM484.1 210.4c-.1 0-.2.1-.3.2 0 .1-.1.1-.1.2l.4-.4zM491.4 202.4c-.5-.2-.9-.5-1.3-.7-.4-.3-.7-.5-1.2-.6-.3 0-.6-.1-.8-.1-.7-.1-1.3-.2-1.9 0-.1 0-.2.1-.2.1l.6.3-.4 1.1-.3-.1c-.1 0-.2 0-.3-.1 0 .1.1.1.1.2l-.3.3h1.1v.2c.1 0 .2 0 .3-.1v.1c.1 0 .1 0 .2-.1.7-.2 1-.3 1.2-.3h.1l-.1 1.2c.3 0 .6-.1.9-.2.2 0 .4-.1.5-.1 2.8-.4 3-.9 3-.9-.1-.1-.6-.2-.8-.2h-.4zM488.3 208.4v-.2h-.1c-.1 0 0 .1.1.2-.1-.1 0-.1 0 0zM490.3 208h-.2v.2h-.9c0 .1-.1.1-.2.2h1.5c.1 0 .3 0 .4-.1l.1-.2h-.8l.1-.1zM484.8 209.5c-.1-.1-.2-.1-.2-.1-.1 0-.2.1-.2.1h.4zM484.4 212.3c-.1 0-.2.1-.4.1h.9c1-.2 1.9-.2 2.8-.2.6 0 1.2 0 1.8-.1-1.1-.1-2.2-.3-3.2-.3-.2.1-.5.1-.8.1h-.2c-.2.1-.4.2-.7.3l-.2.1zM490.9 200.7c.3.2.5.4.8.5h.2s-.1 0-.1-.1c-.2-.2-.5-.3-.9-.4zM491.6 184.7v.2h.1c0-.1-.1-.2-.1-.2zM486.8 193.3c-.1 0-.1 0 0 0zM491.7 188.1zM485.7 199.8s.1 0 0 0c.1 0 .1-.1.1-.1 0-.1 0-.2-.1-.2v.1l.1.1-.1.1zM485.3 200.9zM492.6 194.4s.1-.1 0 0c.1-.1.1-.1.1-.2l-.1.2zM492.5 195v-.4l-.2.6h-.3v.2h.2l.2.3c.1.2.2.3.2.5 0-.2.1-.4.3-.7-.2-.1-.4-.3-.4-.5zM483.6 210.8zM481.4 228c0 .1 0 .1.1.2l.1-.2h-.1c-.1-.1-.1-.1-.1 0zM489.4 187.3zM481.4 217.2v.2c.1 0 .2-.1.3-.1-.1-.1-.2-.1-.3-.1zM484.2 215.8l.1.5c.3-.1.6-.3.9-.5-.2 0-.4-.1-.6-.1-.1 0-.2-.1-.3-.1h-.1v.2c0-.1-.1 0 0 0-.1 0-.1 0 0 0zM482.5 214.2h.5c1.1-.3 2.3-.5 2.9.1l-.2.6.1.5c.6-.3 1.3-.5 1.9-.7.2-.1.4-.1.6-.2.3-.1.5-.2.8-.2 0 0-.1 0-.1-.1-.1-.2-.3-.3-.4-.4-.1-.1-.1-.2-.2-.2h-.6c-.5 0-1 .1-1.5.1s-1 .1-1.6.1c-.3 0-.6 0-.9.1-.3 0-.6 0-.8.1-.3 0-.5 0-.6.1l.1.1c0-.1 0-.1 0 0zM481.6 228.2s-.1 0 0 0c-.1 0 0 0 0 0zM482.2 225.1l.6-.6c-.4.1-.8.3-1.1.5-.1.2-.2.5-.3.9.3-.2.5-.5.8-.8zM482.5 220.6h.1c.1 0 .2-.1.3-.1.2-.1.4-.2.6-.4.4-.3.8-.4 1.2-.6h-.3c-.3 0-.4.1-.6.3-.1.1-.2.1-.3.2-.3.2-.6.1-1.2 0 0 .1 0 .1-.1.2v.2l.3.2zM489.1 187.2l-.1-.1h-.1v.2c.1-.1.1-.1.2-.1zM474.5 159.2v-.2h-.1l-.1-1.2c1.6-.1 3.2-.3 4.7-.4-.2 0-.3-.1-.5-.1v-1.2c.6-.1 1.1.1 1.6.3.1 0 .3.1.4.1.6.2 1.2.1 1.8 0 .2 0 .4 0 .6-.1 1.2-.1 2.4-.1 3.5-.2h1.1v-.1c.8-.1 1.6-.1 2.4-.2 2.9-.2 5.9-.4 8.8-.9.1 0 .2 0 .4-.1.3 0 .6-.1.9-.1v-.1c-.2 0-.5 0-.6.1l-.5.1c-.6.1-1.2.1-1.8.1v-.8h-.1v-.4c-.2 0-.4.1-.7.1-.3.1-.6.1-.9.1-.4 0-.7-.1-.9-.2-.2-.1-.3-.1-.4-.1-.2 0-.3.1-.4.1-.3.1-.7.2-1.2.2-.8-.1-1.6-.1-2.4-.1-1.1.3-2.1.3-3.2.3h-.7l-2.4.3-.2-1.2c-.3 0-.7 0-1 .1v-.1h-.1c-.4 0-.7-.1-1-.1-.3 0-.5-.1-.8-.1-.6 0-1.2 0-1.9.1l-.1.5c-.7 0-1.5 0-2.1-.3v-.3c-1-.1-2 0-2.9.1l.2.9c-.7.4-1.7.3-3-.2l-.4-.1c-.9-.3-1.5-.6-2.5-.5-.8.1-1.7.1-2.5 0h-.3.1v1.2c-.3 0-.6.1-.9.2-.6.1-1.3.3-2 .2v-.6c-.3-.1-.7-.3-1.1-.4l-.1-.1c-.2-.1-.7-.1-1.1 0-.6.1-1.2.2-1.7-.1v-.1c-.3 0-.5.1-.8.1v.6c-.5.1-1 0-1.4 0-.3 0-.6 0-.9-.1-.2 0-.3 0-.5.1-.4.1-.9.1-1.3 0-.3-.1-.6-.1-.8-.2-.3-.1-.7-.2-1-.2l-.3.9c-.5 0-1-.1-1.5-.3-.4-.1-.8-.2-1.2-.2v.4c1.3.2 2.7.4 3.9 1.2l-.3 1.1c-.6 0-1.1-.1-1.5-.3-.2-.1-.3-.1-.5-.2-.5-.1-1-.2-1.5-.2-.3 0-.6-.1-.9-.1-.3 0-.6-.1-1-.2-.3-.1-.7-.2-1.2-.3l-.2.6c-.6-.1-1.3-.1-2-.1h-.6l-.2-.6c-.4-.3-1.1-.3-1.8-.3-.5 0-1 0-1.4-.1v-.2h-1.6l-.1.3c.1 0 .2.1.2.1l.2.9c-.4.5-1.2.4-1.9.3-.2 0-.4-.1-.5-.1.1 0 .2-.1.3-.3v-.1h-.2l-.5.7c-.7-.3-1.4-.6-2-.5-.9.1-1.3.1-1.4.2.1 0 .2-.2.3-.4 0-.3-.1-.4-.2-.5l-.1 1.2c-.5 0-.8-.3-1-.5-.1-.1-.2-.1-.2-.2-.2-.1-.6 0-.9 0h-.6c-.8 0-1.5.1-2.2.2-.1 0-.3 0-.5.1-.1 0-.3 0-.5.1l-.1.1c.9 0 1.9.1 2.8.2l-.2 1.2c.7-.1 1.5-.2 2.2-.3l.5-.1c1.2-.2 2.5-.5 3.7-.1v.6h.1c.4 0 .9-.1 1.3-.2 1.4-.2 2.9-.4 4.3 0l-.2.9c.2 0 .5.1.7.2v.6c.6-.1 1.1-.1 1.7-.2 1.7-.2 3.3-.6 5-1 .4-.1.8-.2 1.1-.3l.1-.3c1 .3 2.1 0 3.3-.3.2 0 .3-.1.5-.1v-.2c.3 0 .7-.1 1-.1.8-.1 1.7-.3 2.6-.1v1.2c-.6.1-1.1.2-1.7.2-.4 0-.7.1-1.1.1.5.1.9.1 1.4.3l-.2 1.2h-4.4v.8c-1.5.2-3 .2-4.5.3-1.1 0-2.2 0-3.4.1-.8.1-1.7.1-2.6.1-1 0-2 0-3 .1.1 0 .3.1.4.1.3.1.7.2 1 .3l-.3.9c1 .2 2.2 0 3.2-.1l.4-.1.3 1.2c-1 .3-2.1.5-3.3.5-.3 0-.6-.1-.9-.1-.2 0-.4-.1-.5-.1h-.4c-.3 0-.7.1-1 0l-.1-1.1c0 .1-.1.1-.1.2 0 .2.1.3.1.4 0 0-.1-.1-.2-.1-.2-.1-.3-.2-.5-.3-.3-.3-.8-.5-1.3-.7-.2-.1-.3-.1-.4-.2-.9-.4-1.8-.4-2.8-.3-.6 0-1.2.1-1.8 0-.2 0-.4 0-.6-.1-.6-.1-1.2-.1-1.8-.1.1 0 .2 0 .3.1.4.1.7.1.9.3l-.5 1.1c-.1 0-.3-.1-.5-.1l.3.3c.1.1.3.3.4.3l.6.8c0 .1-.1.2-.1.3.1.1.2.1.4.2s.4.2.5.2v.3c.3 0 .6 0 .9.1.2 0 .4 0 .5.1.5.1 1 .1 1.5 0 .2 0 .5-.1.7-.2.5-.2 1.2-.3 1.8-.2l-.1 1.2c-.3 0-.6.1-.9.3-.4.2-.9.4-1.6.4-.3 0-.7 0-1-.1h-.1l-.1.5h-.1l-.1.5c-.7.2-1.7-.2-2.5-.6-.3-.1-.5-.2-.7-.3-1.1-.4-2.8-.3-3.9-.3h-1c-.4.1-.9.1-1.3.1h-.3c-.4 0-.8.1-1.1.1-.7.1-1.3.2-1.8.4-.7.2-.9.3-.9.4v.3h-.3c-.5 0-.9.1-1.3.2-.1 0-.2.1-.3.2 1.2-.1 2.5-.4 3.9-.9l.4.8c.2-.1.5-.1.7-.2.4-.1.7-.3 1.1-.5.7-.4 1.4-.7 2.2-.8l.3 1.2-.6.3h.4l.2 1.2c-.4.1-.9 0-1.4 0v.4h-.8l-.1.7h-.4c-.3 0-.7 0-1 .1v.2c1.1 0 2.1-.3 3.2-.6.4-.1.9-.4 1.5-.6 1-.5 2.2-1 3.3-.9v1.2c-.7.2-1.4.5-2 .8-.5.2-1.1.5-1.7.7-.4.1-.9.2-1.3.3-.2 0-.4.1-.6.1h-.2c-.2 0-.6.1-.8.2l-.1.5c-.2 0-.5-.1-.7-.1-.7-.1-1.4-.2-1.8.1-.6.4-1.6.2-2.6-.1-.4-.1-1-.2-1.2-.2l-.3-1.1c.1-.1.2-.1.2-.1-.2-.1-.7-.3-1.2-.4-.6-.1-2.3-.3-3.6.3.1.1.1.2.1.4v.1h.1c.4 0 .9-.1 1.4 0l-.1 1.2h-.3l.1.5c-.5.3-1 .2-1.3.1-.4-.1-.6 0-.9.1-.2.1-.5.2-.9.2h-.8c-.9 0-1.7.1-2.6.2-.2 0-.5.1-.8.1l.2.8-.4.4c.3 0 .5.1.7 0 .1 0 .2-.1.3-.2.2-.3.6-.6 1.2-.6l.5.7c.1 0 .5 0 .9-.1.1 0 .3-.2.5-.3.5-.3 1.4-.8 2 0l-.2.5c.8.1 1.7.2 2.5.2l-.1-.2c.2-.5.6-.9 1.2-1l.7.6c.3-.1.7-.3.9-.5.4-.2.6-.4.9-.4.7 0 .9.6 1 .8.8 0 .9-.1 1-.2v-.1l.9-.6c.4.2.6.6.6.9v.1c.4.1.8 0 1.1-.1-.2-.5.2-.9.3-1.1l1 .2c.1.1.4 0 .6 0 .2 0 .4-.1.7-.1v.6h.6c.8 0 1.6.2 1.8 1v.1c1-.1 2.1-.2 3.1-.3.1 0 .5-.2.9-.3 1.1-.5 2.3-1 2.9-.3.3 0 1.2-.3 1.9-.6-.3.1-.7.1-.9.2-.8.2-1 .2-1.3.1v-.2c-.2 0-.5 0-.7-.1v-.9c-.1 0-.2 0-.2.1-.6.2-1.2.4-1.9.3l-.1-.5c-.6-.1-1.1-.1-1.6-.1-.3 0-.5 0-.7.1-.7.1-1.3.1-2.3-.2l.1-1.2c.4-.1.9 0 1.3 0h.4l.1-.5s.2-.1.1-.2l.9-.7c.3.2.6.4.8.6.1.1.3.3.5.4.5.3 1.1.3 1.7.4h.3c.6.1 1.3 0 2-.1h.1c1.6-.2 2.2-.2 2.5 0 .5-.1 1-.1 1.4-.2.4-.1 1.3-.5 1.5-.6 0 0-.1.2-.1.4s.2.3.3.3v-1.2l-.1.1v-1c.7-.1 1.2-.1 1.9-.1.4 0 .8 0 1.2.1.5.1 1 .1 1.4.1.2 0 .5-.1.7-.2.1 0 .2-.1.3-.1l.4-.9c.2 0 .4 0 .6.1.3 0 .7.1 1.2.1h-.2l.1-1.2c.7-.1 1.4 0 2.1 0h2.1c.3 0 .7 0 .9-.1h-2.8l-.1-.5c-.9 0-1.7.2-2.6.4-.9.2-1.8.3-2.8.4l-.2-.9h-.5l.1-1.2h2.3v-.5h1.1l.2-.6c.6.1 1.1.1 1.7.1.3-.5.6-.5.9-.5.1 0 .3.1.4.1l.1-.3c.3 0 .6.1.8.1h.2c.5 0 1.1 0 1.6.2 1.2.1 2.4.2 3.5 0 .6-.1 1.2-.2 1.8-.2l-.3-1c1.1-.6 2.2-.4 3.2-.3.6.1 1.2.2 1.8.1l.5.6c1.1.2 2.2.1 3.4-.1h-1l-.1-1.2c.2-.1.5-.1.7-.1l.1-.4c1 .1 2 .2 3.1.1.4-.1.9 0 1.3 0h1v-.1l.1.1v-1.2c.7-.1 1.1.2 1.4.3.1.1.2.1.4.2.4.2 1.2-.1 1.6-.2 1.6-.5 3.6-1 5.7-1.4.6-.1 1.3-.2 1.9-.4-.5.1-1 .1-1.4.2-1.8 0-3.6.3-5.3.3z"/>
        <path class="st4" d="M412.1 166.8c.4.2.7.3 1 .2v-.4c1.1-1 2.4-1.4 3.5-1.7l.4 1c.8-.4 1.6-.8 2.3-.6.3.1.9-.1 1.4-.3.5-.1.9-.3 1.3-.3.6 0 1.1-.1 1.6-.1l-.3-.5c-.4-.2-.8-.1-1.5.2-.6.2-1.4.4-2.1.2l-.2-1.1c.5-.3 1.1-.5 1.6-.7v-.2l-.3-.7v.3c-1.5.7-2.4.2-2.9-.4l.2-.5h-.3c-.5-.1-.6-.1-.8-.2-.1-.1-.8-.1-1.3 0l-.2-1v.1c0 .2.1.4.1.4s-.1 0-.1-.1c-.1-.1-.3-.2-.4-.4l-.1-.2c-.2-.2-.3-.5-.5-.5v-1.2s-.2.1-.2.4c0 .2.1.4.2.4-.2-.2-1.5-.5-1.8-.5H412.1v.5c-.9.5-2.1.5-3.1.4v.1h-.2c-.2 0-.3 0-.5.1-.2 0-.3.1-.5.1h-.7v.9h-.1v.5c-.6.1-1.3 0-1.9-.1-.5-.1-1-.1-1.5-.1-.3 0-.7.1-1.1.2-.3.1-.7.1-1 .2v.1c.4 0 1-.1 1.4-.1.5-.1 1-.1 1.4-.1l.1 1.2c-.4.1-.8.1-1.2.2h-.3l-.2.5h-.8l.3.6c-.4.4-.8.6-1.3.8.5-.1 1.1-.3 1.6-.5l.1.2c.1 0 .2 0 .3-.1.1-.1.4-.3.7-.3.3 0 .5.1.7.1.1.1.2.1.2.1.5-.1 1-.1 1.5-.1v.3c.8 0 1.6 0 2.3-.1l.1.6c.5 0 1-.1 1.5-.1l.3 1.2c-.8.3-1.6.3-2.4.3h-.7c-.3 0-.7 0-1 .1-.7.1-1.5.1-2.2.1-1.2-.1-2.5 0-3.6.1v.5c.5 0 1.1.1 1.6.1.5.1.9.1 1.3.1l.2 1.2c-.6.1-1.1.2-1.7.1h.3c.2 0 .4.1.6.1.5.1.9.1 1.3.2.2 0 .8-.1 1.1-.3v-.3c.8-.3 1.6-.2 2.2.1 0-.5.1-1.3 1.1-1.3l.6.7c-.1.4 0 .6.1.7.3.2 1.2.1 1.6-.3 0 0 .1-.1.1-.2.2-.5.7-1.2 1.4-.9zM399.7 162.6c-.7-.1-1.4-.3-2.1-.3l-.3.3v.3h.3c.9 0 1.8 0 2.7-.2-.2 0-.4-.1-.6-.1zM473.1 176.6l-.1-.2c-.1.1 0 .2.1.2zM487.4 178.2c.1-.1.1-.1.1-.3 0-.2 0-.3-.1-.4v.7zM491.5 189.3v.2-.2zM489.9 186.6zM490.4 187.8c-.1.1-.1.2-.2.3v.1l.2-.3s.1 0 .2-.1v-.1c-.1.1-.1.1-.2.1zM487.4 158.8c.1 0 .2 0 .3-.1h-.4c-.7.1-1.3.1-1.9.2-1 .2-1.9.4-2.9.6.1 0 .2.1.2.1.8-.1 1.6-.3 2.4-.4.8 0 1.5-.2 2.3-.4zM488.6 224.6s-.1 0 0 0v.2-.2z"/>
        <path class="st4" d="M572.6 206.8c.4-.1.7-.1 1-.1h.6s.1-.1.2-.1c.2-.2.5-.4 1-.4.4 0 .7-.2 1-.4.1-.1.2-.1.3-.2l.2-.2c.2-.2.6-.3 1.1-.3 0-.1.1-.2.2-.2.2-.2.5-.2.7-.1l-.1-.2c.5-.6 1.2-.4 1.6-.4h.1l.1-.1-.1.1h.1l.4-.7c.3.1.7.1 1.1.1.1 0 .4-.1.5-.2 0 0-.1.2-.1.4 0 .1 0 .2.1.2l.1-1.1c.2 0 .4 0 .6.1.2 0 .6.1.8.1v-.9h.4c.6.1.8 0 .9 0l-.1.1h.2l.4-.3c-.3 0-.7-.1-1-.2-.3-.1-.6-.1-.9-.1-.5 0-1.1-.1-1.6-.3-.7-.4-1.3-.3-2.1-.1l-.3-.5c-.4 0-.8.2-1.2.3-.3.1-.7.2-1 .3-.5.1-1 .1-1.4.1-.8 0-1.4 0-1.9.4-.7.6-1.2.6-1.7.5-.2 0-.3-.1-.5 0-.8.1-2.3.1-3.1-.3l.4-1.1c.6.1 1.7.1 2.5-.1-.4 0-.7.1-1.1.1-.3 0-.5-.2-.7-.4-.6.2-2.1.5-2.7-.1l.4-1.1c.9.1 2.1 0 2.6-.4.2-.2.5-.3.7-.5 0 0 .1 0 .1-.1h-.1l.4-1.2c.3.1.6.1.9.1v-.1l.4-.7c.7-.2 1.2.3 1.4.6 0 .1.1.1.1.1.2.2.6.1 1 .1h.4c2.2-.1 3.7-.5 3.9-.9.1-.1.1-.2.2-.3H578.7c-.5 0-.9-.1-1.4-.1-.5 0-.9-.1-1.4-.1v-.3h-.7c-.4.1-.8.1-1.2.1-.5.1-1.1.2-1.7 0l.1-1.2h1.5c.1 0 .2 0 .3-.1-.1-.1-.2-.1-.3-.2h-1.1l-.4-.9v-.1l.5-1h.1c.4.2.8.3 1.2.5.5.2 1 .3 1.5.6.3.1.5.4.8.6.4.3.9.7 1.2.7.1 0 .2-.1.3-.1.2-.1.4-.2.7-.2.4 0 .7.1 1 .1.2 0 .3.1.5.1.7.1 1.2.3 1.7.5s1 .5 1.5.4c.5-.1 1.1.2 1.5.7.5.5.7 1.1.6 1.7-.1.6.1.8 1.3 1.1l.2.1c1.1.3 1.8.3 2 .2v-.3c.1-.4.2-1 .7-1.2.2-.1.5-.1 1 .1l.2.8c-.1.1-.1.2-.1.2h.1c.3 0 .9 0 1.1.4l.1-.1-.3-.3.3-.6.2-.6h-.8l-.1-1s-.1 0-.1.1l-1-.6c.1-.4.2-.7.3-1l-.3-.1s-.1 0-.1.1c-.1.1-.3.1-.4.2l-.8-.8c.1-.3.3-.6.6-.8-.1 0-.2-.1-.3-.2-.1-.1-.4-.2-.6-.2-.3-.1-.7-.2-1-.5-.6 0-1.3-.3-1.8-.5-.2-.1-.4-.2-.6-.2-.4-.1-.7 0-1.3.3-.4.2-.8.5-1.4.5l-.3-.8c-.3 0-.5 0-.8-.2l.3-1.2c1.9.1 2.7-.1 3-.2 0 0-.1-.1-.2-.1-.3-.1-1.3-.4-4.1.7l-.3-.4h-1v-.4h-.3c-.5 0-1.2 0-1.8-.3l.1-.3h-.1l-.1-.9v-1.2h.1c.2 0 .4 0 .6-.1h.1l-.1-1.1c.7-.4 1.4 0 1.8.2.2.1.4.2.5.2.4 0 .8.1 1.1.2.5.1.9.2 1.3.2.5 0 .8-.2 1.2-.4.2-.1.3-.2.5-.3.2-.1.3-.1.5-.2-.4-.2-.7-.5-1-.8l.2-1c.9-.4 1.8.4 2.4.9l.3.3c.2.2.3.2.9-.3.1-.1.3-.2.4-.3 1-.6 2.1-.3 3 0l.2.1c1.2.3 2.1.4 3.2.3l.2 1.2c-.5.2-1 .2-1.4.2.8.1 1.6 0 2.5-.4h.1l-.6-.6c.1-.5 0-.7 0-.7-.1-.1-.4-.2-.7-.3l-.3-.1v-1.2c.2 0 .3-.1.5-.1l.1-.9h.2c.3 0 .7 0 1-.1l.1-1.1c.5-.1.8.2 1.1.3.2.1.3.2.4.2h1.8v-.8c.2 0 .4 0 .6-.1v-.3c-.3 0-.7.1-1.1.2l-.5.1c-.8.2-1.3-.2-1.7-.4-.2-.2-.4-.3-.6-.3l.1-1.2c.5 0 .9.2 1.2.4.4.2.5.3.9.2.4-.1.8-.2 1.2-.2-.3-.1-.6-.1-.9-.1-.5-.1-1-.1-1.5-.3l.1-.6-.1-1.2c1.1-.4 2.1.2 3 .7.2.1.5.3.7.4.1 0 .5 0 .8.1 1.1 0 2 .1 2.3.7v.1c.3 0 .6 0 .8-.2.2-.1.3-.4.3-.6 0-.1 0-.1-.1-.1v-.6c-.5-.3-1.1-.5-1.8-.6-.4.1-.8.1-1.2.1h-3l-.1-1.2h.8l-.2-.5c-.3-.1-.7 0-1 0h-.5l-.3-.8-.1-.1-.4-1c.2-.2 1.4-.9 1.8-.9.6-.1 1 .3 1.2.5l.2.2h.2l-.1-.8c.5-.1 1-.1 1.5 0 .2 0 .4 0 .7.1h.1l-.1-.3c1.6-.5 3.4-.1 4.8.2l.5.1c.7.2 2.1.5 2.6.1.3-.2.3-.3.3-.4 0 0-.1-.1-.4-.2-.4-.1-1-.1-1.3.1-.7.4-1.3.3-2.1-.4-.1-.1-.4-.1-.8-.1-.3.1-.6 0-.8 0h-1v-.3c-.3 0-.6-.1-1-.1l.1-1.1-.2.2c-.4.3-.8.7-1.4.9l-.1-.4c-.2-.1-.7-.1-1-.1l-.4-1c.6-.6 1.3-1 1.9-1.3v-.5h.3c.2 0 .5 0 .6-.1 0-.5.5-.9.9-1.2l-.2-.5c.1 0 .2-.1.4-.1.1 0 .4-.1.6-.2v-.4c.1 0 .3-.1.5-.1.5-.1 1.1-.3 1.7-.2h.2c.5.1.8.1.9 0 .4-.6.8-.7 1.2-.7l-.1-.4c.2-.1.3-.2.5-.3-.1-.4.2-.7.4-.8.2-.1.4-.2.6-.4.2-.1.4-.3.6-.4-.1 0-.3 0-.4.1-.2 0-.7.3-.9.5l.1.2c-.7.3-1.2.1-1.5 0-.2-.1-.3-.1-.5-.1l-.4-1.1c.2-.1.4-.3.7-.4.1-.1.3-.2.4-.2-.1 0-.2.2-.1.4.1 0 .2 0 .3.1v-.9c.4 0 .8-.2 1.2-.3.4-.1.9-.3 1.4-.3h-.3c-.3 0-.7.1-1 .1-.8.1-1.7.2-2.6.1v-1.2c1.7-.2 3.8-.4 5.9-.2.7.1 1.4.1 2.1 0 .2 0 .4-.1.6-.2.3-.2.7-.3 1.2-.3.6 0 1.2.1 1.8.1 1 .1 1.9.2 2.8.1.3 0 .5-.1.7-.1.5-.1 1-.2 1.6-.2h.8l.2-.7c.6-.2 1.3-.2 1.9-.2h1c.3 0 .6-.1 1-.2s.7-.2 1.1-.3c.3 0 .6-.1 1-.1h.3c-.2 0-.4-.1-.6-.1-1-.2-2.1-.3-3.2-.4-2.6-.2-5.3 0-7.5.2l-.3.5c-.1 0-.3 0-.6.1v.1c-1.1.5-2.6.6-3.6.5-.2 0-.4-.1-.6-.1-.3-.1-.6-.1-.9-.1-.4 0-.8.1-1.3.2-.4.1-.9.2-1.3.2l-.4-.5c-2.1.4-4 .9-5.7 1.4l-1.5.3c-.7.1-1.4.3-1.9.5l-.2.1c-1 .4-1.9.7-3 1l-.4-1.2c.1 0 .2-.1.3-.1.1 0 .2-.1.3-.1v-.3c.9-.2 1.8-.6 2.7-1 .3-.1.6-.3.9-.4.5-.2 1-.3 1.5-.5s1-.3 1.5-.5c.4-.2 1-.5 1.3-.8-.3-.1-.8-.2-1.2-.1h-.9c-.6 0-1.3 0-1.8.1-.3.1-.6.2-.9.4-.4.3-1 .6-1.8.6s-1.6.1-2.4.2c-.6.1-1.1.2-1.7.2-.5 0-1 .1-1.5.2-1 .2-2 .4-3 .2v-.3l-.3-1.1c.9-.5 2-.5 3-.5.4 0 .7 0 1-.1h1.5c-.5 0-1 0-1.4.1-.4 0-.8.1-1.1 0h-.8c-1.7 0-3.4-.1-5 .1-1.4.1-2.9.3-4.3.4-2.3.2-4.6.4-6.9.7l-.7-.8c.4-1.3 2.6-1.3 3.7-1.3h1.9v-.7c.4 0 .8-.1 1.1-.1.7-.1 1.5-.1 2.2.1h.2c1 .1 2 .2 3 .1 1.7-.1 3.4-.1 5.1 0 .9 0 1.8.1 2.7 0 1.2 0 2.5-.1 3.7-.2 1.2-.1 2.5-.2 3.8-.2h.4c1 0 2 0 2.9-.3.1 0 .2-.1.3-.1-1.4-.1-2.9 0-4.2.2l-.2-.5c-.8-.1-1.6 0-2.5.2-.8.1-1.5.3-2.3.3v-1.2c-.5 0-1.1.1-1.6.1-1.7.2-3.4.1-5.1.1-1.8-.1-3.6-.1-5.4 0-2.5.2-4.7.3-7.2.4h-.1c-.5 0-.8 0-1.1.2-.3.2-.6.1-1.3 0-.1 0-.3-.1-.3-.1-.5 0-1.1.1-1.7.2-.6.1-1.2.2-1.9.2l-.1-1.2c.3-.1.4-.1.6-.1v-.3c2-.2 3.9-.3 6.1-.4v-.3c.7 0 1.3.1 2 .1 1 .1 1.9.2 2.8.1.7-.1 1.4-.1 2-.2h-.5c-.5 0-1.1 0-1.7-.1-1.6-.1-3.2-.1-4.9 0v.3c-.6.2-1.1 0-1.4-.1-.1-.1-.2-.1-.3-.1-.2 0-.6 0-1 .1-.3 0-.5.1-.7.1-.6 0-1.2 0-1.8-.1-.7 0-1.4-.1-2.1 0l-.1.6c-.6.1-1.2-.1-1.8-.2-.1 0-.2 0-.3-.1l.2.9c-.5.1-1 .2-1.4.2v.2h-1.4c-.6 0-1.2.1-1.9-.1l.3.5c-.7.6-1.6.2-2 0l-.1-.1c-.5-.2-1.1-.2-1.8-.2h-.2c.1.1.2.2.2.4v.2c0 .1.1.1.1.2 0 .3-.1.6-.5.8-.3.2-.8.2-1.1-.1-.2-.2-.7-.4-1-.5-.4-.1-1.2-.4-2-.4-.1.2-.2.7-.8.8-.5.1-.9-.4-1.1-.7l-.1-.1c-.7-.2-1.5-.1-2.3-.1h-2.1l.2.2c.3 0 .6 0 .9.1.7 0 1.3.1 2 .2l-.1 1.2c-1.4.1-2.9-.1-4-.2-.5-.1-1-.1-1.4-.1-.1 0-.3.1-.5.2v.5h-.1l.1.8c-1.9.4-3.6 0-4.8-.5-.5-.2-1.1-.3-1.8-.3-.7-.1-1.3-.1-2-.4-.8-.3-1.7-.4-2.6-.6-.4-.1-.7-.1-1.1-.2-1.3-.3-2.7-.2-3.8-.1.4.2 1.1.4 1.7.5l.4.1.1 1.2c-.5.1-.9.2-1.4.3l-.1.7c-.9.2-1.6-.1-2.2-.3-.2-.1-.5-.2-.8-.2-.7-.2-1.5-.3-2.3-.4h-.3c-.7 0-1.4-.1-2-.3-.1 0-.2.1-.3.2-.2.2-.5.4-.9.5-.2 0-.5.2-.8.3-.6.3-1.4.6-2 .5l-.4-.9c.3-.5.7-.7 1.1-1 .3-.2.6-.3.7-.5-.3-.1-1-.2-3.3 0-.4.1-1 .2-2.3.3-.5.1-1 0-1.5 0h-1.1c-.7 0-1.3.1-2 .1-.9 0-1.7.1-2.6.2.1.1.1.1.2.1.1.1.4.1.6.1.2 0 .5 0 .7.1.3.1.7.2 1 .3.3.1.7.3 1 .3l-.1 1.2c-.8 0-1.5-.2-2.2-.4-.6-.2-1.1-.3-1.6-.3-.8 0-1.1-.2-1.5-.8 0-.1-.3-.1-.7-.1h-.4c-.3 0-.5 0-.8-.1-.9-.1-1.8-.1-2.7 0-.2 0-.7.2-1 .4l.2.9-.9.3c-.2 0-.3.1-.4.1l-.2.7c-1.1.4-2.3.2-3.4 0-.4-.1-.8-.1-1.2-.2h-.3c-.5 0-1-.1-1.4.1 0 .1.1.2.1.2.1.1.1.2.2.3l-.9.8c-.3-.2-.5-.5-.6-.7-.1-.1-.2-.3-.3-.4-.1-.1-.8.1-1 .2-.3.1-.5.1-.7.2-.8.1-1.6.3-2.5.5-.8.2-1.6.4-2.4.5-1.5.2-2.9.5-4.1.7l-.4.1c-.2 0-.5.1-.8.1h.2c.5 0 1 0 1.5.1.3 0 .5.1.8.1.7 0 1.5-.1 2.3-.2 1.1-.2 2.2-.3 3.4-.1l-.1 1.2c-.8 0-2.8-.1-3.7.7-.1.1-.2.2-.3.4-.1.3-.3.6-.6.9-.7.5-1.6.7-2.3.9l-.8.2c-1.5.3-2.9.6-4.6.5-.7-.1-1.3 0-1.9.1-.3.1-.6.1-.9.1-.5.1-.9.1-1.4.1-.6 0-1.1.1-1.7.1-.2.4-.8.5-1.5.6-.4 0-.7.1-1 .1-.4 0-.8 0-1.2.1-.3.1-.7.1-1 .1-.3 0-.5 0-.8.1-.2 0-.4.1-.6.2-.3.1-.6.3-1 .3h-1.3c-.5 0-1 0-1.6.1-.5.1-.9.1-1.4.1h-.7c-.2 0-.4.1-.6.3l-.1.1-.3.4c-.1.1-.1.1-.3.2.1.1.2.1.3.1.5.2 1.3.2 1.9.1l.1.4c.5 0 .9-.1 1.4-.2.7-.1 1.3-.2 2-.2l.1.6c.2 0 .3-.1.5-.1l.5 1h.7c.4 0 .4 0 .6-.3.5-.8 1.4-.2 1.7 0 .1.1.2.1.3.2 1 .1 2-.2 3.1-.5h.1c1.1-.3 2-.3 2.6 0 .4.2.6.6.7 1l.1.4-.4.2c-.5.3-1.1.3-1.7.3l.2.8c-.7.3-2.8.3-6.3.2-1.3 0-2.9-.1-4.4-.1l-.1.7c1 .1 2.1.1 3.3-.1l.7.7c0 .3-.2.6-.4.8-.5.4-1.4.3-2 .3h-.3c-.5 0-1.3.1-2 .3.4.1.8.2 1.1.2v.3c.1 0 .3.1.4.1.4.1.7.1 1 .1h.3c.4 0 .8.1 1.2.2.2 0 .4.1.5.1v-.8c.2 0 .4-.1.6-.1.7-.1 1-.1 1.8.4.1 0 .4-.1.6-.2.7-.3 1.5-.6 2.3-.2v.4c.3-.3.6-.2 1-.2h.5c.3-.1.5-.1.8-.1.1-.1.3-.2.5-.3.6-.1 1.2-.3 1.7.1l.1.1h.1c2.2-.6 3.4-.8 4-.3.6-.2 1.3 0 1.9.1h.2c.5.1.9.1 1.4.1.6 0 1.1.1 1.7.2l.2.4h.1c.8 0 1.5-.1 1.9.3.1 0 .2 0 .4-.1l.2.4h.3c.3 0 .7-.1 1.1 0l-.1.5s.1.1.2.1h.5c.2 0 .5-.1.8-.1v.3c.2.1.4.2.5.5.1.2.1.5-.1.8-.2.3-.4.5-.7.6v.1l-.1.1v-.2s-.1 0-.1.1l.1.2c.3.1.6.1.9.2.8.1 1.6.2 2.1.9l-.1.6c.1.1.2.1.2.1.1.1.2.2.3.2h-.1l.6 1c-.2.2-.4.3-.6.4l.1.2c-.1.1-.3.2-.4.2l.2.3-.3.3c.1.1.3.1.4.2v.8c0-.1-.1-.1-.1-.1v.2l.2.8c.5.3.9.5 1 .9l-.9.7h-.2.1c.7.3.9.8.9 1.2 0 .3-.2.5-.4.7l.2.3c-.1 0-.1.1-.2.1v1.2c-.5.1-.9.1-1.4.1l.5 1.1c-1.2.8-2 1.2-3.4 1.4-.7.1-1.3.2-1.7.4 0 .1.1.2.1.3 0 .1 0 .1.1.2h.2c-.1 0-.2 0-.3.2-.1.2-.1.3-.1.4l.8-.9c.5.4 1.3.5 2.2.5.4 0 .7-.1 1-.2-.1-.2-.1-.5.1-.9l.9-.1c.2-.3.6-.3.9-.4.2 0 .5-.1.6-.2 0-.1-.1-.2-.1-.3-.1-.2-.4-.6-.2-1.2.3-.9 1.1-.9 1.5-.8h.2v1.2h-.2c0 .1.1.2.1.4 0 .1.1.3.1.4.6-.2 1.1-.4 1.6-.5l.3 1.2h-.1c-.1.1-.3.1-.5.2.3 0 .5.1.8.1.2 0 .5-.1.8-.2.5-.2 1.1-.4 1.7-.2l.2.9h.2l.2 1.1c-.3.2-.6.2-.9.3 0 .2 0 .3-.1.4.2.1.7.1.8.1l.3.8c.3.1.4.4.4.5.1.3-.1.6-.3.8-.1.1-.2.1-.3.2l-.1.3.4.6h-.1s-.1.1-.1.2c-.1.1-.2.3-.3.4-.5.5-1.3.3-1.9.1-.1 0-.2-.1-.2-.1-1.4-.3-2.2-.6-3.4-1.2-.5-.3-1.1-.3-1.8-.2-.6 0-1.1 0-1.7-.1-.6-.2-1.4-.3-2.2-.1.3.2.6.4.9.5.3.1.6.1 1 .1.8.1 1.8.2 2.6.9.4.4.8.4 1.4.5.2 0 .5 0 .8.1.1 0 .2 0 .3.1.1 0 .2.1.3.1.1 0 .1-.1.2-.1.4-.2 1.2-.6 1.8 0 .1 0 .3 0 .4-.1.5-.1 1.1-.2 1.7-.2l.5.9c-.1.2-.3.4-.5.5v.6l-.6.4H499.7l-.4 1.1h-.6c.1.1.1.2.2.2l.1.1.1 1.1c-.2.1-.4.1-.5.1l-.2.6c-.2 0-.3 0-.4.2l-1-.4h-.8l.2 1-.2.1c-.1 0-.3.1-.4.1l.1-.1h-.2l-.4.5.2.7c-.3.1-.5.2-.7.2-.2 0-.4.1-.5.1l-.1.1v.2c.1 0 .1 0 .2.1.7.3 1.3.5 1.9.6l.1 1.2c-.2 0-.5.1-.7.1v.3h-.1l.1.4c-.1 0-.2.1-.3.1l.1.9c-1 .3-1.9 0-2.7-.3-.4-.1-.7-.2-1-.3l.2.8h.3c.5-.1 1-.2 1.6 0v.5h.1l.1.3h.4l.3 1.2c-.5.3-1.1.2-1.5.1l.1.5c-.6.2-1.2.1-1.8.1-.4 0-.9-.1-1.2 0-1.1.3-2.1.6-2.9 1.2-.5.4-1.1.5-1.6.6-.2.1-.4.1-.5.2-.2.1-.3.1-.5.2-.1 0-.1.1-.2.1-.1.1-.2.2-.4.3.2 0 .4.1.5.2.4-.2.8-.3 1.2-.4.2 0 .4-.1.6-.1l.8.6c0 .1 0 .5-.2.7.6-.1 1.1 0 1.5.1.4.1.7.1 1 .1l.1.3H490.1v.1h-.1l.2 1.2c-.7.1-1.3 0-1.9-.1-.9-.2-1.5-.3-2.2.2-.4.3-.8.5-1.1.6-.1 0-.1 0-.2.1-.1 0-.2.1-.3.1 0 0-.1 0-.1.1-.1 0-.2.1-.3.1l.4.6c-.3.2-.4.3-.5.4.4-.2.9-.4 1.4 0 .2-.1.4-.1.6-.1l.2 1c.1 0 .3.1.4.1v.4c.3-.1.6-.3.7-.5 0 0-.1 0-.1-.1-.3-.3-.3-.8-.2-1.3l1-.5.1.1c.1 0 .2-.1.3-.1l.4 1.2c-.1 0-.1.1-.2.1v.5c0 .1.1.2.1.2.1.1.6-.2.8-.3.2-.1.3-.2.5-.2l.5 1.1c-.1.1-.3.3-.5.4l.1.2c.3.2.9.6.9 1.3l-.8.5c-.1 0-.2-.1-.4-.1-.3-.1-.7-.2-1-.4l-.1.1c.1.1.3.3.3.7l-1 .5.1.1c-.3-.1-1.5 0-1.8.1-.4.1-.8.3-1.2.4l.1.6h.4l.3 1.2h-.2l.3.7h.1l.3 1.2c-.1 0-.2.1-.3.1l.1.6.6.8-.9.6c-.4.2-.8.5-1 .7.2.1.7.3 1.8.5.1 0 .3 0 .3.1l-.1.4h.1v.2c.2-.2.4-.4.8-.4l.5.5h.1-.1l.1.1v.4h.1l-.1 1.2c-.2.1-.5.2-.7.3v.1h.4v.4c.3-.1.6-.1.9-.1v.7h.1-.1v.5h-.1c.3-.2.6-.2 1.1-.2l-.1 1.2.5.3c0 .1 0 .3-.1.4.8-.1 1.6-.1 2.4 0l.1.3.3-.4c.1 0 .3-.1.5-.2.5-.2 1.2-.5 1.7-.2l.1-.2c.1 0 .4-.1.5-.2 0 0-.1.2-.1.3v.1l.3-1.1h.2s.1-.1.2-.1c.2-.1.5-.3.9-.2l.3.8.8.1s0-.1.1-.1h-.2l.2-.1.2-.1.8.9c-.2.3-.5.5-.7.7 0 .2 0 .3-.1.5-.1.3-.4.4-.6.4v.4c.1 0 .1-.1.2-.2.4-.3.8-.6 1.4-.7l.3.9.5 1.1c-.2.1-.3.2-.5.4l-.1.1.7-.3 1.1.2c0 .1 0 .2-.1.2.2 0 .4 0 .7.1.2 0 .3 0 .5.1l-.2-.6c-.5-.1-1-.2-1.5-.5l.5-1.1c.7.3.9.2 1 .1l1.1.2c.1.1.4.2.5.2l.1-.3h.2v-.1c-.1 0-.3-.1-.4-.1l.1-.4c-.1 0-.1-.1-.2-.1l.3-.7c-.1 0-.2-.1-.3-.1l.2-1.2c.4 0 .8 0 1.2.1.1 0 .3 0 .4.1l.2-1.1h.6l-.2-.2.6-1h.2c.2 0 .4.1.6.1l.3-1.1h.4c.2 0 .7.1 1 .1l-.4-.8.2-.1c.5-.3.8-.5.8-.7-.1 0-.5-.2-.8-.3-.3-.1-.6-.2-.9-.4l.3-.7c-.2-.2-.4-.3-.5-.4l.7-1c.3.2.8.3 1.2.3h.2s-.1 0-.1.1c-.1.1-.1.2 0 .2l.5-.9h.1v-.2h.4c.3 0 .7.1 1 .2.1 0 .1 0 .2-.1l-.3-.3c-.1-.3-.1-.6 0-1h1.1c0 .1.2.2.3.2l.1-.5c-.1-.2-.1-.5 0-.8h.1-.1c.2-.5.6-.8 1-.8.3 0 .6.2.9.4.1 0 .2.1.2.1h-.1.1v-.1h-.1l.1-.1s.1 0 .1.1l.4-.3h-.6l-.6-1c.6-.7 1.5-.4 2-.2.1 0 .2.1.3.1.2.1.4.1.7 0h.5v-.8h-.3c-.6 0-1.5.1-2.1-.7v-.8c.5-.6 1.2-.5 1.7-.5h.7c.4-.2.8-.1 1.1-.1l-.1-.3c.1-.1.1-.2.1-.2 0-.1-.2-.3-.4-.4-.2-.2-.5-.4-.7-.8l.5-.9-.2.2c0-.1.1-.3.2-.4.3-.6 1.1-.6 1.5-.6h.4c.5-.1.9.2 1.1.4 0 0 .1 0 .1.1.2 0 .5-.1.5-.1-.1 0-.2.2-.2.4s.1.3.1.4l.3-1.2s.1-.1.2-.1l.1-.1-.5-.8c0-.1.2-.5.5-.7.3-.2.7-.1.9 0h.1s0-.1.1-.1c.2-.2.5-.6 1-.6s.7.5.8.7l.6-.8.4.1c.4.1.7.3 1.1.3l.2-.4h.3c.2 0 .6-.1.8.2h.1c-.1-.1-.3-.3-.3-.5s0-.6.3-.9l1 .4-.1-.1s.2 0 .3-.1c0-.1 0-.3.1-.4.1-.3.4-.4.5-.4 0 0-.1 0-.1-.1l.3-1.1c.6 0 1.2.1 1.7.2s.9.1 1.4.1v1.2l.1.5c.2 0 .3-.1.5-.1.1 0 .4-.1.4-.1l.8-.5c.3.1.5.3.7.5h.1c.3 0 .4 0 .5-.1.5-.4.8-.5 1.2-.6v-.2s0 .1.1.1l-.2-1.1c.1-.1.4-.3.8-.2.4.1.5.3.7.5.1.1.1.1.1.2.1 0 .2.1.3.1.1-.3.3-.5.6-.7l.9.7s0-.1-.1-.2-.2-.1-.2-.1c.3 0 1.1-.4 1.4-.6.1 0 .1-.1.2-.1v-.2c.1-.4.3-.7.7-.8l.4.3h.2c.2-.2.4-.3.7-.4 0-.2.2-.5.4-.7.1 0 .1-.1.2-.1.2-.4.7-.5 1.1-.5.1 0 .4-.1.5-.1.1-.3.3-.5.4-.6v.3l.8-.9c-.1 0-.1 0-.1-.1l.8-.7.1-.1c.1-.1.3-.3.5-.4.4-.2.9-.4 1.4-.5.3-.1.5-.1.7-.2.3-.1.6-.1.9-.1h.4c0-.1.1-.2.1-.3-.1 0-.3-.1-.4-.2l.2-.6c-.2-.1-.4-.4-.5-.7-.1-.7.3-1 .5-1.1l1.2-.1c0 .1 0 .2.1.3 0 .1 0 .2.1.3 0-.1-.1-.1-.1-.1v.1l.8.3c0 .2.1.3.1.3s.2 0 .3.1c.2 0 .5.1.7.2l-.1.6c.1 0 .2 0 .2.1h2.2l.2-.8c.5 0 .8.3 1 .5.1.1.2.1.2.2h.2l-.1-.7h.5c.1-.3.4-.4.5-.5.5-.2.9.2 1.2.4.1 0 .1.1.1.1.2.1.9.1 1.1 0 0 0-.1.1-.1.2l.9-.7c.4.3 1.1.1 1.7-.1.1 0 .1-.1.2-.1.3-.1.8-.4 1.3-.1h-.1c-.1 0-.1.1-.1.1l1.1-.4c.1 0 .6 0 1.1-.2.4-.2.8-.2 1.2-.2.9.2 1.2.1 1.4.1zm-.5-13.7zm-71.8 51z"/>
        <path class="st4" d="M498.7 196.5v.3h.1c0-.1 0-.2-.1-.3zM498.3 202.4c-.1 0 0 .1 0 .1v-.1zM545.1 215.4zM516.4 229.7l.1.1.2-.1h-.1c0-.1-.1-.1-.2 0zM516.1 229.5c.1.1.2.1.3.2l.1-.1c-.1-.1-.3-.1-.4-.1zM525.3 221.2h.1s0-.1-.1 0c.1-.1.1-.1 0 0zM526.2 220.5l.1-.1s-.1 0-.1-.1v.2zM535.6 220zM533.6 218.8c.1 0 .2.1.3.1.1-.3.2-.5.4-.7-.3.1-.7.3-.9.5.1.1.1.1.2.1zM542.2 217.4l.1.1v-.3l-.1.2zM556.8 209.6c0-.1.1-.1.1-.2v-.3l-.1.5zM572.6 152.8zM598.8 174.7v-.2s-.1.1-.1.2h.1zM601.3 171c0 .2.2.4.2.4l-.2-.6h-.1c.1.1.1.2.1.2zM598.8 156.2c.3 0 .6 0 1-.1.5 0 .7-.2 1.1-.4l.1-.1c-.4 0-.7.1-1.1.1-.4 0-.8.1-1.2.1l.1.4zM574.4 194s-.1 0 0 0l-.1.1s.1 0 .1-.1zM580 189.1c.1 0 .3.1.4.1.3.1.5.2.7.1.3 0 .5-.1.8-.2.1 0 .2-.1.3-.1-.6-.1-1.1-.2-1.7 0-.1 0-.3 0-.5.1zM575.6 195.3v-.2h-.1c0 .2.1.2.1.2zM479.6 221.4l.1.1c.1.1.2.1.3.1l-.2-.2h-.2zM357.5 175.2h-.7c.3.1.5.1.7 0zM593.2 195.6v.3-.2c.1 0 0 0 0-.1zM357.5 175.2l-.1-.5h-.2c0 .3.2.5.3.5zM359.1 178.3h.3c-.1-.1-.2-.1-.3 0zM152 277.5c-.1 0-.1-.1 0 0-.1-.1-.1 0-.1 0h.1zM152.5 280.1s0 .1.1.2c0 0 .1 0 .1.1l-.1-.4-.1.1c-.1 0-.2 0-.3.1-.1.1-.1.2-.1.2 0-.1 0-.2-.1-.4-.1-.1-.1-.1-.2-.1l.5.8c.2-.4.2-.6.2-.6zM153.4 277.3l-.2.4c.5-.2 1-.4 1.4-.8l-.6.3-.3-.4v-.1l-.4-.6c.1-.1.2-.1.2-.2l-.1-.3c.4-.2.8-.3 1.1-.4.2-.1.4-.1.6-.2l-.4-.6c-1 .1-1.6.8-1.9 2.1l-.1.1c.4.2.6.3.7.7zM603.5 170.6h.3v-.2c-.2.1-.3.2-.3.2-.1 0 0 0 0 0zM604.6 166.6l.1-.2c-.1 0-.1.1-.1.2zM609.5 162.3l.2.8c.1-.1.2-.3.1-.6 0-.1-.1-.1-.3-.2.1 0 .1 0 0 0zM610 166s-.1.1-.1.2h.1v-.2zM559.8 154.1s-.1.1-.1.2l.1.1v-.3zM602.6 179.9s-.1.1 0 .3v.1h.1l-.1-.4zM611.9 156.3v-.2.2c-.1 0-.1 0 0 0zM601.8 182.9c-.1-.1-.2-.1-.3-.1.2.1.3.3.4.4l.2.2c.1 0 .3.1.5.1h.3c.4 0 .8-.1 1.3-.3l-.1-.1h-.2c-.6 0-1.3.2-2.1-.2zM596.5 185.4c0 .4.1.8-.1 1.2l-.1.1h2.7c0-.1.1-.2.2-.4.1-.1.1-.2.2-.3-.3-.1-.6-.1-.9-.2-.8-.3-1.4-.4-2-.4zM599.2 183.8c-.3 0-.9.1-1.5.2.5.1 1.2.1 2.2-.1h-.3c-.1 0-.3-.1-.4-.1zM602.4 181.5c-.2-.1-.5-.1-.6-.1l-.1.1c.2.1.4.1.7 0v.3-.3zM608.6 174.6l.1.3s.1-.1.1-.2c-.1-.1-.2-.1-.2-.1zM608.3 171.8c.1-.1.2-.1.4-.2-.3 0-.6 0-1-.1.4.4.5.3.6.3zM559.8 154.7v-.3h-.1v.1s.1.1.1.2zM600.4 175.5c.1 0 .2 0 .4-.1h-.3v-.3h-.2s.1 0 .1.1v.3zM559.6 153.7c.1 0 .1.1 0 0l.1-.1s0 .1-.1.1zM500.4 154.8h-.2c.2 0 .3-.1.4-.1-.1.1-.2.1-.2.1zM547.1 155.4s-.1 0 0 0l-.1.2c.1 0 .1-.1.1-.2zM542.7 154.4c.5 0 1 .2 1.4.3.4.1.7.2 1 .2v-.3c.1 0 .2-.1.3-.1-1.1-.3-2.5-.3-3.8-.2.3.1.6.1.9.1h.2zM555 152.6h.5-.5c-.5-.1-.9-.1-1.3-.1v.1h1.3zM556 152.7l-.1-.6c0 .1-.1.2-.1.3 0 .1.1.2.2.3zM500.2 156.1c-.3 0-.6.1-.9.1l-.3.1c-2.6.5-5.3.7-7.9.8l-.1.9c.5-.1 1.1-.2 1.6.1l.1-.1c.7-.5 1.6-.4 2.3-.3h.3c.4 0 .9.1 1.3.2.7.1 1.5.2 2.2.1v-.4c.3-.3.6-.4.9-.5v-.1c0-.4.2-.7.5-.9zM388.6 174.3c-.3 0-.6-.1-.9-.1h-.4l-.6-.1c-1.1-.2-2-.4-3.1-.4-.8 0-1.6 0-2.2.2-.1 0-.2 0-.3.1v.3c.4.1.8 0 1-.1l.5 1h.8v.1c.4 0 .9 0 1.3.1s.7.1 1 .1v.6l.2-.6c.1 0 .6-.1.8-.2.2-.1.3-.1.5-.2l-.1-.2c.4-.2.7-.3 1.1-.5.1 0 .2 0 .4-.1zM381 173.5c0-.1 0-.1 0 0zM401.6 173.1c-1 0-1.6-.1-2.1-.3-.2.2-.4.4-.6.5.6-.1 1.4 0 1.9.6.1-.2.3-.5.7-.7 0-.1 0-.1.1-.1zM396.2 179.3c-.1 0-.4.1-.5.1-.2.1-.4.1-.6.1v-.1c-.3 0-.7-.1-.7-.6-.1-.6.5-.7 1-.8.2-.1.5-.1.7-.1h.1l-.3-.4v.1l.2.2h-1.6c-.7 0-1.5 0-1.9.3l-.8-.9c.2-.2.5-.4.8-.5h-.1v-.3c0 .1.1.2.1.3l-.1-.6s0 .1-.1.1l.1-.7c.5-.1.9 0 1.4 0l-.1-.5c-.1 0-.3 0-.4.1l-.4.1c-.6.1-1.2.1-1.8.1h-1c-.4 0-.8.1-1.2.3.2.4.2.8.1 1.1v.4l-.1-.1.3 1.2c-.2.1-.3.2-.4.4-.2.3-.6.8-1.3.9-.5.1-1.1.3-1.5.6l.3.8-.3.2c-.2.1-.5.3-.7.5h.1c.6.3 1.2 0 2.1-.4.2-.1.5-.2.7-.3l.7 1-.1.1c.3 0 .6 0 1 .1 1 .3 1.7 0 2.5-.4.4-.2.8-.3 1.3-.5l.2.3s.1 0 .1-.1c.5-.3 1.4-.8 2.2.1l-.5 1h-.2c.7 0 1.4-.1 1.8-.2.3-.1.6 0 1 .1.2.1.7.2.8.1-.1 0-.2.2-.2.3l1-.6c.3.2.7.2 1-.1l1 .6c0-.1 0-.2-.1-.2.2.1 1-.1 1.2-.3l1.1.4s0-.1-.1-.1c-.1-.1-.2-.1-.2-.1.1 0 .3-.1 1.2-.6l.4.5c.7.3 2.3.2 3.6-.1.2 0 .5-.3.7-.5.5-.4 1.4-1.1 2.1-.5l.1.8c-.1.1-.1.2-.1.2.2.2 1.5.4 2.7.2.3 0 .7-.1 1-.2.6-.1 1.3-.3 2-.2.7.1 1.3-.1 2-.4l.1-.7c.2-.2.4-.3.6-.3.4-.7 1.4-.9 2.4-1h.1l-.1-.6h-.7c-.5 0-.9.1-1.4 0l-.1-.6c-.8-.4-2-.2-3.2 0-1 .2-2.1.4-3 .2-.8-.2-1.7 0-2.6.2l-1.5.3c-.4 0-.7.1-1.1.1-.8.1-1.6.1-2.3.3l.1.6c-.9.1-1.7.2-2.6.2h-.6l-.1-1.2c-.1.1-.1.1-.2.3-.1.2 0 .4.1.4-.1-.1-.7-.4-1-.5-.4-.1-.8 0-1.1.4l-1-.7s0 .1.1.3l.2.2c-.2 0-.9.1-1.2.2-.3.1-.5.1-.7.1l-.1-1.2c-.1.1-.1.1-.1.3 0 .2.1.3.1.4l-.4-.2c-.1 0-.1.1-.2.1-.1.2-.3.4-.5.5-.8.4-1.2-.2-1.3-.4zM379.8 179.1c-1.1.1-2.2.3-3.3.6-.2 0-.4.1-.6.1v.3c-.2.1-.4.1-.7.2-.2.3-.7.3-1.2.4h-.3c-.3.1-.5.1-.8.2l.5.5s.1-.1.1-.2-.1-.2-.1-.2.2.2 1.1.4c1.5.4 2.5.5 3.7.4 1.4-.1 2.7-1.3 2.7-2 .2-.5-.7-.6-1.1-.7zM373.4 176.4l.2-.1c.1 0 .3-.1.4-.2 0 0 .1-.1.1-.2s.1-.2.1-.3h-.2v-.3h-.1c-.2.1-.5.1-.8.1h-.6c-.3.4-.6.5-.8.6-.1 0-.2.1-.3.1l-.3-.4H370.8c-.2 0-.5-.1-.7-.2-.2-.1-.4-.2-.6-.2h-1.2v.5h.1l.3 1.2c-.4.2-.8.2-1.2.1l.1.4h.3l.3 1.2c-.5.2-1.1.2-1.6.2h-.5c-.2 0-1.2.2-1.5.3v.2h-.6v.1c-.2.1-.5.1-.7.1-.2.1-.4.1-.6.1v.4c.3-.1.7-.2 1-.3 0 0 .1 0 .1-.1l.2.3h.7c.1-.1.3-.1.4-.1.2 0 .5.1.6.1.1 0 .2.1.3.1h.4c.3 0 .7-.1 1.1-.1 0-.1.1-.1.1-.2.2-.2.3-.4.5-.5l.5.3-.1-.6c.2-.1.5-.3.8-.4.2-.3.6-.4 1-.5.2-.1.4-.1.5-.1l.1.1.6.2v-.1h-.1.1l-.1-.9c.2-.1.5-.2.7-.2.2-.1.5-.1.6-.2.1-.1.3-.3.7-.5z"/>
        <path class="st4" d="M370.7 175.5c.1.2.3.2.3.2l-.4-.5c0 .1 0 .2.1.3zM374 175.2c-.1 0-.1 0 0 0-.1 0-.1.1 0 0zM365.2 175.6v.2l.2.2h.1v.3c.1.1.2.1.3.2l-.1-.1.1-.2c-.1-.1-.3-.2-.4-.3-.1-.1-.1-.2-.1-.3h-.1zM370.1 179.7c.1-.1.3-.2.2-.5 0-.1-.1-.2-.1-.3l-.1.8zM362.4 178c.7 0 1.3-.1 2-.1h1l-.2-.5h-.1c0 .1.1.1.1.1-.1 0-.1-.1-.2-.1h-.1l-.3-.5h-.1l-.1-.1.1.1-.2-.3v-.1l-.2-.6v.1c0 .1.1.2.1.2s-.2-.1-.4-.1h-.3l.1.7s-.1 0-.3.1c-.5.1-.9.2-1.1.2v.4l.2.5zM588.1 186.7c.1 0 .2 0 .3.1l-.1-.2s-.1.1-.2.1zM584.5 188.1l-.1-.2c-.1 0-.2.1-.2.1.1.1.2.1.3.1zM590.7 188zM591.5 189.4c.1.1.3.2.4.3.4-.1.8-.1 1.2 0-.5-.1-1.1-.2-1.7-.3 0-.1.1 0 .1 0zM590.1 192.7c-.1 0-.1-.1-.2-.1-.2-.1-.3-.1-.4-.2-.1 0-.3-.1-.5-.1l.6.3c.1.1.3.1.5.1zM586.1 189.3l-.1-.2c.2-.3.6-.5 1-.7-.5-.1-1-.1-1.5 0h-.2l.1.5h.3l.3.8c-.1-.2-.1-.3.1-.4-.1 0 0 0 0 0zM586.1 191.2c-.2-.1-.3-.3-.4-.4 0 .1 0 .2-.1.3.1 0 .2.1.3.1h.2zM585.7 190l-.1.1c0 .1.1.1.1.2v-.3zM580.1 198.1l.1-.4s-.1.1-.1.2c-.1.1-.1.1 0 .2zM579.6 197.6c-.4 0-.8.2-1.2.3-.6.2-1.2.2-1.8.3-.3 0-.7 0-1 .1-.4.1-.8.2-1.2.4.3 0 .7-.1 1-.1.5 0 1-.1 1.5-.1 1 0 2-.1 3-.4v-.1s-.1-.1-.2-.1l-.1-.3zM373.9 174.4zM579 205.1c0 .1.1.2.1.2l-.1-.2c0-.1 0-.1 0 0zM588.3 192.2v-.1h-.2l.2.1zM590.2 190.4c-.3-.2-1.2-.2-1.7-.2h-1.6v.2c.2.2 1.5.5 2.1.6.4.1.8.2 1 .3.1.1.3.1.5.2.1 0 .2.1.3.2v-.6l.3-.1c-.4-.3-.6-.4-.9-.6zM591.8 199.3c.1.2.2.2.3.2l-.3-.3c-.1.1-.1.1 0 .1zM370.1 165.3l.3.7.6 1.1c-.3.2-.6.4-.9.4h.6v.2c.2 0 .7.1 1.6.1h.4c.8 0 2.1.1 2.5 1l-.3.5c.5.2 1.2.2 1.8.1h.2c.7-.1 1.4-.1 1.9-.4.1 0 .1-.2.1-.3 0 .1.1.1.2.1l-.7-.9c.3-.5.8-.8 1.2-.9h-.7c-.4.1-1 .2-1.6-.1l-.1-.8c-.2-.1-.4-.1-.6-.1-.8 0-1.7.3-2.5.6l-.2.1-.7-.9c.2-.3.4-.4.6-.6-.2-.2-.9-.2-1.1-.2h-.5c-1.3-.1-2.6-.1-3.8.1v.1c.5.1 1.1 0 1.7.1zM368.2 167v-.2c-.1 0-.2.1-.4.1.2.1.3.1.4.1zM348.8 167.8c.2 0 .4-.1.6-.1h.2c.6.1 1.3.1 1.8-.1-.5-.2-1.3-.3-1.6-.3-.7.1-1.4.2-2.1.4-.1 0-.2 0-.3.1.2.2.8.1 1.4 0zM357.9 172.2h.4c.2 0 .5 0 .7-.1l-.3-.9c-.2-.1-.5-.2-.7-.2-.1.1-.3.4-.4.6 0 .2-.1.4-.2.5h.1c.2 0 .3.1.4.1zM339 171.3c.2 0 .4-.1.5-.1.6-.1 1.3-.1 1.9-.1.9 0 1.8 0 2.6-.3l-.4-.7.1-.1c-.4 0-.8.1-1.2.1h-.5c-3.1.1-4.9.4-5.3 1 .3.2.8.4 1 .4.3 0 .8-.1 1.3-.2zM388.3 171c-.6 0-1.3 0-1.8.1.5 0 1.3-.1 1.8-.1zM384.6 170.3v-.1.1zM389.8 167l-.2.4c0 .2 0 .3.1.4l.1-.8zM370.7 168.7c.1-.1.2-.2.2-.4s-.1-.3-.2-.4v.8z"/>
        <path class="st4" d="m379.6 167.2-.1-.3v.1s0 .1.1.2zM384.6 169.9c0 .1 0 0 0 0zM383.4 168.6v-.1h-.1v.1h.1zM302.1 176.4c.2 0 .3.1.4.1.4.1.6.2 1 0 .1-.1.3-.2.5-.3.1-.1.3-.2.4-.3h-1c-.5 0-.9 0-1.3.1-.5.1-.9.2-1.3.4.3-.1.6-.1.9-.1.1.1.3.1.4.1zM305.9 176.9s0 .1 0 0c0 .1 0 .1.1.2h.1c.8-.1 1.4-.2 1.6-.3.3-.7 1.8-1.5 2.4-1.5l.6.7c.1-.1.2-.1.3-.2.4-.3.9-.4 1.2-.5h.3v-.5c.5-.3 1-.3 1.5-.3s.8-.1 1.2-.3c.5-.4 1.1-.4 1.5-.5.3 0 .5 0 .8-.2l.8.9c-.2.3-.5.5-.8.7.1-.1.3-.1.5-.2.6-.3 1.3-.6 2.1-.6h.5c.5 0 1 0 1.5-.1.2 0 .6-.2.7-.3l-.1-.7c.3-.2.6-.2 1-.2l.2-.3c-.7.1-1.5.1-1.6.1-.9-.1-1.9-.2-3-.2-1.4.1-2.7.5-4.1.9-1 .3-2 .6-3.1.8-1.5.3-3 .7-4.6 1.1-.6.2-1.1.3-1.7.5h.1v1z"/>
        <path class="st4" d="M322.7 174.1c0 .1.1.2.1.2l-.1-.5c0 .1-.1.2 0 .3zM323.4 175.8l.2 1.2c-.6.2-1.3.2-2 .2l.2.8c-.7.3-1.4.4-2.1.4l.1.4c-1.6.4-3.3.6-4.8.8-.6.1-1.3.1-1.9.2l.1.1.3-.1.2.5c.2.1.4.1.5 0 .1-.5.8-.6 1.3-.6h.5l.3.6c.1 0 .5.1 1.3-.1.2 0 .7-.3.9-.5l-.1-.3c.6-.5 1.1-.2 1.3-.1l.1.1c.1 0 .4-.2.6-.3.1-.1.3-.1.4-.2 0-.1.2-.4.6-.4.4 0 .7.2.8.3.1 0 .4 0 .5-.1.2 0 .5-.1.7-.1v.9c.7-.2 1.4-.4 2-.1v.4c.6.1 1.1-.1 1.8-.3.8-.2 1.6-.4 2.5-.3l.2 1.2c-1.8.9-3.7 1-5.6 1-.4 0-.9 0-1.3.1-.5 0-1 .2-1.5.3-.7.2-1.3.3-2.1.3-.7 0-1.5.1-2.2.3 1.4.8 4.4.2 6.3-.2.6-.1 1.2-.2 1.6-.3.7-.1 1.4-.3 2.1-.5 1-.3 2-.5 3.1-.6.6 0 1.3-.2 2.1-.4 1-.3 2-.6 3-.4l.1.4h.8c.8.1 1.3-.1 1.7-.4l.4.4c.7.5 2.1.2 3.1-.1.4-.1.7-.2 1-.2 1.4-.2 2.8-.9 4.1-1.6l.2-.1c.9-.5 1.3-.7 1.5-.9-.3-.1-.7-.1-1.3-.1-.3 0-1.4.4-1.6.5.1 0 .2-.2.1-.4 0-.2-.2-.3-.3-.4v1.2c-.3 0-.6.1-.9.4l-.9-.6v-.1c-.4 0-.8.1-1.2.3-.2.1-.4.1-.7.2l-.6-1 .2-.2-.3-.9c.4-.3.9-.4 1.3-.5.2-.1.4-.1.6-.2.1 0 0 .1.1.2l.2.2V175c.2-.1.4-.2.6-.4-.7.1-1.5.4-2.3.7-.6.2-1.2.5-1.8.6-.1 0-.3 0-.4.1.2.1.3.1.5.3l-.2 1c-.2.1-.4.2-.6.2-.2.1-.3.1-.5.2.1.1.2.1.3.2l.1.8c-.9 1.1-2.2 1-3.2.9h-.4c-.8-.1-1.5 0-2.3 0-.7 0-1.5.1-2.2 0l-.6-.5c0-.2 0-.5.1-.7-.3 0-.5 0-.7.1l-.5-1.1c.2-.1.4-.2.6-.2-1-.4-2.1-.3-3.5-.1l-.7-.8c.1-.2.2-.3.3-.5-.7-.2-1.8 0-2.8.2.1-.1.4-.1.6-.2zM353.5 186.3l.1.7c-.1.1-.1.2-.2.3l.2.2.1.1.3 1.1c-.6.3-1 .1-1.3-.1 0 0-.1 0-.2-.1 0 .2-.1.5-.2.8-.3.4-.8.8-1.4.8-.1.1-.3.2-.5.3-.9.4-2.8.5-3.8.3v-1.2c-.1.1-.2.3-.2.4 0 0 0-.1-.1-.1-.1-.2-.2-.3-.2-.6-.1-.1-.9 0-1.8.4-.1 0-.2.1-.3.1-.2.1-.7.3-.9.4.1 0 .2.1.2.1.3.1.9.3 1.1.9.6.1 1.2.1 1.5.5.1 0 .3 0 .4.1.4.2.6.6.7.9.1.2.1.3.2.4.7.8 1 1.3.8 2.2.9.1 1.7 0 2.7-.4v-.4c.1-.7.8-1 1.3-1.3.1 0 .2-.1.3-.1l.7 1-.1.1c.3 0 .9 0 1.6-.1.3-.1.5-.2.8-.3.4-.2.8-.3 1.3-.4.1 0 .4-.1.6-.1l-.1-.2c.2-.1.4-.3.6-.3l.1-.3c.1 0 .3-.1.4-.1.1 0 .3 0 .4-.1l.1-.1v.2c0 .1.1.1.1.1l.1-1.2h.7l-.5-1.1c.1-.1.2-.2.3-.2v.2h.2v-.4c-.9-.2-1.9.1-2.8.5l-.8-.7c.3-1.1 1.6-1.3 2.4-1.5.1 0 .2 0 .3-.1.4-.1.8-.2 1.3-.3.4-.1.8-.2 1.3-.3l-.2-.4c.3-.3.6-.5 1-.6h-.2c-.4.1-.8.2-1.2.2h-.7c-.7 0-1.3 0-1.8.3l-.9-.5c0-.2-.1-.3-.1-.3-.1 0-.2-.1-.3-.1l.1.1c-.7.5-1.3.4-1.8.3-.1 0-.2 0-.3-.1-.5-.1-1 0-1.4.1zM71 230.9c-.2 0-.4.1-.7.2.2-.1.5-.1.8-.2H71zM314.5 177.5c.5-.1.9-.1 1.3-.2l.1-.6c.2-.1.4-.1.6-.2-.6.1-1.3-.1-2-.6l.1-.5c-.2 0-.4 0-.6.1h-.5v.4h-.1c.3 0 .7-.1 1-.1l.5 1c0 .4-.2.6-.4.7zM309.4 176.8c-.2.1-.3.2-.4.3.2 0 .3-.1.5-.1l-.1-.2zM587.1 228.7l.2-.5s-.1.1-.2.3v.2zM581.1 218.2c0-.1 0-.2-.1-.3l.1.3v.1-.1zM590.1 220.5h-.1c-.1 0-.1 0-.2.1l.3-.1c.1 0 .1 0 0 0zM588.5 221c-.1 0-.2-.1-.3-.1-.1 0-.2.1-.3.1 0 0 0 .1.1.1l.5-.1zM579 220.6v-.2.2c-.1 0-.1 0 0 0l-.1.2h.1v.1s0-.1.1-.1h.3c-.1 0-.1-.1-.2-.1s-.2-.1-.2-.1zM388.5 162.6c.2 0 .4-.1.7-.2h-1c.1.1.2.1.3.2-.1 0 0 0 0 0zM613.7 166.7c0 .1 0 .1 0 0zM597.5 229.8c0-.1.1-.1.1-.2h-.1v.2zM607.8 180.2c-.1 0-.2.1-.3.1h.5c0-.1-.1-.1-.2-.1zM609.1 225.4c.1.2.2.3.3.3l-.3-.6c0 .1-.1.2 0 .3zM597.5 229.6s.1-.1.1-.2v-.1.1-.2c0-.2-.1-.3-.2-.4l.1.8zM584.6 226.8v.2-.2c0-.1 0-.1 0 0zM320.3 175.8v-.3h-.3c-.4 0-.8.1-1.1.3.4-.1.7-.1 1.2 0h.2zM45.6 269.8h.1-.1zM50.5 268c-.3.2-.6.3-.9.5.1 0 .2 0 .3.1l.1-.1c.1-.2.3-.4.5-.5.3-.1.5-.1.7-.2.2-.1.4-.1.5-.2.1-.1.3-.2.5-.3.1-.1.2-.1.3-.2-.4.2-.8.3-1.1.5-.4.1-.7.2-.9.4zM47.2 268.6c0-.1-.1-.2-.2-.3l.2.5v-.2zM102.4 253.8l-.1-.1v.1c0 .1.1 0 .1 0zM56.1 266.8c.2 0 .3 0 .4.1.2.1.3.1.4 0 .2-.2.4-.3.6-.4l-.2-.3c0-.2.1-.3.1-.5h-.2c-.7.1-1.4.3-2 .5.3 0 .6.2.9.6zM57.5 267.4l-.2-.2c0 .1.1.1.2.2-.1 0-.1 0 0 0zM409.4 209.4h-.1c-.7.1-3.9 1.5-4.5 2.6-.1.2-.1.2-.1.3l.1.3v.1c.8.2 3.2 0 3.8-.1 1.5-.3 2.4-.7 2.7-1.1l.3-.6c.1-.3.3-.7.6-1 .1-.1.3-.2.5-.3.1 0 .1-.1.2-.1-.3-.2-1.1-.4-3.5-.1zM40.2 270.6h-.1c-.4 0-.8.2-1.2.4.1 0 .2-.1.4-.1.5-.1.9-.1 1.3-.1.5 0 1 0 1.4-.2.3-.2.7-.4 1-.4 0-.1 0-.1.1-.2-.3 0-.5.1-.8.2-.7.3-1.4.5-2.1.4zM92.8 258.9l-.5.1c.1 0 .3 0 .5-.1-.1.1-.1 0 0 0zM47.1 269.4h-.3l.2.3.1-.3zM92.2 257.6c-.3 0-.7.2-1.6.6l-.3.1c-.3.2-.5.3-.6.4.4 0 .7.1 1 .2.2-.1.3-.1.5-.2l.2.4c.2 0 .5-.1.7-.1-.3-.4-.1-1 .1-1.4zM111.8 249.4l.2-.3-.1.1c0 .1-.1.2-.1.2zM97 255.7h.1s0-.1-.1-.1-.2.1-.3.2c.2-.1.2-.1.3-.1zM95 256.8l-.2.7c-.2.1-.5.1-.7.2l-.5.4c-.1.1-.3.4-.3.6.2 0 .4-.1.6-.1.1 0 .3-.1.4-.1l.5-.6c.1 0 .4 0 .6.1.2 0 .4.1.7.1l-.2-.7c.6-.2 1.2-.1 1.6 0 .3.1.5.1.7.1.2 0 .4-.1.6-.3l-.2-.2v-.1l-.6-.4c-.3.2-.8.3-1 .3-.1 0-.3 0-.3.1.1 0 .2-.2.2-.3h-.1l-.8.5-.2.2-.8-.5zM112.1 249zM134.9 244c0-.1 0-.1 0 0zM63.4 245.9h.4c.2 0 .8-.5 1.2-1.1 0 0-.2 0-.4.1-.2 0-.4.1-.7 0-.5 0-1.2.2-1.7.5-.3.2-.8.2-1.4.2-.2 0-.6 0-.9.1l1.2.6c.7-.4 1.7-.4 2.3-.4zM386.3 169.3h1.9c.9 0 1.8-.1 2.7-.4l-.2-.5c-.3 0-.7-.1-1-.2v-.4c-.3-.1-.9-.3-1.1-.3-.1 0-.2-.1-.3-.1-.4-.1-.9-.2-1.5-.2-.7 0-1.4.2-1.6.3.1-.1.1-.3.1-.4l-.3 1.1h-.1c.4 0 .8.1 1.2.2l.2.9zM364.9 192.6h.2c.4 0 .6 0 .9-.1.7-.4 1.5-.7 2.2-1 .4-.2.8-.3 1.2-.5.1 0 .1-.1.2-.1-.1-.1-.4-.2-.7-.2l-.3-1.2c1.5-.6 2.9-.3 4.3-.1.7.1 1.4.2 2.1.2.7 0 1.4-.4 2.1-.7l.6-.3.6-.3c.1-.1.3-.1.5-.2.1 0 .4-.1.4-.2-.1 0-.2.2-.2.4 0 .1.1.2.1.3l.1-1.2c.5 0 .9-.3 1.4-.6.6-.3 1.2-.7 1.9-.7.4 0 .8-.3 1.3-.6.1 0 .1-.1.2-.1-.8-.1-1.6-.1-2.2 0 0 0-.1 0-.2.1-.6.2-1.8.6-2.1-.3 0-.1 0-.1-.1-.1h-.1c-.2 0-.4 0-.7-.1-.7-.2-1.3-.3-1.7-.2-.6.1-1.1.2-1.6.2h-1.6c-.7 0-1.6.1-2.2.3v.3s0-.1-.1-.1l.1 1.1c-.4.2-1.1.3-1.9-.3-.1 0-.5.1-.6.2h-.1c-.5.2-.8.6-1.1 1.1-.3.4-.6.9-1.1 1.2-.1.1-.2.1-.4.2s-.9.5-1.1.8c.5.8 0 1.5-.4 2l.1.8zm6.7-6.6zM349.5 204.5c-.2.1-.4.2-.6.2l.3.7c-.1.1-.1.2-.1.4.3-.1.8-.1 1.3.2v1c-.6.4-1.2.5-1.8.6-.4.1-.8.1-1.1.3-.6.4-1.3.6-2 .7l.2 1c-.4.1-.9.4-1.3.8.8-.6 1.9-1 2.2-1 1.5-.1 2.5-.2 3.8-.8.3-.1.6-.3.9-.4l1.2-.6c-.3 0-.7-.1-1-.3l-.3-.8c.2-.5 1.3-1.3 1.7-1.2.2 0 .5-.2.8-.3.1 0 .1-.1.2-.1l-.1-.3c.2-.3.5-.6.8-.7-.6.2-1.2 0-1.6-.1-.1 0-.2-.1-.3-.1-.1 0-.1-.1-.2-.1 0 1.1-1.1 1.4-1.7 1.6h-.1l-.3-.4c-.1.1-.2.1-.3.2l-.6-.5zM335 188c.3.3.3.6.3.9v.1c.3 0 .7-.3 1.1-.5.2-.1.5-.3.7-.4.1 0 .3-.1.5-.2 1.4-.5 2.1-.9 2.3-1.1-1.1-.6-4-.4-5.6.1.2.1.4.3.7.5v.6zM293.8 189.3c1-.5 2.1-.6 3.2-.8.3 0 .5-.1.8-.1.8-.1 1.6-.3 2.4-.5.7-.2 1.4-.3 2.2-.4.4-.1.8-.1 1.3-.2.8-.1 1.6-.2 2.3-.4.3-.1.4-.2.6-.2-.1-.1-.3-.2-.4-.3-.2-.2-.4-.5-.5-.7-.1-.2-.2-.4-.4-.5-.5-.5-1.5-.7-3-.6-.6.1-1.2.3-1.8.5-.7.2-1.4.5-2.1.6l-.3-.7c-.4.1-.7.2-1 .5l-1-.7c.1-.1.1-.2.2-.3-.3-.1-.5-.2-.8-.4-.3-.1-.5-.3-.8-.4-.9-.4-2.1-.2-3.3 0-.7.1-1.3.2-1.9.2h-1c-1.5 0-3 0-4.4.3-.4.1-1.3.9-1.3 1.2h.1l.1 1.1c-1 .6-2.2.9-3.3 1.2-1.1.3-2.2.6-3.1 1.2v.1c0 .7-.9 1.1-1.3 1.2H274s-.1.1-.1.2c-.1.2-.3.5-.6.7-.5.3-1 .4-1.5.5l-.3.1-.6.3c-.5.3-1.1.6-1.7.7h.1v.4c.1 0 .3.1.6.2h.2c1.4.4 1.5 1.2 1.4 1.7 0 .2-.2.5-.3.7-.1.1-.2.3-.2.4 1.2.2 2.9-.5 4.2-.9.3-.1.5-.2.8-.3.7-.2 1.5-.2 2.2-.2h1.4c1.2-.2 2-.6 2.9-1.3 1.4-1.1 3-1.6 4.5-2 1.1-.3 2.1-.6 3.1-1.1.7-.4 1.5-.5 2.2-.7.4 0 .9-.1 1.5-.3zM269 193.8c0-.1.1-.1.1-.2s0-.2-.1-.3v.5z"/>
        <path class="st4" d="m275.5 189.4-.2-.4v.2c.1 0 .1.1.2.2zM340.1 206.9v-.2c0-.1-.1-.2-.2-.2.1 0 .3.1.5.1.5.1.9.2 1.1.6.1.1.9.2 1.2.2.5 0 .9.1 1.3.2l.4-.1c.8-.2 1.6-.3 2.3-.7.3-.2.6-.3.9-.3l-.1-.5c.1-.1.1-.2.2-.4l-.6-.2c.1-.4.3-.6.4-.8h-.1c-.1-.1-.2-.1-.3-.2-.2-.1-.4-.2-.5-.3-.2-.2-.4-.4-.5-.6 0 0 .3.1.4 0l-1-.7s.1.1.1.2c-.4-.3-2.2.1-2.4.4v-.1l-.8.9c-.1-.1-.6 0-.7 0l-.1.7c-.7.3-1.6.4-2.4.5-.3 0-.6.1-.9.1l.1.6c.3.1.5 0 .8-.2l.9 1zM343.3 203.1zM414.6 189.2c.5.2.8.3 1.5.2.3 0 .6-.1.9-.2.9-.2 1.8-.3 2.7-.3.6 0 1.3.1 2.1.2 1.1.2 2.2.3 3.1.2 0-.1 0-.2.1-.3-.1-.1-.2-.3-.2-.6 0-.1-.5-.5-.6-.6l-.2-.2c-.7-.6-2.5-.5-3.7-.5h-.8c-.9 0-1.6 0-2.3-.1-.3 0-.6-.2-.9-.3-.3-.1-.6-.2-.9-.2-.2 0-.9.2-1.1.4-.1.2-.1.3-.2.4.2.1.4.2.5.4.4.5.2 1.1 0 1.5zM413.2 189.5c0-.1.1-.2.1-.3l-.1.1c-.1.1-.3.2-.4.3l-.2 1c.1 0 .2-.1.3-.1l.2.3c.1-.1.2-.1.3-.1l.2.3c.4-.1.7 0 1.1.1.1-.1.3-.3.5-.4l.3.5c.2-.1.5 0 .7 0 0-.1 0-.2.1-.2.1-.2.2-.4.5-.5-.2 0-.3.1-.5.1-.3 0-.5.1-.7.1-.6 0-1-.1-1.5-.3-.2-.1-.3-.1-.5-.2l-.4-.7zM413.3 189c0-.1.1-.1.1-.2s.1-.2.2-.4h-.1l-.2.6z"/>
        <path class="st4" d="M384.1 200.6c.2.2.5.3.9.3l-.1-.2c.7-.3 1.4-.2 1.9-.2h.7c.3 0 .8-.1 1.3.3.3.3 1.4.2 2 .2h.4c.2 0 .4 0 .6-.1.8-.1 1.6-.2 2.4.1l1 .3.4.2c.1.1.2.1.3.2.1 0 .2-.1.4-.1-.2-.2-.4-.2-.7-.3-.3-.1-.7-.2-1-.5l.5-1.1c1 .2 1.9.6 2.9 1.1v-.1c1-.8 2.3-.3 3.4 0 .8.3 1.6.6 2 .3l1 .5c0-.1 0-.1-.1-.2.3.2 1.9.1 2.7-.1.2-.1.4-.4.5-.6-.3-.1-.9-.2-1.2-.2l-.3-1.1c.3-.2.6-.3.9-.4.3-.1.5 0 .7.1.5-.4 1.4-1.2 2.2-.5l-.1 1c0 .1.1.1.1.2 0-.1-.1-.1-.2-.2 0 0-.1 0-.1.1l.8.6c0-.1-.1-.2-.2-.3.1 0 .5 0 .6-.1h.3c.6-.1.9.2 1.1.4.2.4.1.8-.1 1.2.1 0 .2-.1.4-.1.3-.1.6-.2 1-.2l.1.5c.1 0 .2.1.3.1l.3.2-.1.4v.1c.4-.1.8-.2 1.1-.1l.2 1.2c-.1.1-.3.1-.4.1.7.3 1.3.8 1.2 1.5 0 .1 0 .2-.1.3l.1.1.1.1c.1-.1.1-.1.2-.1l.1-.1c.3-.3.8-.7 1.6-.4l.2 1c-.1.1-.2.1-.5.2l.1.2-.2.2.1.2-.1.1.3.3h.2l.2-.8c.7-.1 1.3 0 1.8.3l-.3 1.1h.1c-.1 0-.2.1-.4.3.2 0 .3-.1.5-.2l.3.5h.1c.1 0 .2.1.2.1l.7.9c-.1.1-.1.2-.2.4-.1.1-.1.3-.2.5.3.5.2 1.2.1 1.6-.1.3-.2.8 0 .9l-.2 1-.6.3c-.3.2-.7.4-1.3.5-.4.1-.7.2-1 .3h.5c.3 0 .7.1 1 .2.9.2 1.6.4 2 0 .3-.2.5-.4.6-.6.7-.7 1.3-1.2 2.8-.7v.3l.3.3c.1.1.1.2.1.4 1 .2 2.1.5 2.6.9h.1l.1.3v.2c.1 0 .2.1.3.2l-.1.3.1.2h-.1v.7c-.3.1-.6.2-.9.4l-.6.3c-.4.2-.9.1-1.3.1-.3 0-.6-.1-.8 0-.5.1-.9 0-1.2 0-.3-.1-.5-.1-.7 0-.3.1-.5.3-.8.5-.6.4-1.3.8-2.1.8l-.5-1c.2-.2.4-.3.6-.4 0-.3.3-.5.4-.7.1-.1.3-.2.3-.3.1-.2.1-.3.1-.3-1.2-.4-2.4-.5-3.6-.5-.9-.1-5.9 1.3-6.7 2.1l.4.4c.3.2.7.5.8 1 .1.2.3.9-.1 1.4-.4.5-1.1.4-1.7.4-.2 0-.5-.1-.6 0-.6.2-1.2.4-1.8.7l-.1.1c-.3.1-.5.1-1.3-.1-.2 0-.4-.1-.5-.1v.1c-.2.2-.5.5-1.2.5-.2 0-.3 0-.5-.1v.2l.5.5c0 .1-.1.1-.1.2.1 0 .3-.1.5-.2.3-.1.6-.3 1-.3l.5 1c.1 0 .1-.1.1-.1l1.1.4v.2h.1l.8-.5.6.3c.2-.1.6-.3 1-.1l.2 1.1c-.2.2-.5.3-.7.4-.1.1-.2.1-.3.2 0 0 0 .1.1.1h.1l.3.2c.3.2.3.5.4.8l.5.2v.4h.1c.2-.1.4-.1.6-.2l.2.5h.1l.1-.1.9.4c0 .1.3.2.7.3.2.1.5.1.7.2l.1 1c-.7.6-1.5.9-2.5.9 0 .1.1.2.1.3.1.1.2.2.4.2.3 0 .7-.1 1-.4l.9.8c-.1.1-.2.2-.2.3.1.1.2.1.3.2.3.2.5.3.8.4.4.2 1 .1 1.5.1s.9-.1 1.4 0v1.2l.3.3c.6.5 1.6.9 2.4.9h.2c1.3.1 2.3.3 3.6.8.8.4 1.6.7 2.4.7v-.2l.5-.5v-.2h-.2l-.1-.4-.2-.1-.2-.3c-.1-.3 0-.6 0-.7-.1 0-.4-.1-.6-.1-.1 0-.2 0-.3-.1l-.3-.6c-.2-.2-.4-.4-.5-.6l-.1-.3c-.1 0-.1 0-.2.1l-1-.6v-.1c-.9-.5-1.6-1.4-1.9-2.6-.1-.6 0-.9.2-1.1.5-.5 1.3-.3 1.9-.1.2 0 .3.1.4.1 0 0-.1 0-.3.1l1 .6c0 .1.1.1.2.3v-.5l1.2-.4c.4 1 .9 1.7 1.1 1.8l1 .3v.1l.3.1.5-.3c.3.4.4.7.4.9v.1l.5-.3c.1.2.3.3.3.3s.1 0 .1-.1l.2.2.1-.1.1-.1.9.6c.1 0 .2 0 .3-.1h.2l.5-.5c.5-.1.9.2 1.1.4l.1.1v-.2s-.1 0-.1-.1c-.2-.1-.4-.4-.4-.9l.7-.6.1-.6s0-.1.1-.1c.1-.1.1-.2.3-.4 0-.1-.1-.2-.2-.2l.9-.8c.5.4.8.9.9 1.4v-.4h-.1l-.5-.9c.1-.1.2-.3.2-.3v-.2l-.1-.4-.2-.4v.1-.1h-.1l-.6-1c.1-.1.2-.3.3-.3l-.5-.5c0-.1 0-.2.1-.3l-.1-.2-.2.1-.9-.8.1-.1-.1-.1-.3.3-1.1-.4v-.4h-.2v-1.2l-.5-1.1c.1 0 .2-.1.2-.1v-.2c-.4.1-.9.4-1.1.5l-.1.1-.7-1c.2-.2.4-.4.6-.5l-.1-.1h-.1v-.6l-.2-.2.1-.1v.1l.1-.1v-.2l-.1.1v-.1h-.2c-.3 0-.5 0-.9-.1l.1-1.2c.9-.1 1.5 0 2.1.2.2.1.5.1.8.2l.1.9c.4 0 .8-.1 1.2-.2l-.1-.1c-.5-.3-.5-.8-.5-1.1v-.3l.4-.8c.5-.1.8.1 1.1.2l-.1-.7c.4-.2 1-.1 1.5-.1.2 0 .5.1.5.1-.1 0-.3.2-.2.3l.8-.7c.2.1.5.1.7.2l.1.9h-.1l.1.1v.2-.2l.5.5h.1c.1 0 .1 0 .2-.1l.2.9.1-.1c0-.1-.1-.2-.1-.3.1 0 .2.1.3.1.3-.2.7-.4 1-.5.2-.1.5-.3.7-.4l.1-.1.8.9-.2.2c-.2.1-.3.3-.5.4.4-.1.8-.1 1.2-.3.3-.1.6-.3.8-.4.5-.3 1.1-.7 1.9-.7l.3 1.1c-.2.1-.5.2-.9.4-.3.1-.6.2-.8.3l-.1.1c-.1.1-.2.2-.1.3l-.7.7h-.9v.8l.2.4h.2v.4l.1-.1.7 1c-.1 0-.1.1-.2.1h.2c.1 0 .1-.1.1-.1l.7.8v-.1c0-.2-.1-.3-.2-.3.2.1.3.2.4.3l.1-.1c.2-.1.3-.2.4-.3.2-.2.3-.3.3-.4v-.1c-.1-.1-.3-.5 0-.8.1-.2.2-.2.4-.3l.1-.2-.1-.8c.1-.1.3-.1.5-.1.1 0 .2 0 .2-.1l1-.6c.3.4.5.7.7.8l.7.1.6-.8c-.2-.2-.4-.4-.4-.8l.9-.3c-.1-.2-.2-.3-.2-.6l1.1-.4c.1.1.3.1.6 0l-.3-.5c.1 0 .1-.1.2-.1h-.2l-.3-.9c-.2.1-.5.3-.7.5l-.1.1-.4-.5h-.2c.1.1.1.1.2.1h-1.1V214c.2 0 .5-.1.8-.2l-.2-.5c-.1 0-.3.1-.5.1-.6.2-1.2.4-1.7.6-.3.1-.6.2-.8.3l-.8-.8c.2-.3.4-.6.7-.8l-.1-.3c.2-.1.5-.2.7-.2v-.5c.5-.1.9 0 1.3.1.2 0 .4.1.5.1l-.1-.5-.3.1-.1-.4-.9-.3-.1.1c.1.1.2.1.2.1-.1 0-.4.2-.7.5l-.5-.4-.9.4c-.3-.2-.5-.6-.5-.9l-.7.7-.2.2-1-.6c0-.1 0-.2.1-.2-.5.1-.9.1-1.2 0l.2-1.1-.5-.7c-.1 0-.1.1-.2.1-.3.2-.8.5-1.4.4l.1-.8h-.1c-.1 0-.3 0-.3.1l-.2-.7-.2-.3c-.6-.2-1.1-.2-1.7-.1v-.2h-.3l-.4-.8c-.2-.1-.4-.1-.5-.1h-.1v-.2h-.1v-1.2c.6-.1 1.2 0 1.7.1h.1v-.1s.1 0 .1.1l-.1-.2-.3-.3-.1-.1.1-.1-.1-.4c.1 0 .3-.1.4-.1l-.3-.5H434.6l-.6-.5c.1 0 .2-.1.2-.1l-.1-.2h-.3l-.3-1.2c.5-.2 1.1-.4 1.6-.5l-.1-.2c.1-.1.2-.1.3-.1 1.5-.7 3.1-1 4.7-1.1.1 0 .4-.2.6-.3.1-.1.3-.2.4-.2-.6-.2-1.3-.3-1.6-.3l-.9.3c-.5.2-.9.4-1.5.4h-.5c-.1.4-.5.6-1 .6l-.6-.8c-.7.3-1.3.8-1.9 1.2-.6.5-1.3 1-2.1 1.4l-.6-1.1.1-.1-.2-1s0 .1-.1.1l.1-.7c-.4.1-.9.3-1.3.2v-1.2c.1 0 .3 0 .4-.1v-.7c.4-.1.8-.3 1.3-.5.9-.4 1.9-.8 2.8-.6.5.1 1.5-.2 1.6-.5-.2-.3-1.9-.5-2.5-.4-.7.2-1.4.6-2.1 1-.8.5-1.6 1-2.5 1.2l-.1-.5c-.4.3-.8.5-1.4.4v-.8c-.2.1-.3.2-.5.2l-.5-1.1c.2-.1.3-.2.5-.3.1 0 .1-.1.2-.1l-.1-.2c-.1 0-.1.1-.2.1-.1.1-.2.1-.3.3-.1.1-.1.2-.2.3-.4.5-1 .7-1.5.9-.1 0-.2.1-.3.1l-.6-1.1c.1-.1.2-.1.4-.2h-.2l-.2-1c-.5.2-1 .3-1.3.3v-.8c-.1 0-.2 0-.3.1l-.4-1.1c.9-.5 1.9-1 3-1h.7c.6 0 1.1 0 1.5-.3l.1-.1s-.4-.2-.8-.3c-.1 0-.6 0-.7.2l-1-.7c-.1.1 0 .3 0 .3-.3-.3-2-.6-2.7-.6-.9 0-2 .2-3 .5-.2.1-.4.1-.5.2.2 0 .4.1.6.2.2 0 .4.1.5.1.6.1 1.1.2 1.5.3l-.5 1.1c-.5-.1-1-.2-1.3 0l-.1.1-.4-.4-.1-.1c-.3-.1-.6-.1-.9-.2h-.3c-.2 0-.2.1-.2.1l-.4-.2c.4.3.8.7 1 .8l-.1 1.2c-.4.1-.7 0-.9-.2v.3c-.9.1-1.2-.8-1.4-1.2 0-.1 0-.1-.1-.2 0 0-.1 0-.1.1l-.1.6c-.3.1-.6 0-.9 0h-.4l-.6-1c.2-.2.5-.4.7-.5-.2.1-.4.2-.7.3-.1.1-.2.1-.3.1l-.3-.6c-.1 0-.1.1-.1.1v.8c-.6.2-1-.2-1.2-.4l-.2.2c-.8.9-2 1.2-3 1.3l-.2-.5c-.1-.1-.2-.1-.3-.2l.1-1c.1-.1.3-.1.4-.2l-.2-.7c.2-.1.3-.1.5-.2.1-.1.3-.1.4-.2.4-.2.8-.4 1.3-.5.6-.3 1.3-.6 2-.8v-.1c0-.4.2-.7.4-.9h-.1c-.1 0-.3-.1-.4-.1l-.3-1c.5-.6.5-.9.5-.9s-.4-.2-1.3-.1c-.5 0-.9 0-1.3.1-.6 0-1.1 0-1.6.1-.6.1-1.2.2-1.7.4-.2 0-.4.1-.6.1 0 .2-.1.4-.2.6l-1 .1c-.4-.4-1.3-.3-2 0v.1c.4.1.9.2 1.3.4l-.4 1.1c-.3 0-.7-.1-1.1-.1h-.6v1.1c-.8.1-1.5-.2-2.1-.4-.5-.2-1-.4-1.4-.4-.3 0-1.4.6-1.6.8 0 0 .1-.1 0-.3 0-.1-.1-.2-.1-.2l-.2 1.2.2-.2c.1-.2 0-.3 0-.3.2.2.5.1 1 0 .2 0 .3-.1.5-.1l.1.3h.5l.1 1.2h-.1c.1.2.3.4.3.7 0 .2 0 .5-.3.8l-1.1-.4c0-.3-.6-.6-1.6-.7-.4 0-.5 0-.7.2-.3.3-.7.5-1.1.6.1.2.1.3.1.5.3.1.6 0 .8-.1l.9.6c-.1.9-.6 1.3-1.1 1.6-.2.1-.4.3-.5.5 0 0-1.4 1.7-2.5 1.6l-.3-1.1v.1c0 .1.1.2.1.2l.1-.5c-.8-.1-2.3.3-3.1.6-.9.2-1.6.4-2.1.4l-.3-1.1c.5-.3 1-.4 1.5-.4.2 0 .3 0 .4-.1.3 0 .5-.1.8-.2.4-.1.8-.3 1.4-.3h.6c.4 0 .8 0 1.2-.1.1 0 .2-.1.4-.1-.7-.5-1.5-1.1-1.6-2-.1-.5.1-1.1.6-1.6.3-.3.7-.5 1-.7.2-.1.3-.2.4-.2-.4-.5-.4-1 0-1.5.5-.5 1.1-.8 1.7-1 .2-.1.5-.2.7-.3l.7-.3c.8-.4 1.7-.9 2.6-1.2.5-.2 1.1-.4 1.6-.5-1.8 0-3.6.1-5.5.3-1.8.2-3.5.9-5.1 1.6-.5.2-1.1.4-1.6.6-.9.3-1.4.7-1.7 1.1-.4.7-1 .7-1.3.7-.2 0-.2 0-.3.1-.2.1-.5.3-.7.5-.4.3-.8.5-1.2.7-.2.1-.7.4-.8.6l.2.5c-.3.2-.7.4-1 .5-.5.2-.8.3-1 .6-.4.6-.7.9-1.1 1.3l-.1.1c.6.1 1.9.2 4.6.2h.7l.3 1.1v-.3c.1.1.8.3 1.1.3v1.2c-.5 0-1 .1-1.5.2-.8.2-1.7.3-2.6.1l-.7-.1c-.7-.2-1.5-.4-2.3-.5l-.1.4c-.1 0-.1.1-.2.1s-.2.1-.3.1c.1.2.3.5.3.8.2.1.7.2 1 .3.4.1.7.1.9.3v.1c.5-.1 1-.1 1.5 0h.5v-.3c.6-.3 1.5-.3 1.8 0l.1.1c.2-.1.5-.2.7-.3.2-.1.4-.2.6-.2l.5 1.1c-.1 0-.2.1-.3.1 0 .1-.4.3-.6.5zm45.1 18.7v.2-.2zm18.2.2h.1-.1zm-16.9-19.4c0 .2.1.3.2.3l-.2-.1v-.2z"/>
        <path class="st4" d="M156.3 244.1c.3 0 .6.1.9.2.1.1.2.1.3.1h.1c.1 0 .2 0 .4-.1.1 0 .3-.1.5-.2.3-.1.5-.2.7-.3.5-.1.9-.2 1.4-.1.3 0 .6 0 1 .1l.2 1.1c-.2.1-.4.3-.6.4-.3.1-.5.3-.7.5.2.2.5.5.5 1.1 0 .4.2.9.4 1.4l.3.6c.1.4.1.8 0 1.1.1 0 .2 0 .2-.1.9-.2 1.7-.5 2.6-.8.6-.3 1.1-.6 1.5-1l.1-.1h.1c.2-.1.4-.1.6-.1.1-.1.2-.4.5-.5.4-.2.9-.3 1.3-.3h.4c.2 0 .4-.1.6-.2.4-.1.8-.3 1.2-.3h.3c.2 0 .4 0 .6.1.2.1.8.4.9 1 .1.6-.3 1-.6 1.3-.1.1-.2.2-.2.3.2.2.9.7.5 1.4-.2.4-.2.6-.2.7 1.1.9.8 1.7.6 2.4-.1.2-.1.4-.2.6-.1.4-.2.8-.2 1.1-.1.5-.2 1.1-.3 1.6v.6c0 .6-.1 1.4-.5 2l-.1.2c-.1.1-.2.2-.2.3v-.1l-.1.1.1.8c-.2.1-.4.4-.5.9.8.2 1.7.9 2.2 1.3.3.2.5.5.6.8.2.3.2.3.4.3l.6.8c-.3.8-.9 1.2-1.4 1.5-.1.1-.3.2-.4.3l.6.5c-.1.1-.1.2-.1.2v-.1l-.1.1v.9h-.4c-.1 0-.4.1-.8.3l-.3-.5c-.2.4-.5.7-1 1.1l.4 1.1c-.5.3-.9.3-1.3.4-.4.1-.8.1-1.1.4-.3.2-.4.3-.5.4l.1.8c-.4.1-.8 0-1-.1l.4.5-.1.1c-.3.2-.5.3-.5.5h-.4l.2 1c-.2 0-.2.1-.2.3v.1h-1.2s0 .1-.1.1c-.1.2-.1.6-.1 1 0 .1 0 .2.1.3 0 .1.1.3.1.4l.2-.2c.4-.4.8-.7 1.4-1 .1 0 .2-.1.3-.1.3-.1.6-.2.7-.4l.5.3c.1-.1.2-.1.3-.2-.1-.1-.3-.1-.3-.1.2-.1 1.1-.6 1.3-.8l1 .6c-.1.4-.3.7-.5.8 0 0 0-.1.1-.2 0 0-.1 0-.1.1l-.2.7h-.2c-.3 0-.8.2-1.1.5l-.1.1h.4c.3 0 .6 0 .9.1v.1h.1c.3.1.5.3.5.6.1.4 0 .8-.3 1.2h-1c-.1-.2-.2-.4-.2-.6-.2 0-.4.1-.5.2l-1-.2c0-.1-.1-.2-.1-.2s-.1.1-.1.2c.2.3.3.5.3.8 0 .3-.2.5-.4.7.1 0 .1-.1.2-.1l.5 1.1c-.3.2-.6.4-.8.7-.3.3-.6.6-.9.8-.1 0-.1.1-.2.1l.2.2c.5-.2 1-.4 1.6-.6.5-.2.9-.3 1.4-.5l.6.7h.2l.3 1.2v.2c0 .3 0 .7-.3 1.2l-1.1-.2c0-.1 0-.3-.1-.5v-.3c-.2 0-.3.1-.5.2s-1.2.6-1.6.7c-.3.1-.5.3-.7.5l.1.2c.3 0 .6.1.9.1.9.2 1 .1 1.2-.1l1.2.4c-.2 1.4-1.9 1.2-2.7 1.1h-.4c-.4 0-.8.1-1.4.4h.2l.4 1.1c.2 0 .3-.1.4-.1l.4-.1.4 1.1.1.1v.1h.1l.2.1s0-.1-.1-.1c.2 0 .4.1.5.3.1.1.2.3.2.4.8-.2 1.4-.6 2-1.3l1.1.5c-.2.8-.8 1.4-1.5 1.7v.5h.1c.2-.1.4-.2.6-.4.2-.1.4-.3.6-.4.2-.1.2-.2.4-.4.1-.1.2-.3.3-.4.2-.3.4-.4.6-.5.1-.1.2-.1.2-.2l.9.1.2.2-.1.4c-.1.4-.6 1-1.1 1.5h.5l.3 1.2c-.1 0-.2.1-.4.1s-.7.2-.9.3c0 .2-.1.4-.2.6-.2.3-.6.8-1 1.2l.1.1c.3 0 .5 0 .8-.1l.2-.2c.1-.1.3-.3.5-.3.2-.3.4-.5.7-.6.2-.1.3-.1.3-.1s0 .1-.1.1c.1-.1.2-.1.2-.2l.4-.7c.5.1.8.4.8.7.1.6-.4.9-.8 1.2-.1.1-.2.1-.3.2-.1.3-.2.5-.3.6 0 .1-.1.2-.1.2v-.1c-.1-.1-.2-.1-.2-.1l.3.7c.2-.1.5-.2.7-.3.2-.1.5-.2.7-.3l.7 1c-.5.4-.7.9-.7 1 0 0 0-.1-.1-.2h-.1l.4 1c-.1 0-.1.1-.2.1s-.1 0-.2.1c-.2.1-.5.2-.6.2.2 0 .3.1.5.1h.1l108.1-.1.1-1.4V297.1l.1-.2.2-.2h.2c.2-.1.4-.1.7 0h.2c.1 0 .1.1.2.1.3.2.6.5.7 1V298.5l-.3.9c-.1.2-.1.4-.2.5v.1h.2c.6.1 1.5.2 2 .5l.1.1.3.3c.1 0 .3-.1.5-.1.1 0 .2-.1.3-.1.2-.1.5-.2.8-.3.8-.2 1.5.1 2 .3.2.1.5.2.6.2l.2.6.2.4c.1-.1.2-.1.4-.1h.4c.1 0 .1 0 .2.1.3.1.5.2.6.4l.1.1c.1.1.1.1.2.1s.1.1.2.1h.1l.3.5c.4 0 .9-.2 1.3-.4.6-.2 1.1-.4 1.8-.4l.4.6c.1 0 .3.1.9 0 .4 0 1-.1 1.6.2.6.3.8.3 1.2.2.7-.1 1.2-.6 1.8-1.1.8-.7 1.7-1.6 3.1-1.5.3-.4.6-.8 1.1-1.1.6-.4 1-.3 1.2-.2.1 0 .1.1.2.1 0-.3.1-.7.4-.9.3-.2.6-.3 1.1-.2.5.1 1.9.6 2.5 1.1.1 0 .3 0 .4-.1h.2c.4-.1.7 0 1 .1.1 0 .2.1.3.1.2 0 .4 0 .5.1.5 0 1 .1 1.4.5.4.4.3 1 .3 1.4 0 .2-.1.4-.1.7-.1.5-.2 1 0 1.2.4.4 1.2.2 1.9.1.6-.1 1.1-.2 1.6-.1l.4.9c-.1.2-.3.4-.5.7-.2.2-.6.7-.6.9l.2.2c.4.4.9 1 .1 2l-.3.3-.1.1c.4.2.9.5.8 1.1l-.7.5h.1c0 .2-.1.3-.2.4.5 0 .9.2 1.1.6 0 .1.1.3 0 .4h.1c.3 0 .7.1 1.1.2.5.3 1.2.4 2.1.4h.8c.7 0 1.4-.1 2.2.1.1 0 .3 0 .4.1.4 0 .9.1 1.3.3.1 0 .2-.1.3-.1l.1.3c.2 0 .5.1.6.4.3 0 .5 0 .6-.1l.9.8c0-.1 0-.2-.1-.3-.1-.2-.3-.2-.4-.2h.2c.3 0 .6-.1.9 0 .6.2 1 .6 1 1.1v.8l.6.3c0 .2-.1.4-.1.6v.2l.9.1c.2.5-.1.9-.3 1.1.1.3.1.6-.1.8.1.2.3.5.3.8l.5.4c-.4 1.1-1.4.7-1.8.6v.2c-.1.5-.2 1.3-1.3 1.5-.8.2-1.3-.3-1.8-.7-.5-.4-.6-.4-.8-.2l-1-.7c.1-.1.1-.3.2-.4l-.2-.3c-.2.9-.8 1.8-1.6 2.4-1.2.9-2.1 2-2.6 3.4-.8 2.1-2.2 3-4.1 3.7-.1 0-.3.2-.4.3-.3.7-.7 1.4-1.3 1.8.1.2.2.5.1.8.3-.1.6-.2.9-.2.4 0 .8-.4 1.3-.7.2-.2.5-.4.8-.6 1.4-.8 2.8-.6 4.1-.3.2 0 .5.1.7.1 1.1-1 2.5-1.3 3.8-1.5.5-.1.9 0 1.4 0h1c0-.2 0-.5.1-.7-1.1.2-1.9.2-2.2-.4-.3-.6.3-1.2.5-1.5 1.1-1.1 2.6-2 3.9-2.3 1.1-.3 2.1-.4 3.2-.5l2.1-.3h1.3l-.2-.5.3-.1c.4-.1.8-.3 1.3-.3.5-.1 1.2-.1 1.5.2h.1c.2-.1.5-.2.7-.3.2 0 .4-.1.6-.1.3-.1.7-.1 1-.3l.7-.3c.9-.4 1.7-.7 2.5-1.2.7-.4 1.9-1 3.1-1.5.1 0 .2-.1.3-.1.5-.2 1-.3 1.3-.4H366.5s0-.1.1-.1c.2-.4.5-.9.9-1.1.3-.2.7-.2 1-.3.2 0 .4-.1.6-.2l.5.1.3-.3c.1-.1.2-.1.2-.1.2-.3.6-.7 1-1 .4-.4.9-.6.9-.7.4-.2.7-.6.9-1.1.2-.7 1-1.4 1.7-1.9.2-.1.3-.4.5-.7.1-.3.3-.6.5-.9.5-.6 1.1-1 1.7-1.4.2-.2.5-.3.7-.5.1 0 .1-.1.2-.1l.3-.3c.8-.7 1.4-1.3 2-1.5.1 0 .1 0 .2-.1H381c.1 0 .2 0 .3.1.4.2.6.6.5 1.2.2 0 .7-.1 1.6-.5.2-.1.3-.1.4-.1 1-.3 1.5.1 1.8.4.8 1 .4 2.8.1 3.4-.1.3-.3.7-.4 1.1-.2.6-.5 1.2-.7 1.8-.1.1-.2.4-.3.6-.1.3-.5.9-.5 1.2 0 0 .1 0 .1.1.2 0 .5.1.7.5.1.1.1.3.1.4 0 .1 0 .3-.1.4 0 .1 0 .1-.1.2l-.1.3c-.1.1-.1.2-.1.3.2-.1.4-.1.7.1.1 0 .1.1.2.2h.1c.4.1.5.4.6.5 0 0 0 .1.1.1 0 0 .2-.1.3-.2.3-.2.8-.4 1.3-.2.1 0 .1-.1.2-.1.2-.1.5-.3.7-.3l.1-.6c.3-.1.6-.3.8-.5l1 .7c0 .1-.1.2-.1.3.4-.1.9-.4 1.7-.8.2-.1.4-.2.5-.3.3-.2.7-.3 1.1-.4.4-.1.9-.2 1.1-.4.8-.7.8-.7.9-1.6h1.2c0 .2.1.4.1.6.2-.1.4-.1.6-.1l.2 1.2c-.4.2-.9.5-1.3.8-.1 0-.1.1-.2.1.3 0 .5 0 .7.1h.3c1 .1 2-.1 3.1.2l.2 1.1c-.4.3-1.1.3-1.7.4-.6.1-1.5.2-1.7.4 0 .1-.1.2 0 .3l-.6.8c-.6 0-.7-.6-.8-.7v-.1c0 .1.1.1.2.2v-.2l-.3-.3c-.7.3-1.4.5-2.1.7-1.1.3-2.1.6-2.9 1.2l.2.4c-.1 0-.2.1-.3.2-.4.3-.9.6-1.4.4v.2c-1.4 1-2.3 2.1-2.4 2.8v.1l.9.1c.1.2.1.4.1.7v.3h.4c.1 0 .1-.1.2-.1.2-.2.2-.2.2-.3l.6-.4.1-.2h.4l.8.1s-.2-.1-.3-.1c.2-.1.7-.6.9-.8l.3-.3c.2-.1.5-.3.8-.5.4-.2 1.2-.7 1.3-1l.7-.5c.3-.5.8-1.2 1.3-1.2.3-.4.8-.5 1.1-.6l.7 1v-.2c0 .1.1.1.2.1 0-.1 0-.2-.1-.3l1.1-.4c.2.1.7-.1.9-.2.3-.1.7-.2 1-.2 1 0 2.2-.6 3.1-1.1 1-.5 2.4-1.1 3.6-1.2H407.6l-.2-.2.5-.9v-.1c-.5.4-1 .4-1.4 0-.2-.2-.3-.4-.4-.6-1 .6-2.2.9-3.2.9l-.4-.7h-.8c-.4 0-.7-.2-1-.3-.1-.1-.2-.1-.3-.2l-.4-.1c-.7-.1-1.3-.2-2.1-1l.2-.7c-.2 0-.5-.1-.7-.1-.9-.1-1.1-.6-1.1-1 0 0 0 .2.2.3.1 0 .1.1.2.1l-.4-1.1c.1-.1 0-.8 0-1.2-.1-.5-.1-1 0-1.4-.3.1-.8.1-1.2 0V308c1-.3 1.5-1 2.2-1.7.2-.3.5-.5.8-.8-.1 0-.3.1-.5.1-.8.2-1.4.5-2 .8l-.9-.5c0-.8 0-.8-.8-1.1l-.2-.1c-.1 0-.2-.1-.3-.1-.3-.1-.4-.2-.7-.1-.1 0-.2.1-.3.1-.3.1-.7.2-1.2.1l.1-1.2c.2 0 .5-.1.7-.2.4-.2.9-.4 1.4-.3.2 0 .5 0 .7-.1.4-.1.7-.1 1.1-.1.5.1.9.3 1.2.4.6.3.9.4 1.2.2.4-.2.8-.4 1.1-.6 1-.5 1.9-1 3-1.4.2-.1.4-.3.4-.5l-.1-.1v-1.2c-.1 0-.3.2-.3.4 0 .3.1.5.2.5-.6-.3-.5-.6-.5-.8.1-.4.4-.5.7-.5-.6-.4-1.6-.7-2.1-.8-1.4-.2-2.9 0-3.9.2-1.1.2-2.1.6-3.1 1l-.9.3c-.6.2-1.3.4-1.9.5-.7.1-1.4.3-2.1.6-2.9 1.2-6.1 2.7-8.3 4.7-1.4 1.3-3 2.4-4.1 3.1-1.1.7-2.3 1.1-3.5 1.5-.4.1-.7.2-1.1.4l-.5-1.1c.3-.2.6-.3.8-.5.6-.4 1.2-.7 1.7-1.1.2-.2.5-.4.8-.7.5-.5 1-1 1.6-1.2 1.6-.7 2.9-1.7 3.9-3.1l.4-.5.2.1s.1 0 .1.1c.2-.1.6-.4.8-.5.1-.1.2-.2.3-.2.4-.3.8-.7 1.2-1.1.6-.6 1.3-1.2 2.2-1.6l.3-.1c1.5-.6 1.8-1 1.8-1.1l.7-.1c.3-.6 1.3-.8 2.8-.9h.1c.8-.1 1.3-.3 1.7-.8.9-1.1 2.6-3.3 4.3-3.4 0 0 0-.1.1-.1.3-.5 1-.3 1.5-.2.1 0 .2 0 .3.1.8-.3 1.7-.4 2.5-.4h.7c.8-.1 1.6 0 2.4.1 1 .1 2 .2 2.8 0 .6-.2 1.2 0 1.7.1.4.1.7.2 1 .1.9-.3 1.7-.4 2.8-.3.5 0 .9.1 1.4.2.4.1.9.1 1.3.1s.6.3.8.4c.1 0 .2-.1.3-.1l.2.3c.3 0 .6-.1.8-.2.8-.2 1.7-.3 2.6-.3.2 0 .4 0 .6-.1.3-.1.7-.1 1.1-.1.4.1.7.1 1 0 .1 0 .2-.2.4-.3.2-.2.5-.6 1-.7h.3c.1 0 .2 0 .3-.1.4-.6 1.1-.9 1.7-1.2.4-.2.7-.4 1-.6l.3.1c.1-.1.1-.2.1-.3.1-.5.4-.6.7-.7l.2-.1c.2-.1.5-.3.8-.4 0-.3.1-.5.3-.6.6-.4 1.2-.4 1.8-.3.3 0 .6.1.7 0 .3-.1.7-.2 1-.4.4-.2.8-.4 1.3-.5.5-.1 1 0 1.4.1.4.1.7.1 1 .1.4-.1.8-.4 1.2-.7.4-.2.7-.5 1.1-.7l.6-.2c.7-.3 1.3-.6 1.9-1l.1-.1c.2-.1.4-.3.6-.4v-.1c-.2-.1-.4-.2-.5-.3l-.3-.2.3-.6h-.4c-.3 0-.5-.1-.7-.1l.2-1.2c.2 0 .4 0 .6.1.2 0 .6.1.8.1-.1-.2-.1-.3-.1-.4l.6-.7.2-1.2h.2c.6 0 .9 0 1.1-.3v-.2l.1.1-.8-.8s-.1 0-.1-.1v-.1c-.6-.1-1.2-.3-1.6-.6l.1-.1h-.4c-.1.1-.3.2-.4.3-.3.3-.8.8-1.6.8l-1.3-.9H437.7l-.3-1.1c.4-.3.8-.4 1.2-.6.2-.1.3-.1.4-.2-.1-.2-.1-.4-.1-.6v-.3h-1.2v.4c-.4.2-.9.2-1.3.2h-.6c-.5.1-1.1.3-1.8.5-.2.1-.5.3-.8.5-.6.4-1.1.8-1.7.8-.1 0-.3.1-.6.2l-.6.3c-.3.1-.5.1-.8.1-.2 0-.5 0-.6.1-.6.7-2.1 1.5-3.1 1.1l.1-.8v-.4c.1-.3.3-.4.6-.6-.1-.1-.3-.1-.4-.1-.1 0-.2 0-.3-.1-.4-.1-.9-.2-1.1-.6-.1-.3-.1-.7.2-1h1c.2.2 1.1.8 1.5.9.2-.1.4-.2.6-.4.4-.3 1-.8 1.9-.8h.5c-.1-.1-.2-.3-.2-.5l.7-.7c1 .2 1.9-.1 2.9-.4.6-.2 1.1-.3 1.7-.4.2 0 .4-.1.7-.3.3-.2.7-.4 1.1-.4h1.2l-.1-.2h.1c-.1 0-.2-.1-.3-.2-.1 0-.2-.1-.4-.1h-.2c-.3-.1-.8-.1-1.1-.1-.3 0-.7-.2-1-.3-.2-.1-.5-.2-.6-.2h-.1l-.2-.8c-.3.2-.6.3-1.1.4l-.1-.3c-.1.1-.2.1-.2.2-.7.6-1.4 1.3-2.4 1.2l-.2-1.2c.2-.1.4-.3.6-.5l.3-.3s-.1 0-.1-.1c-.4.2-.7.4-1.1.6l-.5-.6c-.2.1-.5.3-.7.4-.1.1-.2.2-.3.2l-.8-.9c.3-.4.6-.6 1-.8l-.1-.1c.3-.3.6-.5 1-.7.1 0 .2-.1.3-.1l-.2-.4c.1 0 .1-.1.2-.1v-.1l-.1-.2c-.3.1-.6.1-.8 0l.1-.5c-.4 0-.8-.1-1.1-.3v-.3c-.3-.1-.6-.3-.7-.6v-.4c-.6 0-1.2-.2-1.6-.7l.3-.6c-.1 0-.1-.1-.2-.1v-1s.1 0 .1-.1c-.4-.2-.7-.5-1-.9l.6-.9h.6c.4 0 .8 0 1.2.1v.6c.4-.5 1.2-1 2-1.1-.3 0-.7-.1-1-.4l.1-.6c-.1 0-.3-.1-.4-.1-.5-.1-.9-.2-1.1-.4l.8-.9c.2 0 .9-.2 1.3-.4-.1-.1-.1-.3-.1-.6l-.5-.3h-.2c.1 0 .1.1.1.1h-.4l-.3-.9h-.1l-.2.1c-.5.3-1.3.8-2 .5l-.2-1.1c.5-.4 1.2-.6 1.7-.7h.1c.1 0 .2-.1.3-.1l-.1-.2c-.2 0-.5.1-.7.2-.5.2-.7.2-.9.2l-.1-1.2c.1 0 .3-.1.4-.2l-.1-.3c.1 0 .4-.1.6-.1.4 0 1.4-.2 1.6-.4v-.1c-.2 0-.4.1-.7 0l.1-1c-.8 0-1.1.2-1.3.3l-1-.2c-.1-.3-.1-.5-.1-.7l.6-.6h.1c.5 0 .9-.1 1.2-.2l-.3-.2H426.5V248h.4l-.1-.1-.1-.1v.1c-.2-.1-.3-.2-.4-.3-.1-.2-.2-.4-.2-.8h-.1l-.3-.5c-.2 0-.4.1-.6.1l-.1-.5-.2.2-.1.1c-.5.4-.7.6-.7.6.1-.1 0-.3-.1-.4l-.4 1.1h-.2c-.7-.1-.8-.1-.9.1.1 0 .1.1.2.1.3.2.6.4.7.9l-1 .6c-.1-.1-.3-.2-.5-.2 0 .1-.1.3-.2.4-.1.1-.2.2-.4.2 0 .1-.1.1-.2.2 0 0 .1 0 .1.1l-.5 1.1h-1c-.1 0-.6.3-.7.4l.1.5c-.2.1-.3.1-.5.1.1.2.1.3 0 .5-.2.8-1.2 1.6-1.8 1.8l-.8-.9c.1-.1.1-.3.3-.4.1-.2.5-.8.5-1h-.2c-.1 0-.5.5-.6.7-.1.2-.2.3-.3.4-.4.4-.9.4-1.1.4h-.3c-.3.1-.6.2-1 .4-.2.1-.5.2-.7.3-1.1.4-1.7.8-2.5 1.8l-1-.6s0-.1.1-.1c-.1 0-.2 0-.3.1l-.3-.6c-.5.5-1.1.9-1.9 1.2-.3.1-.6.2-.9.2-.8.2-1.6.4-2.4.7l-.3-.9c.7-.5 1.6-.7 2.4-1 1-.3 2-.6 2.6-1.1l.1-.1c.3-.3.5-.7.5-1.2.1-.6 0-.8 0-.8-.1-.1-.7-.1-1.1-.1h-.2c-.5 0-1 .3-1.5.6-.6.3-1.2.7-2 .8l-.2-.5c-.2 0-.3-.1-.4-.2-.1-.1-.2-.1-.3-.1l.1-1.2c.5 0 1-.1 1.2-.3 0 0 .1-.1.1-.2l.8-.7c.4.1.6.3.7.6.3-.2.4-.4.4-.4v.3s0 .1.1.1c0 0 0-.1.1-.1l-.2-.8h.1v-.9l-.1.1v-.3c.1-.5.6-.7.9-.8.1-.2.2-.5.2-.7-.2 0-.5-.1-1 0h-.1c-.8 0-1.5-.1-2.1-.3l-.6-.1v-1.2c.5-.1 1.1 0 1.5.1.3.1.6.1.8.1H407.6l-.2.2c.1 0 .2 0 .4.1l.2-.4c.3 0 .5-.1.8-1.1.2-.5.4-1 .7-1.4-.2 0-.4-.1-.6-.2v-.7h-.6c-.4 0-.5 0-.7-.1-.3-.2-.7-.3-1.2-.3h-.3c-.2 0-.6.1-.9-.2l-.1-.1c-.1 0-.2 0-.3-.1-.5-.2-.7-.8-.7-1.3l.3-.3-.1-.6-.2-.5c0 .1.1.1.1.1v-.1l-.2-.4c-.6-.1-.7-.1-1.4.1l-.5-1.1h.1c.2-.1.3-.2.4-.2l-.5-.5c-.1-.1-.2-.3-.3-.3l-.4-.2c-.7-.3-.9-.4-1.6-.1-.1 0-.4.1-.7.2-.5.1-1.7.4-1.9.6.1-.1.1-.3 0-.4l-.9.8c-.9-.8-1.8-.9-3.4-.2l-.5-.7c-.5-.1-1.1-.3-1.6-.5-.4-.2-.9-.3-1.3-.5-.9-.2-1.4 0-2.3.3-.2.1-.4.2-.6.2-1 .4-1.5.6-2 1.5-.1.2-.1.4-.1.7.1.3.3.5.6.6h.1l-.5 1.1h.1c-.2 0-.7.5-1.2 1.3-.4.5-.9.8-1.3 1l.4 1c-.2.1-.3.2-.5.3-.1 0-.1.1-.1.1l.1.9c-.1.1-.3.1-.5.2-.1 0-.3.1-.4.1.1.2.2.5.2.9v.1c.1 0 .1.1.2.2l-.2 1s-.2.2-.2.3c-.2.3-.5.7-1 .8-.2 0-.3 0-.3.1l.1-.1-.8.7c-.1 0-.2-.1-.3-.1-.1.2-.3.3-.5.5-.1.1-.3.2-.3.3 0 0 .1-.2 0-.4s-.2-.3-.3-.3l.2 1.2c-.7.1-1.2.5-1.7 1-.5.4-1.1.8-1.7 1-.5.2-.6.3-.7.6 0 .1-.1.1-.1.2.4.3.6.7.8.9.1.1.2.2.5.4.1.1.3.2.4.2 1.4 1 1.4 2.9 1.4 3.5-.1 3.2-2.2 6.1-4.2 7.7-2.1 1.7-4.7 3.2-8.1 4.6-1.1.5-2.8 1.1-4.3 1.4-.2.1-.5.1-.8.1-.5.1-1 .1-1.4.3.1.4-.1.8-.2 1.1l-.1.1v.1c0 .1.1.2.1.4.1 0 .1.1.2.1v.6s.1 0 .1.1l-.1 1.1-.1.1v-.2l-.3 1.1h-.1v.3c.2.4-.2.8-.5.9-.1.1-.2.1-.2.2.1.7-.4 1.4-.8 1.9v.1l-.1-.1.1.1v.4s.1-.1.1-.3l.4.6c-.1.3-.3.6-.6.7v.3c.2.3.3.8.1 1.2-.1.2-.3.4-.4.6v-.3c-.1-.2-.2-.3-.2-.3l-.1 1.2c-.3 0-.6.3-.9.6-.3.3-.6.6-1 .7-.1.4-.4.7-.8.9v.5s-.1-.2-.3-.2v1.2c-.2 0-.8.6-.8.8l-.8.8c-.7-.3-.6-1.2-.5-1.6v-.2h-.1c-.1-.1-.3-.1-.4-.3-.4.2-.9.7-1.4 1.4-.2.3-.2.4 0 .8s.4 1 .1 1.7l-1.2-.2c0-.6-.3-1.3-.8-1.8-.2-.2-.6-.5-1.1-.4-.4.1-.8.3-1.2.6-.6.4-1.3.9-2.1.8l-.3-1.1c.3-.2.7-.4 1.1-.6 1.5-.7 2.2-1.2 2-2.3-.1-.4-.4-.6-.8-1-.2-.2-.4-.3-.6-.5-.5-.5-.5-.5-1.3-.2l-.7-1c.4-.4.8-.5 1.2-.6.2 0 .3-.1.4-.1 0 0 0-.3-.4-.9-.2-.4-.4-.7-.6-1-.1-.1-.2-.3-.3-.4l-.2-.3.2-.3c.3-.4.6-.7.9-1 .3-.3.6-.5.8-.8.2-.3.3-.5.4-.8.2-.4.4-.8.7-1.2.2-.3.2-.5.2-.9s-.1-.9.2-1.4c.3-.7.9-1.2 1.5-1.7.2-.2.5-.4.7-.7.2-.2.3-.4.4-.7 0-.1.1-.2.1-.3h-.1c-.1 0-.1-.1-.2-.1-.2 0-.8.1-.9.2l-.3-.4c-.1-.1-.5 0-.7 0h-.8c-.1 0-.3-.1-.5-.2h-.1l-.3.3c-.4-.1-.6-.3-.8-.4-.2-.1-.2-.1-.5 0-.5.1-1.1.1-1.7.2h-.5c-.3 0-.7 0-.9-.1-.4-.1-.7-.1-1 .1l-.9.6c-.3.2-.5.4-.8.5l-.8-.9c.3-.4.7-.7 1.1-.9.2-.1.3-.2.5-.3-.2-.2-.4-.4-.5-.6-.1-.1-.1-.2-.2-.3-.2-.3-.7-.4-1.1-.5-.2 0-.4-.1-.6-.2-.2-.1-.5-.2-.9-.4-.6-.2-2.1-.9-2.5-.8l-.8-.9c.4-.5.2-.8-.9-1.8l-.4-.4c-.2-.2-.3-.3-.4-.5-.2-.3-.3-.4-.6-.4-.3-.1-.6-.1-.9-.2-.3-.1-.7-.1-1-.2-.7-.2-1.3-.4-1.8-.7-1.1-.4-2-.8-3.2-.6-.8.1-1.5.4-2.3.6-.9.3-1.9.6-3 .7v-.2c-.5.2-1 .4-1.7.4l-.1-1.2c1.6-.4 2.7-1.4 2.9-2.6l.2-.8c.3-1.3.6-2.8 1.2-4-.2 0-.4-.1-.6-.2-.3-.2-1-.1-1.4 0-.3 0-.5.1-.7.2l-.1-.1c-.6.2-1.1-.3-1.2-.5l-.1-.1s.2.1.3 0l-.5-.8c-.1 0-.1 0-.2-.1l-.1-1.2c.2-.1.3-.1.5-.1h.2c.4-.5.7-.8 1.2-1.1.2-.1.3-.4.4-.7.1-.4.3-.8.6-1.1l.3-.3c2-1.8 2.3-2.5 2.4-2.7 0 0 0 .2.1.2l.3-.4v.1l.5-.6h-.1v-.1h.1l.2-.3c.5.2 1.2-.5 1.9-1.1.6-.5 1.2-1.1 1.8-1.2.1-.1.4-.3.5-.5 0-.2.1-.4.2-.5.2-.2.4-.3.7-.3v-.1c.3-.7 1.2-1 2.2-1.2.3-.1.7-.2 1-.3-.1-.2-.1-.4-.1-.7l.7-.5c.1 0 .3.1.5.1.1 0 .2.1.3.1l.9-.5.1.1s.1-.1.1-.2c.2-.2.4-.5.7-.6.2-.1.3-.1.3-.1l.1-.6c.2 0 .7 0 1.1.2v-.2c.1 0 .4-.3.6-.4.5-.4 1.1-.7 1.5-.5h.1s.1 0 .2-.1c-.1-.1-.1-.3-.1-.5.1-.6.9-.7 1.2-.7 1-.1 1.7 0 2.7.1.4.1.7-.1 1.1-.2.1-.1.3-.1.5-.2.3-.1.6-.1.9-.1.3 0 .4 0 .6-.1.3-.2.6-.4.7-.7v-.1s-.1-.1-.1-.2c-.3 0-.6-.1-.9-.3-.3-.2-.4-.4-.5-.6-.1-.1-.1-.2-.2-.2-.2 0-1.1.3-1.4.4l-.1-.4-.9-.3c-.6-.2-1.3-.3-1.8-.6-.1.1-.3.2-.5.2-.6.1-1.3-.2-1.5-.7-.2-.4-.1-.8.2-1 .2-.2.4-.3.6-.3l1.2-.3c.1.1.1.2.1.4.4.7 2.2.9 3.4 1.1.6.1 1.1.1 1.5.3.1 0 .1 0 .3.1 2 .7 2.5.6 2.6.6-.1 0-.1.1-.1.2l.7-.7c.2 0 .5.1.7.2.2.1.4.1.5.1.1 0 .2-.1.3-.2.2-.1.3-.3.5-.3 0 0 0-.1.1-.2.1-.3.4-.7.9-.8h.2l.1-.5c.2-.2.5-.2.7-.2h.2l.3.4.1-.1c.2.1.3.2.5.3h1.9c0 .2.1.2.1.2.7.3 3-.7 4.1-1.3l.9-.6c.8-.6 1.7-1.2 2.6-1.4.7-.2 1.6-.7 2.1-1.2-.2 0-.6-.1-1.3-.1-1.1 0-2.1-.1-3.1-.2l-.8-.1c-.7-.1-1.4-1.3-1.4-1.3-.3-.6-.6-.8-1.3-.9-.2 0-.4-.1-.6-.1-.5-.1-1.1-.3-1.5-.2-.4.5-1 .3-1.5.1l-.3-1c.7-.8 1.9-.6 2.9-.4.4.1.8.2 1.1.1v.2c.1 0 .3 0 .7.1h.4l.1-.5c.9 0 1.8.4 2.5.7.6.3 1.2.6 1.8.6v.8c.4.4.6.5 1.1.5 1.2 0 1.9-.1 2.8-.6.5-.3 1-.5 1.5-.7.6-.2 1.1-.4 1.6-.8s1.1-.6 1.7-.8c.1 0 .1 0 .2-.1-.4-.1-1-.4-1.1-1l.5-.6v.1l.8-.7c.6.2 2.4.2 3 0 .6-.2 1.2-.3 1.6 0 .3.3.3.7.2 1.1.4.1.7.2 1.1.3h.1c0-.1.1-.2.1-.3.2-.3.6-.5 1-.4l.4.4c.1 0 .2 0 .4.1.1 0 .1.1.2.1.1.1.3.1.4.1.1-.1-.1-.5-.2-.7v-.3c-.1-.1-.2-.2-.2-.3v-.2c-.1 0-.1 0-.2-.1v-.2c-.1-.1-.2-.1-.3-.2 0 0-.1 0-.2.1-.3.1-.7.3-1.2.2l-.3-1.1c.5-.4 1.2-.7 1.9-.7.3-.1.8-.1 1.7 0v.3c.2.1.3.3.4.5.1-.1.2-.1.3-.2l.9.9c-.3.3-.5.6-.7.8.1.1.3.3.3.5 1.4-.2 3.1-1 4.1-1.4.3-.1.5-.2.7-.2.3-.1.4-.1.7-.3.7-.5 1.2-.9 2.2-.9.5 0 1.8-.6 2.1-1.3.1-.3.1-.4 0-.4-.1-.2-.2-.4-.3-.5-.3-.4-.7-.9-.5-1.5 0-.2.1-.3.2-.4v-.7l-.1-1.1s1.9-.8 2.4-.4c0 0 .1 0 .1.1.1-.1.3-.1.5-.2.3-.1.5-.1.8-.2.4-.1.7-.1.9-.2h-1l-.3-1.2c.2-.1.5-.1.9-.2.3 0 .9-.1 1.4-.3-.1 0-.2 0-.2-.1-.1 0-.2 0-.4.1s-.5.1-.7.1l-.1-.9h-.1c0 .1 0 .2.1.3-.1-.1-.2-.2-.2-.3-.3-.1-.6-.1-1-.2-.3 0-.6-.1-.9-.2l.1-.8c-.3 0-.6-.1-.9-.1h-.1v-.1c-.5-.1-1-.2-1.6-.4-.4-.1-.9 0-1.4.1-.3.1-.5.1-.7.2-.4.1-.8 0-1-.1h-.2l-.1.1c-.1 0-.2.2-.3.2v-.1l-.5.9s-.1.1-.2.1l-.1.2v.1l.1-.2.1.2c-.1 0-.2.1-.3.1v.1l.2.5h.3c-.1-.2-.2-.3-.2-.3.1 0 .2.1.3.1.2.1.5.2.8.3l-.3 1.1h-.6v.3c-.2.1-.5.1-.7 0l.3.4c-.7.7-1.6.7-2.3.6-.8-.1-1.1-.1-1.4.5-1 1.6-2.7 2.3-4.2 3l-.6.3c-.1.1-.6.5-.9.8-1.2 1.1-1.8 1.7-2.4 1.3-.1-.1-.1-.1-.6.2-.2.2-.5.3-.8.5-.1 0-.2.1-.2.1-.6.3-1.5.6-2 .1l.1-1c.2-.1.2-.2.2-.2 0-.1-.2-.5-.3-.6-.2-.3-.4-.6-.5-.9-.4-1.6 1.5-3.1 2.5-3.5l.3.4c.6 0 1-.5 1.5-1.5.1-.2-.3-.8-1.3-1.5-.3-.2-.8.1-1.5.5-.3.2-.6.3-.9.5-.2.1-.3.3-.6.6-.1.1-.1.2-.2.3-.3.4-.8.5-1.1.6h-.1v.1c-.1.5-.6.7-1 .9-.1 0-.2.1-.3.1l-.2.1c-.4.3-1 .6-1.6.6l-.4-.8v-.2l-.2-.9c.2-.1.3-.3.5-.4l.2-.2.3-.3c.1-.1.4-.3.5-.4 0 .1-.1.3 0 .5s.3.3.4.3l-.3-1.2h.1c0-.1-.4-.8-.7-1l.3-1.1c-.4.2-.8.3-1.3.2-.4-.1-.7-.4-.8-.5l-.2-.2h-.5c-.2 0-.4.1-.7 0l-.2-1.2h.1v-.2c.4-.1.9-.3 1.3-.5.4-.1.8-.3 1.2-.4l-.3-.4c.8-.8 1.8-.8 2.7-.7v-.4c0 .1.1.2.1.2v-.1l-.2-1v.2c0 .1 0 .2.1.2h-.1l-.4-.5h-.2v-1.3c.4 0 1-.7 1.3-1.3.1-.2.2-.4-.6-.9l-.1-.5c-.4 0-.8.1-1.2.3l-.2-.4-.1-.2-.1-.2c-.4.1-.8.1-1.1.2h-.4c-.2 0-.3.1-.5.2s-.3.2-.5.2c-.4.1-.8.2-1.2.2h-.1l.1.6c-.1 0-.3.2-.4.3-.4.3-.8.7-1.4.6-.4-.1-.6-.3-.7-.4l-.1-.1c-.8.1-1.3.4-1.9.9-.2.2-.4.3-.7.5-.2.1-.6.3-.8.5.2 0 .4-.1.7-.2l.5 1.1-.6.3-.1.4c-.9-.1-1.8.2-2.6.8-.3.2-.5.4-.6.6l.2.6H353.6c.4 0 .7.3.9.5l.1.1c.1 0 .2 0 .3.1.7.2.8.2.9 0h1c.1.1.2.3.3.4.2.3.2.3.3.4.3 0 .6 0 .9-.1.3-.1.6-.2 1-.2l.6.6c0 .3-.1.7-.3.9l.1.3c-.4.2-.9.4-1.3.5l-.9.3-.1-.1c.1.2.2.5.1.7-.1.5-.6.9-1.1 1.2l.1.5c-.1 0-.3.1-.4.1-1 .2-2 .7-2.9 1.2-.3.2-.6.3-1 .4-1.5.7-2.6.8-4.2.9-.3 0-1.4.6-1.8.9.3.5.2.9-.2 1.3l-.1.1v-.1l-.4 1c-.3 0-.5.3-.8.6-.4.4-.9 1-1.7 1-.2 0-.3 0-.7-.1h-.6l.3.8c-.3.3-.8.6-1.3.8l-.5-1.1c.1 0 .1-.1.1-.1 0-.1-.2-.4-.4-.6-.1-.2-.2-.3-.3-.5l.1-.7c.6-.5 1.1-.2 1.4-.1.1 0 .1.1.2.1l.2.2h1.3l-.2-.2c-.3.1-.5.2-.8.3l-.7-.6c0-.3.1-.6.3-.8l.1-.9c.4-.3.7-.4 1-.6.3-.2.6-.3.9-.6h-.3l-.4-1h-.1l.1-1.2s-.1.1-.1.2c-.1.1 0 .3 0 .3 0-.1-.2-.2-.4-.3-.1-.1-.7-.2-.9-.2-.1 0-.2.2-.2.2-.2.3-.6.6-1.1.7-.4.1-.8 0-1.2-.1v.4c.6-.2 1.3-.2 1.8.1.5.3 1 .9.5 1.6 0 0 0-.2-.1-.4l-.5 1c-.2 0-.5.1-.7.1-.9.2-2.3.5-2.8-1.1v-.1l-.3.7c-.3 0-.7.1-1 .2-.5.2-1.1.3-1.8.2-.3-.1-.7-.2-1-.3-.4-.1-.8-.3-1.2-.3-1-.1-1.9 0-2.9.2-.7.1-1.4.2-2.1.2h-1c-.6 0-1.2-.1-1.6 0-.6.2-1 0-1.2-.1-.1-.1-.2-.1-.3-.1-.5 0-1.5-.5-1.8-1.2-.4 0-.9.1-1.6.1-1.2 0-2-.1-2.2-.7v-.3c-.6 0-.9 0-1.6-.6v-.2c-.3.2-.7.3-1.2.4-.6 0-1.8.1-2.5.6-.6.4-1.2.5-1.8.5-.3 0-.6 0-.8.1-.6.2-1.3.3-1.9.4h-.2l.1.2c-.3.2-.7.3-1.1.4-.4.1-.7.1-.7.3v.2c.1.4.1.8-.4 1.4v.2c0 .3.1.8-.3 1.1 0 0 0 .1-.1.2 0 .1-.1.3-.1.5h-1.1s.2.1.3 0c0 0-.1.1-.2.1-.2.2-.6.5-1 .4-.1 0-.1-.1-.2-.1-.1.1-.2.2-.3.2 0 .1 0 .4.2 1l-.7.9c-.4-.2-1-.6-1-2l-.1-.1h-.2s0 .1.1.1c0 0-.1 0-.2-.1l.2-.7c-.2-.1-.5-.3-.6-.5-.1-.2-.2-.6.2-1h.8l-.6-.2c-.4-.5-.2-1 .1-1.3-.1 0-.3.1-.4.1l-.7-.8h.1l-.3-.5c-.3.1-.9.2-1.1.3-.2 0-.3.1-.4.1-.3.1-.6.1-.9.2-.6.1-1.1.2-1.6.4l-.1-.2c-.2 0-.4.1-.6.2-.4.1-.7.2-.8.2h-.5c-.2 0-.3 0-.5.1-.3.2-.8.1-1.3 0-.2 0-.3-.1-.4-.1-.3 0-.7.1-1.1.1-.2 0-.5.1-.7.1-1.5.2-3.1 0-4.2-.1-.5-.1-1.1-.2-1.6-.4-.7-.2-1.4-.4-2-.4l-.4-1.1c.4-.3.8-.3 1.2-.4.2 0 .5-.1.6-.1.2-.1.3-.2.4-.3.3-.3.6-.4 1.3-.5.3 0 .5-.1.8-.2.5-.2 1-.4 1.7-.3.5.1.9-.1 1.3-.4 0-.2-.6-.8-.9-.9-.4-.1-.7-.2-1-.4-.4-.2-.7-.4-.9-.3-.4.2-.8.1-1.1.1l-.1.3c-.7.5-2 .3-3.5 0-.2 0-.3-.1-.4-.1-.2 0-.4-.1-.5-.1-.8-.1-1.6-.2-2.3-.7-.9-.6-1.4-.8-2.5-.9-1.1-.1-1.9-.4-2.8-1.1-.8-.7-1.5-.9-2.7-.9-.4 0-.8-.1-1.2-.1-.7-.1-1.4-.2-2 0-.5.1-1 .4-1.6.7-.5.3-1 .6-1.6.8-1.4.5-2.8.6-4 .3l-.3-1c.5-.6 1.2-.9 1.9-1.1l-.1-.2c-.3.1-.6.1-.9.2l-.4.6c-.2-.1-.7-.1-1 .1 0 .5-.3.7-.9.8l-.1.4c-.7.2-2.7.8-3.6-.7-.6-1-.1-1.8.2-2.3.1-.2.3-.4.3-.6.1-.4 0-1-.4-1.2-.1 0-.2 0-.3.1.1 0 .1 0 .2.1l-.1 1.2c-.4.1-.8.1-1.2.2-.5 0-1 .1-1.4.3l-.6.3c-.4.2-.7.4-1.1.6-.1 0-.2.1-.3.1-1.4.7-2.8 1.2-3.5.4v-.1c-.3 0-.7.1-1 .1-.9.1-1.8.2-2.6.5-.7.2-1.3.6-2 1-.9.5-1.9 1.1-2.9 1.2l-.4-1.1.2-.1c.4-.3.7-.5.9-.6l-.1-.1v-.1c.1 0 .3-.2.4-.4.1-.1.2-.2.2-.3-.3.1-.5.1-.8.2h-.1c-.4.1-.8.2-1.2.2-.1 0-.4 0-.6-.1-.1 0-.3.1-.4.1v.2c-.4.1-.7.1-1.1 0-.4 0-.7 0-1 .1l-.3.2c-.5.3-1 .6-1.7.7l-1.8.3c-.8.1-1.6.3-2.4.4-.7.2-1.4.4-1.9.7-.1.1-.1.1-.2.4 0 .2-.1.4-.2.6-.4.8-.9.8-1.1.7-.5-.1-.7-.6-.8-1.1-.3.1-.6 0-.8-.1h-.4c-.1.2-.2.3-.2.3s0-.1-.1-.1l-.4.9c-.7.1-1.2-.3-1.5-.6-.1-.1-.2-.2-.4-.3-.3-.2-.8-.1-1.3-.1h-1.1s-2.7-.4-3.4-1.5c-.1 0-.2 0-.3-.1-.5-.2-.9-.7-1-1.2-.1 0-.4-.1-.8-.2h-.1c-.9-.2-2.4-.3-3.5-.3l-50.7 40.3zm14.4 37.6-.6-1.1c.4-.3.7-.6.8-.9l1.2.2c0 1.2-1 1.6-1.4 1.8zm204.2 19.2c.1.1.1.1 0 0 1.1-.1 2.2.4 3 .8l.4.2-.4 1.2c-.3-.1-.6-.1-.9-.3-.5-.2-1.1-.2-1.5 0l-.4-.5c-.1 0-.3-.1-.4 0l-.3-1.2c.2-.1.4-.1.5-.2zm-92.6-26.4v.6-.6c.6 0 1.4-.1 2 .2.1.1.2.1.4.2.1.1.4.3.5.3l.9.7c0 .2-.2 1.1-.2 1.7-.2 1.5-.2 2-.5 2.2-.3.8-1.2 3.6-1.2 4.1v.1c.1.5.2 1.4-.4 1.9 0 .2.1.7.2 1 .1.6.2.9.1 1.1-.1.5-.5.9-1 1.3-.4.4-1 1.1-.9 1.4l-.4.8c-.4.1-.7-.1-.9-.2 0 .1-.1.2-.1.3 0 .1-.1.2-.1.3-.3.4-.8.8-1.3.8h-.3c-.2-.1-.8-.3-.7-1.2 0-1.2 1.4-2.7 2.1-3.3l-.2-.3c.1-.2.3-.4.6-.6-.1 0-.3 0-.4-.1l-.3-.7c.1-.5.5-.9.8-1.3.1-.2.2-.3.3-.4h-.3l-.1-.3c-.2.3-.4.5-.7.7-.5.2-.8.1-.9 0-.6-.4-.5-1.2-.5-1.9v-.3l-.3-.6-.1-.4.2-.2c0-.1-.1-.1-.1-.2-.2-.3-.3-.6-.4-1.1 0-.6.2-1 .6-1.3-.2-.1-.4-.2-.6-.4v-.9c.2-.2.6-.6.9-1 .9-1.1 2.1-2.4 3.3-2.4zm-14.5-40.1c1.6-.9 3.2-1.7 5.1-2.1.4-.1.8-.1 1.3-.1h.2c1.8-.1 3.6.2 4.8.7v.8l.1.4c-.8.5-1.8.8-2.4.9l-.2-.8c-.2-.1-.5-.1-.7-.2v.6c-.4.2-.8.3-1.2.4v.2c-.5.3-1.1.4-1.6.5h-.2v.2c-.6.1-1.1.1-1.7 0-.4 0-.7-.1-1 0-.2 0-.9.3-1.3.4v.1c-.3.1-.7.3-1 .4-.2.1-.5.2-.7.2l.1.3c-1.7.8-3.6 1.8-5.6 2.5-1 .4-1.9.4-2.8.5-.6 0-1.1.1-1.7.2-.7.1-.9.3-1.5 1-.6.8-1.5.7-2.2.7h-.6c-.5 0-1.2.2-1.9.4-1 .2-2 .5-3 .5-.4 0-.9-.1-1.2-.2-.7 0-1.3-.2-1.8-.4-.4-.2-.7-.3-1.1-.3h-.3c-.4 0-.9.1-1.3-.2-.4-.3-.5-.6-.6-.9 0-.1 0-.2-.1-.2l.1-1.2c.5 0 .9.3 1.2.5.1.1.2.2.3.2.2 0 .4 0 .5-.1.3 0 .6 0 .8-.2.1-.1.2-.1.3-.2.4-.3.7-.4 1.5-.2.5.1.9.2 1.3.1l.2-.6c.3-.1.6-.1.8-.1.3 0 .4 0 .5-.1l.3-.3c.3-.2.5-.5.9-.7 1.1-.6 2-.3 2.9-.5.1 0 .2 0 .3-.1.2 0 .5-.1.7-.2-.2-.3-.1-.7-.1-.9v-.2c0 .1.2.3.3.3l-.3-1.2h.1c-.5-.2-.9-.7-1-1.1-.1-.4.1-.7.2-.9.2-.3.5-.4.9-.4.5 0 .8.3.9.7.2.1.3.1.5.2.4.1.8.3 1.2.6.5.3.6.3.9.3.3 0 .6-.1 1 0l.3.7c.3.2.4.6.5.9 0 .1.1.1.1.2h.8c.4 0 .8.1 1.2 0l.7-.1c1.6-.3 3-.5 4.4-1.3.3-.3.6-.5.9-.6zm-29.7-16.2c.3-.7 1.3-1.2 2-1.2.9 0 2.2.1 3.1-.2 2.1-.6 4.1-.8 5.9-1 .3 0 .6-.1.9-.2.4-.1.8-.2 1.3-.3.8-.1 1.6-.3 2.5-.5l.7-.2c1.2-.4 2.5-.5 3.7-.6h.4c.3 0 .6-.1.8-.2.2-.1.4-.1.7-.1.4-.1.7 0 1 .1.2 0 .4.1.5.1.1 0 .2 0 .2-.1l.1.2h.4c.4 0 .7.1.9.2v1.1c-.7.4-1.5.6-2.3.7-.5.1-.9.2-1.3.3l-.2.1-.9.3c.4-.1.8 0 1.2 0h.3c.9.1 1.9-.2 2.9-.4h.1c.4-.3 1.1-.6 1.1-.6.8-.3 1.6-.4 2.2-.5V215.5l.1.7v-.1.4c-.1 0-.3.1-.4.1v.6c-.4.1-.6.3-.8.5-.2.2-.5.4-.8.6-.2.1-.4.1-.8.2-.2 0-.5.1-.7.2v.4c-.2.1-.5.2-.8.3h-.1l.2.4c-.1 0-.1.1-.2.1-.1.3-.4.6-2.1.9-.1 0-.2 0-.3.1-.4.1-1 .2-1.5 0-.3-.1-.6-.3-.7-.5-.1-.1-.3-.2-.3-.2H255.5v.2c-.4.2-.8.3-1.1.4l.3.2c0 1.1-1.2 1.2-1.6 1.2h-.1c-.5 0-1 .2-1.5.4-.2.1-.4.2-.6.2-.9.3-1.9.6-3 1-.2 0-.3.1-.6.2-.6.2-1.2.5-1.8.5-.2 0-.3 0-.5-.1-.4-.2-.6-.5-.5-.8-1.7.3-4.1 0-5.3-.7v-1.1c.6-.3 1.2-.4 1.8-.4.3 0 .6-.1.9-.1.2-.1.3-.1.3-.1.1-.2.2-.4.4-.7.5-.5 1.3-.6 1.8-.7h.2c.4-.1.8-.2 1.2-.4-.1 0-.1-.1-.2-.1l.1-.5-.1.1-.9-.6c0 .1.1.3.1.3-.2-.1-.9 0-1.3 0-.8.1-1.4.1-1.7-.2-.1 0-.7 0-.8.1l-.2.2c-.2.2-.4.4-.7.5-.4.2-.8 0-.9 0 .1 0 .3 0 .4-.1l-1 .2c-.5-.2-.7-.7-.5-1.1z"/>
        <path class="st4" d="m293 211.4-.2-.4h-.1c0 .2.2.3.3.4zM251.2 199.8v-.2c-.1-.2-.2-.3-.3-.3l.2.4c0 .1 0 .1.1.1zM220.1 204.9c.1-.1 0-.3-.1-.3l.1.3c0 .1 0 0 0 0zM245.1 200.6c0-.1-.1-.1-.1-.1l.1.1zM246 217.5c-.3 0-.5.1-.8.1.1 0 .2.1.3.1.1 0 .3-.1.5-.2zM220.2 205.5h.3c.4-.2.8-.3 1.2-.1.5-.4 1.1-.7 1.9-1-.3 0-.6 0-.8.1l-.2.2c-.2.2-.7.8-1.4.4-.1 0-.1-.1-.2-.1h-.1c-.3.2-.5.2-.7.1v.4zM305.5 205.9c.7-.3 1.4-.6 2.2-.5 1.1 0 2.1-.1 3.2-.4.6-.2 1.1-.5 1.7-.8.3-.2.6-.4 1-.5.4-.2 1.4-.6 2.1-.5.7 0 .9.4.9.6.1.2 0 .5-.2.7.6-.1 1.1.1 1.5.2.4.1.6.2.8.1l.7.8c.3-.1.7-.2 1.2-.2.4 0 .7.2.9.3.2.1.4.2.5.2h.4c.4 0 .5.1.9-.1.4-.1.8-.1 1.1 0 .2 0 .5.1.6 0 .3-.1.5-.2.8-.3l.9-.3c.3-.1.7-.1 1-.1.5 0 .9-.1 1.2-.3l-.4-.5.1-.1.2-.1s.1 0 .1-.1c-1 .1-2.5.9-3.6 1.6l-.8-.9c.4-.5.8-.8 1.3-1 .1-.1.2-.1.3-.2l-.4-.6c.1-.5.4-.7.6-.8.5-.2 1.1.1 1.4.4.1.1.2.1.2.1.3.2.6 0 1.2-.5l.1-.1s1.5-1.1 2.3-.7c.3.1.5.3.6.5.1.1.1.1.2.1.2.1.5-.2.7-.4.1-.1.3-.2.4-.3l.5.9h.2c.4 0 .7-.4 1.1-.9-.2.1-.6.3-1.2 0l-.1-.4c-.2 0-.5-.1-.7-.3-.2-.3-.9-.6-1.4-.7l-.2-.5c-.1 0-.2.1-.3.1-.9.4-1.4-.1-1.7-.4-.2-.2-.2-.2-.3-.2l-.6-.8c0-.1 0-.2-.2-.4-.2-.3-.6-1.1.2-1.6.3-.2.6-.3 1-.5s1.1-.5 1.2-.7c.1-.2.1-.4.1-.7 0-.4 0-.8.2-1.2.2-.5.6-.9.9-1.3.2-.2.4-.5.5-.7.2-.3.3-.5.4-.8.1-.2.3-.4.4-.5v-.2c-.2-.1-.5-.2-.8-.4-.8-.6-.8-.6-1.7-.4-.6.1-1.1-.1-1.5-.3-.4-.2-.6-.3-.7-.2l-.3.7c-1.2 0-2.2 1.3-2.7 2.3-.1.2-.3.4-.6.7-.3.3-.8.9-.8 1.1 0 0 0 .1.1.1l-.5 1.1c-.3-.1-.8.2-1.2.4-.8.4-2 1-2.9.1l.2-.6c.2-.2.4-.5.6-.7-.1-.4.2-1 1.7-2.4l-.1-.2c-.1 0-.1-.1-.2-.1-.3-.2-.6-.3-.8-.7-.3 0-.5-.1-.7-.2l.3.8c-.3.3-.7.4-1 .4 0 .2-.2.4-.3.5-.1.1-.3.2-.7.2-.3.2-.8.1-1.5 0-.3 0-.7-.1-.8-.1l-.6.3-.6.3c-.1 0-1.2.3-1.7 0h-.1c-.2.1-.5.2-.8.3h-.1c-.2.1-.4.2-.6.4l-.8-.9.3-.3c.3-.6 1.5-.9 1.8-1l.3-.1c.2-.1.5-.1.7-.2-.1-.1-.3-.1-.4-.2-.5-.1-.9-.2-1.4-.3l-.4-.1c-.7-.1-1.6 0-2.5.5 0 .6-.7.8-1.4.9H307.9v-.1c-.3 0-.9.1-1.1.2h-.2c-.6.1-1.3.3-2 .2l-.4-1c.4-.5 1.3-.8 2.4-1.1.3-.1.5-.1.6-.2.5-.2 1.1-.5 1.6-1-.7 0-1.9.1-2.5.2-.7.1-1.4.3-2.1.4-1.3.3-2.7.5-4.1.7-1.1.2-2 .4-3 .7l-.8.2c-.5.1-1 .3-1.5.4-.8.2-1.6.4-2.3.6l.3.5c-.5.7-1.7 1-3.1 1.2-.9.2-2 .4-2.6.7.2 0 .3 0 .4.1.2 0 .4.1.7.1.3 0 .6-.1 1-.1.3-.1.5-.1.8-.1l.2.7v.1l.1.2h.7c.6.1 1.3-.1 2-.2.4-.1.8-.1 1.2-.2.5-.1 1 0 1.5 0 .6 0 1.3.1 1.8-.1l.4 1.1c-.8.4-1.6.4-2.5.4h-.3v.1c-.8.4-1.8.5-2.8.5-.6 0-1.1.1-1.6.2-.7.2-1.4.2-2.1.2-.6 0-1.2.1-1.7.2l-.3.1c-.6.1-1.2.2-1.6.5.1.2.3.4.5.4 1.6-.1 3.4 0 4.8.1 1 .1 2 0 3.1-.1.7-.1 1.4-.1 2.1-.2 1.5-.1 2.8.1 4.4.4h.6c.8 0 1.5 0 1.9.5.1.1.1.1.1.2s.1.1.1.2h.4l.6 1c-.6.8-1.5.7-2.1.6h-.2c-.3 0-.7 0-1 .1-.4.1-.8.2-1.2.2-.8 0-1.6-.1-2.4-.2-.9-.1-1.8-.2-2.7-.2-2 0-4.1.2-6 .5-.5.1-1 .1-1.4.1-1.2.1-2.3.2-3.3.6-.2.3-.2.4-.2.5 0 0 0-.1-.1-.1l.1.4h.2l.4 1.1v-.1c0-.1-.1-.2-.1-.2.3.3 1.8.6 2.2.6h2c1.2 0 2.4 0 3.7.2l.2 1.2c-.4.2-.8.6-1.2 1.1-.1.1-.2.3-.3.5.1.1.3.2.3.4.3 0 .6-.1 1-.1.8-.2 1.6-.2 2.4-.1h1.9v-.3c.6-.1 1.2-.1 1.9-.2v.2H298.6c.4 0 .7-.1 1.1-.1.5-.1.9-.1 1.5-.1.9 0 2-.2 3-.4h.2c.3 0 .7-.1 1.1-.3zM248.5 222c.7-.2 1.4-.4 2-.7-.8.1-1.6.4-2.4.8.1 0 .3-.1.4-.1zM262.2 214.5c0-.2-.2-.3-.3-.4l.2.5.1-.1zM261.1 220.2zM263.1 218.1v.7c.1-.1.1-.2.1-.4 0-.1 0-.3-.1-.3zM250.1 218.5l-.2-.2c-.2-.1-.5-.1-.8 0-.5.1-1 0-1.4.1.2 0 .4 0 .6.1.6 0 1.3.1 1.8 0zM255.5 220.1v-.2c0-.1 0-.2-.1-.3l.1.5zM282.8 287.2v.1-.1zM264.4 217c-.2 0-.5.2-.6.2l-.1-.2-.1.3c.2 0 .4-.1.5-.1 0 .1.1 0 .3-.2zM271.3 234.7c-.1 0-.1 0 0 0-.1 0 0 0 0 0zM371.2 220l-.6-.6c0 .1 0 .1.1.2.1.2.2.2.3.2-.2 0-.7.1-.8.2-.7.3-1.3.9-1.8 1.4l-1.9 1.9c-.4.5-.9.9-1.3 1.4l-.6.6c-.3.3-.7.6-.9.9-.1.1-.1.3-.1.5-.1.4-.2 1.2-1 1.4-.4.1-.9.2-1.3.3-.4.1-.8.2-1.1.3.4-.1.8-.1 1.2-.1.6 0 1.2 0 1.7-.3l.9.4c.1.8-.4 1.4-.9 1.9-.2.2-.3.4-.4.5.7 0 2.3-.5 2.7-.7.4-.2.9-.5 1.3-.7 1-.6 2-1.1 3.2-1.5.3-.1.4-.2.6-.5.2-.2.4-.5.8-.8.5-.3.9-.3 1.4-.4.3 0 .6-.1.8-.2l.9.4v.5c.3 0 .6.1.9.2.4.2.5.6.5.7 0 .1 0 .3-.1.4.5.1 1 .2 1.6.5 1.1.5 2.1.2 3.3-.3.2-.1.4-.1.6-.2l.1-.4-.2-.2h-.1c-.2.1-.4.2-.7.2-.6 0-1.2.1-1.8.1-.4 0-.8.1-1.2.1l-.6-.9c.4-.6.9-.7 1.3-.8h.2c0-.5.2-.8.4-1l.1-.1s-.1-.2-.6-.5h-.3c-.3 0-.7 0-1-.4-.2-.2-.3-.3-.5-.4-.1-.1-.3-.1-.4-.2-.5-.3-.5-.7-.6-1-.3-.1-.7-.1-1-.1-.2 0-.5 0-.7-.1l-.4-.9v.1c0-.1-.1-.2-.2-.3-.1.1-.4.3-.6.4-.3.3-.7.5-1 .6l-.7-.3c-.3-.5-.1-.9 0-1.1 0 0 .1.1.1.2l-.3-1c.2-.2.5-.3.7-.4.1 0 .2-.1.2-.1-.2.2-.2.2-.2 0 0 .1 0 .1 0 0zM403.1 224.9l-.2-.2.3-.8c-.2.1-.4.2-.5.2V224.4l-.5.6c-.5.1-.8-.2-1-.3-.3-.3-.3-.7-.2-1.2.1-.4.4-.5.7-.6v-.1c-.2-.1-.5-.2-.8-.2-.1 0-.2-.1-.3-.1-.9-.3-2.8-.7-3.2-.5l.2-.2c.1-.1.1-.2 0-.3l-.8.8h.2s-.1.2-.2.2c-.1.1-.1.2-.2.3-.4.5-1 .6-1.5.6h-.3c-.5.1-1 .3-1.3.5-.1.1-.3.2-.4.4-.1.2-.3.3-.5.5 0 .1-.1.3-.1.3s-.1.1-.1.2.2.3.5.5.7.2 1.2.2c.4 0 .8 0 1.2.1l.3-.3c.4-.2.9-.1 1.2-.1.1 0 .3.1.4.1.2 0 .4-.1.7-.2.1 0 .3-.1.4-.1.1 0 .3-.1.4-.1 0-.1.1-.2.2-.3l.1-.1s0-.1.1-.1c.3-.4.9-.5 2.8.2.7.3 1.1.3 1.2.2.1-.1.1-.2.1-.2.1 0 0-.1-.1-.2z"/>
    </g>
</svg>
