<svg xmlns="http://www.w3.org/2000/svg" viewBox="0 0 1440 980" style="enable-background:new 0 0 1440 980" xml:space="preserve">
    <style>
        .st0{display:none}.st1{display:inline}.st2{fill-rule:evenodd;clip-rule:evenodd;fill:none;stroke:#bcbcbc;stroke-width:.75;stroke-miterlimit:1.2402}.st4,.st5{fill:#bcbcbc}.st5{display:inline}
    </style>
    <g id="Layer_7">
        <path class="st4" d="M743.3 252.6c.1.1.2.2.4.3.3.2 1 .9 1.3.8.2-.4.6-.6.9-.6.4 0 .7.2.8.4.2.3.1.6-.1.9-.1.1-.1.4-.2.7.5-.3 1.9-1 2.8-.4.1.1.3.1.5.1.3.1.7.1 1.1.3.2.1.5.2.7.3.5.2 1 .4 1.5.9.6.5.8.5 1.1.4.6-.3 1.2-.2 1.7-.1.1 0 .1 0 .2.1h.1c.1 0 .3.1.4.1.1-.3.4-.6.7-.9-.1-.1-.2-.3-.3-.4-.1-.2-.2-.4-.3-.5-.6-.5-.5-1.2-.4-1.5 0-.2 0-.4-.2-.7-.1-.2-.1-.3-.2-.5 0-.1-.1-.3-.1-.5s0-.3.1-.4c.1-.4.4-.7.7-.9.1-.1.3-.2.3-.3.1-.1.1-.3.2-.4.1-.2.1-.4.3-.6-.5 0-1.2.1-1.6.1-.6 0-1 .1-1.3 0-.5-.1-.9-.2-1.3-.3l-1.2-.3c-.3 0-.7 0-1.1-.1-.5 0-1 0-1.5-.1-.4.5-1.2.5-2.5.4l-.1.1c-.4.4-1 .2-1.4.1h-.2l-.2.1c-.2.1-.4.3-.7.3l-.2.4h-.4c-.4 0-.8 0-1 .1l.2.1c.3.4.1.8 0 1 .3 0 .5-.1.8 0l.1 1.2c0 .2-.2.2-.4.3 0-.1 0 0 0 0zM735.2 263.2c.4-.3 1.1-.4 1.6-.5.1 0 .2 0 .3-.1 1.2-.3 2.6-.4 4.4-.3l.2.1c.3.1.7.1 1.2.1.4 0 .8 0 1.2.1.2 0 .4 0 .6.1.8.1 2.1.3 2.5 0 1.2-.8 1.8-.3 2.2.3.1.1.2.2.3.4.1.1.2.1.3.1h.9c.9.1 1.6.5 2.2 1.1l.2.2c.1.1.3.2.4.3l.1.1c.1.1.2.1.2.1l1 .5c.9-.7 2.2-.8 3.2-.6.1 0 .2.1.5-.4.2-.3.5-.7.9-.9l.1-.1h.1s.1 0 .1-.1c.1 0 .2-.1.3-.1 0-.1-.1-.2-.1-.4s-.1-.3-.1-.4c-.6-1-1.1-1.5-1.4-1.5h-.1l-.6-1c.2-.3.4-.9.3-1.2 0-.1-.1-.2-.1-.2-.4-.2-.9-.4-1.2-.8-.3 0-.6-.1-.9-.2-.2-.1-.4-.1-.6-.1-.1 0-.2 0-.4.1s-.5.3-.9.3h-.3c-.8-.2-1.5-.6-2.1-1-.4-.3-.8-.5-1.2-.7l-.2-.1c-.2-.1-.6-.3-.7-.3-.4 0-.7-.1-.9-.2-.1 0-.2-.1-.2-.1-.3 0-.6.2-1 .4-.3.2-.8.4-1.2.5 0 .1.1.2.1.4.3.6.9 2.1-.6 3.2-1 .7-1.9.9-2.8.6-.8-.3-1.3-.8-1.7-1.3-.2-.2-.4-.5-.6-.6-.2-.2-.5-.4-.7-.6-.4-.3-.7-.6-1.1-1-.2 0-.7.2-.9.3-.2.1-.4.2-.6.2-.8.2-1.2.5-1.6 1.2-.1.1-.1.3-.1.5s0 .4-.1.6c-.1.4-.4.7-.6.9l-.2.2c-.3.3-.2.7-.2 1.4v.3h-.2v.8c.4-.2.6-.4.8-.6z"/>
        <path class="st4" d="M735.5 266.3c.1.1.3.3.4.5.2.2.4.5.6.8.7-.2 1.6.3 2.3.7.1.1.2.1.3.2.4.2.9.2 1.5.2.5 0 1 0 1.5.1.1 0 .1 0 .2.1.4.1.7.3 1 .6l.2.2c.3.2.9.8.1 1.7-.1.1-.1.3-.1.6s.1.5.2.6v.1c.7.3 1 .9 1.3 1.7.3 0 .6.1 1 .1H747.9c.2-.1.4-.1.6-.2h.2s0-.1.1-.1c.1-.1.2-.3.4-.5.3-.3.7-.3.9-.2h.1l.1-.1c.1-.1.2-.3.5-.4.1-.1.3-.1.4-.1h.4v-.2c.3-.3.4-.7.5-1.1.1-.6.3-1.4 1.3-1.9.1-.1.2-.2.4-.3.1-.1.3-.3.5-.4.2-.1.4-.2.6-.2h.1c-.3-.2-.5-.4-.6-.7-.1-.3-.1-.5 0-.8-.1 0-.2-.1-.3-.1-.6-.3-1.2-.8-1.7-1.1-.2-.2-.4-.3-.7-.5-.3-.2-.6-.2-1-.3-.3 0-.5-.1-.8-.2h-.1c-.1 0-.1 0-.2-.1-.1 0-.2-.1-.2-.1H749.1l-.1-.1c-.2-.1-.3-.3-.4-.4l-.2-.2s-.1 0-.2.1c-.8.5-1.2.5-1.9.6h-.2c-.5 0-1-.1-1.5-.2-.4-.1-.8-.2-1-.2h-.5c-.5 0-.8 0-1.5-.2-.3-.1-1.1 0-1.6 0h-.6c-.9 0-1.6.2-2.3.3h-.2c-.3.1-.9.2-1 .4-.1.3-.4.6-.6.7v.2c0-.2 0 .1.2.4z"/>
        <path class="st4" d="m733.8 270.5-.1-.2c-.4.1-.8.1-1.2.2h-.5c.3 0 .6 0 .9.1h.3l.4 1c-.2.3-.5.4-.7.5h.9c.9 0 2 .1 3.1.2 1.7.1 3.5.3 4.8.1h.4c-.2-.9-.1-1.3.2-1.9v-.1c-.2-.2-.5-.4-.6-.5h-.2c-1.5 0-2.9 0-3.6-.6-.3-.2-.5-.3-.8-.4-.2-.1-.3-.1-.4-.1v.1c0 .4 0 1.1-.4 1.5-.5.4-1.1.3-1.7.2-.1-.1-.5-.1-.8-.1zM704.7 210l.1-.1-.1.1zM699.6 220.6s.1.1.2.1h.2l-.2-.2-.2.1zM725.5 161.5v.2c0 .2.1.3.2.4l-.2-.6zM715.8 162.5c-.1-.1-.2-.1-.4-.1.1 0 .2.1.4.1zM711.2 162.5l-.2.3c.1-.1.2-.2.2-.3zM721.4 162.5c1.4-.3 2.9-.3 4.3-.2v-.1h-1c-.6.1-1.3.1-2-.3-.4-.3-1-.5-1.5-.6l.1.1c-.3.4-.7.6-1.1.6l.1.1c-.6.7-1.5.5-2 .3v.1c1 .1 2 .2 3.1 0zM706.8 167.7v.8c.4 0 .7-.1 1-.2.1 0 .1-.1.2-.1-.2-.1-.3-.3-.4-.4-.3 0-.6-.1-.8-.1z"/>
        <path class="st4" d="m712.6 166.1-.4.3h.4l.1.8h.3c.2 0 .4 0 .7.1l.1 1.2c-.7.2-1.4.2-2.1.1-.7 0-1.4-.1-1.9.2-.4.2-.7.2-1 .3-.2 0-.4.1-.6.1-.7.3-1.4.4-1.9.4-.3 0-.6 0-.8.1l-.1.1c.5 0 1-.1 1.5-.2.6-.1 1.2-.2 1.9-.2h2.3c.2 0 .5-.1.7-.1.5-.1 1-.3 1.6-.2l.2.5h.1v.2l-.1 1c-.2 0-.4 0-.6-.1-.5-.1-1 0-1.5.1h-.2c.1 0 .1.1.2.1l-.3 1.2c-.6 0-1.2-.1-1.8-.2-.8-.2-1.6-.3-2.3-.1-.5.1-.9 0-1.2-.1-.1 0-.2-.1-.3-.1.6.4 1.5.6 2.4.7.3.1.5.1.7.2.3.1.6 0 .9-.1.2-.1.5-.1.8-.2.5-.1 1 .1 1.4.2.2.1.3.1.5.1l.1 1.2c-.2.1-.3.1-.5.2.1.1.3.2.4.3.2.1.8 0 1.1-.2l-.1-.7c.1-.1.3-.1.4-.2h.1l.3-.7c.1 0 .2-.1.2-.1.4-1 1.3-1.6 2.4-1.6l.2-.2c.1-.1.1-.2.1-.2-.2-.2-.3-.5-.2-.8.2-.6.9-.8 2-1h.1l.1-.4c-.1 0-.2.2-.2.3 0-.1-.1-.3-.1-.4l-.1-.1.5-.9c.5-.1 1.1-.2 1.6-.3.6-.1 1.1-.3 1.8-.3-.5-.1-1.1-.2-1.5-.5-.5-.3-.8-.3-1.2-.3-.6.1-1-.1-1.4-.2-.2-.1-.4-.1-.6-.1l-.1-1.1v.4c-.1-.1-.7-.4-.9-.5-.1 0-.3.1-.5.2-.1.1-.2.1-.3.2-.8.4-1.2 0-1.4-.2-.3-.3-.3-.6-.3-.7 0-.2.1-.3.2-.4-.3-.1-.5-.2-.8-.3h-.5c-.2 0-.5.1-.8.1-.2 0-.4-.1-.6-.2-.2-.1-.6-.2-.7-.2l-.3.4c.3.5 1 1.5 1.4 1.9.3.8.4 1 .4 1.2zm1.2 4.2v-.3.3zM700.1 163l-.1.4.1-.1v-.3z"/>
        <path class="st4" d="m696.7 165.1.6-.1c0-.1-.1-.1-.2-.2 0 0 .2 0 .6-.2l.4-.5h.3c.3 0 .8 0 1.2.5l-.2.7.2 1c-.3.2-.5.3-.8.3.4.1.7.1 1.1.1.5 0 1.1.1 1.6.2l-.1 1c.3.1.7.1 1 .1.6 0 1.2 0 1.9-.2.3-.3.7-.4 1-.4v-.5l.2-.6c.5-.2 1-.1 1.3 0 .6.1.6.1.7-.2l.8-.4c.5.2.9.7.8 1.2v.2c.2 0 .5-.1.8-.1.3-.1.7-.2 1-.4.1-.1.3-.1.4-.2-.1-.1-.3-.2-.4-.3-.4-.3-.6-.4-.9-.3l-.7-.9v.2c-.1-.3-1-1-1.8-1.4-.4-.2-.6-.2-1 .1-.3.3-.6.3-.9.4.1.2.2.4.1.7l-1.1.2c-.2-.3-.4-.3-.9-.3-.3 0-.7 0-1.1-.2l-.1-.4h-.2c-.5.1-1.1.1-1.7 0l.1-.7c-.1 0-.2 0-.2-.1-.1 0-.3-.1-.4-.1l-.1.4c-.6.2-1.1-.2-1.3-.4-.1-.1-.2-.1-.2-.2-.1 0-.6.1-.7.2 0 0 .1-.2.1-.4s-.1-.3-.2-.3v1.2c-.1 0-.6.1-.9.1.1 0 .1.1.2.1.2.1.4.2.5.3l-.8.8zM713.4 174.4c0-.1 0-.1 0 0zM728.4 169.4h-1.5l.3.4c-.1.4-.4.8-.6 1.2.4 0 .8-.1 1.2-.2.7-.1 1.4-.3 2.1-.3h.5l.3.9h.1c.2-.1.4-.2.6-.2.3-.1.5-.1.8-.2.4-.1.7-.1 1.1-.3l.1-.1c-.7 0-1.3-.2-1.9-.4-.2-.1-.3-.1-.5-.2l-.3-.8h-1.1c-.3 0-.7.1-1 .1l-.2.1zM718.3 163.7c.3.2.5.5.5.8.2.1.4.2.7.1h.9l-.1-.5-.2-.2.1-.2c-.7.2-1.3.1-1.9 0zM722.4 164.9c-.1 0-.3 0-.4-.1v.3c.1-.1.2-.1.4-.2zM724.6 167.9l.1.1c.2.2.5.2.9.1.6 0 1.3 0 1.8-.1-.6-.2-1.7-.2-2.8-.1zM721.8 165.2s.1 0 0 0c.1 0 .1 0 0 0zM732.5 161.2c-.1.1 0 .2 0 .3v-.3zM729.6 164.3c1 .5 2.6.6 3.7.2 1.1-.4 1.7-.5 2.8-.4.4 0 .9-.1 1.3-.3l.2-.7c.9-.3 1.8-.5 2.7-.7-.4-.2-1.1-.1-1.8-.1h-.6c-.6 0-1.1-.1-1.6-.2-.6-.1-1.2-.1-1.8-.2-.2 0-.5-.1-.6 0-.4.1-.6 0-.8-.1-.2.1-.4.1-.6.1-.2 0-.6.1-.7.2-.5.4-1.1.3-1.6.3h-.5l-.3-1.1v.2-.1c-.1.1-.2.2-.3.2-.1.1-.2.1-.4.1 0 0 0 .1-.1.1v.1c0 .2 0 .6-.3.8-.2.1-.3.2-.5.2l.1.6c-.6.2-1.2.3-1.8.4 1.1 0 2.2-.1 3.3-.2l.2.6zM716.9 204.7s-.1 0 0 0c0 .1 0 .1 0 0zM725.9 203.5c.2-.3.3-.5.4-.8h-.2l-.2.8zM729.3 201.2zM718.2 204.4h.4l.3-.3h-.2v.1c-.2.1-.3.1-.5.2 0-.1-.1-.1-.2-.1v.1h.2zM717.1 204.6h-.2v.1c.1 0 .2 0 .2-.1zM718.4 208.8l.1-.1h-.1v.1zM718.8 203.3v.2-.2zM719 204s0 .1 0 0c0 .1 0 .1 0 0 .1.1.1.1 0 0l-.1-.3v.1c0 .1.1.2.1.2 0 .1 0 0 0 0zM726 202.8c0-.1 0-.1 0 0l-.1-.1v.2c0-.1.1-.1.1-.1zM718.8 206.1v-.3l-.2-.2.2.5zM716.2 209.1H715.9l-.2.9v.2c.2-.2.5-.4.8-.5.2-.1.4-.2.6-.2-.1 0-.1-.1-.1-.1-.3-.3-.5-.3-.8-.3zM712.2 206.9c0-.1.1-.1.1-.2l-.1-.1v.3zM711.9 208.1s.1-.1.1-.2.1-.1.1-.2l-.3-.2-.1.3.2.3zM714.2 207.1h.2c.1 0 .2-.1.2-.2H714.3c-.1.1-.1.1-.1.2zM713.8 208.8v.1-.1c0 .1 0 .1 0 0zM714.7 211.1l.2-.2h-.2v.2zM684.9 231.6c-.1 0-.1.1-.2.1l.3-.2c0 .1-.1.1-.1.1zM690 230.7l.2.2-.2-.2zM707.5 213.7l.1-.1h-.2c-.1 0-.2.1-.3.2h.3l.1-.1zM697.7 228.9h.2l-.2-.2h-.1c0 .1 0 .2.1.2zM693.9 227.4c-.1 0-.1 0 0 0-.1 0-.1 0 0 0zM702.4 218.1c0 .1 0 .1 0 0s-.1-.2-.2-.2l.2.2zM694.2 229.3c.1 0 .3-.1.6-.2l.4-.1c.4-.1.7-.2.8-.3l-.1-.8c.3 0 .5-.2.8-.5.4-.3.8-.6 1.4-.7l-.5-.4-.6-.3c-.3.3-.8.4-1.1.5-.2.1-.6.2-.6.3l-.7.7s.2-.1.3-.2c-.1.1-.1.3-.3.4l-.5 1h-.1l.3.5s-.1 0-.1.1zM696.8 230.1c.1-.1.1-.2.1-.3l-.1.1-.1.4s.1-.1.1-.2zM694.4 230.8c.1-.1.1-.2.1-.3v-.1h-.1v.4zM758.9 241.1c.2-.1.4-.2.6-.4.8-.5 1.5-.9 2.1-1.5.7-.6 1.4-1.3 2.1-2 .6-.6 1.2-1.2 1.9-1.7l.1-.1.1-.1.2-.2.1-.1.3-.3c.7-.5.9-1 1.3-1.9.1-.2.1-.2.1-.3l-.1-.1c-.1-.1-.2-.1-.3-.2-1.1-.7-2.3-1.3-3.4-1.9-.6-.3-1.2-.6-1.8-1v-1.1c.2-.1.4-.2.5-.3h.1c.1-.1.3-.2.4-.3l.1-.1c.1-.1.2-.2.3-.2.1-.1.1-.2.1-.2s-.1 0-.1-.1c-.1 0-.2-.1-.3-.1-.8-.3-1.7-.7-1.9-1.4 0-.1-.1-.2-.1-.3v-.4c-.2 0-.3 0-.5-.1-.6-.2-1-.7-1.1-1.3v-.5c0-.1.1-.2.1-.3-.2-.1-.3-.3-.3-.5v-.5c0-.1 0-.1.1-.2.2-.3.3-.6.2-.7l.1.1.1-1.2c.1 0 .3-.1.4-.1h.1c-.5-.9-1.2-1.6-2-2.3-.5-.5-1.1-1-1.6-1.6-.1-.2-.2-.4-.3-.5 0-.1-.1-.2-.1-.3v-.4c.1-.8.9-1.4 1.6-1.9.3-.2.8-.6.9-.8h-.1l-.9-.6c-.1-.1-.2-.1-.3-.2-.3-.2-.6-.3-.8-.5-.1-.1-.3-.2-.5-.2h-.1c-.1 0-.1 0-.2-.1-.1 0-.2-.1-.3-.1-.2-.1-.4-.1-.6-.2-.1 0-.3-.1-.4-.2-.1-.1-.2-.1-.4-.2-.1 0-.1-.1-.2-.1-.6-.4-.9-.8-1-1.3 0-.4.1-.8.4-1.2H753.3l-.1-1v-.2c.2-.1.5-.2.8-.2 0-.1-.1-.2-.1-.3 0-.5.4-.8.7-1 .1 0 .1-.1.1-.1.3-.3.3-.5.3-.5s-.1-.1-.3-.1c-.3-.1-.6-.1-.8-.2-.6-.1-1.2-.3-1.8-.5-.3-.1-.6-.3-.9-.5-.7-.4-.9-.5-1.3-.3-.8.5-1.7.6-2.5.7-1.3.1-1.8.2-2 1-.1.5-.2.9-.3 1.3v.2c.1.3.2.9-.3 1.3-.1 0-.1.1-.2.1h-.1c-.3.2-.5.2-.7.2-.1 0-.2 0-.3.1-.1.1-.3.2-.4.4-.1.1-.1.2-.2.3-.4.6-1 .6-1.6.5h-.1c-.3-.1-.5-.2-.7-.3-.2-.1-.4-.2-.5-.2-.2 0-.3-.1-.5-.1-.3-.1-.6-.1-.9-.2-.1.1-.3.3-.5.4-.7.3-1.4.5-2.2.4.3.2 2.4 1.3 2.7 2 .1.2.3.7-.3 1.1v.6h.2c.2 0 .7.2.9.7.1.5-.2.9-.4 1.1.1.1.3.2.5.4l.2.1c.3.3.5.7.6 1.1 0 .6-.2 1.2-.6 1.6-.1.2-.1.3.7 1.1.4.4.8.7 1 1.2.3.2.4.1.5 0l.9.4c0 .2.7.3 1 .4.5.1 1 .3 1.4.6.6.5.5 1.3.3 1.7h.1c.2.1.4.2.6.4v.8c-.1.2-.3.3-.5.4l-.4.6c-.2 0-.3-.1-.5-.1-.6-.2-.9-.2-1.2 0-.2.2-.3.4-.4.6-.1.2-.3.5-.5.7-.3.3-.7.6-1 .8-.3.2-.7.4-.9.7-.2.3-.5.7-1 .9l-.3.6h-.2c-1.1.3-1.2.5-1.2.5l-.9.7c-.1-.1-.2-.1-.5.2-.1.1-.2.2-.3.2l-.1.9c-.6.4-1.7.7-2.6.6l-.4.7h.1c-.2.1-.7.8-.9 1.1.1.2.3.4.4.7.1.1.1.2.2.3.3.6.3 1 .2 1.3v.4c.2.6.9 1.6 1.3 1.9l-.6 1h.1l.2-.2v.5c.1.5.1 1.2-.3 1.7l-.1.1c.2.4.4.9.4 1.3.5-.2 1.1.2 1.4.4.4.3.9.4 1.4.5.2 0 .4.1.6.1l.2.5c.2 0 .6-.1 1.4-.3l.7 1-.1.1-.1.1c.2.1.3.1.4.1l.1.2c.1 0 .2.1.3.2.1-.1.3-.1.4-.2l.2.3c.4 0 .9-.2 1.4-.3.2-.1.5-.2.7-.2.5-.1.9 0 1.1.1.1.1.2.1.2.1.1-.2.3-.4.6-.5.1 0 .2-.1.3-.1l.9-.3c.2 0 .3-.1.5-.1.5-.1 1.2-.2 1.4-.5l1 .3.3-.4h.1l-.2.2v.2l.7-.9c.3.2.7.3.9.3l.9-.3c.1 0 .2.1.2.1.4 0 .8-.1 1.3-.4.6-.3 1-.1 1.3 0 .1.1.1.1.2.1H755.9l.1-.1.2-.2.3-.3c.5-.5 1-.9 1.6-1.2.1-.1.2-.1.3-.2.4.4.4.4.5.3zM735.5 230.6zM737.9 245.3s-.1 0-.1-.1v.1c0 .1 0 .2.1.2v-.2z"/>
        <path class="st4" d="M738.6 244.4c.1.1.1.1 0 0 .1.1.1 0 0 0zM734.1 243.8c0 .1.1.1 0 0 .1.1.1 0 0 0zM758.2 201.7l.1.1.1-.1h-.2zM744.9 223l-.1.2h.3c-.1 0-.2-.1-.2-.2zM732.9 200l.1-.1h-.2l.1.1zM730.2 201.9l-.3.3s.2 0 .3-.2v-.1zM738.3 196.6l.1-.1h-.2l.1.1z"/>
        <path class="st4" d="M729.7 202.6c-.5.4-.9.3-1.2.1 0 0 .1.2.4.3l-.3 1.2c-.2 0-.4-.1-.6-.2-.1 0-.2-.1-.3-.1-.3.5-.7.7-1.1.9-.1.1-.3.1-.4.2l-.8-.9.3-.3h-.1s-.1.1-.1.2c-.1.2-.3.4-.5.5l-.2-.2c0 .5-.4 1-.9 1l-.4-.6h-.1s0 .1.1.1c0 0-.2-.1-.3-.1-.1 0-.2 0-.3-.1h-.1l-.2.5c-.4-.2-.7-.2-.8-.2l-1.2-.1v-.3s-.3.2-.3.3l-.4 1.1c-.3-.1-.7.2-.9.4v.2l-.1.4v.1l-.1.5h-.2l-.1.2c.3 0 .7.1 1.1.2l-.3 1.2h-.8l-.1.2c-.1 0-.2 0-.3-.1h-.1.1-.1v.2c.5 0 .9.1 1.4.2.1 0 .5-.1.6-.2 0 0-.1-.1-.1-.3-.1-.4-.3-.8-.1-1.3.2-.6.8-.6 1.4-.5h.5c.1 0 .2 0 .2.1.2 0 .4.1.5.1.4-.1.9 0 1.7.2.6.1 1.5.3 2.1.3l-.1-.5c.5-.3.7-.6.8-.7 0 0-.1 0-.2-.1v-1.1c.1 0 .1 0 .2-.1.1 0 .2-.1.3-.1.4-.1.7-.1 1.1-.1.4-.2.8-.2 1.1-.2v-.3c2.1-1.2 4.1.7 4.9 1.5.6.6 2 1.1 2.9.8l.2-.1c.5-.1.8-.2 1.2-.5.2-.1.3-.2.5-.2h.2c.6 0 1.2.2 1.8.4.1 0 .2.1.3.1.4.1.6.2.8.4.1.1.2.1.2.1H742.7c.1 0 .2-.2.3-.3l.1-.1c0-.1.1-.1.2-.2l.1-.1c.2-.2.6-.4 1-.5h.1c-.1-.8.1-1.5.3-2.2 0-.2.1-.3.1-.5l.1-.2c.6-.8 1.8-1.7 3.2-1.4.6.1 1 0 1.7-.3l.3-.1c.9-.4 1.7 0 2.3.4.2.1.4.3.6.3.7.3 1.4.4 2.1.6l.4.1c.5.1 1.2.4 1.4.9.1.2.1.5 0 .7.2-.1.5-.1.7-.1h.2c.3-.1.5-.1.6-.2-.2 0-.4-.1-.5-.3-.3 0-.5.1-.8.1l-.2-.8c-.1 0-.3-.1-.4-.1v-.4c-.2 0-.5-.1-.7-.1h-.4c-.6-.1-1.1-.2-1.5-.2l-.4-1.1c.8-.7 2.1-.4 3.2-.2.3.1.5.1.7.1.5.1.9-.1 1.3-.3.3-.1.7-.3 1.1-.4h.2c-.5-.1-1.2 0-1.6 0l-.3-1.2s-.1.1-.1.3c0 .2.1.3.1.3-.1-.1-.4-.1-.5-.1l-1-.3.1.1c-.1 0-.5.1-.6.2-.1 0-.2.1-.3.1l-.7-.9v.2c-.1-.1-.8-.2-1-.1-.2.1-.6.6-.7.8 0 0 0-.1-.1-.2 0 0 0-.1-.1-.1v1.1h-.1c-.1 0-.2 0-.3.1v.1l-1.2.2c0-.1-.1-.3-.1-.4h-.7l-.1-.6h-.4l-.1-1.2c.1 0 .3-.1.4-.1l-.2-.4c.1-.1.2-.1.6-.2h.1l-.1-.1c-.1 0-.5.1-.9.2l.1.1-.7 1s-.1 0-.3.1c-.1 0-.1.1-.2.1l-.2.8h-.2l-.2.5h-.8v.1c-.1.2-.4.5-1 .5l-.5-.9c.1-.1.1-.3.1-.4l-.1-.8c-.8.4-1.6 1.1-2.2 1.7.1.4-.1.7-.3.8-.2.1-.3.2-.3.3-.3.5-.8.4-1.1.3h-.2l-.8-.5c0-.5.2-.9.5-1.2l.3-.3-.3-.5c.2-.2.4-.4.7-.5-.2-.1-.5-.3-.8-.4h-.5l.1.2-.2.2v.6c-.2.1-.5.2-.8.2-.1 0-.3.1-.4.1l-.2.6h-.5c-.4 0-.7 0-.9.1l-.2.2-.1.1c0 .2-.1.3-.2.4.1.1.3.2.3.4l-.6.8h-.4c-.5.1-1.1.2-1.6-.2-.1-.1-.2-.2-.2-.3-.5.1-1 .1-1.5.1v-.3c-.1 0-.3-.1-.4-.1 0 0 .1.1.1.2l-.2.2c.1.1.1.1.2.3l.2.2-.5 1c-.1 0-.2-.1-.7-.2-.4-.2-1.7-.8-2.1-.7l-.4.4c-.5-.8-.4-.8-.3-.9zm-10.9 4.3s.1-.1.1-.3l.1.2c-.2 0-.2.1-.2.1z"/>
        <path class="st4" d="M756.1 201.6c0 .1.1.2.1.3l-.1-.3c.1 0 .1 0 0 0zM742 200l-.1-.2h-.1c0 .1.1.2.2.2zM732.3 201c-.1 0-.1 0-.2-.1.1 0 .1.1.2.1zM758.3 201.7l.1-.1s-.1 0-.1.1zM723.9 203.5h.2c.1-.2.1-.4.1-.6-.2 0-.4 0-.5.1l-.2.5h.4zM731.3 206.3c.5.3.9.5 1.3.7.3.1.7.2 1 .3-.3-.2-.7-.6-1.2-1-.2-.2-.4-.4-.6-.5-.6-.5-1.1-.6-1.7-.5v.3c.4.2.8.5 1.2.7zM739.6 199l-.1.3s.1-.1.1-.2v-.1zM736 200.7c-.1 0-.1.1 0 0-.1.1-.1.2 0 .2v-.2zM735.7 200.8v-.2l-.3-.2v.2l.3.2zM735.9 219.5l.4-.2c-.2-.1-.4 0-.4.2z"/>
        <path class="st4" d="M704 261.2c.5.3 1 .7.9 1.3-.1.3-.4.5-.7.7.1.2.3.6 0 1-.1.1-.2.2-.3.2.2.4.6.8 1 1.2.4.4.4 1.1.3 1.6.9 0 1.8 0 2.7-.1h.1c.2 0 .4 0 .6.1.1 0 .3.1.5.1 0-.1-.1-.2-.1-.3-.2-.4-.5-.9-.2-1.5.5-1 1.2-1.1 1.7-1.1 0-.1 0-.2.1-.3.3-.6 1.1-.5 1.7-.5.3 0 .6 0 .9-.1.5-.1 1.1-.2 1.7 0 .3.1.6-.2 1-1.2.2-.4.3-.8.6-1.1.3-.4.4-.9.4-1.4 0-.6 0-1.2.5-1.8-.2-.2-.4-.5-.3-.9 0-.1.1-.3.2-.4l-.1-.1c-.1-.1-.3-.2-.4-.3l.3-1c.2 0 .4-.1.5-.1l-.1-.3c.2-.1.3-.2.3-.2 0-.2-.6-.8-1.1-1l.1-.7h-.2l-.5-1.1c.7-.5 1.4-.4 2-.3.3 0 .6.1.8.1l.2-.5c.5 0 .9.1 1.2-.1l.1-.1v-.1l.1-.1c0 .1-.1.1-.1.1l.3-.3.3-1.1c.5 0 .8.3 1 .6.2-.2.4-.5.8-.6h.1c-.1 0-.2-.1-.3-.1-.4-.2-.6-.6-.5-1l.7-.2c.2-.3.5-.4.9-.6.2-.1.4-.2.5-.2.3-.2.6-.4 1-.6l-.1-.1.2-.2c-.1-.2-.4-.5-.5-.6-1.5-.3-1.5-.9-1.5-1.1v-.1c-.1 0-.1 0-.2-.1-.4-.1-1.1-.4-1.5-.9-.4.1-1 .2-1.4-.5-.1 0-.3-.1-.4-.1-.4-.1-.6-.1-.8-.2l.1-.7s0-.1-.1-.1c-.3-.4-.6-.8-.6-1.4v-1l.1-.5-.1-.1c-.1-.1-.2-.2-.3-.4-.1-.1-.2-.3-.2-.6.1-.2.2-.4.3-.4.1-.1.2-.1.3-.2v-.4c.1 0 .3-.1.4-.1v-.5c.1-.3.2-.6.4-1l-.3-.3c-.3-.4-.3-.9 0-1.5l1-.1c.1.2.4.1.4.1.1-.1.3-.2.3-.4 0-.1-.1-.3-.3-.4-.3-.3-.6-.8-.5-1.5l1.2.1s.1.1.1.2c.1.1.2.2.3.4h.2c.1-.1.2-.1.3-.1l-.1-.5c.6-.4 1.2-.6 1.8-.8.4-.1.9-.2 1.2-.5 0 0 .1-.1.1-.2.2-.3.5-.7.9-.7.3 0 .5.1.6.1 0 0-.2 0-.4.1l-.1.1.6-.2.1-.1c.2-.2.4-.5.8-.6.8-.1 1-.3 1-.4l.5-.1c.2-.2.5-.4.7-.6.2-.1.5-.4.6-.5.3-.8 1-1.3 1.7-1.7-.5-.3-1-.6-1-1.1-.1-.1-.3-.2-.4-.3l.7-1h-.2c.2 0 .9-.5 1.1-.7.1-.1.1-.2.1-.2s-.1-.1-.2-.1c-.1-.1-.3-.3-.4-.5l.4-.9h.2c.9-.1 1.2-.2 1.3-.2-.1 0-.2.2-.2.4v.2l.3-1h.4l.1-.2v-.5c.1-.4.3-.5.5-.6.4-.2.8.1 1.1.2.1 0 .1.1.2.1l.6-.3c.4.3.8.4 1.3.4l.2-.3c.4.3 1.1.3 1.8.1l-.5-.5c-.2-.1-.3-.3-.5-.5-.7-.7-.3-1.5 0-2.1.3-.7.4-.9.1-1.1l-.1-.1c-.5-.4-1.2-1-.9-1.7 0-.1.1-.2.2-.3-.3-.1-.5-.2-.7-.5 0-.1-.1-.1-.1-.2-.1-.2-.1-.4-.1-.6v-.7c0-.1 0-.3.1-.6-.2-.1-.3-.1-.4-.2-.2-.1-.4-.2-.5-.2-.3-.2-.4-.4-.6-.6-.1-.2-.2-.2-.2-.2-.2-.1-.5-.1-.8-.2-.2 0-.4-.1-.5-.1-.7-.2-1.5-.5-2.2-.8l-.5-.2c-.5-.2-1-.5-1.5-.8-.7-.4-1.5-.9-2.2-1h-.2v.1c0 .5-.2.9-.5 1.2l.1.9c-1.1.9-2.4.5-3.5.3-.5-.1-1.1-.3-1.5-.2-.4 0-.7-.1-1-.1-.1 0-.1 0-.2-.1H720.9v.1c.1.3.2.6.1.9-.3 1.5-1.8 1.3-2.6 1.1-.3-.1-.7-.1-.9-.1-.7.2-1.1.7-1.6 1.2-.3.3-.6.7-1 .9.4.4.8.8.7 1.4-.1.5-.7 1-1.6 1.6-.3.2-.7.5-.8.6-.2.2-.3.3-.5.4-.1 0-.1.1-.2.1 0 0-.1 0-.1.1.1.2.2.6-.1 1l-.1.1c-.6.6-1.7.8-2.8.8.1.9.3 2.4-.1 3.2-.1.2-.2.3-.4.4-.1.1-.3.3-.4.5-.2.3-.3.6-.6.8-.3.3-.6.5-.8.8l-.2.2c.5.2 1.1.6 1.3 1.2.1.3.1.6 0 1.1-.1.2-.2.4-.3.5-.6.6-1.8.5-2.8.4-.4 0-.8-.1-1 0-.3 0-.8.3-1.2.6-.1.1-.2.1-.2.2-.3.2-.6.4-.8.6-.1.1-.2.3-.2.4v.5c0 .1-.1.2-.1.2s0 .1-.1.1c0 .1-.1.3-.1.3s.1.2.2.3c.3.5.7 1.2 0 1.7-.1.1-.1.4 0 .9v.1c0 .1.1.3.2.4.5.9.3 1.7.2 2.3-.1.4-.1.7-.1 1.1 0 .1 0 .1.1.1 0 0 0 .1.1.1.2.2.5.3.9.4l.2.1c.4.2 1 .4 1.2 1 .2.5-.4 1.6-.6 1.9-.2.3-.4.4-.7.4-.5 0-.7.1-.7.1v.2c.1.2.2.3.4.5s.4.5.6.8c.2.6 0 1-.1 1.3 0 .1 0 .1-.1.1v.2c.1.9-.7 1.5-1.3 1.7-.3.1-.6.1-.8.2h-.1V246.2c0 .1 0 .2-.1.3-.1.2-.2.4-.3.5l-.1.2s.1.2.1.3c.1.2.2.5.1.8 0 .5-.2 1.7-.8 2.1-.2.2-.5.3-.8.2-.2 0-.4-.2-.5-.3 0 .2.1.3.1.5.1.4.2.7.2 1.1.2-.3.5-.4 1-.3l.2.5h.5l.5.7c0 .1 0 .2-.1.4 0 .1-.1.2-.1.3V253.8c-.1.6-.2.9-.1 1.1l-.2-.2h-.1l-.1.1.3 1c0-.1.1-.1.1-.2 0-.2-.1-.4-.1-.4.2.2.6.5.7.9 0 .2.1.3.1.5.6.2.8.9 1 1.2.2.5.5.8.8 1.2.2.2.4.5.6.7-.3 1.1-.1 1.3.1 1.5z"/>
        <path class="st4" d="m719.1 239.1-.1-.1c0 .1.1.1.1.1zM724.8 248.7zM718.4 239.3s-.1 0 0 0c-.1.1-.1.2 0 .2v-.2zM696.1 247.4zM723.6 248.3v.2c.1-.1.1-.1 0-.2.1 0 0 0 0 0zM697.8 249.5s.1 0 .2.1c.1 0 .3.1.4.1.3.2.6.5.7.7.2-.3.2-1.1.1-1.3-.4-.8 0-1.4.2-1.7.1-.1.1-.2.1-.2v-.1c-.2-1.2.9-1.4 1.4-1.5.5-.1.7-.2.7-.3l.1-.4V244.6c.1-.5.1-.8-.1-1.1-.3-.4-.9-1.3-.7-2 .1-.2.3-.6.7-.8.3-.1.5-.2.7-.2.1 0 .2 0 .2-.1 0 0 .1-.1.2-.5 0-.2-.4-.3-.6-.3-.1 0-.2-.1-.3-.1-.5-.2-.9-.5-1.2-.9v-.1c-.1-.1-.1-.2-.1-.3-.2-.4-.2-1 0-1.6.2-.9.1-1.3-.2-2.2 0-.1-.1-.2-.1-.4-.2-.5-.4-1.2 0-1.7.1-.1.1-.2.2-.3 0-.1-.1-.1-.1-.2-.1-.2-.3-.5-.4-.9-.1-.5.1-.9.3-1.1 0-.1.1-.1.1-.2 0-.5.3-1 .7-1.3.3-.3.7-.6 1.1-.9 1.3-1.1 2.6-.9 3.7-.7.7.1 1.1 0 1.2-.1v-.1c-.1-.4-.3-.5-.9-.8l-.6-.3-.1-.9c.2-.3.4-.5.7-.8l.4-.4c.1-.1.2-.2.2-.3.2-.2.4-.5.5-.7.3-.5.6-.9 1-1.2.2-.5 0-2.6-.1-3.1l.6-.8c1 0 1.9-.1 2.4-.3 0-.1-.1-.2-.1-.4-.1-.6.5-.9.7-1.1h.1s.1 0 .1-.1c.6-.6 1.1-1 1.7-1.5.2-.1.3-.3.5-.4-.1-.2-.5-.5-.6-.6-.1-.1-.2-.1-.2-.2l.1-1h.1c.1-.1.3-.1.4-.2.2-.1.4-.3.6-.5-.6 0-.9-.3-1-.6-.1.1-.2.2-.4.2.1 0 .1.1.2.1l-.2.3-.1 1.2c-.1 0-.3.1-.4.2 0 0 .1-.1.1-.2h-.2l.2.8c-.1.1-.3.1-.4.1l-.1.5c.1-.1.1-.1.1-.2v.2l-.1.1v.2h-.2l-.6.3c-.3-.2-.8-.4-1-.2l-.6-.3h-.3c.1.1.1.2.2.2-.1 0-.4 0-.7.1l-.4.8c-.1-.1-.2-.1-.6.1-.3.1-.7.2-1.1.1h-.1v.9h-.4l.1.3.1.3c-.1.1-.4.3-.8.5.5-.1 1.1-.2 1.6-.3l.6 1c-.2.2-.5.3-1 .5-.2.1-.3.1-.4.2.1 0 .2-.2.2-.3-.1 0-.3.1-.4.1l-.1.5h-.1c-.2 0-.6.1-.9-.1-.1-.1-.2-.1-.3-.2-.2.1-.3.1-.4.2.2.2.4.5.5.8l-1 .6c-.2-.2-.5-.3-.7-.3-.1 0-.1.1-.2.1h.1l-.3.7c.1 0 .2.1.2.1l-.1.4.1.4h.1l.7 1c-.4.4-1.1.8-1.8 1.1l-.3.7c-.3-.1-.6-.2-.9-.1-.3 0-.6.1-.9.3v.3c-.1 0-.2 0-.3.1h-.1l-.1.5c0-.1 0-.1-.1-.2l-.1.2.1.8c-.3 0-.7.2-1.1.5h.1l.1.4h.5l.2 1.2c-.1 0-.2.1-.3.1 0 .1.1.2.1.4l-.5.7c-.4.1-.9.2-1.3.5l-.3 1c-.4.1-.9.1-1.2 0h-.5c-.1 0-.3 0-.5.1v.4h-.4c-.3 0-.5 0-.7.1l-.4-1.1c0-.1-.1-.2-.2-.2l-.2.1c-.2.1-.4.1-.6.2v.1l.1.7-1.2.3-.4-.5h-.1c-.1 0-.1 0-.2.1l.1.9c-.3.1-.7.1-1 .1h-.2v.8c-.1 0-.2 0-.2.1.1 0 .2-.2.1-.4 0-.1 0-.2-.1-.2v.7c.1.1.2.2.3.4l-.9.8c-.1 0-.3-.1-.4-.2-.2-.1-.3-.1-.5-.2l-.2.4c-.3-.1-.7-.1-1.1-.1h-.1l.3.5c-.5.3-1.1.4-1.7.3l.3 1.1c-.3.1-.5.1-.7.1l.1.6c-.4.3-.9.4-1.4.3l-.2-1.1.1-.1c-.1-.1-.3-.2-.5-.3 0 .1.1.1.1.2l-.9.8c-.1-.1-.3-.2-.4-.3l-.1.7h.4c.4-.1.9-.1 1.3.1l-.5 1.1h-.6c-.2 0-.3.1-.5.1-.4.1-.9.2-1.1.3l-.1.1-.5-.3h-.7c-.2 0-.4-.1-.5-.2h-.5c-.1 0-.1.1-.2.1h.2v.2c.2.1.4.2.5.4.2-.1.5-.1.9-.1l.1 1.2c-.3.1-.6.1-.9.1l-.1.3c.7-.2 1.3-.3 1.8-.2.2 0 .3.1.5.2.1 0 .4.1.5.1 0 0 .1-.1.1-.2.1-.2.3-.7 1-.8l.3.6c.2.1.9 0 1.1-.1l.2.3h.2v-.2c.2-.8 1-1.2 1.3-1.3l.6 1c-.1 0-.2.1-.3.2l-.1 1.2c-.3 0-1.3.3-1.4.4 0 0 .1-.1.1-.2h-.2l-.4.9h-.3c-.1 0-.2.1-.3.1l-.4-1v.2c-.1-.1-.4-.2-.5-.2-.6.4-1.3.3-1.9.2-.2 0-.5-.1-.6-.1-.3 0-.6.1-.9.1-.2 0-.4.1-.7.1l-.1.6c.2-.1.4-.3.6-.3l.7.4c.1.2.1.5 0 .8 0 .6-.2.9-.4 1.1l.2.1c0 .1 0 .2-.1.4l.1.1v-.1c.2-.4 1.2-1.1 1.5-1.2 1-.4 2.2-.6 3.1-.4v1.2c-.6.1-.8.3-1.2.8-.1.2-.3.4-.5.6l-1-.5c-.1.1-.2.2-.3.2 0 0 .1-.1 0-.3 0-.1 0-.1-.1-.2 0 0-.1 0-.1.1l-.1 1.1c-.2 0-.5.2-.8.4.1 0 .1 0 .2-.1l.7.9c.3-.1.5 0 .7 0h.2l.3 1.2c-.1 0-.1 0-.2.1l.1 1.1c-.1 0-.3.1-.5.1.2 0 .4-.1.6-.1l.2 1.2c-.2 0-.3.1-.5.1-.3.1-.5.1-.8.2l-.2.6c-.6 0-1.1-.2-1.5-.4-.1 0-.1-.1-.2-.1s-.2.1-.2.2c0 .2.5.8 1.4 1.4.9.5 1.8.7 2.2.6.1 0 .1-.1.2-.1l.5 1H684.1c.3 0 .5.1.7.1.2 0 .3.1.5.1.1 0 .4-.1.6-.2.2-.1.3-.2.5-.2.2-.1.4-.1.6-.2.7-.2 1.3-.4 1.9-.8.2-.1.4-.3.5-.5.3-.3.6-.6 1-.8l.4-.6c.2 0 .4 0 .6-.1l.3-.5c.2 0 .6-.2.7-.3v.1l.4-1c.3.1.5.2.8.4.1.1.2.1.4.2l.2-.2c.1-.1.3-.2.4-.2.1-.1.3-.1.4-.2 0 0 .1-.1.1-.2s.1-.2.1-.2c0-.2-.2-.3-.4-.5l.6-.9.3-.1c-.1-.2-.2-.4-.1-.7 0-.5.3-.9.8-1 .4-.1.8 0 1.1.3.3.3.3.8.1 1.3l-.3-.1v.2c0 .3 0 .7.2 1 .1.4.2.4.7.6-.8.1-.6.1-.4.2zM700.5 268.7c.1.1.1.2.1.4l.1.1v-.3c.1-.4.4-.6.8-.8l-.1-.1c-.3-.3-.4-.7-.3-.9v-.1c-.2.1-.3.1-.5.1l-.1-.3c-.1.1-.2.1-.3.1l-.3.1-.3-.2c-.3-.2-.4-.5-.5-.8-.3.2-.7.4-1 .5.4.5.6.9.4 1.4v.1l.1.1h.7c.5 0 1 .2 1.2.6zM741.6 251.7v-.4l-.2.2-.4-.3c0 .2 0 .3-.1.4-.1.3-.4.4-.6.5.1 0 .2 0 .3.1l.2-.4c.2-.1.5-.2.8-.1zM732.6 231.6l-.2-.2c0 .1.2.2.2.2zM725.1 246.7l.5-.6c-.1 0-.2.1-.3.2-.2.1-.2.3-.2.4zM737.5 253.8l.1.1c.1.1.2.1.2.2.3-.3.7-.3.9-.4h.3l.1-.1h.5c.1-.1.2-.2.3-.2l.1-.1s.1 0 .1-.1h-1.3c-.3 0-.3 0-.5.1-.1.4-.5.4-.8.5zM739.1 251.1c-.1 0-.1 0 0 0v.2c0-.1.1-.1.1-.1l-.1-.1zM725 258c-.2-.5.1-1 .4-1.5-.5.1-1 .5-1.6 1.1-.2.2-.1 1.1.1 1.4.4-.3.8-.7 1.1-1zM700 265.9h.1-.1zM698.6 265.7v-.2l-.2.1s.1.1.2.1zM701.7 266.4c.2-.1.3-.2.5-.2.1 0 .2-.1.2-.1v-.3c0-.2-.1-.5-.1-.8-.2 0-.4 0-.7.2.2.3.2.7.2 1.1-.1 0-.1 0-.1.1zM723.6 248.7h.1zM727 256.1h.1-.1zM769.3 215.4c-.1.2 0 .5.1.5l.2-.8-.1-.1c-.1.1-.2.2-.2.4zM755.1 265.8s-.1 0 0 0c-.1 0-.1 0 0 0zM735.7 269.4v-.7c-.1.1-.2.1-.2.2-.2.1-.3.3-.5.4.2.1.6.2.7.1zM775.8 243.2s-.1 0 0 0c-.1 0-.1 0 0 0zM769.8 204.2zM777 219.8c-.1.1-.1.2-.1.3l.3-.5s-.1 0-.2.2zM696.2 263c-.4-.1-1.1-.2-1.5-.2l-.2-.1-1-.1c0-.1 0-.2.1-.2l.2-1.4h.1c0-.2-.1-.2-.1-.3l.4-1.3c.2-.1.4-.3.6-.6.1-.2.1-.4 0-.7 0-.1-.1-.3-.1-.5-.6.2-1.2.5-1.4.7-.1.1-.2.2-.3.4l-1.9 2.1-1.3.8v-.1l-.1.1v.1l-.7 1.3c-.2.2-.4.2-.6.2-.1 0-.4 0-.7-.4-.2 0-.5-.1-.7-.2-.1.4-.1.8-.1 1.2l.5 1.5-.3.9-.2.4h-.1c-.1 0-.2.1-.2.1l.4-.1.5 2.1 1.5.6h.1c.3 0 1.1.2 1.6.4h.5l-.4-.4v-.3l.4.6 1.4.3h1.1l.3.8 1.4-2.1c.3-.1.4-.3.4-.5s-.1-.3-.3-.4v-1.5l.2-.1h-.2l.5-3.1c.1.3.2.2.2 0zm-1 .1h.2-.2z"/>
        <path class="st4" d="m687.1 264.8-.5.2.5-.1c-.1-.1 0-.1 0-.1z"/>
    </g>
</svg>
