<svg xmlns="http://www.w3.org/2000/svg" viewBox="0 0 1440 980" style="enable-background:new 0 0 1440 980" xml:space="preserve">
    <style>
        .st0{display:none}.st1{display:inline}.st2{fill-rule:evenodd;clip-rule:evenodd;fill:none;stroke:#bcbcbc;stroke-width:.75;stroke-miterlimit:1.2402}.st4,.st5{fill:#bcbcbc}.st5{display:inline}
    </style>
    <g id="Layer_6">
        <path class="st4" d="M871.8 623c-.4-1.2-.4-2.4-.4-3.5v-.6c-.1-2.4-.6-4.9-1.5-7l-.5-.4s0 .1.1.2l-.2-.2c-.4-.4-.3-.9-.2-1.1-.1-.2-.2-.3-.3-.5-.1-.2-.2-.5-.3-.5 0 0 .1.1.2 0l-.5-.2-.3.3c-.2.2-.5.5-.8.7.4.9 0 2-.2 2.7l-.1.3c0 .1-.1.3-.1.4-.2.8-.4 1.6-1.5 1.8 0 .1-.1.2-.1.3l-.2.2h-.3c-.1.1-.1.3-.2.5 0 .1-.1.3-.1.4l-.6.4c-.4 0-.6-.3-1-.8 0-.1-.1-.1-.2-.2 0 .3.1.5.3.8l.1.2c.2.5.1 1.6-.2 1.9l-.3.3-.4-.1h-.1c-.1.1-.4.2-.4.3 0 0 0 .1.1.2 0 0 .2.1.3.2.3.1.7.3.9.7.1.3.1.6-.1 1l-1.1-.4h.1s-.1 0-.3.1c-.2.1-.3.4-.4.7-.2.5-.5 1.1-1.3 1.4l-.7-.4c-.1.1-.4.3-.4.4 0 0 .1.3.2.4.1.1.1.2.2.3.2.3.1.6.1.8-.2.5-.6.7-1 .8-.1 0-.3.1-.3.1l-1-.6c0-.1.1-.3.2-.5 0-.1.1-.2.1-.3-.2.1-.4.3-.5.4l-.5.5-.2.1c-.1.1-.5.3-.6.5 0 .2 0 .4-.1.5.2.1.5.3.6.7l-.6.8h-.2c-.4 0-1.3 0-1.4-1.1l-.9.2c-.1 0-.5-.1-.7 0v.2c-.1.3-.1.6-.4.9l-.9-.4s.1 0 .1.1c.1.1.2.1.2 0-.1 0-.2.2-.2.2l-1.1.2s0-.1-.1-.1c-.3.3-.7.6-1.1.8-.4.1-.8.1-1.1.1h-.5v.6c0 .3 0 .6-.1.8 0 .8-.4 1.6-.7 2.1l-.6.9c-.5.7-1.4 1.8-1.1 2.3.4.7.3 1.6.3 2.3 0 .4-.1.7 0 1 0 .4.2.8.4 1.2.2.5.5 1.1.4 1.7v.2c0 .8 0 1.2.4 1.8.6 1 .4 1.6.2 2.3 0 .1-.1.2-.1.4 0 0 .1.1.1.2.1.2.5.7.1 1.4-.2.4-.5.9-.8 1.3-.2.3-.4.5-.5.8-.1.2-.3.4-.4.6-.3.5-.7 1-.9 1.6-.1.1-.1.3-.1.5-.1.6-.2 1.4-1.1 1.8l-.2.1c-.7.2-.7.2-.7.9-.1.6-.4 1.2-.7 1.7-.2.3-.4.6-.5 1 .1.6.1 1.1.1 1.7 0 .9-.1 1.7.4 2.3.4.5.5 1.1.7 1.5 0 .2.1.4.2.6 0 .1.1.2.2.3.2.3.7.9-.1 1.8-.4.5-.4 2.5 0 3.2.1.2.2.4.3.5.3.5.5 1.1.7 1.8.2.7.5.9 1.1 1.4.2.1.3.2.5.4l-.1.2h.1c.1 0 .3 0 .5.1.2 0 .4 0 .6.1.6.2 1 .5 1.4.9.3.3.6.5.9.6.7.2 1.6-.4 2.5-1 .6-.4 1.3-.9 1.9-1.1.4-.1.8-.1 1.1 0 .2 0 .4.1.5 0 .1 0 .3-.1.4-.2.2-.1.5-.3.9-.3.3-.1.6-.7.7-.9.3-.6.5-1.2.7-1.9.2-.6.4-1.1.6-1.5.2-.4.4-.7.5-1.1.2-.5.3-1 .5-1.4.4-1.2.8-2.4 1.1-3.6.5-1.7 1.1-3.3 1.7-4.8.3-.8.6-1.5.9-2.3.3-.7.5-1.5.7-2.2.4-1.2.7-2.4 1.3-3.6l.1-.2c.2-.4.5-1.1.4-1.4l.6-.8c-.2 0-.3.1-.3.1.1-.1.2-.3.4-.9l.1-.2.6-1.8c.2-.7.4-1.5.7-2.2l.2-.5c.7-1.7 1.3-3.2 1.7-5 .1-.4 0-.9 0-1.4-.1-1.3-.2-2.8 1.4-3.7.1-.1.4-.9.5-1.3v-1.3c-.2-.1-.6-.4-.6-1v-.3c-.1-1.8-.1-2.9.5-3.3.3-.2.6-.2 1-.1.7.3.9 1.1 1.1 1.7.1.3.2.8.3.8.2-.1.7-1.3.9-2.3.1-.3 0-.5-.2-.9-1.1-.5-1.3-.8-1.4-1.1zM790.3 683.7h-.7l-.4.7c0 .1-.1.2-.1.2 0 .1-.1.3-.2.4l-.4.4c-.4.3-.8.4-1.2.4-.8 0-1.5-.4-2.1-1-.3-.3-.4-.5-.6-.7l-.1-.1-.1-.1c-.1-.2-.2-.3-.4-.5-.1-.1-.2-.2-.3-.4l-.3-.3.2-.2-.3-.6c.2-.2.5-1.1.6-1.4.1-.2.1-.4.2-.5l.1-.2c.1-.2.2-.5.4-.8.3-.4.5-.6.8-.8l.5-.5.1-.1.1-.1 2 .1c.1 0 .2.1.2.1v-.1c0-.2.1-.4.2-.6 0-.1.1-.2.1-.3.1-.4.1-1.2.1-1.5v-1.5c0-.6 0-1.3.1-1.9 0-.6 0-1-.2-1.6 0-.2-.1-.4-.1-.6-.1-.6-.4-1.2-.7-1.7-.3-.6-.6-1.2-.7-1.9-.1-.4-.1-.7-.1-1.1 0-.3 0-.6-.1-.8-.1-.9-.3-1.6-.5-2.3 0-.1-.1-.2-.1-.2h-.1l-.2-.3c-.2-.4-1.4-.3-2.1-.3h-.8c-.9 0-1.6-.3-2.3-.5l-.3-.1c-1.2-.4-1.7-.3-2-.3h-.2c-.3 0-.5.1-.7.1h-.1c-.2.1-.2.2-.3.4-.1.2-.2.3-.3.5-.5.7-1.3.8-2 .9-.1 0-.3 0-.4.1-.2.1-.5.1-.7.2-.1 0-.1.1-.2.1-.2.3-.5.6-.7 1-.4.6-.9 1.3-1.5 1.8l-.1.1c-.2.2-.5.4-.8.6-.3.2-.6.3-.8.5-.4.2-.7.3-.9.6-.6.6-.6.7-.7 1.7-.1 1.2-.7 1.8-1.3 2.4-.2.2-.5.5-.7.8-.7.8-1.6 1-2.7 1.2v.6c-.1.6-.3 1.2-.6 1.7-.1.3-.2.6-.3.8-.4 1.2-1.1 1.8-2.1 1.9h-.9c-.3 0-.5 0-.7.2-.1 0-.1.1-.2.1-.1.1-.2.1-.4.1h-1.3c-.3-.1-.7-.2-1.2-.4-.4-.2-1-.4-1.2-.4-.9-.1-1.5-.6-2-1.1l-.4-.4c-.3-.2-.7-.4-1.1-.4-.2 0-.3 0-.4.1h-.1c-.1.1-.2.1-.3.3-.3.4-.4.9-.5 1.4-.1.6-.2 1.2-.7 1.8-.4.6-1 1-1.5 1.4-.2.2-.4.4-.6.7-.2.3-.4.6-.6.8-.4.4-.8.4-1 .4v.2c-.2.7-1 1-1.7 1h-.2c-.3 0-.5-.1-.7-.1-.2 0-.3-.1-.5-.1-.1 0-.2 0-.3-.1h-.9c-.1 0-.3.1-.5.2l-.9-.2c-.4-.9-.4-1.6-.2-2.2v-.1c.1-.2.2-.5.3-.7.3-.8.6-1.6.3-2.7 0-.2-.1-.4-.2-.6-.1-.2-.1-.3-.2-.5s-.1-.4-.2-.6c-.2-.4-.4-.9-.6-1.3-.2-.3-.4-.5-.7-.8l-.4 16.3c.1 1.4-.9 1.6-1.4 1.7-.3.1-.5.1-.6.2l-.2.2c-.2.2-.4.6-1.1.8h-.1l-.2.7c-.3.1-.6.1-.8.1-.3 0-.5-.1-.8-.2-.2-.1-.3-.1-.6-.2h-.6c-.2 0-.4.1-.6.1-.6.1-1.2.2-2 0-1.7-.4-3.4-1.1-3.6-1.9-.2-.6-.2-.9-.1-1.2v-.1c-.1-.1-.3-.1-.4-.3-.1-.1-.2-.3-.4-.5l-.1-.1c-.3.3-.4.6-.4.9-.1.3-.2.7-.5.9-.2.1-.4.3-.7.5.1.5.4 1 .7 1.5.3.5.6.9.8 1.4.3.8.5 1.5.7 2.3.1.5.2.9.4 1.4.8 2.6 2.1 4.9 3.3 7 1 1.7 1.5 3.4 1.5 5.2 0 .7-.2 2-1 2.5-.2.1-.5.2-1 .1v.2c.5.1.6.5.7.7.1.1.1.2.2.3l-.1.1c.1.2.5.8.7 1 .1.2.2.3.3.4.4.6.8 1.4.6 2.2 0 .2-.1.4-.2.6.8-.2 1.3.2 1.5.5.2.3.3.6.3 1 .9.1 1.8.3 2.1.9 0 .1.1.3.1.5.2.1.4.3.5.4l.2.2h.8c.2 0 .3.1.4.1l.1-.1.5-.4c.5-.4 1.1-.8 1.6-1.1.4-.2.7-.2 1-.2.2 0 .4 0 .6-.1.5-.2 1.2-.1 2 0 .5.1 1.8.2 1.9 0 .8-1.4 3-2.1 4.5-1.8v.2h.9c.3 0 .5 0 .8.1.1 0 .1 0 .2.1.1-.1.3-.2.5-.3 1.4-.5 2.9-.1 4.3.4 1 .4 1.2.3 1.9-.3.1-.1.3-.2.4-.3.8-.5 1.6-.2 2.2 0 .1 0 .2.1.3.1v-.1c.1-.7.9-1.2 1.4-1.4.6-.2 1.2-.1 1.7 0 .3.1.7.1 1 .1 1.6-.2 3-1.3 4.3-2.3l.2-.1c1.3-1 2.5-2 3.7-3 .5-.4 1-.8 1.5-1.3.6-.5 1.1-1.2 1.7-1.8.6-.7 1.1-1.4 1.9-2 1.7-1.4 2.9-2.6 4.1-4.2.7-1 1.4-2.1 1.8-3l.6-.9c.3-.3.5-.6.6-.9.5-1.6 1.7-2.9 2.5-3.9l.1-.2c.3-.3.7-.8 1.2-.9h.2c.1 0 .3 0 .3-.1-.1 0-.2.2-.2.3l.6-.9c1 .1 1.6-1.9 1.8-2.8.2-.8.4-1.6.6-2.3.3-1.1.6-2.2.9-3.4h-1.9zM777.2 697l-.1.1c-.3.4-.4.6-.5 1-.1.2-.1.3-.2.5-.4.9-1.9 1.4-2.2 1.5-.2.1-.4.1-.7.1-.5.1-.7.1-.9.4-.1.1-.2.4-.3.6-.2.5-.5 1.1-.9 1.4-.3.2-.6.3-.9.3-1 0-1.9-1-2.5-1.6-.1-.1-.2-.2-.2-.3-.3-.3-.4-.7-.5-1.1-.1-.2-.1-.4-.2-.5-.3-.3-.4-.7-.5-1.1-.1-.3-.2-.6-.4-.8l.1-.9c.3-.2.6-.3.8-.5.1 0 .2-.1.3-.1.3-.1.5-.3.6-.5.2-.3.3-.5.4-.8.2-.4.4-.8.7-1.2.4-.5.9-.6 1.3-.7.2 0 .3-.1.5-.2s.3-.2.4-.3c.2-.1.5-.3.8-.4.1 0 .2-.1.3-.2.5-.3 1.4-.9 2.1-.2l.9.9.8.8c.2.2.4.3.5.5.4.4.8.7 1.1 1.7.2.6-.3 1.2-.6 1.6z"/>
        <path class="st4" d="M776 694.6c-.2-.2-.4-.3-.6-.5l-.8-.8-.9-.9c-.1 0-.4.2-.5.3-.2.1-.3.2-.5.3l-.6.3c-.2.1-.3.2-.5.3-.3.1-.5.2-.7.3-.3.1-.5.1-.6.3-.2.3-.4.6-.6 1-.2.3-.3.6-.5.9-.4.6-.9.9-1.4 1.1 0 0-.1 0-.1.1.1.2.2.4.3.7.1.3.2.5.3.7.3.3.4.7.4 1 .1.2.1.4.2.5l.3.3c1.1 1.2 1.5 1.3 1.7 1.2.1-.1.4-.7.5-1 .1-.3.2-.5.3-.7.5-.8 1.2-.9 1.7-1 .2 0 .3 0 .5-.1.7-.2 1.4-.6 1.4-.8.1-.2.1-.3.2-.5.2-.4.3-.8.7-1.4l.1-.1c.1-.1.4-.4.4-.6-.2-.4-.4-.5-.7-.9zM829.1 619.4c0-.1 0-.1.1-.2l-.3-.1c-.1-.4-.1-.9 0-1.7 0-.5.1-1.3 0-1.6-.6-.3-.4-1.1-.2-1.7.1-.3.3-1 .2-1.2l.1.1-.4-1c.2-.3.4-.8.3-1.1 0-.1 0-.1-.1-.2-.1-.2-.3-.5-.2-1 .1-.2.1-.3 0-.4-.1-.4-.1-.6 0-.9 0-.1.1-.2.1-.4V606.2c0-.4 0-1.2-.1-1.4-.2-.2-.3-.4-.3-.6 0-.5.3-.8.5-1l.2-.2c0-.1.1-.3.1-.5 0-.3 0-.7.2-1v-.7c.1 0 .1-.1.1-.1-1.3 1-2.5 1.7-3.6 2.4-.1.1-.3.2-.4.3-.2.2-.5.3-.7.4l-.1.1-.1.1c-.5.2-.8.1-1 0h-.3l-1 .5c-.4.3-.9.5-1.3.7-.6.2-1.1-.1-1.5-.4-.1-.1-.3-.2-.5-.3h-.1c-.3.1-.5.5-.7.8-.3.5-.7 1-1.3 1.3-.1.1-.2.1-.3.1-.2.1-.5.2-.8.2h-.6c-.3 0-.5-.2-.7-.3 0 0-.1 0-.1-.1l-.3-.3-.1-.1s-.2.1-.3.2c-.3.3-.8.6-1.5.6h-.3c-.2 0-.5 0-.7-.1h-.5s-.1 0-.1-.1c-.3-.1-.5-.3-.8-.7-.3-.3-.4-.4-.5-.4h-.2c-.1 0-.1.1-.2.1-.6.6-2 .6-3 .5 0 1.4-.4 1.9-1 2.4l-.2.2c0 .1 0 .2-.1.3 0 .2.1.6.4 1.8.1.4 0 .7-.1 1-.1.4-.2.7-.1 1.2.2.6.2 1.1.2 1.6v.3c.1.1.2.1.3.2.5.3.7.7 1.4 1.7.2.2.3.5.5.7.4.7.9 1.4 1.4 2 .5.6.8 1.2.9 1.8.1.4.1.7 0 1.1v.1c0 .1 0 .3-.1.4v.4c-.1.3-.1.6-.1.8v1c0 .6.1 1.2 0 1.8 0 .1-.1.3-.1.5-.1.3-.2.6-.4.9l-.1.1-.1.1c-.1.1-.1.2-.2.3-.3.3-.7.3-1 .4-.2.1-.4.1-.6.2-.1.1-.1.3-.2.4-.1.3-.2.6-.4 1 .2.5.5 1.1.5 1.6v1.1c0 .1 0 .1-.1.2s-.1.3-.2.4c-.1.1-.1.1-.2.1h-.1c-.1 0-.2.1-.2.1h-.1c-.3.1-.6 0-.9-.1h-.1l-.1-.1-.2-.2c-.1-.1-.1-.2-.1-.2V633.5c0-.2 0-.4.1-.6 0-.1.1-.2.1-.3l-.4-.4c-1.2-1.2-1.9-2-2.3-2.5 0-.1-.1-.1-.1-.2v-.1c-.2-.4-.3-.6-.3-.7 0-.3-.1-.5-.1-.6v-.2c-.1-.4-.2-.6 0-1.3.2-.7.4-1.5.8-2 .3-.4.3-.5.3-1v-.4c.1-1.2 0-2.1-.4-2.7-.1 0-.3.1-.4.1-.3.1-.6.2-.9.2h-.6c-.2 0-.3 0-.4.1.1 0 .1-.1.1-.2l-.2.1-.9.3-2.2-2.4c-2.3 1.1-4.8 1.9-7.1 2.7-.1 0-.3.1-.4.1-1.6.6-3.2 1.2-4.7 1.7.1.2.2.5.3.7.3.7.5 1.4.5 2v1.1h1.1c.4 0 .8 0 1.2.1.1 0 .3 0 .4.1.1 0 .3.1.4.1.1 0 .3.1.4.2.1 0 .2.1.4.1.1 0 .2.1.3.1l.2.1c.5.2 1.4.7 2.1 1.1.2.1.5.3.6.3.3.1.7.2 1 .3.7.1 1.5.3 1.9 1 .1.1.1.2.5.1l.4.3.4.4v.1c0 .1 0 .2-.1.2 0 .1-.1.3-.1.4-.2.4-.2.6-.1.9.3.7.2 1.2.2 1.7 0 .3-.1.6 0 .9.2.6.1 1.2 0 1.7-.1.4-.2.8-.1 1.1 0 .1.1.3.1.4.1.3.2.7.1 1.1v.1s0 .1-.1.1c0 .1-.1.1-.1.1l-.3.3v.4c0 .3 0 .8-.4 1.1-.1.1-.2.1-.3.2-.2.1-.3.1-.3.3.1.1.2.1.4.2.3.2.3.6.3.9 0 .2 0 .3-.1.5-.1.3-.2.5-.3.6-.1.1-.1.2-.1.2s.2.5.3.7l.6.4v.6c.1.5.1 1-.4 1.8-.1.2-.2.4-.3.7-.3.7-.7 1.6-1.5 1.9-.1 0-.1.1-.1.1v.2c.1.3.1.6 0 1-.1.3-.2.6-.3.8-.2.5-.3.6 0 .9l-.8.9c.1 0 .1.1.2.1h.2c-.5.2-1.9 2-2.6 2.9-.8 1-1.2 1.5-1.4 1.6-.1.1-.2.1-.2.2l-.1.1c-.1.1-.1.2-.2.3l-.1.1c0 .1.1.2.1.3 0 .1 0 .1.1.2v.1c.3 1.1.6 2.4.6 3.7 0 .6.3 1.3.6 1.9.1.3.3.6.4.9.8 2 .7 4 .6 6v1.1c0 .6 0 1.2-.2 1.8v.2c0 .1-.1.3-.1.4v.4c0 .1 0 .3.1.7l.2.2.1.2c.1.2.2.4.2.6v.1c.2.6.2.8.1 1.1 0 0 0 .2.1.8v.1c0 .2.1.3.1.5 0 .1.1.2.1.3h.4l1.7.1c.1-.3.1-1.4.1-1.9v-.2c-.4-.1-.8-.5-1.1-.8-.1-.1-.3-.4-.4-.4h.1l-.1-1.2c.3 0 .5-.3.7-.8.1-.1.1-.3.2-.4.4-.8 1.1-1.3 1.8-1.7l.2-.1c1.5-1 3.2-1.6 5.1-2.3 1.5-.5 3-1.1 4-2.2.8-.9 1.2-1.7 1.3-2.2l-.8.1v-.2c-.1-1.1.3-2.2.6-3.2.2-.6.5-1.2.5-1.8 0-.2 0-.4-.1-.6-.1-.3-.2-.7-.2-1.1v-.2h-.1c-.8-.5-.7-1.4-.6-1.8v-.2c.1-.3 0-.7-.1-1 0-.2-.1-.4-.1-.6 0-.3-.1-.7-.3-1.1-.1-.4-.3-.9-.3-1.3-.2-.3-.2-.8-.1-1.5v-.2c0-.6-.1-1-.4-1.3l-.5-.5c-.5-.4-.7-.8-.7-1.8 0-.2 0-.3-.1-.4l.5-.9-.1.1c.1-.2.1-.4 0-.5-.1-.2-.2-.5-.2-.8 0-.1 0-.4-.1-.5l-.4-1.1c.3-.1.5-.2.8-.1.5.1.8.7 1 1.1 0 0 0 .1.1.1.1-.1.4-.3.9-.8l.1-.1c.6-.6 1.1-1.2 1.6-1.9l.2-.2c.5-.6 1.1-1.1 1.7-1.5.3-.2.6-.4.9-.7l.2.1v-.2l.7-.1c.1-.9.9-1.5 1.5-2 .4-.4.9-.8 1-1.1 0-.2-.1-.4-.3-.5l.8-.9c.2.2.9-.5 1.3-.9.4-.3.7-.7 1-.8.3-.1.5-.3.8-.4.6-.3 1.2-.5 1.6-.9.4-.3.6-.4.9-.5.1 0 .2 0 .4-.1.4-.1.7-.3 1-.5.2-.1.6-.2 1.2-.4.3-.1.8-.2 1.1-.3.2-.7 1-1.1 1.9-1.7.4-.2 1.1-.6 1.2-.8.1-.2.2-.4.4-.5l.1-.3.4-.3s0-.1.1-.1l.9-1.2c.3-.6.7-1 1.1-1.4.3-.4.7-.7.9-1.1l.1-.1c.3-.6.3-.8.3-.9 0 0 0 .2.1.3.1.1.2.1.3.1l-.8-.8c.1-.3.3-.5.5-.6-.1-.3 0-.5.1-.6l.2-.2v-.3c.4-.2.4-.3.4-.8v-.4l-.6.2c-1.2.3-1-.2-.9-.7zM721.3 691.2c.2-.1.3-.2.5-.3.1 0 .2-.1.3-.1.1-.7.6-2 1.5-2.2h.2c.8-.1 1.2.6 1.3.8 0 .1.1.2.1.2 1 .3.8 1.2.7 1.6 0 .1-.1.3 0 .3.5.6 1.2.8 2 1 .3.1.5.1.8.2.5.2 1 .1 1.5 0 .3-.1.6-.1.9-.1h.2c.5 0 .8.1 1.1.2.1 0 .2.1.3.1v-.1c.1-.5.6-.7.9-.8h.1c.1 0 .1-.1.2-.3.2-.3.5-.7 1-.8.1 0 .2-.1.3-.1.2 0 .5-.1.6-.2l.4-18.2.5-14.1.6-.5h3.4l.5-18.1.5-.6c.6-.1 1.4-.2 2.4-.4 1.5-.2 3.4-.4 4.6-.9 0 0 2.3-.8 3.3-.1.8.4 1.1 1.2 1.4 1.8.1-.2.3-.3.4-.5.7-.8 1.4-1.6 2.4-1.8.4-.1.8-.1 1.2.3l.1-.1.1-.1c.1-.2.3-.3.5-.5.3-.2.5-.3.8-.4-.1-.1-.3-.2-.4-.2 0 0-.1 0-.3.1-.4.1-1 .3-1.9-.2-.3 0-.6 0-.9.1-.1 0-.1 0-.2.1-.3.1-.7.2-1.1.2h-.3c-.1 0-.2.1-.3.1-.3.1-.6.1-.8.2v.1l-1.7.3c-2 .4-4.1.8-6 1.3-.9.2-1.4.1-1.9 0-.2 0-.4-.1-.7-.1-.2 0-.4.1-.6.2-.1 0-.2.1-.3.1-.2.1-.4.1-.6.1h-.4c-.3 0-.6-.1-.8-.2-.1 0-.2-.1-.4-.1-1.2-.3-2.5-.4-3.8-.5-.9 0-1.9-.1-2.9-.2-.4-.1-.6-.2-.9-.3-.1-.1-.2-.1-.3-.2-.1 0-.1-.1-.1-.1-.4-.4-.7-.8-.9-1.3-.1-.1-.3-.2-.6-.2h-1.1c-3.7.2-7.5.1-11.2.1-1.8 0-3.6-.1-5.4-.1-1.1 0-1.4-.1-2.1-.6-.1 0-.1-.1-.2-.1-.1-.1-.2-.1-.3-.2-.2-.1-.3-.2-.5-.4-.7-.6-1.1-.9-1.7-.8h-.1c-.1 0-.1 0-.2.1-.1 0-.1.1-.2.1s-.1.1-.2.1c-.1.1-.3.2-.4.3-.2.1-.3.2-.5.3l-.1.1c-.1 0-.1.1-.2.1-.1.1-.2.1-.3.1-.5.2-1.1.3-1.7 0-.7-.3-.9-.2-1.3-.1-.1.1-.3.1-.5.2-.1 2.1.1 4.5 1.9 6.2 1.3 1.2 2 2.9 2.6 4.6.3.9.6 1.7 1 2.4.5 1 .9 2 1.3 3 .5 1.5 1.1 2.9 2 4.1.3.4.4.8.5 1.1.1.2.1.4.2.6.2.3.4.7.7 1 .1.2.3.3.4.5.8 1.2 1.3 2.3 1.4 3.3.2.3.1.9-.3 2.4 0 .1 0 .2-.1.3-.1.3 0 1.3.1 2v.3c.1.5 0 1 0 1.5 0 .7-.1 1.4.2 2.1.1.3.3.6.4 1 .4.8.7 1.7.9 2.6.1.4 0 .8 0 1.2 0 .3-.1.6 0 .9.1.4.1.8.1 1.1v.5c0 .3.1.5.1.8.1.4.2.9.2 1.4v.3c0 .3 0 .3.1.4.6.7.6 1.3.6 1.8v.7c0 .2.1.3.2.5s.3.6.4 1l.1.4c.1.4.1.8.3 1.1l.1.2c.4.9.9 1.8 1.5 2.6.4.5.8 1 1.3 1.5.4.4.8.8 1.1 1.2.3-.4.4-.4.4-.3zM789.2 682.5c-.1-.2-.1-.4-.1-.6-.1-.5-.2-1-.1-1.4v-.5c-.1-.1-.1-.3-.2-.4l-.2-.1v-.2c-.2-.2-.5-.4-.7-.5-.3-.1-.6-.1-1-.1-.2.3-.4.4-.6.5-.2.2-.4.3-.5.6l-.6 1.5c-.1.4-.2.6-.3.8l.2.2c.1.1.2.3.5.6.1.1.2.3.3.4.1.2.2.3.3.5.4.5.9.8 1.4.8.2 0 .4-.1.6-.2.1-.4.2-.8.7-1.6l.1-.3h.2z"/>
        <path class="st4" d="M775.4 660.4c.3-.1.3-.2.5-.5.1-.1.1-.3.2-.4.1-.2.4-.4.6-.5-.6-.4-.5-1.1-.4-1.3-.4-.3-1.2-.3-1.9-.4-1.2-.1-2.4-.3-2.8-1.2-.1-.3-.3-.6-.4-.9-.3-.5-.5-1-.7-1.6 0-.2-.1-.4-.1-.5v-.4c0-.2 0-.4.1-.5.2-.6.1-.8.1-.9 0 0-.2-.2-1.3 0l-.7-.7v-.2c.2-1-.1-1.4-1.1-1.7-1.3-.4-2.9-1.8-3.6-2.8-.5-.7-.7-1.6-1-2.3-.3-.9-.5-1.7-1.1-2.4-.5-.6-1.3-1.7-1.7-2.8 0 0 0-.1-.1-.1 0 0 0-.2-.1-.3 0-.2-.1-.4-.1-.5-.3 0-.6.2-.9.3l-.2.1c-.1 0-.2.1-.3.3l-.2.2c-.2.2-.5.4-.8.4H757.1c-.1 0-.1 0-.2-.1-.2-.1-.3-.2-.4-.2h-.3c-.3.2-.8.6-1.6 1.5-.5.5-.8.9-1.1 1l-.1.1-.8-.3c-.1-.2-.2-.3-.2-.6-.2-.5-.4-1.1-.8-1.4-.1-.1-.2-.2-.3-.2-.9-.1-1.9.2-3 .5-.5.1-.9.3-1.3.3-.9.2-1.8.3-2.8.4-.6.1-1.2.1-1.8.2l-.6 18.2-.6.6h-3.3l-.4 13.4c.2.2.3.3.5.4.4.3.8.6 1.1 1.1.3.5.6 1.1.8 1.7.2.4.3.8.4 1.2v.1c.4 1 .7 2.2.2 3.4l-.1.3c-.2.4-.3.7-.4.9v.1c-.1.3-.1.5-.1.8h.8c.3 0 .7 0 1 .1.2 0 .4.1.6.1h.2c.5.1.9.1 1.2-.1 0-.1 0-.2.1-.3.1-.2.2-.5.6-.6h.7c.2-.1.4-.4.6-.7.3-.4.5-.9 1.1-1.2.8-.5 1.2-1 1.3-1.7 0-.2.1-.3.1-.5.1-.7.2-1.5 1-2.2l.2-.2c.1-.1.2-.1.3-.2.1 0 .1-.1.2-.1.7-.3 1.5-.3 2.2 0 .2.1.4.2.6.4.2.1.4.3.5.5.2.2.5.5.8.7 0 0 .1 0 .1.1.6 0 1.3.3 1.9.5.6.2 1 .4 1.4.4.2 0 .4-.1.6-.2.5-.4 1-.3 1.4-.3.4 0 .6 0 .8-.1.5-.4.8-1.1 1.1-1.8l.1-.3c.1-.4.3-.8.4-1.3v-.4c-.1-.8.5-.9 1-1.1.1 0 .2-.1.4-.1.3-.1 1.2-.3 1.4-.5.2-.4.6-.8 1-1 .3-.3.6-.5.8-.9.1-.3.2-.7.3-1 .1-.6.2-1.2.7-1.8.4-.6.9-.9 1.4-1.1.2-.1.4-.2.6-.4.6-.4 1.5-1.2 2-1.8.1-.2.3-.4.4-.6.3-.5.7-1.1 1.3-1.4.1 0 .1 0 .2-.1.2-.1.4-.2.5-.2h.1c.1 0 .2 0 .3-.1.1 0 .2-.1.4-.1.3 0 .6-.1.8-.2z"/>
        <path class="st4" d="M784.3 628.4c-.4-.1-.6-.3-.8-.5 0 0 0-.1-.1-.1-.2-.3-.2-.7-.2-1-.7.1-1.2.1-1.5-.1-.4-.2-1 .1-1.6.3-.1.1-.3.1-.4.2-.5.2-.9.3-1.2.5-.3.2-.7.5-.8.8-.1.1-.1.3-.2.4v.5c0 .4 0 .8-.2 1.2-.4.8-1.2 1-1.8 1.2-.2 0-.3.1-.4.1-.1 0-.2.1-.4.2 0 0-.1 0-.1.1-.3.1-.5.3-.8.4-.1.1-.3.2-.4.3-.1.1-.2.2-.4.3-.1 0-.1.1-.2.1l-.6.6c-.1.1-.1.2-.2.3l-.1.2c-1.1 1.9-2.3 3.8-3.7 4.5-.1 0-.2.1-.3.1 0 0-.1 0-.1.1h-.5c-.3 0-.6-.1-.9-.3-.4-.3-.8-.4-1.1-.5-.1 0-.3.1-.4.1-.4.2-1 .5-1.5.2-.1-.1-.2-.2-.3-.2l-.3-.3s0-.1-.1-.1c0 0 0-.1-.1-.1-.2 0-.3.1-.6.1h-.7c.1.3.3.7.5 1 .2.3.4.7.6 1l.3.3c.4.5.8.9 1.1 1.9.1.3.2.5.3.7.1.3.2.5.3 1 .4 1.4 1.4 2.6 2.7 3.3.3.2.6.3.9.4 1 .4 2 .8 1.9 2.5.6 0 1.2 0 1.6.5.1.1.1.1.1.2l.1.1c0 .1 0 .1.1.2 0 .1.1.2.1.3v.6c0 .2-.1.4-.1.5v.2c-.1.3 0 .5 0 .8 0 .1.1.2.1.3.2.3.3.6.4.9.1.3.4.9.5 1 .5.2 1.1.2 1.6.3.7.1 1.3.2 2.1.5 1.2.4.9 1.2.8 1.5v.1c.1 0 .1 0 .2.1.2.1.5.2.8.4 1.1-.1 1.9.2 2.8.5.7.2 1.3.5 2 .5h1c.8-.1 1.7-.1 2.4.4.1-.1.2-.2.2-.3l.1-.1c.1-.1.2-.3.3-.4.3-.3.5-.6.7-.8.1-.1.3-.4.6-.8 1.1-1.4 2-2.4 2.7-2.9-.1-.6.1-1 .3-1.4.1-.2.2-.4.2-.6v-.4c0-.1 0-.3-.1-.4V651.6c.1-.3.2-.5.5-.7.5-.3.7-.7 1-1.3.1-.1.1-.3.2-.4.2-.3.3-.6.4-.9.1-.4.1-.6.1-.9l-.4-.1c-.4-.8-.6-1.4-.4-2 .1-.2.2-.4.3-.5.1-.1.1-.2.1-.2v-.1h-.1c-.2-.1-.8-.5-.6-1.4.1-.5.5-.7.8-.9.1-.1.3-.2.3-.2-.1-.9.2-1.2.5-1.5 0-.2-.1-.5-.1-.7-.1-.4-.3-.9-.2-1.5 0-.2.1-.4.2-.5.1-.2.2-.5.1-.6-.2-.8-.2-1.5-.2-2.2v-.5c0-.1 0-.2-.1-.3 0-.1-.1-.2-.1-.4-.1-.4 0-.8.1-1.1-.3-.1-.7-.3-.9-.8-.1-.1-.9-.3-1.2-.3-.5-.1-.8-.2-1.1-.3l-.5-.3c-.9-.5-1.7-1-2.6-1.4-.1-.1-.3-.1-.4-.1-.1 0-.2-.1-.3-.1-.2-.1-.4-.1-.7-.2-.3 0-.6 0-.9-.1-.1-.6-.6-.6-1-.7zM703.1 633.2c.3 0 .5.2.7.2.3.1.5.2.7.2h.2c.3-.1.5-.3.9-.5h.1c.1-.1.2-.2.4-.2.1-.1.3-.2.4-.2.5-.2 1-.3 1.7-.2.7.2 1.3.7 1.7 1.1.2.2.4.3.5.5 0 0 .1 0 .1.1l.6.3c.4.1 1.8.1 2.6.1H716.8c4 0 8.1.1 12.1-.1h1.2c.3 0 .5.1.8.3l.1.1c.2.2.5.5.7.9.1.1.1.2.2.3l.1.1.3.3h.1c.1 0 .1.1.2.1.3.1.6.1 1.1.1.3 0 .6 0 .9.1.5.1 1.1.1 1.6.1 1.3.1 2.7.2 4 .6.6.2 1 .2 1.3 0 .7-.4 1.4-.3 2.2-.1.6.1.9.1 1.3 0 1.9-.4 4-.9 6.2-1.3-.6-.6-1.2-1.2-1.7-1.9-.3-.3-.5-.7-.8-1l-.3-.4c-.4-.5-.8-.9-1.3-1.4-.4-.4-.6-.7-.8-1.2-.1-.3-.2-.6-.3-1V628.9c0-5.2 0-9.5.1-13.4v-1.6c0-.6.1-1.5 1-1.7.5-.1 1.1-.1 1.6 0h.6c.5 0 1 0 1.5.1 1.4.1 2.7.2 4-.1 0-.1 0-.3-.1-.4v-.1c0-.5.2-1 .3-1.4v-.2c.2-.4.1-.8 0-1.3-.1-.4-.1-.8-.1-1.2 0-.6.1-1.2.2-1.8.1-.9.3-1.8.2-2.7H755c-.4.1-.8 0-1.3-.1h-.1c-.2 0-.3.1-.5.2 0 0-.1 0-.1.1l-.6.3c-.7.2-1.2.1-1.6-.1-.1 0-.2-.1-.3-.1h-.8c-.1 0-.1.1-.2.2v.1c-.3.3-.7.8-1.4.8l-.6-.8c0-.1 0-.3-.1-.6s-.2-.6-.2-.9c0-.4.2-.7.4-.9.1-.1.1-.2.2-.3.3-1-.1-2.8-.8-3.7-.2-.3-.4-.5-.5-.7 0-.1-.1-.1-.1-.2-.4-.6-.7-1.3-.7-2.2v-.7c0-.5.1-1 .2-1.5.2-1.1.3-2.1.1-3.1 0-.2-.1-.3-.2-.5-.1-.1-.1-.2-.2-.4-.1-.3-.3-.7-.2-1.1 0-.5.1-.9.3-1.3.1-.3.2-.6.2-.9v-.3h-4.5c-.4-.1-.7-.2-.9-.4-.3-.4-.2-.9 0-1.4 0 .1-.1.1-.1.2-.1.2-.3.3-.5.3-.6.2-1.5.2-2.7.1h-.1c0 .2-.1.3-.1.4 0 .2-.1.4-.1.6.1.7 0 1.2-.3 1.5-.1.1-.2.1-.3.2 0 .3 0 .5-.1.7-.1.3-.1.6 0 .8l-.3.4-.3.3H735.3c-1.7 0-2.4 0-2.7-.2-.5-.3-1.5.2-2 .4-.2.1-.3.1-.5.2h-.5c-1.4-.1-1.7-.1-1.8 0-.3.1-.5 0-.8-.1-.8-.4-1.3-1.4-1.7-2.4-.2-.4-.3-.8-.5-1-.1-.2-.2-.3-.3-.5l-.2-.3v-.1c0-.1-.1-.1-.1-.2-.2-.4-.2-.7-.2-1v-.5c-.1-.1-.1-.3-.2-.4-.1-.1-.1-.2-.2-.3-.3-.5-.7-1.1-.6-1.9.1-.6 0-1.1-.1-1.4 0-.1-.1-.2-.2-.3-.1-.1-.2-.3-.3-.4-.3-.4-.3-.4-.7-.4-2.6.1-5.2.2-7.8.1h-2.5c-1 0-2.1.1-3.1 0h-.7c-.2 0-.4.1-.7.3-.3.2-.6.4-1.1.5h-.5c-.3 0-.6.1-.9.1 0 0-.1.4.8 2 .1.2.3.4.5.7.4.4.8.9.9 1.5.1.3.1.5.2.8 0 .3.1.6.2.8.2.4.3.8.4 1.2.3.8.6 1.5.9 2.2.6 1.1.9 2.3.7 3.6-.1.6-.5.8-.8 1-.1 0-.2.1-.2.1-.3.3-.5.6-.7 1l.3.6c.1.1.1.2.2.3.2.5.2.9.3 1.3v.5c0 .1.1.3.2.4l.3.6.3.9c.1.5.3 1 .6 1.5.6.9 1 1.7 1.3 2.7.6 2.4.2 5.6-1 7.6-.1.2-.2.3-.3.5-.3.6-.6 1.3-1.7 1.4-.5 0-.5.2-.7 1-.1.3-.2.7-.3 1-.3.6-1.2 1.6-1.7 2.1-.1.1-.1.5-.1.8 0 .5-.1 1-.4 1.5-.3.5-.3 1.1-.4 1.8 0 .4 0 .8-.1 1.2-.1.3-.2.7-.4 1.1-.2.5-.5 1.5-.5 1.8.2.5-.1.9-.2 1.2-.1.1-.1.2-.1.3v.2c0 .4-.1.8-.3 1.2-.1.3-.4.6-.6.8-.1.2-.3.3-.3.4 0 0 0 .1.1.2 0 .1.1.3.1.5.1 1.2 0 2.4-.1 3.6-.1.6-.1 1.2-.1 1.8.4-.8.8-.9 1.4-.8z"/>
        <path class="st4" d="M788.1 591.6c-.4.2-1 .3-1.9-.6-.3-.3-.5-.3-.5-.3-.1.1-.3.2-.6.2l-.3-.1-.3-.5c-.3-.1-.3-.3-.4-.5 0-.2 0-.3.1-.4-.9.2-1.8.3-2.6.4-.9.1-1.9.3-2.9.5.3 1.2-.8 2.1-1.6 2.7-.3.2-.6.5-.8.7 1.1.9.9 2.8.7 3.9 0 .2 0 .3-.1.5 0 .4 0 .8.1 1.2.1.4.1.9.1 1.4 0 .5-.2 1-.4 1.5s-.4.9-.6 1.5c0 .2-.1.4-.2.6-.2.8-.3 1.2.1 1.9.4.6 1.1 1.4 1.8 2 .3.3.6.5 1 .7.2.1.3.2.5.2.1-.4.3-.7.5-.8.1-.1.2-.1.3-.2h.1c.1 0 .2-.1.4-.1.1 0 .3-.1.5-.1l.8.6c0 1.4 0 2.9-.1 4.3v1c0 .5.1 1.6-.7 1.8H780.8c-.3 0-.5-.2-.7-.4-.1-.1-.2-.3-.2-.4-.1.1-.2.1-.3.2-.5.4-1.2.8-1.8.6-.4-.1-.7-.4-.9-.9-.1-.2-.1-.3-.2-.5-.2-.4-.3-.8-.5-1.1-.1-.1-.2-.3-.3-.4-.3-.3-.6-.6-.7-1-.2-.9-.3-1-.6-1h-.4c-.1 0-.2-.1-.3-.1-.1 0-.2-.1-.3-.1-.1-.1-.3-.2-.4-.3-.1-.1-.2-.1-.3-.2-.1 0-.1-.1-.2-.1h-.3c-.3.1-1 .2-1.5-.6-.2-.3-.3-.6-.3-.8-.1-.3-.2-.6-.3-.7-.3-.2-.5-.6-.7-.9v-.1c0 .1 0 .1-.1.1-.1.4-.3.7-.5.9-.6.7-1.4.5-2.1.4-.3-.1-.7-.1-1-.1-.9 0-1.3-.2-1.8-.5-.1-.1-.2-.1-.3-.2h-.1l-.1-.1c-.1 0-.5-.1-.7-.2-.4 0-.7 0-1-.2h-.1c-.1-.1-.2-.1-.3-.2l-.2-.2c-.4-.5-.6-1.3-.5-1.9-.1 0-.2 0-.2.1-.2 0-.4.1-.5.1-.2.1-.4.1-.6.2h-.1c-.2.1-.4.2-.5.2-.5.3-1 .5-2.1.1l-.3-.8v.4c-.1.3-.1.7-.1 1 0 .5-.1 1-.2 1.5-.1.3 0 .7.1 1.1.1.5.2 1.1 0 1.7 0 .1-.1.3-.1.4v.2c0 .1 0 .1-.1.2-.1.3-.2.6-.2.8V612.1c0 .1.1.2.2.3l-.2 1c-1.4.6-3.2.5-4.7.4h-1.3c-.4 0-.7 0-1.1-.1-.5 0-1-.1-1.5-.1 0 .1-.1.3-.1.5V623c-.1 1 0 2.1 0 3.1v2.9c.1.3.1.6.2.8.2.4.6.8 1 1.2.3.3.7.6 1 1.1 1.1 1.3 2.2 2.7 3.6 3.7l1.8-.3c.2 0 .3-.1.5-.1h.1c.4-.1.9-.2 1.5-.1l.2.1c.1 0 .2.1.3.1.1.1.4.1.5.1 1.2-.6 2.1.2 2.6.8.2.2.3.3.5.4.1 0 .2.1.3.2 0 0 0 .1.1.1.2 0 .3.1.5.1h.3c.1 0 .2 0 .2-.1.2-.1.5-.1.6 0h.1c.3.1.5.3.6.5 0 .1.1.1.1.1 0 .1.1.1.1.2 0 0 .1 0 .2-.1 0 0 .1 0 .1-.1h.1c.2-.1.5-.2.7-.3.5-.1 1 .2 1.4.4.1.1.3.1.4.2.1 0 .1.1.2.1.7.3 1.1-.2 1.8-1.2l.6-.8 1.5-2.1.2-.3c.1-.1.1-.2.2-.3.2-.4.5-.7.8-.9.3-.3.6-.5 1-.7.3-.2.6-.3.9-.5.1 0 .1-.1.2-.1l.6-.3c1.3-.5 1.3-.6 1.4-1.9 0-.4.2-.7.4-1 .3-.5.8-.9 1.2-1.1.3-.2.6-.4.8-.5l.2-.1c.7-.3 1.5-.6 2.2-.6.4 0 .8 0 1.1.1.3 0 .6.1.9 0l-.3-.9c-.1-.3-.3-.7-.4-1.1-.1-.2-.1-.5-.1-.7v-.5l.4-.1.1-.1c1.7-.7 3.4-1.3 5.1-1.9 1.5-.5 3-1.1 4.5-1.6.1 0 .1-.1.2-.1.3-.1.7-.3 1-.4.3-.1.5-.2.8-.3l-.1-.1c-.1-.1-.2-.2-.3-.4-.1-.2-.3-.3-.3-.5-.1-.3-.2-.5-.1-.8v-.1c0-.1.1-.2.2-.4.3-.5.8-1.4 1-1.9.2-.7.2-.8.1-1.7v-.2c-.2-1.1 1.1-1.8 2-2.2-.8-.9-.6-2.4-.5-3.5 0-.3.1-.6.1-.8 0-.5.1-.8.2-1.1.1-.4.2-.6 0-1s-.4-.8-.2-1.3c.2-.4.6-.6.9-.7.1 0 .3-.1.4-.2h.1c.2-.1.3-.3.3-.6.1-.5-.2-1-.7-1.7-.7-.8-.6-1.3-.5-1.8v-.1l-.1-.1c-.4-.3-.6-.4-.8-.4-.2-.1-.4-.2-.5-.3-.2-.3-.2-.6-.2-.8v-.2c-.3-.2-.7-.3-1.1-.4-.2 0-.3-.1-.5-.1 0 0-.1 0-.1-.1l-.1-.1c-.1-.1-.2-.3-.3-.4 0 0-.1-.1-.2-.1s-.3-.1-.5-.2c-.1 0-.2-.1-.4-.1s-.5-.1-.8-.2c-.3-.2-.5-.4-.6-.6v-.1c-.1 0-.3.1-.6.1h-.1c-.1 0-.2-.1-.3-.1-.3-.2-.5-.5-.6-.7 0-.1-.1-.2-.1-.2-.1-.1-.2-.2-.4-.3 0 0-.1 0-.2-.1.1-.2-.1 0-.3.1z"/>
    </g>
</svg>
