<svg xmlns="http://www.w3.org/2000/svg" viewBox="0 0 1440 980" style="enable-background:new 0 0 1440 980" xml:space="preserve">
    <style>
        .st0{display:none}.st1{display:inline}.st2{fill-rule:evenodd;clip-rule:evenodd;fill:none;stroke:#bcbcbc;stroke-width:.75;stroke-miterlimit:1.2402}.st4,.st5{fill:#bcbcbc}.st5{display:inline}
    </style>
    <g id="Layer_6">
        <path class="st4" d="M576.8 490.7zM576.8 490.7c.1 0 .1 0 .2-.1l.1-.1-.3.2zM580.2 490.2c.1.1.2.1.3.1-.1 0-.2-.1-.3-.1zM586.2 478.7c-.1.1-.3.2-.6.2h.3c.2 0 .4-.1.6-.1.1 0 .2-.1.3-.1-.3-.2-.4-.1-.6 0zM583.1 492.6c.1 0 .1-.1 0 0l-.1-.1c.1 0 .1.1.1.1zM584.3 478.6c-.1-.1-.2-.2-.2-.3 0 0 0-.1-.1-.1 0 0 0-.1-.1-.1h-.7c.5.1.8.3 1.1.5zM582.5 477.2c-.1 0-.2 0-.5.1.2 0 .4.2.6.3l.1.1s.1 0 .1.1l-.3-.6zM580.7 485.6h.3c.4-.2.8-.3 1.3-.1l.2 1-.1 1.1h-.3s0 .1.1.2l-1 .7c-.1-.1-.2-.1-.2-.1-.2.1-.3.4-.3.5 0-.1 0-.2-.2-.3l-.1-.1H580.1l.5.4c.6.3 1 .6 1.2 1 0-.1.1-.2.1-.3 0-.1 0-.1.1-.2.2-.6.4-1.3 1.1-1.7.3-.2.7-.3 1-.4.4-.2.9-.4 1.4-.5H586.9c.2-.1.4-.3.4-.5 0-.1-.3-.3-.4-.4-.4-.3-1-.7-.7-1.4.2-.5.7-.7 1.1-.8.1 0 .2-.1.3-.1 0-.1 0-.4-.1-.5v-.2h-4.9c-.9 0-1.1 0-1.7.5-.3.2-.5.3-.8.4h-.2c-.5.1-1 .1-1.5.1H578.1c-.3 0-.5 0-.7.1l.2.6c-.4.2-.7.7-.6.8 0 0 .1 0 .3.1.2 0 .4-.1.7-.2.3-.2.8-.4 1.3-.3l.2.8c.2-.2.5-.3.8-.4 0 .1.2.2.4.2zM577.5 488.3l.1-.1c-.1 0-.2 0-.3.1h.2zM576.1 486.6c0 .1 0 .1 0 0 0 .1 0 0 0 0zM577.3 462.2c.4-.1.7 0 1 .3h.8c.9-.1 2.2-.3 2.5-.6.3-.4.9-.6 1.5-.6.4 0 .8.1 1.3.2s.9.3 1.4.5c.1 0 .1.1.2.1.4.2.7.4.9.7.1.2.2.3.3.4.5.7.7.8 1.6.9.5 0 1 .4 1.4.9l.3.6c0 .1 0 .1.1.2 0 .1.1.1.1.2.1.1.1.3.1.4V467l.4.4c.2.1.3.3.5.4 0 .1.1.1.1.2s.1.1.1.2c.1.2.2.4.2.5l.3.6s0 .1.1.1c.1.1.1.1.2.1s.1.1.2.1c.3.2.8.3 1 .8.1.2.3.4.5.6l.2.2h.7c.1 0 .2-.1.3-.1l.1-.1.1-.1c0-.1.1-.1.1-.2.1-.3.1-.8.1-1.2 0-.5.1-1 .2-1.4.2-.7.6-.9 1-1 .3-.1.6-.1.9.1.8.3 1.7 1.2 2.2 1.9.1-.2.3-.4.4-.5 0 0 0-.1.1-.1.2-.2.4-.3.6-.4.6-.3 1.4-.3 2.3.1.6.2 1.7.3 2.4-.1 0 0 .1 0 .1-.1.1 0 .1-.1.2-.1l.1-.1c.1-.1.1-.2.1-.3l1.2-.1c.3.8 2.4.6 3.6.4.3 0 .5-.1.7-.1 2.1-.2 4.3-.1 6.3-.1h5.8c0-.1 0-.2.1-.3V466.4c0-.2.1-.4.1-.6v-.2c.1-.2.2-.7.2-1 0-.1 0-.2-.1-.2l-.1-.1c-1.3-.9-1.2-1.8-1.2-2.6v-.4l-2.9-39.5-.1-1.7.6-.7h5.9c-.2-.1-.4-.3-.5-.4-2.8-2.1-5.7-4.1-8.7-6.2-1.6-1.1-3.1-2.2-4.7-3.2l-.2 5.3-.6.6-14 .2-.5 10.1-.1 2.5-.3.1c-.5.3-1.1.5-1.6.7-.5.1-.9.3-1.3.5-1.2.8-1.6 1.5-1.5 2.8v.1c0 .1 0 .4.1.6.2 2.2.3 3.7.1 4.7v.2c0 .1 0 .1-.1.2 0 .1-.1.2-.1.3 0 .1-.1.1-.1.2s-.1.1-.1.2l-.1.1-.1.1-.1.1H575.7s-.1 0-.1.1c.5.5.7 1.1.9 1.6.1.2.1.4.2.5l.9.1c.1.2.2.5.4.8.5 1.1 1.2 2.5.4 3.6v.2c0 .3 0 .6-.1.9-.1.2-.2.3-.3.5l.2.1c0 .4-.1.8-.5 1.1 0 0-.1.1-.2.1l.1.1.5.5c.4.6.5 1.2.5 1.8v.4l.1.6c.2 1.5.4 3 .2 4.7-.1 1.5-.7 2.8-1.2 4.1-.2.5-.4.9-.5 1.4 0-.2 0-.2.1-.2zM580.4 478.2h.3c.1 0 .1 0 .2-.1 0 0 0-.1.1-.1.1-.1.1-.3.2-.4h-.3c0 .1-.1.3-.2.4-.1.1-.2.2-.3.2z"/>
        <path class="st4" d="m576.5 474.3-.2 1.2c-.1 0-.2.1-.4.3l.3.2c-.1.2-.1.5-.1.7l-.3.2c.1.1.2.2.2.3h3.6s0-.1.1-.1c0-.1.1-.2.2-.3 0 0 0-.1.1-.1 0 0 0-.1.1-.1.3-.4.7-.3.9-.3h.1c.1 0 .3-.1.4-.1 0 0 .1 0 .1-.1.1 0 .2-.1.3-.1h.9s.1 0 .1.1h.1s.1 0 .1.1c.1 0 .1.1.2.2s.2.3.3.4l.1.1h.3c.2 0 .4 0 .6.1.4.2.5.5.6.7 0 0 0 .1.1.1s.3-.1.4-.2c.1 0 .2-.1.3-.1.1 0 .3-.1.5-.1h.1c.4 0 .8.1 1.1.4.3.2.4.6.4.9-.1.6-.5 1-1.2 1.2h-.1c-.1 0-.1 0-.2.1h-.2c-.2 0-.4.1-.6.1h-.8c-.1 0-.3-.1-.4-.1-.9-.3-1.7-.8-2.5-1.3h-.1c-.1.1-.1.2-.2.3-.1.2-.3.3-.7.4-.3.1-.5.1-.7.1h-.5c-.2 0-.5.1-.7.2.1.1.1.2 0 .4l-.6.5c-.1 0-.2 0-.3-.1h-2c-.6 0-1 .1-1.3.1-.1.1-.2.1-.2.2-.1.2-.2.5-.2.7l.8.6v-.2c.1.1.7.4 1.2.3.2 0 .3-.1.3-.2h1.2c.1.1.3.2.5.3h.5v-.2c.1-.3.2-1 1.2-1.1l.2 1.1c.7-.3 1.5-.3 2.1-.3H590.1c.1 0 .2.1.4.1h.1c.1 0 .2.1.3.1h.1c.3.1.4.3.5.5.7 0 1.4.5 1.7.7.1 0 .3.1.5.2.1 0 .2.1.2.1.1 0 .3-.1.4-.2.3-.1.8-.3 1.3-.3.4 0 .7 0 1.1-.1.2 0 .4-.1.7-.1-.2-.7.1-1.6.2-1.9v-.1c0-.1-.1-.3-.2-.4v-.1c-.2-.5-.4-.8-.5-.9l-.1-.1-.4.2c-.4-.1-.6-.3-.7-.5-.2-.3-.5-.7-.8-1.3-.2-.3-.3-.6-.3-.9 0-.1.1-.3.3-.4.1-.2.1-.4.1-.6v-.4c0-.1 0-.2-.1-.3-.1-.2-.1-.5-.1-.6v-.1c-.1-.1-.1-.2-.2-.3l-.3-.3c-.3-.3-.3-.6-.2-.9 0-.1 0-.2.1-.3l.1-.2s0-.1-.1-.1c0-.1-.1-.2-.1-.3-.6-.4-1.1-1.2-1.1-1.2-.1-.1-.1-.1-.3-.2-.1 0-.3-.1-.4-.2-.1 0-.2-.1-.2-.2 0 0-.1 0-.1-.1l-.1-.1v-.1c-.3-.3-.5-.7-.6-1-.1-.2-.2-.4-.3-.5-1-.7-1.3-1-1.2-1.7V466.4c0-.1 0-.1-.1-.2v-.1c-.2-.4-.5-.8-.7-.8-1.4 0-2.1-.8-2.6-1.5-.3-.3-.5-.6-.9-.8-.3-.2-.7-.3-1.2-.4-.2 0-.5-.1-.8-.1-.4 0-.7.1-1.1.3-.7.3-1.6.8-3.4.7h-.5c-.5 0-.7-.2-.9-.3-.1.1-.4.7-.9 1.7 0 .1-.1.2-.1.3-.2.4-.3 1-.5 1.6-.1.4-.2.7-.3.8-.5 1-1.2 2.4-2.3 3.5-.2.2-.4.3-.6.4.9.7 1.6 2 1.9 3.2l.3-.3c.6-.2 1-.3 1.4-.1zM575.2 483.3c-.1 0-.1 0-.2.1.1 0 .1 0 .2-.1.1.1.1.1.2.1-.1 0-.2-.1-.2-.1zM574.5 481.5c-.1 0-.1 0 0 0 0 .1 0 0 0 0z"/>
        <path class="st4" d="M577.5 479.1c-.1 0-.2.1-.3.1h.3v-.1zM686.5 522l.2-.1c.4-.4.7-.9.7-1.4 0-.4.2-.8.4-1.3.1-.3.3-.7.3-.9-.4-.6-.4-1.1.4-2l.3-.3c.2-.3.5-.5.7-.8.4-.4.7-.8 1.1-1.1.2-.1.3-.3.5-.4.1-.1.3-.2.3-.3l.2-.2s.3-.8.8-1.4c0-.1.1-.1.2-.2.3-.3.6-.6.9-.6.3-.1.5 0 .7 0 .2.1.4.2.5.3.1.1.2.1.2.1h.2c.1-.1.2-.4.2-.6 0-.1.1-.2.1-.3h1.2c.1.3 1 1.2 1.3 1.4.3.1.6.3.7.6.2.3.2.8.1 1.2 0 0 .1.1.2.1 0-.1.1-.1.1-.2.2-.2.6-.8.6-1-.3-.8.5-1.4 1-1.8l.2-.1v-.3c0-.3-.1-.7.1-1 .2-.3.4-.7.6-1 .4-.7.8-1.4 1-2.2v-1.9s0-.1.1-.1c0-.1.1-.2.2-.3.1-.1.1-.2.2-.2.2-.2.2-.2.2-.4h.1l-.1-.1.6-.5c.7 0 1.1-.4 1.2-1v-.2c0-.1.1-.3.1-.5s.1-.5.2-.8v-.4s.1.2.2.2l-.2-1.1.2-.1c.6-.3 1.3-.7 1.4-1.1.1-.4 0-.7 0-1.1v-.4c0-.7.5-1 .7-1.1 0 0 .1 0 .1-.1l.1-.1s0-.1.1-.2c0-.1.1-.3.1-.4v-.2c0-.3.1-.5.2-.8.2-.7.4-1.2.4-1.5.2-.9.7-2.4 1.7-2.8.2-.1.3-.1.6-.1.6-.1 1.9-.3 2-.9v-.1c-.1-.2-.2-.3-.2-.5 0-.1-.1-.3 0-.5v-.2c.1-.6.1-1.1.3-1.6v-.1c-.1-.1-.5-.3-.7-.3h-.2c-.1 0-.3 0-.5-.1-.1 0-.1-.1-.2-.1-.4-.3-.6-.9-.7-1.4-.1-.3-.1-.5-.1-.7v-.9c0-.3 0-.6-.1-.7l-.1-.1c-.7-.8-1.5-2.2-1.9-2.8l-.1-.1c-.2 0-.4.1-.6.2l-.1.1c-.1.2-.3.4-.5.4-.7.3-1.2.6-1.7 1l-.1.1c-.4.4-.8.9-1.4 1.2-.9.3-1.8 0-2.5-.4l-.3-.1c-1.5-.6-2.9-.7-4.6-.7-1.5 0-2.6.3-3.5 1.1-.1.1-.2.2-.3.4 0 0 0 .1-.1.1-.2.2-.3.5-.5.7-.4.5-.7.6-1 .6-.5.1-1.1 0-1.7-.1H688.8c-.9 0-1.4-.4-1.8-.7-.1-.1-.3-.2-.5-.3 0 0-.1 0-.1-.1h-.1c-.3 0-.7 0-.9-.4l-.3-.3c-.3-.2-.6-.4-.8-.5-.5-.2-.9 0-1.5.3-.1.1-.3.1-.4.2-.1.1-.3.2-.4.3-.3.2-.6.2-.9.2-.4.6-.9.7-1.1.7-.2 0-.3 0-.5-.1h-.1c-.6-.2-.9-.6-1.1-1l-.3-.6c-.3-.5-.5-.9-.8-1.2-.3-.3-.7-.5-1.2-.6h-.1c-.3-.1-.7-.1-1.1-.3-.2-.1-.5-.2-.7-.3-.3-.2-.6-.4-.9-.4-.1 0-.2 0-.5.2s-.7.5-1.3.5h-1c-.9 0-1.5.2-2 .6-.1.1-.2.2-.3.2l-.3.3-.1.1c-.1.2-.2.4-.2.6 0 1.2-.4 2.3-1.1 3.1l-.1.1-.4.4c-.3.4-.5.8-.5 1.3v1.1c0 .6 0 1.2-.2 1.8 0 .1-.1.3-.2.4 0 .3-.2.6-.3.8 0 .1-.1.2-.1.2v.1c0 .1 0 .1.1.2.1.2.2.3.3.4.1.1.2.3.3.4 0 .1.1.1.1.2s.1.1.1.2.1.2.1.3v.9c0 .1.1.2.1.3v.1c.3.6.6 1.2.1 2.1-.2.4-.5.4-.8.5v.1c.1.4.4 1.1-.3 1.9-.1.2-.3.3-.4.4-.1.1-.3.2-.4.3-.1.1-.1.1-.1.2-.1.1-.1.3-.2.4-.1.3-.3.6-.5 1-.1.1-.1.2-.1.2v.4c0 .5 0 1.5-1.3 1.8-.2 0-.3.1-.4.1 0 .2-.1.4-.2.6-.1.2-.1.5-.1.7v.1c.1 1.2 0 2.5 0 3.8 0 .1 0 .2.1.4s.1.5.2.7c.1.5.2 1 .2 1.4 0 .3-.1.5-.1.8v.4c0 .3 0 .6-.1.9V512.2c.1.2.1.5.1.8 0 .2-.1.5-.2.8v.1h1.7c0-.3.2-.5.3-.7l.9-.1c.1 0 .3 0 .4-.1.2-.1.6-.3 1-.3l.5.9c.6 0 1.3.1 1.9.3 1.4.4 2.6 1.6 3.3 2.8l.6-.3.7 1c-.1.1-.2.2-.4.3 0 0-.1.1-.2.1h.1c.5-.3 1.1-.1 1.5.3l-.1.1.4 1.1v-.1c.1.6-.2.9-.5 1 .3.4.2.8.1 1.1-.1.4.1.8.4 1.2l.1.1c.3.6.7 1 1.1 1.2.3.1.4.3.6.4l.1.1s-.1-.1-.2-.1h-.2c-.1 0-.1.1-.2.1h.7v-.3l1.2-.2c0 .1.1.3.1.3h.2l.5-.3v-.2h.2v-.1c0-.2.1-.4.1-.5h.1c-.1-.4-.1-.9.3-1.3l.7.5c.2-.1.6-.2.9 0 .1 0 .1.1.2.1l.2-.2c.3.2.4.3.5.4l.4.2h.2s.1-.1.1-.2l.1-.1 1.1.5c.2 0 .6 0 1.4-.1h.2c.4-.1.6-.1.7-.1 0-.1-.1-.3-.1-.5s-.1-.3-.1-.5l1.1-.5c.1.2.2.2.2.2h-.1v.1l.4.3-.1.2zM587.1 496.1z"/>
        <path class="st4" d="M660.4 513.3c.1-.2.1-.5.1-.7 0-.2 0-.3-.1-.5v-.2c-.1-.3-.1-.7 0-1.2.2-.7.2-1.8 0-2.8 0-.1 0-.1-.1-.2 0-.1-.1-.3-.1-.4 0-.1-.1-.2-.2-.3l-.2-.2.1-.3c.2-.7.2-1.6.2-2.4V502.7c0-.7.1-1.4.4-2 .3-.6.8-.6 1.1-.6h.3c.1-.2.1-.4.2-.7v-.7c0-.1 0-.2.1-.2v-.1l.3-.6c.1-.1.2-.3.3-.5.1-.3.3-.7.6-1 .1-.1.3-.2.4-.3.1 0 .1-.1.1-.1.2-.2.4-.5.4-.7l-.1-.2c-.1-.4-.3-.8-.1-1.3 0-.1.1-.1.2-.2s.2-.1.3-.2c.1-.1.2-.1.4-.2.1-.1-.1-.6-.2-.9 0-.1-.1-.1-.1-.2-.2-.4-.2-.7-.2-1v-.4c0-.1 0-.1-.1-.2s-.2-.3-.3-.4c-.1-.2-.3-.4-.4-.6-.1-.3-.2-.6-.2-.9 0-.4.2-.8.3-1.1-.3-.3-.7-.7-1.1-1.3-.4-.5-1.2-1.5-1.5-1.7l-.3.3h-.1s-.1 0-.1.1h-.1c-.2.1-.4.1-.5.1h-.2V485.2c0 .2.1.3.1.5v.1c0 .2 0 .3-.1.5-.1.4-.3.8-.5 1.2 0 .1 0 .1-.1.2l-.1.1s0 .1-.1.1l-.3.3c-.5.6-1.2 1-1.9 1-.1 0-.2 0-.3.1-.8.2-1.2.2-1.6 0h-.1l-.1.1-.1.1c-.2.2-.4.5-.7.7-.3.4-.7.7-1.1 1v.1c-.2.5-.4 1.2-.5 1.7v.4c0 .1 0 .2.1.2v.1c0 .1.1.1.1.2 0 0 .1.1.2.1.1.1.3.2.5.3.7.4 1.5.9 1.6 1.7v1c0 .7 0 1.5.3 2 .2.3.3.7.5 1 .1.2.1.3.2.5.2.6.3 1.2.3 2.1v6.8c0 .9 0 1.6-.4 2 0 .2 0 .3.1.5 0 .3.1.7.2.9.1.1.1.3.2.4.2.3.3.6.4 1 .4-.1.8-.2 1.3-.2.4-.1 1.1-.2 1.7-.2.6-.2.7-.3.7-.5zM614.1 522.4c.2-.8.4-1.7.8-2.9.1-.2.1-.4.1-.6v-.8c-.1-.4-.3-.7-.6-.9-.1-.1-.2-.2-.3-.2-.4-.3-1.1-.7-1.1-1.6-.2 0-.5-.1-.7-.1-.2 0-.4 0-.6-.1h-.2c-.3-.1-.6-.2-.8-.5 0 0 0-.1-.1-.1-.3-.1-.5-.2-.8-.5l-.3-.3.1-.2v-.2l.3-.2.1-.1.1-.1s.1-.1.2-.1l.2-.2.4-.4c.1-.2.2-.5.2-.8v-.7c0-.3-.1-.7-.2-1.1-.1-.1-.1-.3-.2-.5-.1-.1-.1-.2-.2-.3 0 0-.1-.1-.1-.2 0 .1-.1.2-.1.2-.1.2-.1.3-.1.4-.5 1-.9 1.2-1.9 1.6l-.8-.5c0-.1 0-.3-.1-.3H607.1c-.1 0-.3 0-.4.1l-.8-.8v-.1c.1-.3.2-.5.2-.8v-.1c.1-.3.1-.6.1-.9 0-.1 0-.6-.1-1-.3-.2-.3-.6-.3-1-.1-.2-.2-.5-.1-.9l-.2-.2c-.1-.1-.2-.2-.3-.2-.1 0-.1.1-.2.1-.5.3-.8.2-1.1.2-.1 0-.2 0-.3-.1 0 .3-.1.5-.2.7-.2.6-.6.8-.9 1-.3.2-.4.3-.5.5-.1.9-.1 1.2-.5 1.6l-.2.2-.1.1c-.5.5-1 1-1.6 1.5-.3.3-.6.8-.9 1.2-.1.1-.2.3-.3.4 0 0 0 .1-.1.1.1.1.2.2.2.3.2.3.3.5.7.7.2.1.5.3.7.5.2.2.5.4.7.5l.5 1.1c.1-.1.1-.3.1-.3.2.2 1.1.7 1.6 1 .6.3.9.4 1.1.6.7.7 1.3 1.4 1.9 2.1.5.6 1.1 1.3 1.7 1.9.6.6 1.3 1 2 1.4.6.4 1.3.7 1.9 1.2.3.3.7.4 1.1.5.4.1.7.2 1.1.5l.6.3c-.2-.8-.2-1.3-.1-1.6zM597.3 510.8c.1-.1.1-.2.1-.3.1-.3.3-.7.5-.9l1.1-1.1c.5-.4.9-.8 1.3-1.3.1-.1.1-.3.2-.6 0-.3.1-.8.4-1.1.1-.2.3-.3.4-.4l-.1-.1h-.2l-.8-.1v-.4c.1-.6.4-1.1.7-1.5.1-.1.1-.2.2-.3-.3-.6-.2-1-.2-1.3v-.2l-.1-.1-.1-.1-.1-.1h-.1c-.3-.3-.3-.6-.2-1.1-.1-.3-.3-.5-.4-.8 0-.1-.1-.2-.1-.3-.1-.2-.2-.4-.4-.6-.1-.2-.2-.4-.4-.6-.6-.8-1.2-1.1-2.5-.9-.3.1-.5.1-.8.2-.1.1-.3.1-.5.2h-.1c-.1 0-.1 0-.2.1h-.2c-.4.1-.7.1-.9.1h-.3s-.1.1-.2.4c-.1.2-.1.3-.2.5v.2c-.3.8-.7 1.6-1.3 1.9-.2.1-.2.1-.4.5l-.1.2c-.1.3-.3.5-.5.6l.2.2-.3 1h-.1s.1 0 .1.1l1.2.4c0 .1 0 .2-.1.3v-.2.1h.1c-.1.2-.2.4-.4.5l-.2.4c-.1 0-.3.1-.4.2 0 0 .1-.1 0-.2v-.1h-.1l-.3.5h.2l.7.6c0 .3.2 1.3.3 1.7l.6.3.1.1s0-.1.1-.1l1.1.5s0 .1-.1.1c.2 0 .6 0 .7-.1l.5 1.1c-.2.2-.4.3-.6.4v.1c.9.3 2.5 1.1 3.2 1.4z"/>
        <path class="st4" d="M589 498.3c.1.1.1.1 0 0 .1.2.3.3.3.5l.5.5h.2c.2.1.3.3.4.4.1-.3.3-.6.8-.8.2-.1.6-.5 1.1-2 .4-1.1 1.3-1.1 1.9-1.1.3 0 .6 0 .8-.1.5-.3 1.4-.5 2.3-.5h.1c.7 0 1.4.2 1.8.5.4.3.7.7 1 1.1.3.4.5.8.7 1.2l.1.1c.2.4.5.7.6 1.1.1.3.1.6 0 .8.2.1.6.3.6 1v1c.2.2.2.4.2.6v.4c0 .1 0 .1-.1.2h.1c.3-.1.7-.2 1.1-.1h.2c.3 0 .5.1.6.1h.1l.3-.2h.1c.1 0 .3-.1.4-.1H605.5c.1 0 .2.1.3.1h.1c.1 0 .1.1.2.1s.1.1.2.1l.4.4.1.1.1.1V505.1c.1.1.1.2.1.3v.1c0 .1.1.3.1.6v.2c.1.7 0 1.4-.1 2.1.2 0 .3.1.5.1.1 0 .2.1.3.1.2.1.3.3.5.5.2-.1.3-.2.4-.4.1-.2.2-.3.3-.6v-.1c.1-.4.3-1.1 1-1.2.4-.1.8.2 1 .5H611.7v-.1c.1-.1.2-.3.2-.3 0-.1-.1-.2-.1-.3V506.3c0-.3.1-.6.3-.8l-.1-.1c-.2-.2-.3-.3-.5-.6s-.3-.6-.3-1c0-.5.2-.7.3-.9h.1c.1-.1.2-.1.3-.2.5-.2 1.1-.1 1.7.1 0-.1-.1-.1-.1-.2v-.1l-.1-.1h-.1s-.1 0-.1-.1h-.2l-.5-.8c0-.1.1-.2.1-.3.1-.3.2-.7.5-1.1-.2-.3-.3-.5-.3-.8-.2 0-.3-.1-.4-.2-.3-.2-.5-.6-.6-1.1V497.7c-.1-.4-.1-.7-.1-.9 0-.4 0-.7.1-1v-.4c.1-.6.5-.9.8-1.1-.1-.1-.3-.2-.4-.3-.1-.1-.3-.2-.4-.3l-.1-.1c-.3-.3-.6-.6-.6-1.1v-.7c0-.3.1-.6 0-.9-.1 0-.2.1-.3.2-.2.1-.4.2-.6.2h-.2l-.6-.8c0-.1 0-.1.1-.2 0-.1.1-.3.1-.4.2-.7.5-1.2.9-1.4-.1 0-.1-.1-.1-.1-.2-.2-.5-.4-.7-.6 0 0-.1 0-.1-.1-.1 0-.3-.1-.3-.1-.5-.3-.4-1-.3-1.3.1-.4 0-.6-.3-1-.1-.1-.1-.2-.2-.4-.2-.3-.2-.6-.2-.9v-.4l-.1-.1s-.1 0-.1-.1v.4c-.1.2-.2.4-.5.5-.3.1-.6.3-.8.5-.3.2-.6.4-1 .6-.3.2-.7.1-1 0-.2-.1-.4-.3-.6-.4-.1-.1-.2-.2-.3-.2-.7-.3-1-.1-1.3.2-.4.5-.9 1-1.4.9-.5-.1-.6-.5-.7-.8-.1-.3-.2-.4-.3-.5h-.1c-.1.1-.3.2-.4.3-.3.3-.7.7-1.2.7h-.2c-.5-.1-.8-.5-.9-.9 0-.1-.1-.1-.1-.2v-.2c0-.3 0-.5.1-.7h-.2c-.4.1-.8.1-1.2.1-.3-.1-.6 0-.9.2l-.9.3h-.2c-.5 0-1-.3-1.5-.6-.3-.1-.7-.4-.8-.4-.3.2-.7.2-.8.1h-.1c-.1 0-.1-.1-.2-.1v-.1l-.1-.1c-.1-.1-.1-.3-.1-.4-.1 0-.2-.1-.2-.1h-1.4c.1.4.3 1.1-.3 1.6-.2.2-.5.3-.8.4.4.3.9.7 1 1.4 0 .4-.1.8-.5 1.2-.4.4-.8.5-1.2.6h-.7c-.3 0-.4 0-.6.1-.3.2-.7.3-1 .4h-.1c-.3.1-.6.3-.9.4-.2.2-.4.5-.5.9v.1c0 .1-.1.3-.1.4.1 0 .1-.1.2-.1l.4 1 .1-.1 1 .6c-.1.5-.3 1-.5 1.6l.3.4c-.1.2-.1.2.5.6.2.1.5.3.7.5.1-.1.2-.1.3-.1l.8.4c.1.3.1.5.1.7v.2l.1.1c.2.1.2.2.3.2-.1 0-.2 0-.3.1l1.1.2h.1s.1 0 .1.1c.3.3.3.7.3 1.1 0 .2 0 .5.1.6 0 0-.1-.2-.3-.2-.2-.1-.3 0-.3 0l1 .7c-.1-.1-.1-.2-.2-.3zM631.4 519.4c-.1 0 0 0 0 0z"/>
        <path class="st4" d="m635.3 520 .2.2h.2v-.5c0-.3.1-.8 0-1h-.1l-.3-.3-.3-.4v-.7c-.1-.5-.4-1.2-1-2l-.1-.1v-.1c-.3-1.4-.4-2.7.3-4.3.2-.5.3-.9.3-1.3s.1-.8.3-1.4c.2-.6.7-1.2 1.1-1.8.2-.3.5-.6.6-.9.1-.1.1-.2.1-.2.4-.9-.1-2.5-.2-3.2l-.3-.6s0-.1-.1-.1c0-.1-.1-.2-.1-.2-.2-.5-.1-.9 0-1.2 0-.1.1-.2.1-.3-.6-.5-1.2-1.5-1.7-2.2h-.9c-.1 0-.2 0-.4-.1-.2 0-.5-.1-.7-.1h-.2c-.1.1-.3.1-.5.2-.7.2-1.3.4-1.3.8l-.7.6c-.1 0-.1 0-.2-.1-.3-.1-.7-.2-1-.4-.6-.3-1.2-.6-1.4-.9l-.2-.2c-.1-.1-.2-.2-.3-.4-.1-.1-.2-.3-.2-.6v-.1c-.1-.4-.4-.9-.5-1-.1 0-.2-.1-.4-.1-.3 0-.8 0-1.2-.5v-.1c-.1 0-.3 0-.4.1h-.3l-.1.2c-.1.2-.3.7-.8.8-.2.1-.4.1-.6 0h-.1c-.8-.2-1-1.1-1-1.8-.1 0-.1 0-.2.1-.2.1-.4 0-.5 0 0 .3-.1.6-.3.8-.2.2-.5.3-.8.3h-.4l-.2.7v.1c-.2.1-.3.1-.5.1-.4 0-.8-.1-1.2-.3-.2-.1-.3-.2-.5-.3-.3-.2-.5-.4-.6-.7H615.4c0 .1-.1.2-.2.3-.2.3-.4.7-1 .9-.2.2-.4.3-.5.4l-.1.1c-.1.4-.1 1 0 1.5.1.4.1.6.2.7h.1l.9.6c0 .1-.1.6-.1.7l.2.2c.1.1.2.2.3.4l-.4 1c-.2 0-.2.1-.3.4.8.4.9 1.2 1.1 1.8 0 .2.1.4.1.6l-.8.8-.2-.1c-.9-.3-1.4-.4-1.6-.5 0 .1.1.2.2.3 0 0 0 .1.1.1l.3.3c.1.1.2.3.4.4.1.1.2.2.2.3l-.8.9H613.8l-.1.1c.2.2.2.5.1.8 0 0-.1.1-.1.2s-.1.1-.1.2v.2c-.1.1-.1.2-.2.4-.1.1-.1.2-.2.3h-.1l-.6.3c0 .1 0 .1.1.2.2.6.3 1 .3 1.5v.5c0 .1 0 .3-.1.4 0 .2 0 .4-.1.6-.1.5-.4 1.2-.8 1.5l.4.5h.7c.6 0 1.6 0 1.9.9 0 .1 0 .2.1.4 0 .2 0 .3.3.5.8.5 1.3 1.1 1.5 1.7 0 .1.1.3.1.4 0 .1 0 .2.1.3v1.1c-.1.3-.2.6-.2.9 0 .1-.1.2-.1.3-.1.3-.2.5-.2.8-.1.2-.1.5-.2.7 0 .2-.1.3-.1.4-.1.4-.1.8.1 1.3.6-.6 2.1-1.4 2.9-1.5.7-.1 1.4-.5 2.1-.9.4-.2.8-.5 1.3-.7.8-.3 1.6-.5 2.5-.6.4-.4 1.3-.6 1.9-.5.3 0 .5.1.7.3.2-.2.7-.5 2.3-.7H631.6h-.1.1l.1-.2c.4-.1.7 0 .9.1l.3-.2c.2.1.4.3.6.5v.4c.2.1.5.2.7.2.1 0 .2-.1.4-.4.1-.2.2-.3.3-.5l1 .2c-.8.2-.7.4-.6.5 0 .1 0 0 0 0z"/>
        <path class="st4" d="M653 515.5c-.2-.1-.3-.2-.4-.2l-.1-.1c-.1-.1-.2-.2-.3-.2l-.1-.1c-.4-.3-.8-.7-1.1-1.2-.1-.2-.3-.4-.4-.6-.5-.8-.1-1.6.1-2.2.1-.3.3-.7.3-.9 0-.1 0-.1-.2-.3-.2-.2-.6-.6-.4-1.2l.3-.9c.1-.4.2-.6.2-1v-.8c0-.3 0-.5.1-.8.1-.2.2-.4.3-.5 0 0 0-.1.1-.1-.1-.3-.3-.5-.6-.8-.2-.2-.3-.4-.5-.6-.1-.1-.2-.3-.3-.5l.5-.8v-.6c0-.4 0-.8.1-1.2.1-.2.1-.4.1-.6-.2.1-.5.2-.8.2h-.1l-.4-1v-.2c0-.2.1-.3.2-.5 0 0 .1 0 .1-.1l.2-.2c0-.3.1-.5.1-.8.1-.3.1-.8.1-1-.2-.5-.2-.9-.2-1.1v-.1s-.1-.1-.2-.1c0 0-.1 0-.1-.1-.3-.2-.7-.6-1-1-.3-.5-.6-1.1-.5-1.5 0-.3.2-.6.3-.7 0-.1.1-.2.1-.2-.1 0-.1 0-.2-.1h-.2c-.1.1-.4.3-.6.4 0 0-.1 0-.1.1-.5.4-.9.7-1.4.5-.2 0-.4-.2-.5-.3h-8.6v.1c0 .2-.1.3-.2.4-.1.2-.2.3-.2.5v.1c.3.7.5 1.3.7 2.2 0 .2.1.4.1.7 0 .3.1.6.1.9v.8c0 .2 0 .4.1.6 0 .2.1.3.1.5h.1c.2.7 0 1.3-.1 1.8 0 .1-.1.3-.1.4 0 .1.1.1.1.2 0 0 0 .1.1.1v.1c0 .1.1.1.1.2.2.3.4.7.5 1.3 0 .2.1.4.1.6.2.7.3 1.5.1 2.1-.2.5-.4.9-.6 1.2-.1.2-.3.4-.4.6l-.6.9c-.3.3-.4.6-.5.8v.3c0 1-.3 1.8-.6 2.4-.1.3-.2.6-.3.8-.1.2-.1.5-.1.9v.5c0 .6.2 1.1.4 1.5.5.6.7 1.3.8 2v.4c.1 0 .3.1.4.2.6.5.5 1.3.4 2 0 .3-.1.6 0 .7l-.2.3c.2 0 .4.1.6.1l.3.1c.5.1 1.1.3 1.6.8.2.2.3.2.5.1s.4-.3.6-.5c.1-.1.3-.3.5-.4.4-.3.9-.5 1.4-.7.2-.1.3-.1.5-.2.4-.2.9-.3 1.3-.4.5-.1 1-.2 1.4-.5.4-.2.7-.4 1-.7 1.1-.7 2.2-1.4 3.7-1.7.2 0 .5-.1.7-.2-.1 0-.3-.1-.5-.1-.4 0-.8-.1-1.2-.4l.6-1c.1.1.3.1.5.1.3 0 .8.1 1.2.4l.1.1c.5.4.6.8.6 1.1.1 0 .3-.1.4-.5.1-.3.4-.6.6-.7-.5.2-.5.1-.6.1zM659 484.4s0-.1 0 0c0-.1 0-.1 0 0l.1-.1v-.1c-.1 0-.1 0-.1.1-.1 0-.1 0 0 .1zM610.2 487.2zM609.8 487l.4.2-.2-.2h-.2z"/>
        <path class="st4" d="M616.6 494.2c.2.1.4.2.5.3 0-.1.1-.2.1-.2.3-.5 1-.6 1.4-.6v-1l.9-.5c.2.1.3.2.4.3l.1.1v-.1c.1-.3.3-.6.7-.8l.8.3c.2.4.2.8.2 1.4v.8c.3-.5.8-1 2-1.1.2-.6.3-1.2.2-1.7 0-.2-.1-.4 0-.5 0-.3.1-.5.2-.6.1-.1.2-.2.4-.3.1 0 .1 0 .2-.1.3-.5.4-1.3.3-1.5l-.1-.1-.1-.1c0-.1-.1-.1-.1-.2v-.4h-.2l.2-1.1v-.1c.1 0 .2-.1.5-.3.1-.1.2-.2.3-.2.4-.3.9-.3 1.3-.3.3 0 .6 0 .8-.1.3-.2.8-1 .9-1.6 0-.3 0-.5-.1-.6-.3-.3-.3-.7-.2-1 .2-.4.7-.6 1.1-.6 0-.1-.1-.3-.1-.4-.1-.1-.2-.3-.2-.5-.1-.2-.1-.3 0-.5 0-.1.1-.2.1-.2.1-.1.2-.3.5-.4.1-.1.5-.8.7-1 .1-.2.2-.4.3-.5l1.1.4c.1.2.7.6 1.2.9 0 0 0-.1.1-.1.2-.2.4-.3.7-.3v-.2c0-.4.1-.8 0-1l.6-.9h.3c.2 0 .5.1.7.1.1-.2.1-.4.2-.5.3-.9.7-2.1 1.9-2.4.1 0 .2-.1.3-.1h.1c.5-.1.9.1 1.2.3.1 0 .1.1.2.1v-.1c.1-1 .9-1.2 1.4-1.3.1 0 .3-.1.4-.1.1 0 .1-.1.2-.1.2-.1.5-.3.7-.5.3-.2.7-.5 1.1-.7.1 0 .1-.1.2-.1.2-.1.4-.3.6-.5.8-.6 2-1.6 3.1-1.1.1 0 .2.1.3.1h.1c.3-.1.6-.2 1-.1.5.1.9.3 1.2.4 0 0 .1 0 .1-.1l.3-.2.3.1c.1 0 .3.1.5.1H652.4c.5 0 .6-.2 1-.6l.2-.3c.7-.8 1.5-.8 2.2-.8h1.1c1-.1 2-.2 3.1-.2h1.6c.1-.2.2-.3.5-.4.4-.1.8 0 1.2.1.2 0 .4.1.7.1h.1c0-.1.1-.2.1-.3.2-.4.6-.6.9-.8.3-.2.5-.3.6-.5l.3-.9c.1-.5.2-1 .5-1.5.6-1.1.7-2.4.7-3.7v-1.1c.1-2.2.1-4.5.1-6.6v-2.2c-1.2.3-2.3.5-3.1.5-.6 0-1-.1-1.3-.3-.1-.1-.2-.1-.2-.2l-.1-.1-.1-.1v-.1c0-.1-.1-.2-.1-.4v-.2c0-.4.2-.7.3-.9.1-.2.2-.4.2-.6v-1.4c-.7-.3-1.6-.5-2.5-.7-.5-.1-.9-.5-1.2-.9l-.3-.3h-.1c-.1.1-.3.1-.5 0-.5 0-.9-.2-1.2-.4-.1 0-.2-.1-.2-.2h-.1c-.1 0-.1-.1-.2-.1-.1-.1-.2-.3-.3-.4-.2-.3-.3-.5-.4-.7-.1-.1-.1-.2-.1-.3-.1-.1-.2-.1-.4-.2-.1 0-.2 0-.2-.1-.3-.1-.6-.2-.9-.4-.5-.4-.5-1-.5-1.4v-.5c-.2-.4-.7-.9-1.3-1.2-.1 0-.1-.1-.2-.1-.3-.2-.5-.3-.7-.4l-.1-.1c-.6-.4-1.2-.8-1.7-1.2-1.2-1-2.5-1.9-3.7-2.9-.9-.7-1.8-1.4-2.7-2.2-4.6-3.6-9.6-7.6-14.8-11.4h-6.9l.2 2 2.9 38.4v.1l.1 1.5c.1.3.4.5.6.6.1.1.2.1.3.2.2.2.3.5.3.8v.2c0 .5-.1.8-.2 1.1 0 .1-.1.2-.1.2v.4c0 .4 0 .8-.1 1.1 0 .4-.1.7-.3 1 0 .1-.1.1-.2.2s-.2.2-.3.2h-9.5c-1.3 0-2.5.1-3.5.2-2.2.2-3.6.3-4.5-.3-.2.2-.3.3-.6.4-.1.1-.2.1-.3.1h-.1c-.9.3-1.8.3-2.5.1h-.2c-.1 0-.2-.1-.3-.1-.1 0-.2-.1-.2-.1-.5-.1-.8-.1-1.1 0-.1 0-.2.1-.3.2-.1 0-.1.1-.2.2l-.1.1c-.1.1-.2.2-.2.4 0 .1 0 .1-.1.2 0 .1-.1.2-.1.3l-1.1.1c-.3-.6-.9-1.1-1.4-1.6-.4-.4-.7-.6-.9-.6h-.2c-.1.1-.2.7-.2 1.3 0 .9-.1 1.9-.8 2.5h-.1c-.3.2-.5.3-.8.4h-.2v.1c0 .3-.1.6-.2.8v.1c.3.2.5.5.6.9.2.5.3.9.3 1.3.1.7.2 1.4-.3 1.9.1.1.1.3.2.4.2.1.3.2.3.4h.1c.4 0 .8.2 1.1.8.3.4.7 1 .8 1.6.2.4.2.8.1 1.4v.8c.1.4.2.9 0 1.3 0 .1-.1.2-.1.2 0 .1-.1.2-.1.2s-.1.1-.1.2-.1.2 0 .3v.1s0 .1.1.1l.3-.3c.4-.4.9-.9 1.6-.7l.6.3c.3.2.4.4.5.7 1.5-1.7 2.8-.8 3.4-.3.1.1.2.1.3.2l.3-.3.3-.3c.2-.2.5-.3.8-.4h.1c-.1-.2-.2-.6 0-1 0 0 0-.1.1-.1.1-.1.2-.2.4-.2h.5c.2 0 .3 0 .5.1.6.2 1.5.7 1.4 1.7 0 .1.1.6.2.8v.1c.4.5.4 1.2.4 1.7v.3l.4.2v.1c.1.1.3.2.4.3.4.2.9.6 1 1.2v.6l-.2.1-.3.3c.3 0 .5.2.6.3.4.4.4 1.1.3 1.6v.5c0 .4 0 .6.3.8 0 0 .5.3.9.7.1-.1.2-.3.3-.4.2-.2.4-.3.6-.3.2 0 .4-.1.5-.1h.2l.8.6c.5-.4.5-.2.9 0zM597.1 479.2z"/>
        <path class="st4" d="M705.8 478c.4-.3.8-.6 1.5-.7.1-.1.1-.2.3-.3l.3-.3c.2-.1.5-.2.7-.2-.1-.3-.1-.7-.2-1-.2-.7-.3-1.4-.2-1.9v-.1l.1-.2s0-.1.1-.1v-.1c.1-.3.4-.4.6-.5h.2l.1-.1v-.1c.1-.2.2-.4.4-.7 0-.1.1-.2.1-.2.1-.2.2-.4.2-.6v-.1c.1-.3.1-.5.2-.6.8-2 2.3-3.8 3.7-5.4l.4-.4.1-.1c.5-.5.9-1.1 1.4-1.6.2-.2.3-.4.5-.6l.1-.1c.5-.8.9-1.5 1-2.5 0-.4 0-.9.1-1.3v-1.5c0-.8.1-1.6.1-2.5 0-1.1.1-2.1.2-3.2v-.9c.1-1.9.2-4.1 1.1-5.7.4-.7.3-.9-.4-1.6l-.1-.1-.6-.6c-.1-.1-.2-.3-.2-.4-.1-.4 0-.7 0-.9V440.5c-.2-.4-.5-.8-.8-1.2-.3-.4-.6-.8-.8-1.3-.3-.6-.3-1.3-.3-1.9-.1-.9-.2-1.8-.3-2.8 0-.1 0-.2-.1-.4-.1-.6-.2-1.1-.3-1.7l-1.5.7c-.1.1-.2.1-.3.2-.8.5-1.2.5-1.8 0-.4-.3-.7-.6-1-.9l-.2-.2c-.2-.2-.3-.3-.5-.4l-.2-.2c-.1-.1-.2-.2-.3-.2-.2-.2-.5-.3-.7-.4-.1-.1-.2-.1-.4-.2-.3-.1-.5-.2-.8-.3-.1 0-.2-.1-.3-.1-.6-.2-1.1-.3-1.8-.4l-.3-.1c-.2 0-.4-.1-.6-.1l-1.2-.3c-.4 0-.8.1-1.2.3l-.2.2c-.4.3-.8.5-1.2.8-.5.4-1.1.7-1.6 1.1-1 .7-1.9 1.3-2.9 1.9l-.3.2c-1.2.8-2.4 1.6-3.7 2.4-4.7 3.2-9.3 6.7-13.4 10.6-.1.1-.2.2-.3.4-.5.7-1.8 2.1-2.8 2.6-.7.4-1.5.5-2.2.6-.3 0-.5.1-.8.1l-1.4.3c-.6.1-1.2.2-1.8.4-.2.1-.3.3-.4.5v3.6c.1 2.2.1 4.4-.1 6.6v.3c0 .4 0 .9-.2 2.4v.2c0 .2-.1.3-.2.4-.1.1-.2.4-.6 1.2-.1.1-.1.2-.1.4v.1c0 .1-.1.2-.1.4-.1.3-.1.7-.3 1-.2.6-.7.9-1.1 1.1-.1.1-.2.2-.4.2-.1.1-.1.1-.2.3-.1.2-.2.7-.9.7-.4.1-.9-.1-1.2-.2H663.2s0 .1-.1.1c-.3.4-.8.3-1.1.3h-.1c-.8.1-2 .2-4 .2h-1.7c-1 .1-1 .1-1.9 1.1-.6.6-1.6.8-2.3.6h-1.3c0 .3-.1.5-.1.7-.1.7-.1.9.1 1 .7.4.7 1.1.7 1.6v.2c0 .1 0 .2.1.3.4.4.8.9.9 1.3.5.2 1.1.7 1.7 1.1 0 0 .1 0 .1.1.3.2.7.5.9.7l-.1.9v.1c-.3.1-.6.2-.9.2 0 .1.1.2.1.2s0 .1.1.1c.4.8 1.3 1.6 2.1 2 .2.1.3 0 .7-.2.3-.2.8-.5 1.3-.3.3.1.5.3.7.5 0 .1.1.1.1.2.1.1.1.2.1.3 0 .1.1.2.1.3 0 .1.1.3.1.3v.1l-.3.7c.1-.1.2-.2.4-.2s.3 0 .5-.1H660.4c.3-.4.6-.5.8-.5h.4c.6.1 1 .7 1.3 1l.1.1c.2.2.3.4.5.6.1.1.2.3.4.5.1.2.3.3.5.5 0-.3 0-.6.1-.9v-.9c.1-1 .3-1.4.7-1.9.1-.2.3-.4.5-.6.2-.2.3-.4.5-.6.4-.5.4-1.1.5-1.8v-.2c0-.5.3-.8.5-1.1l.6-.6c.9-.9 1.9-1 2.9-1.1.6 0 1.1-.2 1.6-.4.3-.1.6-.2 1-.3.7-.2 1.4.3 1.9.6.1.1.2.2.4.2.1.1.2.1.4.1s.5.1.7.2c.5.1 1.1.2 1.6.7.1.1.2.2.2.3.4.3.7.8 1 1.4.2.4.5.8.7 1l.1-.1c.1-.1.4-.4.7-.5.1 0 .1 0 .2-.1.4 0 .7-.1 1-.3l.1-.1c.2-.2.5-.4.8-.6.8-.4 1.6-.2 2.3.2.2.1.4.2.7.4.1.1.2.1.2.2.3.2.6.4.8.5.1 0 .2.1.2.1h.1s.1 0 .1.1c.3.1.5.3.7.4.5.3 1 .5 1.5.6h.8c.3 0 .6 0 .8.1h.1c.1 0 .2-.1.2-.2.2-.2.3-.5.5-.7.2-.3.4-.6.7-.8 1.7-1.3 4.3-1.4 6.2-1.2 1 .1 2 .4 2.9.9l.2.1c.1 0 .2.1.2.1h.1c1.1.5 1.3.6 2-.2l.5-.5c.4-.1.6-.3.9-.5z"/>
        <path class="st4" d="M658.8 486.3c-.2-.3-.5-.6-.8-1.2l-.1-.1c-.2-.3-.4-.7-.2-1.2.1-.3.3-.5.5-.6 0-.1 0-.1-.1-.2v-.1c0-.1-.1-.1-.1-.2-.1 0-.2.1-.3.2-.3.2-.7.5-1.3.4-.1 0-.2 0-.3-.1h-.1c-.1 0-.1-.1-.2-.1-1-.4-2-1.4-2.6-2.4-.1-.1-.1-.2-.1-.3-.1-.3-.2-.6-.2-1v-.4c0-.1.1-.2.1-.4h.1c-.6-.4-1.3-.8-1.5-.9h.1c-.1 0-.1-.1-.2-.1l-.4-.7v.2c0-.1-.2-.3-.4-.5s-.3-.4-.5-.7c0 0 0-.1-.1-.1 0 0 0-.1-.1-.1v-.1c0-.2-.1-.3-.1-.5v-.2c-.1-.5-.1-.7-.4-.9l-.1-.1c-.6-.7-.4-1.6-.2-2.4v-.1c-.1 0-.2-.1-.3-.1-.2-.1-.3-.1-.5-.2-.3-.1-.5-.1-.7 0-.2.1-.5.2-.8 0-.1 0-.2-.1-.3-.2l-.1-.1c-.2-.1-.5-.1-.8.2-.7.6-1.5 1.1-2.1 1.5-.2.1-.4.2-.5.3l-.2.1c-.1.1-.3.2-.4.3-.2.1-.4.3-.7.4h-.1c-.3.2-.6.3-1 .4 0 .1 0 .2-.1.2-.1.3-.2.8-.6 1-.3.1-.6.1-1 0l-.3-.1c-.4-.2-.6-.3-.8-.2-.1 0-.1 0-.2.1h-.1c-.4.3-.7 1-.9 1.4l-.1.3c-.1.4-.2.8-.4 1.1h-.1l-.8.2s-.1 0-.1-.1h-.2v1.3l-.6.7h-.4l-.5.6c-.3 0-1-.3-1.7-.7-.1-.1-.2-.1-.3-.2l-.1-.1c-.1 0-.1-.1-.2-.1-.3.5-.6.8-.8 1 .1.1.2.3.2.4 0 .1 0 .2.1.3v.4c0 .2 0 .3-.1.5-.1.4-.6.5-.9.5.4 1.2 0 2.4-1.2 3.4-.5.4-1.1.5-1.6.5h-.5c-.1 0-.3.1-.5.3h-.1c.1.2.1.4 0 .6.1.1.2.3.3.5.2.9-.3 2.1-.6 2.6-.1.2-.3.3-.5.4.1.8.2 1.8-.4 2.6.1 0 .3.1.7.1 1 .1 1.4 1.2 1.6 1.9 0 .1.1.2.1.3.4.4.9.8 1.6 1.1.1.1.3.1.4.2l.3-.3.1-.1c.5-.4 1.1-.6 1.6-.7.2 0 .3-.1.4-.1.2-.1.5-.1.7-.1.3 0 .5.1.8.1h.1c.3 0 .8.1 1 .1h.9c.3.4.6.8.8 1.1 0-.1 0-.3.1-.4v-1c-.1-.3-.1-.7-.2-1-.1-.3-.1-.5-.2-.8 0-.1-.1-.2-.1-.3-.2-.4-.4-.9-.1-1.5 0-.1.1-.2.1-.2.1-.1.1-.2.2-.4v-.3l.6-.7c.6 0 1.1.1 1.7.1H639.7c1 0 2-.1 3.1 0H645.2c.5 0 .6.1.7.3.1-.1.2-.1.3-.2.1-.1.2-.1.2-.2.1-.1.2-.2.3-.2.2-.1.3-.2.5-.2.1 0 .2-.1.3-.1h.4v-.1c.3.1.6.1.8.2.6.1 1.2.3 1.8.5.1.1.3.1.4.1h.5c.3 0 .6-.1.8-.2.1-.1.2-.2.3-.2l.2-.2c.1-.1.2-.3.4-.5.5-.6 1.1-1.4 1.8-1.4.2 0 .5 0 .8.3.5 0 1.8-.4 2.2-.8l.2-.2c.1-.1.1-.2.2-.4.5-.3.5-.5.5-.7z"/>
        <path class="st4" d="m652.4 494.9-.1-.1s-.1 0-.1-.1c0 0 0-.1-.1-.1l-.1-.1c0-.1-.1-.1-.1-.2-.2-.4-.3-.8-.2-1.2v-.5l.1-.5c.1-.1.1-.3.1-.5-1 .1-1.5-.1-2-.3-.1-.1-.3-.1-.4-.1v.1c-.4.8-.4 1.4.6 2.2.1.1.1.1.2.1.2.1.3.2.4.4.3.3.4.5.3.9v.3c0 .1 0 .2.1.2.1.2.1.4.1.8v.5c0 .4 0 .9-.1 1.3.1 0 .2.1.3.2h.1c.1.1.2.2.3.4.2.4.2 1 .1 1.4v.9c0 .6 0 1.3-.3 1.7l.3.3c.2.2.4.4.6.7.6.8.2 1.4 0 1.7-.1.1-.1.2-.2.3v.8c.1.5.2 1.1-.2 1.6-.1.1-.1.2-.2.3 0 .1 0 .1-.1.2-.1.2 0 .4.3.6.6.6.2 1.6 0 2.1-.3.9-.4 1.1 0 1.8.2.3.5.6.9.9l.1.1c.1.1.2.1.2.2h.1l.1.1c.1 0 .1.1.2.1 0 0 .1 0 .1.1.3.2.5.3.7.4.5-.2 1-.4 1.6-.6-.1-.1-.2-.3-.2-.4l-.1-.1-.3-.6v-.2c-.1-.5-.2-1-.3-1.4v-.3l.6-.7h-.2s.1-.2.1-.8c-.1-1.5-.1-3.1 0-4.6V503c0-.9 0-1.5-.3-2.2 0-.1 0-.1-.1-.2l-.3-.6c-.6-1-.6-2-.6-3v-.8c0-.3-.5-.6-.9-.9-.2-.1-.4-.3-.6-.4 0 0-.1 0-.1-.1-.3.2-.3.2-.4.1z"/>
    </g>
</svg>
