<svg xmlns="http://www.w3.org/2000/svg" viewBox="0 0 1440 980" style="enable-background:new 0 0 1440 980" xml:space="preserve">
    <style>
        .st0{display:none}.st1{display:inline}.st2{fill-rule:evenodd;clip-rule:evenodd;fill:none;stroke:#bcbcbc;stroke-width:.75;stroke-miterlimit:1.2402}.st4,.st5{fill:#bcbcbc}.st5{display:inline}
    </style>
    <g id="Layer_5">
        <path class="st4" d="M1085.8 480.6v-.1c-.1 0-.1.1 0 .1zM1062.2 483v-.3.3zM1080.9 463.4c0 .1 0 .1 0 0 0 .1 0 .1 0 0 0 .1 0 .1 0 0zM1180.4 359.4c.1-.1.1-.1 0 0l.1-.1c0-.1-.1 0-.1.1zM1232 338.3c0 .1 0 .1 0 0 0 .1 0 .1 0 0 .1.1 0 .1 0 0zM1231.2 337.4s.1 0 0 0l.1-.1c-.1 0-.2-.1-.2-.1-.1 0-.2-.1-.4-.2v.1c.2.2.5.3.5.3zM1246.6 324.5s0 .1 0 0h.1-.1c.1 0 .1 0 0 0zM1246.9 318.1l-.1.1c.1.1.1 0 .1-.1l-.5.6v.1l.4-.4c.1.1.2.1.4-.3-.1 0-.1 0-.2-.1 0 0 0 .1-.1.1zM1225.2 357.4v-.4c-.3.1-.7.4-.8.6v.1c.2-.2.4-.3.8-.3zM1225.3 359.3zM1231.2 338.8l.1-.2h-.3c.1.1.2.1.2.2zM1222.5 332.5v.2h.2l-.2-.2zM1227.5 332.5c-.3-.1-.6-.3-.8-.5-.2-.1-.3-.2-.5-.3-.3-.2-.5-.3-.7-.3 0 .2.1.4.3.6.3.2.7.3 1.1.4.2 0 .4.1.6.1zM1222 333.1c0 .1.2.2.3.2v-.2h-.3zM1225.9 333.4s.1 0 0 0c.4.5.5 1 .6 1.5 0 .3.1.6.2.8.2.2.2.3.3.3l.2-.2h.1v-.4c.1-.6.7-.9 1.2-1-.3-.1-.5-.2-.7-.4-.3-.2-.7-.3-1-.4-.4-.1-.6-.1-.9-.2zM1241.7 326.4c.1 0 .2-.1.3-.2.1-.2.1-.4.1-.5h-.1l-.3.7z"/>
        <path class="st4" d="M1241 326.2c-.7-.3-1.4-.7-1.6-1.8v-.6c-.2.4-.5.7-1 .8-.7.2-1.4-.1-2-.4-.2-.1-.6-.3-.7-.3 0 0 .1 0 .1-.1l-1-.2h-.3c-.6.1-1-.2-1.3-.4-.1-.1-.2-.1-.3-.2l-.3-.1c-1.4-.6-2.8-1.1-4.2-1.9-.9-.5-1.7-1.1-2.5-1.7-.8-.5-1.6-1.1-2.4-1.6-.2-.1-.3-.2-.5-.3-.3-.2-.7-.5-1-.6.1.4.3.7.5.9l.3.3c.8.7 1.6 1.4 2.1 2.4l.2.3c.4.8.8 1.7 1.1 2.5.2.6 0 1.1-.1 1.4-.1.3-.1.3 0 .4.8 1 1.6 2 1.1 2.8-.3.5-.8.6-1.6.6-.5-.1-1-.3-1.5-.5.3.3.5.7.4 1.3-.1.9-.7 1.2-1 1.4-.1 0-.2.1-.2.1s0 .1.1.5c.2.5.5.7 1.2 1.1h.1c-.3-.5-.5-1.2-.1-1.8.6-1 1.8-.3 2.2-.1.3.2.5.3.7.5.2.1.3.2.4.3l.4-.4c.2-.3.4-.5.7-.6.4-.2.7-.3 1.1-.3 1 0 2 .6 2.9 1.1.4.3.9.5 1.2.6.3.1.7.3 1.2.6.6.3 1.6.8 2.1.9 0 0 0-.1-.1-.1-.4-.8-.6-1.6-.2-2.7.8-2 2.2-2.2 3.6-2 .3-.3.7-.3 1.1-.3h.1l.1-.5c-.6-.6-1-1-1.1-1.3zM1245.7 320c0-.1.1-.1.1-.2s-.1-.1-.1-.1v.3zM1221.5 373.6c-.5 0-1-.2-1.4-.4-.3-.1-.5-.2-.8-.3-.1 0-.4.1-.6.3-.1 0-.2.1-.2.1v.5c-.1.5-.6.9-1.3 1.1-.9.3-1.4 0-1.8-.3-.1.8-.2 1.6-.8 2 0 .1-.1.1-.1.2v.1c0 .1.1.3.2.4.5 0 .8.3.9.7 0 .1 0 .3-.1.5 0 .1.1.2.1.3 0 .1.1.2.2.3.6 0 .9.4 1.1.6.1.1.1.2.2.2-.1-.8.2-1.7.5-2.4s.8-1.1 1.3-1.3c.8-.2 1.7.2 2.4.7 0-.1 0-.3.1-.4.1-.4.4-.8.7-1l.3-.3c-.1-.2-.2-.5-.4-.7-.3-.4-.4-.6-.5-.9zM1223.8 371.2s-.3.1-.4.1c-.1 0-.1 0-.2.1l.1.1V372.1c.2-.1.5-.4.6-.6 0-.1 0-.2-.1-.3.1 0 0 0 0 0zM1207.3 382.8s0-.1 0 0zM1238.5 369.1l-.1.2c0 .1.1.3.1.4 0 .2.1.5.2.6.1-.2.1-.4.1-.6 0-.1-.1-.3-.2-.5 0 0-.1 0-.1-.1zM1241.3 366.3v-.2l-.2.7c0 .1.1.2.2.3 0-.2.1-.3.1-.4 0-.2 0-.3-.1-.4.1.1 0 .1-.1.2 0 0 0-.1.1-.2zM1220.4 371h-.1.1l.1.1.1.2c.2.4.1.7 0 .9.2.1.5.2.7.2 0-.2.1-.4.1-.6.1-.2.1-.3.2-.4-.1 0-.2-.1-.4-.1-.2-.2-.5-.4-.8-.3zM1241 366.8l-.1.3s.1-.2.1-.3zM1214.3 378.2v-.5c0 .1-.1.2-.1.3.1.1.1.2.1.2zM1215.6 372.1c0-.1 0-.1 0 0zM1213.8 373.6l-.3.7.1.1-.3.9c-.3.1-.7.2-1 .2l-.1-.5-.4.5c-1.2-.7-1.9-.9-3-.5-.3.1-.6.1-.9 0 0 .1.1.2.2.3.3.4.4.4 1 .2.4-.2 1-.4 1.7-.1.5.2.8.7.8 1.3 0 .2 0 .5-.1.7.2 0 .5.1.8.2l-.2-.5c.3-.3.6-.5.8-.7.3-.2.5-.4.6-.6l.1-.3.2-.1c.2-.2.2-1.1.3-1.4 0-.2 0-.4.1-.6l.1-.1c-.2.2-.3.2-.5.3z"/>
        <path class="st4" d="M1212.1 382.7v-.4c-.1-.7-.1-1.1 0-1.4.1-.1.1-.2.2-.3.1-.2.3-.4.3-.5 0 0-.1 0-.2-.1l-.1-.5c-.3-.1-.4-.4-.6-.5-.1-.1-.1-.2-.2-.2-.1-.1-.3-.1-.5-.1-.4 0-.8-.1-1.2-.5l.2-1c.1-.1.2-.3.2-.4 0-.2-.1-.2-.1-.2-.2-.1-.4 0-.7.1-.6.2-1.6.6-2.4-.6-.2-.3-.3-.6-.4-.8v-.1h-.3c-.4 0-.8.2-.9.5 0 0-.1.1.1.3l-.6.9h-.4c-.1.2-.2.3-.4.6l-.5-.1v.1l-.6.1-.2.3c.1.1.1.2.2.3.2.2.4.2.7.3.2 0 .3.1.5.2v-.3c.2-.3.6-.5.9-.5.7 0 1.5.6 2.5 2s1.2 2.6.6 3.6c-.2.3-.4.5-.5.6v.2c.1.4.3.6.5 1 .3.4.5.8.6 1.1 0-.2.1-.4.3-.6.3-.4.9-.6 1.4-.3.4.3.6.7.5 1.1 0 0 0 .1-.1.1.1.2.3.3.4.5 0-.1 0-.1.1-.2.2-.4.7-.5 1.3-.4 0-.5-.1-1.1-.3-1.8-.1-.7-.3-1.4-.3-2.1zM1213.3 373.7v.1l.1.1s.1-.1.1-.2h-.2zM1216 373.6c.2.2.3.2.7.1.2-.1.3-.1.4-.2l-.2-.2.7-1 .1-.1c-.1 0-.2 0-.3-.1 0 0-.2 0-.3.1-.1 0-.3.1-.5.1l-.3.3c-.1.1-.2.1-.3.1 0 .1-.1.1-.1.2l-.2.3h-.1l.4.4zM1212.4 373.9c-.1-.1-.1-.1 0 0-.1-.1-.1-.1 0 0-.1 0 0 .2 0 .3 0 0 .1 0 .1-.1-.1-.1-.1-.2-.1-.2zM1206.8 381.6h.2-.2c.1 0 0 0 0 0zM1046.8 426.9l.2.5c.1-.2 0-.4-.2-.5zM1053 433.3c-.4.5-.2 1 .4 2 .3.5.6 1.1.7 1.7v.5c.1-.2.3-.3.6-.3s.5 0 .7.1c-.1-.5-.2-1.1-.3-1.6l-.1-.4c-.5-2.1-1.1-4.1-1.8-6.2-.2-.7-.4-1.4-.7-2.1-.1 0-.2.1-.3.1 0 .3-.1.6-.3.9-.1.1-.1.3 0 .6s.1.6.1.9c-.1.5-.3.8-.6 1-.1.1-.4.1-.6.1.1.5.4.9.8 1.4.1.1.2.2.3.4l.1-.1 1 1zM1084.2 472.7c.2-.1.2-.3.2-.4l-.6.4c.1.1.3.1.4 0zM1062.9 449.5l.1.1.1-.1c-.1.1-.1 0-.2 0z"/>
        <path class="st4" d="m1074.8 463.1.1.1c.1 0 .1-.1.1-.2s-.1-.2-.2-.3c-.2-.3-.5-.8-.3-1.3.1-.3.4-.5.8-.6l.6 1s-.1.1 0 .2c.1.2.3.4.5.3.3 0 .6-.5.8-.9.2-.4.1-.6 0-1.1-.1-.3-.1-.6-.1-.9v-.3c-.1-.7-.1-1 .1-1.3l1.1.2c0 .2.2.3.4.5.1.1.2.1.2.2.2.2.3.5.4.7v.1l-.2-.2h-.3l1 .5c0 .8.4 1.6 1.1 2.5.1 0 .5-.1.7-.1.1 0 .3-.1.4-.1l.3 1.2c-.1.1 0 .6 0 .8 0 .2.1.4.1.5v.7c0 .1.1.1.2.2.1.2.3.4.4.7.3.9.5 1.9.6 2.9.1.8.2 1.6.4 2.3l.5.1c.1.2.2.4.3.7l-.3.2c0 .3.5 1.2.7 1.6.2.4.3.7.4.8 0 .1.1.3.1.4l.2-.1c.3.5.5 1 .6 1.5.1.3.2.6.3.8.1.3.3.5.4.8.3.5.5 1 .7 1.5.3.6.6 1.6.8 2.5v.8c0-.1-.1-.1-.1-.2l-.1 1.2s.1-.1.1-.2v-.2s0 .1.1.1l.1 1c-.1 0-.1.1-.2.1l.2.6s.1-.1.1-.2c0 0 0 .1.1.2.2.3.2.6.2.9 0 .1.1.2.1.3l.6.2c0 .1 0 .2.1.3l-.5.9s.1 0 .1-.1c0 0-.1.3.1 1.1.2 1.1 0 2.1-.5 2.9 0 .3 0 .6-.4.9v.1c0 .1 0 .2.1.2.1.3.1.6.1.9.1-.3.2-.6.2-.8 0-.8.2-1.1.4-1.5.1-.1.2-.3.3-.6.2-.4.5-.8.9-1.4.5-.7 1.8-2.5 1.4-2.9-.3-.4-.6-1.2-1-2.6-.1-.6-.3-.8-.6-1.2-.1-.2-.2-.3-.3-.6 0 0-.6-1-.8-1.9-.1-.3-.1-.5 0-.8 0-.2.1-.4.1-.6v-.4c0-.2 0-.5-.1-.7 0-.1 0-.3-.1-.4 0-.1-.1-.2-.1-.3l-.3-.6s0-.1-.1-.1c-.1-.2-.3-.5-.5-.7-.4-.5-.8-.9-1.3-1.3-.5-.5-1.1-1.1-1.6-1.7-.5-.7-1.1-1.5-1.2-2.5-.1-.5 0-1.4.6-1.8.1 0 .2-.1.4-.1.2-.2.3-.2.4-.3l.1-.1V467.8c0-.4-.2-1-.2-1.4 0-.1 0-.2-.1-.3v-.2c-.2-1.1.5-1.3.8-1.4h-.3c-.1-.2-.3-.4-.4-.6-.4-.7-.6-1.4-.8-2.2l-.1-.4c0-.1-.1-.2-.2-.3-.2-.3-.5-.5-.8-.8l-.6-.6c-.2-.3-.5-.5-.8-.8-.3-.3-.7-.7-1-1.1l-.3-.3c-.1-.1-.2-.2-.3-.4-.3-.4-.3-.8-.4-1.2 0-.2 0-.3-.1-.4 0-.1-.1-.2-.2-.3l-.3-.6c-.1 0-.2-.1-.3-.1-.6-.4-.9-1.2-1.1-1.8l1.1-.4c.1.1.5.1.7 0 0-.2-.1-.5-.2-.7-.2-.4-.3-.9-.2-1.3 0-.2.1-.4.2-.6 0-.1.1-.2.1-.2 0-.1 0-.2-.1-.4-.1-.3-.3-.7-.1-1.2 0 0 .7-2.2 1.7-2 .2 0 .4.1.6.1.5.1.9.2 1.3.1.1 0 .2-.1.3-.1.2-.1.5-.3.9-.3h.3v-.2c0-.3-.1-.8.3-1.2 0 0 .1 0 .1-.1 0 0 .1-.1.2-.1s.1-.1.2-.1c.2 0 .4-.1.7-.1h.4l.5-1c.1 0 .4-.1.6-.2.5-.2 1-.3 1.5-.3V442c0-.1 0-.2.1-.3 0-.1 0-.1.1-.2 0-.1.1-.2.1-.3 0-.1.1-.1.1-.2.1-.1.2-.3.3-.4.1-.1.3-.1.4-.2H1090.8c0-.3.1-.6.2-.9.1-.2.1-.4.2-.5v-.1c.1-.2.2-.5.5-.8-.1 0-.2.1-.3.1-.4.1-.8.1-1.1-.1-.2.2-.5.4-.9.3-.3-.1-.6-.3-.8-.7 0-.1 0-.2-.1-.3 0-.1-.1-.2-.1-.3-.1-.1-.2-.1-.3-.2h-.1c-.1-.1-.1-.2-.2-.3-.1-.3-.1-.7-.1-.8v-.4c-.7-.3-1.7-.2-2.4-.1-.6.1-.9-.1-1.1-.3-.4-.6-.1-1.4.1-2 0-.1.1-.2.1-.3 0-.1 0-.4-.1-.5-.1-.6-.2-1.4.3-1.9-.2-.1-.4-.1-.8-.1-.6 0-.9-.2-1.2-.4l-.1-.1c-.1-.1-.1-.2-.2-.2 0 0 0-.1-.1-.1l-.3-.6c-.1-.2-.1-.4-.2-.5-.1-.2-.3-.3-.4-.5-.1-.2-.1-.5 0-.7-.1 0-.1-.1-.2-.2s-.3-.3-.3-.4c-.3-.4-.2-.8-.1-1.1-.3 0-.5 0-.8-.1-.5-.1-.9-.1-1.2.1-.1 0-.2.1-.3.2-1 .7-1.6 1.1-2.1.9-.1 0-.1-.1-.2-.1l-.1-.1-.1-.1v-.1c0-.1-.1-.1-.1-.2-.1-.2-.1-.4 0-.5 0-.1 0-.1.1-.2 0-.1 0-.1.1-.2.1-.2.2-.3.2-.4v-.1c0-.1-.1-.5-.3-.8-.1-.1-.2-.2-.2-.3l-.3-.3c-.1-.2-.2-.4-.3-.8-.1-.6.1-1 .2-1.2l.1-.1.2-.2c-.1-.4 0-.8 0-1.1 0-.2.1-.4.1-.6l.9-.4c.1-.1.2-.5.2-1.1 0-.2 0-.3.1-.4l.6-.4H1077.8c.1-.3.2-.7.7-1.1l.1-.1c-.1-.1-.2-.3-.3-.5 0 0 0-.1-.1-.1l.6-.6v-.1l-.1.1c0-.1 0-.6-.1-.8v-.5c0-.8-.2-1.8-.5-2.7-.1-.3-.2-.6-.2-.9-.1-.4-.2-.8-.4-1.1-.2-.3-.3-.5-.6-.7h-.1c-.1.1-.2.2-.4.2l-.8-.3c-.1-.2-.3-.4-.4-.6-.2-.2-.3-.5-.5-.8 0-.1-.1-.1-.1-.2-.1-.1-.1-.2-.1-.3v-.2c0-.1-.1-.2-.1-.3-.1-.4-.1-.6-.3-.7-.3-.3-.7-.5-1.1-.7-.2-.1-.5-.3-.7-.4-.1.2-.1.4-.1.5 0 .1 0 .1-.1.1 0 .1-.1.2-.1.3v.1c.2.2.4.5.3.8-.1.5-.5.9-.9 1.2l-.1.1-.3.3c-.3.4-.1.6.4 1.2.2.2.4.5.6.7.1.2.2.4.3.7l-.3.5-.1.2c-1 .4-1.7-.4-2-.8-.1-.1-.2-.2-.2-.3-.4.1-.8.1-1.1.2-1.1.2-1.2.2-1.4.5l-.1.1c-.3.6-.7 1.1-1.3 1.4-.1.1-.2.2-.3.2-.1.2-.2.5-.6.7-.2.1-.4.1-.5.1-.2 0-.3 0-.3.1-.1.1-.2.3-.2.6 0 .2.1.5.1.7 0 .1.1.2.2.3l.3.6c.1.5 0 .9-.1 1.2 0 .1-.1.3-.1.4-.1.8-.5 1.3-.9 1.8s-.5.7-.5.8c0 .1.1.2.2.3.2.3.5.7.5 1.2-.1 1.3-.5 2.4-.9 3.4-.3.8-.6 1.6-.8 2.5l-1 .4c-.2-.2-.9-.4-1.7-.7-.1 0-.2 0-.3.1-.1 0-.2 0-.3.1.1.5.2.9.3 1.4v.2c0 .3.1.6.1 1v1.1c0 .1 0 .3-.1.4v.1c0 .1-.1.2-.2.3l-.1.1c-.1.1-.2.2-.3.2 0 0-.1 0-.2.1v.2c.1.7.1 1.3.4 2 .2.4.5 1.5 0 1.9-.1.1-.2.1-.3.2 0 .5-.2 1-.6 1.1-.4.2-.8 0-1.2-.4 0 .1 0 .2.1.3.2.9.3 1.8.6 2.6l-.4.8c-.5.2-1-.1-1.3-.4-.1 0-.2-.1-.2-.1 0 .4.3 1.1.4 1.5.1.3.2.5.2.7.1.2.2.4.3.4.4.2.8.5 1.1.9l.6-.2c.1.1.1.2.2.3.1.1.1.2.2.2 0-.1.1-.2.1-.3l1.2.4c-.1.2-.1.4 0 .7l.2.3c-.1.1-.1.3-.2.4l.2.3h.3c.3 0 .8 0 1.2.5.2.2.4.3.5.4l.8.5v.4h.3l.3 1.1v-.3c0 .1.3.2.4.3.2.2.4.3.5.5.1.2.2.4.3.5l.1-.1c.4.6.3 1.4.3 2.1v.1c0 .2 0 .2.4.4.1.1.3.2.4.2l-.2 1.1.2-.2c.1-.2 0-.3 0-.4l.1.1c.1.1.3.3.4.6l.1.2c.1.3.2.5.4.7.5.5.6 1.3.7 1.9.1.4.1.8.3 1 .8 1.7.9 2.9.3 3.5 0 .2 0 .6-.1.8 0 .4 0 .7-.1 1-.1.5-.4 2.1-.4 3 .2-.2.3-.5.5-.8.2-.4.1-.6.1-.6l.2-.3v-.1l.4-.5h.1l.3.4.3.3v1.1c.1-.2.3-.3.5-.4l.4.9.3-.3c.2-.1.5-.1.7.1v.1l1 .2c.1.3 0 .6 0 1 0 .2-.1.4-.1.6.3-.4.5-1.4.5-1.6l1-.6c.1 0 .3-.1.4-.2v.2l1-1zM1047.7 434.8l.2.1v-.2l-.2.1zM1045.3 435.4c0 .1-.1.1 0 0l.3.3s0-.2-.2-.3h-.1zM1043.1 434.3c0-.1 0-.1 0 0v-.3.3zM1043.1 435.1s0 .1 0 0c0 .1 0 0 0 0zM1039.3 435.8v.4h.2c0-.1 0-.2-.2-.4.1.1.1 0 0 0zM1047.5 434.6v-.1.1zM1049.7 430.4h.6c-.3-.2-.5-.5-.6-.7h-.6c-.1-.3-.3-.6-.4-.9-.3-.6-.6-1.2-.8-1.8-.1-.7.1-1.3.4-1.7 0-.1.1-.1.1-.2.1-.2.2-.5.2-.6l.2-.2.5-.6c.2 0 .5.1.6 0-.1 0-.1.1-.1.2l.7-.3.4-.2c-.1-.1-.2-.1-.3-.1.1 0 .3-.1.4-.1.1-.3.3-.6.5-.9.1-.1.1-.2.2-.4.2-.4.3-.7.3-1 0-.1 0-.2-.1-.4l.4-.6c-.5-.3-1.1-.6-1.6-.6h-.7c-.4 0-.9-.1-1.4 0-.3 0-.6 0-.9.1-.6 0-1.3.1-2 0h-.8c-1.3 0-2.8-.1-3.6-.9 0 0 0-.1-.1-.1 0 0 0-.1-.1-.1-.2-.3-.3-.7-.3-1.2s-.1-1.5-.4-2.1v.1l-.9.3c-.2-.1-.4-.2-.6-.2-.5-.2-1-.4-1.3-.8l-.1-.1-.1-.1c-.1-.1-.1-.2-.2-.3l-.2.2c-.1 0-.2 0-.3-.1-.3 0-.7-.1-1.2-.4-.2-.1-.3-.2-.4-.3v.1c-.6.2-1.1.8-1.1 1.3 0 .2 0 .4.5.6.5.2.8.6 1.1.9.2.2.3.4.5.5h.2c.8-.1 1.2.2 1.3.8 0 0 0 .1.2.2s.5.3.6.7c.1.4-.1.8-.2.9l-.8.2c-.2-.1-.7-.1-1 0h-.2c0 .4-.3 1.4-1.1 1.6h-.2c-.1.3-.1.4 0 .5.1.1.3.2.4.3.2.1.5.2.8.3.4.1.9.3 1.3.6l.2.2.1.1c.7.7.7 1.2.6 1.6v.1c.2.5-.2.9-.4 1.1-.1.1-.2.2-.2.3.4.3.6.4.6.5.1.1.2.1.3.3.3.3.2.7.2 1v.1h.3c.8.2.7 1.1.7 1.5v.2c0 .2.1.4.1.7.1.2.1.5.2.8.1.5.2.9.4 1.3l.2.4c.2.6.4 1.2.4 1.8l.3.6.4-.2c0-.1-.1-.3-.1-.5-.1-.3-.2-.7-.2-1h.5c0-.1.1-.3.1-.4l1.1.2c0-.4.1-1 .8-1.3l.8.8c-.2.5-.2.9-.1 1.3.1-.1.2-.2.3-.4l.5.2v-.2l.9-.3c0-.2-.1-.4-.2-.6l-.7-.2v-.8l.1.1-.5-1c.4-.5.3-.6.2-.7l.2-.9c.1 0 .1-.1.2-.1-.2-.2-.6-.4-.9-.6-.2-.1-.4-.2-.5-.3l.5-1.1c.1 0 .2 0 .3.1.1 0 .2 0 .2.1l.5-.8.1.1.4.2h.2v.1l.5-.1c.1.2.2.4.2.7v.1h-.1c0 .1-.1.2-.2.3 0 0 0 .1.1.1.1.2.3.5.3 1 0 .2 0 .4.1.6l.2.4c.5.9.8 1.4.9 1.5h-.3l.1.2.5-.3c0-.1.1-.2.2-.3.1-.1.3-.3.5-.4.1-.4.2-.5.2-.6zM1241.4 361.8c-.2-.6-.3-1.3-.3-2 0-.5.1-.7.4-.8v-.2c-.1-1-.8-2-1.5-2.9-.3-.4-.6-.8-.8-1.2-.7-1.1-.7-2.2-.1-2.8.1-.1.4-.3.9-.4-.4-.9-.6-1.9-.4-2.6.1-.2.2-.4.3-.5-.1-.2-.1-.4-.1-.6 0-.2 0-.3-.1-.4-.2-.3-.3-.5-.3-.7-.1-.2-.1-.4-.2-.5-.2-.3-.4-.6-.5-.9-.1-.3-.2-.5-.4-.7-.1-.2-.2-.3-.4-.4-.2-.2-.5-.4-.7-.8-.3-.5-.9-.9-1.6-1.3-.4-.2-.8-.5-1.1-.8-.5-.4-.9-1-1.3-1.6v.1l-.8.2c-.1-.1-.2-.1-.3-.2 0 .1-.1.1-.1.2l-.2.4-.4-.1c-.7-.2-1.1-.8-1.4-1.2l-.1-.1c.2.5.3 1-.2 1.4-.1.1-.3.2-.4.3 0 0-.1 0-.1.1.1.1.2.2.3.2.5.4 1.1.9 1.3 1.5.1.2.2.8.1 1.3.8.2 1.4 1.1 1.6 1.5.9 1.4 1.1 3.8.9 5.3 0 .3 0 .7.1 1.2.2 1 .5 2.3-.7 3-.5.3-.6.6-.7 1.4-.1.5-.1 1.1-.5 1.7-.5.9-1.3 1.2-2 1.5-.3.1-.7.3-.9.4-.1 0-.2.2-.3.4-.4.5-.8 1-1.5 1-.4 0-.8-.3-1.1-.9v-.1c.1.2.1.5 0 .7-.2 1-.6 1.7-1.3 2.5-.2.3-.2.4.3 1 .3.4.8.9.7 1.6l-.5.2c-.1.2-.2.3-.4.5h-.1c-.1.1-.1.2-.2.3-.4.4-1.2.3-1.7.2-.1 0-.2 0-.3-.1.1 0 .3-.1.4-.3.1-.1.1-.3.1-.4l-.8.9s-.1 0-.2-.1c-.3-.1-.9-.3-1-.9v-.2c-.2.1-.3.2-.5.2-.4.1-.8.1-1.1.1-.4 0-.7 0-1 .2-.6.3-1.1.5-1.7.5h-.9c-.2 0-.7-.1-.8 0-.8.5-1.3.2-1.7-.1l-.2-.1c-.2-.1-.7.2-1 .3.1 1-1.2 2.3-2.3 3.5-.4.4-.9 1-1 1.1-.3.8-1.1.8-1.7.9h-.3c.1.3.2.6.4.9.3-.1.6 0 .9.1.2 0 .5.1.6.1 1-.4 1.9-.3 2.7 0 0-.4 0-.8.1-1.1.2-.8.8-.9 1-.9.6 0 .9.3 1.1.5l.2.2c.3-.1 1.2-.5 1.3-.6l.6.2.3-.2.9-.6s.1 0 .2-.1c.3-.1.6-.2 1.1-.1 0 0 0 .2.1.4l.3.3-.3-1.1h.2c.3-.1.5-.2.8-.3.4-.2.9-.4 1.4-.5.6-.1 1.2.1 1.6.3.3.1.6.3.8.2.1 0 .2-.1.4-.1.5-.2 1.4-.5 2 .5.2.3.2.7.1 1.1-.1.4-.3.7-.6.9.4.5.5 1.1.4 1.4 0 .2.5.4.7.6l.2.1c.4.2.6.5.8.7l.4.4.6.3c.1.1.2.1.4.2.1-.3.2-.8.4-1.6 0-.2.1-.4.1-.4v-.3c0-.4.1-1 .5-1.3.3-.3.7-.4 1.1-.4-.2-.2-.4-.3-.7-.4-1.1-.5-1.1-1.3-1-1.8v-.5c0-.4.3-1.2.8-1.3.2 0 .7-.1 1 .6.1.2.1.4.2.5h.5v.1h.4c.4 0 1.1 0 1.4.7.9-.1 1.8 0 2.6.2 0-.2 0-.5.1-.7.2-.7.8-1.5 1.6-1.7.2-.1.7-.1 1.1.2-.1-.7.4-1 .6-1.1.3-.1.7-.1 1.1-.1v-.5c0-.1.1-.2.2-.3 0-.2.1-.4.2-.5.4-.5 1.3-.5 1.8-.2.4.3.7.8.3 1.7-.1.3-.1 1.2 0 1.7.3-.3.8-.7.9-.9 0-.1-.1-.2-.1-.3-.1-.2-.2-.5-.2-.8 0-.7.3-1.1.7-1.4-1.3-1.3-2-2.5-2.5-3.9zM1220.2 317.5h.1-.1zM1202.2 374.9h-.1v.1l.1-.1zM1212 362.8c0-.1-.1-.2-.2-.2h-.1l.2.4c.1-.1.1-.2.1-.2zM1211.3 363.7l-.2.1v.2c.1 0 .2-.1.3-.2v-.1h-.1zM1241 370l.1.3.3.1c0-.1 0-.2-.1-.2-.1-.1-.2-.2-.3-.2zM1180.7 420.7c0-.3.1-.5.2-.7v-.1c-.3-.3-.9-.7-1.2-.8-.2.2-.5.3-.8.5-.4.2-.7.3-.8.6-.1.2-.1.4-.2.6-.1.4-.2.9-.7 1.4-.3.4-.4.9-.6 1.5 0 .2-.1.3-.1.5-.1.4-.2.7-.4 1.1-.3.7-.5 1.3-.4 1.9 0 .1.1.2.1.3.1.3.3.8.1 1.3 0 .2-.1.3-.1.4.5.5.8 1.1 1 1.7.1.2.2.5.3.7.2.3.5.6.9.8.3.2.7.5 1 .9v.1c-.1-1 .3-1.7.7-2.2.9-1.3 1.1-3.7 1-5.7 0-.1 0-.2-.1-.3-.1-.3-.2-.8 0-1.2.1-.2.1-.3.2-.4.1-.2.1-.3.1-.4 0-.4 0-.8-.1-1.2 0-.5-.1-.8-.1-1.3zM1189.1 377.6c.3-.1.6-.3.7-.4-.4 0-1.1.3-1.4.5.3 0 .6-.1.7-.1zM1185.2 451.3l-.2-.1-.1.3c.1 0 .2-.1.3-.2zM1186.6 443.2c0 .1.1.1 0 0zM1135.9 445.6l-.3.1c.1.1.2 0 .3-.1zM1199.6 480.8s.1 0 0 0c.1-.1.1-.1.2-.1l-.5-.1c.1 0 .1.1.3.2-.1 0 0 0 0 0zM1193.2 482.8l.1-.1h-.1v.1zM1208.9 405.5v-.1.1zM1198 479.3c.1.2.1.5.1.6.3.1.5.2.7.4.1.1.2.1.3.2-.1-.3-.1-.6-.1-.8v-.2c-.1-.2-.5-.7-.8-.9-.6-.4-.7-.9-.5-1.3.1-.2.3-.3.5-.5-.2 0-.3-.1-.4-.2 0 .1 0 .2-.1.4-.1.3-.4.5-.7.6-.3.1-.5.1-.8 0 .1.1.3.2.5.3.3.3.9.6 1.3 1.4zM1198.6 481.6c-.2-.1-.3-.2-.5-.3.1.1.2.3.3.4l.2.3-.6.4.6.3c0-.1.1-.2.1-.4l.7-.2c-.3-.1-.5-.2-.6-.3-.1-.2-.2-.2-.2-.2zM1191.5 478.9v-.1s-.1-.1-.2-.1c.1.1.1.2.2.2zM1191.3 459.2c-.1 0-.2-.1-.2-.1h-.1l.5.2c-.1.1-.1 0-.2-.1zM1192.8 477l.1.1s0-.1-.1-.1c0-.2 0-.4-.1-.5-.1.1-.2.1-.3.2.1 0 .2.2.4.3zM1193 475.4h.3c1 0 1.8.9 2.3 1.5-.1-.3-.2-.5-.3-.8-.1-.2-.1-.5-.2-.5-.3-.5-1.3-1-1.8-.8-.1 0-.2.1-.2.5l-.2.1c0-.1.1-.1.1 0zM1191.4 472.1c.1.1.3.1.3.1l-.2-.3h-.1v.2zM1200.7 482zM1201.3 476.6c0-.1-.1-.2-.2-.3 0 .3 0 .5.1.8.1-.2.1-.3.1-.5zM1201.4 413.3c0-.1.1-.2.1-.4 0-.1-.1-.2-.1-.2l-.1.5.1.1zM1198.8 373.1c0 .1-.1.1-.1.2 0 0 .1.1.2.1l-.1-.1.4-.2-.4.2v-.2zM1185.1 472.5c.1.3.1.6 0 .9.2-.2.4-.4.6-.5-.1-.1-.3-.2-.6-.4zM1184.9 476.3l.1-.2v-.1c0 .1-.1.2-.1.3zM1205.4 385.9l.4-.2.1-.2c-.1 0-.2.1-.3.2-.2 0-.2.1-.2.2zM1106.9 430.8l.1.1s-.1 0-.1-.1zM1131.9 469.1l-.4-.1c0 .1.1.2.4.1-.1.1-.1.1 0 0z"/>
        <path class="st4" d="M1131.9 469.2c.1 0 .2 0 .2-.1l-.2.1s-.1 0 0 0c-.1 0-.1 0 0 0zM1117 431.5s-.1.1-.2.1l.2-.1zM1118.1 443.1l.2.1v-.1h-.2zM1135.4 478.6l-.1.4.1-.1v-.3zM1125.2 435.4H1126.1c-.1-.1-.2-.2-.4-.2-.3-.1-.5.1-.5.2zM1134.6 476.2c-.1 0-.2.1-.3.1l.3-.1zM1134.6 477.4c-.1 0-.1 0 0 0-.2.1-.3.2-.3.3l.3-.3zM1148.5 433v-.2l-.3-.1c0 .1.1.3.1.4v.4l.3-.3s-.1-.1-.1-.2zM1165.4 422.6zM1163.9 424.9s0 .1.1.1c0 0 .1 0 .1.1.1 0 .1.1.2.1l-.4-.3zM1170.8 418.1h.2-.4.2zM1165.4 422.6c.1 0 .1 0 0 0zM1163 426.6v.1c.1.1.2.1.2.1l-.2-.2zM1170.6 412.4c-.1 0-.1 0 0 0-.1 0-.1 0 0 0-.1 0-.2 0-.2.1l.2-.1c0 .1 0 .1 0 0zM1151 433.6s0 .1.1.1c0 0 .1-.1.1-.2.1-.1 0-.3 0-.3l-.2.4zM1141 437.4s0-.1 0 0zM1143.5 435.6c.1.1.1 0 0 0 .1 0 0 0 0 0zM1144.7 436.1c-.1 0-.1 0 0 0zM1134.8 440.9h-.1c-.1 0-.1.1-.2.1l.5-.1c-.1.1-.1 0-.2 0zM1163.2 426.8c0-.1 0 0 0 0 .2 0 .3-.2.3-.3l-.3.3zM1117.4 468.4zM1105.8 453.7v.1c-.1 0 0 0 0-.1zM1092.1 440.5zM1110.5 446v.2c0 .1.2.2.2.2l-.2-.4zM1093 437.3c-.2.1-.3.3-.5.4h.2c.2-.2.3-.3.3-.4 0 .1 0 0 0 0zM1091.9 440.3c-.1-.1-.2-.1-.3-.1l.5.3c-.1-.1-.1-.2-.2-.2zM1174.4 404.2l.1.1-.1-.1zM1158.9 362.4h-.2.2zM1154.7 347.1c.1.1.2.1.3.1-.2-.1-.3-.1-.3-.1zM1156.7 362.9l.3-.4c-.1 0-.2.1-.2.2-.1.1-.1.1-.1.2zM1155.8 349.4c0 .1.1.1 0 0 .2.1.4 0 .6-.2h-.1c-.2.1-.4.2-.5.2zM1175.6 393.2h-.3c.1.1.2 0 .3 0zM1172.9 408.7c0 .1.1.2.1.3.1-.1.1-.3.1-.4l-.2.1zM1174.7 404.2l-.2.1h.1s.1 0 .1-.1c0 .1 0 .1 0 0z"/>
        <path class="st4" d="m1165.1 343.5.1-.4c.1-.2.1-.4.3-.6 0-.1.1-.1.1-.2 0 0 0-.1.1-.1.1-.2.3-.5.5-.7l.2-.2c.2-.2.4-.3.6-.3.1 0 .1-.1.2-.1.1-.3.4-.6.6-.7l.1-.1c.1-.1.3-.1.4-.2.1 0 .2-.1.2-.1.1-.1.2-.1.2-.2 0-.2.1-.3.2-.5 0-.1.1-.1.1-.2.2-.2.5-.3.7-.3h.1c.1 0 .2 0 .2-.1 0 0 .1-.4.2-.6v-.2c.1-.3.1-.7 0-1.1 0-.7-.1-1.6.7-2 .1 0 .1-.1.2-.1.2-.2.8-.7 1.4-.3.4.2.6.4.9.6.2.2.4.3.6.5.9.5 1.9.7 2.8.7h.8c0-.1-.2-.1-.3-.2l-.6-.3c-.4-.4-.7-.8-1.1-1.2l-.1-.2.2-.5.2-.4c.7-.2 1.4-.2 2.1-.2H1179.2v-1.1s0-.1.1-.1c.3-.6 1-.6 1.4-.6h.1c-.1-.4-.4-1.1-.5-1.4-.1-.1-.1-.2-.1-.3 0-.1-.1-.1-.1-.2l.6-.8c.5 0 1.9-.1 2.7 1.2.4-.4.8-.6 1.3-.7h.5v-.3c0-.8-.4-1.3-.8-1.9-.3-.4-.6-.8-.9-1.3-.7-1.5-1.6-2.9-2.8-4.2l-.1-.1c-.1-.1-.3-.2-.4-.4l-.1-.1-.1-.1c-.1-.1-.1-.2-.2-.2-.3-.4-.4-.6-.4-.9.1-.2.2-.4.5-.5.2-.1.4-.1.6-.1.3-.1.4-.1.5-.3 0-.1.1-.2.1-.3.2-.5.3-.9.7-1.1 0 0 .1-.1.2-.1 0 0 .1 0 .1-.1.5-.1 1.2.1 2.1.5.2.1.3.1.4.2.9.2 1.6.4 2.1.5h.1c-.3-.4-.6-1-.5-1.6.1-.2.2-.5.5-.7l-.1-.1c-.1-.1-.2-.2-.2-.4-.3-.6-.1-1 .1-1.3v-.1l-.1-.1.1-1h.1c-.1-.1-.2-.2-.2-.3-.1-.1-.2-.2-.2-.3-.2-.2-.2-.5-.2-.7 0-.1-.1-.3 0-.4 0-.1 0-.2-.1-.3 0-.1-.1-.2-.1-.3-.1-.1-.1-.3-.2-.5 0-.1-.1-.2-.1-.2v-1s-.1-.1-.1-.2c-.2-.2-.8-.9-.1-1.7.2-.3.5-.5.6-.5v-.2c-.1-.3-.2-.4-.6-.7-.2-.2-.4-.3-.7-.6-.3-.3-.5-.7-.6-1.1v-.4c-.1-.1-.3-.1-.4-.2-.4-.2-.8-.2-1.3-.1-.1.1-.3.1-.4.2-.1.1-.2.1-.3.2-.1.1-.4.3-.6.5l-.1.2-.3.2c-.2.1-.4.1-.6.1H1179.8c-.4-.1-.9 0-1.2.2-.2.1-.3.3-.3.6v.1c0 .1 0 .2-.1.3 0 0 0 .1-.1.1v.1h-.1c-.5.7-1.7.7-2.6.7h-.6c-.6.1-.9.1-1.5-.3h-.2s-.2.1-.3.1c-.3.1-.7.3-1.1.1l-.1-.1c-.9-.3-2.1-1.2-2.5-1.5-.6-.5-.9-.9-.8-1.3 0-.2 0-.3-.1-.4v-.1c-.2-.4-.6-.7-1.4-1.1-.7-.4-.8-1-.9-1.4v-.1h-.4c-.4 0-.9 0-1.3-.1-.3-.1-.6-.2-1-.3-.1 0-.1-.1-.2-.1-.4-.2-.8-.5-1.2-.8-.3-.3-.5-.3-.9-.4l-.3-.1c-.1 0-.2-.1-.4-.3-.1-.1-.3-.2-.4-.3l-.1.1-.2.2c-.1-.1-.2-.1-.4-.1s-.3-.1-.5-.1c-.5-.1-1-.2-1.6-.5-.5-.3-.8-.4-1.3-.4h-.5c-.7.1-1.3.1-2.2-.1-1.2-.3-2-1-2.7-1.6-.2-.2-.3-.3-.4-.5-.1-.2-.3-.5-.4-.7v-.1c-.1-.1-.1-.2-.2-.2l-.3-.2c-.1 0-.1-.1-.2-.1-.1-.1-.2-.1-.4-.2-.4-.3-.8-.6-1.1-1.3-.4-.7-1.1-1.2-1.9-1.7-.8-.5-1.6-1.1-2.1-1.9-.2-.2-.6-.7-.9-.9-.1 0-.1-.1-.2-.1-.4-.2-.9-.6-1.3-1-.2-.2-.4-.4-.6-.5-.5-.3-.8-.7-1-1.1-.2-.3-.3-.5-.6-.7-.3-.2-.6-.4-.9-.7-.3-.2-.5-.4-.8-.5 0 0-.1 0-.1-.1-.1-.1-.3-.2-.4-.3 0 0-.1 0-.2-.1-.3-.1-.8-.3-1-.8-.1-.1-.1-.2-.1-.2s-.1-.1-.2-.1c-.3-.1-.5-.2-.7-.3h-.1c-.1 0-.1-.1-.2-.1s-.1-.1-.2-.1-.1-.1-.2-.1c-.4-.2-.7-.4-.9-.8-.1-.1-.7-.2-1-.3-.3-.1-.5-.1-.7-.2-.4-.2-.5-.2-.6-.2l.1-.1-.8.5c-.1-.1-.2-.1-.4-.1s-.4-.1-.6-.1c-.4-.1-.9-.1-1.3-.4-.2-.1-.4-.2-.6-.4-.2-.1-.3-.2-.5-.3-.1-.1-.3-.1-.5-.1-.3 0-.6-.1-.9-.3-.9-.5-2-.4-3.1-.3-.7.1-1.5.2-2.2.1h-.6c-.6 0-1.2.2-1.9.4s-1.4.4-2.1.5c-.5 0-.6.3-.9.9-.1.3-.3.8-.6 1.1.1.1.3.1.6 0h.3c.3 0 .5 0 .8.1.5.1 1.1.4 1.4.9.1.2.4.5.6.7.4.3.7.7.9 1.2.4 1.1-.1 1.6-.5 1.9-.2.2-.3.3-.4.6-.1.3 0 .8.1 1.3.1.3.1.6.1.8 0 .3.1.9-.1 1.4V290.2c.1.2.2.4.2.8v.4c-.1.4-.1.7 0 1h.1c.1 0 .2.1.2.1.4.2.8.4 1.1.8.2.3.2.7 0 1-.3.7-1.3.9-2.1 1.1-.2 0-.3.1-.4.1-.1 0-.2.1-.3.3l-.1.1c-.1.1-.2.3-.3.5-.2.2-.3.5-.5.7-.7.8-1.8.4-2.7.1-.2-.1-.4-.2-.6-.2l-.5-.1c-.6-.1-1.1-.2-1.7-.4l.4 5.8s0 .1.1.1c.2.3.2.6.2.8-.1.3-.2.5-.4.7l-.1.1c.3.3.7.6 1.1.9.1.1.2.1.4.2l.1.1h.1s.1 0 .1-.1c.1-.1.3-.3.6-.4.2-.1.5-.2.8-.2h.9c.7 0 1.4-.1 2.2.3l.2.1c.7.3.7.3 1 0 .1-.1.2-.3.3-.4l.3-.3.2-.2c.4-.3.9-.5 1.6-.5 1.7.1 3.7 1.2 5.4 2.3.3.2.7.4 1 .6 1 .6 2 1.3 3 2 .2.2.5.4.7.7l.1.1c.6.7.8 1.3.5 1.8-.2.3-.4.5-.8.6h-.1c-.1 0-.2.1-.3.1h-.4c-.7.1-1.4 0-1.7-.1-.3 0-.5-.1-.7-.2-.1 0-.2-.1-.2-.1-.1 0-.2-.1-.3-.1h-.1c-.3.3-.8.2-1.4.1-.1 0-.3-.1-.3-.1-.4 0-.8.2-1.2.5-.1.1-.3.2-.4.2-.1.1-.2.1-.3.1h-.2c-.2 0-.4 0-.6-.1h-.1c-.1.5-.3 1.1-1.4 1h-.1c-.9-.1-1.2 0-1.4.4-.1.3-.2.5-.2.9 0 .1.1.1.1.2.2.3.4.6.3 1-.1.3-.3.6-.9 1-.2.2-.5.4-.7.6l-.2.1c-.4.4-1 .5-1.7.6-.3 0-.5.1-.8 0h-.2c-.2 0-.4 0-.6-.1-.2 0-.5-.1-.6-.1-.1.2-.1.4-.2.5-.1.3-.2.6-.4.8v.1l-.1.1-.1.1s0 .1-.1.1c0 .1-.1.1-.1.2-.2.2-.5.3-.6.4l-.2.1c-.1.1-.2.3-.3.4-.3.7-1.6.5-2.4.3h-.1c-.4-.1-.9-.2-1.3-.3-.6-.1-1.1-.4-1.6-.7-.1-.1-.2-.1-.3-.2-.1 0-.2-.1-.3-.1-.2-.1-.3-.1-.4-.2-.6-.2-1.1-.2-1.5.1-.1.1-.2.2-.2.3v.1c-.1.3 0 .6.1.8v.2c.1.3 0 .6 0 .8v.3h.1s.1 0 .1.1c.1.1.3.2.4.3l.2.2c.1.1.2.1.3.2 1 .6 2.1 1.3 2.4 2.2.1.2.2.4.1.7 0 .1-.1.3-.2.5 0 0 0 .1-.1.1-.1.1-.2.2-.5.3-.2.1-.6.5-.8.7l-.2.2c-.2.2-.5.4-.7.5-.3.1-.5.2-.5.4l-.1.3c-.2.6-.4 1.2-.8 1.7-.1.1-.2.2-.2.3-.1.1-.2.3-.4.4-.4.4-1 .6-1.5.8-.3.1-.7.3-.9.4-.5.3-1.1.4-1.7.4H1094c-.7 0-1.3.1-1.9.2-.2 0-.3 0-.5.1-1.8.3-3.5.6-5.2 1.5-.7.4-1.5.8-2.1 1.2-.1.1-.3.2-.4.3l-.3.3c-.3.2-.4.4-.7.4l-.1.1h-1.1c-.5 0-1.1-.1-1.6-.5-.7-.5-.7-.5-1.6-.4-1.5.2-3-.3-4.4-.7l-2.1-.6c-.9-.2-1.9-.4-2.8-.7H1068.9c-.1 0-.1-.1-.2-.1-.4-.2-.7-.4-1-.7-.1-.1-.3-.2-.4-.3l-.1-.1-.1-.1c-.2-.1-.4-.2-.7-.3-.4-.1-.9-.1-1.3-.1-.5 0-1.1 0-1.7-.1-.9-.2-1.7-.3-2.6-.4-.5-.1-.9.1-1.4.2-.2.1-.5.1-.7.2h-.1c-.1 0-.3.1-.5.1h-.4c-.8 0-1.5 0-2.2-.1-.5-.1-1-.1-1.5-.1-1 0-1.9-.2-2.9-.4-1.2-.2-2.4-.5-3.6-.3-.1 0-.3 0-.5.1-.7.1-1.5.3-2.1 0-.5-.2-.7-.7-.9-1-.1-.2-.5-.4-.7-.5l-.2-.1c-1-.6-1.7-1.4-2.4-2.3-.2-.3-.4-.5-.6-.8-.3-.4-.6-.8-1-1.1l-.1-.1c-.1 0-.1-.1-.2-.1 0 0-.1 0-.1-.1 0 0-.1 0-.1-.1-.5-.3-1.1-.6-1.2-1.5-.1 0-.6-.1-.9-.1-.5 0-1-.1-1.4-.3-.9-.4-1.9-.9-2.7-1.4-.1-.1-.2-.1-.3-.2l-.1-.1c-.1-.1-.3-.1-.5-.1-.5-.1-1-.3-1.5-.7-.1-.1-.3-.2-.4-.3-.3-.1-.7-.3-1-.4-.7-.2-1.5-.2-2.3-.1h-1.8c-1.1-.1-2.3-.3-3.4-.4-.5-.1-1-.2-1.5-.2-1.5-.2-3.1-1.1-3.7-2.5v-.1c0-.1 0-.1-.1-.2-.3-.7-.2-1.4.3-2.1.1-.1.1-.2.1-.2-.5-.6-.6-1.2-.6-1.7-.1-.4-.1-.7-.3-1-.5-.6-.9-1.1-1.5-1.6-.2-.1-.3-.3-.5-.4-.1-.1-.2-.2-.3-.2-.7-.5-1.1-1-1.4-1.6-.2-.3-.4-.6-.6-.8-.2-.2-.6-.5-1-.7-.2-.1-.5-.3-.7-.4-.2.1-.3.1-.5.1-.5 0-.9-.3-1.2-.5l-.1-.1c-.4-.3-.5-.3-.9-.2h-.5c-1.1.1-2.1-.5-3-1.1-.1-.1-.3-.2-.4-.3l-.2-.2c-.5-.4-1-.8-1.6-.9l-.3-.1c-.5-.1-1.2-.3-1.3-1.3-.1-.1-.2-.1-.4-.2-.4-.2-.9-.4-1.1-.8 0 0-.1-.4 0-.7-.6.2-1.2.2-1.7.1h-1.3s0 .1.1.1c.3.6.4 1.3.1 1.9-.2.3-.4.6-.9.9 0 0-.1 0-.1.1 0 0-.1 0-.1.1l-.1.1c-.4.2-.8.2-1.1.1-.5 0-.5.1-.6.2-.2 1.2.2 1.8.8 2.6.3.4.7.9.9 1.6.2.4.2.7.2 1 0 .3-.1.6-.3.8l-.1.1s-.1 0-.1.1c-.3.3-.7.4-1 .6h-.1c-.1 0-.1.1-.2.1h-.1c-.2.1-.4.3-.6.4-.3.2-.6.2-.9.1-.3-.1-.6-.2-.8-.5 0 0-.1-.1-.2-.1h-.1c-.4 0-.8 0-1.2.1h-.2c-.5.1-1 .1-1.6-.1-.6-.1-1-.3-1.5-.5 0 0-.1 0-.1-.1-.3-.1-.6-.3-.9-.4v.9c0 .7 0 1.4-.2 2v1c.1.9.2 2-.1 3.3v.1c.1 0 .2 0 .4.1.6.1 1.8.4 1.6 2.1-.1.5-.3.7-.5.8-.5.2-.9 0-1.3-.2l-.1-.1c-.1-.1-.2 0-.5 0-.3.1-.6.1-1 .1-.3 0-.6-.2-.9-.4-.2-.1-.6-.3-.7-.3-.3.2-.7.2-1.1.3-.4.1-.7.2-1 .2h-.1c-.3.1-.6.1-.9.2-.1 0-.2 0-.3.1-.2 0-.4.1-.6.1-.2 0-.5.1-.8.2h.2c.4 0 .8.1 1.1.2.2.1.3.2.5.3.2.2.3.5.2.8v.5c.2 1.3 1.3 2.8 1.7 3.2l.9 1.2c.2.3.3.6.4.9 0 0 0 .1.1.1.1.2.2.4.4.5.2.2.8.9.1 1.6l-.6.1c.1.1.2.1.2.2l-.3 1c-.6.1-.7.3-.8.3 0 0 0 .1.1.3l.1.2c.1.1.1.3.2.4.3.5.6 1.1.7 1.7.1.3.2.6 0 .9-.2.4-.7.4-.9.4-.1.1-.3.1-.4.2-.3.1-.7.3-.7.4-.6.5-1.4.9-2.2 1.2-.6.3-1.2.5-1.6.8-.2.1-.3.2-.3.2-.1.1-.1.3-.2.6v.1c0 .4-.2.8-.5 1.1-.3.3-.8.5-1.3.4-.3 0-.6 0-1 .1-.2 0-.4.1-.6.1h-1.1c-.3 0-.5 0-.8-.1h-.2c-.1 0-.2.2-.3 1v.4c-.3 1.8-1.2 2-2.2 2.1-.3 0-.5 0-.8.1h-.1c-.4.1-.7.1-.9 0-.1 0-.1-.1-.2-.1 0 0-.1 0-.1-.1 0 0-.1 0-.1-.1-.3-.3-.4-.6-.5-.8 0-.1-.1-.2-.1-.2l-.2.2-.4.4c-.6.4-1.1.2-1.6.1l-.4.6h-.1c-.1 0-.2.2-.4.3l-.2.2c-.4.5-.9.6-1.3.7-.3.1-.4.1-.5.2-.1.1 0 .3.1.7.2.5.6 1.5-.4 2.1-.1 0-.1 0-.2.1 0 .1 0 .3.1.4.1.2.3.4.5.5.2.2.4.4.6.7l.1.1.1.1-.5.8c.1 0 .2-.2.2-.3 0 .1.2.5.5.9 0 0 0 .1.1.1 0 0 .1 0 .3-.2.9-.5 1.4-.4 1.8-.3H962.5c1.1.2 2.6.6 2.3 2.6 0 0 0 .3.3.5l.1.1c.1 0 .1.1.1.1.3.3.5.7.5 1 .1.3.2.5.2.7v.5s.1.1.2.1c.2.1.5.3.7.8.1.3.1.6.1.9 0 .1 0 .1-.1.2 0 .1-.1.2-.2.3-.1.2-.3.3-.5.4h-.2.1c.1 0 .1 0 .2.1.2-.1.4-.1.6-.1.8 0 1.7.6 2.1 1.2 0 .1.3.1.6.2.4.1 1 .2 1.4.6.3.2.5.5.7.8.2.3.3.6.4.9.1.2.1.5.1.8 0 .2 0 .5.1.6.1.1.5.5.8.6.2.1.3.2.4.3.1 0 .2-.1.3-.2l.6-.3.8.6v.2c0 .1.1.3.4.5.5.4 1.4.7 2.3.8h.4c.2 0 .5.1.7.1h.2c.4 0 .7 0 .9-.1v.1h.1c.3 0 .4.1.6.3.8.6 1 .9 1.2 1.2 0 .1.1.1.2.2.3.3.4.7.6 1.1.1.2.2.4.2.6.1.2.2.4.3.5l.1.1c.5.4 1.2.8 1.9 1.1.7.4 1.4.8 1.8 1.1.2.1.3.4.3.6 0 .4-.4.7-.7.9-.1 0-.1.1-.1.1 0 .1 0 .1.1.3 0 .2.1.3.2.6.2.8.6 1.5 1.2 2.1.2.2.6.3.9.5.4.1.8.3 1.1.6.3.3.3.7.3.9v.2c.1.2.2.4.4.7.3.4.4.8.4 1.2 0 .2-.1.4-.3.6l-.2.2c-.1.1-.1.1-.2.1-.1.1-.2.2-.3.2-.1.1-.2.1-.2.2-.1.1-.2.1-.2.2-.3.3-.7.7-1.3.6-.4 0-.8-.3-1.1-.8-.1-.1-.1-.2-.2-.2-.1-.2-.2-.2-.3-.2.1.3.2.5.3.8.1.2.3.4.5.6.1.1.2.2.3.2.7.7.8 1.2.9 1.7.1.3.1.4.2.6.3.3.3.8.3 1.2v.2c.1-.1.3-.2.6-.3.9-.3 1.4.5 1.6.9l.1.1c.3.5 1 1.2 1.2 1.2h.5c.4 0 1-.1 1.6.5.1.1.2.1.4.2.1 0 .3.1.5.2.5.3.7.7.7 1.3.1 0 .2.1.3.1.1 0 .2 0 .2.1 1.2.3 2.2.7 3.1 1.7.1 0 .2.1.3.2.1 0 .1.1.2.2.1-.1.1-.2 0-.5l.8-.7h-.2l.1-.1c.1-.2.5-.6 1-.4.2.1.3.1.5.1.5.1 1 .2 1.5.6l.2.1c1.2 1 2.5 2 3.6 2.6.3.2.6.3.9.4.6.2 1.2.5 1.8 1.2.2.2.3.4.4.5.1.2.3.5.5.6.1 0 .1.1.1.1s.1 0 .2-.1c.3-.2.8-.5 1.6-.1 0 0 .1 0 .1.1.2.1.4.2.6.4.5.4.7.9.8 1.3 0 .1.1.3.1.3.8.6 2.1 1.3 2.6 1.3H1018.2c.7-.3 1.2-.1 1.5.6.2.4.1.7 0 .8.4.2 1.3.3 1.4.1l1.1.2c0 .1.1.1.1.2.1.2.3.3.5.5.1.1.2.2.4.3.1-.2.1-.3.3-.4l1 .4c.1.1.4.4.6.5.1-.2.2-.3.3-.5.1-.1.2-.2.3-.2.3-.1.5-.1.8.1.1.1.2.1.3.1.2 0 .4.1.7.3.9.6 1.1.6 1.7.6h.3c.2 0 .6 0 .9-.1.6-.1 1.2-.1 1.7-.1l.3-.3c.2 0 .5-.1.8-.2.6-.2 1.2-.4 1.9-.2 1.4.4 1.2 1.7 1.1 2.5 0 .2-.1.4 0 .6l.1-.1c.3-.2.6-.8.8-1.3.2-.4.4-.8.6-1.1.8-1.2 1.8-1.9 2.9-1.9.2 0 1.5.1 1.8.8.1.2.1.3.1.5h.1c.4.1.8.1 1.2 0h.5c.4 0 .6.2.8.3.4-.4.7-.6 1.5-.3l.2.1c.3.1.7.2 1 .4 0 0 .1 0 .1.1l.1.1c.2.1.3.3.4.4.1.1.1.3.2.4.4.1.9 0 1.4-.2h.1c.1 0 .2-.1.3-.1.1 0 .3-.1.4-.1.5-.1.6-.1.7-.8 0-.3.2-.6.5-.8.1-.2.3-.3.4-.4l.1-.1c.3-.2.8-.6.8-.8.1-1.3 1.2-1.5 1.9-1.5.4 0 .8-.1.9-.3.3-.2.5-.5.7-.8.2-.3.5-.7.9-1l.2-.2c.3-.2.7-.5 1-.7.4-.3 1 0 1.9.6.3 0 .7.2.9.3.1 0 .2.1.3.2.2.1.4.2.6.2v-.1c0-.2.1-.3.2-.5l.1-.1.1-.1c.5-.5 1.3-.9 2-1.2.3-.1.5-.2 2.2 1.4v.7c.1 0 .1-.1.2-.1l.8.8s.2.2.3.2c.3.3.7.7.5 1.3-.1.3-.2.5-.4.7h.7c.1 0 .1 0 .2.1.3.1.6.2.8.4.2.1.4.2.5.1.4-.1.8-.1 1.1.2 0-.1 0-.1.1-.2s.1-.3.1-.4v-.1l1-.3h.1l.1.1c.3.2.6.4 1 .6.6.3 1.3.7 1.7 1.3l.2.2c.2.3.2.6.3.9V404.8c0 .1.1.2.2.3l.3.6c.1.1.1.2.2.3l.4-.4c1 .5 1.5 1.2 1.9 2 .3.6.4 1.3.6 1.9.1.3.1.5.2.8.3 1 .3 1.7.4 2.6v.2c.1.4.2 1-.1 1.3.3.4.5.9.3 1.3v.1c-.1.2-.4.3-.6.3h-.4c0 .1-.1.1-.1.2 0 .4-.1.6-.2.7-.2.2-.5.3-.8.3-.1.7-.3 1.6-.9 1.9h-.2v.1c-.1.4-.1.6.1.9l-.5.9h-.2v.5c0 .1 0 .2.2.3.1.1.3.3.5.6.3.7.5 1.2.3 1.6 0 0 0 .1-.1.1.2-.1.3-.2.4-.3.2-.1.3-.2.4-.3.7-.4 1.4-.3 2-.2.6.1 1 .1 1.3-.1l1 .3c.2.6-.2 1-.4 1.3 0 .1-.1.1-.1.2s.1.2.3.4l.2.2c.2.3.3.5.3.8v.3c.3.4.5.8.6 1.1 0 .1.1.2.1.3v.1l.1.1c.2.1.4.1.6.1.6 0 1.5 0 2.1 1.4l-.6.8c-.1.2 0 .8.1 1.1v.3c0 .4-.1.8-.2 1.2 0 .1-.1.2-.1.3 1.2-.1 2.5-.1 3.2.5.1 0 .1.1.1.1l.1.1c.3.4.3.9.3 1.2v.2h.2l.5.9v.1c.1 0 .2-.1.2-.1h.5c.1 0 .2.1.3.1.3.2 1.1-.5 1.6-.9.2-.2.4-.4.6-.5l1 .4v.2c0 .1 0 .2.1.2 0 .1.1.2.1.3.2.3.4.6.5 1 0 .1.1.4.2.5.4-.2.8-.2 1-.1-.2-.5 0-.9.1-1.1-.2-.3-.3-.5-.4-.8-.1-.2-.2-.4-.3-.5-.5-.6-.6-1.2-.7-1.6v-.2c-.1-.3-.1-.7.1-1.2 0-.1.1-.2.1-.3.1-.1.1-.2.2-.3v-.1c.3-.3.7-.4 1.1-.3.1 0 .1.1.2.1s.2.1.2.1h.2c.3 0 .6-.1.8.1.1-.1.1-.3.2-.4.1-.4.3-.7.6-1 1.1-.8 2.2.3 2.6.8l.1.1.1.1s.1-.1.3-.6c.1-.2.4-.7 1-.7.3 0 .5.1.7.2.1-.1.2-.2.4-.3.3-.1.6 0 1 .3l.1.1.1.1.2.2c.1.1.1.2.2.2.2-.6.6-1.3 1.4-1.3l.5.5c.3 0 1.2-.4 1.4-.6v-.1c-.1-.2-.1-.5 0-.8.2-.5.6-.7 1.1-.9.2-.1.5-.2.6-.4.1-.1.1-.1.1-.2l.8-.1h.3c.6.8 1.3 1.4 2.1 1.8.2.1.3.1.6 0 .4-.1 1.1-.2 1.6.5 0 0 .2 0 .3-.1.1 0 .2-.1.3-.1.4-.1.9 0 1.3.4s.8 1.4.4 2.1c0 .1-.2.2-.4.3.1.4.3.8.4 1.3.1.2.2.4.2.6.2 0 .4 0 .5.1.1 0 .3.1.4.1.5.2.8.6.8 1 .1 0 .1.1.2.1s.1 0 .2.1c.3.1.6.2.9.4l.5.2h.2c.1 0 .1 0 .2-.1.1 0 .1-.1.2-.1h.7c.5 0 1.2.2 1.7.5l.3-.6h.1c-.1-.2-.2-.5-.1-.8h.3s0-.1.1-.1l.1-.1.8-.3c.4.1.6.4.7.7v.2l.1.1.3-.2c.2 0 .4.1.6.2l.2.5c.2 0 .5 0 .8.2.2.2.3.5.4.9v.2h.6c0-.1-.1-.1-.2-.1 0 0 .1 0 .2-.1 0-.1 0-.1-.1-.2-.1-.3 0-.7.1-1h1c.1.1.2.3.2.4.1.1.2.4.4.5l.4-.3s.2.1.3.2c.4.2.9.5.9 1.1 0 .4-.2.7-.6.9 0 .3 0 .6-.3.9v.5c.4.2.5.7.6.8v.1c0-.1-.2-.2-.3-.2l.6.9v.1s.1.1.2.1c.3.2.7.4.9 1l-.2.1h.2c.9 0 .9-.1.9-.3 0-.1-.2-.3-.3-.5-.2-.2-.5-.5-.6-.9-.3-.1-.7-.2-.9-.6-.4-.9.3-1.5.6-1.7l.1-.1c-.1-.2-.3-.6-.1-1.1l.9-.2c.1.1.2.2.3.2.1-.2.3-.4.5-.6l.2.2c.4-.2.9-.3 1.2-.4.1 0 .2-.1.3-.1.3-.1.6-.2.9-.1l1-.2c.1 0 .2-.1.3-.2 0 .1 0 .2.1.2l.2-1.2h.6l.4-.6c.1 0 .3.1.6.3.2.1.5.3.8.4v-.1c-.1-.3-.1-.6-.1-.9l.7.1.4.1v.3l.3.4c.3-.4.7-.8 1.2-.8h.1c0-.4 0-1 .7-1.3h.1c-.3-.4-.5-.9-.5-1.4l1.1-.4c.1.1.2.3.3.5.1.2.4.7.7 1-.2-.6-.8-1.4-1.1-1.5l.3-.4h-.2c0 .1.1.2.1.2s-.2-.2-.8-.4l.4-1.2c.1 0 .2 0 .3-.1 0 0-.1.1 0 .2l.4-1c.1 0 .2-.1.4-.1.4-.2 1-.4 1.6 0l-.5 1.1h-.1c0 .3.2.6.5.9.2.2.4.5.6.8.5-.2 1.1-.3 1.6-.2.1 0 .2 0 .3.1l-.1-.3c.4-.6 1-1 1.7-1l.3.9.2-.4c.2 0 .7-.3.8-.5l.7.3v-.1l.9-.7c.4.2.5.2.5.1l1 .7c0-.1-.1-.2-.1-.2h.5s-.1.1-.1.2 0 .2.1.2l.8-.9c.1.1.5.1 1.2-.1v-.3c0-.2 0-.4.1-.7l.3-1.2c.4.1.5 0 .5 0s.1-.1.1-.3c0-.2.1-.8.6-1 .3-.1.6 0 .8.2.1-.1.1-.3.1-.3.1-.2.1-.3.2-.5l.2-.2h.3s.2-.1.3-.1l.6-.3v-.1l.4-.8h.4c.1-.2.1-.3.3-.5-.3-.1-.7-.2-.9-.5l.3-1c.1 0 .3 0 .4-.1.2-.3.4-.4.6-.4.1 0 .2-.1.2-.1l1 .1.1-.1.8-.2c-.1-.1-.2-.3-.3-.5 0-.5.4-.8.5-.9l.7.4-.1-.1h-.1.1c-.1-.2-.1-.4-.2-.6v-.2l.1.1-.3-.9c.4-.5.8-.5 1-.5v-.6c.1-.1.2-.2.2-.4l.8-.5V415.2c-.1 0-.2.1-.4.1-.8.1-1.2-.4-1.5-.8-.1-.1-.2-.3-.3-.3l.5-1.1c.4.1.9.3 1.3.5l.3-.6c-.2-.2-.4-.5-.4-.8l.3-.3-.8-.6c0-.1 0-.2-.1-.3l.7-1 .1-.1 1.1.1s.1 0 .1-.1h.1l.2-.6c.1 0 .2-.1.3-.2l.3-.4-.1-.1c-.3-.3-.5-.6-.5-.9l1-.4c.1 0 .1.1.2.1 0-.1.1-.3.1-.4-.3-.6 0-1.4.2-1.9 0-.1.1-.2.1-.2s-.1 0-.1-.1c-.1 0-.3-.1-.4-.2-.3-.1-.6-.4-.8-.8l1.1-.6.3.3c.1 0 .1 0 .2.1h.1c.2-.1.4-.4.4-.5 0 .1.1.2.3.2l-.2-1.2h.1l.1-.1.8-.3c.4.1.6.4.7.6.1 0 .1-.1.2-.1-.1-.1-.2-.3-.3-.3-.1-.2-.2-.3-.3-.4-.2 0-.5 0-.8-.1-.4-.1-.6-.4-.8-.7-.1-.1-.1-.2-.2-.2l.6-1c.2.1.3.2.5.3.2.1.5.3.7.4l-.4-.6c0-.1.1-.1.1-.2-.1 0-.2-.1-.3 0l-.6-1c.2-.2.3-.4.3-.7l.5-.1-.7.1c-.2-.2-.4-.4-.5-.6l-.2-.4.3-.3c.3-.3.6-.3.8-.4h.1c.1-.1.2-.3.3-.4l.1-.1.2-.2c-.6-.1-1.2-.4-1.6-.8-.1-.1-.2-.2-.3-.4-.3-.3-.5-.6-.9-.7-.2-.1-.4 0-.8.3-.3.2-.6.3-.9.4l-.1.3c-.9 0-1.3-.7-1.5-1.1-.1-.1-.1-.2-.2-.3-.2.1-.5.3-.7.4-.2.1-.3.2-.4.3l-.7-1 .3-.3c.3-.3.7-.6 1.1-.8.6-.2 1 0 1.3.1h.1v-.1c.1-.7.6-1 .9-1.2.1 0 .2-.1.2-.1.1-.1.3-.2.4-.3.4-.3.8-.8 1.6-.8h.2c-.3-.4-.9-1-1.3-1.2-.5-.3-.9-.6-1.4-.9-.5-.4-1-.8-1.5-1-.2-.1-.4-.1-.6-.2-.3-.1-.6-.2-1-.3-.5-.2-.5-.7-.5-.8-.2-.1-.5-.3-.7-.3l-.5.5c-1.1.5-2-.3-2.6-.8-.2-.1-.3-.2-.4-.3l.2-.4-.1-.1v.2s-.1-.1-.1-.2l-.1.1-.1.1h.1v.1c-.2-.1-.3-.3-.5-.4l-.4-.3.6-1c.1.1.3.1.5.2.4.1.8.3 1.2.8l.1.2c.2.3.4.6.7.8.1.1.2.1.6-.2.4-.3 1.1-.7 1.9-.3.6.2.9.5 1.1.7.3.3.4.4.9.2.4-.1.7-.1 1 0h-.1c-.3-.1-.7-.2-1-.7-.2-.3-.2-.6-.3-.8v-.2l-.1-.1c-.2-.1-.4-.1-.6-.2-.8-.3-2.1-.6-2.2-1.9 0-.7-.6-1.5-1.2-2-.8-.7-1.4-1.6-2-2.5-.2-.3-.3-.5-.5-.7-.2-.3-.3-.6-.5-.9-.3-.5-.5-1.1-.9-1.2-.3-.2-.7-.3-1-.4-.7-.3-1.5-.6-2.2-1.1l-.1-.1c-.8-.6-1.1-.6-1.2-.6l-1-.3c0-.2-.1-.3-.2-.5-.2-.6-.5-1.3.1-2.2.2-.3.3-1.3.3-1.9l.8-.6h.2c.1 0 .1-.3.2-.5s.1-.5.3-.8l-.1-.1c-.4-.4-.7-.9-.7-1.4l.5-.6c.3 0 .6 0 .8.1l.2-.3c.5.2.6.7.7.9v.1h.1v-.1c-.1-.2-.3-.5-.2-1 0-.2.1-.4.3-.5l-.2-.1c-.1-.5 0-.8.2-1 .3-.4.8-.3 1.2-.2h.3c.2 0 .8-.5 1.1-.7.2-.2.4-.3.6-.4l.1.2c.2-.1.5-.4.6-.4.2-.1.7-.6 1.2-.4 0 0 .1 0 .1.1l.6-.1c0-.3.1-.5.2-.7l-.1-.1v-.4c-.2-.1-.5-.1-.7-.1-.4 0-.8-.1-1.2-.2l-.9.2c-.1-.1-.2-.1-.6 0-.4.1-1.1.2-1.6-.3l-.2-.2s-.1-.1-.1-.2c-.4.1-1 .1-1.5-.5-.3-.4-1-.8-1.3-.7l-.6.3-.6.3c-.1.5-.6 1-1 1.3.1.2.1.5 0 .6-.2.7-1 .9-1.5 1-1.2.2-2.2-.1-3.1-.7-.9-.7-.9-1.5-.9-2.2 0-.4 0-.7-.2-1-.2-.4-.7-.8-1.2-1.1 0 .1-.1.2-.1.3l-.7.3c-.4-.1-.7-.4-.9-.6l-.1-.1c-.6.2-1.5.1-1.9-.3-.3-.2-.5-.3-.8-.5-.9-.5-1.9-1.1-2.3-2.2-.3-.9-.6-2.2-.2-3 .2-.4.5-.6 1-.7.6-.1 1.1.2 1.5.4.2.1.5.3.6.2.5-.3.9-.4 1.3-.5.7-.1.9-.2 1.1-.8 0 0 0-.2-.1-.3-.1-.3-.4-.9 0-1.6.3-.6.7-.8 1.1-1.1l.2-.1c.1-.1.4-.2.6-.3.3-.2 1.2-.6 1.4-.8 0-.8.3-1.8.9-2.4v-.5c.3-.7 1.6-1.1 2.3-.9h.1c.2.1.5.2.7.2l1.1-.1c.1.4.4.6 1.1.9.8.4 1.9.9 1.8 2.3-.1.8-.3 1.9-.8 2.4-.2.2-.4.4-.6.5l-.1.1c0 .1.1.2.2.4l-.3.6c.1 0 .1.1.2.1.6.3 1 .4 1.6.1l.7.9c-.1.2-.3.3-.5.4 0 0-.1.1-.2.1.1.1.2.3.2.5h.4l.2-.2.1-.1c.1-1 .6-1.3 1.1-1.7l.2-.1.3-.3c.5-.4 1-.8 1.8-1 .1 0 .2 0 .3-.1-.1 0-.1.2-.1.3l.6-.8h.7c-.1 0-.1.1-.1.2l1-.5c.2.3.8.4 1.2.2.2-.1.2-.2.2-.3-.3.7-.3.6-.3.4zm-21.9 91.4z"/>
        <path class="st4" d="M1175.2 400.4h.2c.1 0 .2-.1.2-.1h-.1l-.3.1zM1175.7 396.9l.2-.2-.3.3c0-.1 0-.1.1-.1zM1174.9 397.8l.4-.3v-.4l-.3.3s-.1.1-.3.4h.2zM1159.8 348l.1.1v-.1h-.1zM1079 413.6l-.2.2.2-.2zM1076 406.3v.1-.1zM1049.4 425.6c0 .1-.1.2-.1.2-.1.3-.2.6-.2.7 0 .4.3 1.1.6 1.7l.2-.2c.3.1.5.4.7.8.1.1.3.4.4.6 0-.1 0-.3-.1-.4v-.2c-.1-.4-.1-.8.1-1.2l.1-.3c.2-.4.2-.4.1-.7l.9-.6h-.1.1s.1-.1.2-.1c.2-.1.6-.3 1-.2 0 0 .1 0 .1.1h.1c.1 0 .1.1.2.2s.1.1.1.2.1.1.1.2c.3.8.5 1.6.7 2.4.1.4.2.7.3 1.1.2.6.3 1.1.5 1.7.2.8.5 1.6.7 2.4l.3-.2c.3.1.5.3.6.5v-.4l.5-.2c0-.2-.1-.4-.2-.6-.4-.9-.4-1.6-.5-2.3 0-.3 0-.6-.1-.9l.8-.5c0-.1.1-.4.1-1v-.8c-.1-.9-.3-1.7-.6-2.6l.5-.8c.3 0 .6.1.8.2 0 0 .1 0 .1.1.1 0 .2-.1.4-.1.5-.1 1.3.2 1.9.5.1-.6.4-1.3.7-1.9.5-1.4 1.2-2.9.5-3.6-.9-.9-.1-1.9.4-2.6.2-.2.4-.6.5-.7 0-.2.1-.3.1-.5.2-.6.2-.9 0-1.4-.2-.4-.3-.9-.4-1.4v-.4c0-.3 0-.5.1-.7.1-.2.2-.3.2-.4.1-.2.2-.3.4-.4.2-.2.5-.2.7-.2h.1c.2-.4.6-.6.9-.8.1-.1.3-.2.3-.2.3-.3.5-.6.7-1 .5-.9 1.5-1 2.2-1h.5c.1 0 .1 0 .2-.1.1 0 .3-.1.5-.1-.3-.8.2-1.5.6-1.9 0 0 0-.1.1-.1l.1-.1.2-.2c.3-.3.4-.4.4-.5v-.1c0-.1-.1-.4-.1-.6v-.2c0-.1 0-.1-.2-.3h-.2c-.2.1-.6.1-1 0-.1-.1-.3-.1-.4-.2-.1 0-.1-.1-.2-.1-.1-.1-.3-.1-.4-.2H1067.9s-.1.1-.2.1c-.2.2-.7.5-1.3.3-.2-.1-.4-.3-.5-.5-.2-.5.1-1 .3-1.2.1-.1.2-.3.3-.4.1-.1.2-.3.3-.4 0-.1-.1-.1-.2-.2s-.2-.2-.3-.4c-.3.1-.6.3-.9.2-.7-.2-.8-.6-.9-.8 0-.4.2-.8.5-1-.2-.2-.4-.4-.6-.5-.1 0-.5.2-1.3.7l-.1.1v.1c-.1.2-.1.6-.5.9-.6.4-1.3.1-1.6-.1-.1 0-.2-.1-.3-.1-.3-.2-.5-.3-.6-.3l-.1.2c-.1 0-.2-.1-.3-.2l-.1-.1c-.3-.2-.6-.4-.8-.5-.1 0-.3.1-.5.3-.1.1-.2.2-.4.2l-.1.1c-.3.2-.5.5-.7.8 0 0 0 .1-.1.1-.2.2-.3.4-.5.6-.7.8-1.4.9-2.1 1l-.4.1c-.2 0-.2.1-.2.1s0 .2-.1.2c0 .2-.1.5-.3.9-.2.3-.6.5-.8.7-.1 0-.1.1-.2.1l-.3.3s0 .1-.1.1l-.1.3c-.2.7-.4 1.7-1.9 1.7H1049.6l-.2.1c-.1 0-.1 0-.2.1-.4.1-.8.3-1.4.2h-.1v.2c.1.1.2.1.5.1.5 0 1 .1 1.3.4.5.5.4 1.3.3 1.8v.1c0 .1.1.1.1.2.1.1.1.2.2.3 0 0 0 .1.1.1v.8c0 .1-.1.1-.1.2l-.1.1-.1.1h-.2c-.7.3-1.4.4-2.1.2h-.2c-.1 0-.2 0-.3-.1 0 0-.3.1-.4.2-.3.1-.5.2-.8.2h-1.8c-.5 0-.8-.2-1.2-.3-.5-.2-.6-.2-.8-.1l-.2.1c-.5.3-1.2.8-2 .8-.2 0-.4 0-.6-.1-.3-.1-.5-.3-.8-.4-.4-.2-.6-.3-.9-.3-1.8.1-2.4-.8-3-1.6l-.2-.3v-.6c0-.4.1-.6.2-.8-.8-.9-.6-1.7-.5-2.3.1-.3.1-.5 0-.6-.1-.3-.2-.4-1.4-.1-.1 0-.3.1-.4.1.2.5.1 1.3 0 2.2 0 .4-.1.8-.1 1 .1.4.3.8.5 1.1 0 .1.1.2.1.2l.3.6c.1.3.2.6.2 1l.8-.2c.1.1.3.2.4.3.5.2 1 .6 1.3 1.2 0 0 .1 0 .1.1l.2-.6c1.1-.2 1.5.7 1.7 1.1 0 .1.1.2.1.2.2.3.6.5 1 .6l.4-.8c.4 0 .8.1 1.1.4 1 .8 1.1 2.8 1.2 3.4v.6c1.1.4 2.1.5 2.8.5h2c1.4 0 2.8-.1 4.3.1.6.1 2.9.9 2.8 2 0 .4-.3.6-.7.7v.1c0 .5-.2 1-.4 1.5-.1.2-.2.3-.3.5-.2.4-.4.7-.5 1l-1 .4h.1-.1c-.1 0-.2.1-.3.1l-.1.1c-.2.2-.5.3-.8.3.2.3.1.5 0 .6z"/>
        <path class="st4" d="M1040.7 404.5c-.2-.2-.2-.5-.2-.6-.6-.2-1.1-.1-1.7.3-.5.3-.9 1.2-1.3 1.9l-.2.4c-.1.3-.4.6-.6.8-.2.3-.5.6-.5.9h-.1c0 .1-.1.2-.1.3-.1.1-.1.2-.2.2.4.8 1 .9 1.9 1h.4c.5.1.8.3 1.2.4.3.2.5.3.8.3.2 0 .6-.1.8-.2 0 0 .1-.1.2-.1.4-.3 1.2-1 1.9-.5s1.6.4 2.6.4h.6s.2-.1.3-.1c.3-.1.9-.4 1.3 0h.2c.2 0 .6-.1.8-.1h.2s0-.1-.1-.1c0 0 0-.1-.1-.1-.1-.1-.1-.3-.1-.4 0-.2-.1-.4 0-.6.1-.4 0-.5 0-.5-.1-.1-.4-.1-.5-.1h-.2c-.4-.1-1-.2-1.3-.8-.1-.2-.1-.4-.2-.6-.1-.2-.1-.4-.1-.6-.1-.2-.1-.5-.1-.6v-.1l-.1-.1c-.1 0-.1-.1-.2-.1-.3-.1-.7-.2-.9-.2 0 0-.1 0-.1.1-.3.3-.5.4-.8.3h-.4c-.1 0-.1-.1-.2-.1s-.1-.1-.2-.1c-1.1 0-1.7-.1-2.2-.3h-.2s-.2-.1-.3-.3zM1060.6 399c.1-.2.1-.4.1-.5l-.6.8c.1-.1.3-.1.5-.3zM1029.8 412.1c.2-.1.6-.1 1.8-.1h.6s0-.1.1-.4v-.7c-.1-.2-.2-.4-.3-.5l-.1-.1c-.2-.3-.4-.6-.5-1-.3-.6-.2-1.3-.1-2 0-.2 0-.3.1-.4 0-.4 0-.7-.1-1.1-.4 0-.9 0-1.4.1-.4 0-.9.1-1.3.1-1 0-1.6-.4-2.4-.7l-.4-.2c-.1 0-.2-.1-.4-.2-.1.3-.2.6-.7.7-.5.1-1-.2-1.3-.4-.1.3-.3.5-.6.5-.2 0-.6 0-.8-.5-.1-.2-.4-.5-.6-.7-.2-.2-.5-.4-.7-.7-.2.1-.4.1-.7.1-.6 0-2.1-.1-2.3-1-.1-.2 0-.5 0-.7h-.2c-.3.1-.7.1-1.1-.1-.2-.1-.4-.2-.7-.3-.9-.4-2-1-2.3-1.9-.2-.6-.6-1.1-1-1.1-.1 0-.2 0-.4.1 0 0-.1 0-.1.1-.1 0-.1.1-.2.1-.2.2-.4.3-.6.2-.3 0-.6-.2-1-.5-.3-.3-.7-.7-1.1-1.2l-.1-.1c-.3-.3-.7-.5-1.2-.7-.4-.2-.8-.3-1.2-.5-1.3-.8-2.5-1.7-3.8-2.8-.2-.1-.4-.2-.7-.2-.2 0-.4-.1-.6-.1-.1.1-.2.2-.4.3 0 .8-.4 1.2-.7 1.3-.2.1-.4.1-.7.1h-.1c-.3-.1-.6-.2-.9-.5-.1.1-.3.4-.4.6v.1c-.1.1-.1.2-.2.4-.2.5-.5 1.1-.9 1.4 0 .1-.1.2-.1.3-.1.2-.1.4-.2.4.2.2.4.5.3 1.1-.1.3-.2.6-.4.9-.1.2-.3.5-.2.6.3.3 1.1.9 1.3.9h-.1s.1 0 .1.1c0 0-.1 0-.3.1-.1.1-.1.1-.1.2l.9-.5c.2.1.5.3.7.4.2.1.3.1.5.2l1.2.6c.6.4 1 .7 1.3 1 .3.3.5.5.9.7l.2.1c1 .6 1.4.8 1.5.8.9-.3 1.5.2 2.1.6.2.1.3.2.5.3.1 0 .3.1.5.1.5.1.9.1 1.2.4l.1.2c.4.5.5.6 1.2.7.2 0 .3.1.5.1.4.1.5.1.6.1.6-.5 1.2-.4 1.7-.2.1 0 .2.1.3.2.5-.5 1.5-.4 3.5.4h.1c.5.2.8.5 1 .8v.1c.1.1.1.3.2.4 0 .1.1.2.1.2 0 .1.1.1.1.1 1 .2 1.7.6 2.2 1.3.1 0 .3-.1.4-.2.2-.1.5-.2.7-.2.8-.1 1.2.5 1.3.8.1.1.1.2.2.2 0 0 .1 0 .2-.1.8-.3 2.9.6 3.1.7.4.2.5.2.9 0l.8-.4.8.5c0 .1.1.2.2.3.1 0 .2.1.3.1.2-.1.3-.2.4-.2zM1035.5 290.7c.7.3 1.1.6 1.3 1.7.1.5 0 1.3-.4 1.8-.2.3-.6.5-1 .6-.1 0-.2.1-.4.3-.2.2-.5.5-1 .6-.6.1-1.3-.1-1.8-.3l-.9-.3c-.6-.1-1.1-.2-1.7-.3l-1.5-.3c-.5-.1-.8 0-1.3.4-.4.2-.8.2-2.5-.2-.2-.1-.4-.1-.5-.1-1.3-.2-2.2-.6-3-1.3-.2-.2-.3-.4-.5-.6-.3-.4-.6-.7-1-.9-.6-.2-1.3-.2-2.1-.1s-1.7.1-2.5-.2c-.4-.1-.6-.4-.7-.6-.9.5-1.5 0-1.8-.3-.4.5-1.1.5-1.6.5h-.2c-.4 0-.4.1-.4.1-.4.7-.8.8-1.3.9-.1 0-.3.1-.4.1-.3.1-.5.3-.9.7-.4.4-.8.5-1.1.5-.1 0-.2 0-.4.1s-.6.2-.8.3c0 .1 0 .1-.1.2v.1c-.2.4-.5.5-.8.6l.1.1-.1 1.1c-.5.2-.9.3-1.3.4l-.1.4c-.4.3-.9.3-1.3.2l-.1.1c-.4.3-.9.1-1.2 0-.1 0-.2-.1-.4-.1s-.4 0-.5.1c0 0-.1.1-.1.2 0 .3-.1.6-.5 1 .4.5.3.8.3.9v.1c.1.1.2.1.4.2.6.3.9.6.9 1.1.2.1.4.1.7.2.7.2 1.4.4 2 1.1.6.7 2.3 1.6 3.1 1.4.8-.2 1.5.2 2 .5.1.1.3.2.4.2.1-.1.2-.2.3-.2.3-.1.5 0 .7.2.6.3 1.6.9 2 1.3.4.4.7.8.9 1.2.3.4.5.8.9 1 .2.2.4.3.6.5.2.1.3.2.5.4.4.3.8.7 1.1 1.1.4.5.6.6.7.7.3.3.3.4.4.8.1 1 .4 1.5.5 1.8.2.4.5.9 0 1.6 0 .1-.1.1-.1.2-.1.2-.2.4-.2.6v.1c0 .1.1.2.1.3.1.2.2.3.3.5l.1.1c.4.4 1 .9 1.5 1.1.9.2 1.8.4 2.8.5.3 0 .6.1 1 .1.6.1 1.3.2 1.9.2h2.7c.6 0 1.1.2 1.6.3.4.1.7.2 1.1.4.5.2.9.4 1.3.6.3.1.5.2.7.4l.3.1h.2c.3.1.6.2.7.3 1.1.7 1.6.9 2.5 1.2.3.1.6.1 1 .1.2 0 .5 0 .7.1 1 .1 1.1.8 1.2 1.1 0 .1 0 .2.1.2.2.2.4.3.6.4.1.1.2.1.3.2.4.2.8.5 1.1 1.1.1.1.2.2.2.3.1.2.3.4.4.6.1.1.1.2.2.2.1.2.3.3.4.5l.3.3c.3.4.8.7 1.3 1 .3.2.7.5 1 .7.3.2.4.5.6.7.2.3.2.3.3.3.4.1.9 0 1.5-.1.4-.1.8-.1 1.2-.2.8-.1 2 .2 3.2.4 1.1.2 2.2.4 3.2.5.5 0 .9.1 1.4.1.6.1 1.2.1 1.7.1h.1c.4 0 .7-.1 1.1-.3.5-.2 1-.4 1.7-.3.7 0 1.4.2 2.1.3.5.1.9.2 1.3.2h.8c.7 0 1.4-.1 2.4.4.1 0 .2.1.2.2.1 0 .1.1.2.1.1.1.2.1.2.2.2.1.3.2.5.4.3.2.6.5.9.6h.2c.7.3 1.6.4 2.5.6l1.2.3c.5.1 1 .2 1.4.4 1.3.4 2.6.7 4.2.6H1079.2c.3.1.6.2.9.4.1.1.2.2.4.3.2.1.7.2 1.5.3.3-.2.6-.5 1-.7.7-.5 1.4-.9 2.2-1.3l.2-.1c.3-.2.7-.3 1-.5l.6-.3c.2-.1.4-.1.7-.2.7-.2 1.6-.5 2.5-.6.3 0 .6-.1.8-.1.3 0 .5-.1.8-.1l.6-.1c.4-.1.8-.1 1.2-.1h3.6c.6 0 1.2-.2 1.6-.4.3-.2.7-.4 1.1-.5.5-.2 1-.4 1.2-.7.2-.3.4-.7.5-1.1.1-.4.3-.7.5-1.1.3-.5.6-.6.9-.8.2-.1.4-.2.7-.5l.5-.5c.1-.1.3-.2.4-.3.1-.1.2-.1.2-.2-.3-.4-1.4-1.2-1.8-1.5-.2-.1-.3-.2-.4-.3-.4-.3-.8-.5-1-.8-.5-.5-.4-1.1-.3-1.4 0-.2.1-.3 0-.4-.2-.4-.2-.9-.1-1.3 0-.1.1-.2.1-.3v-.2c.1-.1.1-.2.2-.3.3-.4.7-.7 1.2-.9.7-.2 1.3-.1 1.9.2.3.1.5.2.8.3.7.3 1.7.7 3 1 .4.1.9.1 1.2.2.2-.5.7-.8 1-.9.2-.1.3-.2.4-.2 0-.1.1-.1.1-.2.1-.1.1-.3.2-.5.1-.3.2-.7.5-1.1.5-.6 1.4-.4 2-.3.1 0 .3.1.4.1h.6c.4-.1.9-.2 1.3-.5.1-.1.4-.3.6-.5l.4-.4s0-.1-.1-.1c-.1-.1-.2-.3-.2-.5-.1-.3-.2-.8.1-1.3.1-.1.1-.2.1-.4.3-.9.8-1.4 2.5-1.2h.4v-.2c0-.4.2-.6.4-.8.4-.3 1-.2 1.4-.1h.2c.1 0 .2-.1.4-.2.4-.2.8-.5 1.1-.5.5-.1.8-.1 1.2 0l.2.1c.2.1.3 0 .4-.1.1-.1.3-.1.4-.1v-.1c.2 0 .4.1.5.1.2.1.4.1.6.2h.1c.1 0 .1 0 .2.1.5.1.9.2 1.3.2H1129c-.1-.1-.2-.3-.4-.5s-.4-.4-.6-.5c-.1-.1-.2-.2-.4-.3-2.1-1.4-4.3-2.7-6.8-3.9-.3-.1-1.6-.7-2.3-.2l-.1.1-.2.2c-.8 1.6-2.1 1-2.8.6-.4-.2-.8-.4-1.2-.3-.3.1-.7.1-1.1 0h-.8c-.1 0-.1.1-.2.2l-.1.1c-.1.1-.3.3-.6.3-.2.1-.5.1-.9-.1-.2-.1-.4-.2-.6-.4-.8-.5-1.5-1-1.7-1.7V302.6c0-.2 0-.4.1-.6.1-.1.2-.2.2-.3l-.1-.3c-.2-.5-.3-1-.3-1.6 0-1.5-.1-3.1-.2-4.6v-.6h-.1c-.6-.4-1.1-.7-1.7-.6-.1 0-.3.1-.4.1-.3.2-.7.3-1.1.4-.3.1-.7.1-1.1 0-.5-.1-.9-.3-1.2-.4-.4-.2-.8-.4-1.3-.8-.1-.1-.3-.2-.4-.2-.5-.3-1.1-.4-1.6-.4-.9 0-1.8.5-2.9 1.4-.3.3-.4.5-.6 1 0 .1-.1.3-.2.4-.4 1.1-1.4 1-2 1h-.6c-.3.1-.7.1-1 .2-.2 0-.5.1-.7.1-.1 0-.3.1-.4.1-.1 0-.1 0-.2.1-.3.2-.7.2-1 .2-.2 0-.4 0-.5.1-.2.1-.3.2-.4.3-.2.1-.4.3-.7.4-.6.3-1.3.2-1.8.1-.2 0-.4-.1-.6-.1h-.6c-1 0-2.1 0-3.2-.4-.7-.2-1.4-.3-2.1-.3h-1c-.8-.1-1.6-.3-2.4-.8-.2-.1-.4-.2-.6-.4-.4-.2-.9-.5-1.4-1-.6-.8-.7-.9-1.5-.9-1 0-1.9-.1-2.9-.8-.2-.1-.3-.2-.5-.3-.5-.3-.9-.7-1.4-.7h-.9c-.5 0-1 .1-1.6-.1-1-.3-2.4-.4-3.4-.2-.6.1-1.2.3-1.8.5-1.6.6-3.3 1.1-5.2.5-.3-.1-.5-.2-.7-.3-.3-.1-.4-.2-.8-.3-.5-.1-1.6-.3-2.2-.8-.1-.1-.2-.1-.4-.2-.3-.1-.7-.3-1-.7-.1-.2-.3-.4-.5-.6l-.6-.6c-.2-.3-.4-.6-.6-1-.4-.7-.8-1.3-1.3-1.4-.4-.1-.8-.1-1.3-.2-.9-.1-1.9-.2-2.9-.6-.9-.3-1.7-.5-2.6-.6-.6-.1-1.1-.2-1.7-.3-.6-.1-1.2-.3-1.7-.5-.4-.2-.9-.3-1.3-.5-.5-.2-.9-.3-1.4-.5 0 .7-.3 1.2-.9 1.4-.2.1-.3.2-.3.2s-.1.1.1.5l-.7.8.1-.1c-.1.3.3 1.6.7 1.8.5.2.7.6.9.9.1.2.2.3.3.4.1.1.2.1.3.2.9.5 1 .5 1.1.6zM1172.2 353.5s.1 0 .1-.1l-.1.1zM1175 355s.1-.1 0 0c0-.1 0 0 0 0zM1180.4 347.4c.2 0 .4-.2.4-.3l-.7.2c0 .1.1.1.3.1z"/>
        <path class="st4" d="M1183.1 330.9c-.1 0-.1 0 0 0l-.4-.4c-.1-.2-.3-.3-.3-.4-.2-.2-.3-.4-.6-.5.3.7.6 1.5.3 2.1v.2l-.1.1c0 .1-.1.1-.1.1-.3.3-.8.3-1.1.3h-.2v.2c0 .2.1.7-.2 1.1-.1.2-.4.4-.8.5-.1 0-.2 0-.3.1h-.1c-.5.1-.9.1-1.3.1h-.1c.8.6 1.7 1.3 1.4 2.3-.2.8-1.2 1-3.8.6-.6-.1-1.2-.2-1.8-.5-.3-.1-.5-.4-.7-.6-.2-.2-.5-.5-.7-.5v.1c-.1.1-.2.2-.3.2 0 .7 0 1.3-.3 2.2V338.5c-.1.5-.3 1.4-1.1 1.6h-.4v.1c0 .1-.1.2-.1.3v.1l-.1.1c-.1.1-.2.2-.3.2l-.1.1c-.3.2-.6.4-.9.5 0 .1-.1.2-.1.2l-.1.1c-.2.4-.5.5-.7.6-.2.1-.4.3-.6.5-.1.1-.1.2-.2.2 0 .1-.1.2-.1.2l.2.1-.4 1.1.2-.2c.1-.2 0-.3 0-.3.1.1.5.4.6.5.3.1.6.3.9.5l.3-.4c.3.1.6.3.9.5.8.5 1.4.8 1.8.5l.9.7v.1h.1c.1.1.4.4.5.7.1.5 0 1 0 1.5 0 .3-.1.5-.1.7 0 .2 0 .3.7.3.6 0 1.4.1 1.8.9l-.9.8c-.3-.2-.7-.2-1.2-.2-.1 0-.1.1-.1.1 0 .1-.1.2-.2.2v.5c0 .4 0 .5.1.6l-.2.3c.6 0 1.3 0 1.8.5l-.2.4v.2c.1 0 .3 0 .5.1.1-.1.2-.1.3-.1h.2l.2-.7c.9 0 1.5.5 2 .9.1.1.3.1.4.2.4-.4 1.2-.3 1.9-.1.1-.9.7-1.8 1.4-2.3.7-.4 1.5-.3 2.1-.2.4 0 .8.1 1 0h.7v-.1c0-.1-.1-.3-.1-.5-.5-.6-2-1.4-2.6-1.8-.4-.2-.7-.3-.9-.5-.1-.1-.3-.1-.5-.1-.5-.1-1.4-.2-1.5-1.3 0-.4 0-.7.2-1-.1-.2-.1-.3-.2-.4-.1-.1-.5-.4-.5-.8s.3-.7.6-.9l.3-.3c.3-.2.5-.5.9-.7.2-.1.5-.1.7-.2.2 0 .4-.1.5-.1.1-.1.3-.4.4-.6.1-.1.1-.3.2-.4.2-.4.6-.6.8-.8.1-.1.2-.1.2-.1v-.1c0-.2-.1-.5.1-.8.3-.6.8-.8 1.2-1l.2-.1c.1-.3-.9-1.6-1.3-2.1-.5-.6-.7-.9-.7-1.1-.2-.8.2-1.8.6-2.5.1-.2.2-.3.2-.5v-.1c.1-.2.2-.6.4-.8-.4-.3-.8-.6-1.1-.9.1-.1 0-.1 0-.2z"/>
        <path class="st4" d="M1183.5 353c-.8 0-1.7-.1-1.9.3-.1.1-.1.4-.2.6-.1.2-.1.5-.3.8v.1l.1.1.1.1s.1 0 .1.1l-.1.4.1.1c.1.2.1.3.2.5.3.3.7.7 1.1.8l-.2 1.2.1-.1c.1-.1.1-.2 0-.2 0 .1.1.2.2.2h-.1l.9.7v-.1h.2l.5 1.1-.1.1-1.1.5c0-.1-.1-.1-.1-.2-.1-.2-.3-.3-.5-.4 0 0 0 .1-.1.1.4.2.8.6.9 1v.4c0-.1-.3-.2-.4-.2l.9.8c-.1.2.2.9.7 1.3.1.1.2.1.2.1.1-.1.1-.1.2-.1l.8.9-.2.2.4.6v.2c0 .2-.1.6-.4.8l.1.9c-.1 0-.1.2-.2.4 0 .4.1.8.3.9l-.1.7c.2.2.4.5.6.7l.4-.2c.2.1.4.3.6.5v.8l-.2.2s0 .1.1.1l-.1.2h.1l.3.5.9-.3c.2-.8.6-1.3 1.2-1.4h.2c0-.1.1-.2.1-.2l.5-.1c.3-.5.9-.6 1.2-.6h.3l1.1-.1c0 .1 0 .2.3.2.2-.6.7-.7.8-.7l-.2.2v.1l.7-.8c.2.1.5.1.8.2.3 0 .7.1 1 .2.2-.3.2-.7-.1-1.5l.5-.3c0-.5-.1-1.2-.3-1.6-.2 0-.9 0-1.8-2.3-.2-.4-.3-.8-.4-1.2-.2-.8-.4-1.4-.9-2-.8-1.1-2-2.1-3.1-3.1l-.7-.6c-.7-.6-1.3-1.2-1.9-1.9-.5-.5-.9-1-1.3-1.4-.4.8-1.8.8-2.8.7zM1185.6 369.6s-.1 0 0 0zM1185.9 369.4h.1-.1zM1187.9 372.9zM1196.2 363.3h-.1c-.2 0-.3.2-.3.2l.6-.2c0 .1-.1 0-.2 0z"/>
        <path class="st4" d="M1189.5 370.6c-.1 0-.1 0-.1.1v.1c0 .1.1.1.1.1l.1-.1-.1-.2zM1186.8 370.7s-.1 0 0 0l-.2.2h.1c.1-.1.1-.2.1-.2zM1259.1 292c-.1.4-.5.5-.8.7.1.1.2.2.4.2.2-.2.4-.3.5-.4.1 0 .2-.1.3-.2 0-.2-.1-.5-.3-.9 0 .3-.1.4-.1.6zM1176.4 354.9h.1l-.1-.1v.1z"/>
    </g>
</svg>
