<svg xmlns="http://www.w3.org/2000/svg" viewBox="0 0 1440 980" style="enable-background:new 0 0 1440 980" xml:space="preserve">
    <style>
        .st0{display:none}.st1{display:inline}.st2{fill-rule:evenodd;clip-rule:evenodd;fill:none;stroke:#bcbcbc;stroke-width:.75;stroke-miterlimit:1.2402}.st4,.st5{fill:#bcbcbc}.st5{display:inline}
    </style>
    <g id="Layer_5">
        <path class="st4" d="M907.7 189.5c.2.1.5.1.7.1-.3-.2-.4-.2-.7-.1zM910.4 187l.1-.1-.1.1zM910.6 187.2c-.1-.1 0-.1 0 0zM1260.8 264.1c-.1-.3-.6-.7-1.1-1.2 0 .2-.1.4-.2.5.2.3.8.7 1.3.7-.1 0 0 0 0 0zM1231.8 238.2l-.2.6c.1-.1.2-.2.2-.4v-.2zM1299.2 225.4h-.2c.2.1.3.3.5.4l-.1-.2c0-.1-.1-.2-.2-.2zM1297.8 224.4v.1s.1 0 .1.1l-.1-.2zM1259.1 262.9c.1-.1.1-.2.1-.3l-.5.3c.1.1.3.1.4 0zM1098.7 191.7s.1 0 .1.1h.4c-.2-.1-.3-.1-.5-.1zM1114.9 181.3c.8 0 1.8 0 2.5-.3-.7.1-1.4 0-1.9-.2-.2 0-.4-.1-.7-.1-.9-.1-1.7-.2-2.4-.2-.3 0-.5 0-.8.1-.6.1-1.3.2-2.1-.2-1.2-.6-2.8-.9-3.4-.5-.1.1-.2.1-.3.2.4.1.9.1 1.3.2 3 .7 5.6 1 7.8 1zM1230.6 196.8l.1.1c.3.2.9.5 1.2.5.5 0 1.6-.2 1.8-.4.7-.7 1.9-.4 2.9-.1.2.1.5.1.6.1.6.1 2-.1 2.9-.4-.6-.4-1.6-.5-2.4-.6-.4-.1-.8-.1-1.2-.2-.2 0-.4-.1-.6-.1-.7-.2-1.3-.3-2-.3h-.8c-1.1 0-1.8.1-2 .2-.6.4-.8.8-.8.9 0 .1.1.2.3.3zM1096.6 186.6c.7 0 1.3.2 2 .3.3.1.6.1.9.2 1.6.3 3.1.4 4.5.5-1.9-.8-3.9-1.4-6-1.6-.6-.1-1.6 0-2.1.1.1.2.2.4.2.6.1-.1.3-.1.5-.1zM946.4 174.3H946.1l.1.5.2-.5zM1092.7 184.7c-.3-.1-.5-.2-.8-.2.3.1.6.1.8.2zM837.3 178.2v.7c.1-.1.1-.2.1-.4 0-.1 0-.2-.1-.3zM924.1 172.9l-.2.3.1-.1c.1-.1.1-.1.1-.2zM844.8 198.4v-.2c-.1.1-.1.1 0 .2-.1 0-.1 0 0 0zM845.1 176.4l-.1.3c.1 0 .1-.1.1-.3zM844.8 197.8c-.1.1-.2.2-.2.4h.2v-.4zM922.3 160.4c.8 0 1.6.1 2.3.5l-.2.6c.3.1.6.1.9.1 1 .1 1.8 0 2.7-.2.3-.1.7-.1 1-.2 1.1-.2 2.4-.2 3.6-.2h.8c-.3-.2-.5-.5-.6-.9l.1-.1c-1-.1-2-.2-2.9-.6-.6-.3-1.9-.8-3.1-.8v.3c-1.2 0-2.4.3-3.6.5-.3.1-.7.1-1 .2v.8zM1074.7 177.5l-.3.7c.2.1.3.2.4.3l.1.1c.1.1.2.1.4.1.3 0 .7.1 1 .4l-.1.6c.6.2 1.2.3 1.8.4.6.1 1.2.3 1.7.5.6.2 1.1.4 1.7.5.3.1.7.1 1.1.2.6.1 1.3.3 1.9.3l-.2-.2.4-1c.5 0 1.1.2 1.5.4.3.1.5.2.7.2.4.1.8-.1 1.3-.2.2-.1.4-.1.6-.2.2 0 .4-.1.6-.1.4-.1.9-.2 1.3-.3-.2-.1-.3-.1-.5-.2-.3-.1-.6-.3-.8-.5-.4-.3-.7-.5-1.1-.5v-.2h-.1l.1-.5h-.1.1v-.1c-.7-.1-1.5-.4-2.2-.6-.5-.1-.9-.3-1.4-.4l-.1.2c.3.1.6.3.9.5l-.3 1.1h-.4c-.4 0-.8 0-1.2-.1-.3-.1-.6-.3-.8-.4-.2-.1-.3-.2-.5-.3h-1.4c-.4-.1-.7-.2-.9-.4-.1-.1-.3-.2-.4-.2-.5-.1-.9-.2-1.5-.3-.5-.1-1.1-.1-1.7-.3-.5-.2-1.4-.4-1.6-.3.1 0 .2-.1.3-.3v-.3l-.8.9h-.1v.1c.1 0 .1.1.2.1l.4.3zM953.7 164.5l-.1.5c.1-.1.1-.2.1-.3.1-.1.1-.2 0-.2zM1091.6 178.9c1.6.6 3.5 1.2 5.4 1.3h1.1-.1c-.4-.1-.8-.3-1-.7l.2-.4c-.2 0-.5-.1-.7-.1-.6-.1-1.3-.2-1.9-.3-.2-.1-.5-.1-.8-.2-.8-.2-1.6-.5-2.3-.3 0 .1.1.1.1.2.1.2.1.4 0 .5zM939.9 162.9l-.1-.3-.3-.1s0 .1.1.2.2.2.3.2z"/>
        <path class="st4" d="m951.7 167.8.1.1-.1.9-.2.2c1.1.1 2.1-.1 3.2-.5 1.3-.3 2.5-.3 3.7-.3h1.1c.4 0 .9-.1 1.5-.1.4-.1.8-.1 1.2-.1.9-.1 1.9-.2 2.8-.5-.4-.2-.8-.3-1.3-.4h-1.1c-.5 0-.9-.2-1.3-.4-.2-.1-.4-.2-.7-.3-.2 0-.4-.1-.6-.2-.6-.2-1.5-.5-1.9-.3-.1 0-.3.2-.5.3-.5.4-1.2 1-1.9.7l-.3-.8c0-.1 0-.2-.1-.3-.1-.2-.1-.4-.2-.7-.1 0-.2-.1-.3-.1-.2 0-.3-.1-.5-.1-.1 0-.5 0-.7.1l-.1.5c-.4 0-.8-.1-1.2-.3h-.1l-.1.7c.2.1.4.1.5.2l-.3 1.2c-.4-.1-.8-.1-1-.1 0 0 0 .1.1.1.2.2.2.3.3.5zM927.5 162.7l-.1.3.9-.3v-.2c-.4.1-.6.1-.8.2zM923.9 162.8c.4.1.9.1 1.3 0h-1.3zM933.4 162.5h-.8c-.8 0-1.9-.1-2.6.1l-.1.9c-.1 0-.2 0-.2.1h.2c.6-.1 1 .3 1.4.5.1.1.2.2.3.2 1 .5 1.9.7 3.1.6.6-.1 1.1.1 1.5.2.1 0 .3.1.4.1.5.1 1.1.1 1.7.1.9 0 1.8.1 2.6.3.1 0 .2 0 .4.1.6.1 1.1.1 1.3.3H946.4c-.7-.2-1.4-.3-2-.7l.3-1.1h.1c-.2-.2-.4-.4-.5-.6l.1-.3c-1.1-.5-2.5-.8-3.6-.6 0 .1 0 .2-.1.3l-.7.4c-.2 0-.5-.1-.7-.1 0 .1-.1.1-.1.2-.3.5-1.1.5-1.4.5v-1.2l-.1.1v-.2c-.1 0-.3-.1-.4-.1-.8-.2-1.5-.2-2.3-.1-.5-.1-1 0-1.6 0zM830.4 186.9v.1h.1c-.1 0-.1 0-.1-.1zM844.9 177.4c-.1 0-.2 0-.3.1-.3.1-.8.3-1.4-.1v-.2l-.1.5c-.8 0-1.9 0-2.6.3-.5.2-1 .4-1.5.5-.2.1-.4.1-.6.2-.1 0-.2.1-.4.1-.1 0-.4.1-.6.1v.4h-.2l-.4.9c-.4.1-.8 0-1.2-.1-.3-.1-.6-.1-.7-.1l.1.4c-.2.3-.4.5-.7.6v.3c.4.2.9.3 1.2.2l.1 1.2c-.4.1-.8 0-1.2 0h-.3v.9h-1c.2.1.5.2.7.3l-.2 1.2c-.5 0-.9-.1-1.3-.2-.3-.1-.6-.1-.8-.1-.2 0-.6.2-.7.3 0 0 .1-.2.1-.4-.1-.2-.2-.3-.3-.3l.2 1H832.6v1.1c.3 0 .6.1.9.1.2 0 .3.1.4.1.1 0 .2 0 .4.1.1 0 .4.1.7.1h.6l.3-.2.1.1c.1.1.1.1.3.2.3 0 .6.1.9.2.4.1.5 0 .6 0l-.1.1c.1 0 .1.1.2.1l.3-.3c-.4-.1-.8-.3-1.1-.6l.4-.5h-.2c-.3-.1-.5-.1-.6-.1h-.1l.4-1.2c.4.1.9 0 1.5.1-.1 0-.1-.1-.2-.1l.2-1.2c.6-.1 1.1.2 1.5.4.4.2.7.3.9.2l.3-.3v-.2c-.2-.1-.3-.2-.6-.3-.2-.1-.5-.2-.7-.3l.5-1.1c.1 0 .3.1.4.1.5.2 1.1.4 1.4.3.1 0 .3-.1.3-.2 0 0-.1.1-.1.3l.1-.2v.2l.2-.6-.1.1.2-.5c.2 0 .4.1.6.2.2.1.3.1.4.2l.3-.6s.1 0 .1.1l.4-1h.7l-.1.1 1-.4.1.1c.1-.2.4-.3.7-.5.1 0 .2-.1.3-.1v.1l1.1-.3s.3-.2.4-.2l.1-.1c.6-.4 1.3-.5 1.9-.6.2 0 .3 0 .5-.1.1 0 .3 0 .6-.1.4 0 1.2-.1 1.4-.3.2-.2.6-.3 1.8-.4.3 0 .5 0 .6-.1.8-.2 1.7-.3 2.6-.5 2.9-.5 5.6-1 8.2-2.2-.1-.1-.2-.3-.3-.3-.7-.4-1.5-.6-2.6-.6-.7 0-2.7-.1-4.3.8l-.1 1c-.4.1-.8 0-1.1 0-.3 0-.5-.1-.7 0-.1 0-.2.1-.3.1-.3.1-.6.2-1 .2 0 0-.1.1-.2.1-.2.1-.5.3-.9.4-.4.1-.9.1-1.3.1-.5 0-1 0-1.4.1-1.7.3-2.9.3-4.3.2h-.1c-.7-.1-1.4-.1-2.1-.1-.1 0-.3.1-.3.1l-.6.6zM823.2 205c-.3-.1-.5-.2-.8-.3-.8-.3-1.5-.5-2.3-.5-.2 0-.4 0-.6.1-.3.1-.7.2-.9.5-.1.1-.1.1 0 .4.1.2.2.5.2.8.4.4 1.6.4 2.3.3l.3-.1c.5-.1.9-.2 1.3-.4l.2-.2.4-.4-.1-.2zM835.5 192.5c-.2-.1-.3-.3-.4-.4-.2-.2-.3-.3-.4-.3l.1-.5v-1.2h.1l.2-.4.2-1.2h.3v-.2h-.9c-.6 0-1.1-.1-1.5-.2-.8-.1-1.4-.2-2.2.1-.5.2-1.1.2-1.7.2-.5 0-.9 0-1.3.1.1.2.2.4.3.4l-.2.9h.2l-.3 1.2.1.1c-.2.2-.4.3-.6.4l.1.7c-.1 0-.2.1-.3.1-.1 0-.1 0-.2.1 0 .6-.4.8-.6.9-.5.2-.9 0-1.3-.1-.5-.1-.6-.1-.7 0 0 0-.1.1-.1.2 0 .2.4.6.6.8l.2.2c.1.1.3.2.6.2h.8l.1-.3c.3.1.6.1.9.1.5 0 1 0 1.6.3l.4-.1.1-.1c.2-.1.5-.2.9-.1l.4.7c.2 0 .4-.1.5-.1.3-.1.5-.2.8-.1l.1 1h.2c.4.1.8.1 1.3.4l-.6 1.1h-.1v.1l.9.3h.3c.2 0 .5-.1.8.1l.2.1c.2.1.3.1.4.2l.2-.3.1.1c.3.3 1 .6 1.3.5.6-.9 1.6-.5 2-.3.1 0 .3.1.5.1l.1-.1c.2.1.3.1.4.2.2.1.3.1.4.1l.2-.5h.4c-1.1-.3-2.1-.7-2.8-1.5-.5-.5-1.1-1-1.7-1.5-.5-.4-.9-.7-1.4-1.2v-1.3z"/>
        <path class="st4" d="M830.4 195.6c0 .1.1 0 .1-.1l-.1.1zM826.4 195.1v.3l.3-.7c-.1.1-.2.2-.3.4zM845.2 181.8v.2-.2c0-.1 0-.1 0 0 0-.1 0 0 0 0zM838.1 184.9l.1-.7c0 .1-.1.1-.1.2-.1.2 0 .4 0 .5zM842.4 183zM842.1 182.7c0 .1.1.2.1.2v-.2h-.1c0-.1 0 0 0 0zM915.9 208.7c-.2-.1-.4-.3-.6-.4l-.8-.8c-.3-.4-.5-.7-1-.8-.6-.2-1.1-.3-1.7-.5.2.2.5.3.7.4.2.1.4.1.5.2.7.2 1.3.4 1.8 1.4.2.3.3.6.5.9.2-.2.4-.3.6-.4zM1250.7 251.6c.2-.2.5-.6.9-.8-.2-.2-.4-.4-.6-.5-.1.1-.2.1-.3.2-.1.1-.3.2-.4.3l.3.6c.1.1.1.2.1.2zM1243.5 246.1zM1269.9 218.2s-.2 0-.3.2c-.1.1-.1.3-.1.3 0-.1-.1-.2-.2-.4l-.3.4c-.4.1-.8 0-1.1-.2-.1.1-.2.2-.3.2.3.2.6.4 1.1.5.1.1.4.1.7.2.3.1.5.1.8.2-.2-.1-.3-.2-.5-.2l.2-1.2zM1270.7 221.7l-.3.3c.2 0 .3-.1.3-.3zM915.4 192.6l-.2.2c-.1.2 0 .3 0 .4l.2-.6zM1296.3 220.6zM917.3 193c.4.2.9.3 1.3.5.7.2 1.5.3 2.4.2-.4-.2-.7-.4-1-.6l-.3-.2c-.7-.5-1.6-.5-2.5-.6-.4 0-.8 0-1.2-.1h-.3c.2.1.4.3.5.4.5.2.8.3 1.1.4zM914.8 210.7l.3-.5c-.1 0-.1.1-.2.2 0 .1-.1.2-.1.3zM1118.4 194s-.1 0 0 0c-.1 0 0 .1 0 .1v-.1zM1283.3 217.2l-.2.2c.1 0 .1-.1.2-.1 0 0 0-.1.1-.1h-.1zM1201.2 250.6c.1 0 .1-.1.1-.1l-.4.1.2-.4-.1.1c-.1.1-.1.3-.1.3.1.1.2.1.3 0zM944.5 273.2c0-.1 0-.1 0 0zM944.5 273.2zM944.4 273.2zM875 204.8v.5l.2.1c0-.3-.1-.5-.2-.6zM928.3 185c-.1 0-.2-.1-.3-.1v.1h.3zM899.3 214.2c0 .1 0 .1.1.2v-.4c-.1 0-.1.1-.1.2zM921.2 182.6l.2.4.1-.3c-.1 0-.2 0-.3-.1zM926.8 182.4c.1 0 .1 0 .1-.1.1-.1.1-.3.1-.4l-.2.5zM882.6 187.3zM878.3 189c-.1.1-.1.2-.1.4 0 .1.1.2.1.3v-.7zM879.7 188c.6.1 1.3.1 2 0 0-.1-.1-.1-.1-.2s0-.1-.1-.2c-.7-.1-1.4-.1-2.1 0 .1.1.1.2.1.4h.2zM904.7 191.2c-.3 0-.5.1-.8.3.5 0 1.1-.1 1.6-.3h-.8zM996.7 187.5c-.1.1-.2.2-.2.5 0 .2.1.3.2.4v-.9zM1001 185.6c-.8-.1-1.1-.1-1.1 0s-.1.1-.1.2c.2 0 .6-.1 1.2-.2zM999.9 177.1c0 .1.1.1.1.1l-.1-.1zM923.4 181.6c0 .1-.1.2-.1.3v.2l.1-.5zM960.7 173.4l-.2.4s.1-.1.1-.2c.1 0 .1-.1.1-.2zM924.6 183.7l.1-.1-.1.1zM951.2 176c0-.1 0-.2-.1-.2l.1.2z"/>
        <path class="st4" d="M761.8 203.2c0 .3-.2.6-.5.7-.3.2-.7.2-1.1.1h-.4c-.1 0-.2 0-.3-.1h-.2v.1c0 .1-.1.1-.2.2-.5.5-1.2.6-1.8.7-.1 0-.3 0-.4.1 0 .4-.2.8-.8 1.2h-.1l-.6.3c.1.2.1.6-.3 1-.3.3-.4.4-.4.5 0 0 0 .1.3.3.3.3.8.4 1.2.6.2.1.4.1.6.2h.1c.1.1.3.1.4.2 0 0 .1 0 .1.1.4.2.9.5 1.3.8l.9.6c.5.3.6.7.6 1 0 .8-.7 1.4-1.4 2-.3.3-1 .8-1 1 .5.6 1 1.1 1.6 1.7 1 1 2.1 2 2.6 3.5l-.5.8c-.1 0-.3 0-.4.1 0 .4-.1.7-.2 1 .3.1.5.3.7.6l-.4.8c-.1 0-.2 0-.2.1l.2.2c.1.1.2.1.4.1.3 0 .8 0 1.2.5l.1.1c0 .1.1.1.1.2v.1l-.3.8c.3.2.9.5 1.1.6.1.1.3.1.3.2.7.4.8.9.8 1.1 0 .3-.1.6-.4.9v.1l-.3.3-.1.1-.3.3-.1.1c1.6.8 3 1.6 4.4 2.6h.1c.1.1.2.1.2.2l.1.1.4.4v.2c.2.4 0 .8-.1 1.1 0 .1-.1.2-.1.3-.4 1.1-1.1 1.7-1.9 2.3-.1.1-.3.2-.4.3-1.9 2.1-3.7 3.9-6.7 5.7.4 0 .6.2.8.3l-.1.9s.1-.1.1-.2c0 .1.1.2.1.3 0 .1.1.2.1.2l-.1.1c.5.4 1 .7 1.3.8.3.1.6.1 1 0 .6-.1 1.3-.1 2 .4 1.3.7 1.8 1.1 1.7 1.7 0 .2-.2.5-.8.5-.6 0-1.1-.2-1.7-.4-.4-.1-.9-.3-1.3-.3-.2 0-.3.1-.5.3-.3.3-.6.6-1.2.7-.3 0-.6-.1-.8-.2h-.1c-.1.3-.3.7-.9.7h-.2c.2.1.4.4.6.7l-.6.8c-.3 0-.3 0-.5.6-.2.5-.5.9-.8 1.1l-.3.3V251.9c0 .1.1.2.2.3l.3.6c.1.4 0 .7-.1.9 0 .1-.1.2 0 .2l.3.3c.1.1.2.2.3.2.3.3.3.5.3.7 0 0 0 .1.1.1l.2 1-.6.6-.3.3c.6.3 1.2.8 1.4 1.2.3.4.4.7.3 1 0 0-.1.4-.3.8.3.1.4.3.6.5.9.3 1.4 2.2 1.6 3.1.1 0 3.7-.2 4.4 1 .2.2.2.5.2.7.3 0 .7-.2.9-.3h.1c1.5-.7 2.3-.3 3.3.5.2.1.3.2.4.2.3.1.8.3 1 .8 0 .1.1.2.1.2V267.1c0 .7 0 .8.3 1.3s.6 1-.1 1.6l.4.4c.1.1.2.2.3.2.3.3.6.7.8 1.1.4.6.7 1 1.3 1.3l.2.1c.3.1.6.2.9.5.2.1.3.3.4.5.1.2.1.4.1.6h.1c.3-.1.6 0 .9.1.1 0 .2.1.2.1.4 0 1 .1 1.1.8v.2l.1.1s.1 0 .1.1c.1.1.3.1.4.2.1 0 .1.1.2.1l.3.3s.1 0 .1.1c0 0 0 .1.1.1.2.3.3.6.2.9-.1.5-.6.7-.9.8 0 0-.1 0-.1.1-.1.1-.2.1-.2.2-.3.2-.6.4-1.3.6-.7.2-1.2-.1-1.6-.3-.1-.1-.2-.1-.3-.1h-.3c-.2 0-.3.1-.4.1.1.1.3.3.5.4l.2.1c.5.4.6 1 .6 1.5 0 .1 0 .3.1.4.1.5.4.9.7 1.3.1.1.2.2.2.4.3.1.5.1.6.1h.1c.1-.1.2-.3.2-.7l.7-.5c.4.1.7.1 1 .2.8.1.8.1 1.6-.1l.4-.1c.3 0 .7.1 1 .1.3.1.5.1.7.1h.1c.1 0 .1 0 .2-.1.2-.1.5-.2.8-.1.1 0 .1.1.2.1.2.1.5.3.6.5.2.3.4.5.5.8 0 .1 0 .1.1.1 0 .1.1.2.1.2.1.2.2.3.4.4.1 0 .1.1.2.1.1.1.2.1.3.2.1.1.2.2.4.3.1.1.3.3.3.5l-.2.8c-.2.1-.4.2-.6.2.2.3.4.6.5.9 0 .1.1.2.1.3 1 .3 1.4.3 1.5.2.8-.4 1.4.1 1.7.4.2.2.4.3.5.3l.6.5v.3c0 .3.3 1.1.9 2.3l.1.1h.2c.1 0 .1 0 .2-.1h.1c.4-.2.8-.2 1.1-.2.5.1 1 .3 1.4.6.3.2.6.3.9.4.2 0 .5-.2.8-.3.5-.2 1-.5 1.7-.7 1-.3 1.8.5 2.1 1.3.1.2.4.4.7.6.2.1.4.3.6.4.6-.6 1-.4 1.8 0 .9.5 1.8.7 2.1.6l1 .1c.1.2.2.2.3.3h.1c.3 0 .7.1 1.1.6.1.1.4.3.6.3h.3s.1 0 .1-.1c.2-.1.6-.3 1-.1v.1l.1.5.1.5s.1.3.1.4c.2.6.4 1.5-.5 2.2.1 0 .2.1.3.2.3.3.3.7.3.8l-.8.6c-.1 0-.2 0-.2.1.4.3 1 .6 1.1 1.2v.2l.3.2c.2.6-.3 2.2-.5 2.5-.5.9-1.5.7-2.1.6-.3 0-.6-.1-.7 0-.3.1-.6 0-.8 0h-.3s-.1 0-.1.1c-.1.1-.1.2-.2.3 0 .1-.1.1-.1.2-.1.1-.3.3-.6.4-.4.3-.6.5-.7.6v.1s0-.1-.1-.1l.2.7c.1 0 .1-.1.2-.1l.1-.1.2.2c.3 0 .7-.1 1.1-.3.3-.1.6-.3 1-.3 1-.2 1.3.5 1.4.7h-.2l.6 1c-.6.6-1.8 1.2-2.9 1.4h-.1c0 .2.1.4 0 .6l-.1.4h-.4c-.3 0-.6 0-.8-.1-.2-.1-.4-.1-.5 0l-.2.1h-.2s.1 0 .1.1c.2.1.5.2.8.4l.1.1c.7.4 2 1.2 1.7 2.1l-.1.4h-.4c-.4 0-.7-.2-1-.4l-.1-.1v.2c-.1.3-.1.5-.3.8l-.5-.1v.1c-.1.4-.3.9-.5 1.2h.1c0 .1 0 .2.1.3.1.3.3.8 0 1.4l-.7.3c-.2-.1-1.3-.2-1.6-.1 0 0 .2-.1.3-.3l-.4-.2-.6.5c-.2-.1-.3-.3-.5-.3l.1.5c.8.2 1.7.5 2.4 1.5.1.2.8.5 1.1.5-.1 0-.2.1-.3.2-.1.2-.1.3 0 .4l.6-1c.7.2 1.1.7 1.5 1.1.2.3.5.5.7.6.4.2.8.3 1.2.5.5.2 1 .3 1.5.6 1 .6 1.8 1.3 2.6 2 .6.6 1.2 1.1 1.9 1.6.1-.2.3-.3.4-.4 1-.6 2.8-.3 5.7 1 .4.2.8.3 1.2.5.2 0 .3.1.5.1.3.1.7.1 1.1 0 .6-.1 1.2-.2 2 .2.1 0 .1 0 .2.1h.2c.4 0 .9 0 1.3.2.3.2.6.3.9.5.1 0 .2.1.2.1.7.3 1.2.6 1.6.9.3.1.6.3 1.1.8l.2.2c.2 0 .6-.1.9-.2.1 0 .2-.1.3-.1.2-.1.3-.1.5-.2h.1l.4-.1c.5-.1.9-.1 1.3.2.1 0 .1-.1.2-.1.5-.2.9-.1 1.3.1.4.1.7.3.9.6l.2.2H839.4c.1 0 .1.1.2.1h.1c.7.4.6 1.2.5 1.6v.3c.4.3.8.4 1.3.5.3.1.7.2 1.1.3.1 0 .2.1.3.2.8.1 2.4.9 2.9 1.6.1.1.3.2.5.3.3.1.6.3.8.7l.1.2c.1.2.2.4.3.5l.1.1c.1.1.3.1.4.2.4.1.8.2 1.1.2.1-.1.2-.4.3-.6l.1-.2c.1-.1.2-.3.5-.5.2-.2 1-.9 1.1-1.2 0 0-.1-.1-.2-.1-.1-.1-.3-.2-.4-.4-.2-.3-.5-.5-.7-.8-.3-.3-.5-.7-.8-.9-.1-.1-.3-.2-.4-.4-.4-.3-.9-.7-1.3-1.3-.1-.2-.2-.3-.3-.5-.2-.4-.4-.8-.8-1-.4-.2-.6-.6-.6-1.1 0-.3 0-.6.1-.9-.1-.1-.1-.2-.2-.3-.1-.2-.1-.4-.1-.6-.2-.1-.3-.2-.4-.4-.2-.3-.1-.7 0-.9 0-.1.1-.2.1-.2 0-.3-.3-.6-.5-.9l-.1-.2c-.4-.6-.7-.9-1.4-1.2-.1-.1-.2-.1-.4-.2-.5-.2-1.5-.6-1.5-1.7 0-.5.4-.8.7-1.1l.3-.3v.1l.3-.2c.1-.4.3-.8.5-1.2.5-1.2.8-1.9.1-2.7l.5-1c.2 0 .4.1.6.2l.1-.3c.3.1.6.2.8.4.3-.3.7-.2 1-.2h.4l.1-.1s.1-.1.2-.1c0-.2.1-.3.2-.4.2-.3.7-.3 1.1-.2l-.1-.8c.3-.1.5-.2.8-.2.1-.1.2-.1.2-.2.1-.1.2-.1.4-.1v-.1c-.2-.1-.4-.2-.5-.2-1.6-.7-2.2-1-2.3-1.5l-.1-.2.1-.2v-.2c0-.1.1-.1.1-.2.3-.3.7-.3 1.2-.3l-.1-.1c-.5-.5-.9-1-1.3-1.5l-.1-.1c-.9-1.1-1.7-2.1-3-2.3-.6-.1-.9-.1-1.1-.1h-.2l-.1.1-.1.1-.1.1c-.2.1-.5.3-.9 0-.5-.3-.7-.8-.9-1.1-.1-.2-.2-.3-.3-.4l.1-.7c-.1-.2-.3-.3-.3-.4-.1 0-.2-.1-.3-.2-.6-.1-1.3-.4-1.5-.6-.3-.2-.5-.8-.5-1.3 0-.4.1-.8.2-1.2.1-.4.4-.8.7-1.1l.3-.3c-.1-.2-.2-.3-.4-.4l-.3-.3-.1-.1c-.1-.1-.2-.2-.2-.3-.1-.1-.1-.2-.1-.3-.1-.2-.2-.5-.2-.8 0-1.3.3-1.7 1-2.3l.3-.2v-.5c0-.4-.1-.9.3-1.4v-.2c.3-.3 1-.7 2.1 0 .1.1.2.2.3.2.4.3.9.8 1.3 1.2.4.4 1 1 1.2 1.1.2 0 .4 0 .7-.1.1 0 .2-.1.2-.1-.4-.4-.6-.9-.7-1.4-.1-.4-.3-.9-.5-1v-.1l.1-.2.2-1h.1c.3.1.6.1 1 0 .2-.1.5-.3.9-.5l.2-.1v-.1c-.1-.2-.3-.5-.1-.9.2-.4.6-.5.8-.6h.2c.8 0 .8-.1 1-.2.3-.3.7-.5 1.7-.6v-.2c0-.1 0-.2.1-.3.1-.4.2-.9.7-1.1h.1l.6-.7h.1c.1 0 .2 0 .4.1.5.1 1 .2 1.5.4.6.2.8.4.9.7v.1c.2-.1.4-.1.6-.1.1-.2.2-.5.6-.7l.2-.1.9-.3c.2-.1.4-.1.5-.2l.8.4c.3 1 .9 1.1 2.1 1 .7 0 1.4-.1 2 .2h.1c.2.1.3.1.5.2.3.2.4.4.5.5.2.2.3.4 1.7.8h.2l.1.1c.4.4.7.6 1 .8v-.1l.3-.2c.4-.3 1-.2 1.5-.1h.1s.1 0 .1.1c.1 0 .2.1.2.1h.1c.3.2.6.4.8.6l.2.2c.1.1.2.1.3.2.2.1.3.1.5.2.4.1.9.3 1.3.6.1.1.2.1.3.2h.2c.1 0 .2-.1.4-.3v-.1c0-.1 0-.1.1-.2 0-.2.1-.5.4-.7l.2-.1c.3-.2.4-.3.4-.4l.6-.7h.1c.2 0 .5.1.7.2.2-.1.4-.2.7-.3.5-.1 1.6-.2 2.1.4.1.1.3.3.7.5 0 0 .1 0 .1-.1.1 0 .1-.1.2-.1 0-.4 0-.6.3-.9.3-.2.6-.2.9-.1.1 0 .3.1.5.1 0 0 .1 0 .1-.1.1-.1.2-.1.3-.2.3-.2.7-.3 1.3 0 .5.3.8.7 1.1 1.2.1.1.2.3.3.4.3.4 1 .5 1.7.6.3 0 .5.1.8.1.6.1 1.1.2 1.4.6.1 0 .1-.1.1-.1v-.2c0-.4 0-1.1.6-1.3.7-.3 1.2.2 1.5.5l.1.1.2.2h.1c.4.2 1.2.1 1.4.1.8 0 1.7-.3 1.8-.5 0-.1 0-.3-.1-.4-.1-.4-.1-.8 0-1.2l-.1-.1c-.1 0-.1-.1-.2-.1h-.2c-.1-.1-.2-.1-.4-.1h-.3c-.4 0-.7-.1-1.2-.5-.3-.3-.5-.4-1-.4-.7 0-1.1-.3-1.3-.5-.1-.1-.2-.2-.4-.3-.2-.1-.3-.1-.5-.2-.2 0-.4-.1-.7-.2-.1 0-.1-.1-.2-.1s-.1-.1-.2-.1l-.2-.2c-.2-.2-.2-.5-.2-.7.1-.3.3-.6.8-.6 1.2-.7 1.5-.8 1.9-.8 0 0 .1-.1.3-.2-.6-.5-1.3-1.2-1.4-1.6-.1-.6.3-.9.6-1.1l.2-.2v.2l.3-.7.1-.4c.4-.1.7-.1.9-.1-.3-.1-.5-.1-.8-.2-.6-.2-.8-.6-.8-.9 0-.2 0-.3.1-.4-.3-.1-.6-.3-.9-.4l-.1-.1.2-1c-.1-.1-.2-.2-.5-.4l.2-1.1c.2 0 .3-.1.5-.1l.1-.1c.8-.7 2.8.1 2.8.1.2.1.2.1.3 0 .2-.1.4-.2.7-.3.5-.1.9.1 1.1.3l.1-.1c.4-.5 1.1-.5 1.7-.4l.1-.3.2-.1c.1 0 .2 0 .2-.1.1 0 .2-.1.3-.1H895c.5-.1 1-.1 1.4-.1h.4c.2-.3.5-.5 1.1-.5.1 0 .3 0 .5-.1.2 0 .4-.1.7-.1h.9c.2-.1.5-.2.9-.1.3-1.3 2.3-1.4 3.8-1.4h.3c.4 0 .8-.1 1-.1.8-.3 1.5-.4 2.2-.5.9-.2 1.8-.3 2.8-.7 0-.2.1-.3.2-.5 0-.1.1-.1.1-.1v-.1c.5-.4.8-.5 1.1-.6l.7-.6h.1c.1 0 .2 0 .3.1l.2-.4c.1 0 .2 0 .4.1.1 0 .2.1.3.1.2.1.5.2.6.1l.2-.1.2.1h.3c.3 0 .6.1 1 .1.1 0 .2.1.4.2h.1c.1 0 .2.1.3.1 1 .5 1.4.5 1.5.5l.1-.1c.2-.4.6-.6 1.1-.7.7-.1 1.4.4 1.8.8l.2.2.1.1c.3.3.4.6.5.9l.1.2c0 .1.1.1.1.2.1.1.2.1.2.2.2.1.4.2.5.3l.2.1h.1l.2 1 .1.1c0 .1.1.2.1.3 0 .1.1.2.1.3 0 .1 0 .1.1.2V273.3h.1c.3 0 .7 0 1.3.3l.3-.3.1-.1c.2-.2.5-.3.7-.3v-.2l.8-.4.9.6c.3.2.5.5.7.5l.1.2c.1-.1.2-.1.3-.2.2-.1.3-.1.5-.1.5 0 1.1.3 1.6.5.4.2 1.1.5 1.3.4.1 0 .1-.2.2-.2l1-.3.1.1c.5.4.7.9.7 1.4v.1l-.7.6c-.3 0-.6.1-.6.2.1.1.2.1.3.2.1 0 .1.1.2.1l.9-.6c.1 0 .2-.1.3-.1.2 0 .3-.1.5 0H936.5l.2.1.1.1c.2 0 .5-.1.8 0h.1c.3-.7.9-.9 1.5-1.1l.2-.1c.6-.2.8-.4.9-.5v.1s.1 0 .1-.1l.4-.9c.4 0 .9-.1 1.3-.3.3-.1.5-.3.7-.4.2-.1.3-.3.5-.4l.1-.1c.2-.1.4-.1.6-.1h.2l.5-.2c.2-.1.4-.2.8-.3l.5.7c.2.2.3.3.3.5s.1.3 0 .5c0 .1 0 .3-.1.5s-.1.3-.2.4c.8.5 1.6.9 2.5 1.3.7.3 1.5.7 2.2 1.1.6.3 1.2.8 1.8 1.2l.1.1c.3.2.6.5 1 .8.1.1.2.1.3.2.5.4.9.8 1.4 1.2l.8.7c1.7 1.4 3.3 3 4.8 4.5l.7.7.1.1c.3.3.7.7 1.1 1.2.6.7 1.4 1.6 2.1 2.1.2-.1.3-.2.5-.3.1 0 .2-.1.2-.1-.2-.4-.3-.8-.1-1.2.2-.4.5-.5.6-.5l.1-.1h.2c.2 0 .4-.1.5-.1h.1c.2 0 .4.1.5.1.1 0 .1.1.2.1.1.1.2.1.2.2h.4c.1 0 .2 0 .3.1l.1.1h.1l.1.1c.2.3.2.5.2.7.8-.1 1.2.4 1.5.8l.4.4c.2 0 .4-.1.7-.2.6-.2 1.1 0 1.4.1h.1c.3-.2.6-.2.8-.2.1 0 .3 0 .7-.4.3-.2.6-.3.8-.3h.1c0-.1.2-.3.5-.4h.1c.2 0 .4-.1.5 0 1.5 0 2.9.9 4 1.8l1.2 1.2c.2.2.3.4.4.5l.2.2h.1c.1 0 .2.1.3.1.1 0 .1 0 .2.1h.2c.1 0 .3.1.5.1h.2c.3 0 .6.1.9.2.8.3 1.2.8 1.4 1.2 0 .1.1.1.1.2.1.1.2.3.3.4.1.1.2.1.2.2.2.2.4.3.5.5.4.1.9.1 1.5.2.7 0 1.4.1 1.8.3 0 0 .1.1.2.1 0 0 0-.1.1-.1 0 0 0-.1.1-.1 0-.1.1-.2.1-.3 0 0 .8-1.1 1.6-.9.2 0 .6.2.7.8v.4c.6.1 1 .5 1.3.9l.1.1c.2.3.5.4.8.4.5.1.9.5 1.1.7.4 0 .8 0 1.3-.2l.2-.1v-.1h.1v-.1c0-.2 0-.4.1-.7.4-1.2 1.8-1 2.4-.8.1 0 .4.1.4.1s-.1 0-.2.1h.1l.4-.4c.3 0 .5.1.7.1l.2-.5c.3-.1.6-.1.9-.2-.1-.2-.2-.3-.2-.5l.2-.7c.2-.1.3-.2.6-.2.1 0 .2-.1.4-.1 0-.1 0-.2.1-.3.2-.4.5-.5.8-.6.1 0 .2-.1.2-.1.3-.2.7-.3 1-.3.1 0 .3-.1.4-.1.1 0 .1-.1.2-.2.3-.3.7-.7 1.3-.9.2-.1.4-.1.6-.1.3 0 .3 0 .4-.1 0-.1.1-.1.1-.2.2-.3.4-.6 1-.7h.4c.2 0 .7 0 .9-.1v.1l.4-.8c.7 0 1.1.4 1.4.6l.1.1c.3-.2 1-.8 1.5-.2.1.2.2.3.3.5.2.2.2.2.3.2h2.7c1 0 2.1.1 3 1.2.9 1.3 1.9 1.5 3.4 1.8l.5.1c.4.1.7 0 1.1-.1.3-.1.7-.2 1.1-.2.1 0 1.1.1 1.2.1 1.1.2 2.4.4 3.3.5.4 0 .7.2 1.1.4.2.1.5.2.7.3.5-.8.9-.9 1.5-1h.1s.1-.2.1-1c0-.3-.1-.5-.6-.7h-.1c-.1-.1-.3-.1-.4-.2-.4-.3-.7-.6-1-.9-.2-.3-.4-.5-.7-.7-.7-.5-1.2-2.3-.8-3.2.1-.2.2-.3.3-.4 0-.3 0-.6.1-.8.1-.2.4-.6.9-.7.2-.1.2-.6 0-1.1l.7-.7 1.8.6c.3.1.6.3 1 .4.3.1.5.2.8.3.1 0 .2.1.3.1.3.1.5.2.8.3.3.1.5.2.8.2.5.1 1 .2 1.4.2.5.1.9.2 1.5.2.4.1.9.2 1.4.4.6.2 1.3.5 1.7.4.9-.2 1.9-.1 2.8.5.9.5 1.5 1.3 1.7 2.1.1.3.4.6.7.9l.7.7c.3.4 1.1.8 1.6 1.1.2.1.4.2.5.2.1.1.4.1.6.1.5.1 1.2.2 1.8.7.2.1 1 .2 1.5.1.5-.2.8-.2 1.1-.1.3 0 .5 0 1-.2 1.1-.4 1.9-.7 2.7-.9 1.4-.3 3.2-.1 4.7.1.5.1 1 .1 1.5.2.8.1 1.5.5 2 .9.2.1.4.3.5.4.6.4 1.2.4 1.9.5.4 0 .8.1 1.3.2.7.2 1.2.7 1.5 1.1.1.1.2.2.2.3.3.3.7.5 1.1.8.2.1.3.2.5.3.5.3 1 .5 1.5.5h.8c1.1-.1 1.9.1 2.8.3.3.1.5.1.8.2.6.1 1.2.1 1.9.2h.8c.2 0 .5 0 .7.1.3 0 .8.1.9 0 .8-.8 1.5-1 2.9-1.1h.2c.2-.1.3-.1.5-.1h.1c.8-.2 1.7-.4 2.5-.4.8.1.8-.1.9-.5.3-1.2 1.1-1.7 1.9-2.2.8-.5 1.2-.7 2.2-.9h.5c.8-.1 1.7 0 2.7.7.1 0 .1.1.2.1.1.1.3.2.4.2.3.2.5.3.8.4.4.2.7.3 1 .3h.5c.2 0 .3-.1.5-.2.1 0 .3-.1.4-.1l.1-.1c1.2-.6 3.1.3 3.6.9.6.2 1.2.4 1.9.5.7.1 1.4.3 2.1.6.6.3.7.1 1.2-.5.1-.2.3-.4.4-.6l.1-.1c.1-.1.1-.2.2-.2.4-.4 1-.5 1.5-.6.2 0 .4-.1.6-.2-.1 0-.2-.1-.2-.1-.1-.1-.3-.2-.4-.2-.2-.1-.4-.3-.5-.5-.2-.3-.2-.7-.2-.9v-.2c0-.3 0-.6.1-.8v-.4s0-.1-.1-.1v-.1c-.1-.2-.1-.5 0-.9v-.1c.1-.1 0-.2 0-.5-.1-.2-.1-.4-.1-.7 0-.3 0-.5-.1-.8-.1-.8-.2-1.8.9-2.6l.2-.2c0-.2-.4-.6-.6-.9-.2-.3-.5-.5-.6-.8-.2-.3-.5-.6-.9-.7h-.5c-1.1.4-1.7-.3-2.1-.8l-.1-.2.3-1c.1 0 .2-.1.2-.1.2-.2.3-.4.4-.7.3-.6.6-1.5 1.7-1.7l1.5-.3c.9-.2 1.8-.5 2.8-.5H1120.1c.6 0 1.2-.1 1.8-.2 1-.2 2.1-.3 3.3.1.2.1.5.1.7.2.6.2 1.3.3 1.8.7.4.3.9.4 1.4.6.2.1.5.1.8.2 0 0 .1-.1.2-.1h.1c.1-.1.2-.1.3-.1h.3c1.1-.1 2.6.5 3.2.9.3.2.4.4.4.6h.2c.1 0 .1.1.2.1s.1 0 .2.1h.1c.2.1.4.1.5.2.3.1.6.2.7.3.4.2.5.5.5.7.3.2.5.3.8.5.1 0 .2.1.3.1.2.1.4.3.5.4.2.1.4.2.5.3.7.4 1.5.9 1.9 1.6.3.5.8 1 1.4 1.4.2.2.4.4.6.5.3.3.5.5.9.7.7.2 1.1.8 1.5 1.3.2.3.4.5.6.7l.9.6c.5.4 1 .7 1.5 1.1.4.3.7.7.9 1.1.2.3.3.5.5.7.1.1.3.2.5.3h.1c.3.1.7.3 1 .9.1.2.2.4.3.5.1.1.1.2.2.3.7 1 2.4 1.9 3.5 1.7.6-.1 1.8-.2 2.6.2.5.3 1 .4 1.6.6.1 0 .2.1.4.1l.1-.1c.5-.4 1-.1 1.7.4.2.1.3.2.5.3.6.1 1.2.6 1.8 1 .2.2.4.3.5.4.2.1.5.2.7.3h.7c.4 0 1 0 1.5.2s.6.7.6 1.1v.3c.1.1.4.2.6.4.1.1.2.1.3.2.9.5 1.1 1.1 1.2 1.7.1.2.1.4.2.6.2.3 1.6 1.2 2.4 1.6 0 0 .1 0 .2-.1.4-.1.9-.2 1.3-.1.2 0 .3.1.5.1.3.1.5.1.7.1h.6c.4 0 1.2-.1 1.6-.2-.1-.4.1-.8.3-1.1.5-.6 1.4-1 2.3-.9l.2.1h.1c.1-.3.3-.6.9-.7 0 0 .1 0 .1-.1.3-.2.6-.3.8-.4.4-.2.8-.3 1.2-.2.3.1 1.5.3 1.9.8l.2.2v.7c0 .1 0 .2.1.2.1.1.1.3.3.4.1.1.2.2.4.3.5.5 1.3 1.2 1.2 2.1 0 .4-.2.7-.4.9-.1.1-.2.2-.4.3l-.1.1s.1.1.1.2c.1.1.2.2.3.4.1.2.1.4.1.6v.5c0 .1 0 .1.1.2 0 .1.1.2.1.3.1.2.2.4.3.7 0 .1.1.2.1.2.1.2 0 .4 0 .5.1.1.2.3.3.4.3.5.6 1 .4 1.6 0 .1-.1.2-.1.2.2.3.1.7 0 1-.1.1-.1.2-.1.3 0 0 .1.2.2.3.2.3.5.7.3 1.3-.1.4-.4.5-.6.6 0 .1.1.2.1.3 0 .1.1.2.2.3 0 0 0 .1.1.1 0 .1.1.2.1.2v.2c0 .1.1.2.1.2 0 .1.1.2.1.2 0 .3 0 .5-.2.7-.3.2-.7.3-1.5.2-.5 0-1.2-.2-2-.4-.1 0-.1-.1-.2-.1h-.2c-.2-.1-.4-.1-.4-.1-.1 0-.3-.1-.5-.2s-.5-.2-.7-.3c-.1.4-.2 1-.8 1.3l-.6.3h-.1c.1.1.2.2.3.2l.2.2c1.1 1.2 2.1 2.6 3 4.5.2.4.5.8.8 1.1.6.8 1.3 1.7 1.2 2.9v.4c0 .2.1.6-.2.8.1 0 .3.1.4.1v-.4s0 .1.1.1l.4-1.1c-.1 0-.2.1-.2.2v-.4c0-.4-.1-1 .3-1.4.1-.1.4-.3.8-.3.6 0 .8.4.9.7l1.1-.4c.1.1.2.3.5.7.1.3.4.7.6 1 .4 0 .7.1 1 .2.2.1.4.1.5.1.1 0 1.8.3 2.1.7l-.3.6.3-.5s.2-.1.3-.2l.2-.1c1.8-.9 2.9-1.7 4.1-2.9.4-.4 1.1-1.7.9-2v-1c.1-.1 0-.4 0-.6V321.5c.1-.6.2-.8.7-1.2v-.2c-.1-.3-.2-.7.1-1.1l.3-.3v-.4c0-.2 0-.4.1-.5.1-.2.1-.4.1-.5 0-.3.1-.7.4-1.2.2-.3.3-.5.4-.8l.2-.4c.5-1 .9-2.6.7-3.5-.1-.5-.1-.8 0-1v-.1c-.1-.1-.1-.3-.2-.4l-.1-.4c-.2-.7-.4-1.8 0-2.6.3-.5.2-1 .1-1.7s-.2-1.5.2-2.3c.1-.3.3-.5.4-.8.6-.9.7-1.4.3-1.9-.2-.2-.3-.5-.4-.9-.1-.2-.2-.7-.3-.8 0 0 .2.1.2 0l-.4-1.1c-.2.1-.2.2-.2.3 0-.1-.2-.4-.3-.5l-.4-.8c.1-.3-.1-.7-.2-1.1-.1-.2-.3-.4-.6-.6-.4-.4-.9-.8-.8-1.6-.9-.4-1.7-1.6-2.5-2.7l-.1-.1c-.3-.4-.3-.8-.4-1.2 0-.3-.1-.6-.2-.7 0-.1-.1-.1-.2-.2-.4-.4-.8-.9-.8-1.5v-.2c-.2-.2-.3-.4-.3-.7-.1-.5 0-1 .4-1.2v-.7c-.3-.3-.4-.7-.4-.9v-.2c-.7-.2-2.3-.5-2.4-1.7-.1-.9-1-1.3-2.3-1.8-.6-.2-1.2-.5-1.7-.8l.2-1.1h.3c-.3-.1-.4-.1-.5-.2-.3-.2-.6-.3-.9-.5-.4-.2-.8-.5-1.2-.6-.7-.3-1.5-.5-2.1-1-.3-.2-.6-.4-.9-.7-.8-.7-1.9-1.5-2.7-1.4-.2 0-.4.1-.6.2-.4.1-.9.3-1.7.1-.1 0-.1 0-.2-.1.2.2.4.4.6.8l.2.3c.3.6.6 1.1.4 1.7-.2.5-.8.7-1.2.8l-.7-.7v-.2l-.2.2c-.7.5-2.4 1-3.3.5l-.3-.2-.1-.4c0-.3.2-.9.4-1.5-.2 0-.4-.1-.6-.1l-.5.7c-.1 0-.2.1-.4.1-.7.2-2 .5-2.5-.9-.1-.4-.3-.8-.6-1.2l-.2-.2c-.3-.3-.6-.6-.7-1 0-.5-.7-.6-2.1-.5-1.3.1-2.3 0-3.7-.4-.9-.3-1.9-.7-2.1-1.6-.1-.4 0-.9.7-1.5.2-.1.3-.2.5-.3.3-.2.5-.3.6-.5v-.3c0-.3 0-.7.3-1 .2-.2.5-.4.6-.4.1 0 .1-.1.2-.1.2-.5.6-.9 1-1.3.1-.1.2-.5.2-.7.1-.3.2-.8.4-1.2-.2-.3-.3-.6-.2-1.1v-.4c0-.5 0-1.1.4-1.4.1-.1.2-.3.2-.5.1-.3.3-.7.6-1 .1-.1.2-.1.2-.2.3-.2.4-.3.5-.6v-.3c0-.3.1-1.1 1-1.3l-.1-.1c-.3-.6-.9-1.4-.6-2.2.2-.6.7-.9 1.1-1.1.2-.1.4-.3.5-.4.1-.2.1-.4 0-.7-.1-.3-.1-.8 0-1.2.4-1.1 1.5-1.4 2.2-1.6h.1c.5-.2.9-.1 1.3-.1h.7c.3 0 .5-.1.7-.1.5-.1 1-.2 1.6-.1.9.1 1.8 0 2.7 0 .9-.1 1.8-.1 2.7 0 .7.1 1 .4 1.3.7l.3.3c.1 0 .1.1.2.1-.1-.2-.1-.4 0-.7.3-.5.9-.4 1.5-.3.3.1.7.1.9.1.8-.1 1.7.1 2.4.4h.5l.1-.3c.9-.3 1.7-.3 2.4 0v-.2l.5-.2v-.1c0-.4.1-.7.6-1 1-.7 2.3-.3 3.3 0 .2.1.4.1.6.2.1 0 .2.1.4.1 1.8.6 2.4.7 2.6.7l.2-.4c1.5-.3 2.8.4 4 1.1.3.2.6.2 1 .2.5.1 1.1.1 1.7.5v.9c.6-.2 1.7-.1 2.6.1.2-.3.4-.5.6-.7l.2-.2c.4-.4.7-.4 1.3-.2h.2c.1 0 .2 0 .3.1 1 .3 1.5.4 1.8.4l.1-.5c.4-.1.7-.1 1 0-.6-.3-1.3-.6-1.6-.3l-.2.5c-.1-.1-.3-.1-.5-.1s-.4 0-.7-.1c-.5-.1-.9-.6-1-1.1v-.2c-.5-.4-1.1-1-.9-1.5 0-.1 0-.1.1-.2-.2-.4-.3-.9-.3-1.4 0-.8.4-1.1.7-1.3l.3-.3c.2-.3.3-.5.4-.6 0 0-.1-.1-.1-.2-.2-.5-.7-1.6 0-2.3-.1-.1-.2-.2-.3-.2l-.3-.3.3-1s.1-.1.1-.2c.1-.2.4-.8 1-.8l.4-.4h.4c.6.1 1.2.1 1.8.3.1 0 .3-.1.5-.1.3-.1.6-.2.9-.2.2 0 .5-.1.8-.2l.9-.3c.6-.1 1.1.2 1.4.4.2.1.4.2.5.2.3.1.5.2.7.4.3-.4.6-.9 1.1-1 .4-.1.7 0 1.1.3.4.3.8.8 1.2 1.5.2.4.1.7 0 .9 0-.1-.1-.3-.2-.4l-.1.5h.1-.1c.1.1.3.2.4.2 0-.2-.1-.4-.1-.4l.1.1c.1.1.4.3.4.6.3.2.6.5.9.9.3-.2.7-.4 1.3-.2.7.2.8.9.9 1.2v.1c.2.1.4.3.5.4.1-.1.3-.2.5-.3.1 0 .1 0 .2-.1 0-.5.2-1 .4-1.4.1-.3.3-.6.3-.8 0-.8.4-1.3.7-1.5.2-.2.5-.3.7-.3l.1-.1.1-.1-.3-.3c-.1-.1-.2-.2-.4-.3-.5-.4-1.1-.9-1.1-1.5-.5-.2-.9-.5-1-1l.4-.8.5-.2c1.3-.4 2.9-.9 4.3-.3.9.4 1.9.5 2.9.6.5 0 .9.1 1.3.2v1.2c-.2.1-.4.1-.6.1l-.2.5c-1.9-.8-2.4-.8-2.6-.7l-.2.2c0 .3.9 1 1.2 1.2l.1.1c.6.5.8.9 1 1.4 0 .1.1.2.1.3.1.2.1.2.5.3.3.1.6.1 1 .4.6.5.7.9.4 1.4 0 .1-.1.1 0 .2 0 .1.3.2.7.3h.2l.1 1.2c.1 0 0 .1-.1.1-.3.3-.7.7-1.2.5-.2-.1-.4-.1-.5-.1 0 .2-.1.5-.4.7-.3.2-.6.4-.8.6.2.2.4.4.5.7.2.5-.2 1-.4 1.2 0 .1-.1.1-.1.2v.4c0 .4.1.8-.2 1.4-.1.2-.3.4-.5.5.1.5-.1 1-.2 1.4-.2.5-.2.6 0 .8.6.5.5 1.2.5 1.6v.5l-.6.9s.1 0 .1-.1c.2-.1.2-.2.2-.3 0 .2-.1.4-.2.7-.2.3-.3.6-.5.8-.1.2-.1.2-.2.3l-.4 1c-.1 0-.2 0-.2-.1h-.6c-.2 0-.4.1-.6.1 0 .3 0 .8-.5 1-.1 0-.2.1-.2.1.1.1.3.2.4.3.4.4.6.8.7 1.2.1.3.2.5.3.7l-.7 1c.1 0 .3 0 .3-.1-.1.1-.2.7-.2 1.2h-.2v.1c.1.3.3.5.5.8l.2.2c.2.3.4.6.6.8.4.5.8 1.1 1.2 1.6 1.4 1.8 3 3.7 5.1 5.5 2.4 2 4.7 4.1 7 6.1l1.3 1.3c1.2 1.4 2.8 3 4.1 3l.1 1.2c.1-.1.1-.1.2-.3.1-.2 0-.4-.1-.4 0 0 .2.1.3.2.1.1.3.2.4.3.2.2.5.4.7.6.2.1.3.3.5.4.9.8 1.7 1.6 2.3 2.3l.2.3c.5.6 1 1.2 1.7 1.6.1.1.3.2.4.2.4.2.8.4 1.1.8 0-.1.1-.2.1-.3.1-.3.2-.6.4-.9-.1-.2-.2-.6.2-1.1.5-.6.5-1.6-.2-3.1-.1-.2-.3-.3-.5-.5-.2-.1-.4-.3-.5-.4-.3-.3-.3-.5-.4-.7v-.1c-.1-.1-.2-.3-.4-.5-.1-.1-.2-.3-.3-.4h-.1c-.3 0-1-.1-1.1-1v-.4l.4-.2c.6-.3 1.1 0 1.5.2.4-.5 1-1 1.7-1.2-.1-.1-.2-.1-.3-.2l.1-.2c-.1-.1-.6-.5-.8-.7-.4-.4-.6-.5-.7-.6l-.2-.2c-.5-.6-1.3-1.7-.5-2.8.1-.2.2-.4.3-.5.3-.5.7-1.4 1.9-1.3.4 0 .7.2.9.3.2.1.4.2.5.2h.3c.1 0 .3 0 .4-.1v-.1c0-.1.1-.3.1-.3-.2-.2-.7-.5-1.1-.7-.1-.1-.3-.2-.4-.2l-.2-.1c-1-.6-2-1.1-2.9-2.1-.6-.6-.9-1.3-1.2-1.9-.1-.3-.2-.5-.4-.8-.3-.6 0-1.1.2-1.4l-.5-.8c.1-.4.4-.7.8-.8.2-.1.3-.1.5-.1-.2 0-.4-.1-.5-.1-.5-.1-1-.1-1.8-.8-.2-.2-.5-.4-.7-.6l-.8-.8-.1-.1c-.4-.3-1-.7-.9-1.5 0-.2.1-.3.1-.5.1-.3.1-.3-.1-.5-.4-.4-1-.5-1.7-.6-.2 0-.4-.1-.6-.1v.1l-1.1.6c-.1-.1-.6-.2-.9-.3-.3-.1-.5-.1-.8-.2-1.1-.5-1.7-1.1-2.3-2 0 0-1.1-2.4-.7-3.6h-.1v-.7c-.4-.3-.6-.6-.5-.9-.7-.4-1.1-.7-1.1-1.1l-.1-.3.1-.1h-.1c-.3-.2-.8-.6-.7-1.3l.4-.2-.2-.7c.7-.5 1.5-.3 2-.1h.1l.3-.2c.4-.3 1.4-.2 1.9.2.1.1.2.1.2.2l.1-.7h.3c.3 0 .4 0 .6-.2.1-.1.2-.3.3-.5.1-.3.3-.6.6-.9.8-.6 1.7.4 2.2.9l.2.2c.2.1.3.4.5.7.2.3.6.9.9 1.1.1-.3-.1-1.2-.1-1.6l-.1-.2.7-.7c.2 0 .3.1.4 0l.3-.4c.3.2.8 0 1.4-.3.4-.2.8-.3 1.2-.4 1.2-.2 2.6-.1 3.6.1 1.7.3 3.3 1.2 4.9 2 .3.1.5.3.8.4-.3-.3-.5-.5-.7-.6l.1-.3-.1-.1v-.1c0 .1 0 .2.1.2l.2-.7v-.1l.2-.4c.2 0 .7-.1.8-.2-.1 0-.1.1-.1.2l.5-1h-.2c.1 0 .2-.2.2-.3v.1l.2-.1c-.1 0-.3-.1-.4-.2l.3-1.2c.1 0 .2 0 .3.1h.1v-.1s0 .1-.1.1l.1-.4-.2-.1-.2-1.1c.5-.3.9-.2 1.2-.1-.1-.1-.2-.2-.3-.4l.5-1c.3 0 .6 0 .8.1.1 0 .3.1.4.1v-.6c.4-.1.7 0 1 0h.2l.1-.7h1.1l.5-.6c.3.1 1.1-.3 1.6-.7.2-.2.3-.3.5-.4.1-.1.2-.2.3-.2-.1-.1-.2-.1-.3-.2l-.3-.3c-.2-.2-.3-.3-.5-.4l.4-1.2c.4.1.7.2.9.4 0 0 .1 0 .1.1.4-.4 1 0 1.9.7.3.2.9.2 1.4.2h.8l.7.1c1.2.2 2.4.3 3.6.7v-.3c-.1 0-.1.1-.2.1v-.3c-.3-.2-.7-.4-1.2-.5-.4-.1-.9-.3-1.3-.5s-.6-.5-.8-.7c-.2-.3-.3-.4-.7-.5l-.3-.1c-.6-.2-1.3-.3-1.9-.4v-.2l-.6-.3c-.5.1-.9-.1-1.2-.3-.4-.2-.5-.2-.6-.1l-.9-.5c0-.3.1-.5.2-.7-.3-.2-.6-.3-.9-.4l-.3-.1c-.3-.1-.5-.1-.8-.2 0 0-.6-.3-.8-.7-.3-.2-.7-.3-1-.5-.1-.1-.3-.1-.4-.2v.4c-1.3.1-4.2-.4-5.2-1.9-.2-.3-.6-.6-.8-.6 0 0-.1 0-.3.2-.4.7-1.3.4-1.7.3-.1 0-.1 0-.2-.1-.1 0-.1 0-.3.1-.2.1-.4.2-.7.2l-.3-.7c-.9-.4-1.6-.6-2.2-.8v-1.2h.4l-.1-.5c1.9-.6 4.5.3 5.8 1.1 1.2.7 2.7.6 4.2.5h.5l.1.2c.3-.2.7-.5.9-.6v-.2c0-.1 0-.3.1-.4.2-.5.5-.6.7-.7-.1-.1-.2-.3-.3-.3h-.7s.1 0 .1-.1h-.5l-.2.2c-.3-.1-.8-.4-.7-.9.1-.4.4-.5.7-.5-.4-.1-.9-.2-1.1-.3-.4-.1-.7-.2-.9-.2-.5-.2-2.2-.9-2.6-2.2l.4-.2.4-1.2h.4l.2-.3c.4.1.7.3 1 .5.2.1.3.2.5.3l.3-.7c.8 0 1.7.8 2 1.4.1.2.2.4.2.6.1 0 .2.1.2.1.5.3 1.1.5 1.6.6.6.1 1 .5 1.4.8.3.2.5.4.7.5.7.2 2 .2 2.7.1.1 0 .2-.1.3-.2.2-.2.6-.4 1-.4.3 0 .6.1.9.1.2 0 .3.1.5.1 2 .2 4.3 1 6.3 2.2.8.5 1.6.7 2.5 1 .3.1 1.1.3 1.4.3l.1-.3c.9.5 1.9.7 3 .9.9.2 1.8.4 2.6.7.3.1.6.2.8.3l.3-.7-.8-.3c0-.8.6-1 1.1-1.1-.3-.1-.6-.2-1.1-.2-.2 0-.4 0-.6-.1l-.2-1.1c-.3 0-.7.1-1-.2-.6-.4-1.3-.6-2-.7l-.5-.1v-1.2c1-.2 1.9.1 2.8.4h.2c.1 0 .3.1.5.1l.4-1.1c.7.1 1.3.3 1.9.5.2.1.5.1.7.2-.1-.2-.2-.4-.2-.7v-.2c-.1 0-.2 0-.4-.1-.2 0-.5-.1-.7-.2l.1-.3c-.1-.1-.3-.1-.3-.1-.2-.1-.5-.1-.5 0l-1-.5v.2c-.1-.2-.8-.6-3.8-1.2-.2 0-.4-.1-.5-.1-.8-.2-1.4-.5-2.1-.8-.2-.1-.5-.2-.7-.3-.8-.4-1.9-.4-2.9-.4v.2c-.6.1-1.3.2-1.9.1l-.1.2c-.6.2-1.5-.3-1.8-.7 0 0 0-.1-.1-.1h-.2c.4.3.7.5.8.9v.2c.2 0 .3.1.5.1.4 0 .8.1 1.2.3.7.3 1 .8 1.3 1.3l-.7 1c-.1 0-.3-.1-.6-.4-.3-.2-.8-.5-1.1-.6l-.2.3c-.7 0-1.3-.3-1.8-.6-.4-.2-.7-.4-1-.4-.1 0-1.6-.4-1.9-1v-.1c-.3-.2-.6-.3-.9-.4-.6-.3-1.2-.6-1.7-1-.1-.1-.3-.2-.4-.3-.4-.3-.7-.6-1.1-.8-.6.4-1.5-.1-3-1-.3-.2-.7-.4-.8-.4-.9-.3-2-.5-3-.7-.5-.1-1.1-.2-1.6-.3-.4-.1-.8-.2-1.3-.3-.3-.1-.7-.2-1-.3-.2 0-.4-.1-.6-.1-.3 0-.7 0-1-.1-.2 0-.3-.1-.4-.2-.4-.2-.6-.2-.8-.2-.4.1-1.1-.1-1.3-.4-.7.3-1.6-.1-2.3-.4-.2-.1-.3-.2-.5-.2l-1.2-.3c-.7-.1-1.3-.2-2-.6v-.1c-1.6-.5-3.3-.8-5-1.1-.6-.1-1.2-.2-1.8-.4h-.1c-.5-.2-1-.3-1.6-.5-.5-.1-.9-.2-1.4-.4-.3-.1-.6-.1-1-.1-.7 0-1.6 0-2.2-.7v-.1c-.5-.1-1.1-.1-1.6-.1-.8 0-1.6-.1-2.3-.2-.9-.2-1.8-.4-2.7-.5-1-.2-2.1-.4-3.2-.6-1.3-.3-2.4-.3-3.8-.3h-4.5c-.3 0-.6-.1-.9-.1-.7.8-1.9.2-2.6-.1l-.2-.1c-.7-.3-1.3-.3-2.1-.3-1 0-2-.2-3-.3-.5-.1-1-.1-1.5-.2l.4.3-.2.7h.3c.5 0 1.1 0 1.7.3.4.2.7.3 1.1.5 1 .4 2 .9 3 1.6l.1.8c.1.1.2.2.4.3l-.3.4-.2.8h-.2c-.5-.1-1-.1-1.6 0-.6.1-1.3.1-2 0-.6-.1-1-.5-1.5-.7-.3-.2-.6-.4-.9-.5-.7-.2-1.4-.3-2.2-.4-1.2-.1-2.5-.2-3.6-1.1-.7-.5-2.6-1.5-3.1-1.4-.8 1.7-3.4 1.2-4.4 1-.9-.2-1.9-.2-2.8-.2-1.3 0-2.6-.1-4-.5-.6-.2-1.3-.1-2 0-.4.1-.9.1-1.4.1h-3.4c-.4 0-.8.1-1.2.2-.7.2-1.5.4-2.3.1-.9-.3-1.9-.4-2.8-.6h-.2c-.9-.1-1.7-.2-2.6-.7-.4-.2-.5-.6-.5-.8v-.1h-.1v-.2c-.3-.2-.6-.4-1-.7-.6-.5-1.2-.9-2-1.2l-.7-.3c-1-.3-2-.7-3-.9-2-.4-4.1-.6-6.2-.7-.8-.1-1.6-.1-2.4-.2-2.8-.3-5.6.3-8.1.8-3 .7-5.9.1-7.9-.4l.1-.7c-.9-.4-1.9-.6-2.5-.7l-.3-.1c-.7-.1-1.4-.3-1.9 0s-1.2.4-1.8.5l-.4-1.1h-.7c-.5 0-1 .1-1.7-.5-.3-.3-1-.2-1.6-.1-1 .1-2.3.3-2.9-.9l.5-.9h.5l.2-.2c-1.5-.4-3-.6-4.8-.8-1.3-.1-2.4-.2-3.4-.1-.3 0-.4.1-.4.1 0 .1-.1.4-.1.6v.4c0 .3-.2.9-1 1.2-1.1.5-3.1.4-3.8-.1l.1-.3c-.1 0-.2-.1-.3-.1-.3-.1-.5-.2-.6-.3l.5-1.1c.2 0 .4.1.5.1v-.2h-.3c-.8 0-1.7.1-2.4.3-.9.3-1.7.2-2.4-.3l.2-1.1c.2 0 .4-.1.6 0 0-.1.1-.1.1-.2h-1c-1.1 0-2.1-.1-3.1-.1-1.9-.2-3.8-.2-5.8-.2-.7 0-1.4-.1-2-.2v.8h-.2c-.3 0-.6.1-.9.2-.1 0-.2 0-.3.1.3 0 .5.1.8.1l.1 1.1c-.2.1-.3.2-.5.2 1.4.5 2.7 1.2 3.5 1.7l-.5 1.1c-.4-.1-.8-.1-1.2 0-.6.1-1.3.2-2.1-.2l-.1-.1c-.3-.1-.5-.2-.7-.3l-.1.6c.1.1.2.1.3.2l-.5 1.1c-1.4-.2-2.8-.6-4.1-1-1.2-.3-2.4-.7-3.6-.9-.6-.1-1.3-.2-1.8-.2-.2 0-.4.1-.6.2-.2.1-.5.2-.8.3l-1 .6v-.1c-.3-.3-1.3-.3-1.9-.3h-.9c-1.3-.1-2.3-.5-3.5-.9-.3-.1-.7-.2-1-.4-.1 0-.3-.1-.6-.3-.2-.1-.5-.2-.7-.3.2.6.9 1.4 1.3 1.5l.1 1.2c.1 0 .1-.1.1-.1v.6c0 .5.1 1.1-.4 1.5-.5.3-1 .2-1.4 0-.5-.2-1.1-.4-1.7-.5-.7-.2-1.4-.3-2-.6-.6-.3-1.2-.4-1.8-.6-.9-.2-1.9-.5-2.8-1l-.2-.1c-.5-.3-.9-.6-1.4-.6-.4 0-1.2-.1-1.4-.7-1.6 0-4.2-1.5-4.8-2.2l.5-.8c-.4 0-.9-.1-1.3-.4l.3-1.1c-.6 0-1.2-.1-1.7-.3l.1-.7c-.2-.1-.3-.3-.3-.5-.3-.1-.6-.1-.9-.1-.5 0-1-.1-1.6-.3-.3-.1-1.2-.5-1.7-.5-.3 0-.7-.1-1.1-.2-.4-.1-1-.2-1.4-.2l-.1.4c-.2 0-.4 0-.6.1-.3.1-.7.1-1 .1-.7-.1-1.1-.2-1.3-.5h-.1c-.3.1-.7.3-1.2.2-.4 0-.6-.3-.7-.4-.3 0-.6-.1-.9-.2-.6-.2-1.2-.3-1.9-.4-.3 0-.6-.1-.9-.1H1043v.1c-.1.1-.3.2-.4.3.4.2.9.4 1.3.5v1.2s.1-.1.1-.2v-.3s0 .1.1.1c.1.2.4.5.3.9-.2.5-.7.6-.9.6-.5.1-.9 0-1.4 0-.3 0-.6-.1-.8-.1h-.3c-1.5.1-3.1.2-4.6.1-1-.1-2-.2-3-.2-.9-.1-1.8-.2-2.7-.2-1.6-.1-3.3-.4-4.4-1.5v-.8c-.9-.1-1.9 0-2.8 0-.8.1-1.5.1-2 0-3.2-.3-5.8-.3-8.2 0l.3.9c-.9.3-1.3.2-1.9 0-.1 0-.3-.1-.4-.1-.7-.2-1-.5-1.1-1.1-.3-.3-.8-.5-1.3-.7-.9 1-2.8.7-3.7.6 0 0-1.4-.3-2.3-.8l-.2.8-.4.1c-1.1.4-2.2.8-3.4.7l-.1.2h-.1c-.1 0-.4.1-.6.2-.3.1-.5.2-.9.3-.2 0-.5.1-.7.1-.3.4-.9.4-2 .6-.5.1-.9 0-1.3 0h-2.3l.1.6c-.9.9-2.1 1.3-3.3 1.1l.1-1.2c.3 0 .9-.2 1-.4v-.1c-.1-.3-.1-.8.1-1.2.2-.3.5-.4.8-.5h.7c.2-.6.8-1 1.3-1.2.5-.2.9-.2 1.4-.2.3 0 .5 0 .8-.1h.1c.1-.2.1-.4.3-.6.4-.4.9-.6 1.4-.8h-.1v-1.2c.3-.1.6-.1.9-.1.2 0 .4 0 .5-.1l.1-.5c1-.2 1.5-.2 2.3-.7.4-.2.8-.1 1.1-.1 0-.1 0-.2.1-.4.2-.5.8-.6 1.3-.6h.2c.3-.1.5-.3.8-.6l.2-.2c-.2-.2-.9-.5-1.6-.7h-.5c-.4.1-1 .2-1.5-.3-.2-.2-.6-.3-1-.4-.3-.1-.6-.1-.9-.2l.1-1.2-.5-.1s-.3-.2-1.2-.7c-.8-.4-1.4-.5-1.5-.4l-1.1-.4c-.2-.1-.4-.2-.5-.3-1.1-.4-3.5-.6-4.7-.5h-1.6c-.7 0-1.3-.1-2 0s-1.4.1-2.1 0h-1c-.2.5-.8.8-1.8.8-.3 0-.6 0-.8.1-.8.1-1.7.2-2.5-.1l.3-1.2c.2 0 .5-.4.5-.6h-.1c-1.2-.4-2.7-.2-4.1 0-.4 0-.8.1-1.1.1l-.1-.5c-1 .1-1.9.1-2.9.1h-1.6l-.2-1.2c.6-.2 1.2-.3 1.8-.3.4 0 .7-.1 1-.1h-.1c-.4 0-.8-.1-1.3-.2l-2.1-.3c-.3 0-.7-.1-1-.1-.2 0-.5-.1-.7-.1-.6 0-1.1.1-1.7.2l-.5.1c-.3 0-.6.2-.9.4-.2.1-.5.3-.7.4v.2c-.2.1-.4.3-.6.4-.1.1-.2.1-.3.2l-.2.3s.1.1.2.1h.1c.3.1 1.1.2 1.2.9.3.1.9.2 1.8.3l-.1 1.2h-.6c-.3 0-.7-.1-1-.1-.2-.1-.6-.1-.7-.1-.5.1-1 .2-1.4.3.3.1.5.3.8.6l-.5 1c-.8-.1-1.5-.2-2.2-.3-.9-.2-1.7-.3-2.5-.3-.1.3-.4.4-.8.4v.3c-.5.2-1.3.3-1.9.2-.1 0-.3 0-.5.1-.3.1-.6.2-1 .2-.3 0-.6-.1-.8-.2-.3-.1-.3-.1-.4-.1-.6.2-1.1.3-1.6.4l-.5-1c-.3 0-.5 0-.8-.1-.7 0-1.4 0-2.2.1-.4 0-.8.1-1.2.1l.2.5c-1.5.7-3.3.8-4.9.9h-.4c-1.5.1-3.1.3-4.7.4l-.6.1c-.3.4-.9.5-1.7.6H929.9v.1c-.3 0-.5.2-.9.5-.3.2-.6.5-1.1.7-.1 0-.2 0-.2.1v.1l-.7.6c-.2 0-.4-.1-.6-.1l-.1.2.1.1-.1.5c.1 0 .3 0 .4.1.4.1 1 .1 1.4.5l-.3.7c.1 0 .2 0 .2.1.5.2.9.3 1.4.3v.6l.1.1.1 1c-.6.5-1.7.4-2.7.3-.4 0-.8-.1-1-.1-.2 0-.5.1-.7.3-.3.2-.7.4-1.1.4-.5 0-.9 0-1.2-.1-.4-.1-.8-.1-1.1-.1-2 .4-4.3.4-6.3.4h-1.1c-.8 0-2.3-.1-3.2.2 0 .2-.1.3-.2.4l.2.2c1.1.3 2 1 2.3 2 .2.8 1.5 1.1 2.2 1.2.4 0 .7.1 1.1.1 1 .1 2.2.1 3.2.8l.3.2c.3.2.5.4.9.5.5.2 1.1.5 1.5 1.1l-.4.9c-1.7.4-3.1.4-4.4 0-.5-.1-.9-.3-1.4-.5-.6-.2-1.1-.4-1.7-.6l.1-.3c-.1-.1-.4-.2-.5-.2-.3-.1-.7-.1-1.1-.2-.2 0-.3 0-.5-.1-.6-.1-1.2-.2-1.7-.4-.5-.1-.9-.3-1.4-.3-1-.1-2.1-.1-2.8-.1 0 0-.1 0-.2.1.5.2 1 .5 1.3.9l-.1.8c-1.2.9-2.4.4-3.4.1-.2-.1-.5-.2-.7-.3-.6-.2-1.2-.1-1.8 0 .3.3.7.6 1.1.7.3.1.6.2.9.2.3.1.6.1.9.2.2 0 .4.1.6.2.6.2 2 .7 2.4.3l1.1.3-.1-.1h.2c.2 0 .6 0 .9.2.2.1.3.3.5.4.3.3.3.3.4.2l.6.4h.3c.4 0 .6 0 .8-.2l.9.7c-.1.4-.4.7-.7.9-1 .5-2.5-.1-4-.6-.7-.3-1.9-.6-2.2-.6l.1-.1-1.1.3c-.2-.4-.8-.3-1.7-.3h-1.5c-1.1-.1-2.4-.2-3.1-1l.3-.5c-.1-.1-.2-.1-.3-.2-1-.7-1.1-1.1-.9-2.5.1-.5-.4-1.3-1.2-1.8-.1 0-.1-.1-.2-.1.5.5.8 1 .8 1.6 0 .3-.2.8-.9 1.2-.4.2-.9.3-1.4.4-.5.1-1 .2-1.3.4v.1c0 .2 0 .3-.1.5-.1.1-.1.3-.2.4 1.1.4 2.1 1.1 3.1 1.7.3.2.6.4 1 .6.1 0 .2.1.3.1.6.3 1.4.8 1.5 1.5 0 .4-.2.8-.4 1.1-.1.1-.2.3-.2.4v.7c0 .1 0 .2.1.4.1.6.3.7.8 1.1.2.1.4.3.6.4.3.3.5.6.6.9.1.3.3.6.4.6 1 .1 2.2 0 3.2-.2.3-.1.5-.1.7-.2.7-.2 1.4-.4 2.4-.2.4.1.8.1 1.3.2.6.1 1.3.1 1.8.3 1 .4 1.8.6 2.8.9.9.2 1.3.7 1.7 1.2l.6.6c.1.1.3.2.4.3.3.2.6.4.9.8.2.2.2.5.1.7-.1.4-.5.5-.8.6-.1 0-.2 0-.2.1.1.3.4.7.5.8.4 0 .8.1 1.2.2.6.1 1.2.2 1.8.2.2 0 .4.1.5.1.6-.3 1.2.1 1.6.3l.1.1-.4 1.1c-.6-.1-1.3-.1-2.1-.1-1.8.1-3.8.1-5-1.4l.3-.4c0-.1-.1-.1-.1-.2-.1-.1-.1-.3-.2-.4-.2-.5-.4-.9-.6-1.3-.3-.5-.6-.6-1.2-.8-.2-.1-.4-.1-.6-.2-.5-.2-.8-.5-1.2-.8-.3-.3-.7-.5-.9-.6-.8-.2-1.9.1-2.9.3-.3.1-.5.1-.8.2-.1 0-.3.1-.5.1s-.6.1-.8.1c.1.3.1.4.2.6.1.2.1.3.4.4 1 .5 2.6 1.6 2.6 2.9 0 .4-.2 1-1.1 1.4-.4.2-.4.3-.4.8 0 .3.1.7 0 1.2-.2 1-1.1 1.3-1.8 1.5-.3.1-.6.2-.7.3-.3.2-.7.3-.9.4h-.1v.1c.1.3 0 .6-.2.9-.3.4-.8.7-1.3.7s-.9-.1-1.3-.3c-.2-.1-.4-.2-.6-.2-.6-.1-1.3-.1-1.9-.1h-1.6c-.7-.1-1.3-.2-1.9-.3l-1.5-.3c-.8-.1-1.4-.5-1.8-.9-.3-.2-.5-.4-.8-.5l-.1-1.1c.8-.3 1.6-.2 2.3-.1.3 0 .5.1.8.1.5 0 .9.2 1.2.3.4.2.7.3 1 .2.2 0 .3-.1.5-.2.4-.2.8-.4 1.3-.5.3-.1.6-.2.9-.2.2 0 .7-.2 1-.3l-.1-.6c.1 0 .2-.1.3-.1l.1-.4c.2-.1.3-.3.5-.6.2-.4.4-.9 1-1.2v-.2c-.1-.3-.1-.5-.2-.6-.5-.5-.5-.9-.2-1.5.1-.2.2-.4.3-.5-.2-.1-.4-.2-.7-.3-.2 0-.3-.1-.5-.1-.1 0-.2-.1-.3-.1-1.8-.6-3-1.1-3.4-1.9-.1-.3-.1-.6 0-.9-.1-.2-.3-.4-.3-.7 0-.1-.1-.1-.1-.2-.2-.3-.5-.6-.5-1.3 0-.2-.4-.5-.7-.7-.4-.4-.9-.7-1-1.2-.1-.5.1-.8.3-1-.2-.3-.3-.5-.3-.7 0-.1 0-.2-.1-.3-.3-.8-1.2-1.1-2.2-1.4-1-.3-2.1-.6-2.7-1.6l.3-.9c.1 0 .3-.1.4-.1.1 0 .1 0 .2-.1-.1-.3-.2-.6.1-1 .1-.1.2-.6.2-1.2 0-.7-1.3-1.7-2.2-1.8h-.8c-.4 0-.9 0-1.4-.2-.7-.3-1.5-.2-2.2-.2-.4 0-.8.1-1.2.1-1.1.1-2.3.2-3.5 0v-.2h-.2c-.2.1-.3.4-.4.8 0 .3.1.8.2 1.2.2 1 .5 2.1-.2 2.9-.7.9-2 1.4-2.9 1.6-.2 0-.5.4-.5.5 0 0 0-.1-.1-.2s-.2-.1-.2-.1l.5 1v-.1c0-.1-.1-.2-.1-.2.1.1.5.1.6.1 1.5-.4 1.9.7 2 1.3 0 .2.1.3.2.5.1.1.1.3.1.5 0 .1 0 .2.1.3h.1c.2.1.5.3.8.6.3.4.1.8 0 .9-.2.3-.6.4-.9.5 0 .1.1.2.1.3.6-.3 1.3 0 2 .2.2.1.3.1.4.2h.1c.3.1 1 .3 1.2.1l.9.1c.2.3.3.5.4.8.1.3.1.4.3.5.3.2.6.4.9.5l.3.2c.1.1.2.1.3.2.3.2.6.4.9.4.1 0 .2 0 .3-.1.3-.1.9-.2 1.4.2l-.3 1.1.2-.2c.1-.2 0-.3 0-.4.2.3.4.8.2 1.4 0 .1-.1.2-.1.3-.1.1-.2.4-.2.5.3.7.1 1-.1 1.2-.5.5-1.3.1-2.7-.7l-.1-.1c-.8-.2-1.6-.6-2.4-1-.9-.4-1.8-.9-2.6-1-.7-.1-1.4-.2-2-.4l-.3-.1c-1.4-.3-1.9-.5-2.1-.8-.4-.1-1.2-.3-1.5-.3-.2.3-.5.5-.9.4-.4-.1-.8-.5-.8-.9-.6-.2-1.1-.3-1.7-.5-.9-.3-1.7-.5-2.5-.7-1.5-.3-3.2-.4-4.8-.4h-.2c-.9 0-2-.1-3-.3h-.1c-.4-.1-.7-.2-.9-.1 0 .1-.1.2-.1.2l-.5.4c.4.3.8.6 1.1 1 .1.1.1.1.3.1.3 0 .8 0 1.1.6.3.6.4 1.1.2 1.5-.4.8-1.4.9-2.3 1 0 .1.1.1.1.2.1.2.1.5 0 .7-.4.9-1.6.6-2.2.5h-.2c-.8-.1-1.7-.8-1.7-1.5 0-.1 0-.3.1-.5-.3-.2-.6-.3-.8-.5h-.1c-.6 0-1 0-1.4.3l-.4.6-.1-.1c-.2-.1-.4-.2-.5-.2l-.1.1c-.3.3-.7.4-1.1.4-.1 0-.2.1-.3.2-.2.1-.4.3-.7.4-.6.2-1.2 0-1.6-.1-1.1-.3-3.9-.4-4.8.5-.2.2-.2.3-.2.6l-.4.7c-.6.3-1.1-.1-1.4-.3l-.1-.1c-.3.2-.8.5-1.3.2-.7.3-1.7.3-3 0l-.9-.4c0-1.1 1-1.2 1.5-1.2-.2-.3-.4-.6-.4-1-.2 0-.3-.1-.5-.1v-.1c-.8.2-1.6.4-2.2.7.2.1.4.3.5.4l-.3 1s-.1.1-.3.1c-.5.3-1 .5-1.5.4-.2-.1-.4-.2-.5-.4-.1-.2-.1-.4-.1-.5-.3 0-.8.1-1.1.4-.5.3-1.2.3-1.7.3h-.5c-.5 0-1 .4-1.5.7-.4.3-.9.6-1.4.7-.4.1-.7.2-1 .3-.3.1-.6.2-1 .3.1 0 .1.1.2.1l-.7 1c-.4-.2-1.8-.3-2.1-.1-.2.2-.5.2-.7.3 0 .4-.1.7-.2.9 0 .1-.1.2-.1.3 0 0 .1.1.1.2.4.7.2 1.3-.4 1.6-.3.2-.8.2-1.3.2h-.5c-.2 0-.4 0-.6.1-.4 0-.9.1-1.2.3l-.3-.3h-.5c-.7 0-1.5.1-2.2-.4-.3-.2-.5-.5-.7-.7-.2-.2-.4-.4-.6-.5-.2-.1-.4-.1-.6-.1-.5-.1-1.1-.1-1.6-.7-.4-.5-.4-.9-.3-1.1.1-.4.5-.7 1-.9l.3-.6c.8-.3 1.7-.3 2.5-.3h1c-.3-.2-.6-.4-1-.6-.3-.2-.6-.3-.9-.5-1-.6-1.5-1-2.7-1.1-.5 0-1.1 0-1.6.1-.4 0-.7.1-1.1.1.3.3.3.7.3.9v.2c0-.1-.1-.1-.1-.1v1.2s.1-.1.1-.2c0-.2 0-.3-.1-.4l.1.1-.3 1.1.1-.1c.1-.2.1-.3 0-.4.1.2.2.4.2.8s-.2.8-.3 1.2v.1c0 .1-.1.3-.2.5.2.1.4.1.7.2.6.1 1.2.3 1.8.9.3.3.4.6.4.9 0 .1.1.3.1.3v1.2c-.2.1-.4.2-.5.5-.2.6.2 1.6.5 2.1l-.9.9c-.3-.2-.4-.4-.6-.7-.3-.3-.4-.5-.7-.6h-.5l.1-.1-.8.6c-.3-.1-.5-.2-.7-.4v-.9c.1-.1.2-.1.2-.2-.2-.1-.6-.1-1-.2h-.3c-.8 0-1.2-.1-2.1-.3-.4-.1-.7.1-1.3.7-.9.9-1.8 1.2-2.7 1.4-.5.1-.9.4-1.4.8-.2.2-.4.3-.7.5-.1.1-.3.2-.5.3-.2.1-.7.3-.8.5.1.2.8.6 1.1.8.3.2.6.4.7.5.9.8 1.5 1.6 1.9 2.5l-.7.8c-1.5-.4-1.9-.4-2.1-.4-.9.2-1.4.3-2.4-.1-.9-.4-1.8-.6-2.5-.5-.1 0-.3.1-.4.1-.3.2-.8.3-1.2.1-.3-.1-.5-.4-.5-.8l.1-.1c-.4-.2-.7-.4-1.1-.6-.4-.3-.8-.5-1.2-.6-.1 0-.3-.1-.4-.1-.2-.1-.6-.2-.7-.1v.1c-.2.4-.3.7-.6.8.3.3.7.5 1 .7.3.2.7.5 1 .7.1.1.3.2 1 0s1.2 0 1.6.2c.1.1.3.1.4.2l.3 1v-.1c0 .1.1.3.1.4.2.4.4.9.1 1.3-.3.5-1 .5-1.5.4 0 0-.1 0-.2.1-.3.1-.7.4-1.4.2l-1.2-.3c-.5-.1-.9-.2-1.4-.3-.5-.2-.9-.5-1.2-.8-.1-.1-.2-.2-.4-.3-.1.1-.2.1-.4.1-.3 0-.5-.3-.7-.4-.1-.1-.2-.2-.3-.2h-.1c-.1-.1-.2-.1-.5 0s-.8.2-1.3-.1l-.6-.3c-.3-.2-.7-.4-1-.5l-.3-1v-.4l-.3-.3-.2-.2-.4-1v.2c-.1-.1-.5-.4-.6-.5-.2-.1-.4-.3-.6-.4-.2-.2-.2-.4-.2-.6 0-.4.3-.6.6-.8.1-.1.3-.3.4-.3l.2-.4c-.2-.3-.8-.9-1-1-1.2-.7-2.8-.9-4.1-1l-.1-.7c-.5 0-1-.1-1.4-.2v-.3c-.1 0-.3 0-.4-.1l.1-.5c-.2 0-.4-.1-.6-.1l.1-.2c-.2-.1-.9-.4-1.1-.4l-.3-.7c-.3-.1-.5-.2-.8-.2-.4-.1-.7-.1-1.1-.3l.3-1.2h.6c.4-.1.8-.1 1.3.1s1.1.3 1.7.3v1.2s.1-.1.2-.3c.1-.2 0-.4 0-.4.2.2 1.3.8 1.6.9h.4c.4 0 .8-.1 1.2.2.1.1.2.1.2.1l.1-.1 1.1.5c0-.1-.1-.2-.2-.2 0 0 .1 0 .2.1.3.1.6.2 1 .5h.2c.8-.1 1.3-.1 1.6.1 1.4.7 2.8 1 4.6 1.1 1.2.1 2.3.3 3.4.5.8.2 1.7.4 2.6.4 1.7.2 3.2-.1 4.9-.5 1.4-.3 2.3-.8 3.5-1.9.5-.5.9-1.1.8-1.3 0-.1-.1-.1-.3-.2-.4-.1-.8-.7-1.2-1.7-.1-.3-.1-.3-.3-.3-.1 0-.3-.1-.5-.2s-.4-.2-.7-.2c-.4-.1-1-.2-1.4-.6-.3-.3-.6-.5-1-.7l-.1.2c-1.4.2-2.9-.5-4-1.1-1-.2-1.8-.6-2.6-1.1-.6-.3-1.2-.7-1.8-.8l-.7-.2c-1.5-.5-3.1-.9-4.6-1.5-.8-.3-1.6-.3-2.4-.3-.6 0-1.2 0-1.8-.1-.3 0-.6-.1-.8-.2-.4-.1-.7-.2-1-.2h-.6c-.3 0-.5.1-.8 0-.1.2-.3.4-.5.5-.1.1-.3.2-.5.2-.3.1-.5.2-.5.4h-1.1c-.2-.4-.1-.7 0-.9.2-.3.4-.5.7-.6v-.2c-.2.1-.4.2-.5.2l-.3-.3c-.2 0-.5-.1-.7-.1-.2 0-.4-.1-.6-.1-.1 0-.1 0-.3.1h-.1l-.1-.4-.1.2c-.3-.2-.6-.3-1-.4-.2-.1-.4-.1-.6-.2l-.3-.8c-.2.3-.5.5-.7.6-.4.2-.7.2-.9 0 .2-.4-.1-.5-.3-.5zm294.1 81.4c.2 0 .4-.1.6-.2.3-.1.7-.2 1.1-.2.8.1 1.5-.8 1.6-1.6.1-.7.4-1.4 1.4-1.9.2-.1.5-.2.5-.3 0-.3.1-.5.2-.7-.1-.1-.2-.3-.3-.5-.1-.8.8-1.7.8-1.7.4-.3.6-.7.8-1.1.2-.4.4-.9.9-1.4.3-.4.3-.8.1-1.5-.1-.5-.2-1-.1-1.5.2-1.1.2-2.7-.2-3.6 0-.1-.1-.2-.2-.3-.3-.3-.8-1.1-.3-1.8l.1-.1c.2-.3.5-.8 1.1-.8.5-.1 1.3.2 1.5.4.4.4.7 1 .8 1.5.5 1.3.9 2.4 1.4 3.3.2.3.2.7.3 1 .1.3.1.5.2.7.1.2.2.3.4.5s.4.4.5.6c.3.6.2 1.1.1 1.5-.1.5-.1.6 0 .7v.9l-.1.1c.1.2.2.4.2.7.1 1-.8 1.2-1.2 1.3-.1 0-.3.1-.4.1.3 1.9-1.2 2.3-2.1 2.6-.6.2-1.2.4-1.4.8v.1c0 .2-.1.6-.4.8-.2.1-.5.2-.8.1-.1 0-.3-.1-.4-.1-.1 0-.2-.1-.3-.1 0 .1.1.3.1.4.1.2.2.4.2.6.2 2-1.6 2.4-2.7 2.7-.3.1-.7.2-.9.3-.6.3-1.2.4-1.8.4-1.4 0-2.9-.6-4-1.1l-.1-1c.9-.5 1.8-.6 2.8-.6zm-276.8-52.4c.3-.3.7-.2 1.1 0 .1.1.3.1.3.2.1 0 .3.1.4.2.1 0 .1.1.2.1 0 0 1.3.3 1.8.7h.4c.2 0 .4.1.5.2.1 0 .1.1.2.1 0 0 .2 0 .4.1.1 0 .1.1.2.1.2 0 .4.1.6.2.2.1.3.3.3.4l.1.1c.3.3.2.7.1 1.4v.8l-.1.1c0 .1-.1.1-.1.2l.2.2.1.2c0 .1.1.1.2.2 0 0 .1.1.2.1s.2.1.3.1c.4.2.8.6 1 .9l.1.1c.1.1.1.2.2.3.2.1.4.3.5.5.1.2.2.9 0 1.2 0 .2-.1.5-.5.7h-.1c-.1.1-.4.3-.4.4v.1c-.1.1-.2.4-.5.5-.3.2-.5.2-.9.2h-.7c-.2 0-.4 0-.6-.2-.2-.1-.3-.1-.5-.3-.3-.3-.3-1 0-1.3.1-.1.3-.2.4-.2v-.1c-.1-.1-.3-.2-.4-.4l-.1-.2c-.1-.1-.2-.3-.3-.4h-.4c-.3 0-.5 0-.7-.1h-.3c-.1 0-.2 0-.3-.1h-.1c-.1 0-.3 0-.4-.1-.3-.1-.4-.3-.6-.4-.1 0-.1-.1-.2-.1s-.1-.1-.2-.1-.2-.1-.3-.2l-.2-.3v-.1c-.1-.2-.1-.3-.1-.5 0-.1-.1-.2-.1-.3-.1-.1-.1-.2-.2-.3-.1-.1-.2-.3-.2-.4-.2-.3-.2-.5-.1-.6l.2-.4h.3c0-.3 0-.7.2-.8l.2-.2h.4l-.3-.3c-.2 0-.3-.1-.5-.3-.3-.3-.6-.6-.7-1.1-.3-.2-.3-.5 0-.8zm-9.6 5.9c.2.2.4.3.5.4.2.1.4.3.5.5.1 0 .2.1.2.2.1.1.5.3.6.3.3.1.5.2.7.3h.3c.3 0 .5 0 .7.1.2 0 .4 0 .6.2.2 0 .4.1.5.4 0 0 .1.2.2.3 0 .1.2.3.2.4.2.1.6.3.7.4l.1.1c.1 0 .1 0 .2.1.2.1.7.4.9.7.2.3.6 1.1.1 1.6 0 .1-.1.2-.3.3-.1 0-.2.1-.3.1v.1c0 .2 0 .4-.1.6 0 .1-.1.2-.1.3-.2.4-.3.9-.7 1.1-.3.2-.7.2-1.1.1h-.4c-.4-.1-.7-.4-.9-.7h-.4c0 .1-.1.1-.1.2s0 .2-.1.3l-.3.3c0 .1-.1.2-.2.2-.2.2-.6.5-1.2.5-.4 0-.6-.1-.7-.2 0 0-.3-.3-.4-.6-.1-.1-.1-.2-.1-.4 0-.1 0-.2-.1-.3l-.1-.1c-.1-.1-.2-.3-.3-.5-.1-.1-.1-.2-.1-.5 0-.1-.1-.2-.1-.3l-.1-.1c-.1 0-.3 0-.4-.1 0 0-.1 0-.1-.1-.1-.1-.3-.1-.5-.3-.4-.4-.4-.7-.5-1.1v-.2s0-.1-.1-.1l-.1-.2v-.1s0-.1-.1-.1-.2-.1-.3-.1c-.3-.1-.5-.2-.6-.3-.3 0-.8-.2-1-.6-.2-.3-.2-.6 0-.9 0-.1 0-.2.1-.4 0-.1.1-.2.2-.3.2-.2.5-.3.8-.4.1 0 .2-.1.3-.1l.3-.3.1-.1c.1-.1.1-.2.2-.3.1-.1.2-.3.3-.4 0-.4.2-.5.4-.6.3-.2.6 0 1.1.1h.1s.2 0 .4.1c.5.3.5.4.6.5z"/>
        <path class="st4" d="M1004.3 185.2v-.2h-.1l-.1.6c.1-.1.2-.2.2-.4zM853.1 201.3l-.6-.2c-.2-.1-.5-.2-.8-.4-.5-.2-1-.5-1.4-.5-.1 0-.2.1-.2.1v.3c.1.1.3.2.4.3.2.1.3.2.5.2h.4c.3 0 .9.1 1.6.3.3.1.6.3.8.4.2.2.3.2.5.3h.9c-.6-.3-1.3-.5-2.1-.8zM802.6 215.5l.1.1c0-.1-.1-.3-.2-.4-.1-.1-.1-.1-.2-.1l.3.4zM851.9 202v-.2l-.3.5c.1 0 .2-.1.3-.3zM872.1 204.7c0-.1 0-.1-.1-.1v.4c.1 0 .2-.1.1-.3zM1064.1 266.6c.1 0 .1 0 0 0 .1 0 .1 0 0 0zM1270.1 239.4s.1-.1.1-.2v-.3l-.1.5zM1173.2 274.8c-.2 0-.5-.1-.8-.4 0 .1 0 .1.1.2.1.3.1.4.7.2zM1172.4 270.1h.2l-1.1-.5s0 .1.1.1c-.1-.1-.4-.1-.6-.1h-.1c0 .1 0 .2-.1.3.5 0 1 .4 1.3.6.1.1.4.3.4.3.2-.2 0-.6-.1-.7zM1198.7 283.8c.6.8 1.6 1.4 2.6 2 .9.5 1.8 1.1 2.6 1.8.6.6.9 1.3 1.1 2 .1.3.2.5.3.8.3.6.8 1 1.2 1.5.4.4.8.8 1.1 1.3 1.2 1.7 2.4 3.4 3.2 5.6.4 1.1 1.2 1.7 2 2.4.7.6 1.5 1.2 2.1 2.1.3.5.4 1 .5 1.5.1.4.1.8.3 1.1.2.3.5.6.8.9.5.5.9.9 1.2 1.6.2.4.3.9.4 1.3.1.5.2 1 .5 1.4.4.6.9 1.1 1.4 1.6-.1-.4-.2-.7-.3-1v-.2c-.1-.6.1-1.5.7-1.8.1-.1.4-.1.7 0-.2-.3-.5-.6-.7-1-.1-.1-.1-.2-.2-.3-.5-.6-1.2-1-1.9-1.5-.7-.4-1.4-.9-2-1.5-1-1.1-1.4-2.4-1.7-3.7-.2-.7-.4-1.5-.7-2.1 0-.1-.1-.2-.1-.3-.2-.4-.9-1.5.1-2.1l-.1-.5c.6-.5 1.8-.3 2.8 0l-.3-.3-1-1c-1.1-1.1-2.3-2.1-3.4-3.2-1.2-1.1-2.5-2.3-3.7-3.5-.5-.1-1.2-.9-1.2-.9-.2-.3-.3-.5-.6-.7-.6.1-1-.2-1.4-1-.2-.4-.3-.5-.8-.7-1.1-.5-2.3-2.4-2.6-3.5l.4-.2c-.3-.5-.9-.9-1.7-1.4-1-.6-2.2-1.3-2.5-2.6-.3-.2-.5-.4-.8-.6-.1-.1-.3-.2-.4-.3l.1.2c-.1.4-.5 1.2-1.2 1.3-.4 0-.7-.1-.8-.3.1.1.2.2.2.3l.2.2c.8.8 1.7 1.6 2.1 2.7.5 1 .8 1.7 1.5 2.6zM1213.7 250.3l.1-.5s-.1.1-.1.2v.3zM1199.8 248c-.1.1-.1.3 0 .3l.2-.5c-.1 0-.2.1-.2.2zM1206.7 250.6l.1-.4c-.3.2-.6.3-.9.4h.8zM1007.2 184c.1-.1.2-.2.2-.3-.7-.2-1.6-.2-2.4-.2h-.8v.1s0 .1-.1.1c.6.1 1.8.3 3.1.3-.1 0 0 0 0 0zM1211.2 246.8c0-.1.1-.2.1-.3l-.2.5s.1-.1.1-.2zM1120.7 193.6c0 .1 0 .1 0 0 0 .1 0 .1 0 0zM1212 203s.1-.1.1-.2v-.1l-.1.3zM1280.6 215.6c-.3-.1-.7-.3-1-.4.3.1.7.3.8.3 0 .1.1.1.2.1zM1100.2 195.1l-.4.1h.3l.1-.1zM1066.7 192.3c-.1 0-.1-.1-.1-.1-.4-.2-.7-.4-1.1-.4h-.9c.2.1.4.1.6.2.6.1 1 .3 1.5.3zM1068.2 192.3c0-.1-.1-.2-.1-.2l.1.4v-.2zM1260.3 208.5l-.1.4.2.1c0-.2-.1-.4-.1-.5zM1281.4 215.7s-.1.1-.1.2h.1v-.2zM1261.2 276.8l-.2-.2c-.2.2-.1.5-.1.6l.3-.4zM1246.3 245.6l.1.4c-.1-.2-.1-.3-.1-.4zM1270.2 238c0 .2.1.3.1.4v-.6c0-.1 0 0-.1.2zM1290 224v.3l.4-.7c-.1.1-.3.2-.4.4zM1271 226.3c0-.1-.1-.2-.1-.2v.3l.2.1c-.1 0-.1-.1-.1-.2zM1297.7 217.6c-.1.1-.1.1-.2.3v.4l.2-.7z"/>
    </g>
</svg>
