<svg xmlns="http://www.w3.org/2000/svg" viewBox="0 0 1440 980" style="enable-background:new 0 0 1440 980" xml:space="preserve">
    <style>
        .st0{display:none}.st1{display:inline}.st2{fill-rule:evenodd;clip-rule:evenodd;fill:none;stroke:#bcbcbc;stroke-width:.75;stroke-miterlimit:1.2402}.st4,.st5{fill:#bcbcbc}.st5{display:inline}
    </style>
    <g id="Layer_5">
        <path class="st4" d="M1062.9 485.6c-.1-.1-.1-.2-.1-.3-.1.1-.1.2-.2.3v.3l.3-.3zM1063.9 484.9l-.2.2.2.1c.1-.1.1-.2 0-.3zM1062.6 500.1l.2-.2.1-.2c-.1 0-.1.1-.2.2 0 .1-.1.1-.1.2zM1066.2 506.2l.1.4s0-.1.1-.2c-.1 0-.2-.1-.2-.2zM1066 506c-.1 0-.1.1-.2.2 0 .1-.1.1-.1.2l.3-.4c0 .1 0 .1 0 0zM1063.3 500.3v.1-.1c.1.1.1 0 .1 0h-.1zM1089.3 505.2c.1-.1.1-.2 0-.2v.2zM1085.3 484.4c.1 0 .1-.1.2-.2 0-.1.1-.2.1-.2l-.2.2-.1.2zM1093 509.3l.4-.3s-.1 0-.2.1l-.2.2zM1310.9 558.1c-.1 0-.2.1-.3.2-.1.1-.1.2-.1.3l.4-.2v-.3zM1350.6 582.5c.1.1.2.3.3.4 0-.1-.1-.1-.1-.2-.1-.3-.2-.5-.3-.6-.2-.2-.5-.4-.8-.6l.2.2c.3.3.5.6.7.8zM1317.9 570.6h-.2c0 .1.1.2.2.3.1.1.2.1.3.1l-.3-.4zM1324.1 589.9c-.1 0-.1 0 0 0zM1322.2 559.7c-.1-.1-.2-.2-.4-.2h-.1c.1.1.2.2.3.2h.2zM1352.3 590.5c.1 0 .3-.1.4-.1l-.3-.3c0 .2 0 .3-.1.4zM1352.4 588.2c0-.1 0-.1 0 0-.1-.1-.1 0-.1 0h.1zM1352.2 591.2c0 .1.1.2.2.3.1.1.2.1.3.1l-.3-.3-.2-.1zM1331.2 604.1c.1 0 .1.1.2.1v-.1h-.2zM1345.3 582.8h-.2c0 .1 0 .1.2 0-.1.1-.1.1 0 0 .1.1.1 0 .2 0h-.2zM1333 568.9v.6c0 .2.1.4.3.7.3-.6.6-1.5.6-1.7-.1-.2-.2-.4-.4-.5-.2-.2-.4-.5-.5-.8 0-.1-.1-.1-.1-.1h-.1c0 .1.1.2.1.3.2.5.2 1 .1 1.5zM1342.3 577.4c.1.2.2.3.3.5.1 0 .1.1.2.1.3.2.7.5.8 1.1v.5c0 .4.1.7.2.8.3.3 1.3.5 1.7.3.1 0 .1 0 .1-.1-.1-.5-.2-.8-.5-1.1-.1-.1-.1-.2-.2-.3-.1-.1-.2-.4-.3-.4-.1 0-.1 0-.2-.1-.3-.1-.7-.2-.9-.7-.4-.9-.9-1.8-1.7-2.4v.7c-.1.2.2.6.5 1.1zM1329 574.1v-.1s0-.1-.1-.2c-.4-.9-.7-1.6-.3-2.1.1-.1.4-.4.9-.3.3.1.5 0 .5-.1.3-.2.5-.8.5-1.6v-.5c-.2-.1-.4-.1-.5-.3-.3.2-.7.3-1 .3-.3 0-.5-.2-.7-.4-.1-.1-.3-.2-.3-.1.1.3.1.6.2.9.2.5.3 1.1.2 1.8-.2 1-1.1 1.1-1.6 1.2-.3 0-.6.1-.7.2-.3.2-.5.6-.6 1-.2.3-.3.7-.6 1-.3.4-.8.5-1.1.5h-.2c-.6.1-.8.1-1.2-.1-.1 0-.2-.1-.3-.1l-.2.2c-.3.2-1.1.7-1.7-.1l-.1-.1c-.9.6-3.2.7-3.2.7-.4 0-.7-.2-.9-.3-.1 0-.2-.1-.3-.1h-.3c-.2 0-.4.1-.7.1h-.4c-.4 0-.8.1-1.2-.1v.2c.1.1.2.1.4.2.2 0 .4.1.6.2.2.1.4.3.5.4.1.1.1.1.2.1h.2l.2.2.3.3.3.3c.3-.1.6-.2.9-.2.5 0 .9.2 1.3.6.1.1.2.3.3.4 0 .1.1.1.1.2h2.8c.4-.1.8-.3 1.2-.6.5-.4 1.1-.8 1.8-.7.3 0 .8-.3 1.2-.7.3-.4.5-.8.5-1.1l.7-.7c2.1-.1 2.4-.4 2.4-.4zM1388 537.1h-.2s.2.1.2 0zM1353.9 584.2v-.1h-.1l.1.1zM1359 592.6c0-.1 0 0 0 0zM1359.7 592.9c.1-.1.1-.3.1-.3l-.2.1v.3c-.1 0 0 0 .1-.1zM1360.5 587.8c.3.2.7.5 1.1.7h.1c-.4-.4-.9-.7-1.2-.7zM1353.1 584.8zM1370.8 600.8c.3.1.6.1.9.2-.2-.3-.5-.4-1.1-.8l-.2-.1c-.1 0-.2-.1-.3-.2-.1-.1-.2-.1-.3-.2.3.4.5.7 1 1.1zM1363.9 592.8zM1365.9 596.5s0-.1-.2-.4c-.3-.5-.9-.9-1.2-.9h-.6c-.6.1-1.5.1-2-.7l-.1-.1s-.1.1 0 .4c.2.5.9 1 1.2 1.1h.7c.4 0 .9 0 1.5.3.3.3.6.3.7.3zM1367.2 590.7c0-.1.1-.1.1-.1-.1-.1-.1-.2-.2-.3 0 .1.1.2.1.4zM1368.3 593.4c-.1-.2-.1-.4-.2-.6-.2-.4-.4-.8-.6-.9-.1 0-.1-.1-.2-.1.1.3.1.6.3.9.2.3.5.5.7.7zM1141.4 586.7c1.1.4 2.1.9 3.1 1.1.3.1.6.1.9.1.6 0 1.2.1 1.7.3.3.1.5.1.9.1.3 0 .6-.1.9 0 .5 0 1 .2 1.5.3 1.1.3 2.1.5 2.9 0 .4-.2.7-.3 1.1-.3.9 0 1.7.6 2.3 1 .3.2.5.4.7.5.1 0 .6.1.9.1.4.1.7.1.9.1-.3-.8 0-1.6.2-2.2.1-.3.2-.7.2-1 0-.1 0-.1-.6-.3h-.2c-.4-.1-.5-.1-.8 0-.3 0-.6.1-1 .1-.2 0-.6 0-.9.1-.6.1-1.2.3-1.8 0-.1 0-.2-.1-.3-.1-.8-.4-1.6-.7-1.8-1.2-.1-.3-.1-.7 0-1.1 0-.1.1-.3.1-.5l-.5-.3c0-.2 0-.4-.1-.6 0-.1-.1-.2-.1-.3h-1.6c-.4 0-.7-.2-1-.5h-.3c-.2 0-.5 0-.9-.2-.2-.1-.3-.3-.5-.5 0 0 0-.1-.1-.1-.3.2-.7.3-1.1.3-.5 0-1-.3-1.2-.8-.3-.6-.6-.7-.6-.7s-.3.2-.5.8l-.1.2c-.2.6-.8 2.2-2.1 1.7-.2-.1-.4-.2-.5-.2-.2-.1-.2-.1-.3-.1h-.3c-.3 0-.7.1-1.1 0-.7-.2-1-.1-1.6-.1h-.2c-.3 0-.7-.1-1-.2-.1-.1-.4-.2-.5-.2-.4.3-.9.3-1.4.2-.8-.3-1.2-1.2-1.6-1.9-.1-.3-.2-.5-.4-.7-.1.1-.3.1-.5.1-.4 0-.8-.2-1.1-.4-.1-.1-.3-.2-.4-.2-.9.4-1.5-.3-1.9-.7l-.2-.2c-.2-.2-.4-.2-.7-.3-.1 0-.2-.1-.4-.1-.2.4-.5.7-.9.8-.2.1-.7.1-1.1-.4-.3-.2-1.6-.4-1.9-.3l-.5-.3c-.2.2-.5.6-.5.8 0 .1 0 .2-.1.4-.1.7-.2 1.5-.9 1.7h-.3c-.1.2-.1.3-.2.5.8 0 1.6 0 2.4.5.1.1.3.1.6.2.2.1.5.1.7.2.4.2.5.5.6.7.1.5-.2.8-.4 1.1-.1.1-.2.2-.2.3.2.1 1.1.3 2.7.3.4 0 .7 0 .9.1.8.1 1.5.5 2.1.8.5.3 1 .5 1.6.7.2.1.7.2.9.1 0 0 .1 0 .1-.1.2-.3.5-.5 1.1-.5 1.4 0 3 .2 4.8.8.9-.1 1.6.2 2.4.5zM1123.3 577.3l-.1-.1c0 .1 0 .1.1.1-.1 0-.1 0 0 0zM1191 600h-.1l.1.2v-.2c.1 0 0 0 0 0zM1121.7 579.1c-.1 0-.2 0-.3.1l.3-.1zM1186.9 597c-.4-.5-.6-.7-1-.7l-.3-.4-.2.2c-.1-.1-.8-.9-1-1.2h-1.5c-.5.3-1 .2-1.4.2-.4 0-.7 0-.9.2.2.3.6.3 1.3.4h.3c1.4.2 2.4 1.4 3.1 2.2.4.5 1.1.4 1.2.4.4-.1.7-.3.7-.5.1-.3-.1-.5-.3-.8zM1168.6 591.2c.1-.6.5-1.2.8-1.7.1-.1.1-.2.2-.3-.1-.1-.6-.4-.8-.3-.5.2-.9.6-.9 1s0 .8-.2 1.2c.4.1.7.1.9.1zM1171.3 592.3c.2.1.2 0 .3 0 .4-.3.7-.4 1.1-.3h.3c.2 0 .5-.1.8-.3.3-.1.6-.3.9-.4-.3-.2-.4-.5-.5-.7 0-.1-.1-.2-.2-.3-.2-.3-.7-.4-.9-.4-.8-.1-1.6.3-2 .6v.4c0 .3 0 .7-.3 1.1.1.1.3.2.5.3zM1175.5 590.4c.2 0 .3-.1.4-.1-.3-.1-.5-.3-.8-.5.1.1.1.2.1.3.1.1.2.3.3.3zM1162.1 589.1c.5.3 1 .5 1.3 1 .3-.3.4-.4.5-.4.7-.2.9-.4 1-.5-.5-.5-1.2-1-1.6-.8-.6.3-1.3.5-1.9.4.1.1.2.1.3.2l.4.1z"/>
        <path class="st4" d="m1152.8 583.9-.3-.2c0 .1.1.1.2.2h.1zM1119.4 579.7s-.1 0-.2.1-.2.3-.2.3l.2-.1.2-.3zM1153.9 582.9l1.1-.3c.3.3.6.3 1.4 0l.3-.1c.2-.1.5-.2.8-.2v-.1h-.3c-.6.1-1.1 0-1.6 0-.6 0-1.1-.1-1.6 0h-.2c-.1 0-.3.1-.4.2.2.1.5.2.6.2 0 .2-.1.3-.1.3zM1176.8 589.4c-.3-.2-.5-.5-.6-.8-.1-.1-.1-.2-.2-.2s-.4 0-.5.1c.3.4.8.6 1.3.9zM1283.3 600.9v.1-.1zM1282.7 601l-.1-.1c0 .1 0 .1.1.1zM1238.6 604.3zM1086.6 541.4c-.4-.5-1-1.4-1.4-1.6l-.1.1s-.1.1-.2.1c.1.1.2.3.3.4.2.3.4.5.5.8 0 .1.2.2.3.3.2.1.4.3.6.6l.3.6c.1-.4.1-.8 0-1l-.3-.3zM1129.6 561.1h.2l.1-.2s-.1 0-.2.1l-.1.1zM1133.3 528.3h.2c.1 0 .1-.1.2-.1h-.2l-.2.1zM1115 532.5l.2-.2v-.2c-.1 0-.1.1-.2.2.1.1 0 .1 0 .2zM1133.4 526.7c-.1-.1-.1-.2-.2-.2v.3c.1 0 .2.1.3.1-.1-.1-.1-.2-.1-.2zM1122 531.9c0 .1.1.1.1.1l-.1-.1c0-.1 0-.1 0 0zM1133 560.6c-.3-.3-.9-.4-1.3-.4-.3.4-.4 1.2-.3 1.7 0 .1.1.2.1.2l.3-.4c.4 0 .6.3.9.5l.1.1c.3-.4.5-1 .5-1.4-.1 0-.1-.1-.3-.3zM1131.1 562.5l.2-.3s-.1 0-.1.1-.1.2-.1.2zM1177.5 590.1h.7c.2.3.1.6.1.9h.1c.1-.1.3-.1.4-.1v-.2c.5-.3.9-.3 1.3-.2-.1-.2-.1-.4-.1-.6v-.3c-.1.1-.1.2-.1.3l-1.2.1c-.1-.3-.2-.5-.3-.7-.3.3-.6.4-.8.4h-.1c.1 0 .2.1.2.1l-.2.3zM1231.3 556.4v.6l.2-.6c.2.1.5.1.7.2h.2c0-.2.1-.3.1-.4.1-.1.1-.2.1-.2-.3 0-.8.3-1.1.4-.1-.1-.2-.1-.2 0zM1230.2 552.7l.2-.1.2-.3s-.1 0-.2.1c-.1.2-.2.3-.2.3zM1253.6 552s-.1-.1-.2-.1v.2c.1 0 .2-.1.2-.1zM1206.8 588.8h-.6c-.2 0-.4-.1-.6-.1-.1 0-.2-.1-.3-.1h-.1l.2.4c.5-.1 1-.1 1.4-.2zM1119.1 575.2s.1-.3.1-.8l1-.5c.3.2.5.5.7.8.2.3.5.6.8.8 0-.2.1-.5.1-1v-.1c0-.7.1-1.3.2-1.9 0-.5.1-.9.1-1.4 0-.2.1-.5.1-.7.1-.3.2-.8.1-.9-.2-.5-.4-.9-.2-1.6.1-.2.1-.4.2-.6.1-.4.3-.8.3-1l-.1-.1c-.2-.2-.5-.5-.4-1.2.1-.5.4-1 .6-1.4l.3-.5c.2-.3.2-.4.2-.6-.2-.1-.5-.1-.7-.4-.4-.4-1-1.6-1.1-2.6-1.2-.3-1.9-.3-2.1-.3l.2-.2h-.5c-.1.1-.1.3-.2.4-.2.5-.5 1.1-1.2 1.5l-.8-.9c0-.1.1-.1.2-.2s.4-.5.4-.7c0 .1 0 .1.1.2 0-.1.1-.1.1-.2l-.2-.9c.4-.1.7-.4.8-.7-.2 0-.4-.1-.6-.2-.5-.3-.7-.9-.9-1.8l-.1-.5c-.2-.8-.4-1.6-.5-2.4-.3-.2-1.3-.2-1.7-.2-.6.1-1.2-.3-1.9-1l-.2-.2c-.5-.4-.6-1.1-.6-1.6 0-.2 0-.5-.1-.6l.4-.2v-.5l-.3-1c.2-.1.4-.3.6-.5l.3-.3c.3-.2.6-.3.9-.4h.1c-.1-.2-.3-.4-.7-.9l-.1-.1c-.5-.5-.7-.6-1.4-.1-.8.6-2.8 2-3.9.6l.8-.9c.3.2.9.1 1.4-.3.4-.3.5-.6.5-.7 0-.1-.2-.2-.6-.3h-.4c-.3 0-.6 0-1-.1-.4-.2-.7-.5-.9-.8-.1-.1-.2-.3-.3-.3-.6-.4-.7-1.1-.8-1.6-.1-.5-.2-.8-.4-1-.1-.1-.3-.2-.4-.4-.2-.2-.4-.3-.5-.4h-.3c-.3 0-.6 0-.9-.2-.6-.3-.8-1-1-1.5-.1-.3-.2-.5-.3-.7-.2-.2-.6-.6-1-.8l.3.6c.2.3.3.7.4 1l-1 .5c-.2-.2-.4-.5-.5-.7-.1-.1-.1-.2-.2-.3-.1-.2-.3-.3-.6-.4-.3-.1-.6-.3-.8-.5-.5-.4-.7-1-.9-1.5l-.3-.6-.6.3-.1-.1c-.1-.2-.2-.3-.2-.4l-.2.1c-.4-.4-.3-.9-.3-1.3v-.3c-.5-.3-.8-.7-1.1-1-.3-.3-.5-.5-.8-.7-.3-.2-.6-.5-.9-.8-.4-.4-.8-.8-1.2-.9-.1-.1-.3-.1-.4-.1-.2-.1-.4-.1-.5-.2-.5-.2-.7-.6-.8-.9-.1-.1-.1-.2-.2-.3-.1-.1-.4-.2-.6-.3-.3-.1-.7-.3-1-.6-.5-.5-.4-1.1-.4-1.5v-.4l-.3-.2c-.6-.5-.8-.7-1.1-1.6-.2-.5-1.2-1.4-1.7-1.9-.4.2-.9.4-1.4.3-.3-.1-.5-.3-.7-.4-.1-.1-.2-.1-.2-.1-.3 0-.6.1-1 .2s-.9.2-1.5.2c-1.2-.1-2-.5-2.7-1.4-.4-.5-1.5-1-1.8-.7-.2.2-.4.4-.4.6-.1 1.5 2.7 4.3 4.2 5.8.6.6 1.1 1.1 1.4 1.5.2.3.4.3.9.4h.2c1.1.2 1.6 1.1 1.9 1.8.1.2.2.3.3.5.1.1.2.3.3.4.2.4.9 1.5 1.2 1.6 1.1.5 1.1 1.4 1.2 2 0 .3 0 .5.1.8.1.2.2.3.7.4.3.1.7.2 1 .4.3.2.6.4.8.6l.5.3c.5.4 1.1.8 1.6 1.3.6.6.5 1 .4 1.4 0 .1-.1.2 0 .3.1.4.3.8.4 1.3.2.4.3.9.4 1.4l.3.9c.3.7.6 1.4.5 2.2.3 0 .7 0 1 .4.2.2.4.3.6.5.5.3 1.1.6 1.3 1.7.1.7.6 1.3 1.2 1.9.7.7 1.3 1.5 1.6 2.5.1.2 0 .4-.1.6.2.3.4.6.6 1 .1.2.3.5.5.8.5.8 1 1.7 1.1 2.6v.2c0 .8 0 1.3.5 1.9.2.2.4.5.6.7.3.3.7.7 1 1.2.1.2.3.5.4.7.3.6.5 1.1.9 1.5.2.2.5.4.7.5.6.4 1.3.9 1.6 1.7.1.3.2.6.3.8.2.5.3.7.7 1.1.5.5 1.1.9 1.6 1.4.3.3.6.6.9.8.7.7 1.3 1.2 2.1 1.6.9.5 1.2.9 1.5 1.6l.1.2c.2.4.5.7.7 1.1.2.2.4.4.7.6l.2.2c0-.4.3-.6.4-.6.6-.3 1.3.2 1.9.7.1.7.4.8.5.7zM1185.9 590.8h.6c.6-.1 1.5.1 1.9.2.3.1.5.2.7.3.1.1.2.1.2.1.3-.1.6-.1.8-.1h.3c-.1 0-.2.2-.2.2l.8-.7c.9.4 1.3.2 2.2-.1l.4-.2h.1l-.3-.3s-.2.1-.3.1c-.3.1-.6.2-1 .2l-.1.1c-.6.6-1.5 0-1.8-.3-.6-.4-1.4-.7-2.6-1-.9-.2-1.2 0-1.9.4l-.6.3c-.1.1-.2.1-.3.1-.3.1-.3.1-.3.4v.2c.5 0 1 .1 1.4.1z"/>
        <path class="st4" d="M1089.9 538.3c0 .1.1.3.3.4.1.1.2.1.3.1l-.3-.4v-.1l.4.1-.7-.1zM1180.8 589.9l.4.2s-.1-.1-.3-.2h-.1zM1180.6 588.2v-.2s-.1 0-.1.1v.2l.1-.1zM1181.2 588.4l-.1.1c.1 0 .1 0 .1-.1zM1112.4 541.2s0-.1-.1-.2-.2-.1-.2-.1l.1.2.2.1zM1108.6 542c0 .1 0 .1 0 0 .1.1.2.1.3.1-.2 0-.2 0-.3-.1zM1123.4 557.9c0 .2.1.4.2.5.1.3.3.6.3.8.1.4 0 .6 0 .9 0 .3 0 .3.3.5.1.1.3.2.5.3.2.1.6.4 1 .6-.1-.4 0-.8.2-1.2 0-.1.1-.1.1-.2-.4-.1-.9-.2-1.3-.5-.8-.7-1-2.1-.9-2.8 0-.3-.2-1.4-.4-1.6-.1-.1-.2-.1-.2-.1-.1.2 0 .3.1.4l-.4 1c-.4 0-.6-.2-1-.5-.1-.1-.2-.2-.4-.3v.4c-.1.4-.4.7-.7.9h.4c.1-.1.3-.1.5-.1.3 0 .6.1.8.2.5.1.8.4.9.8zM1074.9 517.5l-.1-.4v.4h.1zM1127.5 561.4s-.1-.1-.2-.1h-.1l.1.1h.2zM1103.9 537.4c0-.1.1-.2.1-.3 0-.1.1-.2.1-.2-.1-.1-.2-.1-.2-.1s-.1 0-.1.1 0 .2.1.4c-.1 0 0 0 0 .1zM1091.5 552.1h-.1c-.2.2-.2.7-.1.9.2.3.3.5.5.9.3.6.6 1.2 1.1 1.3.1-.3-.6-1.6-.9-2.1-.2-.4-.4-.7-.5-1zM1268.1 587.8c.3-.3 1.3-1.7 1.5-2.2-.8-1-1.2-1-2.6-.5-1.2.5-1.8 2-2.4 3.4 0 0 0 .1-.1.1H1266.2c.5 0 .8-.2 1.3-.5l.6-.3zM1295 585h.4-.3c0-.1-.1-.1-.1 0z"/>
        <path class="st4" d="M1319.6 600.1c-.1 0-.1 0-.2-.1l-.5-.7c0-.2.1-.4.2-.5-.1 0-.1-.1-.2-.1-.2-.1-.4-.2-.6-.2-.3-.1-.7-.2-1-.5-.3-.2-.5-.5-.6-.8-.1-.1-.1-.2-.2-.3l.1-.9c-.8-.1-1.6-.2-2-.9-.4-.7-.1-1.5.1-2.1-.1 0-.3 0-.5.1-.6.2-1.4.5-2.1.1-.4-.2-.7-.6-.8-1.2v-.9c-.3-.2-.7-.4-.9-1-.2-.6-.3-1.4-.3-2.1-.8-.2-1.6-1-1.8-1.3-.2-.3-.5-.6-.8-.9-.4-.3-.7-.7-1-1.2 0 0-1.6-2.6-1-3.9.2-.4.6-.6 1.1-.7.3 0 .7 0 1.2.1.6.1 1.5.2 1.8-.1.2-.2.1-.6 0-.8-.3-.9-1.1-1.7-1.5-1.9h-.4c-.2 0-.5.1-.9 0s-.6-.3-.8-.5l-.2-.2c-.2-.1-.3-.2-.5-.3-.5-.3-1-.6-1.5-.8-.2-.1-.4-.1-.7-.2-1.1-.2-2.6-.6-2.8-1.7-.1-.5.1-.9.2-1.2.1-.3.2-.5.2-.8-.1-.7-.5-1.4-1.1-1.9-.2-.2-.4-.2-.7-.3-.4-.1-.8-.2-1.2-.6-.2-.2-.4-.5-.5-.7-.2-.4-.4-.6-.6-.7-.6-.1-.8-.5-1.1-.8-.2-.2-.3-.3-.4-.3h-.2c-.4.1-.8.2-1.4-.2-.4-.3-.8-.6-1.1-.9-.5-.4-.9-.8-1.4-1-.4-.2-.9-.2-1.4-.3-.4 0-.8-.1-1.3-.2-1.4-.4-2.6-1.1-3.7-1.8-.5-.3-1.1-.6-1.6-.9-.4-.2-1-.4-1.6-.6-.1 0-.1 0-.2-.1l-.9 17.4c-.1.6-.3 1-.5 1.4-.2.4-.4.8-.4 1.2l.2.2c.2.2.4.4.4.8s0 .9-.1 1.3c0 .2 0 .5-.1.7-.2 3.5-.5 6.3-.7 9h.1c.3-.1.8-.3 1.3-.1.7.3 1.4.2 2.2.1.2 0 .4 0 .6-.1.6-.1 1.1.2 1.6.4.3.1.6.3.9.2.4 0 .8-.3 1.3-.6.3-.2.7-.5 1-.6.3-.1.6-.3.6-.5 0-.4-.5-1.1-1.2-1.5-.6-.4-1-.5-1.5-.4-.5.1-.8 0-1.1-.2-.4-.3-.5-.9-.5-1.1l1.2-.2v.1c.1 0 .1 0 .2-.1.1 0 .2-.1.3-.1.5-.1 1 0 1.3.2h.1c.2.1.3 0 .6-.1.1 0 .3-.1.4-.1.2 0 .4-.1.6-.1.2 0 .5 0 .7-.1l-.4-.4c-.2-.2-.3-.3-.4-.5l.6-.9c.3 0 .5.2 1 .4.2.1.7.3.8.3 0 0-.1 0-.2.1h.1l.1-.1c-.1-.3-.3-.7-.5-1.1-.2-.4-.4-.8-.5-1.2l.8-.7c.2.1.3.2.6.5.6.6 1 .9 1.2 1.1l.7-.5v-.1l.5-.1s0-.1.1-.1l.1-.1.5.2h.1v.1l.5.2.5-.1.1.1h-.2c-.1 0-.1.1-.1.2h.2l1-.1c.1.3.1.5.1.7.1 0 .2 0 .3.1.4.1.7.2 1 .3.3.1.6.2.8.3h.3c.3-.1.9-.1 1.3.2l.2.2c.2.1.3.3.5.3 1.1.4 1.8 2.1 2.4 3.7v.1c.1.2.2.5.2.7.2.6.2.7.9.8l.4 1s0 .2.5.9h.2c.3 0 .7.1 1 .5.2.3.7 1 .7 1.8 0 .1.1.2.2.3l.3.3c.3 0 .6.1.7.2.3.2.4.2.5.1.5-.3 1.1 0 1.5.2.1.1.3.1.3.2.3 0 .6 0 1.1-.2l.4.4c.6 0 1.2.1 1.8.3.4.1.8.2 1.1.2h.3c.5 0 1.5.1 2 .6.2 0 .5 0 .7.2l.1 1c.1.3.4.2.8.1zM1270.8 582.7c-.3-.1-.5-.2-.8-.3-.1-.1-.3-.1-.4-.2.6.5.9.6 1.2.5zM1217.9 585.3v-.2.2z"/>
        <path class="st4" d="M1278.7 582.3c0-.1-.1-.3-.2-.5-.2-.4-.5-.8-.3-1.5.1-.7.5-1.5.8-2.1l1-17.7c-.4-.1-.7-.3-.9-.5-.3-.2-.6-.4-.9-.4-.5 0-.9-.2-1.2-.3-.4-.2-.5-.2-.8-.1-.8.3-1.8-.3-2.6-.8-.2-.1-.3-.2-.5-.3-.3-.1-.5-.2-.8-.4-.7-.3-1.4-.6-2-1.1-.6-.4-1.3-.8-2-1.1l-1.2-.6c-.5-.3-1-.1-1.8.3l-.1.1c-.7.4-1 .6-1.1.7.3.7.3 1.4-.8 1.9-1 .5-1.6.5-2.4.5h-.4c-.1.1-.2.4-.2.6-.2.5-.3 1.1-.8 1.4-.3.2-.5.5-.7.9-.2.3-.4.6-.7.9-.2.2-.4.4-.7.6-.3.3-.7.6-1 1-.4.4-.9.6-1.5.6-.8 0-1.6-.4-2.1-1-.3-.3-.3-.6-.4-.9 0-.2-.1-.3-.1-.3-.3-.2-.5-.5-.6-.9l-.9-.1c-.4-.7-.9-1.7-1.2-2.8l-.2.8c-.1 0-.1.1-.2.1 0 .3 0 .6-.2.8h-1.1l-.1-.2c0 .1.2.1.4.1.1 0 .2-.1.3-.1l-1.1-.1c0 .1.2.3.4.2h-.5c0 .1-.1.1-.1.2l-1.1-.4c.1-.3 0-.4 0-.4-.1 0-.7.1-.9.6-.8 1.3-1.8 1-2.4.8-.3-.1-.6-.2-.9-.2-.1 0-.2 0-.3.1.7.1 1.2.8 1.7 1.3.2.2.5.6.6.7h-.2l.9.7s.1.2.1.3c.2.3.3.7.2 1.1-.1.2-.2.4-.5.5-.1 0-.2.1-.3.1.1.5.3 1.1.5 1.2.3.1 1.1-.3 1.3-.6v-1l.1-.2.4-.4c0-.1.1-.1.2-.2 0-.1.1-.1.1-.2-.1.1 0 .3.1.4l.2-1.2c.1-.1.1-.4.1-.6 0-.7.5-1.1.8-1.3.1-.1.3-.2.3-.3l1.2.3c0 .6-.3 1.1-.5 1.4-.2.3-.3.6-.3.8V564.4s-.2-.1-.3-.1c-.2 0-.3.1-.3.2l1.2-.1c.1.6.1.6.9.6l.3.8h-.1l.1.2v-.1c0-.1 0-.1-.1-.1l.5-.4c.3.1.5.3.7.5.6-.6 1.5-.3 1.9-.2h.1l-.1 1.2h-.8c.3.5 1.2.9 1.7 1.2.3.2.9.2 1.4.2.6 0 1.2 0 1.7.2 1.1.3 2.1.9 3 1.5.1.1.6.2 1 .3.9.2 1.6.3 1.9.8.1.1.6.3.8.4.1.1.3.1.4.1.2.1.4.2.5.3.1.1.3.2.5.3.3.1.4.4.7.7.1.1.3.4.4.5 0 0-.1-.1-.3 0-.1 0-.2.1-.2.2l1.2-.2c.2.4.1.9 0 1.2h.1c.2-.1.4-.1.6-.1l.1 1.2.3.8c-.2.1 0 .8.2 1.2.1.2.1.3.1.4.1.4.4.7.8 1.2 0 .1.1.1.2.1.2.2.6.4.5.9.5.3.9.6 1.4.8l-.2 1.2h-.2l.8.7c-.5.8-1.2.7-1.6.6.1.2.2.3.3.3 1 .5.4 1.8 0 2.6-.1.1-.1.3-.2.3v.1l.3-.3 1 .6c.1 0 .3 0 .5-.1.4-.1.7-.2 1.1-.2.4 0 .8-.1.9-.2l.8.9c0 .2.3.6 1.1 1.2.2.1.3.2.4.3.5.4.8.9 1 1.4.2.3.3.6.5.8l.6-9zM1294.3 584.8c-.1 0-.1 0 0 0zM1294.3 584.8h.5-.2c-.1-.1-.3-.1-.3 0zM1288.7 589.4c-.1 0-.1 0 0 0-.1 0-.1 0 0 0zM1414.9 512.5v.2l.1-.1-.1-.1zM1249.1 558.2c0-.1 0-.2-.2-.4v.2l.2.2z"/>
        <path class="st4" d="M1247.6 559.2h.2l.2-.4c-.1-.1-.1-.2-.2-.3-.4.2-.9.3-1.6.2h-.3c.1 0 .2 0 .2.1.1.1.5.2.6.7h.3c0-.1-.1-.1-.2-.1h.1c.3-.3.5-.3.7-.2zM1249.3 558.4c0-.1-.1-.2-.1-.3l-.1.1.2.2zM1243.8 605.8zM1251.3 557.3c.1-.1.1-.2.1-.3l-.4.3v.2c0 .1.2 0 .3-.2zM1321.4 600.6c-.1 0-.1 0 0 0-.1 0-.1 0 0 0zM1322.3 601.1s.1 0 .2-.1.1-.2.1-.2h-.2c-.1.2-.1.2-.1.3zM1250.3 556.6c-.1 0-.1.1-.1.1.1 0 .1 0 .1-.1zM1245.2 557.5c.4-.1.8-.3 1.3-.2.4.1.7 0 1.2-.2.3-.1.7-.3 1.2-.3l.2.3c-.1-.7 0-1.4.3-2.1.1-.2.1-.3.2-.5.3-.6.4-.9.2-1.2-.1-.1-.1-.2-.2-.3-.2-.4-.7-1.1-.5-1.8-.3-.1-.6-.1-.9-.1-.5 0-1.1 0-1.7-.3-.5-.2-1-.5-1.4-.9-.5-.4-1-.7-1.6-.9-1-.2-1.8 0-2.7.8-1 .9-1.9 1.1-3 1.3 0 .2 0 .4-.1.7-.1.3-.4.6-.6.9-.2.2-.4.5-.5.7.1 0 .3.1.4 0l.2-.5c.4 0 .8.2 1.1.5.2.1.6.4.7.4l1 .4c-.1-.1-.2-.2-.4-.2h.2l.2.3.1.1c.1 0 .3 0 .4.1.1.1.3.3.3.6.1.4-.1.6-.2.8 0 0 0 .1-.1.1l.1.1.4.8c.3.2.6.4.8.4h.1c.3-.1.9-.4 1.3.1.1.1.1.1.3.1h.3c.2 0 .4 0 .7.1.1.1.5 0 .7-.1zM1236.6 553.8c-.1.1 0 .3 0 .3l.2-.5c0 .1-.1.1-.2.2zM1235.5 552c0-.1-.1-.1-.1-.2-.3.1-.4.1-.4.1s0 .3.4.7c.1-.1.1-.4.1-.6zM1243.3 575.3s0-.1.1-.1l-.1.1zM1251.5 579.9c.1 0 .1 0 0 0zM1248.9 580.3h.1c-.1.1-.2.5-.2.7h.1c.6-.3.6-.5.6-.6 0-.2-.1-.5-.3-.8l-.3.7zM1283.9 598.8s.1-.1.1-.2v-.3l-.1.2v.3zM1250.9 578.1v-.2c0-.8.1-1.6.1-2.4 0 0 0-.1-.1-.2-.1.2-.3.5-.5.7.1.2.1.5 0 .7-.1.2-.2.9-.2 1.2.4.3.6.3.7.4v-.2zM1252.4 579.2l-.2.2.2-.2zM1175.1 531.6l.2.1c-.1-.1-.2-.1-.2-.1zM1175.1 526.7s-.1-.1-.1-.2c-.1.2-.1.4-.1.5l.2-.3zM1194.8 549.3l-.2.1h.1c.1 0 .1-.1.1-.1zM1163.9 519.8l.4-.3v-.1c-.1 0-.2.1-.3.2 0 0-.1.1-.1.2zM1179.3 524.3c.1.1.2.1.3.1l-.3-.2v.1zM1142.5 537.6zM1160.9 524.1v.1c0 .1 0 .1.1.2.1.2.7.7 1 1 .1-.5.1-1.2 0-1.4-.1-.4-.2-.7-.1-1-.3.3-.7.6-1.2.8.2.1.2.2.2.3z"/>
        <path class="st4" d="M1141.2 538.8c.2.2.5.4.8.7.2.2.4.4.7.5 0 0 .1 0 .1.1v.1c.3.3.6.6.7 1 0 0 .1 0 .1.1.1.1.2.1.3.2.1.1.2.1.3.2l.2.1c.2.1.5-.1.8-.2h.1c.1-.1.3-.2.5-.2.1 0 .2-.1.2-.1.1 0 .1 0 .2-.1h.1c.2-.1.3-.1.5-.1h.6c.3 0 .6.1.9.1.4.1.8.1 1.2.1.2 0 .5-.2.7-.3.1-.1.3-.2.4-.2.1 0 .1-.1.1-.1 0-.1.1-.2.1-.3v-.1c.1-.3.2-.7.5-1 .2-.2.5-.4.9-.5h.1c.1 0 .1 0 .2-.1.2-.1.5-.1.7-.2h1.4c.7.1 1 .5 1.1.7 0 .1.1.2.3.3.1 0 .1.1.2.1h.1c.1 0 .2.1.2.1.1 0 .2.1.4.1h.1c.5.1.8.2 1 .1.1 0 .2-.1.3-.1.1-.1.2-.1.3-.2.2-.2.4-.4.7-.5H1160.4s.2-.1.3-.1c.1-.1.2-.1.3-.2h.8c.1-.3.3-.7.5-1.1.2-.3.4-.7.5-.9-.3-.3-.3-.7-.2-1.1.2-.7 1-1.4 1.6-1.7-.3-.6-.5-1.4-.2-2 .2-.5.6-.7 1.1-.8.3 0 .4-.1.4-.1v-.2c0-.3 0-.6.2-1 .1-.2.2-.3.3-.4 0-.2 0-.6-.1-.9-.1-.4-.1-.7-.1-1 0-.3.1-1.2.5-1.9.1-.2.2-.3.3-.4l.1-.1.1-.1c.1-.2.2-.2.3-.4l.8-.4.3.1c.6.2.7.3 1.2 0 .4-.2.8.1 1 .2l.6-.2.1-.1c.2.2.7.3 1.2.2H1173c.3 0 .5 0 .7.1h.1c.3.1.5.3.7.4.2.1.3.2.5.2 0-.2-.1-.5 0-.8l1-.3c.7.6 1 .6 1.8.4.2 0 .5-.1.7-.1h.7l-.5-.3s-.3-.2-.5-.3c-.4-.2-.8-.5-1-.9-.2-.6-.2-1 .1-1.4.5-.6 1.5-.4 2.2-.3.1 0 .3.1.3.1.4.1 1.5-.3 2.1-.8.1-.1.2-.2.2-.3l-.2-.2c-.1-.1-.3 0-.3 0l-1-.1c-.1-.3-.5-.7-.7-.7l-1-.4c0-.2-.3-.7-.6-.8-.1-.1-.1 0-.2 0s-.1.1-.2.1c-.4.3-1 .7-1.5.5-.2-.1-.5-.3-.6-.9l.1-.2c-.3.1-.6.1-.9.1h-.3c-.1 0-.1.1-.2.1l-.5-1.1c.1-.1.2-.1.3-.1.1 0 .1-.1.1-.1s0-.1-.1-.4c-.2-.8.3-1.1.5-1.3l-.3-.3-.2-.2c-.6.1-1.1-.5-1.8-1.8-.1.1-.1.3-.2.4-.3.5-.5 1-.8 1.2l-.9-.3c-.1.2-.2.5-.4.7-.1.2-.2.3-.3.5-.1.2-.3.5-.4.7-.2.2-.4.3-.6.4l-.3.9c-.1.4-.3.8-.5 1.3-.2.4-1.2 1.5-2 1.3-.1.1-.2.2-.2.3 0 0 .1 0 .1.1.5.2.7.6.7.8.1.6-.4 1.2-1 1.6-.2.1-.3.2-.5.2.3.7.5 1.6.4 2.4v.1l-.7.6c-.2 0-.3-.1-.5-.2h-.1c-.1-.1-.2-.2-.4-.3l-.1-.1c-.2-.2-.3-.4-.5-.7.2 2.2-.4 2.5-.6 2.6-.1 0-.2.1-.4.1s-.4-.1-.6-.2c-.7-.5-1.4-1-1.7-1.5-.1-.2-.2-.3-.2-.5 0-.1-.1-.2-.1-.2-.1-.3-.1-.3-.2-.4-.2 1.5-.9 2.7-2.2 3.8-.4.3-.6.8-.8 1.3-.3.7-.6 1.4-1.4 1.9-1.3.9-3.4 1.3-5 1.5h-.2c-.5.1-1.6.7-1.7 1.2 0 0 0 .2.3.4l-.4 1.1c-.2 0-.3 0-.5-.1l.4.9c-.2.2-.5.3-.6.4l-.3.9c-.1.2 0 .3 0 .4.1 0 .1.1.2.2l-.6.8v.1s.2 0 .3.1c.3.1.8.1 1.1.6l-.6 1c-.7-.1-1.5-.1-2.1-.8-.1-.1-.2-.1-.2 0-.2 0-.5.1-.9-.1l-.2-.1c-.4-.1-1.1-.4-1.4-.9-.6.3-1.5.1-2.1-.3.4 0 .5.2.6.3zM1200 553.3h.1-.1zM1199.8 571.3h.3l-.4-.1s.1 0 .1.1zM1208.6 540.2c.2-.4.3-.8.6-1.2-.1-.1-.1-.2-.1-.3h-.2s-.1.2-.1.3c-.2.3-.4.8-1 1h-.1c0 .2-.1.5-.3.8-.2.3-.5.4-.8.5-.1 0-.2 0-.2.1-.5 1.4-2.5 1.7-3.7 1.4-.8-.2-1.7-.3-2.4-.3-.1 0-.2.1-.3.1-.3.2-.7.4-1.2.2-1.2-.5-1.9-.7-3.1-.8-.3 0-.5-.1-.7-.1-.3-.1-.6-.1-.9-.1-.8.1-1.3-.5-1.5-.8l-.1-.1c-.2 0-.4-.1-.7-.2s-.8-.2-1.1-.2c-.1 1-.8 2.2-1.7 2.4-.3.1-.7.1-1.1-.2-.1.2-.3.4-.5.5-.1.1-.2.3-.3.5-.1.3-.3.7-.6 1-.2.1-.2.3-.1.8.3-.6.9-1.7 1.8-2.2.8-.4 2 0 3.3.4 0 0 .3.1 1.3-.4.8-.4 1.3-.1 1.7.1.2.1.3.2.5.2.4.1.9 0 1.5-.1.5-.1 1-.2 1.5-.2 1.2 0 2.1.1 3.2.9.9.6 4.1.2 4.9-.7l.6-.9c.3-.5.6-1 1.1-1.5.4 0 .6-.4.8-.9zM1201.9 555.8h-.1v.1c.1 0 .1-.1.1-.1zM1186.4 551.3l-1.1.1c-.1.2-.2.3-.3.5-.4.7-.8 1.2-.8 2v2.2c0 .5-.3 1-.5 1.4-.2.3-.4.6-.4.9-.1.8-.7 1.4-1.1 1.8-.3.2-.6.5-.6.7.6.5.3 1.1.1 1.5-.1.1-.2.4.2 1.6.6-.2 1.3-.3 1.5-.3.2 0 .7 0 1 .3.3.4.3.8.2 1.2 0 .2-.1.4 0 .5.7 1.3.6 2.4.4 3.8-.2 1.3-.5 2.8-1.2 3.7 0 .2 0 .5.1.8 0 .1.1.3.1.5l.6.3c.1.1.2.2.3.2l.1-.1c.5-.4.7-.5 1.5-.4.1 0 .2-.1.3-.1.1 0 .2-.1.4-.2 0-.1 0-.1-.1-.2-.2-.6-.5-1.3-.2-2.2.4-1.2.6-1.9.5-3.1-.1-.9 0-1.6.1-2.3 0-.3.1-.6.1-.9v-1.6c0-.3 0-.4-.1-.6-.1-.2-.2-.4-.3-.7-.2-.7 0-1.4.6-2 .8-.8 2.3-1.3 3.2-1 .5.1.8.5 1 1.1.3.9 0 2.3-.5 2.9-.3.3-.3.6-.3.8.1.8 1.3 1.8 2.4 2.4.7.4.4 1.3.2 2.1-.1.4-.4 1.3-.3 1.5.1.2.6.4 1.3.5v-.8c.2-1 1.2-1.2 1.8-1.3.2 0 .4-.1.5-.1.3-.1.6-.1.9 0h.3l.4-.3c-.1 0-.2 0-.2.1 0 0 .1-.1.1-.2-.5.1-.7-.3-.9-.5-.1-.1-.1-.2-.2-.3h.1l-.3-.7c-.5-.3-.9-.8-1.1-1-.4-.5-.3-1-.3-1.3v-.3l.3-.4c-.1-.2-.1-.4 0-.7 0-.1.1-.3.2-.4-.3-.4-.3-.7-.3-1v-.3s-.1-.1-.2-.1c-.2-.1-.4-.2-.6-.5-.2-.3-.3-.6-.4-.9-.1-.2-.1-.3-.2-.5l-.1-.1c-.3-.5-.5-.9-.8-1.1-.3-.2-.5-.4-.7-.7-.1-.1-.2-.3-.3-.3l-.8-.6v-1l1-.5.1.1c.2.2.6.5.7.5l.3-.3c.5-.7 1.1-1 1.7-1.2.2-.1.4-.2.7-.3.4-.2.8-.8 1.2-1.4.4-.5.7-1.1 1.2-1.5-1.3-.1-1.9-.1-2 .1-.2.8-1.3 1.1-2.2.9-.4-.1-.7-.2-.9-.4-.4.4-.8.8-1 1.3l-.1.1c-.4.8-.8 1.7-2.2 1.4-.6-.1-1.6-.3-1.9-1.5l-.1-.3c0-.2-.1-.4-.2-.6-.2 0-.5 0-.9-.2-.4-.3-.7-.7-.9-1.2 0 .3 0 .5-.1.7zM1200.4 550.4c.4 0 .7.3.9.6.2-.2.3-.5.3-.6 0 0-.2-.1-.5-.2h-.9v.1c-.1.1 0 .1.2.1-.1 0 0 0 0 0zM1199.4 552.3c.2-.1.6-.3 1.1-.2-.1-.1-.1-.2-.1-.3 0 0 0-.1-.1-.1-.4 0-.7.3-.9.6-.1 0-.1 0 0 0z"/>
        <path class="st4" d="m1176.7 541.7.7-.9c.3.1.6.4 1 .6.5.4 1.2.8 1.5.6.3-.2.7-.2.9-.2h.3l-.2-.3c-.4-.4-.7-.9-1.2-1.1-.5-.2-.8-.5-1-.8l-.4-.4c-.5-.3-.9-.7-1.3-1.1l-.3-.3c-.3-.3-.4-.6-.5-.8v-.1l.3-1.1c.1 0 .3-.1.5-.4.2-.3.2-.5.1-.5-.3-.6-.6-1-.9-1.4 0-.1-.2-.2-.3-.3-.3-.3-.8-.6-.7-1.1 0-.1 0-.1.1-.2l-.1.1c-.2-.2-.2-.4-.2-.6-.5-.2-1-.5-1.4-1l.6-.8s-.1 0-.1-.1c-.1-.1-.2-.2-.3-.2h-.1l-.1-.1c-.2-.2-.3-.3-.5-.3v-1.1c.4-.2 1-.3 1.6-.2l.5-.2c-.1 0-.2-.1-.3-.2l.1-.2c-.1-.1-.3-.3-.8-.7l.1-.5c-.3-.2-.6-.3-.8-.5-.2-.1-.4-.1-.7-.1h-.4c-.4 0-.9.1-1.4-.1l-.2.2c-.2.1-.5.1-.7 0-.2-.1-.3-.1-.4-.2 0 0-.1 0-.1-.1-.7.4-1.2.2-1.7 0-.1.1-.1.2-.2.2l-.2.2c-.2.3-.3.9-.4 1.5 0 .2 0 .6.1 1 0 .3.1.5.1.7 0 .5-.1.8-.3 1-.1.1-.1.1-.1.2-.1.2-.1.4-.1.6v.1c0 .1 0 .2-.1.4v.2c-.1.4-.5.8-1.3.9h-.1c-.1.1 0 .8.3 1.2 0 .1.1.2.1.2l-.3 1c-.5.2-1.4.8-1.5 1.2v.1c.5.6.1 1.4-.4 2.3-.2.3-.5 1-.5 1.1l-.5.7c-.4 0-.7-.1-.8-.2 0 0-.1 0-.1.1 0 0-.1 0-.1.1 0 0-.1 0-.1.1-.2.1-.4.1-.6.1h-.7l-.1.1c-.2.1-.3.3-.5.4l-.2.2s-.1 0-.1.1h-.1c-.1 0-.2.1-.4.1h-.8c-.2 0-.4-.1-.6-.1h-.1c-.2-.1-.8-.2-1.2-.5h-.1l-.1-.1c-.3-.2-.5-.4-.7-.7-.3-.2-1.3 0-1.9.2-.2.1-.3.2-.4.3-.1.1-.2.3-.2.6 0 .1-.1.2-.1.3-.1.2-.1.3-.2.5-.2.4-1.5 1-1.5 1-.1 0-.1 0-.2.1h-.2c-.6.1-1.3 0-1.9-.1-.3 0-.5-.1-.7-.1-.4 0-.7.1-1.1.3 0 0-.1 0-.1.1-.1.1-.3.1-.4.2-.1.1-.2.1-.3.2-.3.1-.5.2-.8.2-.6 0-1-.3-1.3-.5-.1-.1-.3-.2-.4-.3-.3-.1-.5-.4-.7-.8-.1-.1-.2-.2-.2-.3l-.1-.1c-.2-.1-.3-.2-.5-.4-.4-.3-.8-.6-1.2-1-.2-.3-.4-.7-.5-1.1 0-.1-.1-.3-.1-.4h-.1c-.2-.1-.3-.2-.3-.4-.1.4-.3.7-.6 1.1-.2.3-.4.5-.5.6l.7.3c-.1.7-.6 1-.9 1.2-.1.1-.3.2-.3.3v.3c0 .3.1.8-.4 1.3 0 .1 0 .5.2 1.3v.2c.1.6.5 1 .9 1.5.2.2.3.4.5.6l-.4 1c.1 0 .2-.1.2-.2 0 .1.1.3.2.5l.1.2-.9.7h.2c.1 0 .2-.1.2-.1-.1.1 0 .6.1.8h.1c.1 0 .2 0 .3.1.4.1.6.4.8.6l.2.2-.2.7c.2 0 .5.1.8.4l.7.3c0 .1 0 .1.2.3.1.1.3.3.4.5l.3.6c.1.2.1.3.2.5.5.8.3 1.5.1 2.1-.1.2-.2.3-.3.6l-.1.1c.1 0 .1.1.2.2.2.3.5.6.6 1 .1.3.1.6.1.9 0 .3 0 .6.1.9.1.5.1.9.1 1.4v.8c.5-.2 1-.4 1.5-.1.1.1.2.1.3.3.2-.1.4-.3.6-.3l.4.8c.2 0 .2 0 .4-.1.1 0 .1-.1.2-.1.3-.2.7-.5 1.2-.5.3 0 .6.1.8.1h.1c0-.1.1-.2.2-.4l1.1-.1c.5.9.5 1.7.5 2.4v.8l.3-.3.4-.4c.7-.5 1.4-.2 1.8 0 .3.1.5.2.5.1.6-.3 1.4-1.1 1.4-1.7l1.2-.2c.1.2.6 1 .8 1.1-.1 0-.3-.1-.5 0s-.3.3-.3.4l1.2-.2c0-.1-.3-.2-.4-.2h.1c.3-.1.9-.4 1.5.2.4.4.3.8.2 1 .3-.1.9-.6 1-.9l.9.1c.1-.1.2-.2.2-.3l.9.5 1 .6c-.1.3 0 .6.1.9.1.3.2.7.2 1.1v1.2c.3-.1.7-.3 1.2-.6.2-.1.3-.2.4-.2.5-.2 1-.5 1.5-.7.6-.3 1.2-.7 1.8-.9.2-.1.3-.4.4-.8.1-.4.3-.9.7-1.2-.2-.3-.4-.8-.2-1.3l1.1-.1h-.3c.1-.1.3-.4.3-.8 0-.2 0-.3-.1-.4l.2-1c.3-.1.6-.1.8-.1.1-.2.1-.4.2-.5-.3 0-.8.1-1.1-.3l.1-.9c.2-.1.3-.5.4-.8l-.7-.9c.3-.4.6-.5.9-.7.2-.1.3-.1.4-.2 0 0 0-.1.1-.2 0-.2.1-.7.6-1 .2-.1.2-.2.2-.5s-.1-.8.2-1.2l1.1.2c0 .3.1.4.1.4.2-.1 1.1-1.1 1.2-1.6h1.1v-.1h-.2s.1 0 .1-.1v-.2c0-.1 0-.3.2-.5v-.2l-.5-.2c-.1-1.7.2-3.5.7-5.2l.1-.2c.2-.7.6-1.9 1.6-2-1.1-.6-1.2-.7-1.3-.9zM1136.3 531.6l.1-.1H1136.1l.2.1zM1136.1 451.3c.1-.2.4-1.1.3-1.4 0 0 .1.1.2.1l-.1-1.1c.3-.2.7-1.3.7-1.7l.6-.4c0-.3-.2-.9-.3-1.2 0-.1-.2-.2-.4-.3l-.9.6c-.1-.1-.3-.2-.4-.2l-.5.2c-.1-.1-.2-.2-.2-.4-.2 0-.5.2-.7.4l-1.1-.1c0-.1-.1-.1-.2-.1h-.5l-.2.7c-.5.2-.9-.1-1.2-.2v.9c-.6.2-1.1.7-1.6 1.2l-.5.5c0 .3.2 1 .2 1.3 0 .2.1.3.1.4 0 .2.1.4.1.6.1.5.1 1 .3 1.2.2.2.6.3 1 .4.4.1.8.2 1.2.4.3.2.9.3 1.5.4.1-.4.4-.7.7-.9.2-.1.4-.1.6-.1.3-.4.7-.8 1.2-1.2h.1zM1160.3 582.4v.1h.2c-.1-.1-.2-.1-.2-.1zM1155.7 563zM1199.3 570.4l.2-.2s0-.1-.1-.1c0 0 0 .1-.1.3zM1153.1 576.2v.2c.1 0 .2-.2.2-.3l-.2.1zM1170.4 564.6s.1 0 .1-.1v-.1l-.1.2zM1160.9 582.4l.2.2.2-.2c-.1-.1-.1-.1-.2-.1l-.2.1zM1152.5 575.9c-.1.1-.1.2 0 .2l.2-.1v-.2s-.1 0-.2.1zM1234.5 584.1s-.1.1-.2.1h.1l.1-.1zM1233.4 604.6l-.3.1h.1c.2 0 .2-.1.2-.1zM1235.2 586.4s.2-.1.2-.2v.2c.2-.3.5-.5.7-.8l.6-.6c.1-.1.1-.4.1-.6v-.4c-.4.5-.9 1.1-.8 1.4 0 0 0-.1-.1-.1l-.7 1.1zM1222.7 563.6c-.1.2-.2.5-.3.7.1 0 .1 0 .2-.1s.3-.1.4-.2c-.1-.1-.2-.2-.3-.4zM1185.1 478.7c.2.1.3.3.5.4.7.5.9 1.2 1.1 1.7.1.3.2.6.4.9.1.1.2.2.3.5.7 1.1 1.1 1.6 1.4 1.8v-.1c.1-.3.2-.5.3-.8.1-.2.2-.4.2-.5 0-.1-.1-.2-.1-.3-.1-.2-.2-.5-.2-.9 0-.8-.4-1.3-1.1-2.1-.4-.3-1.9-.6-2.8-.6zM1228.6 586.8zM1221.4 561.6v.1h.1l-.1-.1zM1231.5 547.1zM1237.4 567.3s.1-.1.1-.2 0-.1.1-.2l-.2.4zM1235.8 547.7c0 .1 0 .1 0 0 .2.1.3 0 .4 0 .1 0 .2 0 .4.1 0 0 0-.1-.1-.1-.2-.1-.5-.2-.8-.2v.1l.1.1zM1232.6 547.5v-.1.1zM1233.9 548.9v.1-.1zM1233.9 547.5zM1233.9 564.7c-.2-.2-.5-.4-.6-.9v-.3c-.1-.4-.1-.5-.2-.6-.1-.1-.3-.2-.4-.3-.2-.2-.2-.2-.4-.1-.8.2-1.5 0-2.1-.5-.4-.3-.9-.5-1.2-.5-.1 0-.3.1-.5.2s-.5.3-.8.4c-.7.1-1.1-.2-1.3-.4-.2 0-.6 0-.8.1h-.7c-.6 0-1.2.1-1.7.3l.3.6c0 .2.5.6.8.8.1 0 .2-.1.3-.2.8-.5 1.6-1.1 2.2-.6.2.1.3.3.3.5.1 0 .1 0 .2.1.3.1.9.2 1.2.2.1-.3.4-.6 1-.6.7 0 1.6.4 1.9 1 .2.1.5.3.7.4.6.3 1.3.7 1.9 1.1v-.6c.2.1 0-.1-.1-.1zM1204 577.1v-.3c0-.1-.1-.1-.1-.2v.4l.1.1zM1197.4 569.7c-.3.1-.5.1-.7.2-.5.1-.8.1-.8.3v.3c0 .4 0 1-.4 1.4-.1.1-.3.2-.5.2l.4.1c.1.2.2.5.3.9.2-.4.4-.8.5-.8 0 0-.1-.1-.1-.2-.1-.3-.4-1 .3-1.6.1-.3.6-.5 1-.8zM1202 573.2v.1h.2c-.1 0-.1-.1-.2-.1zM1196.5 573.5c-.1 0-.1.1-.1.1h.2l-.1-.1zM1197 573.5c-.1-.2-.1-.3-.1-.5-.1.1-.3.4-.3.6l.4-.1zM1223.4 565.3s0-.1 0 0c-.1-.1-.1 0-.1 0l.2.3c0-.1 0-.2-.1-.3zM1197.1 571.6c.1.2.1.4.1.6 0-.1.1-.1.1-.2.1-.1.2-.2.2-.3 0-.1.1-.5.1-.8-.2.1-.5.3-.6.4 0 .1 0 .3.1.3zM1203 574.4c0-.1-.1-.1-.2-.1v.2l.2-.1zM1198.4 573.9c-.1.1-.1.3-.2.4.1-.1.1-.2.2-.4.3-.3.7-.3.9-.4H1199.6l-.8-.4c-.1.3-.3.6-.4.8zM1225.1 564.5l.1.1c.1 0 0 0-.1-.1.1 0 0 0 0 0zM1201 598.6c.1 0 .1 0 0 0 .2 0 .4-.2.7-.3.4-.2.8-.5 1.3-.5.8 0 1.1-.2 1.7-.9.1-.1.2-.3.4-.4.4-.4.8-.8.9-1.2.1-.2.1-.3.1-.3h.1v-.5l.5-.1c-.1-.3-.1-.6-.1-.9v-.2l.1-.2c.1-.1.2-.3.2-.4l-.1-.1c-.4.2-.4.3-.5.4-.2.4-.6.7-1.5.9v.2c0 .6-.1 1.2-.5 1.5-.1.1-.3.1-.4.1h-.4c-.1 0-.2-.1-.3-.1-.4.1-.7-.2-1-.4-.1.2-.3.4-.5.7-.2.4-.6 1-.8 1.3l.4.2c.2.6 0 1-.3 1.2zM1224.7 588.8h-.1s.1.1.1 0zM1223.5 582.7c0 .1-.1.2-.1.2l.2-.1v-.3s-.1.1-.1.2zM1208.2 592.3c.1.4 0 .7-.2 1.1.1-.1.2-.1.3-.2.7-.4 1.6-.7 2.4-1 .4-.1.8-.2 1.1-.4.3-.1.6-.2 1-.4 1.3-.5 2.8-1 3.7-1.9-.2 0-.5 0-.6.1-1 .3-1.8.4-2.7.6l-.4.1c-.5.1-1 .1-1.5.2-.6.1-1.2.1-1.8.2-.2 0-.3.1-.5.1-.3 0-.5.1-.7.1-.1.1-.2.3-.4.5 0 .1-.1.1-.1.2.2.3.4.5.4.7zM1200.8 497.2c0 .2-.1.4-.1.6 0-.1.1-.2.2-.3 0-.1 0-.2-.1-.3zM1201.1 498v.1-.1zM1214.1 586.1l.2-.2c-.2 0-.4.1-.9.3l-.2.1c.2 0 .3.1.5.1.1 0 .3-.2.4-.3zM1203.1 493.1v-.3l-.2-.3c0 .1-.1.2 0 .3.1.2.2.2.2.3zM1204.5 491.7c.2-.1.2-.2.2-.3l-.4.3h.2zM1202.2 494.9c.1 0 .1-.1.2-.2h-.2v.2zM1200.7 494.5c.4-.4.7-.8.7-1.4v-.4c-.2.5-.4 1.1-.6 1.6 0 0-.1.1-.1.2zM1202.1 497l.2.1v.4c.3 0 1.1-.3 1.5-.5.1-.1.3-.1.4-.1-.1-.4-.2-.9-.4-1.1-.1-.1-.3 0-.5 0-.4.1-1.1.8-1.2 1.2zM1220 545l.2.1c0-.1 0-.1-.2-.1zM1222.5 535l.1-.1-.2-.1c0 .1 0 .1.1.2zM1221.6 543.3c-.2 0-.4-.1-.5-.1-.1.2-.1.3-.1.5 0 .4.2.6.4 1 0-.3.2-.5.4-.7.6-.4 1.3 0 1.5.1.5.2 1 .4 1.6.6l-.2-.2c-.1-.1-.3-.1-.5-.2-.5-.2-1-.3-1.2-.9-.1-.3-.1-.7.2-1.1.3-.5.7-.7 1.1-.9.4-.2.6-.3.6-.6v-.8c0-.2-.1-.4-.1-.5-.4.1-.8.4-1.1.8.1.1.1.2.1.3.1.6-.6 1-1.1 1.2 0 0-.1.2-.1.3 0 .2-.1.5-.3.8 0 .2-.4.4-.7.4zM1216.6 562.9c-.2 0-.4-.1-.6-.1-.3 0-.7.1-1 .1-.2 0-.5.1-.7.1-.4 0-.5.1-.5.1s-.1.2.2.7c.3.7 1.1 1 1.8 1.4.1.1.2.1.3.2.2-.1.4-.1.6-.2.4-.1 1.1-.4 1.3-.6.2-.2.2-.4.1-.4 0 0-.1-.1-.3-.2l-.3-1v.2c-.1.1-.4-.1-.9-.3zM1220.3 554.5c-.1.1-.1.2-.1.2 0 .1.1.2.3.2 0 0 .1 0 .2-.1.3-.1.7-.2 1.1-.1l-.2-.1c-.4-.2-.6-.3-.8-.3-.2 0-.3.1-.5.2zM1221.2 540.5c.5-.3.9-1.6.6-2.2 0 0-.1-.1-.2-.1-.1-.1-.3-.2-.4-.4 0 .1 0 .2-.1.2-.1.2-.2.5-.2.7-.2.7-.6 1.7-.5 2.2v.2c.2-.2.5-.4.6-.5l.2-.1zM1219.3 550.3v-.1c0-.1-.1-.1-.2-.1l.2.2c0 .1 0 .1 0 0zM1221.5 541.8c-.1 0-.2.1-.2.1s.1 0 .1.1c.1-.1.1-.1.1-.2zM1200.3 492c0-.1 0-.2.1-.4 0-.2.1-.4.1-.5-.1.1-.2.1-.4.2.2.2.2.5.2.7zM1178.4 496zM1181.4 493.8c.1 0 .2-.1.3-.1.2-.1.2-.2.3-.2 0-.1-.2-.4-.3-.7-.1-.1-.1-.2-.2-.3.1.4 0 .9-.2 1.3h.1zM1180.3 495c0-.2.1-.3.1-.5H1180.1v.1c0 .2 0 .4-.1.5 0 .1-.1.1-.1.2.2 0 .3-.1.3-.1 0 .1 0 0 .1-.2zM1178.2 511.3c0 .1.1.1.2.2.1 0 .2.1.2.1l-.1-.2-.3-.1zM1173.7 502.4c.7-.5 1.4-1 1.9-1.8.1-.1.2-.3.4-.4-.1.1-.3.1-.4.1h-.1s-.1.1-.1.2c-.1.2-.2.4-.5.6-.5.3-1 .9-1.3 1.4l.1-.1zM1178.2 497.8l.5-1.1h-.1c-.2.4-.5.9-.8 1.3-.2.2-.4.5-.5.8-.1.2-.3.5-.5.7 1-.9 1.4-1.5 1.4-1.7zM1182.7 489.2l-.2-.3-.2-.1c0 .1.1.2.2.2.1.1.2.1.2.2zM1193.3 492.7c.4-.4.8-.8 1.5-.8.2 0 .8-.4.8-.7-.2-.7.5-1 1-1.2.1-.1.3-.1.4-.2-.1-.2-.1-.5-.1-.7h-.1l-.8-.9c-.1.1-.1.2 0 .2 0 0-.1 0-.2.1-.2.1-.8.6-1.4-.1-.1-.1-.2-.2-.3-.4-.2-.3-.4-.5-.7-.6h-.1c.2.5.1 1 .1 1.4v1.1c0 .5 0 1-.1 1.6-.1.3 0 .5 0 .9v.3zM1187.6 514.9v-.2c-.1 0 0 .1 0 .2zM1197.8 492.2c0 .2 0 .5-.1.7-.1.3-.2.4-.3.6l-.1.1.1.2c.2.5.4 1.2.1 1.9-.3.7-1 .9-1.4 1-.1 0-.4.1-.4.1.1.5.5 1.1.9 1.6.1 0 .2.1.3.1.3.1.7.2 1 .6.2.3.3.6.3.8 0 .1 0 .2.1.3.1 0 .3-.1.4-.3.1-.2.1-.2-.2-.7-.1-.2-.3-.5-.4-.8-.3-1.1-.2-2.6.5-4.6.1-.2.2-.4.3-.7.5-1 .4-1.2 0-1.4-.3-.2-.6-.2-.9-.1-.2.1-.2.1-.2.6zM1194.1 515.7s-.1-.1-.2-.1v.1h.2zM1201.1 495.9c0 .1-.1.3-.1.6.2-.5.7-1 1.2-1.4l-.3-.1c-.2.2-.3.4-.5.6l-.3.3zM1207.2 556.2c.1-.1.3-.2.4-.2-.3-.1-.7-.2-1-.2-.1.2-.1.4-.1.4.2 0 .4.1.7 0zM1206.9 494c-.1-.4-.4-1-.6-1.2-.1-.1-.1-.2-.2-.3-.1-.1-.2-.2-.2-.4V493c0 .5 0 .9.1 1.2l.9-.2zM1205.7 490.8c0-.3 0-.8-.2-.9l.1-.2h-.2v-.2c-.1.1-.2.2-.3.2-.2.1-.5.2-.9.1-.1 0-.3-.1-.4-.2.1.3.2.6.3.8h.2c.1 0 .3 0 .4.1.4.2.9.8 1.2 1.3 0-.2-.1-.4-.1-.7-.1 0-.1-.1-.1-.3zM1204 485.1c.1.1.2.2.4.3.3.2 1.1 1 1.4 1h-.1l.8.8c0 .1-.1.2-.1.3-.1.2-.1.4-.3.7.1.1.2.3.3.4l-.1.1h.1c0 .1.1.2.1.3.3.1.5.3.9.6.2-.1.5-.1.8 0l-.1-.4-.1.1c0-.2-.3-.8-.4-1-.2-.4-.4-.8-.5-1.1v-.8c0-.3 0-.5-.1-.7-.1-.2-.1-.4-.1-.5-.3-.1-.9-.3-.8-1.1-.1-.1-.3-.2-.4-.2h-.2c-.5-.1-.6-.1-1 0-.5.1-.9.1-1.2 0h-.2c.2.3.5.8.9 1.2zM1198.1 483.8v.5l.1.1c.1-.1.3-.2.5-.2-.2-.1-.3-.2-.4-.3.1 0 0-.1-.2-.1zM1221.5 549.5s0 .1 0 0l-.1.1h.2v-.1c0 .1-.1 0-.1 0zM1209.6 519.9c.1.1.3.1.4 0l-.2-.2-.2.2zM1201 503.5c.1.1.2 0 .3 0l-.9-.1c-.3.4-.8.5-1 .6-.1 0-.3.1-.4.1-.1.2-.1.4-.2.6-.1.5-.2 1.1-1.2 1.4-.3.1-.7.2-1 .2-.8.1-1.2.2-1.4.7-.1.2-.1.5-.1.8v.7c-.1.7-.4 1.4-.7 2l-.1.2c0 .2.1.3.1.3.1 0 .1.1.1 0 0 0 .1-.1.1-.3.1-.8.3-2.1.9-2.5 0-.1.1-.2.1-.3.2-.5.4-1.1 1-1.3.2 0 .5-.1.9.2.3.3.5.6.6 1 .1-.3.3-.5.7-.7l.4-.2.3.3c.1.1.2.3.2.5l.1-.1c-.1-.5.3-.8.5-1 .1-.1.2-.1.3-.2l-.1-.1c-.2-.5.3-.9.6-1.1l.2.2-.2-.2c.1-.1.2-.1.2-.1v-.2c.2-.5-.1-1.3-.3-1.4zM1197.8 509.5c0 .1 0 .2.1.2l-.1-.2zM1198 509.8s.1-.1.2-.3v-.1l-.2.4zM1221.6 547.2c0 .4 0 .5.1.6 0 .1.1.1.2.2-.1-.4-.2-.7-.2-1.1-.1.1-.1.2-.1.3zM1213.8 507.9c0-.1-.1-.1-.2-.3-.2-.2-.8-.7-.4-1.6.1-.1.1-.5 0-.5 0 .1.2.1.2.1l-.7-1c.2-.1.2-.2.2-.2l-.6-.3c-.5-.3-1-.6-.9-1.2 0-.5.4-.8.7-.9.1-.1.2-.1.2-.2l-.2-.2c-.2-.2-.3-.4-.5-.7-.1-.2-.1-.4-.1-.6-.6 0-.8-.4-1-.7-.2-.3-.3-.6-.3-.7l-.1-.1c-.4-.1-.7-.3-.9-.5.1.3.2.6.3.8.1.3.2.5.3.7.2.5.3 1 .1 1.4-.1.2-.3.4-.5.4-.4.1-.8.1-1.2 0-.1.2-.2.4-.4.5-.4.1-.7 0-1-.3v.2c0 .7 0 1.9-1 2-.5.1-.9-.2-1.1-.4 0 .1-.1.4-.1.6 0 .3-.1.5-.1.8-.2.7-.9.8-1.3.8-.1 0-.3.1-.4.1 0 0-.1.1-.2.1-.2.2-.5.4-.7.5l.2.2c.1 0 .1.1.1.1l.6.3c.7.4 1.5.8 1.8 2 .2.6-.2 1.2-.5 1.6-.2.2-.3.5-.3.6 0 .4.1 1 .3 1.5.1.3.1.5.2.7.1.7.7 1.2 1.8 1.8.1 0 .2.1.3.2.7.4 1.2.6 1.5.7 0 0 0-.1.1-.2.1-.3.3-1 1.1-1h.1c.6 0 .6.6.6 1 0 .8.1 1.2.1 1.5.4-.5.8-1.6.7-2.1-.1-.5-.3-.9-.7-1.3-.2-.3-.5-.6-.7-1-.4-.9.8-3.4 1.4-4 .4-.4.8-.3 1-.2.5.2 1.1 1.4 1.4 2.1.1 0 .2-.1.3-.1.1-.2.3-.4.5-.6l.2-.2c.3-.4.2-1.2 0-1.9-.1 0-.2-.2-.2-.3zM1224.5 535.1c.1-.2.1-.4 0-.7h-.1c-.1.1-.2.2-.3.2-.2.3-.3.7-.3 1 .4-.1.6-.3.7-.5zM1194.4 513.2s-.1.1-.2.1-.1.1-.2.1l.4-.1c0 .1 0 .1.1.1h.1c.1 0 .1-.1.1-.2H1194.4zM1182.8 453c-.1.2-.3.3-.4.3v.4c0 .6-.1 1.3-.3 1.9-.1.3-.1.6-.2.9-.1.6.1 1.3.3 1.9.2.8.5 1.7.3 2.8-.2.8 0 1.4.2 2.2.1.4.2.8.3 1.3.1 1-.6 1.2-.7 1.3-.5.1-1.3-.4-1.9-1v.2l.1.1c.2.1.5.4.5.8 0 .2.1.4.1.6.1.6.2 1.3.4 1.8.4.7.7 1.4.8 2.3 0 0 0 .1.1.2l.3-.2c.4.1.6.4.7.7l.8-.5c1.8.6 2.6 1.2 2.7 1.9 0 .2 0 .7-.5 1-.3.2-.6.5-.9.8l-.2.2c-.1.1-.1.4 0 .7.7 0 1.1.3 1.3.5.1.1.1.2.2.3.2 0 .3.1.5.3.1.1.2.3.2.4h.4c.1-.1.1-.2.2-.3.1-.2.3-.5.6-.8.2-.2.5-.4.8-.5-.5-.7-1.4-2.3-1.1-3.2-1-1.1-1.8-2.9-1.3-4.2.1-.3.1-.6.1-.9 0-.4-.1-.9.1-1.3.3-.7 1-1.1 1.5-1.3.3-.1.6-.3.8-.5v-.2c0-.3.1-.6.2-.9l.1-.4c.3-.7.5-1.4.5-2.1-.4-.2-.4-.7-.4-.9v-.2c-.1-.1-.3-.3-.5-.4-.4-.3-.8-.6-1-1.4-.4-1.2-.3-2.2.2-3.3v-.1c-.2.4-.5.8-1.2.7-.1 0-.2-.1-.4-.1-.1 0-.4-.1-.4-.1s.1 0 .1-.1l-1-.1c-.1-.2-.4-.4-.6-.5l-.2-.1c-.5-.3-1.1-.7-1.5-.6-.1-.2-.4-.3-.7-.3zM1094.7 512.9l.1.1-.1-.1zM1117.7 442.1l.6-.5c-.1-.2-.3-.5-.2-.9-.1-.1-.2-.2-.3-.2l.3-1c.6-.2 1 .1 1.2.3l.2-.2c.4-.3.8-.3 1-.3l.1.3c.1 0 .1-.1.2-.1v-.2c-.1-.7.2-1.2.9-1.3.2 0 .2-.1.5-.4 0 0 0-.1.1-.1H1122c-.2 0-.4.1-.6-.1-.1 0-.1-.1-.2-.1l-.7-.2c-.1-.2-.3-.3-.6-.4-.2-.1-.5-.2-.8-.4-.3-.3-.4-.5-.4-.7-.1-.1-.4-.3-.7-.2l-.8-.4c-.1-.4-.3-.7-.4-1-.3-.7-.6-1.4-.6-2.3l.6-.4c0-.1 0-.4-.2-.5 0 0-.1-.1-.2-.1h-.2c-.8.4-1.2 0-1.5-.2-.1-.1-.2-.1-.2-.2h-.3c-.3.1-.7.2-1.2-.1-1.1-.5-1.7-1-2.3-1.7-.2.2-.5.3-.7.4-.1.1-.3.1-.4.2.1.3.2.9-.2 1.3-.1.1-.6.5-1.2.7-.4.1-.7.2-1.1.2H1106.8c-.1 0-.1 0-.2-.1h-.1c-.1.1-.1.3-.1.4-.2.4-.3.7-.7.9l-.3.1-.3-.2c-.2-.1-.3-.2-.5-.4l-.4-.4c0 .1 0 .1-.1.2l-1 .2-.1-.1-.3-.3c0 .1-.1.2-.2.3-.2.4-.6.7-1 .8-.7.1-1.2-.4-1.7-.8l-.3-.3c-.2-.2-.3-.2-.3-.2 0 .1-.2.4-.3.6-.1.2-.2.5-.3.6l-.1.1s0 .1.1.1c.5.5 1 1 1.6 1.5.2.2.4.5.5.7l.1-.2.7.3h.1c.1.2.1.2.2.3.2.1.3.3.5.6 0 0 0 .1.1.1v.1c0 .1 0 .2.1.3v.5c0 .3-.1.6 0 1.1.1.5.5 1 .9 1.4.1.1.2.2.4.3.1.1.3.1.3.1h.1c.7 0 1 .2 1.5.5 0-.1.1-.2.1-.3.1-.2.2-.3.4-.5.1-.1.1-.1.2-.1 0 0 .1 0 .1-.1 1.1-.5 1.9.1 2.5.5.1.1.2.1.3.2.3.2.8.5.9 1 0 .1.1.2.1.3 0 .3 0 .5-.1.6.3.1.5.3.6.7v.1c1.4.2 1.6 1.1 1.6 1.4 0 .5-.2.9-.6 1.2v.2c-.2.8-1.7 1.5-2.4 1.4 0 0-.1 0-.3-.1-.1 0-.3-.1-.4-.1.1.1.1.3.1.5s-.1.4-.3.5c0 0-.1 0-.1.1.2 0 .3.1.7.3.4.3 1.1.8 1.7 1.2.3.2.6.4.8.6.1 0 .5.1.8.2 1 .2 1.7.4 1.9 1 .1.3 0 .5-.2.7 0 .1.1.3.3.5.3.4.6.7.8.7.7.1 1 .7 1.2 1.2 0 .1.1.2.1.3v.1c.3.6.7 1.1 1.2 1.6.3.3 1.6 1.4 1.8 1.5.5.2 1 .8 1.4 1.5 0 .1.1.2.1.2l.1.1c.3.4.4.8.4 1.2 0 .2.1.5.2.6 0 0 .1.1.1.2s.1.2.2.3c.2-.1.5-.1.8.1l.1.1c.2.2.4.3.5.5 0 .1.1.1.2.1s.1.1.2.1h.1c.1 0 .1.1.2.1.1.1.2.1.3.3.3.3.8.8 1.3.9l.3.7.1.1s0 .1-.1.1c-.2.3-.5.5-.7.7-.1.1-.2.2-.3.2.2.2.6.4.8.6.3.2.5.4.7.5 0 .1.1.1.1.1.1.1.1.1.1.2.4.4 1 1 .6 2.1-.1.2-.1.3-.2.4-.1.1-.1.2-.2.2.1.1.2.3.2.6.1.2.1.5 0 .7 0 .4 0 .8-.1 1.2 0 .1-.1.3-.2.5-.1.1-.2.4-.2.5v.7c.2.3.4.6.5.8.1.2.1.3.1.5V475.8c.1.3.2.5.3.8l.2.3v.1c.2.4.4 1 .2 1.8-.1.5-.2.9 0 1.3l.3 1.2.1.4c.2.8.1 1.4-.2 1.8 0 .1-.1.1-.2.1-.4.4-1 .4-1.3.5h-.1c-.3.2-.5.4-.6.5-.1.1-.3.3-.5.4-.4.3-.7.5-1 .6h-.1c-.1 0-.2 0-.2.1h-.4V486.3l-.1.1-.6.8c-.2 0-.4-.1-.7-.3-.2-.1-.6-.3-.8-.3-.1.2-.3.3-.4.4 0 0-.1 0-.1.1s0 .1.1.2c.1.4.3.8.4 1.1 0 .1.2.2.4.3.4.2 1 .5 1.1 1.3l-.2.2-.1.1c.1.2.2.4.1.7l-.8.6c-.1 0-.2-.1-.3-.1-.2 0-.5-.1-.7-.2h-.1c-.1 0-.1-.1-.2-.1-.2-.1-.3-.3-.5-.5l-.1-.1c-.2 0-.4.1-.6.2-.3.1-.8.3-1.2.3h-.7c0 .3-.1.8-.5 1.2-.5.5-1 .5-1.4.6-.2 0-.4 0-.5.1h-.1l.3.1c0 .2.3.3.9.6.8.4 2 .8 2 2.1l-1.2.1s.1.1.2.1c.2.1.3 0 .3 0-.1.1-.4.6-.4.7-.1.4-.2.8-.2 1.4 0 .5.1.9.1 1.4 0 .4.1.8.1 1.2l.5.3c0 .1.1.3.1.4l.4-.4c.2-.2.3-.5.4-.7.3-.5.6-1.1 1.5-1.6.2-.1.4-.2.7-.3.4-.1 1.1-.4 1.1-.6 0-.1 0-.2-.1-.4-.1-.1-.1-.2-.2-.3-.2-.3-.5-.6-.7-.8-.3-.3-.6-.6-.8-.9l.8-.8c.3.2.6.5 1 1 .1.1.3.4.5.6.4.4.8.8 1 .8 0-.3-.8-1.2-1.2-1.5-.6-.6-.9-.9-1-1.3l1-.6c.1.1.2.1.3.2l.2-.4c.1 0 .2 0 .3.1l.2-.4.7-.8v-.3l.1-.1-.1-.2h.4l.4-.4c.4.1.9.3 1 .7h.5c0 .1 0 .1.3.3.1.1.2.1.3.2l.6-.3.6-.3c.5-.4 1-.7 1.6-.8 0 0 0-.1.1-.1.2-.4.3-.6.5-.8.4-.3.9-.5 1.5-.7l.1-.1c.1-.2.3-.5.7-.6.2-.1.5-.3.7-.5l.1-.1c.3-.1.4-.2.4-.2v-.1c0-.1 0-.3.1-.6s.3-.4.5-.5c.1-.1.2-.2.3-.2v-.1c0 .1.1.2.2.2l-.6-.8.1-.2c.1-.3.1-.5.1-.5l.2-.1c0-.5-.2-1.4-.4-1.6l.3-.6c-.3-.6-.5-1.5.4-2l.2.1v-.2c-.3-.5-.6-1-.8-1.7l-.1-.2c-.1-.2-.4-.6-.2-1-.1-.2-.2-.3-.3-.5l.2-.1c0-.1 0-.2-.1-.3-.1-.5-.2-.8-.2-1.1h.2v-.1c-.1-.3-.2-.6-.4-1v-.1c-.2-.5-.4-1.1-.6-1.6-.1-.5-.3-.9-.5-1.3-.1-.2-.3-.5-.4-.8-.3-.5-.6-.9-.7-1.5 0-.2 0-.4.1-.7 0-.1-.1-.1-.1-.2 0 0 0-.1-.1-.1l-.5-.1c-.1-.2-.6-.7-.9-1.1-.8-.9-1.7-1.8-1.7-2.6l-.2-.2v.1-.1c-.1.1-.1.2-.1.2 0-.3-.5-.9-.8-.9l-.9-.1c-.5-.7-1.2-1.2-1.8-1.6l.1-.2c-.6-.7-.9-.8-1-.8l-.8-.8c.2-.3-.9-1.1-1.3-1.3-.2-.1-.4-.3-.5-.4-.4-.3-.6-.7-.9-1-.4-.5-.7-1-1.2-1l.1-1.2h.1c0-.2-.1-.4-.2-.5-.4-.4-.9-.7-1.3-1-.6-.4-1.1-.8-1.4-1.3l-.3-.6c0-.1-.1-.2-.1-.2 0 .1.2.2.4.2s.4-.1.4-.2l-1.2-.1c0-.2-.1-.4-.3-.6-.3-.4-.8-1-.2-2 .2-.4.2-.7.1-1.2 0-.3-.1-.7 0-1.1.1-.9.4-2.1 1.3-2.6l.8.2c-.1-.2-.4-.2-.4-.2.2-.1.9-.8 1-1h.1l-.1-.4c.4.3.4-.4.3-.7z"/>
        <path class="st4" d="M1125.4 492.2c-.1 0-.2.1-.3.1h.1l.2-.1zM1114.4 493c.1 0 .1-.1.2-.1.3-.1.6-.3.9-.3 1.1-.1 1.1-.2 1.1-.6 0-.3 0-.6.2-1 0-.1.1-.1.1-.2 0 0 0-.1.1-.1h.9c.3.3.6.2 1.4-.1l.9-.3h.3c.1 0 .2.1.3.1.1.1.2.1.2.2l.1.1.1.1.1.1c0 .1.1.1.2.1 0-.1 0-.2.1-.2-.1 0-.2-.1-.3-.2-.3-.2-.6-.4-.9-.7-.1-.1-.2-.3-.2-.5-.1-.3-.2-.6-.3-.8v-.2c0-.1-.1-.2-.1-.3v-.2c0-.6.4-.9.6-1 .1-.1.2-.1.2-.2.4-.7 1.3-.5 1.9-.3v-.2l.3-1h1.2c.2-.1.5-.4.7-.5.1-.1.2-.2.3-.2.1-.1.2-.2.3-.2.2-.2.5-.5.9-.6.1 0 .3-.1.5-.1s.4-.1.5-.1c.2-.2 0-1.2-.2-1.8-.2-.6-.3-1.2-.3-1.7 0-.2.1-.5.1-.7.1-.4.1-.6.1-.9-.1-.2-.1-.3-.2-.5v-.1l-.2-.4c-.2-.4-.2-.7-.2-.9v-.1c0-.1 0-.2-.1-.3-.1-.1-.1-.2-.2-.3-.2-.3-.4-.5-.5-1.2 0-.3 0-.6.1-.8-.1.1-.3.1-.4.2-.1 0-.1.1-.2.1s-.2.1-.4.1c-1.1.3-1.8-.4-2.2-.8-.1.1-.2.1-.3.2-.1 0-.1 0-.2.1-.1 0-.2.1-.3.1-.1.1-.2.3-.3.4-.1.1-.2.1-.3.1.3.4.8 1.2.1 1.9-.2.2-.5.3-.9.3h-.1c-.3 0-.6-.2-.8-.3 0 0-.1 0-.1-.1-.1-.1-.3-.2-.4-.4-.1-.1-.7-.3-1.2-.2-.5 0-1.1-.3-1.4-.7h-.4c-.5-.1-.8-.6-.9-.7-.1-.2-.4-.2-1.1 0-.5.1-1 .2-1.4.1-.3-.1-.6 0-.9 0-.1 0-.3.1-.4.1H1110.3c-.1 0-.2-.1-.3-.1-.1-.1-.3-.1-.4-.1-.5 0-1.2.2-1.8.4-.7.3-.9 1-1.2 1.7l-.1.4c-.2.5-.5.9-.9 1.2l-.1.1-.1.1-.1.1s-.1 0-.1.1c-.1 0-.1.1-.2.1s-.1.1-.2.1v.4c0 .2 0 .4.1.7 0 .1.1.3.2.4.1.1.1.3.2.4.2.3.4.7.5 1 .2.4.3.7.6 1 .3.4.6.8.7 1.2 0 .1.1.2.1.4 0 .3.1.6.1.9 0 .5.2.9.4 1.3.1.2.2.4.3.5.2 0 .3.1.5.1l-.2 1.1.1-.1c.1-.1 0-.2 0-.2 0 .1.2.3.3.4.6.4.5 1.1.4 1.4v.3c.1.3.1.5 0 .8v.4c.1 0 .2-.1.3-.1.1-.5.3-1 .8-1.2.2-.1.5-.1 1 .2.4.3.8 1.1.8 1.8 0 .5-.2.8-.3 1l1-.4c.1.2.8.4 1.1.5.1.3.3.3.6.4-.1 0 0 0 0 0zM1094.8 498.4v.2l.1-.1-.1-.1zM1105.8 516.3v.1c-.2.6-.6 1.6-1.4 1.8-.7.1-1-.4-1.2-.7l-.1-.1c-.1.1-.3.3-.4.5l-.3.3-.1.1c-.2.2-.5.4-.8.4-.2 0-.4 0-.5-.1-.2-.1-.4-.2-.5-.3-.1-.1-.2-.2-.2-.3-.3-.6-.1-1.4.2-1.9v-.1c0-.2-.3-.4-.4-.4-.6-.1-.8-.6-.9-.9-.1-.3-.1-.3-.2-.3h-.1c-.4 0-.7-.1-1-.2h-.1c-.1 0-.1-.1-.2-.1s-.1-.1-.2-.1v.2c.1.2.2.5.3.7.4.8.9 1.7.9 2.8v.4c0 .7 0 2.5.3 3 1 1.2 1.3 2.5.9 3.6 0 .3.4 1.1.7 1.2l.2 1c.2.2.4.3.5.6.2.4.5.8.9 1.3s.9.9 1.1 1.5c.2.5.6 1.3.2 1.9.2.1.3.3.4.4.2.2.3.3.5.4h.1c.3.1.8.2 1.1.8.2.4.9 1.1 1.4 1.4.1.1.4.2.6.2.4.1.8.2 1.1.6l.4.4c.1.1.2.3.4.4.3.3.8.5 1.2.8.8.4 1.7.9 2.2 1.8.4-.2.9-.5 1.4-.5l1.1-.5s0 .1.1.1c-.1-.4-.3-.8-.5-1.1-.3-.6-.6-1.2-.8-1.9-.1-.5-.5-.8-1-1.2-.4-.3-.8-.7-1-1.1-.5-.8-.4-1.7-.4-2.5 0-.5.1-1-.1-1.4-.1-.2-.1-.3-.1-.4-.2-.5-.3-.8-.1-1.6.1-.6.2-1.2.2-1.9.1-1.3-.3-2.6-1.1-4.2-.6-1.3-1.6-2.1-2.9-3.1-.4-.3-.6-.7-.8-1.1-.1-.2-.2-.3-.3-.5-.1-.1-.2-.2-.4-.3-.2-.2-.2-.1-.3.1zM1115.7 539.2v-.1h-.1l.1.3s.1-.1 0-.2zM1116.3 542.5l.2-.1v-.1h-.1c-.1.1-.1.1-.1.2zM1095.5 498.5l.1.1v-.2l-.1.1zM1095.7 497.3v-.3l-.2-.2v.3l.2.2zM1095 514.3c.1-.1.1-.1 0 0zM1095.2 513.2c0 .1 0 .2.1.3l-.1.1h.3c-.1-.2-.2-.3-.3-.4z"/>
        <path class="st4" d="M1091.3 499.1c.1-.1.1-.2-.1-.5-.1-.1-.1-.2-.2-.4-.3-.6-.2-1.4-.2-2 0-.6.1-1.2-.2-1.6l.6-1c-.1 0-.2.1-.3.2v-.3c0-.3 0-.5.1-.8.4-.8.5-1.5.7-2.4-.1.1-.1.2-.2.2-.4.5-.8 1.1-1.3 2-.1.1-.1.2-.1.4 0 .3.1.6-.1 1-.1.3-.2.6-.3 1-.1.4-.2.8-.5 1.2-.4 1.9-.8 3.9-1.1 5.9-.2 1.1-.2 1.8 0 2.2.1-.2.3-.5.7-.6 1-.2 1.4.7 1.5 1v.1c.1.1.1.3.1.4v.1c.5.1.7.3 1 .7.3.4.3.7.3.9.2 0 .5.1.7.3.4.4.5.8.6 1.2 0 .2.1.4.2.5l.5-.3c.4.3.5.7.6 1.1 0 .1.1.3.1.3l-.1-.1.7.9c-.1.1-.1.2-.1.2 0 .3.5.7.9 1.1.1.1.3.2.4.4 0-.1.1-.1.1-.2.1-.1.3-.2.4-.2.3-.1.6.1.8.3.1.1.1.2.2.2.1.1.1.2.2.2s.1.1.2.1c.2.1.4.1.6.1.2 0 .4.1.6.1.5.2.7.6.9.9 0 .1.1.2.1.2s.2.1.3.1c.4.2 1.2.6 1 1.6 0 .1-.1.3-.1.4-.2.4-.2.7-.2.8h.1l.1-.1s.1-.1.1-.2c.3-.4.6-.8 1.3-.9.2 0 .4 0 .6.1.3.1.5.4.6.5.3-.4.6-1.2.5-1.4-.1-.1-.2-.3-.6-.5l-.2-.1c-.4-.4-.7-.8-.9-1.2-.2-.4-.4-.7-.6-.9-.3-.2-.6-.2-1.1-.1h-.7c-1 0-1.4-.5-1.8-1-.1-.1-.2-.3-.4-.4 0 0-.1 0-.2-.1-.2 0-.5-.1-.7-.3-.4-.3-.7-.6-1-1-1.1-1.7-.8-2.4-.3-2.7.1-.1.3-.1.4-.2-.1-.3-.1-.6-.2-.9l-.3-1.2h-.1c-1.2-.3-1.6-3.7-1.6-3.7-.1-.6-.2-.7-.2-.7s-.2-.1-.9.3c-.5.2-1.4.2-1.8-.3-.2-.1-.3-.5-.1-.9zM1114.1 541.9c-.1.1 0 .1.1.2s.1.1.2.1c-.2-.1-.3-.2-.3-.3zM1114.9 541.2c.1 0 .1 0 0 0 .1.1.1.1.2.1 0-.1 0-.1-.2-.1zM1115.3 542.5l-.2-.1c0 .1 0 .2.1.2l.2.2-.1-.3zM1110.5 491.3c0 .2-.1.3-.1.4l-.5.1c.1.1.1.3.1.5.1-.2.3-.4.4-.5l.2-.2c0-.1-.1-.4-.2-.7.1.3.1.4.1.4zM1105.9 483.9c0-.1 0-.1-.1-.2-.8-1.2-1.4-2.3-1.9-3.4 0-.1 0-.1-.1-.2-.1-.2-.2-.5-.3-.7h.1v-.2h-.1c0-.3 0-.7-.1-1.1l.1-.1.4-.7h.2c.1 0 .2 0 .3-.1.6-.3 1-1.2 1.3-2 0 0 0-.1.1-.1.1-.2.1-.3.2-.4.4-.9 1.5-1.5 2.3-1.7.9-.3 1.8-.2 2.3.2h.1c.1 0 .4 0 .7-.1l.2-.1c.4-.1.6 0 .9 0 .2 0 .5.1 1.2 0h.5c.4-.1.7 0 .9.1h.1c.1 0 .1 0 .2.1l.1.1c.1 0 .1.1.2.1.1.1.2.2.2.3l.1-.1c0-.1.1-.1.2-.2l.2-.2c.3-.2.6-.4.6-.6v-1.5h-.1c-.2-.2-.5-.5-.5-1.1 0-.2.1-.4.1-.5l-.1-.1v-.2c-.1-.4.1-.8.3-1 .1-.1.2-.3.2-.4l-.1-.1s-.2-.2-.4-.2c-.1-.1-.2-.1-.3-.2h-.1l-.1-.1c-.1-.1-.2-.1-.3-.2l-.3-.3c-.1-.1-.1-.2-.1-.4v-.2c-2-.9-3.1-2.2-3.3-3.9-.1-.4-.1-.9-.1-1.3 0-1.4-.1-2.2-.8-2.7-.8-.5-1.3-1.2-1.8-1.9-.6-.8-1.1-1.6-1.9-1.7-1.2-.3-1.7-.3-1.9-.3l-.1.2-.1.4h.2c-.1.1-.2.3-.2.4-.1.4-.3.8-.7 1-.1 0-.2.1-.3.1h-.1c-.1 0-.4.1-.6.3-.2.2-.4.2-.7.3H1102.5c-.1 0-.1-.1-.2-.1h-.1c-.1 0-.1-.1-.2-.1-.1-.1-.2-.1-.3-.2-.7-.1-1.2-.5-1.5-.8l-.2-.2c-.2.3-.4.6-.9.7-.3.7-.9 1.3-1.4 1.8l-.2.2-.3.3-.2.2c-.2.3-.5.4-.8.4-.4 0-.8-.2-1.2-.6-.6-.7-.2-1.7 0-2.2.2-.6.3-.9.2-1.5 0-.1-.1-.3-.2-.5-.2-.4-.3-.8-.3-1.2l.1-.2c.1-.1.1-.2.2-.3.1-.1.1-.2.2-.3 0-.1-.1-.2-.1-.4V451.7c0-.2 0-.4.1-.6.1-.4.1-.6-.1-.9-.2-.4-.3-.9-.4-1.3 0-.2-.1-.6-.2-.7 0 0-.1-.1-.5.1h-.2c-.1.2-.2.3-.4.4-.3.1-.5 0-.6 0-.2 0-.5 0-.8-.1h-.1c-.3-.1-.6-.4-.8-.8-.1-.1-.1-.2-.2-.3v-.1c-.3-.7 0-1.3.2-1.7.1-.1.2-.4.2-.4l-.1-.1c-.3-.4-.5-.7-.7-.8-.1.1-.4.3-.7.4l-.8-.5-.1-.3c-.1 0-.4.1-.7.2-.1 0-.3.1-.4.1v.4c0 .2-.2.5-.6.6-.5.2-1 .2-1.4.2V446.4c-.1.4-.3.6-.7.7H1084.8c-.2 0-.4 0-.5-.1-.1 0-.2.1-.2.1-.3.2-.6.3-1 .4 0 0-1-.1-1.8-.3-.6.8-.6 1.1-.6 1.1 0 .1.1.2.1.3.1.2.1.3.2.5.1.4-.1.7-.2 1.1 0 .1-.1.4-.1.4 0 .1.1.2.2.4.2.4.5 1.1.1 1.8l-.1.1s0 .1-.1.1c0 0-.1 0-.1.1-.2.2-.4.3-.7.4l.7.6v.1c0 .1.1.2.2.3l.1.1c.3.4.3.9.4 1.2 0 .2 0 .3.1.4.2.5.8 1.1 1.2 1.6l.7.7c.2.2.4.4.7.6.4.3.8.7 1.2 1.3.1.1.2.3.2.4v.1l.3.9c.1.4.2.7.3 1l.4-.1.5-.1.1.1c.3.3.5.8.5 1.2 0 .5-.2 1.1-.6 1.4-.2.2-.5.3-.7.3v.4c.1.7.3 1.6.3 2.2-.1.5-.5.8-.7.9l-.1.1c.1 0 .1-.1.1-.2l-.9.6h-.1s.2-.1.3-.2v.1h.1l-.1.2c-.1.4.1 1 .5 1.6.5.8 1.2 1.5 1.9 2.2.5.5.9.9 1.3 1.4.2.2.3.4.4.6.1.1.2.3.3.4.1.1.1.3.2.4 0 .1.1.1.1.2v.1c.1.2.2.5.3.7v.1c.2.6.2 1.3.1 2 0 .2 0 .3-.1.4v.4c0 .1.1.2.1.4l.2.4c.2.5.3.7.6 1.2.5.7.8 1.3.9 2.1 0 .4.4 1.1.6 1.6 0-.1.1-.2.1-.2.1-.1.1-.2.2-.3.1-.2.2-.4.3-.5.1-.4 0-.7-.2-1.2-.1-.5-.3-1.1-.2-1.7 0-.2.1-.4.1-.6.1-.6.2-.9-.1-1.4-.3-.5-.3-1-.1-1.3.3-.6 1.1-.7 1.7-.8.2 0 .6-.1.7-.2 0 0-.1.1-.1.2l1.2-.3c.1.2.7.3.9.2l1 .4c.1.4 0 .8-.1 1-.1.2-.1.3-.1.5s.1.5.1.7v.5c0 .3 0 .6-.1.8v.2c.5-.1 1 .1 1.4.2.1 0 .3.1.4.1.1 0 .3-.1.5-.2.1-.1.2-.1.3-.2.8-.4 1.5.3 1.7.6l.1.1c-.1-.1-.3-.1-.5-.1-.3.1-.3.3-.3.4l1.2-.3c.1.2.5.8.7.9-.1 0-.2-.1-.4 0s-.2.2-.2.3l.8-.2s.1 0 .1-.1l.1.2h.1v.2l.3.5c0-.1 0-.1-.1-.2.1.1.3.2.4.3 0 0 .1 0 .1.1l.4-.3c.1 0 .1 0 .1.1.8-.2.8-.3.8-.4zM1108 487.7h-.2l-.1.1c.1.1.3 0 .3-.1zM1108.9 492.3c0 .1 0 .2.1.3 0 .1.1.1.1.1l-.1-.3-.1-.1zM1108 487.7z"/>
        <path class="st4" d="M1091.1 442.7c.3.1.6.4 1.2 1.2.1.1.1.2.2.2.6.6.2 1.4 0 1.8-.1.1-.1.2-.1.3v.4l.4.4h.4c.1-.1.2-.2.4-.3.2 0 .2-.1.3-.1.2-.1.6-.2 1-.1 1 .1 1.2 1.1 1.4 2 .1.4.2.9.4 1.3s0 .8-.1 1.1c0 .1-.1.2-.1.3v.1c.1.3.1.5.1.6v.1c0 .3-.2.5-.4.8l-.1.1c0 .1.1.2.1.3.1.2.2.4.2.7 0 .1 0 .2.1.3.1.4.2.8 0 1.4-.4 1.2-.4 1.6-.3 1.7h.1c.5-.4 1.7-1.7 1.9-2.4l.8-.3h-.1s.1-.1.1-.2c.2-.3.5-.7 1-.7h.2c.4.1.7.4.9.6l.3.3c.1 0 .2 0 .3.1.4.1.8.2 1 .6.1 0 .1-.1.2-.1.2-.2.5-.4.9-.4 0-.1.1-.1.1-.2.1-.3.2-.6.4-.8-.1-.3 0-.5.1-.6l.1-.1c.1-.2.3-.3.6-.4h.2c.9-.1 2.2.2 2.2.2 1.2.3 1.9 1.3 2.6 2.3.5.7 1 1.4 1.7 1.7 1.2.6 1.2 2.3 1.2 3.5 0 .6 0 1.2.1 1.6.3.8.4 1 .8 1.4.9.8 1.3 1.1 2.3 1.5l.1.9.1.1c.1.1.3.2.4.2.2.1.3.2.4.3.4.3.6.7.5 1.1V467.8c-.1.3-.2.7-.3.8v.1l.3.3c-.1.1-.1.2-.2.4-.1.1-.2.3-.2.3l.1.1c.2.2.5.5.4 1v.7c0 .8.1 1.7-1 2.4-.1 0-.1.1-.1.1.1.1.3.1.7.2.6 0 1.4.1 1.9.9H1119.6c-.1 0-.1-.1-.2-.2-.2-.3-.6-.7-.5-1.2 0-.2.1-.5.5-.7h.1c.2-.1.3-.2.4-.1.1-.1.2-.3.4-.3.2-.1.4-.1.6-.1.1-.2.3-.4.6-.5H1121.8c.4.1.7.4 1 .6l.2.2c.2.2.5.2.8.2.6-.1 1.3-.7 1.7-1.2v-.4c-.2-.2-.4-.4-.4-.7 0-.4.3-.6.4-.8l.1-.1.1-.1.1-.1c.1-.3-.1-.6-.4-.9l-.1-.1c-.2-.2-.4-.4-.7-.6l-.1-.1c-.5-.3-1.3-.8-1.2-1.6 0-.5.4-.8.7-1.1-.4-.3-.9-.6-1.2-1-.2 0-.6-.1-.9-.6-.2.1-.6.1-.9-.1-.6-.3-.9-1.4-1-1.7-.1-.5-.2-.8-.4-1.2 0-.1-.1-.1-.1-.2-.2-.3-.5-.7-.8-.9 0 0-.2-.1-.3-.2-.3-.1-.6-.3-.9-.6l-.6-.6c-.5-.5-1-1-1.5-1.6-.2-.3-.3-.5-.4-.8 0 0 0-.1-.1-.1l-.1-.2s0-.1-.1-.1v-.1c-.1-.1-.1-.2-.2-.3l-.1-.1c-.2 0-.3-.1-.5-.2h-.1l-.3-.3c-.2-.2-.5-.4-.7-.7l-.1-.1c-.2-.3-.6-.9-.5-1.5-.2-.1-.5-.2-1.1-.3-.9-.2-1.5-.7-2.1-1.3-.5-.4-1-.8-1.4-.9-.1 0-1.2-.4-1.3-1.1 0-.2 0-.6.5-.9-.2-.2-.4-.5-.4-.8v-.3s0-.1.1-.1c0 0 0-.1.1-.1l.1-.1.1-.1h.1c.1 0 .1 0 .2-.1H1107.4c.4 0 .9.1 1.4.3H1109.1l.6-.3c.1-.1.1-.1.2-.1l-.2-.4c.1-.2.3-.3.5-.5 0 0 .1-.1.2-.1l-.1-.1c-.1-.1-.2-.1-.3-.1-.8.1-1-.6-1.1-.8 0-.1 0-.1-.4-.2-.2 0-.4-.1-.6-.2l-.4-.7v-.1c.1-.4.4-.6.7-.7-.1-.1-.2-.2-.4-.3-.1-.1-.2-.1-.3-.2-.1-.1-.2-.2-.3-.2-.3-.3-.5-.4-.7-.3-.2 0-.3.1-.3.1l-.1.1v.1c0 .1-.1.1-.1.2-.1.2-.2.5-.4.7l-.8.2-.3-.2c-.2-.2-.8-.5-1-.5-.3.1-.7 0-1-.2-.4-.2-.8-.5-1.2-.9l-.5-.5c-.4-.6-.8-1.9-.5-2.7l-.2.2-.4-.1c-.1 0-.3-.1-.4-.2-.2-.1-.3-.3-.4-.5-.1-.1-.2-.3-.2-.4-.1-.2-.2-.4-.3-.5-1.1-.9-1.8-1.6-2.1-2.2h-.1c-.1 0-.3 0-.5.1-.1 0-.4.1-.7-.1 0 .4.1 1.1.3 1.4.1.1.2.2.2.3.2.3.5.7.7 1.2.1.2.2.3.3.5l.1.2c0 .3-.1.6-.1.8 0 .1-.1.1-.1.2 0 0 .1.1.1.2.2.4.6 1.1.1 1.6s-1.1.2-1.4 0c-.1 0-.1-.1-.2-.1s-.1-.1-.2-.1c-.9.3-1.4.2-1.8-.7 0-.1-.1-.1-.1-.2v-.1c-.1.1-.2.1-.3.2l-.1.1h-.1c-.1.1-.4.2-.4.3-.1.2-.5 1.2-.5 1.4l.3.2c0 .2-.1.4-.2.5-.3.4-.9.4-1.2.5h-.3l-.1.1V442.8c.7-.1.9-.1 1.1-.1zM1122.6 491.6l.1-.1s0-.1.1-.1l-.2.2c-.1 0-.1 0 0 0z"/>
    </g>
</svg>
