<svg xmlns="http://www.w3.org/2000/svg" viewBox="0 0 1440 980" style="enable-background:new 0 0 1440 980" xml:space="preserve">
    <style>
        .st0{display:none}.st1{display:inline}.st2{fill-rule:evenodd;clip-rule:evenodd;fill:none;stroke:#bcbcbc;stroke-width:.75;stroke-miterlimit:1.2402}.st4,.st5{fill:#bcbcbc}.st5{display:inline}
    </style>
    <g id="Layer_4">
        <path class="st4" d="M1384.6 653c-.1.1-.1.1 0 0-.1.1 0 .1 0 .1v-.1zM1394.6 625s0 .1-.1.1h.2l-.1-.1zM1390 624.8c.2-.3.2-.6.1-1-.2.2-.5.4-.9.3-.1 0-.1 0-.2-.1 0 .1-.1.3-.1.4-.1.2 0 .4.1.7 0 .1 0 .2.1.2.4 0 .7-.2.9-.5zM1389.9 626.4zM1391.4 629.5c0 .1-.1.2-.1.3v.3c.2 0 .4-.1.5-.2l-.4-.4zM1393.3 619c-.1-.1-.2-.1-.3-.1l.1.2c.1.1.3.1.3.1-.1-.1-.1-.1-.1-.2zM1397.1 649.6c.1 0 .2-.2.2-.3v-.2l-.3.5h.1zM1397.1 648.9l.1.1-.1-.1zM1395.5 642.3zM1392.6 637.1c.1 0 .1 0 .2.1l-.4-.3.2.2zM1393.5 636.6l-.1.6.1-.6zM1393.6 636.5s.1-.1 0 0c0-.1 0-.1 0 0zM1390.1 628.1h.2s0-.1-.1-.1l-.1.1zM1383.7 661.8c.1-.1.2-.2.2-.4 0-.1-.1-.2-.1-.2v.1l.1.1-.3.4-.1.1s.1 0 .2-.1zM1372.4 650.3V650.6c0 .1.1.2.1.3.1.2.2.4.3.7.2.2.3.5.4.7.2.4.4.7.7.9.4.3.5.7.5 1v.2l.2.2c.2.2.6.4.7.9 0 .2.3.4.7.6.2.1.5.3.7.5.5.5 1.1.8 1.7 1.1l.3.1.1 1 .2.1.3.2c.1 0 .2-.1.3-.1h.1c.4 0 .7.3.9.5l.1.1h.1c.1 0 .3-.1.4-.1 0 0 0-.1-.1-.2 0-.1-.1-.1-.3-.3-.1-.1-.3-.2-.4-.3-.4-.3-.6-.7-.8-1-.1-.1-.2-.3-.3-.4-.3-.4-.7-.6-1.1-.9-.4-.3-.8-.5-1.2-.9-.6-.6-.9-1.3-1.3-2.1-.2-.5-.3-.6-.6-.8-.1-.1-.3-.2-.5-.4-.4-.3-.7-.7-.9-1.1-.2-.4-.4-.7-.7-.8H1372.4zM1392.2 606.1h-.2s.2.1.2 0zM1320.1 784.7H1320.4l-.1-.2-.2.2zM1320.6 784.8c0 .1.1.1.1.1l-.1-.1zM1320.7 778.3l-.1-.4c0 .1-.1.2-.1.3 0 .1.1.2.1.3v-.2zM1322.8 777.3l-.2-.3v.1c0 .1.1.1.2.2zM1322.4 776.8zM1322 776.7zM1386.1 728.3v-.1l-.1-.1.1.2z"/>
        <path class="st4" d="m1365.5 755.7-.6.3c-.5.3-1.3.8-2.1.5l-.3-.8c.1-.3.3-.5.6-.8.1-.2.3-.4.5-.6-.2 0-.4-.1-.6-.2-.2-.2-.3-.4-.3-.6-.5.3-1.1.6-1.4.9-.4.3-.7.7-1 1.2l-.3.4c-.5.7-1.1 1.1-1.7 1.6-.2.1-.3.2-.5.4-.8.6-1.5.8-2.3 1l-.3.1c-.5.2-1 .7-1.4 1.2l-.3.3c-1.5 1.6-4 .9-5.7 1.9-.7.4-1.5.8-2.5 1.1-.5.2-1 .4-1.5.7-.3.2-.7.4-1 .5-1.6.8-3.5 2.7-5.7 3.5-.7.3-1.5.5-2.2.8-1.2.4-2.2.7-3.3 1.3-.1.1-.3.1-.5.2-2.2 1.1-1.3 1.5-1.3 1.6l-1.1.4s.1.1.2.1c-.2 0-.6.3-.8.5-.3.2-.5.3-.7.4-1.3.5-1.5 1.7-1.6 1.8 0 0 .1-.2 0-.3l-.8.8c-.1 0-.3 0-.7.3-.1.1-.4.2-.4.3 0-.1.1-.2 0-.4 0-.1-.1-.2-.2-.3v1.4c-.1.2-.2.6-.6.8l-.3-.3h-.1l-.3-.3-.2.2.2.5c-.2.1-.4.1-.6.2l.1.3c-.1 0-.1.1-.2.1-.1.4-.7.6-1.5.8 0 .2-.1.3-.1.4l.1.5c-.2.1-.4.1-.6.2.4.1.8.1.9 0 .6-.5 1.4-.5 1.8-.1.1.1.3.3.3.6.2 0 .5-.1.7 0 .4.1.6.4.7.5.1.2.1.3.1.5h.8c.3 0 .5.2.6.5.8 0 1.6-.3 2.5-.6.4-.1.9-.3 1.3-.4l.3-.3c.2-.2.4-.4.6-.5.3-.1.6-.2.8-.3.4-.1.7-.3 1-.5.2-.1.3-.2.4-.3.4-.3.8-.6 1.4-.8.2 0 .4-.1.6-.1h.2l-.1-.2c.9-.4 1.7-1.1 2.5-1.9.5-.5 1-.9 1.5-1.3.3-.2.6-.4 1-.6.4-.2.7-.4 1-.7.3-.3.6-.6.9-1 .3-.4.6-.7.9-1.1 1.1-1 2.5-1.6 3.8-2.1.3-.1.5-.2.8-.3.3-.1.7-.3 1.1-.4.5-.1.9-.3 1.3-.5.1 0 .2-.1.3-.2.5-.3 1.5-1.1 2.3-.1v.1c.2.1.5.1.6.1-.1 0-.2-.1-.4-.2l.1-1.2c.2 0 .3-.3.5-.6s.4-.7.7-.9c.6-.5 1.4-.9 2.2-1.2.4-.2.8-.3 1.2-.5.6-.3 1.1-.8 1.7-1.3.2-.2.4-.4.7-.6.5-.4 1.1-.7 1.7-1 .2-.1.5-.2.7-.3.5-.3.8-.5 1.1-.9.4-.5 1-.8 1.5-1 .3-.1.5-.3.7-.4.2-.1.3-.4.4-.8.1-.4.2-.8.5-1.2l-.3-.7c.1-.1 0-.1 0-.1zM1383.5 734.5l.2.1c-.1-.1-.2-.1-.2-.1zM1384.7 731.6c0-.1.1-.2.2-.2v-.1c-.1.1-.3.1-.4.1l.2.2zM1384.5 731.3c0-.1-.1-.1 0 0zM1395.1 738.3l-.2.1c-.3.2-.6.3-.8.5-1.2.7-2.5 1.6-4.2.9-.9-.4-3.1-1.4-3.2-2.3 0-.3.1-.5.5-1.4.3-.6.8-1.9.8-2.2 0 0 0 .2.2.3.1.1.3.1.3.1l-.4-.7-.2.2c-.1.2-.1.4-.2.6-.2.6-.5 1.6-1.6 1.8-.3 0-.6 0-.7-.2-.3-.4-.2-1-.1-1.4-.2-.1-.4-.1-.6-.1.1.3 0 .7-.3.9-.3.3-.8.5-1.3.4v.1c0-.1-.1-.1-.1-.2h-.1l.1 1.2c-.1 0-.2.3-.4.7-.1.2-.1.5-.2.7-.1.5-.4.7-.6.8l-.2.2c-.1.1-.1.3-.2.4-.1.3-.2.7-.4.9l-.2.2h-.6l-.7.7c-.3.3-.5.7-.8 1.1-.5.8-1 1.5-1.9 2.1-.6.4-1.4.6-2.1.7-.6.1-1.2.3-1.6.5-.3.2-.6.5-.7.9 0 0 .2.1.3.2.2.1.4.2.6.4.2.2.3.4.5.6.2.3.3.4.7.6.5.2.8.5 1 .9.2.5.2 1 0 1.6-.6 1.5-1.9 2.5-3.1 3.4l-.3.2c-.2.1-.3.3-.4.4-.3.3-.7.7-1.3.9-.2.1-.4.1-.5.2.1 0 .2 0 .2-.1l.9.4c0 .2.1.4 0 .6.5-.2 1.2-.6 1.5-.8.1-.1.3-.2.3-.2 1.4-.8 2.6-1.7 4-2.8l.3-.3c.6-.5 1.2-1 1.9-1.2.2-.1.4-.3.6-.5l.6-.6c.3-.2.5-.4.8-.5.3-.2.7-.4 1-.6l.9-.9c.2-.2.4-.5.6-.7 0-.1 0-.1-.1-.2-.2-1.1 1.9-2.5 2-2.6.5-.3 2.8-1.4 3.9-.6 0 0 .1 0 .1.1.1-.1.1-.2.2-.3.3-.6.6-1.3 1.4-1.7.3-.1.5-.2.8-.3.2-.1.4-.1.5-.2.5-.2.7-.6 1.1-1 .1-.1.2-.3.3-.4.2-.3.4-.6.6-.8.5-.7 1.1-1.4 1.8-2 .2-.4-.6.1-1 .3zM1383.8 733h-.4v.4c.1-.2.2-.3.4-.4-.1 0 0 0 0 0zM1383.1 725.6l1.2.1c0 .8-.6 1.2-1 1.4-.4.2-.4.2-.4.4 0 .5.1 1 .2 1.6 0 .2.1.3.1.5l.1-.1c.2 0 .4.1.5.2h.5c.1 0 .1-.1.2-.1l.4.5.3.4-.2.2.1.4c.1-.1.2-.2.3-.2 0 0 .1 0 .1-.1-.3-.7-.4-1.3-.3-1.8l-.1-.1c-.1-.1-.2-.4-.1-.8.1-.3.3-.5.6-.5.2-.1.5 0 .7.1.1-.3.2-.7.2-1h-.5l-.5-.8v-.2c0-.2 0-.4.1-.6 0 0 0-.1-.1-.1 0-.1-.1-.1-.1-.2.1.1.2.1.3.1l-.9-.6c-.1.1 0 .3 0 .4-.1-.1-.3-.1-.4-.2 0 0-.1 0-.1-.1l-.4.4-.3-.3c-.1.3-.2.6-.4.8l-.3.3v.2c.1-.1.2-.1.2-.2zM1385.9 732.9s-.1 0-.2.1l.2-.1zM1385.3 733.2z"/>
        <path class="st4" d="M1386.2 728.6v-.1h-.1l.1.1zM1384.8 723.5l-.1.6c0-.1.1-.2.1-.3.1-.1.1-.2 0-.3z"/>
    </g>
</svg>