<svg xmlns="http://www.w3.org/2000/svg" viewBox="0 0 1440 980" style="enable-background:new 0 0 1440 980" xml:space="preserve">
    <style>
        .st0{display:none}.st1{display:inline}.st2{fill-rule:evenodd;clip-rule:evenodd;fill:none;stroke:#bcbcbc;stroke-width:.75;stroke-miterlimit:1.2402}.st4,.st5{fill:#bcbcbc}.st5{display:inline}
    </style>
    <g id="Layer_9">
        <path class="st4" d="M280.9 505.2h-.3l-.1.2c.1 0 .3 0 .4-.2zM300.4 508.8c.1-.2.1-.3.1-.4 0-.3 0-.6.3-1 0 0 0-.1.1-.1h.9c.1.1.1.2.2.3.7-.6 1.2-1.3 1-1.9 0-.1-.1-.1-.1-.2-.1-.1-.1-.3-.2-.4 0-.1-.1-.2-.2-.3-.3-.4-.5-.9-.4-1.6-.7-.4-1.3-1.2-1.8-1.9-.2-.3-.4-.5-.5-.6-1-1-2.8-1.3-4.1-1.2l-.4-.6c-.2 0-.5-.1-.7-.1-.3-.1-.6-.1-.9-.1-.2 0-.3.1-.6.4-.1.1-.2.2-.3.4-.7.7-1.8 1.1-2.7 1.4-.2.1-.4.1-.6.2-.5.2-.9.4-1.3.7-.9.6-1.9 1.2-3.2 1-.6-.1-1.1-.6-1.5-1.1l-.2.3h-.6c-.6 0-1.2 0-1.6-.5-.2-.2-.3-.5-.3-.8-.3-.1-.4-.3-.4-.5V499.3c0-.1-.1-.1-.1-.2-.2.1-.4.1-.8 0-.1 0-.1-.1-.2-.1 0 .2-.1.4-.1.5-.1.3-.2.6-.2.7 0 0 .2.1.3.1.3.2.7.5.6 1 0 .1 0 .1-.1.2-.1.4-.5.6-.6.7v.3c.1.3.2.8-.1 1.3.2 0 .3 0 .4.1h1.3l-.1-.1c.3 0 .8.1 1.1.5h.1c.2 0 .4-.1.7 0 1.1.4 1.4 1.1 1.7 1.8.1.2.2.4.3.7.2.4.5.4.6.4 0 0 0-.1-.1-.4l.9-.7h.8c.3.4.3.9.4 1.3 0 .2 0 .5.1.7.1.2.1.5.1.9v.4c.4 0 1.1-.3 1.5-.7.3-.3.8-.3 1.1-.4.1 0 .3 0 .3-.1 0 0-.1-.2-.5-.6 0-.1-1.9-2.2-1.3-3.2.1-.2.5-.6 1.3-.5.7.1 1.7-1.1 1.9-1.8.3-1.1 1.4-1.8 3.3-1.9h.1c.4 0 .6 0 1 .3.1.1.1.1.3.2.3.3.6.5.9.7.7.4 1 1.1 1.2 1.7l.4-.1h-.1c.2 0 .5 0 .7.1l.6-.3c.2.3.2.5.3.8.1.3.1.4.2.5.1.1.2.1.3.2.2.2.5.4.7.6l-.6 1.1c-.1-.1-.3-.2-.5-.3-.2-.1-.6-.5-.9-.6 0 .1 0 .2-.1.2-.1.3-.2.8-.6 1h-.1c.2.9.7 1.9 1.3 2.6.2 0 .3-.1.3-.1zM278.1 503.3s0-.2-.1-.4c-.1-.4-.2-1.1.3-1.6-.3-.2-.6-.4-.6-.8 0-.3.1-.8.2-1.3.1-.3.2-.7.2-.8v.1l.1-.3.1-.4c.1-.1.2-.2.3-.2-.1-.1-.2-.3-.3-.4-.2-.3-.3-.5-.5-.7l-.1-.1c-.6-.6-1.1-1-1.5-2.1l-.1-.2c-.1-.4-.3-.8-.5-1.1-.1-.1-.1-.2-.1-.3-.3.1-.6.1-.9.1-.5 0-1.1-.1-1.5-.4l-.1-.1c-.1 0-.1-.1-.1-.1l-.1-.1c-.1-.1-.2-.3-.3-.4h-.2c-.3-.1-.5-.2-.7-.3-.1 0-.1-.1-.2-.1s-.2.1-.4.1h-.1c-.1 0-.2.1-.3.2-.4.2-1 0-1.5-.2l-.6-.3c-.5-.2-.9-.4-1.1-.5 0 .1-.1.2-.2.3-.1.2-.3.4-.5.6.3.3.6.7.5 1.2-.1.5-.6 1.3-1 1.7 0 .7.5 1.6 1.2 1.7.5.1.8.5 1.1.8l.3.3c.1-.1.3-.4.3-.5 0 0-.1-.1-.2-.1-.3-.1-.7-.3-.9-.9-.1-.2-.1-.4-.2-.6 0-.1-.1-.3-.1-.4l1.1-.5c.2.3.6.6 1 .8.7.4 1.7 1 1.7 2.4 0 .1 0 .3.1.3.1.1.2.1.4.1.8 0 1.1.3 1.4.6.1.1.2.1.3.2.2.1.4.3.6.4.8.5 1.9 1.2 1.8 2.6v.1h.1c.1 0 .3 0 .4.1.7.3 1.1 1.2 1.3 1.6.1 0 .2-.1.2-.1zM270.1 392.9l-.5-.3.2.2zM265.9 488.2c-.1-.2-.1-.3-.2-.4l.4-.3h-.5v-.2c-.1-.7-.2-2.3.9-2.5.3-.1 1.7.2 1.9.9.1.1.6.5.9.7.2.2.4.3.5.4.1.1.3.5.8 1.2.2.3.5.8.6.9l.1.2c.1.4.2.7.2.9.4 0 .6.2.8.3.2.2.3.2.5.2l.4-.1.2.3c.1.1.1.1.1.2.1.1.1.2.2.3.1.1.1.2.2.2s.1.1.2.1c.5.1.9.1 1 0l-.2-.2c-1-1.4-.1-3 .2-3.4l.4-.8-.5-.3c0-.5.2-.9.3-1.2.1-.2.1-.3.2-.5v-.1h.2c.1-.6.1-1-.2-1.4l.3-1c.2-.1.2-.1.3-.4 0-.3.1-.7.6-1 .1-.5.1-1 .1-1.5 0-.9.1-1.7.4-2.6.2-.7.6-1.2.9-1.7.3-.4.5-.7.7-1.1.1-.3 0-.8-.2-1.3-.1-.4-.3-.9-.3-1.3-.1 0-.1.1-.2.1-.8.4-2 .8-2.7.8-.1 0-.3.1-.5.2-.3.2-.8.4-1.3.2-.4-.1-.8-.3-1.1-.5-.1-.1-.2-.1-.2-.2-.1.1-.1.3-.2.4-.1.2-.1.4-.3.6-.1.2-.3.4-.4.5-.1 0-.1.1-.1.1 0 .2.1.6-.3.9-.1.1-.3.2-.5.3-.6.4-1.9 1.2-2 1.8l-.9.3c-.3-.2-.5-.3-.7-.5-.1-.1-.3-.2-.4-.3l-.2.2c0 .1-.1.1-.1.2-.1.2-.3.4-.5.5-.2.2-.5.3-1 .3h-.7v.1c.1.4.2 1.1-.1 1.7-.2.4-.6.5-.8.6h-.1v.2c0 .2-.1.4-.2.6l-.1.1-.1.1c-.4.4-1 .4-1.4.4v.1l-.2.3h-.3c-.3 0-.5 0-.6-.1.4.5 1.1 1.2 1.5 1.5l.2.2c.8.7 1.3 1.5 1.8 2.3.4.7.8 1.3 1.4 1.8.1.1.3.3.5.4.2.2.5.4.7.7-.3-.2-.3-.3-.3-.4zM258.3 477.4c0-.2.1-.3.1-.5v-.1c-.3.1-.5.2-.8 0-.1-.1-.3-.2-.4-.4h-.1c-.1 0-.2.1-.3.1-.3.1-.7.3-1.1.3l-.6-.9v.2c-.1-.2-.5-.6-1-.9-.5-.3-1-.6-1.3-.8-.3-.2-.5-.3-.7-.4-.1 0-.3-.1-.3-.1.2.6-.4.9-.6 1-.1 0-.1 0-.1.1l-.1.1c-.1.1-.3.3-.3.4-.1.1-.1.2-.2.2h-.1c-.1.1-.3.1-.5.2-.4.1-.7.2-.8.3v.1l.5.5c.1.1.3.4.4.4.2.1.5.1.9.1s.8 0 1.1.1c.5.2.9.4 1.3.7.3.2.5.3.7.4.1 0 .3 0 .4.1v-.1c.2 0 .3-.1.5-.1.5 0 .9.2 1.3.4.5.2.8.3 1.2.2.1 0 .2 0 .2-.1 0-.2-.1-.7.2-1.1h.2c.1.3.2 0 .3-.4z"/>
        <path class="st4" d="M258.2 478.1c-.1 0-.1.1-.2.1h.2v-.1zM269 392.2zM260.2 478.2l.4 1.2c0 .1.1.1.1.2.1.1.3.3.4.5.2 0 .4 0 .6-.1v-.1c0-.2.1-.6.3-.9l.1-.1.1-.1c.1-.1.3-.2.5-.2 0-.1 0-.3-.1-.5-.1-.6-.2-1.2.1-1.7.5-.6 1.3-.4 1.7-.3h.1c.1 0 .1 0 .2-.1s.1-.1.1-.2c.1-.1.1-.2.2-.2v-.1c.2-.4.5-.7.9-.7H266.2c.5 0 .9.3 1.2.6.4-.6 1-1 1.6-1.4.2-.2.5-.3.7-.5l.1-.1c0-.3.2-.6.6-.9.1-.1.2-.3.3-.5.1-.3.3-.7.7-1 .8-.6 1.5 0 1.7.3.1.1.2.2.3.2.3.1.3.1.7-.1.2-.1.3-.2.6-.2.3-.1.8-.2 1.2-.3.5-.1 1-.2 1.3-.3.1 0 .1-.1.2-.1s.1-.1.2-.1c.1-.1.3-.2.5-.3l-.2-.3c-.3 0-.6-.1-.9-.2l-.8.2-.2-.2c-.4-.3-.6-.6-.7-.9v-.4l-.1-.1.6-.8c-.2-.2-.3-.3-.5-.4-.2-.1-.3-.1-.5 0-.4 0-.9.1-1.5-.4-.3-.3-.8-.2-1.5-.1-.4.1-.8.1-1.1.2-.6 0-1-.2-1.5-.3-.2-.1-.3-.1-.5-.2-.3.3-.7.5-1.2.6-.1 0-.3.1-.3.1-.6.4-1.6.4-2.4.4h-.8s-2.8.2-3.6-.6c0 0-.1-.1-.2-.1-.3 0-.8.2-1 .5-.4.5-.8.4-1 .4h-.1c-.4.2-.7.4-1 .7-.2.1-.3.3-.5.4-.3.2-.5.5-.8.7l-.2.2c-.2.2-.4.3-.7.5-.1 0-.1.1-.2.1-.7.4-1 .7-.9 1v.1c.1.6.3 1.2-.4 1.9 0 0-.1 0-.1.1.4.2 1 .6 1.5 1 .6.4 1.1.8 1.4 1.3.1-.1.3-.1.5-.2.1 0 .1 0 .2-.1.1 0 .1 0 .2-.1h.1c.4-.1.7.1 1 .3h.2c.2 0 .8 0 1.1.4.2.2.2.4.2.7 0 .1 0 .3-.1.5v.2c0 .1-.1.2-.1.3v.7h.5c-.1.1 0 .1.2 0zM258.8 478.2s-.1 0-.1.1l.1-.1zM248.1 475.9c.1-.1.1-.2.2-.3l.1-.1c.4-.4.8-.5 1.1-.5.1 0 .2 0 .2-.1.2-.3.5-.6.5-.6l.1-.1.1-.1v-.3c.1-.3.2-.5.5-.6.1-.1.2-.1.3-.1l.6-.3h.1l.3-.3c.3-.3.3-.3.2-.6-.1-.2-.2-.6 0-1 .2-.6.8-1.2 1.3-1.4.1-.1.3-.2.4-.2.2-.1.4-.3.6-.4l.1-.1c.2-.2.4-.4.7-.6l.3-.3.3-.3h.1l.2-.2-.8-.1c0-.4-1-.5-1.9-.4l-.7-.9c0-.2.1-.4.1-.7.2-.9.3-1.9.5-2.8.1-.4.2-.8.2-1.2.1-.6.2-1.2.2-1.8v-.3c.1-.9.2-1.7.3-2.3h-6.8v1.4c-.1 1.2-.8 1.5-1.4 1.6l.6.6c.2.2.4.3.6.4.4.2.6.5.8.7 0 0 0 .1.1.1.1.1.2.3.2.4.2.3.3.5.5.7 0 0 .1 0 .1.1v.1c.3.3.3.8.1 1.6-.1.8-.2 1.2-.7 1.3-1 .3-2.2.2-3.6.1-.6-.1-1.3-.1-1.9-.1l-.1.2c-1.2 2.3-1.8 3.4-1.9 3.7 0 .1.1.1.1.2.2.7-.4 2-.8 2.8v.1l.1.1c1.2 1.2 2.4 2.4 3.9 2.6h2.4c.6.1 1 .3 1.5.6-.1-.2-.1-.3 0-.3zM160.8 399.2c.1 0 .2.1.3.2-.1-.2-.3-.4-.4-.7 0 .2 0 .3.1.5-.1 0 0 0 0 0zM166.1 397.4h-.2l.5.1c-.1 0-.2-.1-.3-.1z"/>
        <path class="st4" d="M239.2 471.7v-.2c0-.2.1-.4.1-.7.1-.3.2-.5.3-.6l.1-.1v-.4c-.1-.5 0-.8.4-1.4.4-.6.7-1.4 1.1-2.1.2-.3.3-.7.4-.9.1-.3.3-.5.5-.6l.1-.2h.4c.6-.1 1.2-.1 1.7 0 .3 0 .5.1.7.1h.6c.4 0 1.7.1 2.2 0 0-.2.1-.7.1-1-.2-.1-.7-.3-.8-.9 0-.2-.1-.3-.1-.4 0 0 0-.1-.1-.1-.1-.1-.1-.2-.3-.2-.3-.2-.6-.4-.9-.7-.3-.3-.6-.6-.9-1-.2-.2-.3-.4-.5-.5-.1-.1-.1-.2-.2-.2l.4-1H245.4c.3 0 .5 0 .6-.1.1-.2.1-.5.1-.8 0-.4 0-.9.3-1.4 0-.1.1-.1.1-.2.6-.7 1.8-.6 3.4-.5h4.8c.1-.2.3-.4.4-.5.1-.1.2-.1.3-.2h.1c.2 0 .4 0 .7.1l.3-.6.6-.9c.1-.1.2-.3.3-.4l.1-.1c0-.1.1-.1.2-.1.3-.3.6-.5.9-.6h.1c.3-.1.3-.1.4-.3l.1-.2c.3-.5.4-.7 1-1.1l1 .4c.1.3.1.7 0 .9l.3-.6.2-.4c.2-.3.3-.7.4-1 .1-.2.1-.3.2-.5h-.1c-.4-.6.1-1.3.5-1.7l-.4-.4c.1-.5.4-.9.7-1.2.1-.2.4-.4.4-.5l1.1-.4s-.2-.2-.5-.1-.4.3-.4.4v-.3c0-.4 0-.7.1-.9.2-.7.8-1.3 1.3-1.9l.7-.7c.6-.6 1.2-1.1 1.5-1.8.2-.6.6-1.7-.1-2-.2-.1-.9 0-1.1.2.1 0 .2-.2.1-.4 0-.1-.1-.2-.1-.3l-.3 1.1c-.1 0-.2-.1-.3-.1-.1 0-.2-.1-.3-.1-.2-.1-.3-.1-.5-.2v.1c-.5 0-.9-.1-1.4-.2-.9-.2-1.8-.4-2.7 0-1.1.4-2.2.8-3.5.9-1.2.1-3.4.4-4.3 1.5h.1c-.1.6-.4 1-.6 1.5-.3.6-.5 1.2-.6 1.9v.4c0 .5 0 1.1-.4 1.6-.2.2-.3.4-.5.6-.2.2-.4.4-.5.6-.1.3-.2.6-.3.8-.3.8-.6 1.6-1.6 2.2-.2.1-.5.3-.8.4l-.6.3.2.2-.1.1c.1.1.1.2.1.3.1.7-.7 1.4-1.2 1.7 0 .1-.1.1-.1.2l-.6.4c-.2 0-.5 0-.7-.1h-.5l-1-.6v.1l-.1-.2c-.1-.1-.2-.4-.2-.6-.3 0-.6 0-1.1.1-.7.2-1 .4-1 .5l-1.2.2c0 .2.2.3.2.3-.4-.1-2.2.2-3.4.5-.6.5-1.6.8-2.4.9l-.3.1c-1.1.3-2.2.5-3-1-.6-1-1.6-1.7-2.8-1.7-.3 0-.7 0-1.1-.1-.1.1-.2.1-.3.2-.1.8-.6.9-1 .9l-.5-1c.1-.2.2-.3.3-.4 0-.2.1-.3.2-.4l-.1-.4c-.1-.2-.2-.4-.2-.6l-.1-.3c-.1-.3-.2-.5-.4-.8-.2-.4-.5-.8-.6-1.3-.4-1.8-.7-3-1.6-4.5-1-1.6-1.6-3.4-1.7-5 0-.3-.1-.4-.2-.7-.1-.2-.2-.4-.4-.7-.2-.5-.2-1-.2-1.5v-.8l.1-.1c-.2-.8-.2-1.5-.1-2.1 0-.8.3-1.4.5-2 .2-.5.4-1 .4-1.5 0-.4.2-.8.3-1.2.2-.7.4-1.4.1-1.8l.1-.8.1-.1c.1-.9.2-1.4.4-1.8 0-.1.1-.3.1-.3-.1-.2-.2-.5-.3-1v-.3l.2-.2c.2-.2.4-.2.6-.2.1-.3.3-.7.3-.8 0-.2.1-.4.1-.5.1-.1.1-.3-.1-1.4 0-.3.1-.4.2-.6.1-.1.2-.3.2-.4l1.1-.3.3.1v-.6h.5c.2-.3.3-.7.5-1h-.1c-.4-.1-.7-.4-1-.6-.1-.1-.3-.3-.4-.3h-.4c-.5 0-1.2.1-1.8-.3-.3-.2-.6-.4-.8-.6-.2-.1-.3-.3-.5-.4 0 0-.1 0-.1-.1-.2-.1-.3-.2-.4-.2-1.3-.2-1.5-1.1-1.7-1.8v-.1c-.1-.3-.1-.6-.3-.9-.2-.4-.3-.7-.3-1.1 0-.1 0-.2-.1-.3v-.5c0-.3 0-.6.1-1 0-.1.1-.3.1-.4 0-.1.1-.3.1-.4v-.1l-.2-.2c-.2-.2-.6-.5-.7-1-.2-.4-.4-.8-.6-1.3-.4-.8-.9-1.8-1.1-3-.1-.4-.1-.8-.1-1.1 0-.4 0-.7-.1-1.1 0-.1-.1-.2-.2-.4s-.2-.4-.2-.6c0-.1-.2-.3-.3-.4-.1-.2-.3-.3-.4-.5-.2-.3-.4-.5-.6-.8-.2-.2-.4-.4-.5-.7h-.1c-.2 0-.5-.1-.7-.1h-.3c-1.3-.2-2.6-.3-3.6.3-.2.1-.3.3-.5.4 0 .1-.1.1-.1.2-.2.2-.3.5-.4.7-.5.8-1 1.7-2.1 2.2-.9.4-1.7-.2-2.3-.7-.1-.1-.2-.1-.3-.2-.2-.1-.4-.3-.6-.4-.3-.2-.5-.3-.8-.5-1.5-1.1-2.2-2.2-2.3-3.6v-.2c.2-.5.2-1.2.1-1.8v-.6c0-.4 0-.7-.8-1-.8-.3-1.3-1.3-1.8-2.2-.1-.2-.2-.4-.3-.5-1.2-.7-1.4-1.4-1.5-1.9-.1-.3-.1-.3-.5-.4h-7l-.1 1.7-.6.6-12.1-.1-13.9-5.9-.3-.8c0-.1 0-.1.1-.2-2.1.1-4.2.4-6.3.6-.8.1-1.7.2-2.5.3l.5.2c-.1.2-.1.3-.2.3 0 .1.1.2.1.4v.2c0 .2-.1.4-.1.6.1.1.1.2.2.3l.1.1s0 .1.1.1c.2.3.6 1 0 1.5-.4.3-.3.6-.3.6 0 .2.1.4.3.6.2.3.4.8.4 1.3 0 .3-.1.6-.2.8 0 .1-.1.2-.1.2.8.9.5 1.6.3 2.1-.1.3-.2.5-.1.7l.3.3c.1-.1.1-.2.1-.3 0 0 0 .1.1.1.1.2.3.6.2 1.1 0 .2-.1.4-.2.6-.1.2-.2.4-.1.5.2 1.1.9 1.6 1.9 2.4 1.3 1 2.1 2.6 2.7 4l.2.4c.6 1.3-.2 2.3-.8 3.1-.1.1-.1.2-.2.3l.5-.2c.4.3.5.8.5 1.4 0 .6-.2 1.4-.8 1.8l-.9-.8v-.1c0 .1-.2 0-.3-.1-.2-.1-.6-.3-.8-.6-.5.2-1 .2-1.5.1.4.3 1 .7 1.1 1.4v.5c.2.1.4.1.6.2h.2l.1.1c.1.1.2.3.3.5.1.1.2.1.2.2.3.2.7.5 1 1v.1c.3-.1.7-.1.9 0h.2s.1-.2.2-.3l.3-.6 1.1.2c.2.5-.1.9-.2 1.1 0 .3.4 1 .6 1.2.2.3.5.5.9.8.5.3 1 .7 1.3 1.3.9 1.8.3 3.2-.2 4.5-.1.2-.1.3-.2.5-.1.4-.2.7-.3 1.1h.2c-.1.4.1.7.7 1.2.3.3.6.5.8.9.3.5.8.8 1.3 1.1.4.3.9.6 1.3 1.1l.6.9c.2.4.5.7.8 1 .4.4.9.8 1.2 1.3.2.4.2.8.2 1.3 0 .3 0 .9.2 1 .2 0 1.2-.7 1.8-1.2.3-.3.3-.3-.1-.9-.2-.2-.4-.5-.5-.8-.1-.2-.1-.6-.2-1 0-.2 0-.5-.1-.7-.4-.3-.7-.6-1-.9-.3.3-.9.4-1.1.3l-.1-.1c-.4-.1-.8-.4-1.1-.9-.5-.8-.4-2 .1-2.7.2-.2.1-.3-.1-.7-.1-.2-.2-.4-.3-.7-.2-.5-.2-1.2-.1-1.9-.6-.4-.6-1.4-.6-3.1 0-.7 0-1.5-.1-2.3l-.2.2-1-.4c0-.1-.1-.3-.1-.6-.1-.6-.3-1.4-.1-2-.4-.4-.6-1-.8-1.5-.2-.5-.4-.9-.7-1.2-.9-.8-.7-2.9-.4-3.9-.1-.1-.3-.1-.4-.2-.3-.3-.4-.7-.4-1.1v-.2c-.1-.6-.3-.9-.3-.9h.2l-1-.5c.1-1.4-.2-2.1-1.1-3.1l-.2-.3c-1-1.2-1.8-2.1-1.1-4.1.2-.5.3-1 .4-1.5 0-.2.1-.5.1-.7 0-.2 0-.4-.1-.7-.1-.4-.2-1 .1-1.6.1-.3.3-.5.5-.8.2-.4.5-.8.6-1.2 0-.1-.1-.3-.2-.4-.1-.2-.3-.5-.3-.9l1.1-.5c.3.3.6.5.9.7.4.2.8.5 1.1.9.1.1.4.5.7.5 0 0 .1-.1.2-.1.2-.1.5-.4.9-.3 1.3.1 1.3 1.1 1.3 1.4v.1c.1 0 .2.1.3.1.6.1 1.3.3 1.6 1 .2.5-.1 1.1-.4 1.7-.1.2-.3.5-.3.6-.1.4 0 .8.2 1.2.1.4.3 1 .2 1.5-.1 1.1-.1 1.8.2 2.9v1.2l.5.2c.1.4.1.8.1 1.2 0 .5 0 .7.2 1 .3.4.4.9.5 1.3.1.3.1.6.2.7 0 0 .1.1.2.1.2.1.6.3.7.8.1.2.1.3.2.5.1.3.2.6.3.7 0 0 .2.1.3.2.1.1.3.2.5.3l.8.6h.1c0-.2-.1-.3-.1-.4 0 0 .3.1.8.2l-.1 1.2h.1c-.1.1-.3.9-.2 2.2.2.1.9.3 1.1.3.1 0 .3.1.3.1.8.2.8 1.1.8 1.6v.6h.2c.2 0 .6-.1 1 .1.5.3.8.9.8 1.4h.1c.3.2.4.6.3 1.2l-.8.1v.2c.1 0 .1 0 .2-.1 0 0-.1.1-.2.3l-1.2-.4c0 .1.1.3.3.4.3.1.5 0 .6-.1-.1.1-.4.6-.5.8-.1.2-.2.4-.2.6.1 0 .2.1.3.2v.4c.3.1.3.1.5-.1l1 .5h.1c.2.2.3.5.4.7v.1c.2.1.4.2.5.5.1.1.2.1.3.2.1 0 .4-.1.7.1l.2.2c.3 0 .5.2.6.3.7.7.5 2.1.3 2.6 0 0 0 .1.1.2.2.3.8.5 1.1.5l.7.8c0 .1-.1.2-.1.4 1.2 1.2 2.1 2.5 3 4.2.3.6.7 1.2 1.2 1.8.9 1.2 1.8 2.5 2 3.9.1.5 0 .9 0 1.2-.1.5-.1.8 0 1.3.3.9.5 1.2 1 1.8.7.9-.3 2.2-1.1 3.3-.1.1-.1.2-.2.3.2.1.4.3.5.5.2.4.2.8-.1 1.1-.4.4-.9.5-1.2.6-.2 0-.4.1-.5.2-.2.1-.1 1.1.3 2l.1.2c.2.4.5 1.2.8 1.4.3.3.4.6.5.9 0 .2.1.3.1.3.2.2.7.4 1.1.6.8.3 1.5.7 1.8 1.3.2.1.3.2.5.2.5.2 1 .5 1.5 1.2.1.2.2.3.3.5.2.3.3.6.5.9.6.8 1.9 1.3 2.9 1.6l.3.1c.5.2 1.4.5 1.8.4h.1c.5-.1 1.2-.2 1.7.3.5.4.8.9 1.2 1.4.4.6.9 1.1 1.4 1.5.9.7 1.9 1 2.9 1.4.4.2.9.3 1.3.5s.7.4 1 .6c.2.2.5.4.7.5.3.2.7.2 1.2.3.2 0 .4.1.7.1.1 0 .3.1.5.1.6.1 1.4.3 1.9.7l.5.5c.2.2.3.4.5.4.1.1.3.1.4.1.5.2 1.1.4 1.7.9.4.4.7.6 1.2.7h.2c1.1.2 1.8.3 2.9.9.9.5 1.2.5 2 .4.7-.1 1.4-.4 2.1-.7.5-.2 1-.4 1.5-.5.5-.2.9-.4 1.4-.6.3-.2.7-.4 1.1-.5.1-.7.8-1.3 1.4-1.2.2 0 .4.1.6.3h.6l.3.6.5-.3c1.5.5 2.2 1.3 3.1 2.1.3.3.5.5.9.8.4.4.7.7 1 1.1.2.3.5.6.7.8.1.1.3.2.4.3.4.3.9.6 1.1 1.2h-.1c.2.4.5.9.6 1-.6 1.3-.4 1.6-.2 1.8zm-14.9-54.2.2.1c-.1 0-.2 0-.3.1 0-.1.1-.2.1-.2zM263.1 393.4c.1 0 .2-.1.2-.1-.2-.2-.4-.3-.6-.2-.1 0-.3.2-.5.4.4 0 .7 0 .9-.1z"/>
        <path class="st4" d="M175.3 413.4h-.1v.1l.1-.1zM285.5 437.3c.1 0 .1 0 0 0 .3-.1.8-.2.9-.3 0-.3-.3-.9-.5-.9h-.1c-.1 0-.3.1-.4.1v.2c.1.2.2.6.1.9z"/>
        <path class="st4" d="M316.2 445c.4.1.8.2 1.2.2.2 0 .3 0 .4-.2.2-.2.4-.4.9-.4l.1.3c.5-.1 1.4-.3 1.8-.4l.8-.2c.1 0 .2-.1.4-.1-.6-.2-1-.6-1.3-1-.2-.2-.3-.4-.6-.6-.4-.4-1.4-.4-2.3-.4-.6 0-1.1 0-1.6-.1l-.4-1c.2-.3.5-.5.7-.7l.1-.4v.1c-.1 0-.2.1-.3.1-.3.1-.9.3-1.4-.1l-.1-.1c-.7-.6-1-.7-1.1-.7.1 0 .3-.1.3-.2l-1 .5c-.2-.1-.3-.2-.6-.3l-.2-.4-.3-.4c-.3-.1-.6-.3-.7-.4h-1c-.1-.1-.2-.3-.2-.4-.1-.1-.1-.3-.2-.4-.2-.1-.3-.2-.4-.3-.2-.2-.3-.2-.4-.2-.5 0-.9-.3-1.1-.6 0 0 0-.1-.1-.1-.5-.1-.7-.5-.9-.8l-.1-.1s-.2-.1-.3-.1c-.2 0-.4-.1-.6-.2-.2-.1-.4-.3-.6-.4-.5-.4-.9-.6-1.6-.7h-.6c-.7 0-1.3 0-2.2-.9-.3-.3-.5-.6-.6-.8-.2-.3-.2-.4-.6-.5l-.1-.3c-.2 0-.4-.1-.6-.1-.2 0-.4-.1-.5-.1-.8.2-1.6-.4-2-.9-.3-.1-1 0-1.3 0-.5.2-1.1 0-1.4-.2h-.1c-.2.1-.5.1-.7.3l-.9-.5c0 .1.1.2.1.2-.6-.3-1.4-.2-2-.2-.6 0-1.2.2-1.8.4-.8.2-1.6.5-2.5.5-.3 0-.7.1-1.1.3-.2.1-.5.2-.7.3-.2.1-.4.1-.6.2-.6.2-1.2.3-1.6.6-.4.3-1 .8-1.7 1.6-.1.1-.1.1 0 .4.1.2.2.5.1.9.1-.1.2-.1.3-.2 0 0 0-.1.1-.2.1-.2.2-.6.6-.8.4-.2.7-.2.9-.2h.2c.4-.2.7-.1.9-.1.3 0 .3 0 .4-.1.6-.7 1.4-1.2 2.1-1.7l.1-.1c1.4-.9 4.1-.8 5.4-.4.6.2 1 .7.9 1.3 0 .5-.5.9-1.1 1h.4c.4 0 .9-.1 1.3.2 0-.1.1-.2.1-.3l1.1.3c0 .2.2.3.4.4.6.2 1.3.2 1.4.1l1.2.1c0 .4.2.6.6.8.2.2.5.4.8.7.1.1.2.1.6.2.2 0 .3 0 .6.1.4.1.7.3 1 .4.3.2.6.3.9.3.2 0 .4-.1.6-.2.5-.2 1.2-.4 1.9-.1v.3c.1.1.3.2.4.3.3.3.4.7.4 1.1 0 .2 0 .4.1.6 0 .4.1.8.2 1.1 1 1.5 2.7 1.4 3.6 1.2.4-.1.7-.1.9.1.4.3.4.7.4.9v.2c.3.3.4.6.4.8 0 .5-.4.9-.8 1.2-.3.2-.6.4-.9.5-.4.2-.7.4-1 .6.8-.1 1.7-.2 2.6-.3 1.3-.2 2.6-.4 3.9-.4 1.1 0 1.6.2 2.2.3zM345.9 453.3c.1-.1.3-.2.5-.4.2-.1.6-.4.6-.5 0 0 0-.1-.2-.3-.2-.2-.3-.4-.5-.6-.6-.7-.8-.8-1.1-.7-.4.2-1.1 0-2.4-.4-.1-.1-.3-.1-.3-.1-.9-.2-.8-.8-.8-1v-.1c-.1 0-.2-.1-.2-.1-.5-.4-.7-1-.7-1.5h-.2c-.6 0-1-.2-1.3-.4-.1-.1-.2-.1-.3-.2-.2-.1-.5-.2-.7-.3-.3-.1-.7-.2-1-.4-.3-.2-.7-.1-1.2.1s-.9.1-1.3 0c-.7-.2-.7-.1-.8.1v.3c.1.2.1.4.2.6v.7c-.1.2-.1.5-.1.6 0 .1.1.2.1.2v.2c.1.6-.4 1-.6 1.2.1.1.1.3.1.5V451.4c-.1.5-.4.9-.9 1.1.2.3.4.7.4 1.1.1.4.1.9-.1 1.3.2.3.3.7.4 1v.2s.1.1.1.2c.6-.7 1-1.4 1.3-2.5.1-.3.4-.7 1-.6.2-.2.4-.3.6-.3.2-.1.3-.1.3-.2l.8-.3c.6.3.6.9.6 1.1.1 0 .4 0 .8-.1.3-.1.5-.3.8-.5.5-.5 1.4-1.3 2.7-.4 0 0 .1 0 .1-.1.2-.1.4-.1.6-.1.4 0 .8.1 1.1.2h.2c.3 0 .8 0 1.2.4.1.3.1.3.2.4zM324.6 452.9c.1-.1.1-.2.1-.3 0-.2-.1-.4-.2-.5l.1.8zM329.3 452l-.4-.4-.3-.3c.1.3 0 .5-.1.8h.1c.2-.1.4-.1.7-.1zM309.6 455.6c0 .3.2.5.4.5l.1-.1-.1-.4h-.4zM310.4 455l.4.2v.1h.1c.1 0 .2.1.2.1h.5c-.2-.4-.4-.5-.8-.7-.5-.1-.9-.3-1.3-.5-.5-.2-.9-.5-1.4-.6-1.4-.3-2.9-.4-3.9.2.3.1.7.2 1 .5l.1.1c.2.3.5.5.7.9.1.1.5.3 1.1.2h.1c.3 0 .5.1.6.2.3-.3.7-.3 1.1-.3h.1l.1-.1c.1-.1.1-.2.2-.2.2-.2.9-.2 1.1-.1z"/>
        <path class="st4" d="M331.8 454c-.1-.1-.1-.3-.2-.4-.1-.3-.4-.7-.5-.8l.4-1c.2 0 .7-.4.8-.5-.2-.2-.3-.5-.3-.6 0-.4.3-.7.6-.9l.2-.2c-.4-.5-.2-1.2 0-1.5 0-.1 0-.1.1-.2 0-.1 0-.3-.1-.4-.1-.2-.4-.2-1.2-.3-.4 0-.8-.1-1.1-.2-.3-.1-.5-.2-.8-.2-1-.3-1.8-.6-2.6-.1.2 0 .3 0 .4.1 2.2.5 1.9 1.9 1.7 3.1-.1.4.1.6.6 1 .4.4 1 .9.9 1.7-.1.9-1 .9-1.3.9h-.3c-.2.1-.3.1-.4.2-.3.2-.6.4-1.4.3-.3 0-.6-.1-.8-.1h.2c.6.1 1.3.3 1.7.2.4-.1 1-.3 1.8-.3.4-.2 1-.1 1.6.2zM321.9 452.7l.2-.6-.3.5c-.1-.1-.2 0-.4 0-.2.1-.4.4-.4.5h.1c.6.1 1 .5 1.3.9l.3.3c.4-.7 1.1-.9 1.8-.9-.5-.1-.8-.2-.9-.4-.4.1-.9 0-1.7-.3zM323.9 455.5zM181.8 436.7s0-.1 0 0zM265.2 398.7h.1l.1-.1s0-.1-.1-.1c0-.1-.1-.2-.2-.2h-.1v.1l-.1-.1.3.4c-.1 0 0 0 0 0zM292.6 410.2l.4-.4c-.1 0-.2 0-.3.1-.1.1-.1.2-.1.3zM282.2 393.9l.2-.2h-.1c-.1.1-.1.2-.2.3-.1 0-.1.1-.2.2 0 .1-.1.1-.1.2l.2-.2v.1l.2-.4zM255.2 395.4l.1.1-.1-.1zM291.7 406.4c.1 0 .2-.1.3-.2l-.3.1v.1zM264.4 396.7c.1 0 .1-.1.1-.1l-.2.2c0-.1.1-.1.1-.1zM241.6 396.8c-.1 0-.1 0 0 0-.1 0 0 .1 0 .1v-.1zM281.8 394.4c0-.1 0-.1 0 0 0-.1 0 0 0 0zM266 393.9s0 .1 0 0h.2l.2-.2c-.1.1-.3.1-.4.2zM234.2 401.4l.1-.1-.1-.2v.3zM233 401.8h.3l-.5-.3c0 .1.1.2.2.3zM258.5 454c-.3.3-.7.9-1.1 1.8 0 .1-.1.1-.1.2l-.2.4-1 .1-.1-.1c-.1.1-.1.2-.2.3-.2.8-.3 1.6-.4 2.4-.1.7-.2 1.5-.3 2.2 0 .1 0 .2-.1.3-.1.7-.3 1.4-.4 2.1l-.3 1.8h.2c0-.1.1-.2.1-.2.2-.5.6-.9 1.1-1.3.2-.2.4-.3.6-.4.3-.2.5-.3.7-.5 0 0 .1-.2.2-.3.1-.3.3-.6.5-.7 0 0 0-.1.1-.1.1-.3.2-.5.3-.8.1-.2.1-.4 0-.6v-.8l.1-.4c.1-.7.2-1.5.4-2.2 0-.1.1-.3.2-.5.4-1 .6-1.7.6-2.1l-.9-.6c.1-.1.1 0 0 0zM276.2 469.2s.1.1.1.2l-.1-.2zM277.9 468.3l-.2.2h.1l.1-.2zM260 453.1c.1 0 .1.1.1.1v-.2l-.1.1zM244.9 452.4s-.1 0-.1.1c.1 0 .1 0 .1-.1 0 .1 0 .1 0 0zM245.5 451.6v.4c.1 0 .1-.1.2-.2l-.2-.2zM266.8 485.9c0 .2-.1.5 0 1.1v.2c.1.1.1.3.2.5.1.3.5 1.2.7 1.4.1 0 .2.1.4.2 1.4.6 1.9.6 2.1.6 0 0 0-.2-.1-.4s-.3-.5-.6-1c-.2-.3-.5-.9-.6-1 0 0-.2-.1-.3-.3-.7-.6-1.1-.9-1.2-1.2-.2.1-.4 0-.6-.1z"/>
    </g>
</svg>
