<svg xmlns="http://www.w3.org/2000/svg" viewBox="0 0 1440 980" style="enable-background:new 0 0 1440 980" xml:space="preserve">
    <style>
        .st0{display:none}.st1{display:inline}.st2{fill-rule:evenodd;clip-rule:evenodd;fill:none;stroke:#bcbcbc;stroke-width:.75;stroke-miterlimit:1.2402}.st4,.st5{fill:#bcbcbc}.st5{display:inline}
    </style>
    <g id="Layer_8">
        <path class="st4" d="M318.6 586.4v.2-.2zM345.8 601.4c-.2 0-.4.2-.4.4-.1.8-.8 1.4-1.8 1.7h-.1c-.1 0-.2.1-.4.1h-.5c-.2 0-.5 0-.6-.2-.1-.1-.2-.2-.3-.5h-.5c-.4 0-.9-.1-1.4-.1.1.1.1.3.2.4.1.2.3.5.4.7.1.2.2.3.3.5.2.3.4.7.6 1l.2.3c.5.8.9 1.7 1.4 2.5.2.3.3.6.5.9.1.1.1.2.1.3 0 .1 0 .1.1.2.2.6.3 1.3-.6 1.9-.3.3-.5.7-.5 1.1v.3c0 .1 0 .2.1.3.2.5.2 1 .2 1.6v1.6c0 .1.2.4.3.6.2.4.4.8.4 1.2 0 .2-.5 1.7-.7 1.9-.4.4-.7 1.1-.9 1.7-.1.3-.1.4 0 .5v.1s.1.1.1.2c.2.2.4.5.5 1 .2.6-.1 1.1-.3 1.5 0 .1-.1.1-.1.2 1 .7 1.3 1.1 1.5 1.4l.1.1s.1 0 .2.1l.5.8c-.1.3-.1.5-.1.7.3 0 .6 0 .9.2.1.1.2.2.2.3l.1.1v.4h-.5l-.3.4c.2.1.4.1.5 0-.1 0-.2.1-.3.2-.1.1-.2.1-.2.2.1.3.1.5-.1.8-.1.2-.4.3-.6.3 0 .1-.1.2-.2.3-.2.2-.3.5-.5.8-.3.5-.6 1-1 1.4l-.2.2-.1.1s-.1 0-.1.1c.1.1.2.3.3.5 0 .2.1.2.1.3.1.1.1.3.1.6 0 .2.1.3.3.5.2.3.5.5.6.9 0 .1.1.2.2.3.2.1.3.2.5.3l.3 1v.2c0 .3.2.7.5 1.4.1.2.1.3.2.5.3.9.5 1.5.9 2.1.3.4.6.7 1 1.1h.1l.3.3.3.3c.1.1.1.2.1.3v.1c0 .1 0 .2.1.3 0 .2 0 .5-.1.8 0 .1-.1.2-.2.3v.1c0 .1-.1.2-.1.3l.1.1c.3.3.7.7.7 1.2 0 .6-.4.9-.8 1 .1.2.1.4 0 .6v.1c0 .2 0 .3.1.5h.1c.2.1.5.2.8.5l.1.1c.2.2.2.4.1.6 0 .1 0 .3-.1.4 0 .5.4.9.8 1.3.5.6 1.2 1.2 1.2 2.2.1 1 .5 1.9 1 2.8.3.7.7 1.3.9 2.1.1.2.1.5.2.7.1.2.1.5.2.7 0 .1 0 .1.1.2.1.2.2.4.3.4.1 0 .1 0 .2.1.2 0 .4 0 .6-.1.3-.1.5-.1.8-.2.1-.1.3-.5.5-.8.5-.9 1.2-2 2-2.4.9-.5.9-.5 1.1-1.6l.7-.5c.7.1 1.2.6 1.6 1 .3.2.5.5.8.6.1 0 .2.1.3.1H362.4c.2 0 .4 0 .5-.1.5-.1 1-.1 1.5 0 1 .2 1.7.5 2.1 1 .1.1.1.2.2.2 0 0 0 .1.1.1.3.4.5.8.7 1.2 0-.2.1-.4.2-.6.1-.2.1-.4.2-.7.3-.8.5-1.4 1-1.6.3-.1.6-.1.9-.1h3.1c.5 0 1.4-.1 1.7.6.1-.4.1-.8.2-1.2 0-.2.1-.3.1-.5.1-.5.1-1 .2-1.5 0-.3.1-.5.1-.8.1-.6 0-1.2 0-1.9 0-.2 0-.5-.1-.7v-.5c0-.8.4-1.4.7-2l.2-.4.3-.9c.2-.9.5-2.2 2.1-2.4.2 0 .4-.1.5-.1 1.5-.2 3-.6 4.6-1.1 3-.9 5.1-.7 7.8.8.5.3 1.1.6 1.6 1.1 0-.6.3-1.2.5-1.7l.2-.3c0-.1.1-.2.2-.4s.3-.5.3-.7c-.3-.7-.2-1.2 0-1.7 0-.1.1-.3.1-.4.5-1.4.4-1.7-.1-2.5l-.3-.6c-.2-.4-.4-.9-.5-1.3 0-.1-.1-.2-.1-.3-.4.1-.7 0-1.1-.2-.8-.4-1.6-1.3-1.9-2.1v-.1c-.2-.7-.5-1.5-.5-2.3 0-.5.1-.9.3-1.2v-.1c-1.2.1-2.5 0-3.6-.1h-.9c-1.1 0-2.5 0-3.2-.7-.1-.1-.2-.2-.3-.4v-.2c0-.1-.1-.3-.1-.4 0-.1 0-.2-.1-.3v-.2c0-.3-.1-.6-.1-.9v-.8c-.1-.4-.4-.7-.7-1.1-.1-.1-.1-.2-.2-.3l-.1-.1s0-.1-.1-.1c-.1-.1-.2-.2-.2-.3-.2-.3-.3-.6-.3-1l.5-.6h.4c-.3-1.3-.6-2.4-.9-3-.2-.5-.3-.8-.3-1.3v-.9c0-.1-.1-.2-.2-.3-1.4-1.1-2.5-1.5-2.9-1.5-1.4.2-1.8.2-2.1.1h-.4c-.7 0-1.3-.8-1.9-1.7-.1-.1-.1-.2-.2-.2h-.5c-.4 0-.8-.3-1.3-.6-.1-.1-.3-.2-.3-.2h-.2c-.2 0-.4-.1-.6-.2h-.1s-.1 0-.1-.1c-.5-.3-.7-.7-.9-1 0-.1-.1-.2-.2-.3v-.1l-.1.1h-.1c-.1 0-.2.1-.3.1H367.1c-.4-.1-.8-.4-1-.6l-.1-.1c-.1 0-.1-.1-.2-.1-.4-.2-.5-.2-.8-.1-.1 0-.2.1-.3.1-.3.1-.6.1-1 0-1.3-.3-1.6-.5-2.4-1.6-.2-.3-1.2-.9-1.5-1h-.1c-.7-.1-.8-.8-.9-1.1 0-.1 0-.2-.1-.2h-.1c-.2-.1-.8-.3-.8-1 0-.2-.2-.6-.4-.9-.1-.2-.2-.3-.3-.5v-.1s0-.1-.1-.1c0-.1-.1-.2-.1-.3-.1-.2-.1-.3-.1-.5 0-.4.1-.8.3-1 .1-.1.1-.2.1-.3h-.1c-.2-.2-.5-.4-.6-.9-.1-.4-.1-1-.1-1.3 0-.4.1-.8.2-1.1 0-.1.1-.3.1-.4.1-.6.1-1.2 0-1.7-.2.2-.4.3-.7.2-.8-.1-1.4-.1-2.1 0h-.3c-.7.1-2 .3-2.4.8-.2.3-.4.5-.6.7-.5.7-1 1.3-2.3 1.4-.2.1-.3.2-.5.3l-.1.1c-.1.1-.1.1-.1.2-.1.3-.3.6-.4.7-.2.2-.5.2-.8.2h-.4c0-.1-.1-.2-.2-.2zM340.1 627.8l.2-.2-.5.3c.1-.1.2-.1.3-.1z"/>
        <path class="st4" d="M342.2 628.4c.1-.3.4-.5.5-.6h.1l-.2-.2c-.2-.2-.4-.6-1.6-1.4l-.3-.2v-.1c-.1 0-.1-.1-.2-.1-.2-.2-.8-.6-1.1-.8v.2c.2.3.3.6.3 1.1h-.1l-.1.4c.4-.1.8.2 1.1.4.1.1.3.2.4.2.2 0 .4 0 .6.2.3.2.3.6.2.9h.4zM344 629.6v.2l.1-.2h-.1zM297.8 564.7c.1 0 .1 0 0 0 .1 0 .1 0 0 0z"/>
        <path class="st4" d="M339.2 638.9c.3 0 .4-.1.6-.2l.3-.3v-.2c-.2.1-.3 0-.5-.1-.5-.4-.2-1 .3-1.9 0-.1.1-.2.2-.3l.1-.1c.2-.1.4-.2.7-.2l.1-.1c0-.1.1-.1.1-.2-.1-.2-.2-.4-.3-.5l-.1-.1c-.1-.1-.2-.2-.3-.4v-.1l-.1-.1c0-.1 0-.1.1-.2 0-.1 0-.2.1-.2 0-.1.1-.1.1-.2l.1-.1.1-.1.4-.4s.1 0 .1-.1c.2-.1.3-.3.4-.6.1-.2.2-.4.3-.5l.2-.2c.2-.2.3-.5.6-.7v-.1c-.2-.3-.2-.7-.1-1.3-.4.1-.9 0-1.6-.2l-.4-.6v-.3c-.2-.1-.4-.2-.6-.4-.1-.1-.2-.1-.3-.2l-.3.2c-.8-.3-1.2-.6-1.4-1.1-.2-.6.1-1.1.2-1.3v.1h.1v-.4c-.1-.2-.1-.5 0-.9.1-.5.5-.8.7-.8.7-.2 1.5.3 2.1.9.1-.2.2-.4.2-.6-.1-.2-.2-.4-.4-.6-.4-.5-.8-1.1-.2-2.3.1-.3.3-.5.4-.8.3-.5.5-.9.6-1.3.1-.2.1-.3.2-.4.1-.4.1-.4-.2-.9 0-.1-.1-.2-.1-.3 0-.1-.1-.1-.1-.2s0-.1-.1-.2v-.2c-.1-.4-.1-.8 0-1.2V614.7c0-.2 0-.4-.1-.6 0-.2-.1-.5-.1-.7-.1-.3-.1-.6 0-1 0-.5.1-.9.4-1.2l.2-.2c.4-.5.5-.6.5-.8-.1-.1-.2-.3-.3-.5l-.1-.3c-.1-.1-.1-.2-.2-.3-.2-.3-.4-.6-.5-.9-.7-1.1-1.3-2.3-2-3.5-.2-.3-.4-.6-.5-1-.2-.3-.4-.6-.5-1H337.1c-.1.1-.2.1-.4.2-.1 0-.2.1-.3.1 0 0-.1 0-.1.1h-.1c-.2.1-.3.1-.5.1h-.1c-.3 0-.6-.1-.8-.2 0 0-.1 0-.1-.1h-.1l-.1-.1c-.1-.1-.2-.1-.3-.2h.1l-1-.4c-.2-1.4-.3-3.1-.3-4.8v-.3c0-.5.1-.8.2-1.2v-.2l-.1-.1c-.2.2-.4.5-.6.7-.3.4-.7.8-1 1-1.3 1-3.2.8-4.5.6l-.4-.1-.5-.8c.1-.4-.3-1.3-.7-1.7-.1-.1-.2-.1-.2-.1s-.1 0-.1-.1h-.1c-.4-.1-.8-.1-1.2-.2-.5 0-1 0-1.5-.2-.2 0-.3-.1-.5-.2l-.2-.9c.9-1.2.8-1.3-.4-2.6l-.3-.3c-.2-.2-.2-.5-.3-.7 0-.1-.1-.2-.3-.3-.1-.1-.3-.2-.4-.4-.3-.4-.4-.7-.5-1.1-.2-.5-.3-.7-.6-.9v-.9.1c0-.1-.4-.5-.5-.6-.3-.3-.5-.5-.7-.8l-.1-.3.1-.3c.1-.1.1-.2.1-.3.1-.3.3-.7.8-.9 0-.1-.1-.2-.1-.4v-1c.3-1.4 1.2-1.8 1.9-2.2l.6-.3v-.1c0-.2-.1-.5-.2-.8-.1-.2-.1-.3-.1-.5v-.2c-.2-.8.2-1.5.6-2l.1-.1c.2-.3.2-.8.2-1.4 0-.7 0-1.4.5-2.1.3-.4.7-.5 1.1-.7.2-.1.4-.2.5-.2l.1-.1c.1-.1.1-.2.2-.3.1-.2.3-.5.7-.7h.1c.1 0 .1-.1.2-.1.3-.1.5-.3.7-.5.2-.1.3-.3.5-.4.1-.1.2-.2.4-.2h.4c.4-.1.9-.2 1.3-.2.3 0 .6-.1.8-.1.2 0 .4-.1.5-.1.4-.1.7-.1.9-.3l.3-.3c.1-.2.5-.6 1.4-.9.4-.1.6 0 .8.1.1 0 .2.1.3.1.4.1.8.4 1.1.7l-.1-.1v-.1c-.1-.2-.3-.3-.5-.5l-.3-.3c-.1-.1-.1-.1-.5-.1-.3 0-.8.1-1.2-.2-.2-.1-.3-.3-.4-.5-.1-.4-.1-1.2 1.3-3.4.1-.2.2-.4.4-.6.2-.3.8-1.2.7-1.4-.1-.1-.2-.3-.3-.4 0-.1-.1-.2-.2-.3-.9.2-1.8-.7-2.2-1.1 0-.1-.1-.1-.1-.1-.2-.2-.3-.2-1 .2-.2.1-.3.2-.5.3-.8.4-1.4-.1-1.8-.4-.1-.1-.2-.2-.4-.2-.1.1-.2.2-.3.2-.6.5-1.5 1.3-2.6 1.1-.2 0-.4-.1-.6-.1h-.8c-1 .1-1.6 0-2.4-.6-.6-.5-.5-1.2-.4-1.7 0-.2.1-.5 0-.6 0-.1-.2-.1-.4-.2-.4-.1-1.1-.3-1.3-1.1-.1-.5-.4-1.1-.6-1.6-.1-.1-.2-.1-.3-.2-.3-.1-.7-.2-1-.6-.1-.1-.1-.2-.2-.3-.2-.2-.3-.3-.6-.4-.1 0-.2-.1-.3-.1-.1-.1-.2-.1-.3-.2-.6-.5-.8-1.3-.9-1.8-.1-.8-1.9-2.4-2.7-2.7h-.1c-.2.2-.4.3-.6.3h-.3c.1.1.1.1.1.2.2.2.4.4.4.5.4.6.4 1.2.5 1.7 0 .4 0 .7.2 1l-.5.8h-.5c-.8 3.2-2.7 6-5.5 7.9-.2.2-.5.3-.7.4-.7.4-1.5.6-2.3.9-.3.1-.5.2-.8.3-.3.1-.6.2-.8.3-.3.1-.6.3-.8.5-.2.2-.4.4-.6.7-.2.2-.3.3-.4.5v.1c0 .2 0 .5-.2.9 0 0 0 .1-.1.1l-.4-.1c-.1.3-.3.8-.3 1-.1.3-.1.4-.2.4-.1.1-.1.3-.2.4-.1.6-.3 1.3-.6 2.3 0 .8-.4 1.2-.7 1.5-.2.2-.3.3-.4.5l-.1.3c-.2.8-.5 1.2-1.5 1.2h-.1c-.4 0-.8-.2-1-.4l-.1-.1c-.5-.4-.7-.9-.8-1.4v-.1c0-.1-.1-.2-.1-.3 0-.1 0-.1-.1-.2h-.1c-.2 0-.6.1-1.1-.1-.1-.1-.2-.1-.3-.2l-.3-.2c-.1-.1-.2-.2-.3-.2-.3.3-.7.5-1 .6-.4.1-.6 0-.8-.1-.2-.1-.4-.5-.2-1.2-.1-.1-.2-.2-.2-.3v-.4c0-.4.1-.9.5-1.2.1-.1.2-.1.3-.2h.2c.1 0 .3-.1.4-.1h.1v-.5c0-.2-.1-.5-.2-.8-.2.2-.4.3-.6.4-.1.1-.2.1-.2.2-.3.2-.5.5-.7.8-.1.2-.3.4-.4.5-.7.8-1.1 1.5-1.5 2.4l-.1.3c.1.3.1.5.1.7 0 .3 0 .4.2.6l.1.1c.4.4.6.6.7 1v.3l-.2.2c-.1.1-.1.2-.2.3.1.5.3.7.6 1.1.1.2.3.4.5.6.3.4.8 1.4.4 2.1-.2.3-.5.6-1.2.5v.4c.2.1.5.2.6.2.1 0 .2.1.3.1 3.3 1.4 5.6 3.6 6.7 6.6.4 1.1 1.1 2 1.8 3 .8 1.1 1.7 2.3 2.1 3.8.3 1 .8 1.9 1.3 2.8.4.8.9 1.6 1.2 2.5.1.2.2.5.3.7.2.6.4 1.2.7 1.7.2.3.4.7.6 1l.9 1.5.1.1c.2.5.5 1 .6 1.6v.5c.1.1.3.2.4.3.2.1.4.2.6.4.5.4.8 1 1.1 1.4.2.4.7 1.2.5 2l.2.2c.1.1.2.1.2.2.9.9 1.5 1.9 2.1 3 .2.4.4.8.7 1.2l.3.5c.8 1.3 1.5 2.4 1.1 4.3h-.1c.1.3.1.5.1.7v.3c.7.5 1.2 1.3 1.6 2 .3.6.9 1 1.5 1.4.4.3.8.6 1.2 1 .3.3.5.6.7.9.4.5.7 1 1.2 1.2 1 .6 2 1.1 3 1.7.5.3.9.6 1.3.9.4.3.8.6 1.2.8.4.2.8.4 1.2.5.5.2 1.1.4 1.6.7l.2.2c.7.4 1.4.9 2.1 1 1.1.3 2 1 2.9 1.6.6.5 1.3 1 2 1.3 1 .4 1.4 1.2 1.8 1.9.3.5.5.9.9 1.2.2.2.5.3.7.5.4.3.9.5 1.4 1 .5.4.9.9 1.4.9.1.1.3 0 .5 0zM475.9 615c0 .1.1.2.1.3.1-.1 0-.3-.1-.3zM482.3 603.7l.6.3c0-.1-.1-.2-.2-.2-.2-.1-.3-.1-.4-.1zM488.7 595.5c-.1 0-.2.1-.3.2l.5-.2h-.2z"/>
        <path class="st4" d="M492.4 583.3c0-.2-.1-.3-.1-.5l-.3-.2c.3-.6-.1-2.2-.6-3.4 0-.1-.1-.3-.2-.3-.5-.3-.4-.9-.3-1.1v-.2c0-.5-.2-1.1-.4-1.7-.1-.2-.1-.4-.2-.6-.5-1.7-1.7-2.4-3.6-2.2h-.3c-1 .1-2.3.3-3.1-.5-.2-.2-.4-.2-.7-.3-.4-.1-.9-.3-1.4-.8-.2-.3-.5-.4-.8-.6-.4-.2-.9-.5-1.2-.9-.2-.3-.4-.5-.7-.7-.3-.2-.6-.5-.9-.9-.2-.3-.4-.5-.6-.8-.2-.3-.5-.7-.7-1-.2-.3-.5-.4-.8-.5-.3-.1-.6-.3-.9-.5-.3-.2-.6-.5-.9-.7-1.6-1.3-3.4-2.8-5.3-3.2-.7-.1-1.4 0-2.1.1-.5.1-.9.2-1.5.2h-.5v.1l-1 .4c-.2-.2-.4-.2-.8-.3-.2-.1-.5-.1-.7-.2-.2-.1-.5-.2-.7-.4-.1 0-.1-.1-.1-.1-.3.3-.8.2-1.1.2h-.3l-.9-.5c0 .1.1.2.1.2-.2-.2-1.2-.7-1.5-.8-.2-.1-.4-.2-.5-.3-1-.6-2.1-1-2.4-.9l.1-.1-.9.6h-.5c-.3.1-.4.2-.4.2l-1 .1-.1.1s.1.1.2.1c.2 0 .3 0 .4-.1-.1.1-.2.3-.4.5-.3.4-.5.8-.9 1l-.5-.4-.2-.1-.1-.1.1.1c0 .3-.1.5-.2.8-.2.4-.5.6-.8.8-.3.3-.5.4-.5.6l-1.1.4c-.5-.6-.1-1.2 0-1.5.1-.1.1-.2.1-.3-.3-.8.3-2.5.6-2.9.1-.2.3-.4.4-.5l-.5.1c-.1 0-.2.1-.3.1v-.1h.2-.2l-.5-1c.1-.1.2-.1.4-.2s.2-.2.3-.5c.1-.2.1-.4.2-.6-.2.1-.5.1-.7 0l-.1-.3c-.4-.2-.4-.7-.3-.9l-.3.2c-.2-.1-.4-.2-.5-.3 0 .2 0 .5-.2.7l-.9.2c-.3-.3-.6-.8-.6-1.3l-.3.1c-.1-.2-.2-.4-.2-.6l-.6-.1c-.1-.2-.2-.3-.3-.5l-.6-.2c0 .1 0 0-.1 0 0 0-.1 0-.2-.1-.1 0-.1.1-.2.1l-.8-.6c0 .1.1.2.1.2-.1-.1-.2-.1-.3-.2h-.4c-.1 0-.2-.1-.4-.2-.3 0-.5-.1-.7-.2-.1 0-.2-.1-.3-.1-.1 0-.1 0-.2.1l-.3-.9-.2-.1c-.1.1-.2.1-.4.2l-.5-.4-.6-.2-.1-.2-.5-.4v.1l-.1-.1-.1.7c-.6.2-.9-.1-1.1-.2l-.4-.1c-.1 0-.2 0-.3-.1-.1 0-.2.1-.3.2-.2.1-.3.2-.5.3-.3.1-.5.1-.7 0 0 0-.1.1-.2.1-.1.1-.2.4-.2.8s0 .9-.3 1.3c.1 0 .3.1.4.1l-.2 1.1-.3.1c-.1 0-.2 0-.3.1v.2l-.9.6c-.3-.2-.5-.4-.6-.5l-.1-.1c0 .1-.1.1-.2.3-.5.9-.7 1.1-1.7 1.5-.4.2-.5.7-.7 1.5-.1.6-.2 1.3-.6 1.8l-1.1-.3c-.1-1.2.2-2.1.5-3.1-.1.1-.3.1-.4.1-.1 0-.3.1-.4.1l-1.2.1v-.1c0-.3-.1-.3-.1-.3-.1 0-.5.1-.7.2-.5.2-1 .4-1.5.3l-.3-.5h-.1c-.2 0-.3 0-.5-.1-.7-.2-.7-.9-.8-1.3v-.4c-.5-.6-.4-1.3-.4-1.9v-.6c-.6.7-1.6 1.4-2.3 1.7-.4.2-.7.4-1 .6-.2.1-.4.3-.6.4-.3.2-.6.2-.8.3-.3.1-.5.2-.7.3l-.6-.5h-.1v-.1l-.2-.1c0 .1.1.2.2.3-.2-.1-1 0-1.6.1l-.7-.8c.3-.8 2.1-1.6 2.7-1.6.2 0 .4.1.6.1h.1c0-.7.5-1.1.8-1.3.1 0 .1-.1.2-.1-.1-1 .2-1.8.9-2.7.2-.3.5-.6.7-1 .4-.6.7-1.1 1.3-1.6.2-.2.5-.4.8-.6.4-.3.8-.7 1.1-1 .2-.2.3-.5.5-.8.1-.2.2-.5.4-.7.1-.2.3-.4.5-.5.1-.1.3-.2.3-.3.2-.8.8-1.3 1.4-1.7l-.3-.8c.4-.2.7-.6.7-1s-.2-.6-.6-.8c-.1-.1-.3-.1-.6-.1-.5 0-1.3-.1-1.7-.9 0-.1-.1-.2-.1-.3 0-.1-.1-.3-.1-.3s.1.1.1 0l-.6-1c.1-.1.2-.5-.6-2.4-.1-.2-.1-.3-.2-.4-.5-1.3-.8-2.9-.8-4.6l-.5-.1c.1-.7 0-1.3-.1-1.7l-.9.5c-.1-.1-.1-.2-.2-.4-.1.3-.3.7-.5 1-.4.7-.8 1.4-1.3 2.1-.4.6-.8 1.2-1.1 1.8-.2.3-.3.7-.5 1-.1.2-.2.5-.3.7-.1.1-.1.3-.2.4-.3.8-.7 1.4-1.2 1.8l-.2.1c-.3.2-.6.5-.9.6-.4.1-.7 0-.9 0-.2-.1-.3-.1-.3 0l-.5-.5h-.2c-.7.2-1.3 0-1.9-.2h-.1c-.3.1-.9.5-1.1.7-.1.1-.2.2-.3.2-.2.1-.4.1-.6 0-.6-.1-1.3-.6-1.8-.9-.1 0-.1-.1-.2-.1-.7-.3-1.6-1-1.7-1.1-.1-.2-.7.1-1.1.2l-.9.3c-.1 0-.2 0-.3.1-.5.1-.8.2-1.4-.2l-.1.1-.1.2.1.1c.2.2.4.6.5 1.1.1.5-.1 1-.5 1.2-.2.1-.4.2-.7.2h-.2c-.6 0-1.2-.2-1.6-.4-.8.4-1.7.2-2.3 0-.7-.2-1.1-.3-1.6 0-.1.1-.2.2-.2.3l-.3.3c-.4.4-.9.4-1.2.5-.1 0-.3 0-.4.1-.3.1-.4.2-.6.3-.3.2-.7.4-1.5.5l-.2.2-.3.2V539.7l-.1.1c-.2.4-.7.6-1.2.8-.1.1-.3.1-.5.1h-.3c-.2 0-.4 0-.6-.1-.3-.1-.4-.3-.5-.4-.2 0-.5-.1-.7-.2-.1 0-.2-.1-.2-.1l-.1-.1c-.2-.2-.4-.3-.5-.6-.1-.4-.7-.9-1-1.1h-.1l-.3-.5c-.1-.1-.2-.1-.3-.2-.4-.4-.3-1-.2-1.3.1-.4 0-.5-.4-1-.8-1-.8-2.8-.6-4 .1-.4.2-.7.4-1.1.1-.3.2-.5.3-.8v-.4c0-.7.2-.9.5-1.3l.3-.3.1-.2c.1-.2.4-.6.4-.7 0-.1-.1-.1-.2-.2-.3-.3-.6-.8-.6-1.3v-.5c-.1 0-.2 0-.3-.1-.4-.1-.8-.2-1.1-.4-.2-.1-.3-.3-.3-.6-.1-.4.2-.9.4-1.3.1-.1.2-.4.2-.4 0-.2.1-.9-.3-1.2-.1-.1-.4-.1-.9 0-.1 0-.3.1-.5.1.1.3.1.5.1.8-.1.5-.3.9-.8 1.3-.2.1-.3.3-.5.6-.2.2-.3.4-.5.5l-.2.2s-.1 0-.1.1H374.4c-.2.2-.5.3-.6.3h-.1c-.1.7-.9.9-1.3 1-.1 0-.3.1-.3.1-.7.3-1.5.7-2.3.6-.2 0-.4-.1-.6-.2 0 0-.2.1-.3.2-.2.1-.5.3-.8.4-.1.1-.1.3 0 .6.1.4.1.8-.1 1.2-.1.3-.3.5-.6.6-.4.1-.8.1-1.3-.3-.3-.3-.5-.6-.7-.8-.1-.2-.3-.4-.4-.5h-.1s-.1 0-.2.1c-.1 0-.2.1-.3.1h-.1c-.1 0-.3 0-.5-.1h-.1c-.1 0-.2 0-.3-.1H362c-.7 0-.8-.4-.9-.8l-.1-.2c-.1-.2-.6-.3-.9-.2h-.4v.1c.1.1.2.3.3.4l.1.1c.2.2.3.4.5.5.3.3.5.6.7 1.1v.1c.1.3.1.6.2 1 0 .5 0 .9.1 1.3 0 .2.2.3.3.6.2.4.5.9.4 1.5v.7h1.7c.1 0 .2 0 .3.1.2.1.4.1.5.3.2.2.2.4.2.6V534.6c0 .1 0 .2-.1.2-.3 1-.8 1.2-1.3 1.4-.1.1-.3.1-.4.2-.2.2-.5.3-.8.4-.2.1-.4.2-.5.2 0 .1-.1.3-.1.4-.1.3-.2.6-.4 1-.1.2-.3.4-.5.6-.2.2-.3.4-.5.6l-1.1-.3.1.1c.1.1.2.1.2.1s-.1 0-.1.1h.1c-.2 0-.5.3-.8.5-.1.1-.2.1-.3.2-.3.2-.5.3-.7.4-.1 0-.3.1-.4.1-.4.2-.7.4-1 .9-.1.1-.1.2-.2.3-.4.6-.8 1.2-1.2 1.5-.1.1-.2.2-.4.2l-.4.1-.3-.3s0-.1-.1-.1c-.3-.4-.2-.9-.1-1.2v-.1c-.2.1-.4.2-.7.4-.6.5-1.3.6-1.8.6-.3 0-.6-.1-.9-.2-.1 0-.2-.1-.2-.1-.1 0-.1-.1-.2-.1-.7-.4-1.2-1.1-1.6-1.6-.2.1-.4.1-.6.1-.2 0-.4-.1-.5-.1-.1-.1-.2-.1-.2-.2-.2-.3-.3-.7-.1-1V539.6c0-.7-.2-2.2-.7-2.9l-.2-.2c-.1.1-.4.4-.5.6-.6.7-1.2 1.4-1.9 1.2-.2 0-.4-.2-.6-.4-.1.1-.1.2-.2.3 0 0-.1 0-.1.1-.1.1-.1.1-.2.1-.4.2-1 .2-1.5.2h-3.5c-.3 0-.6-.1-.9-.1-.4-.1-.7-.1-.9 0-.3.1-.1 1.3 0 1.8v.3h1.1c.1 0 .3.1.4.1.8.2 1.4.7 1.6 1.3.1.4.3 1.3-.1 1.8-.2.3-.5.4-.9.4s-.6-.2-.8-.4l-.1-.1c-.6.1-1.8.3-2 .8V546.2c0 .5.1 1 .4 1.4.1.1.1.2.2.3l.1.1.2.1c.5.4 1.3.9 1.2 2 0 .4.1.5.3.9l.3.6c.6 1.3.2 2.8-.1 4.1-.1.5-.2.9-.3 1.3-.2 1.2-.3 2.5-.4 3.7-.2 2.6-.4 5.2-1.2 7.7h-.1c-.1.4-.4.7-.7.8-.2 0-.4 0-.6-.1h-.8c-.3-.4-.8-.7-1.3-.7-.1 0-.3 0-.4.1-.1.1-.2.1-.3.2 0 .1-.1.1-.1.1l-.4.4c-.8.5-1.8.6-2.7.7-.5 0-1 .1-1.3.2-.2.1-.4.2-.6.5-.3.3-.6.6-1.1.7-.2.1-.2.1-.3.2-.1.2-.2.4-.5.6l-.1.1s-.1 0-.1.1c-.3.3-.6.5-.9.6-.6.4-.7.4-.8 1.4v.2c0 .6 0 1.2-.4 1.9l-.1.2c-.1.1-.1.2-.2.3-.2.3-.3.6-.2.8 0 .1.1.3.1.4.2.5.4 1.2.1 1.8-.1.2-.2.3-.3.4-.1 0-.1.1-.2.1-.2.1-.4.3-.6.4-.4.2-.8.5-1.1.8-.2.2-.3.5-.3.7 0 .2 0 .4.1.5.1.2.1.3.2.5l-.1.2c0 .2 0 .3-.1.5l-.1.1v.1c-.1 0-.1.1-.2.1 0 0-.1.1-.2.1-.1.1-.3.2-.4.3 0 .1.3.4.4.6.4.4.8.8.7 1.3v.2c.4.5.8 1.1.9 1.7 0 .1 0 .1.3.3l.2.1c.4.3.5.7.6.9 0 .1.1.2.1.3.1.2.3.4.6.6.4.3.8.7 1 1.2.3.8 0 1.4-.3 1.9h.6c.5 0 1 .1 1.5.2.1 0 .2.1.3.1.1 0 .1.1.2.1s.2.1.3.1c.1 0 .1.1.1.1.6.5 1.1 1.4 1.2 2.2 1.2.2 2.5.3 3.4-.3.2-.1.5-.5.8-.9.6-.8 1.4-1.6 2.3-1.7h.2l.6.8c-.1.3-.2.5-.3.6 0 .1 0 .1.1.2.1.2.2.4.1.6V596.2c0 .1-.1.3-.1.4-.1.2-.1.4-.1.5l.1 1c.1 1.1.1 2.2.2 3.3.3.1.5.3.7.4 0 0 .1.1.2.1h.2c.1 0 .1 0 .2-.1.1 0 .2-.1.4-.2.3-.1.6-.3.9-.3.2 0 .4-.1.6-.1h.2c.3 0 .7 0 1.1.1.7 0 1.4.1 2.2.2l1.1.1c.2 0 .5 0 .7.3.1.1.1.2.1.2s.1 0 .1-.1c.1 0 .2-.1.2-.1.1 0 .2-.1.3-.1.1 0 .3-.1.4-.2.1-.1.1-.2.2-.4.1-.3.3-.7.7-1h.1c.1-.1.2-.2.4-.2.2-.1.5-.1.7-.1h.5s0-.1.1-.2c.1-.2.2-.3.3-.5 0-.1.1-.1.1-.2l.3-.3s.1 0 .1-.1l.6-.3c.1-.1.3-.1.4-.2.3-.1.6-.2.8-.4.2-.2.4-.4.6-.7.4-.5.8-1 1.5-1.2.2-.1.4-.1.6-.2.9-.3 2-.6 3-.5l.5.1H355.9l.2-.2.2-.2.8-.1c1.4 1 1.1 2.5.8 3.7-.2.7-.3 1.3-.2 1.8 0 .1.1.2.2.4.1.1.2.3.3.4 0 .1.1.1.1.2V601.5c.1.4-.1.8-.2 1 0 .1-.1.2-.1.2v.6c.1.2.2.3.4.5.2.3.5.6.6 1v.1c0 .1 0 .2.1.2l.2.2c.1 0 .1.1.2.1.2.2.3.5.3.8v.2h.1c.2 0 .5.1.9.4.2.1.3.3.5.4.2.1.4.3.7.5.1.1.2.2.3.5.1.1.1.2.2.3.2.2.3.2.7.3.1 0 .2.1.3.1.3.1.5.1.6.1h.1s.1 0 .1-.1c.8-.4 1.4-.1 1.9.2l.1.1.3.3c.1.1.2.2.4.3.2-.2.5-.3.9-.2.1 0 .1.1.2.1h.1c.4.2.6.6.8.9.2.3.3.5.4.5h.1c.3 0 .5.1.8.2.2.1.3.1.5.2.3.2.6.3.9.3.4 0 .6.1.9.3.4.3.6.7.9 1 .2.3.4.6.6.7h.5c.5 0 .9 0 1.4-.1h.1c1.1-.2 2.2.5 3 1 .2.1.3.2.5.3.8.5 1.1 1 1.2 1.4.1.4.1.7 0 1.1 0 .2 0 .4.1.6.6 1.3.8 2.5 1.1 3.9v.2l-.6.7h-.2c.1.1.2.2.3.4.4.5.8 1 .9 1.7V625.9c0 .3 0 .5.1.8v.2c0 .1 0 .2.1.2v.1c0 .1.1.2.1.2.3.3 1.2.3 1.7.3h.8l.5.1c1.3.1 2.6.3 3.9.1.2 0 .3 0 .5-.1l.7.6c0 .5-.1 1-.3 1.3-.1.2-.2.4-.2.6 0 .4.1.9.2 1.4l.1.2c.2.7 1 1.8 1.7 1.9h.2c.2 0 .8-.1 1.1.6.1.1.1.3.2.4.1.2.1.4.2.5.1.2.2.4.2.6.1.3.2.5.3.8.4.8.7 1.5.5 2.7 0 .2-.1.4-.2.7-.1.4-.4 1.1-.3 1.3.1.2.1.3.1.5v.4c0 .6-.3 1.1-.5 1.5l-.3.6c-.4.9-.4 1.2 0 1.6.1 0 .1.1.2.1.2.2.4.4.4.6v.4c0 .6-.5.9-1 1.1.2.9.6 1.8.9 1.9l.1.4.1.5.1.1c.2.2.4.4.5.7.2.6 0 2.1 0 2.1v.1c-.1.2-.1.4-.1.6 0 .1 0 .2.1.3.1.3.2.7.1 1.2l-.1.3c-.1.3-.2.6-.2.8.7.3 2.6.9 3 .9.4 0 .7.1 1.1.1.3.1.6.1.9.1 0-.1.1-.2.1-.3.1-.3.3-.7.8-.8.2 0 .4 0 .6.1.1.1.2.1.3.2.4.3.9.5 1.4.7h.1c.1 0 .3.1.4.1 1 .1 1.1.7 1.3 1.4 0 .2.1.4.3.7.2.4.3.8.4 1.3 0 .3.2.6.4 1 .3.4.6.9.6 1.5.1 1.3.4 2.7 1.2 2.6.3 0 .6-.2 1-.4.2-.1.4-.2.7-.3h.1c.1 0 .2-.1.4-.1.8-.2 1.4.4 1.9.8l.1.1.2.2.1.1V668.4c.3.6.2 1.1.1 1.4-.1.2-.1.3-.1.4.2.7 0 1.5-.2 2.2 0 .2-.1.4-.1.5-.1.6-.2 1.6-.2 2.2.1 0 .1 0 .2.1.1-.1.1-.1.2-.1.3-.2.6-.2 1-.2.3 0 .7.1.9.2 1.1.4 1.4 1.4 1.7 2.1l.1.3c.4 1.2.6 2 .6 3.3 0 .2 0 .4.1.6 0 .4.1.9 0 1.4-.1.3-.1.7-.2 1l-.8.5c-.3.2-.6.3-.8.5-.4.3-.7.6-1.3.8l-.1.1c-.9.3-1.1.5-1.2.6-.1.8-.8 1.1-1.3 1.4-.1.1-.3.1-.4.2l-.1.2c-.1.2-.2.4-.4.6-.2.2-.4.3-.6.5-.1 0-.1.1-.2.1v.1c.1.3.1.6-.1 1l-1 .2.2.1c-.4.1-1.3 1.7-1.6 2.2-.2.3-.3.5-.4.7-.2.3-.4.8-.6 1.3-.4 1.1-.9 2.3-2.1 2.8-.1.1-.2.3-.3.6-.1.2-.2.5-.3.8v.1c.1 0 .2 0 .3-.1 0 0 .1-.1.1-.2.2-.3.4-.7 1-.7.4-.1.8.1 1.2.2h.1c.1.1.2.1.3.2l.1.1c.1 0 .1.1.2.1.3.2.6.5.8.7.2.2.3.3.5.4.1.1.3.2.5.3 0 0 .1 0 .1.1.8.5 1.7 1.2 1.9 2.2v.5c.2-.1.3-.2.3-.2l.7-.8c.5.1 1 .7 1.6 1.3.3.3.7.8.9.9h.2l.2-.1.3.1c.3.1.5.3.6.4.1.1.2.2.3.2l.6.3c.4.1.8.3 1.3.7l.4.4c.1.1.2.2.3.4l.1.1.3.3c.2.1.4.2.7.3.4.2.9.3 1.3.7.5.4.8.8 1.1 1.3.4.6.8 1 1.4 1.4.1 0 .2.1.2.1.1 0 .2.1.3.2.3.2.6.5.7.9.1.6-.2 1-.5 1.5-.1.1-.2.3-.3.5-.3.4-.1 1.6.2 2.3 0 .1.1.1.1.2l.1.1c.1-.1.2-.2.3-.4l.6-.9c.6-.9 1.1-1.6 1.3-2.6 0-.2 0-.4.1-.6.1-.6.1-1.3.4-2 .1-.1.1-.2.2-.4 0-.1.1-.2.1-.2-.3-.2-.5-.5-.5-.8v-.3c0-.1-.1-.1-.1-.2-.3-.5.1-1.1.4-1.5.1-.1.1-.2.2-.3v-.4c0-.4.1-1.1.7-1.4.9-.5 1.1-.8 1-1.2 0-.2 0-.6.4-.8v-.1c-.1-.3-.1-.6 0-1h.2c0-.4 0-.8.2-1.1l-.1-.1c-.3-.3-.7-.7-.7-1.7l.9-.5c.4.2.6.6.7.9 0 .1.1.2.1.2.3.1.5.3.6.4.4-.4.9-.6 1-.7.2-.1.5 0 .7.1.3.3.5.9.6 1.4v-.2c.1-.5.2-.9.3-1.4.3-1.5.7-3 1.5-4.4.4-.8.9-1.6 1.6-2.2.2-.2.4-.4.7-.5.2-.2.5-.4.7-.5-.1-.2-.2-.4-.2-.5 0-.1 0-.1-.1-.2l.6-.3c0-.1.1-.3.1-.5.1-.5.4-1.5.2-1.7-.3-.5-.3-1.2-.3-1.8 0-.3 0-.9-.1-1l.2-.8c.1.1.2.2.3.2l-.2-.3.1-.2-.1.1-.4-.5c.1-.3-.1-.8-.3-1.2-.1-.3-.3-.5-.3-.8-.1-.2-.1-.5 0-.8v-.6c-.5-.2-.6-.7-.6-1v-.1c0-.1-.1-.1-.1-.2l1.1-.4h-.1c-.1 0-.2.1-.2.1v-.5h-.2l-.4-1.1c.2-.2.5-.2.7-.2h.1c0-.1.1-.2.1-.3-.3-.1-.6-.3-.9-.5-.4-.3-.4-.7-.4-.9l1-.5c.1.1.1.1.2.1v-.2l.9-.7c.5.2.7.2.8.1l.1.1c.1-.2.2-.3.4-.5v-.7c.3-.2.5-.5.7-.8.2-.3.4-.6.7-.8.4-.3.7-.5 1.1-.7.4-.2.7-.4 1-.6.2-.2.3-.4.5-.6.3-.4.6-.8 1.2-1.2l.6-.3c.1-.1.4-.2.5-.2l.4-.8c.3 0 .6 0 .8.2 0-.1.1-.1.1-.1.1-.2.2-.3.3-.3.8-.7 1.6-.4 2.2-.2.1 0 .3.1.4.1 0-.3 0-.7.4-1.1.2-.2.4-.3.7-.4.3-.2.5-.3.7-.5.3-.4.7-.6 1.1-.6-.1-.2-.2-.5-.1-.8.3-.9 1.3-1 1.8-1.1h.8c.3 0 .3 0 .5-.1.6-.4 1.5-.6 2.6.4.3 0 .7-.1.8-.1 0-.1-.1-.1-.1-.2-.1-.2-.3-.6-.1-1 .2-.4.7-.5 1.1-.6l.7.6c0 .2 0 .5-.1.7 0 .1-.1.3 0 .3.1.1.6 0 .9-.1l.3-.1c.9-.2 1.9-.3 2.6-.1v-.1c-.1-.3-.3-.8-.1-1.3.3-.7.9-1.4 1.6-1.8.4-.2.7-.3 1.1-.5.5-.2.9-.3 1.2-.7.1-.1 0-.6-.1-.8 0-.2-.1-.3-.1-.5-.1-.9.1-1.7.4-2.4.1-.2.1-.4.2-.6 0-.2.1-.3.1-.4.1-.4.1-.8.6-1.3.1-.1.2-.2.4-.3.3-.3 1-.9 1-1.2 0 0 0-.1-.1-.2l.3-1.1c.2 0 .3-.2.4-1 .1-.7.2-1.7 1.1-2.1.6-.3.4-1.7.2-2.6 0-.2-.1-.4-.1-.6-.2-1.3-.2-3.3.8-4.9.2-.4.5-.7.7-1 .5-.5.6-.7.4-1.5-.5-1.8-.1-3.4.3-5 .3-1.1.5-2.2.5-3.3 0-.8-.3-1.7-.5-2.6-.2-.7-.4-1.4-.5-2.1-.2-1.1 0-2.1.1-3.1.1-.5.1-.9.1-1.4l-.3-.1c.1-.2-.1-.8-.3-1.1l-.1-.1.3-.3c0-.3 0-.5-.1-.7h-.4v-.2c0-.6 0-1.3.5-1.6.1-.4.3-.7.5-1 .1-.2.3-.4.3-.6 0 .1-.1 0-.2-.1l-.1-.1c-.1-.1-.2-.2-.3-.4-.1-.1-.1-.2-.1-.3l1.1-.4h-.2c-.1 0-.2.1-.3.1.1-.1.2-.5.2-.6l1.2-.2c.1.2.2.3.4.5s.5.5.6 1c1-.7 2-3.3 2.6-4.9.3-.8.6-1.5.8-1.9l-.2-.3c.1-.1.1-.2.2-.5.1-.2.1-.5.3-.7l.4.2.3-.3-.1-.1-.3-.3 1-.8s-.2 0-.2.1c0 0 .1-.1.1-.2-.1-.2-.4-.5-.3-.9l.8-.5c.2.1.4.2.5.3l.2-.2.5-.5c.3-.2.6-.4.8-.5.2-.1.4-.2.6-.4.7-.6 1.4-1.6 2.1-3-.1-.1-.2-.3-.3-.5l.5-.2v-.2l.6-.3c.2-.5.6-.9.9-1.2.3-.4.6-.7.8-1.1.2-.4.3-.8.4-1.3.2-.5.3-1.1.6-1.6.1-.2.1-.6.2-.9 0-.5 0-1.1.4-1.7.1-.2.1-.4.1-.8s-.1-.8 0-1.2l-.1-.7c1 .3.9 0 .8-.7z"/>
        <path class="st4" d="M448.4 555.3c.1-.1.1-.2.1-.3h-.1v.3zM453.2 558.6c.1-.1.1-.3 0-.3l-.1.1v.3l.1-.1zM449.5 557.9l-.4.5h.1l.3-.5zM448.2 555.2l.1.1s0-.1-.1-.1zM447.3 555.3zM445 553.3l-.2-.2.2.2c0 .1 0 0 0 0zM431.3 552.8h.1v-.1h-.2l.2-.2c-.1 0-.1.2-.1.3zM434.5 550.7l-.3-.1.1.1h.2zM430.4 553.7h.2c.1-.3.2-.5.4-.6l-.1-.1-.2-.2-.3.6c.1.2 0 .3 0 .3zM421.9 556.4s0 .1.1.2l-.1-.2zM435 549.7c0-.1 0-.1 0 0 0-.1-.1-.1 0 0l-.1-.1s0 .1.1.1zM428.2 555.6v-.1.1zM426.6 548.6c-.7 0-1.2-.1-1.9-.3l-.2-.1c-1.2-.3-2-.5-2.4.2-.2.3-.2.7-.1.9 0 .1.1.2.3.2l-.3 1.2h-.2v.2c0 .2-.1.4-.1.6.3-.1.6-.2.9-.1l.4.9c-.3.5-.6.9-1.2.8v.8c.1.1.1.3.2.4.2.3.3.6.6.9.1 0 .4.1.5.1-.1 0-.2.1-.3.2.1 0 .1.1.2.1l.2-.5c.2 0 .4 0 .7-.1.4-.1.9-.2 1.3 0 .1 0 .1 0 .2.1.1 0 .2.1.3.1 0 0-.1 0-.3.1-.1.1-.1.2-.1.2l.5-.2c.4-.3.6-.5.6-.7l1.2-.2c.1.1.8-.1 1.4-.4.3-.2.5-.5.7-1 .1-.3.2-.6.5-1 .4-.6.5-1.2.7-2.1 0-.2.1-.5.2-.7.1-.2.2-.6.2-.8h-.2c-.4 0-.9-.1-1.3-.2-.7-.2-1.4-.3-1.9-.1-.5.5-1 .5-1.3.5z"/>
    </g>
</svg>
