<svg xmlns="http://www.w3.org/2000/svg" viewBox="0 0 1440 980" style="enable-background:new 0 0 1440 980" xml:space="preserve">
    <style>
        .st0{display:none}.st1{display:inline}.st2{fill-rule:evenodd;clip-rule:evenodd;fill:none;stroke:#bcbcbc;stroke-width:.75;stroke-miterlimit:1.2402}.st4,.st5{fill:#bcbcbc}.st5{display:inline}
    </style>
    <g id="Layer_8">
        <path class="st4" d="M303.5 527.6v.4-.4zM295.9 539.1l.4.4c1.1 1 2.5 2.4 3.8 2.4.6 0 .9.4 1.1.6.1.1.1.2.2.2.6.2.8.8.8 1.2 0 .1.1.3.1.4h.2c.5 0 1 .1 1.5.2.4.1.8.2 1.1.2.1 0 .3 0 .4.1v-.2c0-.1.1-.3.4-.5.2-.1.4-.2.7-.2h.1c1 0 1.7.8 2.1 1.3.4.5.9.7 1.4.9.3.1.5.2.8.4h.1s.1 0 .1-.1H311.5c.2 0 .3 0 .6.1.9.3 1.7.7 2.4 1.6.1.2.3.3.4.4.6.7 1 1.2 1.3 2.3.1.2.1.3.1.5v.1c.7.1.9.3 1.1.6l.1.1.1.1c.3.2.5.3.7.4.6.3 1.1.6 1.3 1.6l.1.3c.2.7.2.7.9 1 1.2.4 1.1 1.4 1 2 0 .3-.1.6 0 .7.3.3.7.3.9.3.3 0 .6-.1.9-.1.3 0 .5.1.7.1.2 0 .3.1.5.1h.1c.6 0 1.4-.5 1.7-1 .1-.3.4-.5.7-.5.6-.1 1.1.3 1.5.7.1.1.3.3.4.3.1 0 .5-.2.7-.3.6-.3 1.3-.7 1.9-.2.3.2.5.4.6.6l.4.4c.1 0 .4.1.5.1.4.1.8.1 1 .4 1.1 1.2 1.2 1.8.3 3.2l-.3.5c-.5.8-1.3 2-1.5 2.8h.2c.4 0 1-.1 1.4.3.3.2.5.5.7.8.2-1.5.5-3.1.6-4.6.2-2.3.5-4.5.9-6.7.1-.2.1-.5.2-.7.2-.6.3-1.2.2-1.7-.1-.3-.2-.6-.4-.9-.2-.4-.5-.9-.5-1.6 0-.5-.2-.7-.6-1.1-.1-.1-.3-.2-.4-.4l-.2-.2-.2-.2c-.7-.8-.7-1.6-.7-2.5v-.6c0-.5 0-1 .2-1.5 0-.1.1-.2.1-.3l.1-.1c.6-.7 1.7-1.2 2.5-1.2.3 0 .5.1.8.1.1 0 .2.1.3.1 0 0 .1 0 .1.1 0-.4-.4-.6-.6-.7-.5-.3-1.2-.3-1.6-.1l-.9-.5c0-.3-.1-.6-.1-.9-.1-.9-.3-1.9.1-2.6.5-1 1.8-.7 2.5-.5.2 0 .4.1.5.1h4.2c0-.3 0-.8.4-1.1h.1c.1-.1.2-.1.3-.1.2-.1.4-.1.5 0 .5.1.6.6.8.9.2-.1.3-.3.5-.5.2-.3.4-.5.7-.8.2-.1.3-.2.4-.3.1 0 .1 0 .2-.1.3-.1.5-.1.7 0h.1v-.3c0-.2-.6-1.2-1.4-1.8-.3-.2-.5-.3-.5-.2l-1-.5c0-1.1 1.1-2 1.9-2.5l.3-.2c.2-.1.3-.3.3-.4 0-.3-.5-.9-.8-1.2-1.4-1.6-1.4-4.1-1.3-6.2 0-.6 0-1.3.1-2 0-.1 0-.2.1-.3 0-.1.1-.2.1-.3v-.1c.1-.2.2-.4.3-.5.1-.1.2-.2.3-.4 0-.1.1-.3.1-.4 0-.3.1-.6.2-.8v-.1l.1-.1c.1-.1.1-.2.2-.2.1-.1.1-.2.2-.3.1-.2.3-.4.3-.5 0-.1 0-.2-.1-.2-.1-.2-.3-.3-.4-.3h-.1c-.9.4-1.9.6-3 .5h-.1c-.1 0-.2 0-.2.1-.3.1-.6.1-.9.1-.4 0-.8 0-1.2-.1-.2-.1-.2-.1-.4 0s-.4.1-.8.2c-.2 0-.4 0-1.1-.2-.2 0-.3-.1-.4-.1-.1 0-.2-.1-.2-.1-.5-.3-.7-.8-.9-1.2 0-.1-.1-.1-.1-.2l-.6-.9c-.1-.2-.3-.4-.4-.6 0-.1-.1-.2-.1-.2-.1-.1-.2-.2-.2-.4-.1-.2-.2-.3-.3-.4-.4.1-.7.1-.9 0-.3-.1-.6-.2-.8-.4-.3-.1-.5-.3-.7-.3-.1 0-.2 0-.4.2-.2.1-.4.3-.7.3-.4.1-.8 0-1.2 0-.2 0-.4-.1-.6-.1h-.4c-.3.1-.6 0-.7 0h-.3c-.5.3-1.1.2-1.6-.1-.1 0-.1-.1-.2-.1h-.1l-.1-.1-.3-.3c-.2-.4-.4-.7-.5-1.1 0 0-.2-.1-.3-.1-.3-.1-.6-.2-.8-.5-.7-1-.2-2.9.3-3.6.1-.1.1-.2.1-.3 0-.3-.2-.7-.6-1.3-.2-.3-.4-.5-.5-.8-.2-.4-.2-.8-.3-1.3 0-.2-.1-.6-.1-.8 0 0 0-.1-.1-.1h-.1l-.6-.5c-.1 0-.1 0-.2.1-.4.2-.8.3-1.2.3l-.4-1c.2-.3.5-.6.7-.9.6-.9 1-2 1.3-3.4.4-1.7.8-3 1.7-4.6.4-.7 1-1.2 1.6-1.6.6-.5 1.1-.9 1.4-1.4.6-1.1 1.5-1.4 2.3-1.6.4-.1.8-.2 1.2-.5.4-.2.7-.4.7-.6 0-.1-.1-.3-.4-.6-.5-.4-.9-.4-1.6-.1-.1 0-.1.1-.2.2-.1.2-.2.8-.9.9l-.1-.2c0 .1 0 .3-.1.3-.3.9-1.5 1.4-2.4 1.8-.3.1-.5.2-.7.3-.4.3-.8.6-1.2.8-.9.7-1.9 1.5-3.6 1.2-1.5-.2-1.6-.3-2 .7-.4 1-1 2.1-1.7 2.1-.3 0-.8-.2-1-1l.4-.5c-.3-.1-.5-.2-.7-.3-.4.2-1.3 1.1-1.4 1.4 0 .4-.4.6-.7.8-.4.2-.6.3-.6.4v.2c0 .3.1 1-.5 1.4l.2.3c-.2.3-.3.8-.5 1.3-.1.2-.1.5-.2.7v.1c.1.2.4.7.1 1.4-.3.6-1 .7-1.5.7-.1 0-.3 0-.4.1-.3.1-.6.6-.8 1-.1.2-.3.5-.4.7-.2.3-.5.5-1.2.9-.4.3-1.2.8-1.4 1.1.2.7.6 3.1-.2 3.6-.2.1-.7.3-1.3-.4v-.9l.1-.1-.1-.1-.2-.2c.1.2.1.4.1.6 0 .2-.1.4-.1.6-.1.2-.1.4-.2.5-.1.2-.2.3-.3.5-.1.1-.2.3-.3.4l-.1.1-.3.3h-.1c-.1.1-.2.2-.3.2h-.1c-.1.1-.2.1-.2.2l-.4-.1c-.1.2-.2.4-.3.5l-.3.6c.4.3.7.9.9 1.3.2.4.3.7.5 1 .3.4.9 1.5.7 2.4-.1.3-.3.6-.5.7l.3.6c.2.3.4.6.4.8.2 1-.5 1.5-.9 1.7h-.1c0 .2.1.5.2.7.1.4.2.7.2 1.1l.1.5c.1.9.2 1.9 0 2.8v.2c0 .2-.2.6-.1.8l-.1-.1.3 1h.1l.4.1v.8l.6.8c-.1.3-.3.5-.5.6l-.1.1v.6c-.4.2-.8.6-1 1-.1.1-.1.3-.2.4-.2.5-.5 1.3-1.1 1.7 0 .4-.2.8-.3 1-.1.2-.2.5-.2.6 0 .3-.2.6-.4.7-.2.1-.5.1-.7.1-.1.1-.2.2-.4.3-.2 0-.4.1-.6.1-1 .1-1.6.2-1.9.8-.1.2 0 .4.1.8.2.5.4 1.1.1 1.8l-.9.2c-.3-.2-.6-.2-.8-.1-.2.1-.3.2-.3.4l.3-.2c.2.4.4.7.6.9zM294.8 538.6v.1-.1z"/>
        <path class="st4" d="M290.1 565.4c0 .1.1.3.1.4.1.7 0 1.2-.4 1.4-.3.2-.6.3-.8.3h-.2v.1l.2.5c.6-.4 1-.3 1.4 0 .3.1.5.3.6.5l.2.2h.3c.3 0 1-.1 1.4.6v.1c0 .1.1.2.1.3.1.1.1.3.2.4.2.5.4.8.6 1 .1 0 .1.1.2.1s.2 0 .4.1c0-.1.1-.3.1-.5 1.6-6.1 2.2-6.5 2.4-6.5.1-.3.4-.6.7-.8.1-.4.4-.7.6-.9.1-.1.1-.1.1-.2.2-.3.5-.5.7-.8l.1-.1.1-.1c.3-.2.6-.4 1-.6.3-.1.6-.3 1-.4l.9-.3c.7-.2 1.4-.5 2-.8.2-.1.4-.2.6-.4 2.8-1.9 4.6-4.7 5.2-7.9l.7-.2v-.7c0-.5 0-.8-.3-1.1 0-.1-.2-.2-.3-.3l-.3-.3c-.4-.5-.7-.9-.8-1.2v-.3h.1c-.3-.1-.5-.3-.7-.4l-.4-.4c-.2-.2-.7-.7-1.1-1-.1.4-.3.5-.4.6-.1.1-.3.1-.4.1-.7.1-1.7-.1-3.3-.5-.2-.1-.3-.1-.5-.1-.1 0-.2 0-.3-.1-.9-.2-1-.9-1-1.3v-.2c-.5-.2-.7-.5-.8-.7l-.1-.1h-.2c-.9 0-2.5-.9-3.1-1.4-.5-.4-.9-.8-1.3-1.2-.1.2-.2.5-.3.7l-1.2-.1c0 .1.2.2.3.2-.2 0-.6.2-.8.3-.2.1-.3.1-.5.2-.5.2-.7.3-.7.3v.3l-1.2.2c-.2.1-.5.2-.9.5 0 .3.1.8.2 1.1.1.5.1.7.1.9-.1 1.6-.9 2.4-1.8 3.3-.2.2-.2.5-.2.7 0 .1.1.2.3.2v1.2H288.1v.1c-.2.8-.6 1.2-1.4 1.3h-.2c0 .1.2.4.2.5.1.2.2.3.2.5.2.6 0 1.1-.1 1.4-.1.3-.2.4-.1.5 0 .1.1.2.1.3.1.3.3.6.3 1s.1 1.5-.5 2c.1 0 .1.1.2.1s.2.1.3.1c.5.3.9.6 1.2 1l.1.1c.4-.7 1-1.4 1.1-1.4l.3.2c-.1-.6-.1-1.5.9-2l.7.9c-.3.4-.3.9-.1 1.6.3.9.3 1.1 0 2.1-.1.2-.1.5-.2.7-.1.5-.2 1-.5 1.5-.3.6-.8.8-1.1.9.4.9.5 1.4.6 1.7zM357.4 491s-.1.1-.1.2v.3l.1-.1-.1-.1.1-.3zM374.8 495c.3 0 .7 0 1-.1.3-.1.3-.1.2-.7 0-.2-.1-.4-.1-.6 0-.4.1-.9.3-1.2-.4 0-.8.1-1.1.2.3.6.3 1.4.2 1.9-.2.2-.3.4-.5.5zM423.7 546h.3l.4.1v.1l.4-.4c-.1 0-.2 0-.3.1-.1 0-.3.1-.5.1h-.3zM424.7 541.8l.1.1s.1-.2 0-.2l-.1.1c0-.1 0-.1 0 0zM406.4 520.4l-.1.1-.2.2c-.4.5-.7 1-.6 1.8v.8c0 1 0 2.1.4 2.9v.1c.1.2.2.4.4.5.1.1.1.2.2.2.5.7 1.1 1.6.5 2.7-.2.4-.4.8-.5 1.2 0 .2 0 .4-.1.6 0 .3 0 .7-.1 1-.2.6-.6 1.6-1.2 2.3.1 0 .2.1.3.1.1 0 .3.1.4.2.3-.3.7-.7 1.5-.9.4-.2.8 0 1.1.1.1 0 .1.1.2.1h.3c.4 0 .9-.1 1.2 0h.1s.1 0 .1.1c.1 0 .2.1.2.1l.1.1c.1 0 .2 0 .3.1h.3c.2-.1.3-.2.4-.4.3-.2.5-.4.7-.6.2-.2.4-.7.6-1.2.2-.6.5-1.2.8-1.8.2-.5.4-.9.6-1.1l.4-.6c0-.1.1-.1.1-.2s.1-.1.1-.2l.2-.3c.8-1.1 1.7-2.6 1.6-3.8v-.1c-.1.2-.3.5-.7.6l-.6-1.1c.1-.1.2-.2.1-.4-.1-.4-.6-.8-.7-.9 0 0 .1 0 .1-.1l-1.2-.3c0-.1.1-.3.1-.4-.6-.4-1.1-1.1-1.6-1.7-.2-.3-.5-.7-.7-.8-.3-.2-.7-.3-1.2-.4-.2 0-.5-.1-.7-.2-.5-.1-.8-.4-1.1-.6-.2-.1-.4-.3-.6-.4-.1-.1-.2 0-.2 0-.1.1-.2.5-.2.7-.2 1.1-.7 1.5-1.1 1.9zM414.9 522.8z"/>
        <path class="st4" d="M392.9 519.5c.1.1.2.3.2.4.2.6-.2 1-.5 1.4l-.1.1-.1.1c-.3.3-.7.3-1.2.3s-1.3-.1-1.6.2c-.1.1-.1.2-.1.4.1 1.3.1 2.1-.1 3.3 0 .2.1.7.3 1.2.1.2.2.3.2.5.1.3.3.5.5.7.4.3.5.7.6.9 0 .1 0 .1.1.2h.2c.3-.1.8-.2 1.1.3.4.6.5 1.3.6 1.8v.3c.1.4.3.9.6 1.3.4.6.8 1.3.8 2.1 0 .3.1.4.7.7.3.1.5.3.8.5.1 0 .2.1.3.1.3.1 1.1.4 1.3.3 0-.2 0-.2-.2-.4-.2-.3-.7-.8-.3-1.6.2-.4.4-.6.5-.8l.2-.2s.1 0 .1-.1h.2c.4-.1.7.1 1 .2.2.1.3.1.4.1.6-.1 1-.3 1.5-.5 1.2-.4 1.5-.3 2.3.3.3 0 .5.1.7.4.1.1.1.2.2.2.2-.1.5-.4 1-1.5.2-.4.2-.8.2-1.2 0-.7.1-1.4.6-2.1.4-.5.3-.8 0-1.4-.1-.1-.2-.2-.3-.4l-.2-.2-.1-.2c-.8-1-.9-2.5-.9-3.6v-.5c-.1-1.3.1-2.2.9-3.2.1-.1.1-.2.2-.3.2-.3.4-.5.6-.8.3-.6.4-1 .3-1.1-.1-.2-.4-.3-.6-.3-.2 0-.5-.1-.9-.2-.3-.1-.8-.2-1.3-.3l-.2.7h-.8l-1.1-.4s-.3-.2-1.5-.2h-.5v.1c0 .3 0 .6-.3 1l-1.1-.4c-.1 0-.5-.4-3.1-.7h-.3c-.6-.1-.8.1-1.1.8-.2.6-.4 1.2-.7 1.7zM422 546.4c.1 0 .1 0 0 0 .1-.1 0-.1 0 0 0-.1 0-.1 0 0-.1-.1-.1-.1-.1 0 0-.1 0 0 .1 0zM409.4 535.4s0 .1.1.1c.1.1.1.1.2.1l-.3-.2z"/>
        <path class="st4" d="M381.6 505.5c-.4.2-.6.4-1 .8l-.3.3c-.3.3-.7.5-1 .6-.2.1-.5.3-.6.4-.1.1-.3.3-.4.5-.1.1-.2.3-.3.4 0 .1 0 .2.1.3.1.2.2.5.2.9.4-.1.8 0 1.1.4.2.3.2.6.2.9v.1c-.1.2-.1.4-.3.6-.3.3-.6.5-1 .6-.3.1-.5.3-.7.4-.1.1-.2.2-.4.2-.1.1-.3.1-.5 0h-.1c-.1 0-.1 0-.2-.1-.1.1-.2.3-.4.3-.5.2-.5.2-.4.7.1.5.3 1.2-.3 1.9l-.3.3-.4.4c.5.7 1.1 1.5 1.7 2.2l.3.3c.1.2.3.3.4.5h.4c.3 0 .6 0 .9-.1.8-.2 1.4 0 1.9.8.6.9.4 1.6.2 2.2-.1.1-.1.3-.2.4-.1.2-.1.3-.2.5h.1c.3.1.6.1.9.3h.1c.2.1.4.2.5.4.3.3.2.8.1 1v.2c.2.3.4.7.6 1.1.4.7-.2 1.5-.7 2.2-.1.2-.3.4-.4.5 0 .1-.1.3-.1.5v.1c0 .1 0 .2-.1.3 0 .1 0 .2-.1.3-.1.4-.2.7-.4 1-.2.4-.3.7-.3 1.1-.1 1.1.1 2 .6 2.5.4.4.4 1.1.4 1.7v.5l-.1-.1v.1c0-.1-.1-.1-.2-.2l.4.5c.9.3 1.5 1.2 1.9 1.9h.1c.2 0 .6 0 .9.3l.3.3c.1 0 .1 0 .3.1h.1c.1-.1.1-.2.2-.3.1-.1.2-.3.3-.4v-.1l.2-.1.1-.1c.9-.8 1.7-1 2.4-1.2.3-.1.6-.2.8-.3.3-.1.6-.1.8-.2.2 0 .2 0 .3-.1l.6-.6c.1-.1.2-.1.3-.2 0 0 .1 0 .1-.1.1 0 .2-.1.3-.1.5-.2 1-.2 1.7 0h.3c-.5-.5-.5-1-.5-1.4 0-.3-.3-.8-.6-1.2-.4-.6-.8-1.2-.8-1.8 0-.3-.1-1.1-.2-1.5-.3.1-.9.2-1.3-.3-.2-.3-.3-.5-.4-.8 0-.1 0-.2-.1-.2-.3-.2-.6-.7-.8-1.1-.1-.1-.1-.2-.2-.3v-.1c-.1-.1-.1-.2-.1-.3 0-.1-.1-.2-.1-.3-.1-.3-.2-.7-.2-.9 0-.4 0-1.1.1-1.8 0-.8.1-1.5.1-1.9v-.2c.1-.5.3-.8.5-1 .6-.6 1.6-.5 2.4-.5h.4c.1-.1.2-.3.2-.4l-.2-.8v-.1s.1-.1.1-.2c.2-.3.3-.7.4-1.1.1-.2.1-.4.2-.6.1-.4.1-.8 0-1.1-.1-.5-.4-1.1-.5-1.1l-1-.3c-.3-1.4-2.1-2.2-2.8-2.4-.2-.1-.3-.1-.3-.1-.1.1-.2.5-.2.7-.1.6-.3 1.5-1.2 1.7l-.6-.9c.2-.3.2-.7.3-1.1v-.3c.1-.5.2-.9.4-1.3.1-.2.2-.3.2-.5.2-.6 0-1.8-.5-2-.6-.3-1.1-1-1.6-1.7-.2-.3-.4-.5-.6-.7-.2-.3-.5-.5-.8-.7l-.4.3c-.3-.2-.6-.5-.9-.7.1.3 0 .4-.1.5zM374.3 496.7l-.3.5c.1 0 .1-.1.2-.1.1-.1.1-.3.1-.4zM375.3 504.2c0-.1 0 0 0 0 .1.1.2.1.2.1h-.1l-.1-.1zM373.2 496.4l.1-.2h-.2c-.1.1 0 .2.1.2z"/>
        <path class="st4" d="M331.2 494.9c.6 1 1.2 1.9 1 3.3-.2 1.4-.7 2.3-1.8 2.9-.7.4-1.5.5-2 .1-.3-.2-.7-.6-.6-1.6-.1 0-.1-.1-.2-.1-.4-.3-.6-.7-.7-1.1 0-.1-.1-.2-.1-.3-.6-1.2-.3-2.4.8-3.4.3-.3 1.3-1.2 1.1-1.9 0 0 0-.1-.1-.2-.2-.6-.4-1.3-.3-1.7-.3-.4-.6-.8-.7-1.3-.1.3-.3.5-.5.7-.3.3-.6.3-.8.4-.1 0-.3.1-.3.1-.6.6-1.1 1.6-1.5 2.3-.3.7-.5 1.4-.6 2.2-.1.4-.2.9-.3 1.3-.2.8-.6 1.7-1.1 2.4l.7.2c.1.2.1.3.1.5.1 0 .3.1.3.2.2.2.4.4.5.6 0 .1 0 .1.1.1.1.3.2.6.2.9.1.4.2.9.3 1.1.6.8 1 1.5 1 2.3v.5c0 .3-.1.7-.3 1.2-.3.8-.4 1.7-.1 1.9.8.3 1 1 1.2 1.4.1.3.2.4.3.5h.1c.1 0 .3 0 .5-.1s.4-.1.6-.2c.5-.1.9.1 1.3.2h.1c.2 0 .3.1.4.1h.4c.2 0 .4-.1.7-.2.4-.1.8-.3 1.3-.3s.9.3 1.2.5c.2.1.4.2.5.3h.2c.2 0 .6-.1.9.1.5.2.7.6.8.8.1.1.2.3.2.4.3.5.6 1 .9 1.4.1.1.1.2.2.3.1.2.3.4.4.6.1.2.2.3.2.3h.2c.1 0 .3 0 .5.1s.5 0 .9-.1c.5-.1 1.2-.2 2 0 .2 0 .4-.1.6-.1.1 0 .3-.1.4-.1h.8c.7 0 1.1 0 1.6-.3.2-.1.5-.2.8-.2h.3c.2 0 .3.1.5.2s.4.2.6.4c.6.5.7 1.2.4 1.8-.1.3-.3.5-.5.7-.1.1-.2.2-.2.3-.1.1-.1.2-.1.3v.4c0 .4 0 .9-.7 1.4-.1.2-.2.3-.2.5v3c-.1.7.1 1.4.3 2.2l.3 1.2c0 .2.4.7.7 1 .6.7 1.2 1.5.9 2.3-.2.7-.8 1.2-1.4 1.6-.3.2-.6.4-.7.6 1.1.4 2.4 1.9 2.6 2.6l.1.2-.1.2V535.1c0 .1.1.1.1.2.1.2.3.5.3.9s.2.8.3 1.2l.3.9c0 .1.1.3.2.5.2.6.3 1 .4 1.3 0 0 .1 0 .1.1.2.2.4.5.6.7.3.3.5.6.8.8.3.2.6.3.8.3.3 0 .6-.2 1-.4.2-.1.4-.3.6-.4.4-.2 1-.4 1.5-.1.2.2.4.4.4.7 0-.1.1-.1.1-.2l.3-.4c.4-.5.7-1 1.5-1.3l.2-.1c.3-.1.5-.2.7-.3 0 0 .1 0 .1-.1l.1-.1.1-.1c.2-.2 1-.9 1.6-.7l.1-.1c.3-.4.5-.6.6-1.1.2-.9.6-1.1 1.2-1.3.1 0 .2-.1.3-.1.1 0 .3-.1.5-.2.1-.1.2-.1.3-.2.2-.1.4-.2.5-.3.1-.1.1-.3.2-.3h-1c-.2 0-.4 0-.6-.1H362.2c-.2-.1-.5-.2-.7-.3-.4-.3-.3-.8-.3-1.2v-.4l-.3-.6c-.3-.8-.6-1.5-.6-3.1 0-.1 0-.2-.1-.3v-.1c0-.1-.1-.2-.2-.3-.1-.1-.2-.2-.2-.3l-.2-.2c-.2-.2-.4-.4-.6-.7l-.1-.1c-.5-.6-1-1.4-1-2 0-.1 0-.3.1-.4.1-.1.1-.2.2-.4l.1-.1.1-.1.4.2c.4.2.6.4.7.6v.1l.1.1h.4c.6-.1 1.8-.2 2 1v.2H363.2c.2 0 .3 0 .6.1h.1c.2-.3.5-.5.8-.5.6-.1 1 .6 1.4 1.2.1.2.4.6.6.8v-1c0-.3 0-.6.2-.9.3-.4.7-.5.9-.5.1 0 .3-.1.3-.1.6-.7 1.3-.4 1.6-.2h.2l.4-.1c.5-.2 2-.6 2.2-1 .2-.3 1.4-1 1.7-.9h.7c.2-.4.5-.7.8-.9.6-.5.9-.8.5-1.4 0-.1-.1-.1-.1-.2-1.3-.8-2.5-3-2.9-3.8l-.1-.3.1-.3c.1-.3.3-.5.5-.7.3-.5.6-.8.5-1.5-.1-1.3.6-1.7 1.2-2l.3-.3c.1-.1.2-.2.4-.2.3-.1.5 0 .7.1l.3-.3.6-.3h-.1c-.1 0-.1 0-.2-.1-.3-.2-.4-.5-.4-.8v-.2c0-.2 0-.4-.1-.4-.7-.9.1-1.9.4-2.3l.2-.2c.3-.4.4-.5 1-.8.3-.2.6-.4.9-.7.3-.3.7-.7 1.1-.9h.1c0-.1-.1-.1-.1-.2-.1-.1-.2-.3-.3-.5-.2-.2-.4-.3-.6-.4-.2-.1-.3 0-.3 0-.7.6-1.2.4-1.5.3-.2-.1-.2-.1-.3-.1-.5.1-.8.3-1.2.7l-.7-.2-.2.2-1-.1c-.1-.1-.2-.2-.4-.3-.1 0-.3-.1-.4-.1l-.6-.3-.2-.9c.4-.5 1.2-.4 1.8-.3h.2c0-.1.1-.2.1-.3l.1-.2c.1-.1.2-.4.4-.6l-.1-.1.3-.6-.3-.2c.2-.6.7-1 1-1.2.1-.1.2-.1.3-.2-.1-.1-.2-.2-.4-.3-.1-.1-.4-.2-.6-.2-.5-.1-1.1-.2-1.5-.9 0-.1-.1-.2-.3-.2l-.1.2h-.2c-.1.1-.1.2-.3.4l-.1.1-1.1-.6c0-.1.1-.2 0-.3 0-.1-.1-.2-.2-.2 0 .5 0 1-.5 1.4l-.5-.5-.9-.4c0-.1-.1-.4-.2-.6-.1-.2-.2-.5-.3-.7-.3.2-.6.4-.9.5-.8.2-1.4-.2-1.6-.9l.6-.8c.1 0 .3 0 .5.1.1 0 .3.1.5.1 0-.2-.1-.3-.1-.3s-.2 0-.3.1l-.9-.6c0-.3.2-.6.4-.8l-.3-.3c-.3 0-.7.1-1 .1-.4.1-.9.1-1.4.1l-.1.8c-.6.3-1.2.2-1.6.2-.3-.1-.6-.1-.7 0-.1 0-.2.2-.3.3-.2.3-.6.7-1.2.7-.2 0-.5.2-.8.4-.6.4-1.4 1.1-2.6.4v-.1c-.2-.1-.6-.1-.7-.2h-.1l-.3-.1-1.2-.3c-.7-.2-1.3-.7-1.8-1.4-.6-.8-1.5-.7-2.9-.5h-.3c-.5.1-1 .2-1.6.3-1.3.3-2.8.6-4.1.3-1.4-.3-1.4-1.7-1.3-2.5v-.8c-.3-.9-1.3-1.2-2.3-1.6l-.5-.2c-.3-.1-.6-.1-1 0-.4 0-.9.1-1.3-.1-.5.6-1.2.3-1.7 0l-.3.2h.2c-.1 0-.5.3-.7.4-.1.1-.2.1-.2.1-.7.4-1.4.6-2.2.7-.6.1-1.1.4-1.6.7l-.6.3c-.1 0-.2.2-.3.3-.2.2-.4.4-.6.5v.8c.1.4.4.9.6 1.3l.4.3z"/>
        <path class="st4" d="M328.5 495.5c-1.1 1-.7 1.8-.6 2 .1.1.1.3.2.4.1.2.2.4.3.5.1.1.1.1.2.1.5.3.5.6.5 1.2 0 .3 0 .4.1.4.1.1.3.1.7-.2.7-.4 1.1-1 1.2-2 .1-1-.3-1.6-.8-2.5l-.2-.4c-.2-.3-.3-.5-.4-.8-.5.7-1 1.1-1.2 1.3zM337.1 485.4c-.1 0-.2-.1-.2-.1-.1.1-.2.4-.2 1.6.2-.1.5-.2.8-.2-.1-.2-.2-1.2-.4-1.3zM418.7 550.1c-.1-.1-.1-.2-.1-.2-.2 0-.8.8-.9 1.2v.4c0 .2 0 .5-.1.8.3-.3.6-.7.8-1v-.2h.1c0-.1.1-.2.1-.2.1-.3.1-.6.1-.8z"/>
    </g>
</svg>
