<svg xmlns="http://www.w3.org/2000/svg" viewBox="0 0 1440 980" style="enable-background:new 0 0 1440 980" xml:space="preserve">
    <style>
        .st0{display:none}.st1{display:inline}.st2{fill-rule:evenodd;clip-rule:evenodd;fill:none;stroke:#bcbcbc;stroke-width:.75;stroke-miterlimit:1.2402}.st4,.st5{fill:#bcbcbc}.st5{display:inline}
    </style>
    <g id="Layer_8">
        <path class="st4" d="M406.1 824.3zM406.6 824.4l.1.2v-.1c0-.1 0-.1-.1-.1zM392.2 820.4zM393.4 823.3v-.1l-.1.1h.1zM396.4 824.3h-.1l-.3.1.2.2c0-.1.1-.2.1-.3h-.1c0 .1.1.1.2 0zM392.1 820.8l.1-.1v-.1l-.1.2zM387.1 820.9zM403.1 824.3c.1-.1.2-.1.3-.2-.5-.1-1.1-.2-1.7-.2h-.2s0 .1.1.1c0 .1.1.2.2.3.1 0 .6.1.8.1.1 0 .3 0 .4.1 0-.1.1-.1.1-.2zM365.3 796.7c.1 0 .1-.1.1-.1v-.1l-.1.2zM354.1 782c-.2 0-.4.2-.5.3h.1c.2-.2.3-.2.4-.3.1 0 .1 0 0 0zM373.2 803.2h-.3l-.1.1-.4.4c-.2.1-.5.2-.8.1-.7-.2-1.2-1.1-1.6-1.8-.1-.2-.4-.4-.7-.6-.5-.4-1.1-.8-1.2-1.4l-.1-.1c-.1-.1-.2-.2-.3-.4-.1-.3-.1-.5-.1-.7v-.2l-.2-.2c-.1 0-.1-.1-.1-.1l-.3.6c-.3-.1-.6-.3-.9-.5-.2-.1-.3-.2-.4-.3l.1.4c.1.1.3.3.4.2l1 .5v-.1h.1c0 .1-.1.2-.1.3l.2.7c.2.1.5.1.7.2v1c.2.1.4.2.5.3.1-.1.2-.3.3-.4l.9.8h.1V803.2c.1.2.3.5.1.8-.1.2-.3.4-.8.4l.3.3.1-.1c.1.1.2.2.3.2l.5-.3c.5.1 1.1.7 1.1 1.1v.1c.1.2.3.4.4.6.2.3.4.6.6.8l-.1.1h.2l.3.4.2-.4-.4-.5c.1-.2.2-.4.4-.6h.9c.3.2.6.4 1 .5.3.1.6.2 1 .4v-.1c.2-.2 0-.8-.3-1-.6-.5-.6-1.1-.6-1.4v-.4c-.3-.4-.6-.8-.7-.8-.6 0-1-.1-1.2-.1zM353.3 770.6h.1l.2-.5h.2l.1-.1v-.4l-.4.3-.2.7zM354.4 780.3z"/>
        <path class="st4" d="M359.3 783.7c.1.1.2.1.4.2.3.1.8.3 1 .7v.1h.1c.2.2.3.5.3.8l-.4.5v-.1l-1 .5h.1l-.1.1c.2.1.4.3.5.4 0 .1.1.1.1.1h.1c.2-.1.5-.2.8 0 .4.2.4.6.4.8l-.5.4c.2 0 .5 0 .6.1 0-.1 0-.2-.1-.3v-.1s0-.1-.1-.1l.9-.8c.2.2.3.4.3.5.1.1.1.3.1.5h.1c.1 0 .4.1.6.3.2.1.3.3.4.4l.3.3c.2 0 .6 0 .9.2l-.2.6.3-.1c.4.4.4 1 .2 1.4l-.9.2s-.2 0-.3-.1c-.2 0-.6-.1-.9-.3h-.2c-.1 0-.3 0-.5-.1s-.4-.1-.6-.2c-.1-.1-.3-.1-.4-.2l-.1.1c.2.1.3.2.3.2h.1l.2.4h.2c0-.1-.1-.1-.1-.1.1.1.7.1.8.1l.6 1-.3.7c.2 0 .3.1.4.2l-.6 1.1h-.2c.1.1.2.3.2.5s0 .5.5 1.1c0-.1 0-.3-.1-.3 0 0 0 .1.1.1v-.9c.5-.5 1.1-.5 1.6-.2l-.5.9v.2s.1 0 .2-.1.2-.3.2-.3c0 .2.3.7.4.8l-.4.7c.1 0 .2.1.3.2l.9.6v-1.1l.7-.7h.1s0-.2.1-.3V795c0-.2 0-.6.3-.9.3-.3.6-.3.8-.4h.1c0-.1-.1-.5-.5-1-.2-.3-.2-.6-.2-.8.1-.4.4-.6.7-.7h.1c-.1-.2-.4-.4-.7-.7-.3-.2-.5-.4-.6-.5l-.1-.1v-.1s0-.1-.1-.1c-.2-.4-.3-.8-.3-1.1v-.7c0-.1 0-.3.1-.5.1-.6.3-1.3.7-1.8-.2-.2-.3-.4-.3-.8v-.1c-.1-.2-.3-.6-.1-1 .1-.2.2-.3.3-.4l.1-.1c0-.1.1-.1.1-.2 0-.2-.1-.5-.3-.8-.3-.4-.8-.9-1.2-1.2l.3-1.1v-.1c-.5-.2-1-.8-1.1-1.4v-.5c0-.2 0-.3.1-.5.1-.1.2-.2.3-.2.2-.2.4-.3.5-.3 0 0 .1 0 .1-.2l.1-.2-.1-.1c-.4-.3-.8-.7-1.2-1-.1 0-.1-.1-.2-.1h-.5c-.5 0-1.1 0-1.6-.6-.2-.2-.3-.5-.2-.8.2-.5.9-.6 2.1-.7.3 0 .6 0 .9-.1v-.4c-.1-.1-.4-.1-.9-.1-.7 0-1.8 0-2.2-1-.1-.2-.3-.4-.4-.6l-.1-.2c-.1-.4.1-.7.2-.9-.1 0-.1-.1-.2-.1-.3-.2-.6-.5-.6-.9 0-.1 0-.3.1-.4l-.1-.1c-.1 0-.1-.1-.2-.1-.4-.3-.9-.6-1-1.1V766.9c0-.2.1-.3.2-.5h-.1c-1.1-.2-1.7-.7-2-1.8-.1-.4-.2-.7-.2-1.1-.1-.4-.1-.7-.2-1 0-.1-.1-.2-.2-.3-.2-.3-.4-.6-.4-1.1 0-.3.2-.6.5-.8.1-.1.2-.1.3-.2l-.2-.2c-.5-.6-1.2-1.4-1.1-2.3.1-.6-.3-1.3-.8-2.1l-.3-.6c-.2-.3-.3-.6-.4-1 0-.1-.1-.2-.1-.3-.1-.6-.1-1.4.2-2.1l-.2-.2c-.2-.2-.6-.5-.7-1l.5-.5c0-.2-.2-.6-.3-.7-.2-.2-.7-.8-.4-1.4.1-.2.2-.3.4-.4-.1-.4-.1-.8-.1-1.1 0-.4 0-.7-.1-.9-.4-1.2.5-1.8 1-2.2.2-.1.3-.2.5-.4 0-.1-.3-.5-.5-.7-.3-.4-.6-.7-.7-1.2-.1-.3-.4-.7-.7-1.1-.5-.7-1.1-1.5-1-2.3.1-.4-.4-1.6-.8-2.5-.3-.6-.5-1.9-.2-2.9v-.1c0-.1.1-.2.1-.2.1-.1.1-.2.2-.3.2-.3.5-.3.7-.3v-.1c0-.2.1-.6.4-.9l.1-.1c.1-.1.2-.2.4-.3V729.1c-.1-.4-.2-.8-.3-1.1-.2-.4-.3-.7-.5-1.1l-.2-.3c-.1 0-.1-.1-.2-.2-.3-.2-.5-.4-.5-.7v-.1c-.1-.2-.1-.4 0-.6.1-.1.3-.3.6-.3 0-.3 0-.6-.1-.9v-1.1c0-.7.2-1.9.7-2.4.1-.1.2-.1.3-.2 0-.1-.1-.2-.1-.3-.1-.2-.2-.4-.3-.5 0-.1-.1-.1-.1-.2-.1-.2-.1-.6-.2-.9v-.5c0-.4 0-1-.1-1.4h-.2c-.4 0-.6-.3-.9-.6-.6-.7-.5-1.2-.4-1.7v-.2c0-.1-.2-.2-.3-.3l-.1-.1c-.5-.4-.6-.8-.6-1.1 0-.1 0-.2-.1-.3-.1-.2-.1-.3-.2-.5-.1-.1-.2-.3-.3-.4-.2-.2-.4-.5-.6-.8-.2-.3-.3-.6-.4-.9l.3-.2c-.1-.2-.3-.4-.4-.4-1.3-.7-1.5-2.8-1.5-3.2 0-.7.2-1 .5-1.3l.1-.1v-.3c-.1-.5 0-1 .1-1.5.1-.4.2-1 .1-1.2l.1-.1.7-.8c0-.4-.1-1-.2-1.3-.1-.2-.2-.5-.4-.8-.6-1.1-1.2-2.4-.8-3.2.1-.4.3-.6.5-.7l.1-.1c0-.2 0-.5-.1-.8-.1-.3-.1-.6-.1-1 0-.2 0-.4.1-.6v-.2c0-.1.1-.3.1-.4.2-.6.5-1 .7-1.5.2-.4.5-.7.6-1.2.2-.5.3-1.1.4-1.6 0-.3.1-.7.2-1 .1-.5.2-1.1.6-1.6.3-.5.9-.5 1.2-.5h.2c.3-.2.4-.3.4-.3 0-.2-.4-.6-.6-.8-.2-.3-.5-.5-.7-.8-.3-.5-.3-.9-.3-1.3 0-.2.1-.3.1-.5 0-.1.1-.2.1-.3.1-.4.2-.6.1-.8 0-.1-.1-.3-.2-.5-.6-1.3-1.2-2.6-1-3.6v-.1c0-.2.1-.3.2-.5.1-.1.1-.2.2-.3-.4-.7-.9-1.3-.7-1.9.4-1.2 1.2-2.1 2.4-2.6.2-.1.4-.2.6-.2.7-.3 1.6-.6 1.8-1.2.2-.6.3-1.3.4-2 0-.2 0-.5.1-.7v-.6c0-.3 0-1-.1-1.4-.1 0-.2 0-.3-.1-.3.1-.6.2-1 .2h-.2c-.2 0-.4 0-.6-.1-.1 0-.2-.1-.3-.1-.1 0-.1 0-.2-.1-.2-.1-.4-.2-.5-.4l-.1-.2c-.3-.7-.5-1.4-.7-2-.3-1-.6-1.9-1.2-2.9-.4-.8-.6-1.5-.8-2.1-.1-.5-.2-.9-.5-1.3-.1-.2-.3-.4-.6-.6-.3-.3-.5-.5-.7-.9-.3-.4-.3-.9-.2-1.2-.3-.2-.5-.4-.7-.7l-.1-.1s0-.1-.1-.1c-.1-.1-.1-.2-.1-.2-.2-.4-.1-.7-.1-1v-.1c0-.2 0-.2-.1-.3l.1-1 .1-.1c.2-.1.3-.2.4-.3-.1-.1-.1-.2-.2-.3l-.1-.1v-.1l-.1-.1s0-.1-.1-.1c0-.1 0-.1-.1-.2v-.2c0-.3.2-.6.3-.9.2-.3.2-.5.2-.6l-.5-.5-.1-.1-.9-.9c-.6-.7-1-1.5-1.3-2.6 0-.1-.1-.3-.2-.6-.3-.6-.6-1.4-.5-2.1-.1-.1-.3-.2-.4-.3-.5-.4-.9-1-1.2-1.6-.2.2-.3.4-.5.6v.1c.1.3.2.7.1 1.1-.2.7-.6 1-1 1.2-.3.2-.6.3-1 .4.1.4.1.9.1 1.3v.6c.2 1.1.7 2.4 1 3.3.5 1.3.6 2.7.6 4 .1 1.3.1 2.6.6 3.7.7 1.8.6 3.8.6 5.8 0 .7-.1 1.4 0 2.1.1 2.7-.6 3-.8 3.2-.1 0-.1 0-.2.1-.1.4-.1.7 0 1h.1c.3.1.8.2 1 .9.1.5 0 1-.1 1.4l-.1.2c-.1.2 0 .4 0 .7 0 .1.1.3.1.5.1.5.1 1 .1 1.5s0 1.1.1 1.6c.1.4.2.7.4 1.1.3.6.5 1.2.6 1.9 0 .6-.3 1-.6 1.3-.2.2-.3.3-.3.5 0 .6.2 1.2.4 1.8.2.7.5 1.4.4 2.2 0 .6-.1 1.3-.2 2-.2 1.1-.4 2.1 0 2.9.3.8.1 1.5-.1 2-.1.3-.2.6-.2.9 0 .2.1.5.1.8.1.6.2 1.1.1 1.6-.1.3-.2.6-.2.8-.1.6-.3 1.1-.6 1.8-.1.2.2 1 .6 1.3.5.4 1.8 3.2 1.2 4v.4c0 .4.1 1-.5 1.4-.5.4-.5.4-.4.9.3 1.7 1 3.4 1.7 5.1l.1.2c.2.6.4 1.1.5 1.7.1.4.2.7.3 1.1.1.3.3.6.6.9.3.4.3.8.2 1.1v.2c0 .1.1.3.1.5.1.5.3 1.1.1 1.7l-.1.1c-.1.3-.4.8-.3 1.1l.3.6c.3.5.6 1.1.6 1.7 0 .5-.2 1-.4 1.5-.2.3-.3.6-.3.9 0 .6.1 1.3.2 2 .1.9.3 1.8.2 2.8-.1.6-.4 1.4-.7 2.1l-.1.3c-.1.2 0 .3.1.5.1.3.3.9-.1 1.5-.2.3-.2.5-.1 1 .1.3.1.6.1.9 0 .3-.1.6-.2.8 0 .1-.1.3-.1.4.1.2.2.5.2.8l-.5.5v.1c.2.5.4 1 .2 1.7-.1.4-.4.7-.8.9-.2.1-.3.1-.5.1v.1c.1.1.1.2.2.3.2.3.1.6.1.8v.1c.2.4.5.7.8 1.1l.1.1c.5.6.6 1.1.6 1.5 0 .2 0 .4.1.6.2.8.7 1.5 1.3 2.2.2.2.3.5.5.7.7 1 1 1.6 1.3 2.6.1.4.1.9 0 1.2 0 .3-.1.5 0 .7 0 .3.2 1-.6 1.3-.2.4 0 1.6.1 2.1 0 .2.1.4.1.6l.1.4c.3 2.1.7 4.3 2.2 4.3l.2.8c.2.2.9.3 1.2.2v-.2c0-.3 0-.8.4-1.1.2-.1.4-.2.8-.1s.7.3 1.1.5l.6.3c0-.1 0-.2-.1-.4l1-.6c.4.4.6.8.5 1.2-.1.6-.6.9-1.1 1.2-.1.1-.2.1-.3.2l-.1.1s0 .1.1.1.2 0 .3-.1l1 .1.2.4c.4.7.9 1.5 1 2.4l-.8.3v.7h-.3c0 .1.1.2.1.3 0 .1 0 .2.1.2l.2.2c.2.2.6.5.6 1.1l-.4.3c.1.2.1.4.1.7 0 .2-.1.3-.2.5s-.1.3 0 .4c.1.1.1.2.2.2.3.2.5.4.6.9l.5-.1c.5.7 0 1.3-.2 1.6-.1.1-.2.3-.2.3l-.4.5h.2v-.1c.2.4 1.7 1.2 2.1 1.1 0 0-.1 0-.1.1h1c.5.7.5 1.7.1 2.5-.3.7-.9 1.1-1.6 1.3.1.2.2.3.2.5.3 0 .7 0 1.1.3.3.2.4.2.5.2.4 0 .7.1.9.5.1.3.1.6-.2.9-.2.2-.6.3-1.1.1l-.3 1.1h-.3c-.1.1 0 .6.1 1h.8c.1.6 0 2.1-.5 2.9-.3.4-.7.6-.9.6l-.4.1-.2-.4c-.2-.4-.1-.8-.1-1.1-.7 0-2.1-.3-2.7-.6l.6-1.1h.3c-.1-.1-.1-.3-.1-.5l-.3-.3c-.1 0-.2 0-.2.1l-.2.7c-.2 0-.3-.1-.5-.1V780l.1.1-.7.8c.2 0 .2-.1.3-.2-.1.2-.3.5-.6.5h-.1l-.1.2s0-.1.1-.1h1.1c.3.5.2.8.2 1.1v.1s.1.1.3.2c.2.1.5.2.7.3 1-.5 1.5-.3 2.2.2l.2.5z"/>
        <path class="st4" d="M359.8 777.1c-.1 0-.1.1-.1.1-.1.1-.2.1-.2.2v.1c.3-.1.6-.2.9-.1l-.6-.3zM369.3 809.6l-.1.1s.1 0 .1-.1zM363.6 798.7l.2.4c0-.1 0-.1-.1-.2 0-.2 0-.2-.1-.2zM364.1 799l.1-.1h-.2c0 .1-.1.1-.1.2.1-.1.2-.1.2-.1zM359.8 792.3c0-.1.1-.1 0 0zM365.2 801.7v.1-.1zM362.4 795.9c.1 0 .2 0 .3.1-.1-.2-.2-.4-.4-.5-.3-.2-.3-.5-.4-.7-.3-.1-.5-.5-.7-.9v-.1h-.3v-.1l-.1.1s0-.2-.1-.3h-.1l.1.3h-.1l.1.1.1.2c0-.1 0-.1-.1-.1l.7.7c0-.1.1-.1.1-.1 0 .2.2.7.3.9.1.3.2.5.3.7l.3-.3zM360 792.2c.1 0 .2.1.4.1 0-.1-.1-.1-.1-.2l-.3.1zM360.9 788.1h.2c0-.1-.1-.2-.1-.2l-.1.2c0-.1.1-.1 0 0 .1-.1 0 0 0 0zM365.4 800.9l.4-.1c-.1 0-.2-.1-.3-.1-.1.1-.1.2-.1.2zM362 801.4zM363 797.5v.3-.3zM364 798.1H363.7l.1.1v.1s.1.1.1.2v-.2l.1-.2zM363.9 799zM368.1 802.5l.1.1v-.6l-.1.5zM354.8 776.7c-.1 0-.1-.1-.2-.1 0 .1.1.1.2.1 0 .1 0 0 0 0zM401.7 659.9c-.1.1-.2.3-.3.5-.4.7-.8 1.1-1.4 1.1-.5 0-.7-.5-.9-.8 0 0 0-.1-.1-.1h-.4c-.7-.1-1.5-.1-2.1-.5-.1 0-.3-.1-.5-.1-.8-.2-1.6-.4-1.8-1.1-.1-.5.1-1 .2-1.4.1-.1.1-.2.1-.4 0-.1-.1-.3-.1-.4-.1-.4-.2-.8-.1-1.2.1-.3.1-.7.1-1 0-.3-.1-.7 0-1.2 0 0-.1 0-.1-.1-.2-.2-.5-.6-.4-1.1-.4-.4-.6-1-.9-1.6-.1-.2-.1-.4-.2-.5-.2-.3-.3-.6-.2-.9v-.4c-.1-.6-.9-1.4-1.7-2-.9-.6-1.9-1-2.9-1.2-1.8-.4-3.7.1-5.5.6-1.1.3-2.2.6-3.3.7h-.3c-.2 0-.4.1-.5.1-.6.1-.8.4-.9 1.2-.1.8-.4 1.3-.7 1.8-.3.4-.5.8-.6 1.3v1.6c.1.6.2 1.3 0 2 0 .2-.1.5-.1.7-.1.6-.2 1.3-.3 2-.1.7-.2 1.4-.4 2.1.3.2.5.4.7.6l.2.2c.1 0 .1.1.2.1.3.2.6.5.9 1.1.2.5.5 1 .9 1.4.2.2.4.5.7.7.5.4 1.1.8 1.7 1.2l.9.6c.4.3.7.6 1 1 .1.1.1.2.2.3l.1.1c.2.2.5.4.7.5.1 0 .3.1.4.1.3.1.5.1.8.2.8.3 1.3.5 2.1.5.7 0 1.2.4 1.6.7.2.1.3.2.5.3.7.4 1.3.8 1.9 1.3.8.6 1.5 1.2 2.4 1.5.1 0 .2.1.4.1.4.1.9.2 1.3.6.2.2.3.2.5.2s.5.1.9.3c.2.1.4.2.6.2.5.2 1 .4 1.3.8.1.1.2.3.3.4.1.1.2.2.3.4l.3.3c.6.8.1 1.6-.2 2.2-.2.3-.3.5-.4.7V678.5c0 .2-.1.3-.2.5v.1c-.1.3-.3.5-.4.7-.3.5-.5.8-.4 1.5.2 1.1-.3 1.8-.6 2.3-.2.3-.4.6-.5 1v.1c.7-.1 1.4-.1 2.2 0 .5.1 1 .3 1.5.4 1 .3 1.9.6 2.8.3.2-.1.3-.1.4 0H403.7c.2.1.3.1.4.2.5-.3 1-.1 1.4.2.2-.5.5-1 1.3-1.1.5-.1.9.1 1.1.3.1.1.2.1.3.2.1 0 .1 0 .2-.6 0-.1.1-.2.1-.3 0-.1 0-.2.1-.3.2-.6.9-.8 1.4-1 .1 0 .1 0 .2-.1.2-.6.9-1.3.9-1.3l.2-.2h.1c0-.2.1-.6.1-.7v-.5c.1-.7.1-1.4 0-2v-.1c0-.2-.1-.4-.1-.6 0-.1-.1-.4-.1-.6-.1-.3-.1-.6-.1-.8v-.3c0-.7.1-1.3.2-1.8.1-.3.1-.6.2-1v-.7c0-.6 0-1.3.3-1.8 0-.1 0-.1-.1-.3-.1-.2-.2-.6-.1-1.1l-.1-.1c-.3-.3-.5-.5-.7-.5-.2 0-.5.1-.8.3-.2.1-.5.3-.7.4-.5.2-1 .2-1.4.1-.1 0-.2-.1-.3-.1 0 0-.1 0-.1-.1-.1 0-.1-.1-.2-.1s-.1-.1-.2-.2c-.6-.6-.8-1.6-1-2.4-.1-.4-.3-.7-.4-1.1-.2-.5-.4-.9-.5-1.4-.4-1.6-.9-2.2-1.4-3-.1 0-.2 0-.3-.1-.7-.4-1.3-.6-1.9-.9.1-.1.1 0 0 0zM408.8 690.7zM349.9 708.9c0 .1 0 .1 0 0zM352.7 764.7c-.1-.1-.2-.1-.2-.2l.3-.5c-.7-.6-1.3-1.2-1.1-1.8 0-.1-.1-.2-.1-.3 0-.4.3-.7.6-.9-.4-.4-.7-.9-.9-1.3-.2.2-.5.2-.8.2V760.8c.4.7.5 1.4.7 2.1.1.5.2 1.1.4 1.4.2.5.1.8 0 1.1v.2c.1.2.5.3.7.3l.2.1c.2 0 .3.1.5.1 0-.1 0-.1-.1-.1-.1-.2-.1-.3-.1-.3l.4-.5-.5-.5zM358.4 773.6c.1.1.3.1.4.1.1 0 .2-.2.4-.3l.2-.6c-.2 0-.4-.1-.7-.2h-.1l.1.5c-.1.1-.3.2-.4.2l.1.7h.1c.1-.3 0-.4-.1-.4zM358 775.3s0 .1 0 0c0 .1 0 0 0 0zM352.9 773.5zM358 776.2l-.2.4c.1-.1.2-.1.3-.2h.2v-.5l-.2-.2-.2.3c0 .1.1.1.1.2zM353.6 771.4l-.1-.1-.1.1h.2zM357.4 774.2l-.2.2c.2.2.5.4.6.6 0-.1-.1-.3 0-.4-.2-.1-.3-.2-.4-.4zM354.7 781.1zM357.5 770.4l-.2.3c.1 0 .3 0 .4-.1l-.2-.2zM356.5 779.2l-.1.2c.1 0 .1-.1.1-.2zM353.1 759.1s.1.1 0 0l.1-.1h.4l-.5.1c.1-.1 0 0 0 0zM432 701.2s0 .1 0 0c-.1.1 0 0 0-.1l-1.1.4-.1.2c-.1.1 0 .4 0 .6.1.3.1.6.1.9h-.3c0 .2 0 .4-.1.6-.1.1-.2.2-.2.3 0 1.2-1.1 1.9-1.7 2.2-.1 0-.1.1-.1.5 0 .2 0 .4-.1.7 0 .1-.1.2-.1.3.4.1.5.1.8-.1.2-.1.3-.3.5-.6s.4-.7.8-.9c.4-.2.4-.2.4-.8 0-.3 0-1.2.6-1.4.1-.3.3-.6.5-.8l.1-.1c.2-.2.2-.5.2-.8v-.2c-.1-.4-.2-.7-.2-.9zM351.2 757.9v.2-.2zM357.6 767.9c-.1 0-.2.1-.3.1l.4-.1h-.1zM353.6 757.9s0 .1 0 0c.3.2.5.4.6.6 0-.1.1-.2.1-.3-.1 0-.1-.1-.2-.1-.2 0-.4-.1-.5-.2zM361.2 797.2c.1-.3.3-.5.4-.6l.1-.1.3-.2-.9.5c-.1 0-.1 0-.2.1l-.1.1.2.2c.1-.1.1 0 .2 0zM387 821.2c0 .1 0 .1 0 0 .1.1.1.1.2.1v-.3l-.2.2zM357.9 795l.1.1v-.1c0 .1 0 .1-.1 0zM383.7 821.1l-.1.2h.1v-.2zM387.3 821.8c.1-.1 0-.1 0-.1v.1zM403.5 825.8h-.7l.5.5c0-.1.1-.2.2-.3l.2-.2h-.2zM394.9 825.6l-.1.1v.2c.1-.1.2-.2.3-.4h-.1l-.1.1zM395.7 825.9l-.2.1c.1.1.2.1.3.1l-.1-.2zM374.2 815.9c.1-.1.1-.2.2-.2h-.2v.2zM371.4 811s0-.1 0 0c0-.1 0-.1 0 0zM404.2 826.6l-.1.3c.1 0 .2-.1.2-.2.1-.1.1-.2.1-.3l-.2.2zM381.5 818.6c.1.1.1 0 .2 0v-.4c-.1 0-.2-.1-.3-.1l.1.5zM366.9 807.4l.1-.2c.5-.1.9.1 1.2.5.1.1.2.3.2.4h.1l.2-.7c.2 0 .4 0 .6.1v-.2l.5-.4-.5.4c-.4-.2-.8-.5-1.1-.9l.1-.2h-.1l-.3.3v.1h-.2l-.3.3c-.1-.1-.2-.1-.3-.2 0 .1-.1.2-.1.3h.3s-.1 0-.1.1c-.1.1-.4.2-.6.3l-.1-.1c0 .2-.1.3-.2.5l.6-.4zM376.1 817c0 .1 0 0 0 0zM380.5 817.4l-.6.2c-.1-.1-.2-.2-.2-.3h.2v-.1l-.6.2v.6h-.1c0 .1.1.1.1.2.4-.5 1-.7 1.6-.6-.1-.1-.2-.1-.2-.2 0 0 .1 0 .3-.1-.3.1-.4.1-.5.1zM378.8 819.6c0 .1.1.2.2.2l-.2-.2h.6-.6zM385.5 822.7h-.2c.1 0 .1.1.2.1v-.1c.1 0 .1 0 0 0zM394.3 746c-.1 0-.2.1-.3.2-.1.2-.1.3-.1.4l.4-.6zM393.9 744.8c0 .1 0 .1 0 0v.2-.2z"/>
        <path class="st4" d="M402.9 721.9c-.2-.3-.3-.5-.5-.7l.4-1.1-.1.1c0-.2-.2-.9-.8-1.9-.1-.2-.2-.4-.3-.5-.3-.7-.2-1.4-.1-2 .1-.3.1-.6.1-.9-.1-.7.6-1 .9-1.1-.3-.6-1-1.7-.8-2.8v-.2c.1-.3 0-.5-.1-.8-.1-.2-.2-.5-.3-.9v-.2c-.1-.4-.1-.9.2-1.2 0 0 0-.1.1-.1 0-.1.1-.1.1-.2s0-.2-.1-.4-.2-.6-.1-1c0-.1.1-.2.1-.3v-.1c.1-.2 0-1.1 0-1.5-.1-.8-.1-1.1.2-1.3 0-.1-.1-.3-.2-.4-.2-.3-.3-.5-.4-.9l-.1-.3.2-.2c.1-.1.2-.3.3-.4.3-.3.4-.5.4-.6v-.1l.3-.5.1-.2c.2-.1.3-.3.4-.7.2-.5.5-1.2 1.3-1.5.6-.2.9-1.1 1.2-1.9l.1-.4c.3-.7.7-1.4 1.1-2 .2-.4.5-.7.7-1.1.3-.6.8-1.5 1.5-1.6l-.1-.4c.1-.1.2-.3.3-.4.5-.6 1-1.2 1.6-1.6l.1-.1c.5-.3.7-.5 1-.8.1-.1.2-.3.4-.4h.1l.1-.1c.4-.4.9-.6 1.4-.8l.6-.3c.1 0 .3-.2.4-.3.4-.3.9-.7 1.4-.8.1-.7 0-1.3 0-2.1v-.2c0-1.2-.1-1.8-.5-2.9l-.1-.4c-.3-.7-.4-1.2-.9-1.4-.1-.1-.3-.1-.5-.1s-.3 0-.4.1l-.8.4.4 3c.1.5-.2 1.6-.9 2-.1.1-.1.1-.2.1-.1.1-.3.4-.4.6v.1l-.1.3c-.2.4-.6.5-1.3.7h-.2c-.1 0-.1.1-.2.1.1.6-.4 1.6-.9 2-.4.3-.8.2-1.2-.1-.1 0-.1-.1-.1-.1-.1 0-.2-.1-.2-.1-.1 0-.2-.1-.2 0-.1 0-.4.2-.7 1l-.8.3c-.2-.1-.4-.2-.6-.4-.1-.1-.2-.2-.3-.2 0 0-.1 0-.1.1-.4.2-.8.3-1.3-.2-.2.1-.5.2-.8.3-.5 0-1-.1-1.4-.2h-.2c-.3-.1-.5-.1-.8-.2-1.1-.3-2.1-.6-3.2-.5-.1 0-.3.1-.4.1-.3.1-.7.2-1 0-.4-.2-.5-.6-.6-.8-.1-.4.5-2.2.9-2.4.4-.3.4-.8.4-1.7 0-.9 0-2 1-2.5l.1-.1c.1-.1.1-.3.2-.5 0-.2.1-.3.1-.5.1-.4.2-.8.4-1.1.2-.3.2-.5.1-.7-.1-.1-.2-.2-.2-.3l-.1-.1c-.2-.1-.4-.3-.7-.5-.3-.2-.7-.3-1.1-.5-.5-.2-1-.3-1.5-.7-.3-.2-.7-.3-1.1-.4-.6-.1-1.1-.4-1.5-.7-.1-.1-.2-.1-.3-.2-1.1-.7-2-1.3-3.2-2.2-.6-.5-1.2-.6-1.9-.7-.5-.1-1-.2-1.5-.4-.2-.1-.4-.2-.7-.2-.3-.1-.7-.2-1-.3-.3-.1-.6-.2-.9-.4l-.5-.5c-.6-.6-1.4-1.2-2.1-1.7-.5-.4-.9-.7-1.2-1l-.5-.5c-.1-.1-.3-.2-.4-.4-.6-.6-1.2-1.3-1.4-2-.1-.3-.3-.5-.6-.7 0 0-.1-.1-.2-.1-.1-.1-.2-.1-.2-.2-.3-.2-.6-.5-.9-.8-.7-.4-.9-.8-1.1-1.1 0-.1-.1-.1-.1-.2h-2.1c-.2 0-.4 0-.5.1-.1 0-.2 0-.3.1-.4.1-.7.1-.9.1 0 .1-.1.2-.2.4-.1.1-.1.3-.1.4v.1c-.1.2-.1.3-.1.4-.2.7-.3 1.4-.4 2.2l-1.1.3c-.4-.6-.7-1.1-.9-1.6-.3-.6-.5-1-.8-1.4-.3-.3-.7-.5-1.4-.6-.3-.1-.8 0-1.2 0h-1.6c-.3 0-.5-.1-.7-.2-.4-.2-.7-.5-1-.8l-.3-.3c-.1.8-.4 1.3-1.6 1.7-.4.1-1.1 1.3-1.3 1.7 0 0 0 .1-.1.1-.1.2-.2.4-.3.5.6.5.7 1.5.5 2.5v1c-.1 1.4-.2 3-1.2 3.9l-.1.1h-.1c-2.1.6-3.4 1.5-3.8 2.6 0 .1.3.6.5.8.2.3.3.5.4.7l-.3.5-.2.4c-.1.1-.2.6.4 1.9l.2.4c.2.5.5 1.1.7 1.5.3.8 0 1.2-.2 1.6-.1.1-.1.2-.1.2v.2c0 .3.4.7.7 1.1.5.6 1.1 1.2.9 2-.2.6-.7 1-1.1 1.2-.4.2-.7.2-1 .2 0 0 0 .1-.1.1-.1.3-.2.7-.2.9-.1.7-.2 1.4-.4 2.1 0 .1 0 .2-.1.3-.3 1-.8 2-1.4 2.8-.1.1-.1.2-.1.2v.1c-.1.3 0 .5.1.9.1.5.3 1.2 0 1.9-.1.4-.4.6-.5.8-.2.2-.2.2-.1.3.1.3.2.6.4.8.2.3.4.7.5 1.1.1.2.1.4.2.5.1.2.1.4.2.6 0 .2.1.3.2.4.1.2.2.3.2.5.2.7-.1 1.6-.7 1.9-.1 0-.1.1-.2.1 0 .3-.1.6-.1.9 0 .2-.1.4-.1.6v.3c.1.4.2 1.1-.4 1.6l-.1.1v.2c0 .6.4 1.4.8 2 .1.1.2.3.2.4l.1.1c.1.1.4.2.6.5.2.4.4.9.1 1.3.1.2.2.3.4.5s.4.5.5.7c.2.3.4.7.5 1.2.1.3.2.4.4.6.8.4.6 1.3.5 1.6 0 .1-.1.3-.1.3.1.2.1.2.4.3h.2c.4.1 1 .4 1 1.5v.5c0 .9 0 1.6.4 2.3.3.4.6 1.1.3 1.6 0 .1-.1.1-.1.1h-.1c-.1.1-.1.1-.2.1s-.1.1-.2.1h-.1v.1c-.1.5-.2 1-.3 1.4 0 .3 0 .6.1.9 0 .2.1.4.1.6.1.7-.2 1.1-.3 1.3.8 1.2 1.3 2.4 1.5 3.8 0 .3 0 .7-.2 1-.1.2-.3.3-.6.3h-.1c0 .1-.1.2-.1.3 0 1-.7 1.1-1 1.1h-.1s0 .1-.1.2c-.1.4-.1.7.1 1.2.1.2.1.4.2.6.1.3.1.5.2.7.6 1.1.7 1.7.7 2.3v.5c.1.4.3.7.6 1.1.2.3.5.6.7 1 .3.5.5 1 .8 1.4.4.5.8 1.2.5 1.8 0 0 0 .1-.1.1v.1c-.2.4-.6.6-.9.8-.5.3-.4.3-.4.5.1.3.1.8.1 1.2 0 .3 0 1 .1 1.3v.1l-.2.8c.3.5.5 1.2.5 1.2.2.6.1 1-.1 1.3.1.1.3.3.4.6.2.5 0 1-.1 1.4 0 .1-.1.2-.1.3-.1.4-.1.7 0 1 0 .1.1.2.1.3.1.3.3.5.6.8.7.7.9 2 1 3.2 0 .3.3.6.7 1 .2.3.5.5.7.8l-.1.8c-.2.2-.4.3-.6.3h-.2c-.1 0-.2.1-.2.1s.2.3.3.5c.2.3.4.7.4 1.1.1.8.4 1.8.7 1.9.1.1.3.1.4.1.4.1 1.4.3 1.4 1.3 0 .3 0 .5-.2.7l.1.1c.1.1.3.2.4.3.3.2.6.5.6.8v.5l.1.1.4.4s0 .1.1.1c.2.3.2.5.1.7 0 .1 0 .2-.1.3v.1c.1.1.1.2.2.4.2.4.2.4.3.4h.7c.6 0 1.4 0 2 .6.2.2.3.5.3 1 0 .3-.1.7-.2 1l-.2.2c-.2.1-.3.2-.5.3.7.4 1.4.9 1.6 1.6.1.4.2 1.2-.8 2l-.1.1c.1.2.3.3.3.6h.1c.1.1.3.2.4.3.3.3.3.8.1 1.2 0 .1-.1.2-.2.3.7.6 1.6 1.7 1.5 2.7 0 .1-.1.3-.1.4-.1.2-.2.3-.3.4v.1c.1.2.1.3.1.5v.1c.4.2.5.6.6.9l-.6.9h.1c-.2.1-.4.7-.5 1.1 0 .2 0 .4-.1.6v.4c0 .3.1.5.2.7.1.1.3.2.4.3.7.5 1.5 1.2 1.3 2-.1.4-.4.6-.6.8h-.1c0 .1.1.2.2.3.2.4.6 1.1.2 1.9-.3.4-.6.5-.9.6h-.1v.3c-.1.4-.2 1.2-1 1.4 0 .2 0 .5.1.6l.1.1c.9.6 1.2 1.7 1.3 2.2 0 .2.4.5.7.7.3.2.6.5.8.7.1.2.2.3.3.5.2.4.4.7.7.8 0 0 .1-.1.2-.1l.2-.2c.5-.3.9-.3 1.2-.2H375c.6.1.9.4 1.5 1.2.3.5.3.9.3 1.3v.3c.5.3.8.9.9 1.4 0 .2.1.4.1.6.9.4 1.8 1.2 2.3 1.8.1.1.7.3 3 0 .2 0 .3 0 .4-.1 2.9-.3 5.9.3 8.5 1.1 0 0-.1 0-.1-.1-.2-.2-.4-.3-.7-.5-.2-.1-.3-.3-.5-.4-.1-.2-.5-.5-.6-.5-.3.2-.7.1-1.2 0-.2-.1-.7-.2-.9-.1l-.6-1.1c.3-.3.9-.3 1.4-.3h.3c-.7-1.2-1.1-1.5-1.2-1.5l-1-.6c.3-.5.2-.8.1-1.3s-.2-1 .1-1.7c.2-.6.7-.9 1.1-1.2h-.1c-.2-.1-.4-.2-.6-.2h-.4c-.1 0-.1 0-.2.1l-.6-1c.2-.2.4-.2.7-.3h.1c-.1-.1-.1-.1-.2-.1l.3-1.2c.7.1 1.2.7 1.6 1.2.5.6.8.8 1.1.7.6-.2.7-.6.3-2.1 0-.1-.1-.2-.1-.3h-.4l-.3-1.1c.1-.1.1-.2.1-.6 0-.7.2-1.1.5-1.5l.1-.2c.4-.7.9-1.3 1.5-1.9.1-.1.2-.2.3-.4.7-.8 1.3-1.5 2-1.8 0-.1 0-.2.1-.2l-.1-.1-.9.3c-.2 0-.5.1-.7-.1l.3-1.2h.2s.1 0 .2-.1.3-.1.5-.2c.1-.1.1-.2.1-.2.2-.6-.1-1.6-.8-2.1-.4-.3-1-.2-1.6-.2-.6 0-1.4.1-2-.2-.7-.3-1.2-.7-1.7-1.1-.3-.2-.5-.4-.8-.6l-.2-.1c-1.6-1.1-3.2-2.2-2.8-4.7.2-.9.5-2.6 1.6-3.3.3-.2.5-.3.9-.3 0-.1.1-.2.1-.2.4-.7 1.5-.7 2.6-.8h.4c-.2-.2-.5-.6-.4-1.1.1-.7.6-.9 1-1.1V770.5c0-.2-.1-.3-.2-.4l-.1-.1v-.2c-.1-.3-.1-.6 0-.9-.1-.1-.2-.3-.3-.5l-.1-.1c-.8-1-.7-1.6-.2-2.6.1-.2.1-.3.2-.4.2-.5.4-1.1 1.2-1.5-.8-.2-1.5-.6-1.8-1.2-.1-.3-.3-1.1.8-1.8.1 0 .1-.1.2-.1l-.2-.4c-.1-.1-.6-.3-.8-.3-.2 0-.4-.1-.5-.1-1.3-.5-1.5-1.8-1.6-2.7 0-.1 0-.3-.1-.4-.1-.4-.4-.8-.7-1.3-.5-.6-1-1.3-1-2.2 0-.6.3-1.3 1-1.7.4-.2 1-.1 1.4.2.1.1.2.2.2.3.7.2 1.3.4 1.9.7 1.2.5 2.3.9 3.5.8 1.8-.2 3-.5 3.5-1.4-.2-.1-.2-.3-.3-.5 0-.1-.1-.2-.1-.2-.1-.1-.2-.2-.3-.2-.2-.2-.4-.3-.6-.6-.4-.5-.2-1.1-.1-1.4 0-.1.1-.2.1-.2 0-.4-.1-.8-.2-1.2l-.1-.2.7-.5v-.5c-.1-.5-.2-.7-.7-1l.1-.3c-.1-.1-.4-.4-.6-.5-.4-.3-.5-.4-.6-.6-.1-.3-.1-.6-.1-.8v-.1c-.2-.2-.5-.5-.6-.8l.6-.9c.6.1 1 .3 1.5.5.4.2.8.4 1.3.4.9.1 1.7.1 2.6.1 1.7-.1 3.3-.5 5.1-.8.7-.2 1.3-.3 2-.4 2.3-.5 3.9-1.1 5.3-2.1.6-.4.6-.5.6-1.2v-.3c0-.8.5-1.6 1-2.4.2-.3.4-.6.5-.9l.2-.4c.4-.7.8-1.6.5-2.2 0-.1-.1-.3-.1-.5-.1-.2-.2-.8-.3-1.1-.8.2-1.6-.1-2.4-.8-.8-.9-1.5-2.4-1-3.5.5-1-.3-1.9-2.5-3-.9-.4-1.8-.8-2.7-1.4-1.5 1-1.8.5-2.1.2zM431.7 705.1l.1-.1-.3.2c.1-.1.1-.1.2-.1zM405.8 828c0 .1 0 .2.2.3.1.1.2.1.3.1l-.3-.4.2.1-.4-.1z"/>
        <path class="st4" d="M394 744.8c0 .1 0 .2.1.3v-.2l-.1-.1zM427.9 708.9c.1.1.1.1 0 0 .1.1 0 .1 0 0zM422.7 716.9c-.2-.5-.2-1-.2-1.4v-.4c-.1-.7.3-1.2.7-1.6.1-.1.2-.3.3-.4 0-.1.1-.1 0-.1 0-.1-.1-.2-.3-.2-.1 0-.1-.1-.2-.1-.1-.1-.2-.1-.3-.1h-.1c-.7-.3-1.1-.9-1.4-1.4-.1-.1-.1-.2-.2-.3-.5-.7-1-.9-1.6-1.2-.5-.2-1-.5-1.5-1l-.2-.2c-.6-.6-1.3-1-2-1.4l-.3-.2c-.2-.1-.4-.3-.5-.4-.9.2-1.8-.8-2.5-1.6-.1-.1-.1-.2-.2-.2-.4.4-1.1.8-1.7.5 0 0-.1 0-.1-.1-.1 0-.1-.1-.2-.1s-.1-.1-.1-.2l-.1-.1c-.1-.2-.2-.4-.2-.7v-.4c-.2-.6-.9-1.1-1.5-1.5-.2-.1-.3-.2-.5-.4-.1 0-.1-.1-.2-.1-.1-.1-.3-.2-.4-.4-.2-.2-.5-.5-.8-.7-.1 0-.1-.1-.2-.1-.2-.1-.4-.2-.5-.1l-.1.1c-.1.2-.3.4-.5.6-.1.1-.3.2-.5.2-.4.1-.8.1-1.2 0-.1.3-.3.6-.5.8l-.1.1.1.1c.2.2.5.6.5 1.1 0 .4-.1.7-.2.9v1c.1.5 0 1-.2 1.4.2.2.3.4.3.9 0 .3-.1.5-.2.7 0 .2-.1.3-.2.5s-.1.3-.1.5c.1.3.3.6.3.8.1.2.2.3.2.5.2.5 0 .9-.1 1.1v.1l.1.2c.1.3.3.6.4.9l.1.1c.3.5.8 1.4.5 2.1-.1.2-.3.6-.9.7-.3.3.1 2.4.5 3.1.3.5.8.9 1.4 1.3.4.3.8.7 1.2 1.1.2.2.3.2.9.1.2 0 .4-.1.6-.1h.2c1 0 1.6.4 2.1.8.2.1.4.3.6.4.3.2.6.2 1 .3.4.1.9.1 1.3.4.3.1.4.3.5.5l.1.1c.3 0 .6-.2.9-.3l.2-.1c.9-.5 1.8-.2 2.6 0 .2.1.4.1.6.1 1 .2 1.2.2 2.2-.2l.1-.1c.1-.1.5-.2.6-.3 0 .1-.1.2 0 .3l.9-.8c.1 0 .4-.2 1-1.4l.1-.2c.3-.6.8-1.7.8-2.1-.7-.8-1-1.5-1.1-1.7zM396.2 816.6c.4.9.9 1.8 1.3 2.6l1.5 3h.7c.2 0 .4 0 .6.1.8.3 2 .4 3 .4h.6c.9 0 1.7.2 2.5.4l.5.1c.3.1.6-.1 1-.2l.9-.3c-.8-.1-1.7-.4-2.8-.9-.5-.2-1-.5-1.6-.7-1.6-.6-3.2-1.3-4.5-2.5-.2-.2-.6-.4-.9-.5-.4-.2-.9-.4-1.3-.8-.2-.2-.4-.5-.6-.7-.3-.4-.4-.6-.7-.6h-.3c0 .3.1.5.1.6zM407 824.7v.4c.1.2.3.2.3.2l-.2-.4.3.3-.4-.5zM404.6 824.7c0-.1-.1-.1-.1-.2 0 .1.1.2.1.2zM395.7 822.1c-.1.1 0 .1 0 0 .1 0 .1 0 0 0zM385.2 753.5c0 .1.1.3.1.3v-.6c0 .1-.1.2-.1.3zM390.8 764c-.1-.1-.1-.3-.2-.4 0-.1-.1-.2-.1-.3-.1-.1-.5-.4-.8-.4-.1 0-.3 0-.5.1-.3.2-.3.3-.3.3.2.3 1.3.7 1.9.7z"/>
        <path class="st4" d="M390.1 812.4c0 .4-.1.9-.5 1.2-.2.1-.4.2-.6.2 0 .5-.3.9-.8 1 .1.1.1.2.2.4.2.4.9.2 1.8 0s2.3-.6 2.7.7c.4 1.1-.8 1.6-1.4 1.8-.2.1-.5.2-.6.3.5.9 1.7 1.1 2.9 1.4 1 .3 2.1.5 2.9 1.2l-.5 1.1h-.2s.2-.1.3-.2v-.2l-.5.5c0 .1-.1.2-.1.3 0 .1 0 .1-.1.2l-1-.6c0-.1.1-.1.1-.2v-.1l-.1-.1c-.3.2-.7.1-1 0l-.5.4c-.1-.1-.3-.2-.4-.4v.8c-.1 0-.2.1-.3.1l.5.2c-.1-.1-.2-.1-.2-.1h.8l.4-.3c.1.1.2.1.2.1l.1-.1.2-.1h.3c.4 0 .8.3 1 .5l.2.2c.1.1.3.1.4.1.2 0 .5.1.7.1.1 0 .3 0 .4.1l.4-.6c-.3-.5-.5-1-.7-1.5-.1-.3-.3-.7-.4-1-.3-.5-.5-1-.8-1.6-.9-1.8-1.8-3.6-2.6-5.5 0-.1-.1-.1-.2-.1 0 0-.1 0-.4.1-.3.1-.7.3-1.3.2-.2-.1-.5-.2-.8-.5-.2.1-.3 0-.5 0zM355.7 749.6c-.1 0-.1 0 0 0-.1 0-.1.1 0 0zM382.7 816.3c-.1.1-.1.2-.2.3l.6.3-.4-.6zM391.6 822.2zM382.9 818.4h-.1zM387.2 818.7s.1 0 0 0c.1 0 .1 0 0 0zM388.6 818.5l.3.3.1-.1c-.1-.2-.2-.3-.2-.5l-.2.3zM383.4 813.6c-.3.5-.8.8-1.1 1.1h.2c.1 0 .2 0 .3.1v-.1c.2-.3.5-.5.9-.6 0-.1.1-.3.1-.4-.1 0-.2 0-.4-.1.1 0 .1 0 0 0zM381.4 815.8c-.1 0-.1 0 0 0-.1 0-.1 0 0 0zM384.8 817.4h.2c.8.2 1.3.2 1.5.2 0-.1-.1-.2-.1-.3-.1-.2-.2-.4-.4-.6-.3-.4-.6-.9-.7-1.5 0-.2-.1-.4-.1-.5-.1-.3-.1-.6-.2-.9 0 .5-.2 1.3-.9 1.4-.3 0-.3.1-.3.1s0 .2.1.4c.1.3.2 1-.3 1.4.4.1.8.3 1.2.3zM358.8 785.4l.1-.1-.1.1-.1.1c.1 0 .1-.1.1-.1zM361 788.3c.1 0 .1-.1.1-.1l-.1.1zM364.2 802.1c-.2-.4-.1-.7 0-.8 0-.1.1-.2.2-.2h-.1l-.1-.3-.2.2.1.1-.3.7.4.3c-.1-.1-.1 0 0 0-.1 0 0 0 0 0zM378.1 813.4c.1 0 .1 0 0 0zM356.7 791.2c0 .1 0 .1 0 0zM369.9 809.4zM379 811.9V812.2 811.9zM378.2 813.5c0 .2.2.4.6.6.3.2.8.4.9 1l-.1.2.2-.2-.4-1c.6-.4 1.1-.2 1.5-.1.3.1.5.1.6 0l.2-.1c.4-.3.6-.5.8-.7-.4.1-.9 0-1.3-.1-.2 0-.6-.1-.7-.1-.5.6-.8.7-1.3.9l-.3.1-.7-.5zM388 813.6c0 .1-.1.1 0 0l.1.1s0-.1-.1-.1zM387.5 815.9c-.2-.3-1-1.4-.5-2.3l-.1-.5c-.3.1-.5.1-.8.1.2.4.2.9.3 1.3 0 .2.1.3.1.5.1.4.3.7.5 1.1.1.2.3.4.4.7.1.1.1.2.2.4 0-.1 0-.2.1-.2 0-.1.2-.2.4-.3-.2-.3-.4-.5-.6-.8z"/>
        <path class="st4" d="M391.9 816.3c-.2-.1-.9.1-1.3.2l-1.5.3c.4.2.6.6.7.9.2-.5.8-.8 1.4-1 .2-.2.6-.3.7-.4zM382.8 819.6zM362.8 789.2c0-.1 0-.1 0 0zM382 809.9h-.7c-.9.1-1.8.2-2.4-.2-.4-.2-.7-.6-1.1-.9-.3-.3-.5-.5-.8-.7.1.1.2.3.4.4l-.2.6.5.5c.5.3.6.8.6 1.1v.2l-.1.3h.4l.1.3c.1-.1.3-.2.5-.2 1.1-.3 3.2 0 3.7.8l-.1.7.6-.3s.2.1.3.1c.3.1.7.2 1 .5l.2-.7c.3-.1.6-.1.9-.2.5-.1 1-.1 1.2-.4.4-.5 1-.5 1.3-.5h.4c.1-.1.1-.2.1-.3 0-.1 0-.3.1-.4-1.4-.3-2.9-.5-4.5-.5H382zM388.3 812.4c.1 0 .1.1.2.1.1.1.2.1.3.1v-.3h-.4c0 .1 0 .1-.1.1z"/>
        <path class="st4" d="M377.2 809.2c0 .1 0 .1 0 0 .1 0 .1-.1 0-.1v.1zM376.6 811.4zM376.6 812.8c0 .1-.1.1-.1.2l.3 1.1v-.1c0-.1 0-.2-.1-.3 0 0 .1.1.2.1 0-.1-.1-.1-.1-.2l-.1-.1.2-.6-.3-.1zM379.5 815.3l-.3.4c.1.1.3.1.4.2l-.1-.3v-.3zM382.6 818.7v.1-.1zM375.1 811.4c.1 0 .2 0 .3.1v-.4c.3-.1.6-.1.9-.1v-.1l.1-.1c-.2.1-.4.1-.5.1h-.3l-.5-.4c-.1 0-.1.1-.2.1-.2.1-.3.2-.5.2.2.2.3.5.4.7l.3-.1zM376.5 812.1c.1-.1.1-.2.1-.3.1-.1.1-.2.2-.2l-.2-.2-.1.2v-.1.6c0-.1 0-.1 0 0zM345.3 732.5l-.1-.1v.1h.1zM354.6 779.8c0-.1-.1-.2-.1-.2h-.1v.5s0-.1.1-.1v-.2.1l.1-.1zM433.3 701.7v.3c.1-.2.1-.4.2-.6l-.3.1c.1 0 .1.1.1.2zM455.1 664c-.3 0-.4.1-.5.1.1 0 .2.1.2.1.1 0 .1.1.2.1 0-.1 0-.2.1-.3zM410.2 822.7c.2 0 .4-.1.6-.1H409.5h.1c.1.2.3.2.6.1zM356.7 788.7v-.1c-.1 0 0 0 0 .1zM391.4 762.4c.3.3.4.6.5.8 0 .1.1.3.1.3.4 0 1-.1 1.2-.2.1-.1-.1-.5-.2-.7-.1-.2-.2-.5-.3-.8-.1-.4-.6-1-.9-1h-.1c.2.1.3.3.4.5.1.3 0 .6-.2.8-.2.1-.4.2-.5.3zM351.7 773.2h-.1l.1.1v-.1zM350.8 774.1c0 .1 0 .2.1.3.1.1.2.1.3.1l-.1-.3.3.1-.6-.2zM427.2 806.9l.1-.1-.1-.4v.2c.1.1.1.2 0 .3zM422 808.8h.2c-.1 0-.2 0-.2-.1v.1zM427.3 807.2c0-.1 0-.1 0 0zM430.9 808s-.1.2-.1.4.2.3.2.3l.1-.7c-.6 0-1.6-.6-1.8-1l-.2-.3.1-.1c-.2-.1-.5-.1-.8-.1v.1c.1.2.2.4.1.7.2.2.4.5.3.9l-1.1.3s-.2.1-.4.4c-.2.2-.2.4-.1.5l-.1.3.7-.3.1-.6h.4l.7-.8c.4.3.9.3 1.6.3.2-.2.3-.2.3-.3zM426.6 806.4l-.3.3h.1c.1-.1.2-.2.2-.3zM421 808.5c-.1 0-.1 0-.1.1v.2s.1-.1.1-.2v-.1zM426.9 807.6l.1-.1v-.1c0 .1-.1.1-.1.2zM426.1 810.4v-.3c-.1.1-.1.3-.1.5 0 0 .1.2.2.2v-.2l-.1-.2zM424.2 807.2l-.1.5.1.1-.3.6-.1.1-.3.1v.1l.4.3.4-.5c.4.1.6 0 1.1-.9.1-.2.2-.4.3-.5-.4-.2-1-.3-1.4-.3l-.1.4z"/>
    </g>
</svg>
